<?xml version="1.0" standalone="no"?>
<!DOCTYPE svg PUBLIC "-//W3C//DTD SVG 1.1//EN" "http://www.w3.org/Graphics/SVG/1.1/DTD/svg11.dtd">
<svg width="120" height="152" viewBox="-60 -92 120 152" xmlns="http://www.w3.org/2000/svg" version="1.1">
<title>OpenSCAD Model</title>
<path d="
M 45.4202,-36.0998 L 46.9233,-37.7117 L 48.3692,-39.375 L 49.7562,-41.0878 L 51.0825,-42.8479 L 52.3467,-44.6533
 L 53.547,-46.5017 L 54.6821,-48.3908 L 55.7506,-50.3185 L 56.7512,-52.2822 L 57.5572,-54.0106 L 57.6073,-53.9904
 L 59.4803,-58.6263 L 11.7637,-77.9051 L 11.9342,-78.7072 L 11.9342,-81.2159 L 11.4127,-83.6698 L 10.3923,-85.9616
 L 8.91772,-87.9911 L 7.05342,-89.6698 L 4.88083,-90.9241 L 2.49493,-91.6993 L 0,-91.9616 L -2.49493,-91.6993
 L -4.88083,-90.9241 L -7.05342,-89.6698 L -8.91772,-87.9911 L -10.3923,-85.9616 L -11.4127,-83.6698 L -11.9342,-81.2159
 L -11.9342,-78.7072 L -11.7637,-77.9051 L -59.4803,-58.6263 L -57.6073,-53.9904 L -57.5572,-54.0106 L -56.7512,-52.2822
 L -55.7506,-50.3185 L -54.6821,-48.3908 L -53.547,-46.5017 L -52.3467,-44.6533 L -51.0825,-42.8479 L -49.7562,-41.0878
 L -48.6805,-39.7594 L -40.6468,-40.2106 L -40.9006,-40.4644 L -42.2541,-41.9158 L -43.5561,-43.4137 L -44.8051,-44.956
 L -45.9995,-46.541 L -47.1378,-48.1667 L -48.2187,-49.8312 L -49.2409,-51.5323 L -50.2031,-53.2681 L -51.1041,-55.0365
 L -51.7246,-56.3672 L -9.88954,-73.2696 L -8.91772,-71.932 L -7.05342,-70.2534 L -4.88083,-68.999 L -2.49493,-68.2238
 L 0,-67.9616 L 2.49493,-68.2238 L 4.88083,-68.999 L 7.05342,-70.2534 L 8.91772,-71.932 L 9.88954,-73.2696
 L 51.7246,-56.3672 L 51.1041,-55.0365 L 50.2031,-53.2681 L 49.2409,-51.5323 L 48.2187,-49.8312 L 47.1378,-48.1667
 L 45.9995,-46.541 L 45.0351,-45.2612 L 44.467,-35.1467 z
M -1.03955,-75.0708 L -2.03368,-75.3939 L -2.93892,-75.9165 L -3.71571,-76.6159 L -4.33012,-77.4616 L -4.75528,-78.4165
 L -4.9726,-79.4389 L -4.9726,-80.4842 L -4.75528,-81.5067 L -4.33012,-82.4616 L -3.71571,-83.3072 L -2.93892,-84.0067
 L -2.03368,-84.5293 L -1.03955,-84.8523 L 0,-84.9616 L 1.03955,-84.8523 L 2.03368,-84.5293 L 2.93892,-84.0067
 L 3.71571,-83.3072 L 4.33012,-82.4616 L 4.75528,-81.5067 L 4.9726,-80.4842 L 4.9726,-79.4389 L 4.75528,-78.4165
 L 4.33012,-77.4616 L 3.71571,-76.6159 L 2.93892,-75.9165 L 2.03368,-75.3939 L 1.03955,-75.0708 L 0,-74.9616
 z
M -5.21907,45.6607 L -4.8083,45.748 L 1.52315,45.748 L 13.3512,58.4957 L 5.08055,45.6901 L 11.6967,44.2838
 L 26.033,54.0581 L 15.0719,43.367 L 21.3079,40.5905 L 37.4094,46.9099 L 24.2953,38.896 L 29.8754,34.8419
 L 46.9099,37.4094 L 32.2971,32.4997 L 36.9665,27.3139 L 54.0581,26.033 L 38.6833,24.4945 L 42.0231,18.7099
 L 42.1233,18.4015 L 58.4957,13.3512 L 43.1389,15.2757 L 44.9948,9.56393 L 45.0956,8.60507 L 60,-0
 L 45.4431,5.29826 L 46,-0 L 45.8317,-1.60085 L 58.4957,-13.3512 L 45.4803,-4.94501 L 44.9948,-9.56393
 L 44.296,-11.7146 L 54.0581,-26.033 L 43.2456,-14.9474 L 42.0231,-18.7099 L 40.5632,-21.2384 L 46.9099,-37.4094
 L 38.8458,-24.2131 L 37.2148,-27.0381 L 34.8158,-29.7025 L 37.4094,-46.9099 L 32.4943,-32.2808 L 30.78,-34.1847
 L 27.3347,-36.6878 L 26.033,-54.0581 L 24.5009,-38.7467 L 23,-39.8372 L 18.4868,-41.8466 L 13.3512,-58.4957
 L 15.2575,-43.2843 L 14.2148,-43.7486 L 8.7068,-44.9193 L 0,-60 L 5.21907,-45.6607 L 4.8083,-45.748
 L -1.52315,-45.748 L -13.3512,-58.4957 L -5.08055,-45.6901 L -11.6967,-44.2838 L -26.033,-54.0581 L -15.0719,-43.367
 L -21.3079,-40.5905 L -37.4094,-46.9099 L -24.2953,-38.896 L -29.8754,-34.8419 L -46.9099,-37.4094 L -32.2971,-32.4997
 L -36.9665,-27.3139 L -54.0581,-26.033 L -38.6833,-24.4945 L -42.0231,-18.7099 L -42.1233,-18.4015 L -58.4957,-13.3512
 L -43.1389,-15.2757 L -44.9948,-9.56393 L -45.0956,-8.60507 L -60,-0 L -45.4431,-5.29826 L -46,-0
 L -45.8317,1.60085 L -58.4957,13.3512 L -45.4803,4.94501 L -44.9948,9.56393 L -44.296,11.7146 L -54.0581,26.033
 L -43.2456,14.9474 L -42.0231,18.7099 L -40.5632,21.2384 L -46.9099,37.4094 L -38.8458,24.2131 L -37.2148,27.0381
 L -34.8158,29.7025 L -37.4094,46.9099 L -32.4943,32.2808 L -30.78,34.1847 L -27.3347,36.6878 L -26.033,54.0581
 L -24.5009,38.7467 L -23,39.8372 L -18.4868,41.8466 L -13.3512,58.4957 L -15.2575,43.2843 L -14.2148,43.7486
 L -8.7068,44.9193 L 0,60 z
M -0.873978,-39.7809 L 4.18114,-39.7809 L 12.3607,-38.0423 L 18.076,-35.4976 L 4.10286,-17.9758 z
M -31.7628,-24.1755 L -26.7652,-29.7258 L -20,-34.641 L -16.4709,-36.2122 L -11.496,-14.4155 z
M 16.6122,-8 L 30.569,-25.5013 L 32.3607,-23.5114 L 36.5418,-16.2695 L 39.1259,-8.31647 L 39.1592,-8
 z
M -39.1259,8.31647 L -40,-0 L -39.1259,-8.31647 L -38.6634,-9.73996 L -18.4381,-0 L -38.6634,9.73996
 z
M -0.522629,4.9726 L -1.54507,4.75528 L -2.5,4.33012 L -3.34564,3.71571 L -4.04507,2.93892 L -4.56772,2.03368
 L -4.89073,1.03955 L -5,-0 L -4.89073,-1.03955 L -4.56772,-2.03368 L -4.04507,-2.93892 L -3.34564,-3.71571
 L -2.49998,-4.33012 L -1.54507,-4.75528 L -0.522629,-4.9726 L 0.522629,-4.9726 L 1.54507,-4.75528 L 2.5,-4.33012
 L 3.34564,-3.71571 L 4.04507,-2.93892 L 4.56772,-2.03368 L 4.89073,-1.03955 L 5,-0 L 4.89073,1.03955
 L 4.56772,2.03368 L 4.04507,2.93892 L 3.34564,3.71571 L 2.5,4.33012 L 1.54507,4.75528 L 0.522629,4.9726
 z
M 16.6122,8 L 39.1592,8 L 39.1259,8.31647 L 36.5418,16.2695 L 32.3607,23.5114 L 30.569,25.5013
 z
M -20,34.641 L -26.7652,29.7258 L -31.7628,24.1755 L -11.496,14.4155 L -16.4709,36.2122 z
M -0.873978,39.7809 L 4.10286,17.9758 L 18.076,35.4976 L 12.3607,38.0423 L 4.18114,39.7809 z
" stroke="black" fill="lightgray" stroke-width="0.5"/></svg>
