<?xml version="1.0" standalone="no"?>
<!DOCTYPE svg PUBLIC "-//W3C//DTD SVG 1.1//EN" "http://www.w3.org/Graphics/SVG/1.1/DTD/svg11.dtd">
<svg width="64" height="105" viewBox="-15 -90 64 105" xmlns="http://www.w3.org/2000/svg" version="1.1">
<title>OpenSCAD Model</title>
<path d="
M 34.275,-50.7522 L 34.7389,-51.9203 L 35.0594,-53.0706 L 35.2321,-54.1887 L 35.2456,-55.2568 L 35.0534,-56.2412
 L 34.6934,-57.0144 L 35.7909,-57.5862 L 35.7918,-57.5847 L 35.8279,-57.6055 L 35.827,-57.6071 L 36.871,-58.2716
 L 37.3606,-57.5733 L 38.117,-56.9146 L 39.0488,-56.3923 L 40.1034,-55.9828 L 41.2598,-55.6851 L 42.5034,-55.5029
 L 43.145,-56.1444 L 42.9627,-57.388 L 42.6651,-58.5445 L 42.2556,-59.5991 L 41.7332,-60.5309 L 41.0746,-61.2873
 L 40.3763,-61.7769 L 41.0408,-62.8209 L 41.0424,-62.82 L 41.0632,-62.8561 L 41.0616,-62.857 L 41.6335,-63.9545
 L 42.4066,-63.5945 L 43.391,-63.4023 L 44.4592,-63.4158 L 45.5773,-63.5885 L 46.7276,-63.909 L 47.8957,-64.3729
 L 48.1306,-65.2493 L 47.3509,-66.2352 L 46.5149,-67.0879 L 45.633,-67.7964 L 44.7147,-68.3422 L 43.7661,-68.6679
 L 42.9165,-68.7428 L 42.97,-69.9791 L 42.9718,-69.9792 L 42.9718,-70.0208 L 42.97,-70.0208 L 42.9165,-71.2572
 L 43.7661,-71.332 L 44.7147,-71.6578 L 45.633,-72.2036 L 46.5149,-72.9121 L 47.3509,-73.7648 L 48.1306,-74.7507
 L 47.8957,-75.6271 L 46.7276,-76.091 L 45.5773,-76.4115 L 44.4592,-76.5842 L 43.391,-76.5977 L 42.4066,-76.4055
 L 41.6335,-76.0455 L 41.0616,-77.143 L 41.0632,-77.1439 L 41.0424,-77.18 L 41.0408,-77.1791 L 40.3763,-78.2231
 L 41.0746,-78.7127 L 41.7332,-79.4691 L 42.2556,-80.4009 L 42.6651,-81.4555 L 42.9627,-82.612 L 43.145,-83.8555
 L 42.5034,-84.4971 L 41.2598,-84.3148 L 40.1034,-84.0172 L 39.0488,-83.6077 L 38.117,-83.0854 L 37.3606,-82.4267
 L 36.871,-81.7284 L 35.827,-82.3929 L 35.8279,-82.3945 L 35.7918,-82.4153 L 35.7909,-82.4137 L 34.6934,-82.9856
 L 35.0534,-83.7587 L 35.2456,-84.7431 L 35.2321,-85.8113 L 35.0594,-86.9294 L 34.7389,-88.0797 L 34.275,-89.2478
 L 33.3986,-89.4827 L 32.4127,-88.703 L 31.56,-87.867 L 30.8515,-86.9851 L 30.3057,-86.0668 L 29.9799,-85.1182
 L 29.9051,-84.2686 L 28.6687,-84.3221 L 28.6687,-84.3239 L 28.6271,-84.3239 L 28.627,-84.3221 L 27.3907,-84.2686
 L 27.3158,-85.1182 L 26.9901,-86.0668 L 26.4443,-86.9851 L 25.7357,-87.867 L 24.883,-88.703 L 23.8972,-89.4827
 L 23.0208,-89.2478 L 22.5568,-88.0797 L 22.2364,-86.9294 L 22.0637,-85.8113 L 22.0502,-84.7431 L 22.2424,-83.7587
 L 22.6023,-82.9856 L 21.5049,-82.4137 L 21.504,-82.4153 L 21.4679,-82.3945 L 21.4688,-82.3929 L 20.4248,-81.7284
 L 19.9352,-82.4267 L 19.1788,-83.0854 L 18.2469,-83.6077 L 17.1924,-84.0172 L 16.0359,-84.3148 L 14.7923,-84.4971
 L 14.1507,-83.8555 L 14.333,-82.612 L 14.6306,-81.4555 L 15.0402,-80.4009 L 15.5625,-79.4691 L 16.2212,-78.7127
 L 16.9195,-78.2231 L 16.255,-77.1791 L 16.2534,-77.18 L 16.2326,-77.1439 L 16.2341,-77.143 L 15.6623,-76.0455
 L 14.8891,-76.4055 L 13.9047,-76.5977 L 12.8365,-76.5842 L 11.7185,-76.4115 L 10.5682,-76.091 L 9.40005,-75.6271
 L 9.16521,-74.7507 L 9.94489,-73.7648 L 10.7809,-72.9121 L 11.6628,-72.2036 L 12.5811,-71.6578 L 13.5297,-71.332
 L 14.3792,-71.2572 L 14.3258,-70.0208 L 14.324,-70.0208 L 14.324,-69.9792 L 14.3258,-69.9791 L 14.3792,-68.7428
 L 13.5297,-68.6679 L 12.5811,-68.3422 L 11.6628,-67.7964 L 10.7809,-67.0879 L 9.94487,-66.2352 L 9.16521,-65.2493
 L 9.40005,-64.3729 L 10.5682,-63.909 L 11.7185,-63.5885 L 12.8365,-63.4158 L 13.9047,-63.4023 L 14.8891,-63.5945
 L 15.6623,-63.9545 L 16.2341,-62.857 L 16.2326,-62.8561 L 16.2534,-62.82 L 16.255,-62.8209 L 16.9195,-61.7769
 L 16.2212,-61.2873 L 15.5625,-60.5309 L 15.0402,-59.5991 L 14.6306,-58.5445 L 14.333,-57.388 L 14.1507,-56.1444
 L 14.7923,-55.5029 L 16.0359,-55.6851 L 17.1924,-55.9828 L 18.2469,-56.3923 L 19.1788,-56.9146 L 19.9352,-57.5733
 L 20.4248,-58.2716 L 21.4688,-57.6071 L 21.4679,-57.6055 L 21.504,-57.5847 L 21.5049,-57.5862 L 22.6023,-57.0144
 L 22.2424,-56.2412 L 22.0502,-55.2568 L 22.0637,-54.1887 L 22.2364,-53.0706 L 22.5568,-51.9203 L 23.0208,-50.7522
 L 23.8972,-50.5173 L 24.883,-51.297 L 25.7357,-52.133 L 26.4443,-53.0149 L 26.9901,-53.9332 L 27.3158,-54.8818
 L 27.3907,-55.7313 L 28.627,-55.6779 L 28.6271,-55.6761 L 28.6687,-55.6761 L 28.6687,-55.6779 L 29.9051,-55.7313
 L 29.9799,-54.8818 L 30.3057,-53.9332 L 30.8515,-53.0149 L 31.56,-52.133 L 32.4127,-51.297 L 33.3986,-50.5173
 z
M 26.856,-65.3321 L 25.5013,-66.1143 L 24.4545,-67.2768 L 23.8183,-68.7059 L 23.6547,-70.2617 L 23.98,-71.7918
 L 24.7622,-73.1466 L 25.9247,-74.1933 L 27.3538,-74.8296 L 28.9096,-74.9931 L 30.4397,-74.6679 L 31.7945,-73.8857
 L 32.8412,-72.7232 L 33.4775,-71.2941 L 33.641,-69.7383 L 33.3158,-68.2082 L 32.5336,-66.8534 L 31.3711,-65.8066
 L 29.942,-65.1704 L 28.3862,-65.0069 z
M 1.0867,13.4388 L 1.67899,12.5295 L 2.10953,11.6102 L 2.36551,10.7007 L 2.39879,9.82935 L 2.0376,8.34932
 L 3.27039,7.9447 L 3.27158,7.9473 L 3.28836,7.93881 L 3.30621,7.93295 L 3.30524,7.93027 L 4.46304,7.34467
 L 5.25418,8.64661 L 5.89384,9.23921 L 6.71796,9.70129 L 7.67245,10.0469 L 8.73427,10.2711 L 9.88564,10.3658
 L 10.3658,9.88564 L 10.2711,8.73427 L 10.0469,7.67245 L 9.70129,6.71796 L 9.23921,5.89384 L 8.64661,5.25418
 L 7.34467,4.46304 L 7.93027,3.30524 L 7.93294,3.30623 L 7.93881,3.28836 L 7.9473,3.27158 L 7.9447,3.27039
 L 8.34932,2.03761 L 9.82935,2.3988 L 10.7007,2.36552 L 11.6102,2.10954 L 12.5295,1.679 L 13.4388,1.08672
 L 14.3199,0.339508 L 14.3199,-0.339493 L 13.4388,-1.0867 L 12.5295,-1.67899 L 11.6102,-2.10953 L 10.7007,-2.36551
 L 9.82935,-2.39879 L 8.34932,-2.0376 L 7.9447,-3.27039 L 7.9473,-3.27158 L 7.93881,-3.28836 L 7.93295,-3.30621
 L 7.93027,-3.30524 L 7.34467,-4.46304 L 8.64661,-5.25418 L 9.23921,-5.89384 L 9.70129,-6.71796 L 10.0469,-7.67245
 L 10.2711,-8.73427 L 10.3658,-9.88564 L 9.88564,-10.3658 L 8.73427,-10.2711 L 7.67245,-10.0469 L 6.71796,-9.70129
 L 5.89384,-9.23921 L 5.25418,-8.64661 L 4.46304,-7.34467 L 3.30524,-7.93027 L 3.30623,-7.93295 L 3.28835,-7.93881
 L 3.27158,-7.9473 L 3.27039,-7.9447 L 2.03761,-8.34932 L 2.3988,-9.82935 L 2.36552,-10.7007 L 2.10954,-11.6102
 L 1.679,-12.5295 L 1.08672,-13.4388 L 0.339508,-14.3199 L -0.339508,-14.3199 L -1.08672,-13.4388 L -1.679,-12.5295
 L -2.10954,-11.6102 L -2.36552,-10.7007 L -2.3988,-9.82935 L -2.03761,-8.34932 L -3.27039,-7.9447 L -3.27158,-7.9473
 L -3.28835,-7.93881 L -3.30623,-7.93295 L -3.30524,-7.93027 L -4.46304,-7.34467 L -5.25418,-8.64661 L -5.89384,-9.23921
 L -6.71796,-9.70129 L -7.67245,-10.0469 L -8.73427,-10.2711 L -9.88564,-10.3658 L -10.3658,-9.88564 L -10.2711,-8.73427
 L -10.0469,-7.67245 L -9.70129,-6.71796 L -9.23921,-5.89384 L -8.64661,-5.25418 L -7.34467,-4.46304 L -7.93027,-3.30524
 L -7.93294,-3.30623 L -7.93881,-3.28836 L -7.9473,-3.27158 L -7.9447,-3.27039 L -8.34932,-2.03761 L -9.82935,-2.3988
 L -10.7007,-2.36552 L -11.6102,-2.10954 L -12.5295,-1.679 L -13.4388,-1.08672 L -14.3199,-0.339508 L -14.3199,0.339493
 L -13.4388,1.0867 L -12.5295,1.67899 L -11.6102,2.10953 L -10.7007,2.36551 L -9.82935,2.39879 L -8.34932,2.0376
 L -7.9447,3.27039 L -7.9473,3.27158 L -7.93881,3.28836 L -7.93295,3.30621 L -7.93027,3.30524 L -7.34467,4.46304
 L -8.64661,5.25418 L -9.23921,5.89384 L -9.70129,6.71796 L -10.0469,7.67245 L -10.2711,8.73427 L -10.3658,9.88564
 L -9.88564,10.3658 L -8.73427,10.2711 L -7.67245,10.0469 L -6.71796,9.70129 L -5.89384,9.23921 L -5.25418,8.64661
 L -4.46304,7.34467 L -3.30524,7.93027 L -3.30623,7.93295 L -3.28835,7.93881 L -3.27158,7.9473 L -3.27039,7.9447
 L -2.03761,8.34932 L -2.3988,9.82935 L -2.36552,10.7007 L -2.10954,11.6102 L -1.679,12.5295 L -1.08672,13.4388
 L -0.339508,14.3199 L 0.339493,14.3199 z
M -1.54507,4.75528 L -2.93892,4.04507 L -4.04507,2.93892 L -4.75528,1.54507 L -5,-0 L -4.75528,-1.54507
 L -4.04507,-2.93892 L -2.93892,-4.04507 L -1.54507,-4.75528 L 0,-5 L 1.54507,-4.75528 L 2.93892,-4.04507
 L 4.04507,-2.93892 L 4.75528,-1.54507 L 5,-0 L 4.75528,1.54507 L 4.04507,2.93892 L 2.93892,4.04507
 L 1.54507,4.75528 L 0,5 z
" stroke="black" fill="lightgray" stroke-width="0.5"/></svg>
