  0
SECTION
  2
BLOCKS
  0
ENDSEC
  0
SECTION
  2
ENTITIES
  0
LINE
  8
0
 10
117.918
 20
-77.6297
 11
118.578
 21
-76.4892
  0
LINE
  8
0
 10
118.578
 20
-76.4892
 11
119.187
 21
-75.3433
  0
LINE
  8
0
 10
119.187
 20
-75.3433
 11
119.744
 21
-74.1931
  0
LINE
  8
0
 10
119.744
 20
-74.1931
 11
120.247
 21
-73.0395
  0
LINE
  8
0
 10
120.247
 20
-73.0395
 11
121.078
 21
-73.019
  0
LINE
  8
0
 10
121.078
 20
-73.019
 11
121.859
 21
-72.9917
  0
LINE
  8
0
 10
121.859
 20
-72.9917
 11
122.43
 21
-74.1135
  0
LINE
  8
0
 10
122.43
 20
-74.1135
 11
123.054
 21
-75.2287
  0
LINE
  8
0
 10
123.054
 20
-75.2287
 11
123.73
 21
-76.3365
  0
LINE
  8
0
 10
123.73
 20
-76.3365
 11
124.456
 21
-77.4359
  0
LINE
  8
0
 10
124.456
 20
-77.4359
 11
125.23
 21
-78.5261
  0
LINE
  8
0
 10
125.23
 20
-78.5261
 11
126.538
 21
-78.4095
  0
LINE
  8
0
 10
126.538
 20
-78.4095
 11
127.107
 21
-77.1996
  0
LINE
  8
0
 10
127.107
 20
-77.1996
 11
127.627
 21
-75.9891
  0
LINE
  8
0
 10
127.627
 20
-75.9891
 11
128.096
 21
-74.7792
  0
LINE
  8
0
 10
128.096
 20
-74.7792
 11
128.513
 21
-73.5712
  0
LINE
  8
0
 10
128.513
 20
-73.5712
 11
128.877
 21
-72.3661
  0
LINE
  8
0
 10
128.877
 20
-72.3661
 11
129.698
 21
-72.2477
  0
LINE
  8
0
 10
129.698
 20
-72.2477
 11
130.471
 21
-72.128
  0
LINE
  8
0
 10
130.471
 20
-72.128
 11
131.171
 21
-73.1745
  0
LINE
  8
0
 10
131.171
 20
-73.1745
 11
131.923
 21
-74.208
  0
LINE
  8
0
 10
131.923
 20
-74.208
 11
132.725
 21
-75.228
  0
LINE
  8
0
 10
132.725
 20
-75.228
 11
133.576
 21
-76.2339
  0
LINE
  8
0
 10
133.576
 20
-76.2339
 11
134.473
 21
-77.2249
  0
LINE
  8
0
 10
134.473
 20
-77.2249
 11
135.758
 21
-76.9544
  0
LINE
  8
0
 10
135.758
 20
-76.9544
 11
136.18
 21
-75.6858
  0
LINE
  8
0
 10
136.18
 20
-75.6858
 11
136.553
 21
-74.4223
  0
LINE
  8
0
 10
136.553
 20
-74.4223
 11
136.876
 21
-73.1654
  0
LINE
  8
0
 10
136.876
 20
-73.1654
 11
137.147
 21
-71.9164
  0
LINE
  8
0
 10
137.147
 20
-71.9164
 11
137.365
 21
-70.6769
  0
LINE
  8
0
 10
137.365
 20
-70.6769
 11
138.167
 21
-70.4621
  0
LINE
  8
0
 10
138.167
 20
-70.4621
 11
138.921
 21
-70.2518
  0
LINE
  8
0
 10
138.921
 20
-70.2518
 11
139.739
 21
-71.2082
  0
LINE
  8
0
 10
139.739
 20
-71.2082
 11
140.608
 21
-72.1456
  0
LINE
  8
0
 10
140.608
 20
-72.1456
 11
141.525
 21
-73.0635
  0
LINE
  8
0
 10
141.525
 20
-73.0635
 11
142.489
 21
-73.9617
  0
LINE
  8
0
 10
142.489
 20
-73.9617
 11
143.497
 21
-74.8396
  0
LINE
  8
0
 10
143.497
 20
-74.8396
 11
144.741
 21
-74.4191
  0
LINE
  8
0
 10
144.741
 20
-74.4191
 11
145.01
 21
-73.1095
  0
LINE
  8
0
 10
145.01
 20
-73.1095
 11
145.231
 21
-71.8108
  0
LINE
  8
0
 10
145.231
 20
-71.8108
 11
145.403
 21
-70.5245
  0
LINE
  8
0
 10
145.403
 20
-70.5245
 11
145.525
 21
-69.2522
  0
LINE
  8
0
 10
145.525
 20
-69.2522
 11
145.595
 21
-67.9955
  0
LINE
  8
0
 10
145.595
 20
-67.9955
 11
146.366
 21
-67.6873
  0
LINE
  8
0
 10
146.366
 20
-67.6873
 11
147.089
 21
-67.3895
  0
LINE
  8
0
 10
147.089
 20
-67.3895
 11
148.015
 21
-68.2424
  0
LINE
  8
0
 10
148.015
 20
-68.2424
 11
148.988
 21
-69.0704
  0
LINE
  8
0
 10
148.988
 20
-69.0704
 11
150.008
 21
-69.8734
  0
LINE
  8
0
 10
150.008
 20
-69.8734
 11
151.071
 21
-70.6513
  0
LINE
  8
0
 10
151.071
 20
-70.6513
 11
152.176
 21
-71.4038
  0
LINE
  8
0
 10
152.176
 20
-71.4038
 11
153.361
 21
-70.8391
  0
LINE
  8
0
 10
153.361
 20
-70.8391
 11
153.473
 21
-69.5069
  0
LINE
  8
0
 10
153.473
 20
-69.5069
 11
153.539
 21
-68.1912
  0
LINE
  8
0
 10
153.539
 20
-68.1912
 11
153.558
 21
-66.8936
  0
LINE
  8
0
 10
153.558
 20
-66.8936
 11
153.529
 21
-65.6157
  0
LINE
  8
0
 10
153.529
 20
-65.6157
 11
153.449
 21
-64.3597
  0
LINE
  8
0
 10
153.449
 20
-64.3597
 11
154.179
 21
-63.9624
  0
LINE
  8
0
 10
154.179
 20
-63.9624
 11
154.862
 21
-63.5811
  0
LINE
  8
0
 10
154.862
 20
-63.5811
 11
155.882
 21
-64.3186
  0
LINE
  8
0
 10
155.882
 20
-64.3186
 11
156.946
 21
-65.0256
  0
LINE
  8
0
 10
156.946
 20
-65.0256
 11
158.054
 21
-65.7024
  0
LINE
  8
0
 10
158.054
 20
-65.7024
 11
159.201
 21
-66.3491
  0
LINE
  8
0
 10
159.201
 20
-66.3491
 11
160.388
 21
-66.9656
  0
LINE
  8
0
 10
160.388
 20
-66.9656
 11
161.498
 21
-66.2647
  0
LINE
  8
0
 10
161.498
 20
-66.2647
 11
161.452
 21
-64.9286
  0
LINE
  8
0
 10
161.452
 20
-64.9286
 11
161.361
 21
-63.6143
  0
LINE
  8
0
 10
161.361
 20
-63.6143
 11
161.226
 21
-62.3236
  0
LINE
  8
0
 10
161.226
 20
-62.3236
 11
161.046
 21
-61.0582
  0
LINE
  8
0
 10
161.046
 20
-61.0582
 11
160.819
 21
-59.8203
  0
LINE
  8
0
 10
160.819
 20
-59.8203
 11
161.496
 21
-59.3396
  0
LINE
  8
0
 10
161.496
 20
-59.3396
 11
162.129
 21
-58.8802
  0
LINE
  8
0
 10
162.129
 20
-58.8802
 11
163.229
 21
-59.4919
  0
LINE
  8
0
 10
163.229
 20
-59.4919
 11
164.37
 21
-60.068
  0
LINE
  8
0
 10
164.37
 20
-60.068
 11
165.55
 21
-60.6091
  0
LINE
  8
0
 10
165.55
 20
-60.6091
 11
166.766
 21
-61.1155
  0
LINE
  8
0
 10
166.766
 20
-61.1155
 11
168.017
 21
-61.5874
  0
LINE
  8
0
 10
168.017
 20
-61.5874
 11
169.036
 21
-60.7601
  0
LINE
  8
0
 10
169.036
 20
-60.7601
 11
168.832
 21
-59.4388
  0
LINE
  8
0
 10
168.832
 20
-59.4388
 11
168.587
 21
-58.1445
  0
LINE
  8
0
 10
168.587
 20
-58.1445
 11
168.3
 21
-56.8787
  0
LINE
  8
0
 10
168.3
 20
-56.8787
 11
167.972
 21
-55.6436
  0
LINE
  8
0
 10
167.972
 20
-55.6436
 11
167.6
 21
-54.4412
  0
LINE
  8
0
 10
167.6
 20
-54.4412
 11
168.215
 21
-53.8839
  0
LINE
  8
0
 10
168.215
 20
-53.8839
 11
168.79
 21
-53.3527
  0
LINE
  8
0
 10
168.79
 20
-53.3527
 11
169.954
 21
-53.83
  0
LINE
  8
0
 10
169.954
 20
-53.83
 11
171.155
 21
-54.2671
  0
LINE
  8
0
 10
171.155
 20
-54.2671
 11
172.391
 21
-54.6649
  0
LINE
  8
0
 10
172.391
 20
-54.6649
 11
173.658
 21
-55.024
  0
LINE
  8
0
 10
173.658
 20
-55.024
 11
174.956
 21
-55.3446
  0
LINE
  8
0
 10
174.956
 20
-55.3446
 11
175.87
 21
-54.4025
  0
LINE
  8
0
 10
175.87
 20
-54.4025
 11
175.512
 21
-53.1147
  0
LINE
  8
0
 10
175.512
 20
-53.1147
 11
175.115
 21
-51.8584
  0
LINE
  8
0
 10
175.115
 20
-51.8584
 11
174.681
 21
-50.6354
  0
LINE
  8
0
 10
174.681
 20
-50.6354
 11
174.208
 21
-49.4478
  0
LINE
  8
0
 10
174.208
 20
-49.4478
 11
173.697
 21
-48.2979
  0
LINE
  8
0
 10
173.697
 20
-48.2979
 11
174.242
 21
-47.6716
  0
LINE
  8
0
 10
174.242
 20
-47.6716
 11
174.75
 21
-47.0763
  0
LINE
  8
0
 10
174.75
 20
-47.0763
 11
175.962
 21
-47.4125
  0
LINE
  8
0
 10
175.962
 20
-47.4125
 11
177.207
 21
-47.7045
  0
LINE
  8
0
 10
177.207
 20
-47.7045
 11
178.48
 21
-47.9534
  0
LINE
  8
0
 10
178.48
 20
-47.9534
 11
179.781
 21
-48.1601
  0
LINE
  8
0
 10
179.781
 20
-48.1601
 11
181.108
 21
-48.3249
  0
LINE
  8
0
 10
181.108
 20
-48.3249
 11
181.905
 21
-47.2813
  0
LINE
  8
0
 10
181.905
 20
-47.2813
 11
181.396
 21
-46.0449
  0
LINE
  8
0
 10
181.396
 20
-46.0449
 11
180.854
 21
-44.8443
  0
LINE
  8
0
 10
180.854
 20
-44.8443
 11
180.278
 21
-43.6813
  0
LINE
  8
0
 10
180.278
 20
-43.6813
 11
179.668
 21
-42.5579
  0
LINE
  8
0
 10
179.668
 20
-42.5579
 11
179.024
 21
-41.4766
  0
LINE
  8
0
 10
179.024
 20
-41.4766
 11
179.492
 21
-40.7902
  0
LINE
  8
0
 10
179.492
 20
-40.7902
 11
179.925
 21
-40.1391
  0
LINE
  8
0
 10
179.925
 20
-40.1391
 11
181.169
 21
-40.3295
  0
LINE
  8
0
 10
181.169
 20
-40.3295
 11
182.44
 21
-40.4722
  0
LINE
  8
0
 10
182.44
 20
-40.4722
 11
183.734
 21
-40.5688
  0
LINE
  8
0
 10
183.734
 20
-40.5688
 11
185.05
 21
-40.6201
  0
LINE
  8
0
 10
185.05
 20
-40.6201
 11
186.387
 21
-40.6268
  0
LINE
  8
0
 10
186.387
 20
-40.6268
 11
187.055
 21
-39.4963
  0
LINE
  8
0
 10
187.055
 20
-39.4963
 11
186.403
 21
-38.3288
  0
LINE
  8
0
 10
186.403
 20
-38.3288
 11
185.723
 21
-37.2007
  0
LINE
  8
0
 10
185.723
 20
-37.2007
 11
185.014
 21
-36.114
  0
LINE
  8
0
 10
185.014
 20
-36.114
 11
184.275
 21
-35.0706
  0
LINE
  8
0
 10
184.275
 20
-35.0706
 11
183.508
 21
-34.073
  0
LINE
  8
0
 10
183.508
 20
-34.073
 11
183.891
 21
-33.3362
  0
LINE
  8
0
 10
183.891
 20
-33.3362
 11
184.244
 21
-32.6384
  0
LINE
  8
0
 10
184.244
 20
-32.6384
 11
185.502
 21
-32.6803
  0
LINE
  8
0
 10
185.502
 20
-32.6803
 11
186.78
 21
-32.6718
  0
LINE
  8
0
 10
186.78
 20
-32.6718
 11
188.077
 21
-32.6146
  0
LINE
  8
0
 10
188.077
 20
-32.6146
 11
189.39
 21
-32.5098
  0
LINE
  8
0
 10
189.39
 20
-32.5098
 11
190.718
 21
-32.3584
  0
LINE
  8
0
 10
190.718
 20
-32.3584
 11
191.248
 21
-31.1569
  0
LINE
  8
0
 10
191.248
 20
-31.1569
 11
190.463
 21
-30.0746
  0
LINE
  8
0
 10
190.463
 20
-30.0746
 11
189.654
 21
-29.0349
  0
LINE
  8
0
 10
189.654
 20
-29.0349
 11
188.821
 21
-28.0397
  0
LINE
  8
0
 10
188.821
 20
-28.0397
 11
187.964
 21
-27.091
  0
LINE
  8
0
 10
187.964
 20
-27.091
 11
187.084
 21
-26.1912
  0
LINE
  8
0
 10
187.084
 20
-26.1912
 11
187.377
 21
-25.4142
  0
LINE
  8
0
 10
187.377
 20
-25.4142
 11
187.646
 21
-24.6795
  0
LINE
  8
0
 10
187.646
 20
-24.6795
 11
188.9
 21
-24.5723
  0
LINE
  8
0
 10
188.9
 20
-24.5723
 11
190.168
 21
-24.4127
  0
LINE
  8
0
 10
190.168
 20
-24.4127
 11
191.449
 21
-24.2026
  0
LINE
  8
0
 10
191.449
 20
-24.2026
 11
192.74
 21
-23.9432
  0
LINE
  8
0
 10
192.74
 20
-23.9432
 11
194.041
 21
-23.6358
  0
LINE
  8
0
 10
194.041
 20
-23.6358
 11
194.425
 21
-22.3801
  0
LINE
  8
0
 10
194.425
 20
-22.3801
 11
193.517
 21
-21.3982
  0
LINE
  8
0
 10
193.517
 20
-21.3982
 11
192.591
 21
-20.4616
  0
LINE
  8
0
 10
192.591
 20
-20.4616
 11
191.646
 21
-19.5718
  0
LINE
  8
0
 10
191.646
 20
-19.5718
 11
190.684
 21
-18.731
  0
LINE
  8
0
 10
190.684
 20
-18.731
 11
189.703
 21
-17.9416
  0
LINE
  8
0
 10
189.703
 20
-17.9416
 11
189.902
 21
-17.1355
  0
LINE
  8
0
 10
189.902
 20
-17.1355
 11
190.082
 21
-16.3741
  0
LINE
  8
0
 10
190.082
 20
-16.3741
 11
191.315
 21
-16.1194
  0
LINE
  8
0
 10
191.315
 20
-16.1194
 11
192.555
 21
-15.8109
  0
LINE
  8
0
 10
192.555
 20
-15.8109
 11
193.802
 21
-15.4508
  0
LINE
  8
0
 10
193.802
 20
-15.4508
 11
195.054
 21
-15.0405
  0
LINE
  8
0
 10
195.054
 20
-15.0405
 11
196.309
 21
-14.5813
  0
LINE
  8
0
 10
196.309
 20
-14.5813
 11
196.542
 21
-13.2891
  0
LINE
  8
0
 10
196.542
 20
-13.2891
 11
195.524
 21
-12.4214
  0
LINE
  8
0
 10
195.524
 20
-12.4214
 11
194.494
 21
-11.6009
  0
LINE
  8
0
 10
194.494
 20
-11.6009
 11
193.45
 21
-10.8292
  0
LINE
  8
0
 10
193.45
 20
-10.8292
 11
192.395
 21
-10.1082
  0
LINE
  8
0
 10
192.395
 20
-10.1082
 11
191.328
 21
-9.44023
  0
LINE
  8
0
 10
191.328
 20
-9.44023
 11
191.431
 21
-8.6162
  0
LINE
  8
0
 10
191.431
 20
-8.6162
 11
191.519
 21
-7.83891
  0
LINE
  8
0
 10
191.519
 20
-7.83891
 11
192.713
 21
-7.4402
  0
LINE
  8
0
 10
192.713
 20
-7.4402
 11
193.908
 21
-6.98723
  0
LINE
  8
0
 10
193.908
 20
-6.98723
 11
195.103
 21
-6.48216
  0
LINE
  8
0
 10
195.103
 20
-6.48216
 11
196.298
 21
-5.92671
  0
LINE
  8
0
 10
196.298
 20
-5.92671
 11
197.49
 21
-5.32222
  0
LINE
  8
0
 10
197.49
 20
-5.32222
 11
197.568
 21
-4.0116
  0
LINE
  8
0
 10
197.568
 20
-4.0116
 11
196.456
 21
-3.27031
  0
LINE
  8
0
 10
196.456
 20
-3.27031
 11
195.335
 21
-2.57747
  0
LINE
  8
0
 10
195.335
 20
-2.57747
 11
194.208
 21
-1.93457
  0
LINE
  8
0
 10
194.208
 20
-1.93457
 11
193.075
 21
-1.34341
  0
LINE
  8
0
 10
193.075
 20
-1.34341
 11
191.936
 21
-0.806305
  0
LINE
  8
0
 10
191.936
 20
-0.806305
 11
191.941
 21
0.0240326
  0
LINE
  8
0
 10
191.941
 20
0.0240326
 11
191.936
 21
0.806305
  0
LINE
  8
0
 10
191.936
 20
0.806305
 11
193.075
 21
1.34341
  0
LINE
  8
0
 10
193.075
 20
1.34341
 11
194.208
 21
1.93457
  0
LINE
  8
0
 10
194.208
 20
1.93457
 11
195.335
 21
2.57747
  0
LINE
  8
0
 10
195.335
 20
2.57747
 11
196.456
 21
3.27031
  0
LINE
  8
0
 10
196.456
 20
3.27031
 11
197.568
 21
4.0116
  0
LINE
  8
0
 10
197.568
 20
4.0116
 11
197.49
 21
5.32222
  0
LINE
  8
0
 10
197.49
 20
5.32222
 11
196.298
 21
5.92671
  0
LINE
  8
0
 10
196.298
 20
5.92671
 11
195.103
 21
6.48216
  0
LINE
  8
0
 10
195.103
 20
6.48216
 11
193.908
 21
6.98723
  0
LINE
  8
0
 10
193.908
 20
6.98723
 11
192.713
 21
7.4402
  0
LINE
  8
0
 10
192.713
 20
7.4402
 11
191.519
 21
7.83891
  0
LINE
  8
0
 10
191.519
 20
7.83891
 11
191.425
 21
8.66394
  0
LINE
  8
0
 10
191.425
 20
8.66394
 11
191.328
 21
9.44023
  0
LINE
  8
0
 10
191.328
 20
9.44023
 11
192.395
 21
10.1082
  0
LINE
  8
0
 10
192.395
 20
10.1082
 11
193.45
 21
10.8292
  0
LINE
  8
0
 10
193.45
 20
10.8292
 11
194.494
 21
11.6009
  0
LINE
  8
0
 10
194.494
 20
11.6009
 11
195.524
 21
12.4214
  0
LINE
  8
0
 10
195.524
 20
12.4214
 11
196.542
 21
13.2891
  0
LINE
  8
0
 10
196.542
 20
13.2891
 11
196.309
 21
14.5813
  0
LINE
  8
0
 10
196.309
 20
14.5813
 11
195.054
 21
15.0405
  0
LINE
  8
0
 10
195.054
 20
15.0405
 11
193.802
 21
15.4508
  0
LINE
  8
0
 10
193.802
 20
15.4508
 11
192.555
 21
15.8109
  0
LINE
  8
0
 10
192.555
 20
15.8109
 11
191.315
 21
16.1194
  0
LINE
  8
0
 10
191.315
 20
16.1194
 11
190.082
 21
16.3741
  0
LINE
  8
0
 10
190.082
 20
16.3741
 11
189.891
 21
17.1822
  0
LINE
  8
0
 10
189.891
 20
17.1822
 11
189.703
 21
17.9416
  0
LINE
  8
0
 10
189.703
 20
17.9416
 11
190.684
 21
18.731
  0
LINE
  8
0
 10
190.684
 20
18.731
 11
191.646
 21
19.5718
  0
LINE
  8
0
 10
191.646
 20
19.5718
 11
192.591
 21
20.4616
  0
LINE
  8
0
 10
192.591
 20
20.4616
 11
193.517
 21
21.3982
  0
LINE
  8
0
 10
193.517
 20
21.3982
 11
194.425
 21
22.3801
  0
LINE
  8
0
 10
194.425
 20
22.3801
 11
194.041
 21
23.6358
  0
LINE
  8
0
 10
194.041
 20
23.6358
 11
192.74
 21
23.9432
  0
LINE
  8
0
 10
192.74
 20
23.9432
 11
191.449
 21
24.2026
  0
LINE
  8
0
 10
191.449
 20
24.2026
 11
190.168
 21
24.4127
  0
LINE
  8
0
 10
190.168
 20
24.4127
 11
188.9
 21
24.5723
  0
LINE
  8
0
 10
188.9
 20
24.5723
 11
187.646
 21
24.6795
  0
LINE
  8
0
 10
187.646
 20
24.6795
 11
187.361
 21
25.4593
  0
LINE
  8
0
 10
187.361
 20
25.4593
 11
187.084
 21
26.1912
  0
LINE
  8
0
 10
187.084
 20
26.1912
 11
187.964
 21
27.091
  0
LINE
  8
0
 10
187.964
 20
27.091
 11
188.821
 21
28.0397
  0
LINE
  8
0
 10
188.821
 20
28.0397
 11
189.654
 21
29.0349
  0
LINE
  8
0
 10
189.654
 20
29.0349
 11
190.463
 21
30.0746
  0
LINE
  8
0
 10
190.463
 20
30.0746
 11
191.248
 21
31.1569
  0
LINE
  8
0
 10
191.248
 20
31.1569
 11
190.718
 21
32.3584
  0
LINE
  8
0
 10
190.718
 20
32.3584
 11
189.39
 21
32.5098
  0
LINE
  8
0
 10
189.39
 20
32.5098
 11
188.077
 21
32.6146
  0
LINE
  8
0
 10
188.077
 20
32.6146
 11
186.78
 21
32.6718
  0
LINE
  8
0
 10
186.78
 20
32.6718
 11
185.502
 21
32.6803
  0
LINE
  8
0
 10
185.502
 20
32.6803
 11
184.244
 21
32.6384
  0
LINE
  8
0
 10
184.244
 20
32.6384
 11
183.869
 21
33.379
  0
LINE
  8
0
 10
183.869
 20
33.379
 11
183.508
 21
34.073
  0
LINE
  8
0
 10
183.508
 20
34.073
 11
184.275
 21
35.0706
  0
LINE
  8
0
 10
184.275
 20
35.0706
 11
185.014
 21
36.114
  0
LINE
  8
0
 10
185.014
 20
36.114
 11
185.723
 21
37.2007
  0
LINE
  8
0
 10
185.723
 20
37.2007
 11
186.403
 21
38.3288
  0
LINE
  8
0
 10
186.403
 20
38.3288
 11
187.055
 21
39.4963
  0
LINE
  8
0
 10
187.055
 20
39.4963
 11
186.387
 21
40.6268
  0
LINE
  8
0
 10
186.387
 20
40.6268
 11
185.05
 21
40.6201
  0
LINE
  8
0
 10
185.05
 20
40.6201
 11
183.734
 21
40.5688
  0
LINE
  8
0
 10
183.734
 20
40.5688
 11
182.44
 21
40.4722
  0
LINE
  8
0
 10
182.44
 20
40.4722
 11
181.169
 21
40.3295
  0
LINE
  8
0
 10
181.169
 20
40.3295
 11
179.925
 21
40.1391
  0
LINE
  8
0
 10
179.925
 20
40.1391
 11
179.465
 21
40.8301
  0
LINE
  8
0
 10
179.465
 20
40.8301
 11
179.024
 21
41.4766
  0
LINE
  8
0
 10
179.024
 20
41.4766
 11
179.668
 21
42.5579
  0
LINE
  8
0
 10
179.668
 20
42.5579
 11
180.278
 21
43.6813
  0
LINE
  8
0
 10
180.278
 20
43.6813
 11
180.854
 21
44.8443
  0
LINE
  8
0
 10
180.854
 20
44.8443
 11
181.396
 21
46.0449
  0
LINE
  8
0
 10
181.396
 20
46.0449
 11
181.905
 21
47.2813
  0
LINE
  8
0
 10
181.905
 20
47.2813
 11
181.108
 21
48.3249
  0
LINE
  8
0
 10
181.108
 20
48.3249
 11
179.781
 21
48.1601
  0
LINE
  8
0
 10
179.781
 20
48.1601
 11
178.48
 21
47.9534
  0
LINE
  8
0
 10
178.48
 20
47.9534
 11
177.207
 21
47.7045
  0
LINE
  8
0
 10
177.207
 20
47.7045
 11
175.962
 21
47.4125
  0
LINE
  8
0
 10
175.962
 20
47.4125
 11
174.75
 21
47.0763
  0
LINE
  8
0
 10
174.75
 20
47.0763
 11
174.211
 21
47.7081
  0
LINE
  8
0
 10
174.211
 20
47.7081
 11
173.697
 21
48.2979
  0
LINE
  8
0
 10
173.697
 20
48.2979
 11
174.208
 21
49.4478
  0
LINE
  8
0
 10
174.208
 20
49.4478
 11
174.681
 21
50.6354
  0
LINE
  8
0
 10
174.681
 20
50.6354
 11
175.115
 21
51.8584
  0
LINE
  8
0
 10
175.115
 20
51.8584
 11
175.512
 21
53.1147
  0
LINE
  8
0
 10
175.512
 20
53.1147
 11
175.87
 21
54.4025
  0
LINE
  8
0
 10
175.87
 20
54.4025
 11
174.956
 21
55.3446
  0
LINE
  8
0
 10
174.956
 20
55.3446
 11
173.658
 21
55.024
  0
LINE
  8
0
 10
173.658
 20
55.024
 11
172.391
 21
54.6649
  0
LINE
  8
0
 10
172.391
 20
54.6649
 11
171.155
 21
54.2671
  0
LINE
  8
0
 10
171.155
 20
54.2671
 11
169.954
 21
53.83
  0
LINE
  8
0
 10
169.954
 20
53.83
 11
168.79
 21
53.3527
  0
LINE
  8
0
 10
168.79
 20
53.3527
 11
168.18
 21
53.9163
  0
LINE
  8
0
 10
168.18
 20
53.9163
 11
167.6
 21
54.4412
  0
LINE
  8
0
 10
167.6
 20
54.4412
 11
167.972
 21
55.6436
  0
LINE
  8
0
 10
167.972
 20
55.6436
 11
168.3
 21
56.8787
  0
LINE
  8
0
 10
168.3
 20
56.8787
 11
168.587
 21
58.1445
  0
LINE
  8
0
 10
168.587
 20
58.1445
 11
168.832
 21
59.4388
  0
LINE
  8
0
 10
168.832
 20
59.4388
 11
169.036
 21
60.7601
  0
LINE
  8
0
 10
169.036
 20
60.7601
 11
168.017
 21
61.5874
  0
LINE
  8
0
 10
168.017
 20
61.5874
 11
166.766
 21
61.1155
  0
LINE
  8
0
 10
166.766
 20
61.1155
 11
165.55
 21
60.6091
  0
LINE
  8
0
 10
165.55
 20
60.6091
 11
164.37
 21
60.068
  0
LINE
  8
0
 10
164.37
 20
60.068
 11
163.229
 21
59.4919
  0
LINE
  8
0
 10
163.229
 20
59.4919
 11
162.129
 21
58.8802
  0
LINE
  8
0
 10
162.129
 20
58.8802
 11
161.457
 21
59.3677
  0
LINE
  8
0
 10
161.457
 20
59.3677
 11
160.819
 21
59.8203
  0
LINE
  8
0
 10
160.819
 20
59.8203
 11
161.046
 21
61.0582
  0
LINE
  8
0
 10
161.046
 20
61.0582
 11
161.226
 21
62.3236
  0
LINE
  8
0
 10
161.226
 20
62.3236
 11
161.361
 21
63.6143
  0
LINE
  8
0
 10
161.361
 20
63.6143
 11
161.452
 21
64.9286
  0
LINE
  8
0
 10
161.452
 20
64.9286
 11
161.498
 21
66.2647
  0
LINE
  8
0
 10
161.498
 20
66.2647
 11
160.388
 21
66.9656
  0
LINE
  8
0
 10
160.388
 20
66.9656
 11
159.201
 21
66.3491
  0
LINE
  8
0
 10
159.201
 20
66.3491
 11
158.054
 21
65.7024
  0
LINE
  8
0
 10
158.054
 20
65.7024
 11
156.946
 21
65.0256
  0
LINE
  8
0
 10
156.946
 20
65.0256
 11
155.882
 21
64.3186
  0
LINE
  8
0
 10
155.882
 20
64.3186
 11
154.862
 21
63.5811
  0
LINE
  8
0
 10
154.862
 20
63.5811
 11
154.137
 21
63.9857
  0
LINE
  8
0
 10
154.137
 20
63.9857
 11
153.449
 21
64.3597
  0
LINE
  8
0
 10
153.449
 20
64.3597
 11
153.529
 21
65.6157
  0
LINE
  8
0
 10
153.529
 20
65.6157
 11
153.558
 21
66.8936
  0
LINE
  8
0
 10
153.558
 20
66.8936
 11
153.539
 21
68.1912
  0
LINE
  8
0
 10
153.539
 20
68.1912
 11
153.473
 21
69.5069
  0
LINE
  8
0
 10
153.473
 20
69.5069
 11
153.361
 21
70.8391
  0
LINE
  8
0
 10
153.361
 20
70.8391
 11
152.176
 21
71.4038
  0
LINE
  8
0
 10
152.176
 20
71.4038
 11
151.071
 21
70.6513
  0
LINE
  8
0
 10
151.071
 20
70.6513
 11
150.008
 21
69.8734
  0
LINE
  8
0
 10
150.008
 20
69.8734
 11
148.988
 21
69.0704
  0
LINE
  8
0
 10
148.988
 20
69.0704
 11
148.015
 21
68.2424
  0
LINE
  8
0
 10
148.015
 20
68.2424
 11
147.089
 21
67.3895
  0
LINE
  8
0
 10
147.089
 20
67.3895
 11
146.321
 21
67.7054
  0
LINE
  8
0
 10
146.321
 20
67.7054
 11
145.595
 21
67.9955
  0
LINE
  8
0
 10
145.595
 20
67.9955
 11
145.525
 21
69.2522
  0
LINE
  8
0
 10
145.525
 20
69.2522
 11
145.403
 21
70.5245
  0
LINE
  8
0
 10
145.403
 20
70.5245
 11
145.231
 21
71.8108
  0
LINE
  8
0
 10
145.231
 20
71.8108
 11
145.01
 21
73.1095
  0
LINE
  8
0
 10
145.01
 20
73.1095
 11
144.741
 21
74.4191
  0
LINE
  8
0
 10
144.741
 20
74.4191
 11
143.497
 21
74.8396
  0
LINE
  8
0
 10
143.497
 20
74.8396
 11
142.489
 21
73.9617
  0
LINE
  8
0
 10
142.489
 20
73.9617
 11
141.525
 21
73.0635
  0
LINE
  8
0
 10
141.525
 20
73.0635
 11
140.608
 21
72.1456
  0
LINE
  8
0
 10
140.608
 20
72.1456
 11
139.739
 21
71.2082
  0
LINE
  8
0
 10
139.739
 20
71.2082
 11
138.921
 21
70.2518
  0
LINE
  8
0
 10
138.921
 20
70.2518
 11
138.121
 21
70.4747
  0
LINE
  8
0
 10
138.121
 20
70.4747
 11
137.365
 21
70.6769
  0
LINE
  8
0
 10
137.365
 20
70.6769
 11
137.147
 21
71.9164
  0
LINE
  8
0
 10
137.147
 20
71.9164
 11
136.876
 21
73.1654
  0
LINE
  8
0
 10
136.876
 20
73.1654
 11
136.553
 21
74.4223
  0
LINE
  8
0
 10
136.553
 20
74.4223
 11
136.18
 21
75.6858
  0
LINE
  8
0
 10
136.18
 20
75.6858
 11
135.758
 21
76.9544
  0
LINE
  8
0
 10
135.758
 20
76.9544
 11
134.473
 21
77.2249
  0
LINE
  8
0
 10
134.473
 20
77.2249
 11
133.576
 21
76.2339
  0
LINE
  8
0
 10
133.576
 20
76.2339
 11
132.725
 21
75.228
  0
LINE
  8
0
 10
132.725
 20
75.228
 11
131.923
 21
74.208
  0
LINE
  8
0
 10
131.923
 20
74.208
 11
131.171
 21
73.1745
  0
LINE
  8
0
 10
131.171
 20
73.1745
 11
130.471
 21
72.128
  0
LINE
  8
0
 10
130.471
 20
72.128
 11
129.651
 21
72.2548
  0
LINE
  8
0
 10
129.651
 20
72.2548
 11
128.876
 21
72.3661
  0
LINE
  8
0
 10
128.876
 20
72.3661
 11
128.513
 21
73.5712
  0
LINE
  8
0
 10
128.513
 20
73.5712
 11
128.096
 21
74.7792
  0
LINE
  8
0
 10
128.096
 20
74.7792
 11
127.627
 21
75.9891
  0
LINE
  8
0
 10
127.627
 20
75.9891
 11
127.107
 21
77.1996
  0
LINE
  8
0
 10
127.107
 20
77.1996
 11
126.538
 21
78.4095
  0
LINE
  8
0
 10
126.538
 20
78.4095
 11
125.23
 21
78.5261
  0
LINE
  8
0
 10
125.23
 20
78.5261
 11
124.456
 21
77.4359
  0
LINE
  8
0
 10
124.456
 20
77.4359
 11
123.73
 21
76.3365
  0
LINE
  8
0
 10
123.73
 20
76.3365
 11
123.054
 21
75.2287
  0
LINE
  8
0
 10
123.054
 20
75.2287
 11
122.43
 21
74.1135
  0
LINE
  8
0
 10
122.43
 20
74.1135
 11
121.859
 21
72.9917
  0
LINE
  8
0
 10
121.859
 20
72.9917
 11
121.029
 21
73.0205
  0
LINE
  8
0
 10
121.029
 20
73.0205
 11
120.247
 21
73.0395
  0
LINE
  8
0
 10
120.247
 20
73.0395
 11
119.744
 21
74.1931
  0
LINE
  8
0
 10
119.744
 20
74.1931
 11
119.187
 21
75.3433
  0
LINE
  8
0
 10
119.187
 20
75.3433
 11
118.578
 21
76.4892
  0
LINE
  8
0
 10
118.578
 20
76.4892
 11
117.918
 21
77.6297
  0
LINE
  8
0
 10
117.918
 20
77.6297
 11
117.21
 21
78.7638
  0
LINE
  8
0
 10
117.21
 20
78.7638
 11
115.898
 21
78.7249
  0
LINE
  8
0
 10
115.898
 20
78.7249
 11
115.259
 21
77.5509
  0
LINE
  8
0
 10
115.259
 20
77.5509
 11
114.668
 21
76.3733
  0
LINE
  8
0
 10
114.668
 20
76.3733
 11
114.128
 21
75.1934
  0
LINE
  8
0
 10
114.128
 20
75.1934
 11
113.639
 21
74.0121
  0
LINE
  8
0
 10
113.639
 20
74.0121
 11
113.206
 21
72.8307
  0
LINE
  8
0
 10
113.206
 20
72.8307
 11
112.378
 21
72.7611
  0
LINE
  8
0
 10
112.378
 20
72.7611
 11
111.599
 21
72.6875
  0
LINE
  8
0
 10
111.599
 20
72.6875
 11
110.963
 21
73.7735
  0
LINE
  8
0
 10
110.963
 20
73.7735
 11
110.274
 21
74.8498
  0
LINE
  8
0
 10
110.274
 20
74.8498
 11
109.533
 21
75.9156
  0
LINE
  8
0
 10
109.533
 20
75.9156
 11
108.744
 21
76.9701
  0
LINE
  8
0
 10
108.744
 20
76.9701
 11
107.907
 21
78.0125
  0
LINE
  8
0
 10
107.907
 20
78.0125
 11
106.608
 21
77.8186
  0
LINE
  8
0
 10
106.608
 20
77.8186
 11
106.112
 21
76.5772
  0
LINE
  8
0
 10
106.112
 20
76.5772
 11
105.665
 21
75.338
  0
LINE
  8
0
 10
105.665
 20
75.338
 11
105.268
 21
74.1025
  0
LINE
  8
0
 10
105.268
 20
74.1025
 11
104.923
 21
72.8718
  0
LINE
  8
0
 10
104.923
 20
72.8718
 11
104.632
 21
71.6473
  0
LINE
  8
0
 10
104.632
 20
71.6473
 11
103.818
 21
71.4804
  0
LINE
  8
0
 10
103.818
 20
71.4804
 11
103.053
 21
71.3152
  0
LINE
  8
0
 10
103.053
 20
71.3152
 11
102.293
 21
72.3183
  0
LINE
  8
0
 10
102.293
 20
72.3183
 11
101.482
 21
73.3055
  0
LINE
  8
0
 10
101.482
 20
73.3055
 11
100.62
 21
74.2762
  0
LINE
  8
0
 10
100.62
 20
74.2762
 11
99.7114
 21
75.2299
  0
LINE
  8
0
 10
99.7114
 20
75.2299
 11
98.7569
 21
76.166
  0
LINE
  8
0
 10
98.7569
 20
76.166
 11
97.4904
 21
75.8199
  0
LINE
  8
0
 10
97.4904
 20
75.8199
 11
97.1445
 21
74.5285
  0
LINE
  8
0
 10
97.1445
 20
74.5285
 11
96.847
 21
73.2452
  0
LINE
  8
0
 10
96.847
 20
73.2452
 11
96.599
 21
71.9713
  0
LINE
  8
0
 10
96.599
 20
71.9713
 11
96.4019
 21
70.7085
  0
LINE
  8
0
 10
96.4019
 20
70.7085
 11
96.2576
 21
69.4582
  0
LINE
  8
0
 10
96.2576
 20
69.4582
 11
95.4697
 21
69.1962
  0
LINE
  8
0
 10
95.4697
 20
69.1962
 11
94.7299
 21
68.9417
  0
LINE
  8
0
 10
94.7299
 20
68.9417
 11
93.8566
 21
69.848
  0
LINE
  8
0
 10
93.8566
 20
69.848
 11
92.9336
 21
70.7322
  0
LINE
  8
0
 10
92.9336
 20
70.7322
 11
91.9635
 21
71.5942
  0
LINE
  8
0
 10
91.9635
 20
71.5942
 11
90.9483
 21
72.4337
  0
LINE
  8
0
 10
90.9483
 20
72.4337
 11
89.8898
 21
73.2504
  0
LINE
  8
0
 10
89.8898
 20
73.2504
 11
88.6731
 21
72.7569
  0
LINE
  8
0
 10
88.6731
 20
72.7569
 11
88.4824
 21
71.4336
  0
LINE
  8
0
 10
88.4824
 20
71.4336
 11
88.3387
 21
70.1241
  0
LINE
  8
0
 10
88.3387
 20
70.1241
 11
88.2431
 21
68.8299
  0
LINE
  8
0
 10
88.2431
 20
68.8299
 11
88.1968
 21
67.5526
  0
LINE
  8
0
 10
88.1968
 20
67.5526
 11
88.2014
 21
66.294
  0
LINE
  8
0
 10
88.2014
 20
66.294
 11
87.45
 21
65.9407
  0
LINE
  8
0
 10
87.45
 20
65.9407
 11
86.7455
 21
65.6005
  0
LINE
  8
0
 10
86.7455
 20
65.6005
 11
85.7711
 21
66.3971
  0
LINE
  8
0
 10
85.7711
 20
66.3971
 11
84.7501
 21
67.1659
  0
LINE
  8
0
 10
84.7501
 20
67.1659
 11
83.6849
 21
67.9072
  0
LINE
  8
0
 10
83.6849
 20
67.9072
 11
82.5775
 21
68.6207
  0
LINE
  8
0
 10
82.5775
 20
68.6207
 11
81.4298
 21
69.3064
  0
LINE
  8
0
 10
81.4298
 20
69.3064
 11
80.28
 21
68.6725
  0
LINE
  8
0
 10
80.28
 20
68.6725
 11
80.2471
 21
67.336
  0
LINE
  8
0
 10
80.2471
 20
67.336
 11
80.2594
 21
66.0187
  0
LINE
  8
0
 10
80.2594
 20
66.0187
 11
80.3175
 21
64.7222
  0
LINE
  8
0
 10
80.3175
 20
64.7222
 11
80.4226
 21
63.4484
  0
LINE
  8
0
 10
80.4226
 20
63.4484
 11
80.576
 21
62.1992
  0
LINE
  8
0
 10
80.576
 20
62.1992
 11
79.8716
 21
61.7595
  0
LINE
  8
0
 10
79.8716
 20
61.7595
 11
79.2124
 21
61.3384
  0
LINE
  8
0
 10
79.2124
 20
61.3384
 11
78.1506
 21
62.0141
  0
LINE
  8
0
 10
78.1506
 20
62.0141
 11
77.0458
 21
62.6568
  0
LINE
  8
0
 10
77.0458
 20
62.6568
 11
75.9003
 21
63.2669
  0
LINE
  8
0
 10
75.9003
 20
63.2669
 11
74.7164
 21
63.8445
  0
LINE
  8
0
 10
74.7164
 20
63.8445
 11
73.4956
 21
64.3896
  0
LINE
  8
0
 10
73.4956
 20
64.3896
 11
72.4288
 21
63.6242
  0
LINE
  8
0
 10
72.4288
 20
63.6242
 11
72.5543
 21
62.2931
  0
LINE
  8
0
 10
72.5543
 20
62.2931
 11
72.7223
 21
60.9865
  0
LINE
  8
0
 10
72.7223
 20
60.9865
 11
72.9333
 21
59.706
  0
LINE
  8
0
 10
72.9333
 20
59.706
 11
73.1883
 21
58.4536
  0
LINE
  8
0
 10
73.1883
 20
58.4536
 11
73.4884
 21
57.2313
  0
LINE
  8
0
 10
73.4884
 20
57.2313
 11
72.841
 21
56.7113
  0
LINE
  8
0
 10
72.841
 20
56.7113
 11
72.2362
 21
56.2152
  0
LINE
  8
0
 10
72.2362
 20
56.2152
 11
71.1019
 21
56.7606
  0
LINE
  8
0
 10
71.1019
 20
56.7606
 11
69.9288
 21
57.2681
  0
LINE
  8
0
 10
69.9288
 20
57.2681
 11
68.7193
 21
57.7384
  0
LINE
  8
0
 10
68.7193
 20
57.7384
 11
67.4753
 21
58.1719
  0
LINE
  8
0
 10
67.4753
 20
58.1719
 11
66.1986
 21
58.5688
  0
LINE
  8
0
 10
66.1986
 20
58.5688
 11
65.2299
 21
57.6826
  0
LINE
  8
0
 10
65.2299
 20
57.6826
 11
65.5119
 21
56.3757
  0
LINE
  8
0
 10
65.5119
 20
56.3757
 11
65.8332
 21
55.0982
  0
LINE
  8
0
 10
65.8332
 20
55.0982
 11
66.1943
 21
53.8517
  0
LINE
  8
0
 10
66.1943
 20
53.8517
 11
66.5956
 21
52.6382
  0
LINE
  8
0
 10
66.5956
 20
52.6382
 11
67.0382
 21
51.4599
  0
LINE
  8
0
 10
67.0382
 20
51.4599
 11
66.4568
 21
50.8671
  0
LINE
  8
0
 10
66.4568
 20
50.8671
 11
65.9149
 21
50.3029
  0
LINE
  8
0
 10
65.9149
 20
50.3029
 11
64.7241
 21
50.7103
  0
LINE
  8
0
 10
64.7241
 20
50.7103
 11
63.4992
 21
51.0755
  0
LINE
  8
0
 10
63.4992
 20
51.0755
 11
62.2425
 21
51.3995
  0
LINE
  8
0
 10
62.2425
 20
51.3995
 11
60.956
 21
51.6828
  0
LINE
  8
0
 10
60.956
 20
51.6828
 11
59.6413
 21
51.9259
  0
LINE
  8
0
 10
59.6413
 20
51.9259
 11
58.7842
 21
50.9314
  0
LINE
  8
0
 10
58.7842
 20
50.9314
 11
59.2188
 21
49.667
  0
LINE
  8
0
 10
59.2188
 20
49.667
 11
59.689
 21
48.4364
  0
LINE
  8
0
 10
59.689
 20
48.4364
 11
60.1949
 21
47.2413
  0
LINE
  8
0
 10
60.1949
 20
47.2413
 11
60.737
 21
46.0838
  0
LINE
  8
0
 10
60.737
 20
46.0838
 11
61.3158
 21
44.9662
  0
LINE
  8
0
 10
61.3158
 20
44.9662
 11
60.8086
 21
44.3087
  0
LINE
  8
0
 10
60.8086
 20
44.3087
 11
60.3372
 21
43.6844
  0
LINE
  8
0
 10
60.3372
 20
43.6844
 11
59.1066
 21
43.9482
  0
LINE
  8
0
 10
59.1066
 20
43.9482
 11
57.8471
 21
44.1659
  0
LINE
  8
0
 10
57.8471
 20
44.1659
 11
56.561
 21
44.339
  0
LINE
  8
0
 10
56.561
 20
44.339
 11
55.2499
 21
44.4682
  0
LINE
  8
0
 10
55.2499
 20
44.4682
 11
53.9158
 21
44.5541
  0
LINE
  8
0
 10
53.9158
 20
44.5541
 11
53.1823
 21
43.4651
  0
LINE
  8
0
 10
53.1823
 20
43.4651
 11
53.7633
 21
42.261
  0
LINE
  8
0
 10
53.7633
 20
42.261
 11
54.3758
 21
41.0947
  0
LINE
  8
0
 10
54.3758
 20
41.0947
 11
55.0195
 21
39.9678
  0
LINE
  8
0
 10
55.0195
 20
39.9678
 11
55.6946
 21
38.8826
  0
LINE
  8
0
 10
55.6946
 20
38.8826
 11
56.4016
 21
37.8413
  0
LINE
  8
0
 10
56.4016
 20
37.8413
 11
55.9757
 21
37.1284
  0
LINE
  8
0
 10
55.9757
 20
37.1284
 11
55.5815
 21
36.4527
  0
LINE
  8
0
 10
55.5815
 20
36.4527
 11
54.3283
 21
36.5691
  0
LINE
  8
0
 10
54.3283
 20
36.5691
 11
53.0519
 21
36.6364
  0
LINE
  8
0
 10
53.0519
 20
36.6364
 11
51.7543
 21
36.6561
  0
LINE
  8
0
 10
51.7543
 20
36.6561
 11
50.4372
 21
36.6293
  0
LINE
  8
0
 10
50.4372
 20
36.6293
 11
49.1022
 21
36.5568
  0
LINE
  8
0
 10
49.1022
 20
36.5568
 11
48.5027
 21
35.3887
  0
LINE
  8
0
 10
48.5027
 20
35.3887
 11
49.2221
 21
34.2618
  0
LINE
  8
0
 10
49.2221
 20
34.2618
 11
49.9682
 21
33.1761
  0
LINE
  8
0
 10
49.9682
 20
33.1761
 11
50.7407
 21
32.1333
  0
LINE
  8
0
 10
50.7407
 20
32.1333
 11
51.5394
 21
31.1355
  0
LINE
  8
0
 10
51.5394
 20
31.1355
 11
52.3645
 21
30.1851
  0
LINE
  8
0
 10
52.3645
 20
30.1851
 11
52.026
 21
29.4269
  0
LINE
  8
0
 10
52.026
 20
29.4269
 11
51.7144
 21
28.7093
  0
LINE
  8
0
 10
51.7144
 20
28.7093
 11
50.4563
 21
28.6766
  0
LINE
  8
0
 10
50.4563
 20
28.6766
 11
49.1809
 21
28.5925
  0
LINE
  8
0
 10
49.1809
 20
28.5925
 11
47.8901
 21
28.4586
  0
LINE
  8
0
 10
47.8901
 20
28.4586
 11
46.5854
 21
28.2762
  0
LINE
  8
0
 10
46.5854
 20
28.2762
 11
45.2684
 21
28.0463
  0
LINE
  8
0
 10
45.2684
 20
28.0463
 11
44.8112
 21
26.8156
  0
LINE
  8
0
 10
44.8112
 20
26.8156
 11
45.6588
 21
25.7817
  0
LINE
  8
0
 10
45.6588
 20
25.7817
 11
46.5281
 21
24.7918
  0
LINE
  8
0
 10
46.5281
 20
24.7918
 11
47.4185
 21
23.8477
  0
LINE
  8
0
 10
47.4185
 20
23.8477
 11
48.3297
 21
22.9513
  0
LINE
  8
0
 10
48.3297
 20
22.9513
 11
49.2614
 21
22.1052
  0
LINE
  8
0
 10
49.2614
 20
22.1052
 11
49.0149
 21
21.3123
  0
LINE
  8
0
 10
49.0149
 20
21.3123
 11
48.7904
 21
20.5629
  0
LINE
  8
0
 10
48.7904
 20
20.5629
 11
47.545
 21
20.3816
  0
LINE
  8
0
 10
47.545
 20
20.3816
 11
46.2885
 21
20.1472
  0
LINE
  8
0
 10
46.2885
 20
20.1472
 11
45.0225
 21
19.8616
  0
LINE
  8
0
 10
45.0225
 20
19.8616
 11
43.7486
 21
19.5262
  0
LINE
  8
0
 10
43.7486
 20
19.5262
 11
42.468
 21
19.1422
  0
LINE
  8
0
 10
42.468
 20
19.1422
 11
42.1596
 21
17.866
  0
LINE
  8
0
 10
42.1596
 20
17.866
 11
43.1236
 21
16.9396
  0
LINE
  8
0
 10
43.1236
 20
16.9396
 11
44.1038
 21
16.0594
  0
LINE
  8
0
 10
44.1038
 20
16.0594
 11
45.0996
 21
15.2273
  0
LINE
  8
0
 10
45.0996
 20
15.2273
 11
46.1104
 21
14.445
  0
LINE
  8
0
 10
46.1104
 20
14.445
 11
47.1356
 21
13.715
  0
LINE
  8
0
 10
47.1356
 20
13.715
 11
46.9846
 21
12.8985
  0
LINE
  8
0
 10
46.9846
 20
12.8985
 11
46.8504
 21
12.1278
  0
LINE
  8
0
 10
46.8504
 20
12.1278
 11
45.6351
 21
11.8005
  0
LINE
  8
0
 10
45.6351
 20
11.8005
 11
44.4152
 21
11.4191
  0
LINE
  8
0
 10
44.4152
 20
11.4191
 11
43.1919
 21
10.9858
  0
LINE
  8
0
 10
43.1919
 20
10.9858
 11
41.9666
 21
10.5021
  0
LINE
  8
0
 10
41.9666
 20
10.5021
 11
40.7404
 21
9.96928
  0
LINE
  8
0
 10
40.7404
 20
9.96928
 11
40.5851
 21
8.66557
  0
LINE
  8
0
 10
40.5851
 20
8.66557
 11
41.6518
 21
7.85968
  0
LINE
  8
0
 10
41.6518
 20
7.85968
 11
42.7293
 21
7.10168
  0
LINE
  8
0
 10
42.7293
 20
7.10168
 11
43.8165
 21
6.39311
  0
LINE
  8
0
 10
43.8165
 20
6.39311
 11
44.9128
 21
5.73587
  0
LINE
  8
0
 10
44.9128
 20
5.73587
 11
46.0171
 21
5.13228
  0
LINE
  8
0
 10
46.0171
 20
5.13228
 11
45.9638
 21
4.30363
  0
LINE
  8
0
 10
45.9638
 20
4.30363
 11
45.9216
 21
3.52248
  0
LINE
  8
0
 10
45.9216
 20
3.52248
 11
44.7536
 21
3.05374
  0
LINE
  8
0
 10
44.7536
 20
3.05374
 11
43.5873
 21
2.53076
  0
LINE
  8
0
 10
43.5873
 20
2.53076
 11
42.4239
 21
1.95578
  0
LINE
  8
0
 10
42.4239
 20
1.95578
 11
41.2644
 21
1.33054
  0
LINE
  8
0
 10
41.2644
 20
1.33054
 11
40.1098
 21
0.656464
  0
LINE
  8
0
 10
40.1098
 20
0.656464
 11
40.1098
 21
-0.656464
  0
LINE
  8
0
 10
40.1098
 20
-0.656464
 11
41.2644
 21
-1.33054
  0
LINE
  8
0
 10
41.2644
 20
-1.33054
 11
42.4239
 21
-1.95576
  0
LINE
  8
0
 10
42.4239
 20
-1.95576
 11
43.5873
 21
-2.53078
  0
LINE
  8
0
 10
43.5873
 20
-2.53078
 11
44.7536
 21
-3.05376
  0
LINE
  8
0
 10
44.7536
 20
-3.05376
 11
45.9216
 21
-3.52249
  0
LINE
  8
0
 10
45.9216
 20
-3.52249
 11
45.9666
 21
-4.35164
  0
LINE
  8
0
 10
45.9666
 20
-4.35164
 11
46.0171
 21
-5.13228
  0
LINE
  8
0
 10
46.0171
 20
-5.13228
 11
44.9128
 21
-5.73587
  0
LINE
  8
0
 10
44.9128
 20
-5.73587
 11
43.8165
 21
-6.39311
  0
LINE
  8
0
 10
43.8165
 20
-6.39311
 11
42.7293
 21
-7.10168
  0
LINE
  8
0
 10
42.7293
 20
-7.10168
 11
41.6518
 21
-7.85968
  0
LINE
  8
0
 10
41.6518
 20
-7.85968
 11
40.5851
 21
-8.66557
  0
LINE
  8
0
 10
40.5851
 20
-8.66557
 11
40.7404
 21
-9.96928
  0
LINE
  8
0
 10
40.7404
 20
-9.96928
 11
41.9666
 21
-10.5021
  0
LINE
  8
0
 10
41.9666
 20
-10.5021
 11
43.1919
 21
-10.9858
  0
LINE
  8
0
 10
43.1919
 20
-10.9858
 11
44.4152
 21
-11.4191
  0
LINE
  8
0
 10
44.4152
 20
-11.4191
 11
45.6351
 21
-11.8005
  0
LINE
  8
0
 10
45.6351
 20
-11.8005
 11
46.8504
 21
-12.1278
  0
LINE
  8
0
 10
46.8504
 20
-12.1278
 11
46.9931
 21
-12.9458
  0
LINE
  8
0
 10
46.9931
 20
-12.9458
 11
47.1356
 21
-13.715
  0
LINE
  8
0
 10
47.1356
 20
-13.715
 11
46.1104
 21
-14.445
  0
LINE
  8
0
 10
46.1104
 20
-14.445
 11
45.0996
 21
-15.2273
  0
LINE
  8
0
 10
45.0996
 20
-15.2273
 11
44.1038
 21
-16.0594
  0
LINE
  8
0
 10
44.1038
 20
-16.0594
 11
43.1236
 21
-16.9396
  0
LINE
  8
0
 10
43.1236
 20
-16.9396
 11
42.1596
 21
-17.866
  0
LINE
  8
0
 10
42.1596
 20
-17.866
 11
42.468
 21
-19.1422
  0
LINE
  8
0
 10
42.468
 20
-19.1422
 11
43.7486
 21
-19.5262
  0
LINE
  8
0
 10
43.7486
 20
-19.5262
 11
45.0225
 21
-19.8616
  0
LINE
  8
0
 10
45.0225
 20
-19.8616
 11
46.2885
 21
-20.1472
  0
LINE
  8
0
 10
46.2885
 20
-20.1472
 11
47.545
 21
-20.3816
  0
LINE
  8
0
 10
47.545
 20
-20.3816
 11
48.7904
 21
-20.5629
  0
LINE
  8
0
 10
48.7904
 20
-20.5629
 11
49.0289
 21
-21.3583
  0
LINE
  8
0
 10
49.0289
 20
-21.3583
 11
49.2614
 21
-22.1052
  0
LINE
  8
0
 10
49.2614
 20
-22.1052
 11
48.3297
 21
-22.9513
  0
LINE
  8
0
 10
48.3297
 20
-22.9513
 11
47.4185
 21
-23.8477
  0
LINE
  8
0
 10
47.4185
 20
-23.8477
 11
46.5281
 21
-24.7918
  0
LINE
  8
0
 10
46.5281
 20
-24.7918
 11
45.6588
 21
-25.7817
  0
LINE
  8
0
 10
45.6588
 20
-25.7817
 11
44.8112
 21
-26.8156
  0
LINE
  8
0
 10
44.8112
 20
-26.8156
 11
45.2684
 21
-28.0463
  0
LINE
  8
0
 10
45.2684
 20
-28.0463
 11
46.5854
 21
-28.2762
  0
LINE
  8
0
 10
46.5854
 20
-28.2762
 11
47.8901
 21
-28.4586
  0
LINE
  8
0
 10
47.8901
 20
-28.4586
 11
49.1809
 21
-28.5925
  0
LINE
  8
0
 10
49.1809
 20
-28.5925
 11
50.4563
 21
-28.6766
  0
LINE
  8
0
 10
50.4563
 20
-28.6766
 11
51.7144
 21
-28.7093
  0
LINE
  8
0
 10
51.7144
 20
-28.7093
 11
52.0453
 21
-29.4709
  0
LINE
  8
0
 10
52.0453
 20
-29.4709
 11
52.3645
 21
-30.1851
  0
LINE
  8
0
 10
52.3645
 20
-30.1851
 11
51.5394
 21
-31.1355
  0
LINE
  8
0
 10
51.5394
 20
-31.1355
 11
50.7407
 21
-32.1333
  0
LINE
  8
0
 10
50.7407
 20
-32.1333
 11
49.9682
 21
-33.1761
  0
LINE
  8
0
 10
49.9682
 20
-33.1761
 11
49.2221
 21
-34.2618
  0
LINE
  8
0
 10
49.2221
 20
-34.2618
 11
48.5027
 21
-35.3887
  0
LINE
  8
0
 10
48.5027
 20
-35.3887
 11
49.1022
 21
-36.5568
  0
LINE
  8
0
 10
49.1022
 20
-36.5568
 11
50.4372
 21
-36.6293
  0
LINE
  8
0
 10
50.4372
 20
-36.6293
 11
51.7543
 21
-36.6561
  0
LINE
  8
0
 10
51.7543
 20
-36.6561
 11
53.0519
 21
-36.6364
  0
LINE
  8
0
 10
53.0519
 20
-36.6364
 11
54.3283
 21
-36.5691
  0
LINE
  8
0
 10
54.3283
 20
-36.5691
 11
55.5815
 21
-36.4527
  0
LINE
  8
0
 10
55.5815
 20
-36.4527
 11
56.0001
 21
-37.1698
  0
LINE
  8
0
 10
56.0001
 20
-37.1698
 11
56.4016
 21
-37.8413
  0
LINE
  8
0
 10
56.4016
 20
-37.8413
 11
55.6946
 21
-38.8826
  0
LINE
  8
0
 10
55.6946
 20
-38.8826
 11
55.0195
 21
-39.9678
  0
LINE
  8
0
 10
55.0195
 20
-39.9678
 11
54.3758
 21
-41.0947
  0
LINE
  8
0
 10
54.3758
 20
-41.0947
 11
53.7633
 21
-42.261
  0
LINE
  8
0
 10
53.7633
 20
-42.261
 11
53.1823
 21
-43.4651
  0
LINE
  8
0
 10
53.1823
 20
-43.4651
 11
53.9158
 21
-44.5541
  0
LINE
  8
0
 10
53.9158
 20
-44.5541
 11
55.2499
 21
-44.4682
  0
LINE
  8
0
 10
55.2499
 20
-44.4682
 11
56.561
 21
-44.339
  0
LINE
  8
0
 10
56.561
 20
-44.339
 11
57.8471
 21
-44.1659
  0
LINE
  8
0
 10
57.8471
 20
-44.1659
 11
59.1066
 21
-43.9482
  0
LINE
  8
0
 10
59.1066
 20
-43.9482
 11
60.3372
 21
-43.6844
  0
LINE
  8
0
 10
60.3372
 20
-43.6844
 11
60.8378
 21
-44.347
  0
LINE
  8
0
 10
60.8378
 20
-44.347
 11
61.3158
 21
-44.9662
  0
LINE
  8
0
 10
61.3158
 20
-44.9662
 11
60.737
 21
-46.0838
  0
LINE
  8
0
 10
60.737
 20
-46.0838
 11
60.1949
 21
-47.2413
  0
LINE
  8
0
 10
60.1949
 20
-47.2413
 11
59.689
 21
-48.4364
  0
LINE
  8
0
 10
59.689
 20
-48.4364
 11
59.2188
 21
-49.667
  0
LINE
  8
0
 10
59.2188
 20
-49.667
 11
58.7842
 21
-50.9314
  0
LINE
  8
0
 10
58.7842
 20
-50.9314
 11
59.6413
 21
-51.9259
  0
LINE
  8
0
 10
59.6413
 20
-51.9259
 11
60.956
 21
-51.6828
  0
LINE
  8
0
 10
60.956
 20
-51.6828
 11
62.2425
 21
-51.3995
  0
LINE
  8
0
 10
62.2425
 20
-51.3995
 11
63.4992
 21
-51.0755
  0
LINE
  8
0
 10
63.4992
 20
-51.0755
 11
64.7241
 21
-50.7103
  0
LINE
  8
0
 10
64.7241
 20
-50.7103
 11
65.9149
 21
-50.3029
  0
LINE
  8
0
 10
65.9149
 20
-50.3029
 11
66.4903
 21
-50.9016
  0
LINE
  8
0
 10
66.4903
 20
-50.9016
 11
67.0382
 21
-51.4599
  0
LINE
  8
0
 10
67.0382
 20
-51.4599
 11
66.5956
 21
-52.6382
  0
LINE
  8
0
 10
66.5956
 20
-52.6382
 11
66.1943
 21
-53.8517
  0
LINE
  8
0
 10
66.1943
 20
-53.8517
 11
65.8332
 21
-55.0982
  0
LINE
  8
0
 10
65.8332
 20
-55.0982
 11
65.5119
 21
-56.3757
  0
LINE
  8
0
 10
65.5119
 20
-56.3757
 11
65.2299
 21
-57.6826
  0
LINE
  8
0
 10
65.2299
 20
-57.6826
 11
66.1986
 21
-58.5688
  0
LINE
  8
0
 10
66.1986
 20
-58.5688
 11
67.4753
 21
-58.1719
  0
LINE
  8
0
 10
67.4753
 20
-58.1719
 11
68.7193
 21
-57.7384
  0
LINE
  8
0
 10
68.7193
 20
-57.7384
 11
69.9288
 21
-57.2681
  0
LINE
  8
0
 10
69.9288
 20
-57.2681
 11
71.1019
 21
-56.7606
  0
LINE
  8
0
 10
71.1019
 20
-56.7606
 11
72.2362
 21
-56.2152
  0
LINE
  8
0
 10
72.2362
 20
-56.2152
 11
72.8783
 21
-56.7416
  0
LINE
  8
0
 10
72.8783
 20
-56.7416
 11
73.4884
 21
-57.2313
  0
LINE
  8
0
 10
73.4884
 20
-57.2313
 11
73.1883
 21
-58.4536
  0
LINE
  8
0
 10
73.1883
 20
-58.4536
 11
72.9333
 21
-59.706
  0
LINE
  8
0
 10
72.9333
 20
-59.706
 11
72.7223
 21
-60.9865
  0
LINE
  8
0
 10
72.7223
 20
-60.9865
 11
72.5543
 21
-62.2931
  0
LINE
  8
0
 10
72.5543
 20
-62.2931
 11
72.4288
 21
-63.6242
  0
LINE
  8
0
 10
72.4288
 20
-63.6242
 11
73.4956
 21
-64.3896
  0
LINE
  8
0
 10
73.4956
 20
-64.3896
 11
74.7164
 21
-63.8445
  0
LINE
  8
0
 10
74.7164
 20
-63.8445
 11
75.9003
 21
-63.2669
  0
LINE
  8
0
 10
75.9003
 20
-63.2669
 11
77.0458
 21
-62.6568
  0
LINE
  8
0
 10
77.0458
 20
-62.6568
 11
78.1506
 21
-62.0141
  0
LINE
  8
0
 10
78.1506
 20
-62.0141
 11
79.2124
 21
-61.3384
  0
LINE
  8
0
 10
79.2124
 20
-61.3384
 11
79.9123
 21
-61.7852
  0
LINE
  8
0
 10
79.9123
 20
-61.7852
 11
80.576
 21
-62.1992
  0
LINE
  8
0
 10
80.576
 20
-62.1992
 11
80.4226
 21
-63.4484
  0
LINE
  8
0
 10
80.4226
 20
-63.4484
 11
80.3175
 21
-64.7222
  0
LINE
  8
0
 10
80.3175
 20
-64.7222
 11
80.2594
 21
-66.0187
  0
LINE
  8
0
 10
80.2594
 20
-66.0187
 11
80.2471
 21
-67.336
  0
LINE
  8
0
 10
80.2471
 20
-67.336
 11
80.28
 21
-68.6725
  0
LINE
  8
0
 10
80.28
 20
-68.6725
 11
81.4298
 21
-69.3064
  0
LINE
  8
0
 10
81.4298
 20
-69.3064
 11
82.5775
 21
-68.6207
  0
LINE
  8
0
 10
82.5775
 20
-68.6207
 11
83.6849
 21
-67.9072
  0
LINE
  8
0
 10
83.6849
 20
-67.9072
 11
84.7501
 21
-67.1659
  0
LINE
  8
0
 10
84.7501
 20
-67.1659
 11
85.7711
 21
-66.3971
  0
LINE
  8
0
 10
85.7711
 20
-66.3971
 11
86.7455
 21
-65.6005
  0
LINE
  8
0
 10
86.7455
 20
-65.6005
 11
87.4934
 21
-65.9614
  0
LINE
  8
0
 10
87.4934
 20
-65.9614
 11
88.2014
 21
-66.294
  0
LINE
  8
0
 10
88.2014
 20
-66.294
 11
88.1968
 21
-67.5526
  0
LINE
  8
0
 10
88.1968
 20
-67.5526
 11
88.2431
 21
-68.8299
  0
LINE
  8
0
 10
88.2431
 20
-68.8299
 11
88.3387
 21
-70.1241
  0
LINE
  8
0
 10
88.3387
 20
-70.1241
 11
88.4824
 21
-71.4336
  0
LINE
  8
0
 10
88.4824
 20
-71.4336
 11
88.6731
 21
-72.7569
  0
LINE
  8
0
 10
88.6731
 20
-72.7569
 11
89.8898
 21
-73.2504
  0
LINE
  8
0
 10
89.8898
 20
-73.2504
 11
90.9483
 21
-72.4337
  0
LINE
  8
0
 10
90.9483
 20
-72.4337
 11
91.9635
 21
-71.5942
  0
LINE
  8
0
 10
91.9635
 20
-71.5942
 11
92.9336
 21
-70.7322
  0
LINE
  8
0
 10
92.9336
 20
-70.7322
 11
93.8566
 21
-69.848
  0
LINE
  8
0
 10
93.8566
 20
-69.848
 11
94.7299
 21
-68.9417
  0
LINE
  8
0
 10
94.7299
 20
-68.9417
 11
95.5152
 21
-69.2116
  0
LINE
  8
0
 10
95.5152
 20
-69.2116
 11
96.2576
 21
-69.4582
  0
LINE
  8
0
 10
96.2576
 20
-69.4582
 11
96.4019
 21
-70.7085
  0
LINE
  8
0
 10
96.4019
 20
-70.7085
 11
96.599
 21
-71.9713
  0
LINE
  8
0
 10
96.599
 20
-71.9713
 11
96.847
 21
-73.2452
  0
LINE
  8
0
 10
96.847
 20
-73.2452
 11
97.1445
 21
-74.5285
  0
LINE
  8
0
 10
97.1445
 20
-74.5285
 11
97.4904
 21
-75.8199
  0
LINE
  8
0
 10
97.4904
 20
-75.8199
 11
98.7569
 21
-76.166
  0
LINE
  8
0
 10
98.7569
 20
-76.166
 11
99.7114
 21
-75.2299
  0
LINE
  8
0
 10
99.7114
 20
-75.2299
 11
100.62
 21
-74.2762
  0
LINE
  8
0
 10
100.62
 20
-74.2762
 11
101.482
 21
-73.3055
  0
LINE
  8
0
 10
101.482
 20
-73.3055
 11
102.293
 21
-72.3183
  0
LINE
  8
0
 10
102.293
 20
-72.3183
 11
103.053
 21
-71.3152
  0
LINE
  8
0
 10
103.053
 20
-71.3152
 11
103.865
 21
-71.4903
  0
LINE
  8
0
 10
103.865
 20
-71.4903
 11
104.632
 21
-71.6473
  0
LINE
  8
0
 10
104.632
 20
-71.6473
 11
104.923
 21
-72.8718
  0
LINE
  8
0
 10
104.923
 20
-72.8718
 11
105.268
 21
-74.1025
  0
LINE
  8
0
 10
105.268
 20
-74.1025
 11
105.665
 21
-75.338
  0
LINE
  8
0
 10
105.665
 20
-75.338
 11
106.112
 21
-76.5772
  0
LINE
  8
0
 10
106.112
 20
-76.5772
 11
106.608
 21
-77.8186
  0
LINE
  8
0
 10
106.608
 20
-77.8186
 11
107.907
 21
-78.0125
  0
LINE
  8
0
 10
107.907
 20
-78.0125
 11
108.744
 21
-76.9701
  0
LINE
  8
0
 10
108.744
 20
-76.9701
 11
109.533
 21
-75.9156
  0
LINE
  8
0
 10
109.533
 20
-75.9156
 11
110.274
 21
-74.8498
  0
LINE
  8
0
 10
110.274
 20
-74.8498
 11
110.963
 21
-73.7735
  0
LINE
  8
0
 10
110.963
 20
-73.7735
 11
111.599
 21
-72.6875
  0
LINE
  8
0
 10
111.599
 20
-72.6875
 11
112.426
 21
-72.7654
  0
LINE
  8
0
 10
112.426
 20
-72.7654
 11
113.206
 21
-72.8307
  0
LINE
  8
0
 10
113.206
 20
-72.8307
 11
113.639
 21
-74.0121
  0
LINE
  8
0
 10
113.639
 20
-74.0121
 11
114.128
 21
-75.1934
  0
LINE
  8
0
 10
114.128
 20
-75.1934
 11
114.668
 21
-76.3733
  0
LINE
  8
0
 10
114.668
 20
-76.3733
 11
115.259
 21
-77.5509
  0
LINE
  8
0
 10
115.259
 20
-77.5509
 11
115.898
 21
-78.7249
  0
LINE
  8
0
 10
115.898
 20
-78.7249
 11
117.21
 21
-78.7638
  0
LINE
  8
0
 10
117.21
 20
-78.7638
 11
117.918
 21
-77.6297
  0
LINE
  8
0
 10
117.315
 20
-4.74603
 11
115.926
 21
-4.02759
  0
LINE
  8
0
 10
115.926
 20
-4.02759
 11
114.826
 21
-2.91489
  0
LINE
  8
0
 10
114.826
 20
-2.91489
 11
114.124
 21
-1.51686
  0
LINE
  8
0
 10
114.124
 20
-1.51686
 11
113.889
 21
0.0296326
  0
LINE
  8
0
 10
113.889
 20
0.0296326
 11
114.143
 21
1.57324
  0
LINE
  8
0
 10
114.143
 20
1.57324
 11
114.861
 21
2.96284
  0
LINE
  8
0
 10
114.861
 20
2.96284
 11
115.974
 21
4.06242
  0
LINE
  8
0
 10
115.974
 20
4.06242
 11
117.372
 21
4.76434
  0
LINE
  8
0
 10
117.372
 20
4.76434
 11
118.918
 21
4.99991
  0
LINE
  8
0
 10
118.918
 20
4.99991
 11
120.462
 21
4.74603
  0
LINE
  8
0
 10
120.462
 20
4.74603
 11
121.852
 21
4.02759
  0
LINE
  8
0
 10
121.852
 20
4.02759
 11
122.951
 21
2.91489
  0
LINE
  8
0
 10
122.951
 20
2.91489
 11
123.653
 21
1.51686
  0
LINE
  8
0
 10
123.653
 20
1.51686
 11
123.889
 21
-0.0296326
  0
LINE
  8
0
 10
123.889
 20
-0.0296326
 11
123.635
 21
-1.57324
  0
LINE
  8
0
 10
123.635
 20
-1.57324
 11
122.916
 21
-2.96284
  0
LINE
  8
0
 10
122.916
 20
-2.96284
 11
121.804
 21
-4.06242
  0
LINE
  8
0
 10
121.804
 20
-4.06242
 11
120.406
 21
-4.76434
  0
LINE
  8
0
 10
120.406
 20
-4.76434
 11
118.859
 21
-4.99991
  0
LINE
  8
0
 10
118.859
 20
-4.99991
 11
117.315
 21
-4.74603
  0
LINE
  8
0
 10
1.32727
 20
-44.671
 11
1.96353
 21
-43.5005
  0
LINE
  8
0
 10
1.96353
 20
-43.5005
 11
2.5118
 21
-42.3244
  0
LINE
  8
0
 10
2.5118
 20
-42.3244
 11
2.96651
 21
-41.1461
  0
LINE
  8
0
 10
2.96651
 20
-41.1461
 11
3.31874
 21
-39.9695
  0
LINE
  8
0
 10
3.31874
 20
-39.9695
 11
4.21547
 21
-39.8844
  0
LINE
  8
0
 10
4.21547
 20
-39.8844
 11
5.06389
 21
-39.7861
  0
LINE
  8
0
 10
5.06389
 20
-39.7861
 11
5.65306
 21
-40.8638
  0
LINE
  8
0
 10
5.65306
 20
-40.8638
 11
6.3428
 21
-41.9217
  0
LINE
  8
0
 10
6.3428
 20
-41.9217
 11
7.12361
 21
-42.9581
  0
LINE
  8
0
 10
7.12361
 20
-42.9581
 11
7.98933
 21
-43.9708
  0
LINE
  8
0
 10
7.98933
 20
-43.9708
 11
8.93552
 21
-44.9572
  0
LINE
  8
0
 10
8.93552
 20
-44.9572
 11
10.1227
 21
-44.7049
  0
LINE
  8
0
 10
10.1227
 20
-44.7049
 11
10.5859
 21
-43.4189
  0
LINE
  8
0
 10
10.5859
 20
-43.4189
 11
10.9649
 21
-42.1416
  0
LINE
  8
0
 10
10.9649
 20
-42.1416
 11
11.2567
 21
-40.8773
  0
LINE
  8
0
 10
11.2567
 20
-40.8773
 11
11.4565
 21
-39.6302
  0
LINE
  8
0
 10
11.4565
 20
-39.6302
 11
11.5564
 21
-38.4061
  0
LINE
  8
0
 10
11.5564
 20
-38.4061
 11
12.4158
 21
-38.1364
  0
LINE
  8
0
 10
12.4158
 20
-38.1364
 11
13.2252
 21
-37.8638
  0
LINE
  8
0
 10
13.2252
 20
-37.8638
 11
14.0256
 21
-38.7955
  0
LINE
  8
0
 10
14.0256
 20
-38.7955
 11
14.9202
 21
-39.6869
  0
LINE
  8
0
 10
14.9202
 20
-39.6869
 11
15.8994
 21
-40.5383
  0
LINE
  8
0
 10
15.8994
 20
-40.5383
 11
16.9568
 21
-41.3488
  0
LINE
  8
0
 10
16.9568
 20
-41.3488
 11
18.0874
 21
-42.117
  0
LINE
  8
0
 10
18.0874
 20
-42.117
 11
19.1962
 21
-41.6233
  0
LINE
  8
0
 10
19.1962
 20
-41.6233
 11
19.3819
 21
-40.2691
  0
LINE
  8
0
 10
19.3819
 20
-40.2691
 11
19.487
 21
-38.941
  0
LINE
  8
0
 10
19.487
 20
-38.941
 11
19.5095
 21
-37.6436
  0
LINE
  8
0
 10
19.5095
 20
-37.6436
 11
19.4457
 21
-36.3823
  0
LINE
  8
0
 10
19.4457
 20
-36.3823
 11
19.2889
 21
-35.1641
  0
LINE
  8
0
 10
19.2889
 20
-35.1641
 11
20.0735
 21
-34.7216
  0
LINE
  8
0
 10
20.0735
 20
-34.7216
 11
20.8085
 21
-34.2867
  0
LINE
  8
0
 10
20.8085
 20
-34.2867
 11
21.7851
 21
-35.0316
  0
LINE
  8
0
 10
21.7851
 20
-35.0316
 11
22.8456
 21
-35.7176
  0
LINE
  8
0
 10
22.8456
 20
-35.7176
 11
23.9804
 21
-36.3468
  0
LINE
  8
0
 10
23.9804
 20
-36.3468
 11
25.1832
 21
-36.9197
  0
LINE
  8
0
 10
25.1832
 20
-36.9197
 11
26.4487
 21
-37.4361
  0
LINE
  8
0
 10
26.4487
 20
-37.4361
 11
27.4307
 21
-36.7226
  0
LINE
  8
0
 10
27.4307
 20
-36.7226
 11
27.3307
 21
-35.3594
  0
LINE
  8
0
 10
27.3307
 20
-35.3594
 11
27.1575
 21
-34.0385
  0
LINE
  8
0
 10
27.1575
 20
-34.0385
 11
26.9097
 21
-32.7648
  0
LINE
  8
0
 10
26.9097
 20
-32.7648
 11
26.5851
 21
-31.5443
  0
LINE
  8
0
 10
26.5851
 20
-31.5443
 11
26.1784
 21
-30.3853
  0
LINE
  8
0
 10
26.1784
 20
-30.3853
 11
26.8539
 21
-29.7894
  0
LINE
  8
0
 10
26.8539
 20
-29.7894
 11
27.4824
 21
-29.2111
  0
LINE
  8
0
 10
27.4824
 20
-29.2111
 11
28.5925
 21
-29.7367
  0
LINE
  8
0
 10
28.5925
 20
-29.7367
 11
29.7724
 21
-30.1872
  0
LINE
  8
0
 10
29.7724
 20
-30.1872
 11
31.0133
 21
-30.5667
  0
LINE
  8
0
 10
31.0133
 20
-30.5667
 11
32.3089
 21
-30.8771
  0
LINE
  8
0
 10
32.3089
 20
-30.8771
 11
33.6542
 21
-31.119
  0
LINE
  8
0
 10
33.6542
 20
-31.119
 11
34.4663
 21
-30.217
  0
LINE
  8
0
 10
34.4663
 20
-30.217
 11
34.0851
 21
-28.9044
  0
LINE
  8
0
 10
34.0851
 20
-28.9044
 11
33.641
 21
-27.6483
  0
LINE
  8
0
 10
33.641
 20
-27.6483
 11
33.1339
 21
-26.4539
  0
LINE
  8
0
 10
33.1339
 20
-26.4539
 11
32.5625
 21
-25.3276
  0
LINE
  8
0
 10
32.5625
 20
-25.3276
 11
31.9238
 21
-24.2785
  0
LINE
  8
0
 10
31.9238
 20
-24.2785
 11
32.4606
 21
-23.5551
  0
LINE
  8
0
 10
32.4606
 20
-23.5551
 11
32.9552
 21
-22.8589
  0
LINE
  8
0
 10
32.9552
 20
-22.8589
 11
34.1503
 21
-23.1422
  0
LINE
  8
0
 10
34.1503
 20
-23.1422
 11
35.3981
 21
-23.3375
  0
LINE
  8
0
 10
35.3981
 20
-23.3375
 11
36.6908
 21
-23.4507
  0
LINE
  8
0
 10
36.6908
 20
-23.4507
 11
38.0226
 21
-23.485
  0
LINE
  8
0
 10
38.0226
 20
-23.485
 11
39.3887
 21
-23.4419
  0
LINE
  8
0
 10
39.3887
 20
-23.4419
 11
39.9956
 21
-22.3907
  0
LINE
  8
0
 10
39.9956
 20
-22.3907
 11
39.3499
 21
-21.186
  0
LINE
  8
0
 10
39.3499
 20
-21.186
 11
38.6543
 21
-20.0498
  0
LINE
  8
0
 10
38.6543
 20
-20.0498
 11
37.9099
 21
-18.9869
  0
LINE
  8
0
 10
37.9099
 20
-18.9869
 11
37.1169
 21
-18.004
  0
LINE
  8
0
 10
37.1169
 20
-18.004
 11
36.274
 21
-17.1106
  0
LINE
  8
0
 10
36.274
 20
-17.1106
 11
36.6486
 21
-16.2915
  0
LINE
  8
0
 10
36.6486
 20
-16.2915
 11
36.9877
 21
-15.5076
  0
LINE
  8
0
 10
36.9877
 20
-15.5076
 11
38.2156
 21
-15.5362
  0
LINE
  8
0
 10
38.2156
 20
-15.5362
 11
39.4767
 21
-15.4678
  0
LINE
  8
0
 10
39.4767
 20
-15.4678
 11
40.7646
 21
-15.3098
  0
LINE
  8
0
 10
40.7646
 20
-15.3098
 11
42.0745
 21
-15.0664
  0
LINE
  8
0
 10
42.0745
 20
-15.0664
 11
43.4019
 21
-14.7402
  0
LINE
  8
0
 10
43.4019
 20
-14.7402
 11
43.7769
 21
-13.5859
  0
LINE
  8
0
 10
43.7769
 20
-13.5859
 11
42.8948
 21
-12.5418
  0
LINE
  8
0
 10
42.8948
 20
-12.5418
 11
41.9782
 21
-11.5749
  0
LINE
  8
0
 10
41.9782
 20
-11.5749
 11
41.0291
 21
-10.6901
  0
LINE
  8
0
 10
41.0291
 20
-10.6901
 11
40.049
 21
-9.89352
  0
LINE
  8
0
 10
40.049
 20
-9.89352
 11
39.0388
 21
-9.19492
  0
LINE
  8
0
 10
39.0388
 20
-9.19492
 11
39.235
 21
-8.3158
  0
LINE
  8
0
 10
39.235
 20
-8.3158
 11
39.4036
 21
-7.47852
  0
LINE
  8
0
 10
39.4036
 20
-7.47852
 11
40.6107
 21
-7.25121
  0
LINE
  8
0
 10
40.6107
 20
-7.25121
 11
41.83
 21
-6.92215
  0
LINE
  8
0
 10
41.83
 20
-6.92215
 11
43.0569
 21
-6.49982
  0
LINE
  8
0
 10
43.0569
 20
-6.49982
 11
44.2875
 21
-5.9894
  0
LINE
  8
0
 10
44.2875
 20
-5.9894
 11
45.5181
 21
-5.39435
  0
LINE
  8
0
 10
45.5181
 20
-5.39435
 11
45.6449
 21
-4.18726
  0
LINE
  8
0
 10
45.6449
 20
-4.18726
 11
44.565
 21
-3.34937
  0
LINE
  8
0
 10
44.565
 20
-3.34937
 11
43.4674
 21
-2.59424
  0
LINE
  8
0
 10
43.4674
 20
-2.59424
 11
42.3551
 21
-1.92604
  0
LINE
  8
0
 10
42.3551
 20
-1.92604
 11
41.2308
 21
-1.35066
  0
LINE
  8
0
 10
41.2308
 20
-1.35066
 11
40.0974
 21
-0.877365
  0
LINE
  8
0
 10
40.0974
 20
-0.877365
 11
40.1065
 21
0.0233307
  0
LINE
  8
0
 10
40.1065
 20
0.0233307
 11
40.0974
 21
0.877365
  0
LINE
  8
0
 10
40.0974
 20
0.877365
 11
41.2308
 21
1.35066
  0
LINE
  8
0
 10
41.2308
 20
1.35066
 11
42.3551
 21
1.92604
  0
LINE
  8
0
 10
42.3551
 20
1.92604
 11
43.4674
 21
2.59424
  0
LINE
  8
0
 10
43.4674
 20
2.59424
 11
44.565
 21
3.34937
  0
LINE
  8
0
 10
44.565
 20
3.34937
 11
45.6449
 21
4.18726
  0
LINE
  8
0
 10
45.6449
 20
4.18726
 11
45.5181
 21
5.39435
  0
LINE
  8
0
 10
45.5181
 20
5.39435
 11
44.2875
 21
5.9894
  0
LINE
  8
0
 10
44.2875
 20
5.9894
 11
43.0569
 21
6.49982
  0
LINE
  8
0
 10
43.0569
 20
6.49982
 11
41.83
 21
6.92215
  0
LINE
  8
0
 10
41.83
 20
6.92215
 11
40.6107
 21
7.25121
  0
LINE
  8
0
 10
40.6107
 20
7.25121
 11
39.4036
 21
7.47852
  0
LINE
  8
0
 10
39.4036
 20
7.47852
 11
39.2253
 21
8.36143
  0
LINE
  8
0
 10
39.2253
 20
8.36143
 11
39.0388
 21
9.19492
  0
LINE
  8
0
 10
39.0388
 20
9.19492
 11
40.049
 21
9.89352
  0
LINE
  8
0
 10
40.049
 20
9.89352
 11
41.0291
 21
10.6901
  0
LINE
  8
0
 10
41.0291
 20
10.6901
 11
41.9782
 21
11.5749
  0
LINE
  8
0
 10
41.9782
 20
11.5749
 11
42.8948
 21
12.5418
  0
LINE
  8
0
 10
42.8948
 20
12.5418
 11
43.7769
 21
13.5859
  0
LINE
  8
0
 10
43.7769
 20
13.5859
 11
43.4019
 21
14.7402
  0
LINE
  8
0
 10
43.4019
 20
14.7402
 11
42.0745
 21
15.0664
  0
LINE
  8
0
 10
42.0745
 20
15.0664
 11
40.7646
 21
15.3098
  0
LINE
  8
0
 10
40.7646
 20
15.3098
 11
39.4767
 21
15.4678
  0
LINE
  8
0
 10
39.4767
 20
15.4678
 11
38.2156
 21
15.5362
  0
LINE
  8
0
 10
38.2156
 20
15.5362
 11
36.9877
 21
15.5076
  0
LINE
  8
0
 10
36.9877
 20
15.5076
 11
36.6297
 21
16.3341
  0
LINE
  8
0
 10
36.6297
 20
16.3341
 11
36.274
 21
17.1106
  0
LINE
  8
0
 10
36.274
 20
17.1106
 11
37.1169
 21
18.004
  0
LINE
  8
0
 10
37.1169
 20
18.004
 11
37.9099
 21
18.9869
  0
LINE
  8
0
 10
37.9099
 20
18.9869
 11
38.6543
 21
20.0498
  0
LINE
  8
0
 10
38.6543
 20
20.0498
 11
39.3499
 21
21.186
  0
LINE
  8
0
 10
39.3499
 20
21.186
 11
39.9956
 21
22.3907
  0
LINE
  8
0
 10
39.9956
 20
22.3907
 11
39.3887
 21
23.4419
  0
LINE
  8
0
 10
39.3887
 20
23.4419
 11
38.0226
 21
23.485
  0
LINE
  8
0
 10
38.0226
 20
23.485
 11
36.6908
 21
23.4507
  0
LINE
  8
0
 10
36.6908
 20
23.4507
 11
35.3981
 21
23.3375
  0
LINE
  8
0
 10
35.3981
 20
23.3375
 11
34.1503
 21
23.1422
  0
LINE
  8
0
 10
34.1503
 20
23.1422
 11
32.9552
 21
22.8589
  0
LINE
  8
0
 10
32.9552
 20
22.8589
 11
32.4332
 21
23.5929
  0
LINE
  8
0
 10
32.4332
 20
23.5929
 11
31.9238
 21
24.2785
  0
LINE
  8
0
 10
31.9238
 20
24.2785
 11
32.5625
 21
25.3276
  0
LINE
  8
0
 10
32.5625
 20
25.3276
 11
33.1339
 21
26.4539
  0
LINE
  8
0
 10
33.1339
 20
26.4539
 11
33.641
 21
27.6483
  0
LINE
  8
0
 10
33.641
 20
27.6483
 11
34.0851
 21
28.9044
  0
LINE
  8
0
 10
34.0851
 20
28.9044
 11
34.4663
 21
30.217
  0
LINE
  8
0
 10
34.4663
 20
30.217
 11
33.6542
 21
31.119
  0
LINE
  8
0
 10
33.6542
 20
31.119
 11
32.3089
 21
30.8771
  0
LINE
  8
0
 10
32.3089
 20
30.8771
 11
31.0133
 21
30.5667
  0
LINE
  8
0
 10
31.0133
 20
30.5667
 11
29.7724
 21
30.1872
  0
LINE
  8
0
 10
29.7724
 20
30.1872
 11
28.5925
 21
29.7367
  0
LINE
  8
0
 10
28.5925
 20
29.7367
 11
27.4824
 21
29.2111
  0
LINE
  8
0
 10
27.4824
 20
29.2111
 11
26.8192
 21
29.8206
  0
LINE
  8
0
 10
26.8192
 20
29.8206
 11
26.1784
 21
30.3853
  0
LINE
  8
0
 10
26.1784
 20
30.3853
 11
26.5851
 21
31.5443
  0
LINE
  8
0
 10
26.5851
 20
31.5443
 11
26.9097
 21
32.7648
  0
LINE
  8
0
 10
26.9097
 20
32.7648
 11
27.1575
 21
34.0385
  0
LINE
  8
0
 10
27.1575
 20
34.0385
 11
27.3307
 21
35.3594
  0
LINE
  8
0
 10
27.3307
 20
35.3594
 11
27.4307
 21
36.7226
  0
LINE
  8
0
 10
27.4307
 20
36.7226
 11
26.4487
 21
37.4361
  0
LINE
  8
0
 10
26.4487
 20
37.4361
 11
25.1832
 21
36.9197
  0
LINE
  8
0
 10
25.1832
 20
36.9197
 11
23.9804
 21
36.3468
  0
LINE
  8
0
 10
23.9804
 20
36.3468
 11
22.8456
 21
35.7176
  0
LINE
  8
0
 10
22.8456
 20
35.7176
 11
21.7851
 21
35.0316
  0
LINE
  8
0
 10
21.7851
 20
35.0316
 11
20.8085
 21
34.2867
  0
LINE
  8
0
 10
20.8085
 20
34.2867
 11
20.0331
 21
34.7449
  0
LINE
  8
0
 10
20.0331
 20
34.7449
 11
19.2889
 21
35.1641
  0
LINE
  8
0
 10
19.2889
 20
35.1641
 11
19.4457
 21
36.3823
  0
LINE
  8
0
 10
19.4457
 20
36.3823
 11
19.5095
 21
37.6436
  0
LINE
  8
0
 10
19.5095
 20
37.6436
 11
19.487
 21
38.941
  0
LINE
  8
0
 10
19.487
 20
38.941
 11
19.3819
 21
40.2691
  0
LINE
  8
0
 10
19.3819
 20
40.2691
 11
19.1962
 21
41.6233
  0
LINE
  8
0
 10
19.1962
 20
41.6233
 11
18.0874
 21
42.117
  0
LINE
  8
0
 10
18.0874
 20
42.117
 11
16.9568
 21
41.3488
  0
LINE
  8
0
 10
16.9568
 20
41.3488
 11
15.8994
 21
40.5383
  0
LINE
  8
0
 10
15.8994
 20
40.5383
 11
14.9202
 21
39.6869
  0
LINE
  8
0
 10
14.9202
 20
39.6869
 11
14.0256
 21
38.7955
  0
LINE
  8
0
 10
14.0256
 20
38.7955
 11
13.2252
 21
37.8638
  0
LINE
  8
0
 10
13.2252
 20
37.8638
 11
12.3714
 21
38.1508
  0
LINE
  8
0
 10
12.3714
 20
38.1508
 11
11.5564
 21
38.4061
  0
LINE
  8
0
 10
11.5564
 20
38.4061
 11
11.4565
 21
39.6302
  0
LINE
  8
0
 10
11.4565
 20
39.6302
 11
11.2567
 21
40.8773
  0
LINE
  8
0
 10
11.2567
 20
40.8773
 11
10.9649
 21
42.1416
  0
LINE
  8
0
 10
10.9649
 20
42.1416
 11
10.5859
 21
43.4189
  0
LINE
  8
0
 10
10.5859
 20
43.4189
 11
10.1227
 21
44.7049
  0
LINE
  8
0
 10
10.1227
 20
44.7049
 11
8.93552
 21
44.9572
  0
LINE
  8
0
 10
8.93552
 20
44.9572
 11
7.98933
 21
43.9708
  0
LINE
  8
0
 10
7.98933
 20
43.9708
 11
7.12361
 21
42.9581
  0
LINE
  8
0
 10
7.12361
 20
42.9581
 11
6.3428
 21
41.9217
  0
LINE
  8
0
 10
6.3428
 20
41.9217
 11
5.65306
 21
40.8638
  0
LINE
  8
0
 10
5.65306
 20
40.8638
 11
5.06389
 21
39.7861
  0
LINE
  8
0
 10
5.06389
 20
39.7861
 11
4.16907
 21
39.8893
  0
LINE
  8
0
 10
4.16907
 20
39.8893
 11
3.31876
 21
39.9695
  0
LINE
  8
0
 10
3.31876
 20
39.9695
 11
2.96652
 21
41.1461
  0
LINE
  8
0
 10
2.96652
 20
41.1461
 11
2.51181
 21
42.3244
  0
LINE
  8
0
 10
2.51181
 20
42.3244
 11
1.96355
 21
43.5005
  0
LINE
  8
0
 10
1.96355
 20
43.5005
 11
1.32729
 21
44.671
  0
LINE
  8
0
 10
1.32729
 20
44.671
 11
0.606873
 21
45.8326
  0
LINE
  8
0
 10
0.606873
 20
45.8326
 11
-0.606873
 21
45.8326
  0
LINE
  8
0
 10
-0.606873
 20
45.8326
 11
-1.32729
 21
44.671
  0
LINE
  8
0
 10
-1.32729
 20
44.671
 11
-1.96355
 21
43.5005
  0
LINE
  8
0
 10
-1.96355
 20
43.5005
 11
-2.51181
 21
42.3244
  0
LINE
  8
0
 10
-2.51181
 20
42.3244
 11
-2.96652
 21
41.1461
  0
LINE
  8
0
 10
-2.96652
 20
41.1461
 11
-3.31876
 21
39.9695
  0
LINE
  8
0
 10
-3.31876
 20
39.9695
 11
-4.21547
 21
39.8844
  0
LINE
  8
0
 10
-4.21547
 20
39.8844
 11
-5.06389
 21
39.7861
  0
LINE
  8
0
 10
-5.06389
 20
39.7861
 11
-5.65306
 21
40.8638
  0
LINE
  8
0
 10
-5.65306
 20
40.8638
 11
-6.3428
 21
41.9217
  0
LINE
  8
0
 10
-6.3428
 20
41.9217
 11
-7.12361
 21
42.9581
  0
LINE
  8
0
 10
-7.12361
 20
42.9581
 11
-7.98933
 21
43.9708
  0
LINE
  8
0
 10
-7.98933
 20
43.9708
 11
-8.93552
 21
44.9572
  0
LINE
  8
0
 10
-8.93552
 20
44.9572
 11
-10.1227
 21
44.7049
  0
LINE
  8
0
 10
-10.1227
 20
44.7049
 11
-10.5859
 21
43.4189
  0
LINE
  8
0
 10
-10.5859
 20
43.4189
 11
-10.9649
 21
42.1416
  0
LINE
  8
0
 10
-10.9649
 20
42.1416
 11
-11.2567
 21
40.8773
  0
LINE
  8
0
 10
-11.2567
 20
40.8773
 11
-11.4565
 21
39.6302
  0
LINE
  8
0
 10
-11.4565
 20
39.6302
 11
-11.5564
 21
38.4061
  0
LINE
  8
0
 10
-11.5564
 20
38.4061
 11
-12.4158
 21
38.1364
  0
LINE
  8
0
 10
-12.4158
 20
38.1364
 11
-13.2252
 21
37.8638
  0
LINE
  8
0
 10
-13.2252
 20
37.8638
 11
-14.0256
 21
38.7955
  0
LINE
  8
0
 10
-14.0256
 20
38.7955
 11
-14.9202
 21
39.6869
  0
LINE
  8
0
 10
-14.9202
 20
39.6869
 11
-15.8994
 21
40.5383
  0
LINE
  8
0
 10
-15.8994
 20
40.5383
 11
-16.9568
 21
41.3488
  0
LINE
  8
0
 10
-16.9568
 20
41.3488
 11
-18.0874
 21
42.117
  0
LINE
  8
0
 10
-18.0874
 20
42.117
 11
-19.1962
 21
41.6233
  0
LINE
  8
0
 10
-19.1962
 20
41.6233
 11
-19.3819
 21
40.2691
  0
LINE
  8
0
 10
-19.3819
 20
40.2691
 11
-19.487
 21
38.941
  0
LINE
  8
0
 10
-19.487
 20
38.941
 11
-19.5095
 21
37.6436
  0
LINE
  8
0
 10
-19.5095
 20
37.6436
 11
-19.4457
 21
36.3823
  0
LINE
  8
0
 10
-19.4457
 20
36.3823
 11
-19.2889
 21
35.1641
  0
LINE
  8
0
 10
-19.2889
 20
35.1641
 11
-20.0735
 21
34.7216
  0
LINE
  8
0
 10
-20.0735
 20
34.7216
 11
-20.8085
 21
34.2867
  0
LINE
  8
0
 10
-20.8085
 20
34.2867
 11
-21.7851
 21
35.0316
  0
LINE
  8
0
 10
-21.7851
 20
35.0316
 11
-22.8456
 21
35.7176
  0
LINE
  8
0
 10
-22.8456
 20
35.7176
 11
-23.9804
 21
36.3468
  0
LINE
  8
0
 10
-23.9804
 20
36.3468
 11
-25.1832
 21
36.9197
  0
LINE
  8
0
 10
-25.1832
 20
36.9197
 11
-26.4487
 21
37.4361
  0
LINE
  8
0
 10
-26.4487
 20
37.4361
 11
-27.4307
 21
36.7226
  0
LINE
  8
0
 10
-27.4307
 20
36.7226
 11
-27.3307
 21
35.3594
  0
LINE
  8
0
 10
-27.3307
 20
35.3594
 11
-27.1575
 21
34.0385
  0
LINE
  8
0
 10
-27.1575
 20
34.0385
 11
-26.9097
 21
32.7648
  0
LINE
  8
0
 10
-26.9097
 20
32.7648
 11
-26.5851
 21
31.5443
  0
LINE
  8
0
 10
-26.5851
 20
31.5443
 11
-26.1784
 21
30.3853
  0
LINE
  8
0
 10
-26.1784
 20
30.3853
 11
-26.8539
 21
29.7894
  0
LINE
  8
0
 10
-26.8539
 20
29.7894
 11
-27.4824
 21
29.2111
  0
LINE
  8
0
 10
-27.4824
 20
29.2111
 11
-28.5925
 21
29.7367
  0
LINE
  8
0
 10
-28.5925
 20
29.7367
 11
-29.7724
 21
30.1872
  0
LINE
  8
0
 10
-29.7724
 20
30.1872
 11
-31.0133
 21
30.5667
  0
LINE
  8
0
 10
-31.0133
 20
30.5667
 11
-32.3089
 21
30.8771
  0
LINE
  8
0
 10
-32.3089
 20
30.8771
 11
-33.6542
 21
31.119
  0
LINE
  8
0
 10
-33.6542
 20
31.119
 11
-34.4663
 21
30.217
  0
LINE
  8
0
 10
-34.4663
 20
30.217
 11
-34.0851
 21
28.9044
  0
LINE
  8
0
 10
-34.0851
 20
28.9044
 11
-33.641
 21
27.6483
  0
LINE
  8
0
 10
-33.641
 20
27.6483
 11
-33.1339
 21
26.4539
  0
LINE
  8
0
 10
-33.1339
 20
26.4539
 11
-32.5625
 21
25.3276
  0
LINE
  8
0
 10
-32.5625
 20
25.3276
 11
-31.9238
 21
24.2785
  0
LINE
  8
0
 10
-31.9238
 20
24.2785
 11
-32.4606
 21
23.5551
  0
LINE
  8
0
 10
-32.4606
 20
23.5551
 11
-32.9552
 21
22.8589
  0
LINE
  8
0
 10
-32.9552
 20
22.8589
 11
-34.1503
 21
23.1422
  0
LINE
  8
0
 10
-34.1503
 20
23.1422
 11
-35.3981
 21
23.3375
  0
LINE
  8
0
 10
-35.3981
 20
23.3375
 11
-36.6908
 21
23.4507
  0
LINE
  8
0
 10
-36.6908
 20
23.4507
 11
-38.0226
 21
23.485
  0
LINE
  8
0
 10
-38.0226
 20
23.485
 11
-39.3887
 21
23.4419
  0
LINE
  8
0
 10
-39.3887
 20
23.4419
 11
-39.9956
 21
22.3907
  0
LINE
  8
0
 10
-39.9956
 20
22.3907
 11
-39.3499
 21
21.186
  0
LINE
  8
0
 10
-39.3499
 20
21.186
 11
-38.6543
 21
20.0498
  0
LINE
  8
0
 10
-38.6543
 20
20.0498
 11
-37.9099
 21
18.9869
  0
LINE
  8
0
 10
-37.9099
 20
18.9869
 11
-37.1169
 21
18.004
  0
LINE
  8
0
 10
-37.1169
 20
18.004
 11
-36.274
 21
17.1106
  0
LINE
  8
0
 10
-36.274
 20
17.1106
 11
-36.6486
 21
16.2915
  0
LINE
  8
0
 10
-36.6486
 20
16.2915
 11
-36.9877
 21
15.5076
  0
LINE
  8
0
 10
-36.9877
 20
15.5076
 11
-38.2156
 21
15.5362
  0
LINE
  8
0
 10
-38.2156
 20
15.5362
 11
-39.4767
 21
15.4678
  0
LINE
  8
0
 10
-39.4767
 20
15.4678
 11
-40.7646
 21
15.3098
  0
LINE
  8
0
 10
-40.7646
 20
15.3098
 11
-42.0745
 21
15.0664
  0
LINE
  8
0
 10
-42.0745
 20
15.0664
 11
-43.4019
 21
14.7402
  0
LINE
  8
0
 10
-43.4019
 20
14.7402
 11
-43.7769
 21
13.5859
  0
LINE
  8
0
 10
-43.7769
 20
13.5859
 11
-42.8948
 21
12.5418
  0
LINE
  8
0
 10
-42.8948
 20
12.5418
 11
-41.9782
 21
11.5749
  0
LINE
  8
0
 10
-41.9782
 20
11.5749
 11
-41.0291
 21
10.6901
  0
LINE
  8
0
 10
-41.0291
 20
10.6901
 11
-40.049
 21
9.89352
  0
LINE
  8
0
 10
-40.049
 20
9.89352
 11
-39.0388
 21
9.19492
  0
LINE
  8
0
 10
-39.0388
 20
9.19492
 11
-39.235
 21
8.3158
  0
LINE
  8
0
 10
-39.235
 20
8.3158
 11
-39.4036
 21
7.47852
  0
LINE
  8
0
 10
-39.4036
 20
7.47852
 11
-40.6107
 21
7.25121
  0
LINE
  8
0
 10
-40.6107
 20
7.25121
 11
-41.83
 21
6.92215
  0
LINE
  8
0
 10
-41.83
 20
6.92215
 11
-43.0569
 21
6.49982
  0
LINE
  8
0
 10
-43.0569
 20
6.49982
 11
-44.2875
 21
5.9894
  0
LINE
  8
0
 10
-44.2875
 20
5.9894
 11
-45.5181
 21
5.39435
  0
LINE
  8
0
 10
-45.5181
 20
5.39435
 11
-45.6449
 21
4.18726
  0
LINE
  8
0
 10
-45.6449
 20
4.18726
 11
-44.565
 21
3.34937
  0
LINE
  8
0
 10
-44.565
 20
3.34937
 11
-43.4674
 21
2.59424
  0
LINE
  8
0
 10
-43.4674
 20
2.59424
 11
-42.3551
 21
1.92604
  0
LINE
  8
0
 10
-42.3551
 20
1.92604
 11
-41.2308
 21
1.35066
  0
LINE
  8
0
 10
-41.2308
 20
1.35066
 11
-40.0974
 21
0.877365
  0
LINE
  8
0
 10
-40.0974
 20
0.877365
 11
-40.1065
 21
-0.0233307
  0
LINE
  8
0
 10
-40.1065
 20
-0.0233307
 11
-40.0974
 21
-0.877365
  0
LINE
  8
0
 10
-40.0974
 20
-0.877365
 11
-41.2308
 21
-1.35066
  0
LINE
  8
0
 10
-41.2308
 20
-1.35066
 11
-42.3551
 21
-1.92604
  0
LINE
  8
0
 10
-42.3551
 20
-1.92604
 11
-43.4674
 21
-2.59424
  0
LINE
  8
0
 10
-43.4674
 20
-2.59424
 11
-44.565
 21
-3.34937
  0
LINE
  8
0
 10
-44.565
 20
-3.34937
 11
-45.6449
 21
-4.18726
  0
LINE
  8
0
 10
-45.6449
 20
-4.18726
 11
-45.5181
 21
-5.39435
  0
LINE
  8
0
 10
-45.5181
 20
-5.39435
 11
-44.2875
 21
-5.9894
  0
LINE
  8
0
 10
-44.2875
 20
-5.9894
 11
-43.0569
 21
-6.49982
  0
LINE
  8
0
 10
-43.0569
 20
-6.49982
 11
-41.83
 21
-6.92215
  0
LINE
  8
0
 10
-41.83
 20
-6.92215
 11
-40.6107
 21
-7.25121
  0
LINE
  8
0
 10
-40.6107
 20
-7.25121
 11
-39.4036
 21
-7.47852
  0
LINE
  8
0
 10
-39.4036
 20
-7.47852
 11
-39.2253
 21
-8.36143
  0
LINE
  8
0
 10
-39.2253
 20
-8.36143
 11
-39.0388
 21
-9.19492
  0
LINE
  8
0
 10
-39.0388
 20
-9.19492
 11
-40.049
 21
-9.89352
  0
LINE
  8
0
 10
-40.049
 20
-9.89352
 11
-41.0291
 21
-10.6901
  0
LINE
  8
0
 10
-41.0291
 20
-10.6901
 11
-41.9782
 21
-11.5749
  0
LINE
  8
0
 10
-41.9782
 20
-11.5749
 11
-42.8948
 21
-12.5418
  0
LINE
  8
0
 10
-42.8948
 20
-12.5418
 11
-43.7769
 21
-13.5859
  0
LINE
  8
0
 10
-43.7769
 20
-13.5859
 11
-43.4019
 21
-14.7402
  0
LINE
  8
0
 10
-43.4019
 20
-14.7402
 11
-42.0745
 21
-15.0664
  0
LINE
  8
0
 10
-42.0745
 20
-15.0664
 11
-40.7646
 21
-15.3098
  0
LINE
  8
0
 10
-40.7646
 20
-15.3098
 11
-39.4767
 21
-15.4678
  0
LINE
  8
0
 10
-39.4767
 20
-15.4678
 11
-38.2156
 21
-15.5362
  0
LINE
  8
0
 10
-38.2156
 20
-15.5362
 11
-36.9877
 21
-15.5076
  0
LINE
  8
0
 10
-36.9877
 20
-15.5076
 11
-36.6297
 21
-16.3341
  0
LINE
  8
0
 10
-36.6297
 20
-16.3341
 11
-36.274
 21
-17.1106
  0
LINE
  8
0
 10
-36.274
 20
-17.1106
 11
-37.1169
 21
-18.004
  0
LINE
  8
0
 10
-37.1169
 20
-18.004
 11
-37.9099
 21
-18.9869
  0
LINE
  8
0
 10
-37.9099
 20
-18.9869
 11
-38.6543
 21
-20.0498
  0
LINE
  8
0
 10
-38.6543
 20
-20.0498
 11
-39.3499
 21
-21.186
  0
LINE
  8
0
 10
-39.3499
 20
-21.186
 11
-39.9956
 21
-22.3907
  0
LINE
  8
0
 10
-39.9956
 20
-22.3907
 11
-39.3887
 21
-23.4419
  0
LINE
  8
0
 10
-39.3887
 20
-23.4419
 11
-38.0226
 21
-23.485
  0
LINE
  8
0
 10
-38.0226
 20
-23.485
 11
-36.6908
 21
-23.4507
  0
LINE
  8
0
 10
-36.6908
 20
-23.4507
 11
-35.3981
 21
-23.3375
  0
LINE
  8
0
 10
-35.3981
 20
-23.3375
 11
-34.1503
 21
-23.1422
  0
LINE
  8
0
 10
-34.1503
 20
-23.1422
 11
-32.9552
 21
-22.8589
  0
LINE
  8
0
 10
-32.9552
 20
-22.8589
 11
-32.4332
 21
-23.5929
  0
LINE
  8
0
 10
-32.4332
 20
-23.5929
 11
-31.9238
 21
-24.2785
  0
LINE
  8
0
 10
-31.9238
 20
-24.2785
 11
-32.5625
 21
-25.3276
  0
LINE
  8
0
 10
-32.5625
 20
-25.3276
 11
-33.1339
 21
-26.4539
  0
LINE
  8
0
 10
-33.1339
 20
-26.4539
 11
-33.641
 21
-27.6483
  0
LINE
  8
0
 10
-33.641
 20
-27.6483
 11
-34.0851
 21
-28.9044
  0
LINE
  8
0
 10
-34.0851
 20
-28.9044
 11
-34.4663
 21
-30.217
  0
LINE
  8
0
 10
-34.4663
 20
-30.217
 11
-33.6542
 21
-31.119
  0
LINE
  8
0
 10
-33.6542
 20
-31.119
 11
-32.3089
 21
-30.8771
  0
LINE
  8
0
 10
-32.3089
 20
-30.8771
 11
-31.0133
 21
-30.5667
  0
LINE
  8
0
 10
-31.0133
 20
-30.5667
 11
-29.7724
 21
-30.1872
  0
LINE
  8
0
 10
-29.7724
 20
-30.1872
 11
-28.5925
 21
-29.7367
  0
LINE
  8
0
 10
-28.5925
 20
-29.7367
 11
-27.4824
 21
-29.2111
  0
LINE
  8
0
 10
-27.4824
 20
-29.2111
 11
-26.8192
 21
-29.8206
  0
LINE
  8
0
 10
-26.8192
 20
-29.8206
 11
-26.1784
 21
-30.3853
  0
LINE
  8
0
 10
-26.1784
 20
-30.3853
 11
-26.5851
 21
-31.5443
  0
LINE
  8
0
 10
-26.5851
 20
-31.5443
 11
-26.9097
 21
-32.7648
  0
LINE
  8
0
 10
-26.9097
 20
-32.7648
 11
-27.1575
 21
-34.0385
  0
LINE
  8
0
 10
-27.1575
 20
-34.0385
 11
-27.3307
 21
-35.3594
  0
LINE
  8
0
 10
-27.3307
 20
-35.3594
 11
-27.4307
 21
-36.7226
  0
LINE
  8
0
 10
-27.4307
 20
-36.7226
 11
-26.4487
 21
-37.4361
  0
LINE
  8
0
 10
-26.4487
 20
-37.4361
 11
-25.1832
 21
-36.9197
  0
LINE
  8
0
 10
-25.1832
 20
-36.9197
 11
-23.9804
 21
-36.3468
  0
LINE
  8
0
 10
-23.9804
 20
-36.3468
 11
-22.8456
 21
-35.7176
  0
LINE
  8
0
 10
-22.8456
 20
-35.7176
 11
-21.7851
 21
-35.0316
  0
LINE
  8
0
 10
-21.7851
 20
-35.0316
 11
-20.8085
 21
-34.2867
  0
LINE
  8
0
 10
-20.8085
 20
-34.2867
 11
-20.0331
 21
-34.7449
  0
LINE
  8
0
 10
-20.0331
 20
-34.7449
 11
-19.2889
 21
-35.1641
  0
LINE
  8
0
 10
-19.2889
 20
-35.1641
 11
-19.4457
 21
-36.3823
  0
LINE
  8
0
 10
-19.4457
 20
-36.3823
 11
-19.5095
 21
-37.6436
  0
LINE
  8
0
 10
-19.5095
 20
-37.6436
 11
-19.487
 21
-38.941
  0
LINE
  8
0
 10
-19.487
 20
-38.941
 11
-19.3819
 21
-40.2691
  0
LINE
  8
0
 10
-19.3819
 20
-40.2691
 11
-19.1962
 21
-41.6233
  0
LINE
  8
0
 10
-19.1962
 20
-41.6233
 11
-18.0874
 21
-42.117
  0
LINE
  8
0
 10
-18.0874
 20
-42.117
 11
-16.9568
 21
-41.3488
  0
LINE
  8
0
 10
-16.9568
 20
-41.3488
 11
-15.8994
 21
-40.5383
  0
LINE
  8
0
 10
-15.8994
 20
-40.5383
 11
-14.9202
 21
-39.6869
  0
LINE
  8
0
 10
-14.9202
 20
-39.6869
 11
-14.0256
 21
-38.7955
  0
LINE
  8
0
 10
-14.0256
 20
-38.7955
 11
-13.2252
 21
-37.8638
  0
LINE
  8
0
 10
-13.2252
 20
-37.8638
 11
-12.3714
 21
-38.1508
  0
LINE
  8
0
 10
-12.3714
 20
-38.1508
 11
-11.5564
 21
-38.4061
  0
LINE
  8
0
 10
-11.5564
 20
-38.4061
 11
-11.4565
 21
-39.6302
  0
LINE
  8
0
 10
-11.4565
 20
-39.6302
 11
-11.2567
 21
-40.8773
  0
LINE
  8
0
 10
-11.2567
 20
-40.8773
 11
-10.9649
 21
-42.1416
  0
LINE
  8
0
 10
-10.9649
 20
-42.1416
 11
-10.5859
 21
-43.4189
  0
LINE
  8
0
 10
-10.5859
 20
-43.4189
 11
-10.1227
 21
-44.7049
  0
LINE
  8
0
 10
-10.1227
 20
-44.7049
 11
-8.93552
 21
-44.9572
  0
LINE
  8
0
 10
-8.93552
 20
-44.9572
 11
-7.98933
 21
-43.9708
  0
LINE
  8
0
 10
-7.98933
 20
-43.9708
 11
-7.12361
 21
-42.9581
  0
LINE
  8
0
 10
-7.12361
 20
-42.9581
 11
-6.3428
 21
-41.9217
  0
LINE
  8
0
 10
-6.3428
 20
-41.9217
 11
-5.65306
 21
-40.8638
  0
LINE
  8
0
 10
-5.65306
 20
-40.8638
 11
-5.06389
 21
-39.7861
  0
LINE
  8
0
 10
-5.06389
 20
-39.7861
 11
-4.16907
 21
-39.8893
  0
LINE
  8
0
 10
-4.16907
 20
-39.8893
 11
-3.31876
 21
-39.9695
  0
LINE
  8
0
 10
-3.31876
 20
-39.9695
 11
-2.96652
 21
-41.1461
  0
LINE
  8
0
 10
-2.96652
 20
-41.1461
 11
-2.51181
 21
-42.3244
  0
LINE
  8
0
 10
-2.51181
 20
-42.3244
 11
-1.96355
 21
-43.5005
  0
LINE
  8
0
 10
-1.96355
 20
-43.5005
 11
-1.32729
 21
-44.671
  0
LINE
  8
0
 10
-1.32729
 20
-44.671
 11
-0.606873
 21
-45.8326
  0
LINE
  8
0
 10
-0.606873
 20
-45.8326
 11
0.606857
 21
-45.8326
  0
LINE
  8
0
 10
0.606857
 20
-45.8326
 11
1.32727
 21
-44.671
  0
LINE
  8
0
 10
-1.54507
 20
-4.75528
 11
-2.93892
 21
-4.04507
  0
LINE
  8
0
 10
-2.93892
 20
-4.04507
 11
-4.04507
 21
-2.93892
  0
LINE
  8
0
 10
-4.04507
 20
-2.93892
 11
-4.75528
 21
-1.54507
  0
LINE
  8
0
 10
-4.75528
 20
-1.54507
 11
-5
 21
0
  0
LINE
  8
0
 10
-5
 20
0
 11
-4.75528
 21
1.54507
  0
LINE
  8
0
 10
-4.75528
 20
1.54507
 11
-4.04507
 21
2.93892
  0
LINE
  8
0
 10
-4.04507
 20
2.93892
 11
-2.93892
 21
4.04507
  0
LINE
  8
0
 10
-2.93892
 20
4.04507
 11
-1.54507
 21
4.75528
  0
LINE
  8
0
 10
-1.54507
 20
4.75528
 11
0
 21
5
  0
LINE
  8
0
 10
0
 20
5
 11
1.54507
 21
4.75528
  0
LINE
  8
0
 10
1.54507
 20
4.75528
 11
2.93892
 21
4.04507
  0
LINE
  8
0
 10
2.93892
 20
4.04507
 11
4.04507
 21
2.93892
  0
LINE
  8
0
 10
4.04507
 20
2.93892
 11
4.75528
 21
1.54507
  0
LINE
  8
0
 10
4.75528
 20
1.54507
 11
5
 21
0
  0
LINE
  8
0
 10
5
 20
0
 11
4.75528
 21
-1.54507
  0
LINE
  8
0
 10
4.75528
 20
-1.54507
 11
4.04507
 21
-2.93892
  0
LINE
  8
0
 10
4.04507
 20
-2.93892
 11
2.93892
 21
-4.04507
  0
LINE
  8
0
 10
2.93892
 20
-4.04507
 11
1.54507
 21
-4.75528
  0
LINE
  8
0
 10
1.54507
 20
-4.75528
 11
0
 21
-5
  0
LINE
  8
0
 10
0
 20
-5
 11
-1.54507
 21
-4.75528
  0
ENDSEC
  0
SECTION
  2
OBJECTS
  0
DICTIONARY
  0
ENDSEC
  0
EOF
