  0
SECTION
  2
BLOCKS
  0
ENDSEC
  0
SECTION
  2
ENTITIES
  0
LINE
  8
0
 10
78.679
 20
-66.1633
 11
79.3069
 21
-65.0012
  0
LINE
  8
0
 10
79.3069
 20
-65.0012
 11
79.8757
 21
-63.8348
  0
LINE
  8
0
 10
79.8757
 20
-63.8348
 11
80.3831
 21
-62.6655
  0
LINE
  8
0
 10
80.3831
 20
-62.6655
 11
80.8256
 21
-61.4948
  0
LINE
  8
0
 10
80.8256
 20
-61.4948
 11
81.6696
 21
-61.4409
  0
LINE
  8
0
 10
81.6696
 20
-61.4409
 11
82.4652
 21
-61.3801
  0
LINE
  8
0
 10
82.4652
 20
-61.3801
 11
83.0664
 21
-62.4778
  0
LINE
  8
0
 10
83.0664
 20
-62.4778
 11
83.7316
 21
-63.5652
  0
LINE
  8
0
 10
83.7316
 20
-63.5652
 11
84.4572
 21
-64.6411
  0
LINE
  8
0
 10
84.4572
 20
-64.6411
 11
85.2407
 21
-65.7044
  0
LINE
  8
0
 10
85.2407
 20
-65.7044
 11
86.0799
 21
-66.754
  0
LINE
  8
0
 10
86.0799
 20
-66.754
 11
87.3568
 21
-66.5746
  0
LINE
  8
0
 10
87.3568
 20
-66.5746
 11
87.8742
 21
-65.3343
  0
LINE
  8
0
 10
87.8742
 20
-65.3343
 11
88.3343
 21
-64.0962
  0
LINE
  8
0
 10
88.3343
 20
-64.0962
 11
88.7352
 21
-62.862
  0
LINE
  8
0
 10
88.7352
 20
-62.862
 11
89.0749
 21
-61.6334
  0
LINE
  8
0
 10
89.0749
 20
-61.6334
 11
89.3502
 21
-60.4125
  0
LINE
  8
0
 10
89.3502
 20
-60.4125
 11
90.1785
 21
-60.2417
  0
LINE
  8
0
 10
90.1785
 20
-60.2417
 11
90.9579
 21
-60.0708
  0
LINE
  8
0
 10
90.9579
 20
-60.0708
 11
91.706
 21
-61.0741
  0
LINE
  8
0
 10
91.706
 20
-61.0741
 11
92.516
 21
-62.0583
  0
LINE
  8
0
 10
92.516
 20
-62.0583
 11
93.3843
 21
-63.0228
  0
LINE
  8
0
 10
93.3843
 20
-63.0228
 11
94.3082
 21
-63.9667
  0
LINE
  8
0
 10
94.3082
 20
-63.9667
 11
95.2853
 21
-64.8893
  0
LINE
  8
0
 10
95.2853
 20
-64.8893
 11
96.5248
 21
-64.5339
  0
LINE
  8
0
 10
96.5248
 20
-64.5339
 11
96.8646
 21
-63.2337
  0
LINE
  8
0
 10
96.8646
 20
-63.2337
 11
97.1478
 21
-61.9436
  0
LINE
  8
0
 10
97.1478
 20
-61.9436
 11
97.3731
 21
-60.6656
  0
LINE
  8
0
 10
97.3731
 20
-60.6656
 11
97.5385
 21
-59.4017
  0
LINE
  8
0
 10
97.5385
 20
-59.4017
 11
97.6412
 21
-58.1544
  0
LINE
  8
0
 10
97.6412
 20
-58.1544
 11
98.4377
 21
-57.87
  0
LINE
  8
0
 10
98.4377
 20
-57.87
 11
99.1857
 21
-57.5922
  0
LINE
  8
0
 10
99.1857
 20
-57.5922
 11
100.066
 21
-58.4817
  0
LINE
  8
0
 10
100.066
 20
-58.4817
 11
101.005
 21
-59.3436
  0
LINE
  8
0
 10
101.005
 20
-59.3436
 11
101.999
 21
-60.1778
  0
LINE
  8
0
 10
101.999
 20
-60.1778
 11
103.046
 21
-60.984
  0
LINE
  8
0
 10
103.046
 20
-60.984
 11
104.142
 21
-61.7616
  0
LINE
  8
0
 10
104.142
 20
-61.7616
 11
105.32
 21
-61.2372
  0
LINE
  8
0
 10
105.32
 20
-61.2372
 11
105.475
 21
-59.9023
  0
LINE
  8
0
 10
105.475
 20
-59.9023
 11
105.576
 21
-58.5854
  0
LINE
  8
0
 10
105.576
 20
-58.5854
 11
105.621
 21
-57.2884
  0
LINE
  8
0
 10
105.621
 20
-57.2884
 11
105.609
 21
-56.0138
  0
LINE
  8
0
 10
105.609
 20
-56.0138
 11
105.537
 21
-54.7643
  0
LINE
  8
0
 10
105.537
 20
-54.7643
 11
106.286
 21
-54.3719
  0
LINE
  8
0
 10
106.286
 20
-54.3719
 11
106.988
 21
-53.9927
  0
LINE
  8
0
 10
106.988
 20
-53.9927
 11
107.984
 21
-54.751
  0
LINE
  8
0
 10
107.984
 20
-54.751
 11
109.034
 21
-55.4738
  0
LINE
  8
0
 10
109.034
 20
-55.4738
 11
110.135
 21
-56.1615
  0
LINE
  8
0
 10
110.135
 20
-56.1615
 11
111.283
 21
-56.8143
  0
LINE
  8
0
 10
111.283
 20
-56.8143
 11
112.476
 21
-57.4317
  0
LINE
  8
0
 10
112.476
 20
-57.4317
 11
113.57
 21
-56.7485
  0
LINE
  8
0
 10
113.57
 20
-56.7485
 11
113.538
 21
-55.405
  0
LINE
  8
0
 10
113.538
 20
-55.405
 11
113.455
 21
-54.0868
  0
LINE
  8
0
 10
113.455
 20
-54.0868
 11
113.319
 21
-52.7962
  0
LINE
  8
0
 10
113.319
 20
-52.7962
 11
113.13
 21
-51.5357
  0
LINE
  8
0
 10
113.13
 20
-51.5357
 11
112.885
 21
-50.3084
  0
LINE
  8
0
 10
112.885
 20
-50.3084
 11
113.572
 21
-49.8155
  0
LINE
  8
0
 10
113.572
 20
-49.8155
 11
114.214
 21
-49.3423
  0
LINE
  8
0
 10
114.214
 20
-49.3423
 11
115.306
 21
-49.9546
  0
LINE
  8
0
 10
115.306
 20
-49.9546
 11
116.446
 21
-50.5242
  0
LINE
  8
0
 10
116.446
 20
-50.5242
 11
117.632
 21
-51.0522
  0
LINE
  8
0
 10
117.632
 20
-51.0522
 11
118.86
 21
-51.5387
  0
LINE
  8
0
 10
118.86
 20
-51.5387
 11
120.128
 21
-51.9841
  0
LINE
  8
0
 10
120.128
 20
-51.9841
 11
121.115
 21
-51.1553
  0
LINE
  8
0
 10
121.115
 20
-51.1553
 11
120.897
 21
-49.8293
  0
LINE
  8
0
 10
120.897
 20
-49.8293
 11
120.631
 21
-48.5355
  0
LINE
  8
0
 10
120.631
 20
-48.5355
 11
120.317
 21
-47.2763
  0
LINE
  8
0
 10
120.317
 20
-47.2763
 11
119.954
 21
-46.0545
  0
LINE
  8
0
 10
119.954
 20
-46.0545
 11
119.54
 21
-44.8732
  0
LINE
  8
0
 10
119.54
 20
-44.8732
 11
120.152
 21
-44.2894
  0
LINE
  8
0
 10
120.152
 20
-44.2894
 11
120.723
 21
-43.7314
  0
LINE
  8
0
 10
120.723
 20
-43.7314
 11
121.889
 21
-44.1859
  0
LINE
  8
0
 10
121.889
 20
-44.1859
 11
123.097
 21
-44.5913
  0
LINE
  8
0
 10
123.097
 20
-44.5913
 11
124.345
 21
-44.9491
  0
LINE
  8
0
 10
124.345
 20
-44.9491
 11
125.628
 21
-45.26
  0
LINE
  8
0
 10
125.628
 20
-45.26
 11
126.946
 21
-45.5246
  0
LINE
  8
0
 10
126.946
 20
-45.5246
 11
127.809
 21
-44.5664
  0
LINE
  8
0
 10
127.809
 20
-44.5664
 11
127.408
 21
-43.2837
  0
LINE
  8
0
 10
127.408
 20
-43.2837
 11
126.965
 21
-42.0395
  0
LINE
  8
0
 10
126.965
 20
-42.0395
 11
126.478
 21
-40.8363
  0
LINE
  8
0
 10
126.478
 20
-40.8363
 11
125.949
 21
-39.6769
  0
LINE
  8
0
 10
125.949
 20
-39.6769
 11
125.375
 21
-38.5646
  0
LINE
  8
0
 10
125.375
 20
-38.5646
 11
125.9
 21
-37.9014
  0
LINE
  8
0
 10
125.9
 20
-37.9014
 11
126.387
 21
-37.2694
  0
LINE
  8
0
 10
126.387
 20
-37.2694
 11
127.605
 21
-37.5572
  0
LINE
  8
0
 10
127.605
 20
-37.5572
 11
128.858
 21
-37.7905
  0
LINE
  8
0
 10
128.858
 20
-37.7905
 11
130.143
 21
-37.9711
  0
LINE
  8
0
 10
130.143
 20
-37.9711
 11
131.458
 21
-38.1004
  0
LINE
  8
0
 10
131.458
 20
-38.1004
 11
132.799
 21
-38.179
  0
LINE
  8
0
 10
132.799
 20
-38.179
 11
133.52
 21
-37.1101
  0
LINE
  8
0
 10
133.52
 20
-37.1101
 11
132.945
 21
-35.8956
  0
LINE
  8
0
 10
132.945
 20
-35.8956
 11
132.332
 21
-34.7253
  0
LINE
  8
0
 10
132.332
 20
-34.7253
 11
131.684
 21
-33.6015
  0
LINE
  8
0
 10
131.684
 20
-33.6015
 11
130.998
 21
-32.527
  0
LINE
  8
0
 10
130.998
 20
-32.527
 11
130.275
 21
-31.5054
  0
LINE
  8
0
 10
130.275
 20
-31.5054
 11
130.702
 21
-30.7756
  0
LINE
  8
0
 10
130.702
 20
-30.7756
 11
131.097
 21
-30.082
  0
LINE
  8
0
 10
131.097
 20
-30.082
 11
132.343
 21
-30.1974
  0
LINE
  8
0
 10
132.343
 20
-30.1974
 11
133.616
 21
-30.2541
  0
LINE
  8
0
 10
133.616
 20
-30.2541
 11
134.914
 21
-30.2541
  0
LINE
  8
0
 10
134.914
 20
-30.2541
 11
136.234
 21
-30.1992
  0
LINE
  8
0
 10
136.234
 20
-30.1992
 11
137.573
 21
-30.0903
  0
LINE
  8
0
 10
137.573
 20
-30.0903
 11
138.138
 21
-28.9315
  0
LINE
  8
0
 10
138.138
 20
-28.9315
 11
137.399
 21
-27.8089
  0
LINE
  8
0
 10
137.399
 20
-27.8089
 11
136.63
 21
-26.7352
  0
LINE
  8
0
 10
136.63
 20
-26.7352
 11
135.831
 21
-25.7126
  0
LINE
  8
0
 10
135.831
 20
-25.7126
 11
135.003
 21
-24.744
  0
LINE
  8
0
 10
135.003
 20
-24.744
 11
134.144
 21
-23.8331
  0
LINE
  8
0
 10
134.144
 20
-23.8331
 11
134.466
 21
-23.0509
  0
LINE
  8
0
 10
134.466
 20
-23.0509
 11
134.76
 21
-22.3091
  0
LINE
  8
0
 10
134.76
 20
-22.3091
 11
136.01
 21
-22.25
  0
LINE
  8
0
 10
136.01
 20
-22.25
 11
137.279
 21
-22.1288
  0
LINE
  8
0
 10
137.279
 20
-22.1288
 11
138.564
 21
-21.9483
  0
LINE
  8
0
 10
138.564
 20
-21.9483
 11
139.863
 21
-21.7102
  0
LINE
  8
0
 10
139.863
 20
-21.7102
 11
141.175
 21
-21.416
  0
LINE
  8
0
 10
141.175
 20
-21.416
 11
141.573
 21
-20.1897
  0
LINE
  8
0
 10
141.573
 20
-20.1897
 11
140.685
 21
-19.1809
  0
LINE
  8
0
 10
140.685
 20
-19.1809
 11
139.774
 21
-18.2247
  0
LINE
  8
0
 10
139.774
 20
-18.2247
 11
138.841
 21
-17.3233
  0
LINE
  8
0
 10
138.841
 20
-17.3233
 11
137.885
 21
-16.4794
  0
LINE
  8
0
 10
137.885
 20
-16.4794
 11
136.909
 21
-15.6968
  0
LINE
  8
0
 10
136.909
 20
-15.6968
 11
137.118
 21
-14.8774
  0
LINE
  8
0
 10
137.118
 20
-14.8774
 11
137.306
 21
-14.1019
  0
LINE
  8
0
 10
137.306
 20
-14.1019
 11
138.536
 21
-13.8694
  0
LINE
  8
0
 10
138.536
 20
-13.8694
 11
139.776
 21
-13.5728
  0
LINE
  8
0
 10
139.776
 20
-13.5728
 11
141.023
 21
-13.2152
  0
LINE
  8
0
 10
141.023
 20
-13.2152
 11
142.276
 21
-12.7986
  0
LINE
  8
0
 10
142.276
 20
-12.7986
 11
143.534
 21
-12.3248
  0
LINE
  8
0
 10
143.534
 20
-12.3248
 11
143.758
 21
-11.055
  0
LINE
  8
0
 10
143.758
 20
-11.055
 11
142.738
 21
-10.1796
  0
LINE
  8
0
 10
142.738
 20
-10.1796
 11
141.703
 21
-9.35948
  0
LINE
  8
0
 10
141.703
 20
-9.35948
 11
140.653
 21
-8.59674
  0
LINE
  8
0
 10
140.653
 20
-8.59674
 11
139.59
 21
-7.89407
  0
LINE
  8
0
 10
139.59
 20
-7.89407
 11
138.513
 21
-7.25496
  0
LINE
  8
0
 10
138.513
 20
-7.25496
 11
138.607
 21
-6.41443
  0
LINE
  8
0
 10
138.607
 20
-6.41443
 11
138.685
 21
-5.62032
  0
LINE
  8
0
 10
138.685
 20
-5.62032
 11
139.871
 21
-5.21889
  0
LINE
  8
0
 10
139.871
 20
-5.21889
 11
141.057
 21
-4.75269
  0
LINE
  8
0
 10
141.057
 20
-4.75269
 11
142.243
 21
-4.2249
  0
LINE
  8
0
 10
142.243
 20
-4.2249
 11
143.426
 21
-3.63795
  0
LINE
  8
0
 10
143.426
 20
-3.63795
 11
144.605
 21
-2.9937
  0
LINE
  8
0
 10
144.605
 20
-2.9937
 11
144.65
 21
-1.70512
  0
LINE
  8
0
 10
144.65
 20
-1.70512
 11
143.519
 21
-0.980148
  0
LINE
  8
0
 10
143.519
 20
-0.980148
 11
142.379
 21
-0.312103
  0
LINE
  8
0
 10
142.379
 20
-0.312103
 11
141.233
 21
0.297073
  0
LINE
  8
0
 10
141.233
 20
0.297073
 11
140.082
 21
0.84491
  0
LINE
  8
0
 10
140.082
 20
0.84491
 11
138.928
 21
1.32803
  0
LINE
  8
0
 10
138.928
 20
1.32803
 11
138.904
 21
2.17342
  0
LINE
  8
0
 10
138.904
 20
2.17342
 11
138.871
 21
2.97069
  0
LINE
  8
0
 10
138.871
 20
2.97069
 11
139.989
 21
3.53319
  0
LINE
  8
0
 10
139.989
 20
3.53319
 11
141.098
 21
4.15996
  0
LINE
  8
0
 10
141.098
 20
4.15996
 11
142.199
 21
4.8476
  0
LINE
  8
0
 10
142.199
 20
4.8476
 11
143.289
 21
5.59351
  0
LINE
  8
0
 10
143.289
 20
5.59351
 11
144.367
 21
6.39565
  0
LINE
  8
0
 10
144.367
 20
6.39565
 11
144.233
 21
7.67795
  0
LINE
  8
0
 10
144.233
 20
7.67795
 11
143.011
 21
8.23836
  0
LINE
  8
0
 10
143.011
 20
8.23836
 11
141.79
 21
8.74135
  0
LINE
  8
0
 10
141.79
 20
8.74135
 11
140.57
 21
9.18513
  0
LINE
  8
0
 10
140.57
 20
9.18513
 11
139.354
 21
9.56746
  0
LINE
  8
0
 10
139.354
 20
9.56746
 11
138.144
 21
9.88521
  0
LINE
  8
0
 10
138.144
 20
9.88521
 11
138.002
 21
10.719
  0
LINE
  8
0
 10
138.002
 20
10.719
 11
137.858
 21
11.5039
  0
LINE
  8
0
 10
137.858
 20
11.5039
 11
138.887
 21
12.2165
  0
LINE
  8
0
 10
138.887
 20
12.2165
 11
139.899
 21
12.9917
  0
LINE
  8
0
 10
139.899
 20
12.9917
 11
140.893
 21
13.8258
  0
LINE
  8
0
 10
140.893
 20
13.8258
 11
141.869
 21
14.7161
  0
LINE
  8
0
 10
141.869
 20
14.7161
 11
142.825
 21
15.6605
  0
LINE
  8
0
 10
142.825
 20
15.6605
 11
142.513
 21
16.9116
  0
LINE
  8
0
 10
142.513
 20
16.9116
 11
141.226
 21
17.2965
  0
LINE
  8
0
 10
141.226
 20
17.2965
 11
139.946
 21
17.6247
  0
LINE
  8
0
 10
139.946
 20
17.6247
 11
138.677
 21
17.8944
  0
LINE
  8
0
 10
138.677
 20
17.8944
 11
137.419
 21
18.1038
  0
LINE
  8
0
 10
137.419
 20
18.1038
 11
136.176
 21
18.25
  0
LINE
  8
0
 10
136.176
 20
18.25
 11
135.92
 21
19.0559
  0
LINE
  8
0
 10
135.92
 20
19.0559
 11
135.669
 21
19.8132
  0
LINE
  8
0
 10
135.669
 20
19.8132
 11
136.588
 21
20.662
  0
LINE
  8
0
 10
136.588
 20
20.662
 11
137.482
 21
21.5705
  0
LINE
  8
0
 10
137.482
 20
21.5705
 11
138.351
 21
22.5348
  0
LINE
  8
0
 10
138.351
 20
22.5348
 11
139.193
 21
23.5523
  0
LINE
  8
0
 10
139.193
 20
23.5523
 11
140.008
 21
24.6206
  0
LINE
  8
0
 10
140.008
 20
24.6206
 11
139.525
 21
25.816
  0
LINE
  8
0
 10
139.525
 20
25.816
 11
138.197
 21
26.0181
  0
LINE
  8
0
 10
138.197
 20
26.0181
 11
136.884
 21
26.1649
  0
LINE
  8
0
 10
136.884
 20
26.1649
 11
135.589
 21
26.2554
  0
LINE
  8
0
 10
135.589
 20
26.2554
 11
134.315
 21
26.2877
  0
LINE
  8
0
 10
134.315
 20
26.2877
 11
133.064
 21
26.2595
  0
LINE
  8
0
 10
133.064
 20
26.2595
 11
132.698
 21
27.0219
  0
LINE
  8
0
 10
132.698
 20
27.0219
 11
132.343
 21
27.7368
  0
LINE
  8
0
 10
132.343
 20
27.7368
 11
133.136
 21
28.7054
  0
LINE
  8
0
 10
133.136
 20
28.7054
 11
133.895
 21
29.7294
  0
LINE
  8
0
 10
133.895
 20
29.7294
 11
134.621
 21
30.8053
  0
LINE
  8
0
 10
134.621
 20
30.8053
 11
135.313
 21
31.9301
  0
LINE
  8
0
 10
135.313
 20
31.9301
 11
135.972
 21
33.1014
  0
LINE
  8
0
 10
135.972
 20
33.1014
 11
135.327
 21
34.218
  0
LINE
  8
0
 10
135.327
 20
34.218
 11
133.984
 21
34.2332
  0
LINE
  8
0
 10
133.984
 20
34.2332
 11
132.663
 21
34.1959
  0
LINE
  8
0
 10
132.663
 20
34.1959
 11
131.369
 21
34.1053
  0
LINE
  8
0
 10
131.369
 20
34.1053
 11
130.102
 21
33.96
  0
LINE
  8
0
 10
130.102
 20
33.96
 11
128.867
 21
33.7579
  0
LINE
  8
0
 10
128.867
 20
33.7579
 11
128.399
 21
34.462
  0
LINE
  8
0
 10
128.399
 20
34.462
 11
127.948
 21
35.1206
  0
LINE
  8
0
 10
127.948
 20
35.1206
 11
128.598
 21
36.1901
  0
LINE
  8
0
 10
128.598
 20
36.1901
 11
129.207
 21
37.3098
  0
LINE
  8
0
 10
129.207
 20
37.3098
 11
129.776
 21
38.4762
  0
LINE
  8
0
 10
129.776
 20
38.4762
 11
130.305
 21
39.6863
  0
LINE
  8
0
 10
130.305
 20
39.6863
 11
130.795
 21
40.938
  0
LINE
  8
0
 10
130.795
 20
40.938
 11
130.001
 21
41.954
  0
LINE
  8
0
 10
130.001
 20
41.954
 11
128.668
 21
41.782
  0
LINE
  8
0
 10
128.668
 20
41.782
 11
127.366
 21
41.5614
  0
LINE
  8
0
 10
127.366
 20
41.5614
 11
126.096
 21
41.2915
  0
LINE
  8
0
 10
126.096
 20
41.2915
 11
124.863
 21
40.9713
  0
LINE
  8
0
 10
124.863
 20
40.9713
 11
123.668
 21
40.5993
  0
LINE
  8
0
 10
123.668
 20
40.5993
 11
123.106
 21
41.2313
  0
LINE
  8
0
 10
123.106
 20
41.2313
 11
122.568
 21
41.8208
  0
LINE
  8
0
 10
122.568
 20
41.8208
 11
123.063
 21
42.9704
  0
LINE
  8
0
 10
123.063
 20
42.9704
 11
123.51
 21
44.1639
  0
LINE
  8
0
 10
123.51
 20
44.1639
 11
123.911
 21
45.3981
  0
LINE
  8
0
 10
123.911
 20
45.3981
 11
124.267
 21
46.6702
  0
LINE
  8
0
 10
124.267
 20
46.6702
 11
124.577
 21
47.9777
  0
LINE
  8
0
 10
124.577
 20
47.9777
 11
123.65
 21
48.8734
  0
LINE
  8
0
 10
123.65
 20
48.8734
 11
122.354
 21
48.5175
  0
LINE
  8
0
 10
122.354
 20
48.5175
 11
121.095
 21
48.1178
  0
LINE
  8
0
 10
121.095
 20
48.1178
 11
119.875
 21
47.6739
  0
LINE
  8
0
 10
119.875
 20
47.6739
 11
118.698
 21
47.1852
  0
LINE
  8
0
 10
118.698
 20
47.1852
 11
117.567
 21
46.6505
  0
LINE
  8
0
 10
117.567
 20
46.6505
 11
116.922
 21
47.198
  0
LINE
  8
0
 10
116.922
 20
47.198
 11
116.307
 21
47.707
  0
LINE
  8
0
 10
116.307
 20
47.707
 11
116.637
 21
48.9142
  0
LINE
  8
0
 10
116.637
 20
48.9142
 11
116.914
 21
50.1584
  0
LINE
  8
0
 10
116.914
 20
50.1584
 11
117.14
 21
51.4364
  0
LINE
  8
0
 10
117.14
 20
51.4364
 11
117.315
 21
52.7456
  0
LINE
  8
0
 10
117.315
 20
52.7456
 11
117.44
 21
54.0836
  0
LINE
  8
0
 10
117.44
 20
54.0836
 11
116.397
 21
54.8415
  0
LINE
  8
0
 10
116.397
 20
54.8415
 11
115.163
 21
54.3088
  0
LINE
  8
0
 10
115.163
 20
54.3088
 11
113.972
 21
53.7377
  0
LINE
  8
0
 10
113.972
 20
53.7377
 11
112.827
 21
53.1284
  0
LINE
  8
0
 10
112.827
 20
53.1284
 11
111.729
 21
52.4806
  0
LINE
  8
0
 10
111.729
 20
52.4806
 11
110.683
 21
51.7936
  0
LINE
  8
0
 10
110.683
 20
51.7936
 11
109.968
 21
52.2462
  0
LINE
  8
0
 10
109.968
 20
52.2462
 11
109.289
 21
52.6646
  0
LINE
  8
0
 10
109.289
 20
52.6646
 11
109.448
 21
53.9061
  0
LINE
  8
0
 10
109.448
 20
53.9061
 11
109.549
 21
55.1767
  0
LINE
  8
0
 10
109.549
 20
55.1767
 11
109.594
 21
56.4736
  0
LINE
  8
0
 10
109.594
 20
56.4736
 11
109.585
 21
57.7944
  0
LINE
  8
0
 10
109.585
 20
57.7944
 11
109.523
 21
59.1369
  0
LINE
  8
0
 10
109.523
 20
59.1369
 11
108.385
 21
59.7422
  0
LINE
  8
0
 10
108.385
 20
59.7422
 11
107.237
 21
59.0429
  0
LINE
  8
0
 10
107.237
 20
59.0429
 11
106.137
 21
58.3117
  0
LINE
  8
0
 10
106.137
 20
58.3117
 11
105.087
 21
57.5489
  0
LINE
  8
0
 10
105.087
 20
57.5489
 11
104.09
 21
56.7546
  0
LINE
  8
0
 10
104.09
 20
56.7546
 11
103.15
 21
55.9287
  0
LINE
  8
0
 10
103.15
 20
55.9287
 11
102.379
 21
56.2774
  0
LINE
  8
0
 10
102.379
 20
56.2774
 11
101.648
 21
56.5972
  0
LINE
  8
0
 10
101.648
 20
56.5972
 11
101.633
 21
57.8487
  0
LINE
  8
0
 10
101.633
 20
57.8487
 11
101.556
 21
59.121
  0
LINE
  8
0
 10
101.556
 20
59.121
 11
101.421
 21
60.4116
  0
LINE
  8
0
 10
101.421
 20
60.4116
 11
101.228
 21
61.7183
  0
LINE
  8
0
 10
101.228
 20
61.7183
 11
100.98
 21
63.0391
  0
LINE
  8
0
 10
100.98
 20
63.0391
 11
99.7681
 21
63.4801
  0
LINE
  8
0
 10
99.7681
 20
63.4801
 11
98.7289
 21
62.6279
  0
LINE
  8
0
 10
98.7289
 20
62.6279
 11
97.7415
 21
61.7507
  0
LINE
  8
0
 10
97.7415
 20
61.7507
 11
96.808
 21
60.8492
  0
LINE
  8
0
 10
96.808
 20
60.8492
 11
95.9314
 21
59.9239
  0
LINE
  8
0
 10
95.9314
 20
59.9239
 11
95.1151
 21
58.9752
  0
LINE
  8
0
 10
95.1151
 20
58.9752
 11
94.3036
 21
59.2132
  0
LINE
  8
0
 10
94.3036
 20
59.2132
 11
93.5351
 21
59.4282
  0
LINE
  8
0
 10
93.5351
 20
59.4282
 11
93.3456
 21
60.6653
  0
LINE
  8
0
 10
93.3456
 20
60.6653
 11
93.0925
 21
61.9146
  0
LINE
  8
0
 10
93.0925
 20
61.9146
 11
92.7786
 21
63.1738
  0
LINE
  8
0
 10
92.7786
 20
63.1738
 11
92.4061
 21
64.441
  0
LINE
  8
0
 10
92.4061
 20
64.441
 11
91.9764
 21
65.7143
  0
LINE
  8
0
 10
91.9764
 20
65.7143
 11
90.7152
 21
65.9824
  0
LINE
  8
0
 10
90.7152
 20
65.9824
 11
89.8048
 21
64.9939
  0
LINE
  8
0
 10
89.8048
 20
64.9939
 11
88.949
 21
63.9878
  0
LINE
  8
0
 10
88.949
 20
63.9878
 11
88.1501
 21
62.9651
  0
LINE
  8
0
 10
88.1501
 20
62.9651
 11
87.4107
 21
61.9268
  0
LINE
  8
0
 10
87.4107
 20
61.9268
 11
86.7345
 21
60.8737
  0
LINE
  8
0
 10
86.7345
 20
60.8737
 11
85.8977
 21
60.9966
  0
LINE
  8
0
 10
85.8977
 20
60.9966
 11
85.1068
 21
61.1025
  0
LINE
  8
0
 10
85.1068
 20
61.1025
 11
84.747
 21
62.3012
  0
LINE
  8
0
 10
84.747
 20
62.3012
 11
84.3225
 21
63.5031
  0
LINE
  8
0
 10
84.3225
 20
63.5031
 11
83.8364
 21
64.7063
  0
LINE
  8
0
 10
83.8364
 20
64.7063
 11
83.2911
 21
65.9093
  0
LINE
  8
0
 10
83.2911
 20
65.9093
 11
82.6884
 21
67.1105
  0
LINE
  8
0
 10
82.6884
 20
67.1105
 11
81.4022
 21
67.2004
  0
LINE
  8
0
 10
81.4022
 20
67.2004
 11
80.6381
 21
66.0948
  0
LINE
  8
0
 10
80.6381
 20
66.0948
 11
79.9307
 21
64.9794
  0
LINE
  8
0
 10
79.9307
 20
64.9794
 11
79.2819
 21
63.8555
  0
LINE
  8
0
 10
79.2819
 20
63.8555
 11
78.6943
 21
62.7245
  0
LINE
  8
0
 10
78.6943
 20
62.7245
 11
78.1711
 21
61.5875
  0
LINE
  8
0
 10
78.1711
 20
61.5875
 11
77.3254
 21
61.5926
  0
LINE
  8
0
 10
77.3254
 20
61.5926
 11
76.5275
 21
61.5875
  0
LINE
  8
0
 10
76.5275
 20
61.5875
 11
76.0043
 21
62.7244
  0
LINE
  8
0
 10
76.0043
 20
62.7244
 11
75.4167
 21
63.8555
  0
LINE
  8
0
 10
75.4167
 20
63.8555
 11
74.7679
 21
64.9794
  0
LINE
  8
0
 10
74.7679
 20
64.9794
 11
74.0605
 21
66.0948
  0
LINE
  8
0
 10
74.0605
 20
66.0948
 11
73.2964
 21
67.2004
  0
LINE
  8
0
 10
73.2964
 20
67.2004
 11
72.0102
 21
67.1105
  0
LINE
  8
0
 10
72.0102
 20
67.1105
 11
71.4075
 21
65.9093
  0
LINE
  8
0
 10
71.4075
 20
65.9093
 11
70.8622
 21
64.7063
  0
LINE
  8
0
 10
70.8622
 20
64.7063
 11
70.3761
 21
63.5031
  0
LINE
  8
0
 10
70.3761
 20
63.5031
 11
69.9516
 21
62.3012
  0
LINE
  8
0
 10
69.9516
 20
62.3012
 11
69.5918
 21
61.1025
  0
LINE
  8
0
 10
69.5918
 20
61.1025
 11
68.7536
 21
60.9899
  0
LINE
  8
0
 10
68.7536
 20
60.9899
 11
67.9642
 21
60.8737
  0
LINE
  8
0
 10
67.9642
 20
60.8737
 11
67.2879
 21
61.9268
  0
LINE
  8
0
 10
67.2879
 20
61.9268
 11
66.5485
 21
62.9651
  0
LINE
  8
0
 10
66.5485
 20
62.9651
 11
65.7496
 21
63.9878
  0
LINE
  8
0
 10
65.7496
 20
63.9878
 11
64.8938
 21
64.9939
  0
LINE
  8
0
 10
64.8938
 20
64.9939
 11
63.9834
 21
65.9824
  0
LINE
  8
0
 10
63.9834
 20
65.9824
 11
62.7222
 21
65.7143
  0
LINE
  8
0
 10
62.7222
 20
65.7143
 11
62.2925
 21
64.441
  0
LINE
  8
0
 10
62.2925
 20
64.441
 11
61.92
 21
63.1738
  0
LINE
  8
0
 10
61.92
 20
63.1738
 11
61.6061
 21
61.9146
  0
LINE
  8
0
 10
61.6061
 20
61.9146
 11
61.353
 21
60.6653
  0
LINE
  8
0
 10
61.353
 20
60.6653
 11
61.1635
 21
59.4282
  0
LINE
  8
0
 10
61.1635
 20
59.4282
 11
60.3491
 21
59.2001
  0
LINE
  8
0
 10
60.3491
 20
59.2001
 11
59.5835
 21
58.9752
  0
LINE
  8
0
 10
59.5835
 20
58.9752
 11
58.7672
 21
59.9239
  0
LINE
  8
0
 10
58.7672
 20
59.9239
 11
57.8906
 21
60.8492
  0
LINE
  8
0
 10
57.8906
 20
60.8492
 11
56.9571
 21
61.7507
  0
LINE
  8
0
 10
56.9571
 20
61.7507
 11
55.9697
 21
62.6279
  0
LINE
  8
0
 10
55.9697
 20
62.6279
 11
54.9305
 21
63.4801
  0
LINE
  8
0
 10
54.9305
 20
63.4801
 11
53.7189
 21
63.0391
  0
LINE
  8
0
 10
53.7189
 20
63.0391
 11
53.4706
 21
61.7183
  0
LINE
  8
0
 10
53.4706
 20
61.7183
 11
53.278
 21
60.4116
  0
LINE
  8
0
 10
53.278
 20
60.4116
 11
53.1424
 21
59.121
  0
LINE
  8
0
 10
53.1424
 20
59.121
 11
53.0656
 21
57.8487
  0
LINE
  8
0
 10
53.0656
 20
57.8487
 11
53.0502
 21
56.5972
  0
LINE
  8
0
 10
53.0502
 20
56.5972
 11
52.2755
 21
56.258
  0
LINE
  8
0
 10
52.2755
 20
56.258
 11
51.5486
 21
55.9287
  0
LINE
  8
0
 10
51.5486
 20
55.9287
 11
50.6083
 21
56.7546
  0
LINE
  8
0
 10
50.6083
 20
56.7546
 11
49.6114
 21
57.5489
  0
LINE
  8
0
 10
49.6114
 20
57.5489
 11
48.5615
 21
58.3117
  0
LINE
  8
0
 10
48.5615
 20
58.3117
 11
47.4616
 21
59.0429
  0
LINE
  8
0
 10
47.4616
 20
59.0429
 11
46.3139
 21
59.7422
  0
LINE
  8
0
 10
46.3139
 20
59.7422
 11
45.1755
 21
59.1369
  0
LINE
  8
0
 10
45.1755
 20
59.1369
 11
45.1135
 21
57.7944
  0
LINE
  8
0
 10
45.1135
 20
57.7944
 11
45.1046
 21
56.4736
  0
LINE
  8
0
 10
45.1046
 20
56.4736
 11
45.15
 21
55.1767
  0
LINE
  8
0
 10
45.15
 20
55.1767
 11
45.251
 21
53.9061
  0
LINE
  8
0
 10
45.251
 20
53.9061
 11
45.4099
 21
52.6646
  0
LINE
  8
0
 10
45.4099
 20
52.6646
 11
44.6899
 21
52.2209
  0
LINE
  8
0
 10
44.6899
 20
52.2209
 11
44.016
 21
51.7936
  0
LINE
  8
0
 10
44.016
 20
51.7936
 11
42.9698
 21
52.4806
  0
LINE
  8
0
 10
42.9698
 20
52.4806
 11
41.8721
 21
53.1284
  0
LINE
  8
0
 10
41.8721
 20
53.1284
 11
40.7263
 21
53.7377
  0
LINE
  8
0
 10
40.7263
 20
53.7377
 11
39.5353
 21
54.3088
  0
LINE
  8
0
 10
39.5353
 20
54.3088
 11
38.3015
 21
54.8415
  0
LINE
  8
0
 10
38.3015
 20
54.8415
 11
37.2584
 21
54.0836
  0
LINE
  8
0
 10
37.2584
 20
54.0836
 11
37.3838
 21
52.7456
  0
LINE
  8
0
 10
37.3838
 20
52.7456
 11
37.5588
 21
51.4364
  0
LINE
  8
0
 10
37.5588
 20
51.4364
 11
37.7842
 21
50.1584
  0
LINE
  8
0
 10
37.7842
 20
50.1584
 11
38.0611
 21
48.9142
  0
LINE
  8
0
 10
38.0611
 20
48.9142
 11
38.3912
 21
47.707
  0
LINE
  8
0
 10
38.3912
 20
47.707
 11
37.74
 21
47.1673
  0
LINE
  8
0
 10
37.74
 20
47.1673
 11
37.1321
 21
46.6505
  0
LINE
  8
0
 10
37.1321
 20
46.6505
 11
36.0005
 21
47.1852
  0
LINE
  8
0
 10
36.0005
 20
47.1852
 11
34.8233
 21
47.6739
  0
LINE
  8
0
 10
34.8233
 20
47.6739
 11
33.6038
 21
48.1178
  0
LINE
  8
0
 10
33.6038
 20
48.1178
 11
32.345
 21
48.5175
  0
LINE
  8
0
 10
32.345
 20
48.5175
 11
31.049
 21
48.8734
  0
LINE
  8
0
 10
31.049
 20
48.8734
 11
30.1215
 21
47.9777
  0
LINE
  8
0
 10
30.1215
 20
47.9777
 11
30.4319
 21
46.6702
  0
LINE
  8
0
 10
30.4319
 20
46.6702
 11
30.7875
 21
45.3981
  0
LINE
  8
0
 10
30.7875
 20
45.3981
 11
31.1886
 21
44.1639
  0
LINE
  8
0
 10
31.1886
 20
44.1639
 11
31.6359
 21
42.9704
  0
LINE
  8
0
 10
31.6359
 20
42.9704
 11
32.1308
 21
41.8208
  0
LINE
  8
0
 10
32.1308
 20
41.8208
 11
31.5611
 21
41.1958
  0
LINE
  8
0
 10
31.5611
 20
41.1958
 11
31.031
 21
40.5993
  0
LINE
  8
0
 10
31.031
 20
40.5993
 11
29.836
 21
40.9713
  0
LINE
  8
0
 10
29.836
 20
40.9713
 11
28.6022
 21
41.2915
  0
LINE
  8
0
 10
28.6022
 20
41.2915
 11
27.3328
 21
41.5614
  0
LINE
  8
0
 10
27.3328
 20
41.5614
 11
26.0306
 21
41.782
  0
LINE
  8
0
 10
26.0306
 20
41.782
 11
24.6978
 21
41.954
  0
LINE
  8
0
 10
24.6978
 20
41.954
 11
23.9039
 21
40.938
  0
LINE
  8
0
 10
23.9039
 20
40.938
 11
24.3933
 21
39.6863
  0
LINE
  8
0
 10
24.3933
 20
39.6863
 11
24.9224
 21
38.4762
  0
LINE
  8
0
 10
24.9224
 20
38.4762
 11
25.4914
 21
37.3098
  0
LINE
  8
0
 10
25.4914
 20
37.3098
 11
26.1005
 21
36.1901
  0
LINE
  8
0
 10
26.1005
 20
36.1901
 11
26.7505
 21
35.1206
  0
LINE
  8
0
 10
26.7505
 20
35.1206
 11
26.2733
 21
34.4224
  0
LINE
  8
0
 10
26.2733
 20
34.4224
 11
25.8314
 21
33.7579
  0
LINE
  8
0
 10
25.8314
 20
33.7579
 11
24.5963
 21
33.96
  0
LINE
  8
0
 10
24.5963
 20
33.96
 11
23.3299
 21
34.1053
  0
LINE
  8
0
 10
23.3299
 20
34.1053
 11
22.0354
 21
34.1959
  0
LINE
  8
0
 10
22.0354
 20
34.1959
 11
20.7151
 21
34.2332
  0
LINE
  8
0
 10
20.7151
 20
34.2332
 11
19.3713
 21
34.218
  0
LINE
  8
0
 10
19.3713
 20
34.218
 11
18.7266
 21
33.1014
  0
LINE
  8
0
 10
18.7266
 20
33.1014
 11
19.3854
 21
31.9301
  0
LINE
  8
0
 10
19.3854
 20
31.9301
 11
20.0778
 21
30.8053
  0
LINE
  8
0
 10
20.0778
 20
30.8053
 11
20.8035
 21
29.7294
  0
LINE
  8
0
 10
20.8035
 20
29.7294
 11
21.5625
 21
28.7054
  0
LINE
  8
0
 10
21.5625
 20
28.7054
 11
22.3551
 21
27.7368
  0
LINE
  8
0
 10
22.3551
 20
27.7368
 11
21.9797
 21
26.979
  0
LINE
  8
0
 10
21.9797
 20
26.979
 11
21.6346
 21
26.2595
  0
LINE
  8
0
 10
21.6346
 20
26.2595
 11
20.3833
 21
26.2877
  0
LINE
  8
0
 10
20.3833
 20
26.2877
 11
19.1091
 21
26.2554
  0
LINE
  8
0
 10
19.1091
 20
26.2554
 11
17.8145
 21
26.1649
  0
LINE
  8
0
 10
17.8145
 20
26.1649
 11
16.5019
 21
26.0181
  0
LINE
  8
0
 10
16.5019
 20
26.0181
 11
15.1733
 21
25.816
  0
LINE
  8
0
 10
15.1733
 20
25.816
 11
14.6903
 21
24.6206
  0
LINE
  8
0
 10
14.6903
 20
24.6206
 11
15.5057
 21
23.5523
  0
LINE
  8
0
 10
15.5057
 20
23.5523
 11
16.3479
 21
22.5348
  0
LINE
  8
0
 10
16.3479
 20
22.5348
 11
17.2163
 21
21.5705
  0
LINE
  8
0
 10
17.2163
 20
21.5705
 11
18.1104
 21
20.662
  0
LINE
  8
0
 10
18.1104
 20
20.662
 11
19.0301
 21
19.8132
  0
LINE
  8
0
 10
19.0301
 20
19.8132
 11
18.7638
 21
19.0105
  0
LINE
  8
0
 10
18.7638
 20
19.0105
 11
18.5222
 21
18.25
  0
LINE
  8
0
 10
18.5222
 20
18.25
 11
17.2792
 21
18.1038
  0
LINE
  8
0
 10
17.2792
 20
18.1038
 11
16.0219
 21
17.8944
  0
LINE
  8
0
 10
16.0219
 20
17.8944
 11
14.7525
 21
17.6247
  0
LINE
  8
0
 10
14.7525
 20
17.6247
 11
13.4731
 21
17.2966
  0
LINE
  8
0
 10
13.4731
 20
17.2966
 11
12.1855
 21
16.9116
  0
LINE
  8
0
 10
12.1855
 20
16.9116
 11
11.8736
 21
15.6605
  0
LINE
  8
0
 10
11.8736
 20
15.6605
 11
12.8297
 21
14.7161
  0
LINE
  8
0
 10
12.8297
 20
14.7161
 11
13.8053
 21
13.8258
  0
LINE
  8
0
 10
13.8053
 20
13.8258
 11
14.7995
 21
12.9917
  0
LINE
  8
0
 10
14.7995
 20
12.9917
 11
15.8113
 21
12.2165
  0
LINE
  8
0
 10
15.8113
 20
12.2165
 11
16.8402
 21
11.5039
  0
LINE
  8
0
 10
16.8402
 20
11.5039
 11
16.6882
 21
10.6719
  0
LINE
  8
0
 10
16.6882
 20
10.6719
 11
16.5548
 21
9.88521
  0
LINE
  8
0
 10
16.5548
 20
9.88521
 11
15.3442
 21
9.56746
  0
LINE
  8
0
 10
15.3442
 20
9.56746
 11
14.1283
 21
9.18513
  0
LINE
  8
0
 10
14.1283
 20
9.18513
 11
12.9088
 21
8.74135
  0
LINE
  8
0
 10
12.9088
 20
8.74135
 11
11.6875
 21
8.23836
  0
LINE
  8
0
 10
11.6875
 20
8.23836
 11
10.466
 21
7.67795
  0
LINE
  8
0
 10
10.466
 20
7.67795
 11
10.3313
 21
6.39565
  0
LINE
  8
0
 10
10.3313
 20
6.39565
 11
11.4095
 21
5.59351
  0
LINE
  8
0
 10
11.4095
 20
5.59351
 11
12.4995
 21
4.8476
  0
LINE
  8
0
 10
12.4995
 20
4.8476
 11
13.6001
 21
4.15996
  0
LINE
  8
0
 10
13.6001
 20
4.15996
 11
14.71
 21
3.53319
  0
LINE
  8
0
 10
14.71
 20
3.53319
 11
15.828
 21
2.97069
  0
LINE
  8
0
 10
15.828
 20
2.97069
 11
15.7933
 21
2.12569
  0
LINE
  8
0
 10
15.7933
 20
2.12569
 11
15.7707
 21
1.32803
  0
LINE
  8
0
 10
15.7707
 20
1.32803
 11
14.6161
 21
0.84491
  0
LINE
  8
0
 10
14.6161
 20
0.84491
 11
13.4652
 21
0.297073
  0
LINE
  8
0
 10
13.4652
 20
0.297073
 11
12.3193
 21
-0.312103
  0
LINE
  8
0
 10
12.3193
 20
-0.312103
 11
11.1799
 21
-0.980148
  0
LINE
  8
0
 10
11.1799
 20
-0.980148
 11
10.0484
 21
-1.70511
  0
LINE
  8
0
 10
10.0484
 20
-1.70511
 11
10.0934
 21
-2.9937
  0
LINE
  8
0
 10
10.0934
 20
-2.9937
 11
11.2728
 21
-3.63795
  0
LINE
  8
0
 10
11.2728
 20
-3.63795
 11
12.456
 21
-4.2249
  0
LINE
  8
0
 10
12.456
 20
-4.2249
 11
13.6415
 21
-4.75269
  0
LINE
  8
0
 10
13.6415
 20
-4.75269
 11
14.8279
 21
-5.21889
  0
LINE
  8
0
 10
14.8279
 20
-5.21889
 11
16.0133
 21
-5.62032
  0
LINE
  8
0
 10
16.0133
 20
-5.62032
 11
16.0966
 21
-6.46193
  0
LINE
  8
0
 10
16.0966
 20
-6.46193
 11
16.1851
 21
-7.25496
  0
LINE
  8
0
 10
16.1851
 20
-7.25496
 11
15.109
 21
-7.89407
  0
LINE
  8
0
 10
15.109
 20
-7.89407
 11
14.0456
 21
-8.59674
  0
LINE
  8
0
 10
14.0456
 20
-8.59674
 11
12.9956
 21
-9.35948
  0
LINE
  8
0
 10
12.9956
 20
-9.35948
 11
11.9603
 21
-10.1796
  0
LINE
  8
0
 10
11.9603
 20
-10.1796
 11
10.9406
 21
-11.055
  0
LINE
  8
0
 10
10.9406
 20
-11.055
 11
11.1645
 21
-12.3248
  0
LINE
  8
0
 10
11.1645
 20
-12.3248
 11
12.4221
 21
-12.7986
  0
LINE
  8
0
 10
12.4221
 20
-12.7986
 11
13.6755
 21
-13.2152
  0
LINE
  8
0
 10
13.6755
 20
-13.2152
 11
14.923
 21
-13.5728
  0
LINE
  8
0
 10
14.923
 20
-13.5728
 11
16.1627
 21
-13.8694
  0
LINE
  8
0
 10
16.1627
 20
-13.8694
 11
17.3924
 21
-14.1019
  0
LINE
  8
0
 10
17.3924
 20
-14.1019
 11
17.592
 21
-14.9238
  0
LINE
  8
0
 10
17.592
 20
-14.9238
 11
17.7901
 21
-15.6968
  0
LINE
  8
0
 10
17.7901
 20
-15.6968
 11
16.8134
 21
-16.4794
  0
LINE
  8
0
 10
16.8134
 20
-16.4794
 11
15.8581
 21
-17.3233
  0
LINE
  8
0
 10
15.8581
 20
-17.3233
 11
14.9245
 21
-18.2247
  0
LINE
  8
0
 10
14.9245
 20
-18.2247
 11
14.0134
 21
-19.1809
  0
LINE
  8
0
 10
14.0134
 20
-19.1809
 11
13.1255
 21
-20.1897
  0
LINE
  8
0
 10
13.1255
 20
-20.1897
 11
13.5239
 21
-21.416
  0
LINE
  8
0
 10
13.5239
 20
-21.416
 11
14.8352
 21
-21.7102
  0
LINE
  8
0
 10
14.8352
 20
-21.7102
 11
16.1344
 21
-21.9483
  0
LINE
  8
0
 10
16.1344
 20
-21.9483
 11
17.4195
 21
-22.1288
  0
LINE
  8
0
 10
17.4195
 20
-22.1288
 11
18.6884
 21
-22.25
  0
LINE
  8
0
 10
18.6884
 20
-22.25
 11
19.9385
 21
-22.3091
  0
LINE
  8
0
 10
19.9385
 20
-22.3091
 11
20.2505
 21
-23.0951
  0
LINE
  8
0
 10
20.2505
 20
-23.0951
 11
20.5542
 21
-23.8331
  0
LINE
  8
0
 10
20.5542
 20
-23.8331
 11
19.696
 21
-24.744
  0
LINE
  8
0
 10
19.696
 20
-24.744
 11
18.8674
 21
-25.7126
  0
LINE
  8
0
 10
18.8674
 20
-25.7126
 11
18.0684
 21
-26.7352
  0
LINE
  8
0
 10
18.0684
 20
-26.7352
 11
17.2993
 21
-27.8089
  0
LINE
  8
0
 10
17.2993
 20
-27.8089
 11
16.5604
 21
-28.9315
  0
LINE
  8
0
 10
16.5604
 20
-28.9315
 11
17.1256
 21
-30.0903
  0
LINE
  8
0
 10
17.1256
 20
-30.0903
 11
18.4651
 21
-30.1992
  0
LINE
  8
0
 10
18.4651
 20
-30.1992
 11
19.7847
 21
-30.2541
  0
LINE
  8
0
 10
19.7847
 20
-30.2541
 11
21.0825
 21
-30.2541
  0
LINE
  8
0
 10
21.0825
 20
-30.2541
 11
22.3559
 21
-30.1974
  0
LINE
  8
0
 10
22.3559
 20
-30.1974
 11
23.6021
 21
-30.082
  0
LINE
  8
0
 10
23.6021
 20
-30.082
 11
24.0204
 21
-30.817
  0
LINE
  8
0
 10
24.0204
 20
-30.817
 11
24.4239
 21
-31.5054
  0
LINE
  8
0
 10
24.4239
 20
-31.5054
 11
23.7008
 21
-32.527
  0
LINE
  8
0
 10
23.7008
 20
-32.527
 11
23.0151
 21
-33.6015
  0
LINE
  8
0
 10
23.0151
 20
-33.6015
 11
22.3661
 21
-34.7253
  0
LINE
  8
0
 10
22.3661
 20
-34.7253
 11
21.7539
 21
-35.8956
  0
LINE
  8
0
 10
21.7539
 20
-35.8956
 11
21.1785
 21
-37.1101
  0
LINE
  8
0
 10
21.1785
 20
-37.1101
 11
21.8995
 21
-38.179
  0
LINE
  8
0
 10
21.8995
 20
-38.179
 11
23.241
 21
-38.1004
  0
LINE
  8
0
 10
23.241
 20
-38.1004
 11
24.5555
 21
-37.9711
  0
LINE
  8
0
 10
24.5555
 20
-37.9711
 11
25.8406
 21
-37.7905
  0
LINE
  8
0
 10
25.8406
 20
-37.7905
 11
27.0937
 21
-37.5572
  0
LINE
  8
0
 10
27.0937
 20
-37.5572
 11
28.3117
 21
-37.2694
  0
LINE
  8
0
 10
28.3117
 20
-37.2694
 11
28.8283
 21
-37.939
  0
LINE
  8
0
 10
28.8283
 20
-37.939
 11
29.3237
 21
-38.5646
  0
LINE
  8
0
 10
29.3237
 20
-38.5646
 11
28.7498
 21
-39.6769
  0
LINE
  8
0
 10
28.7498
 20
-39.6769
 11
28.2203
 21
-40.8363
  0
LINE
  8
0
 10
28.2203
 20
-40.8363
 11
27.7341
 21
-42.0395
  0
LINE
  8
0
 10
27.7341
 20
-42.0395
 11
27.2907
 21
-43.2837
  0
LINE
  8
0
 10
27.2907
 20
-43.2837
 11
26.8898
 21
-44.5664
  0
LINE
  8
0
 10
26.8898
 20
-44.5664
 11
27.7526
 21
-45.5246
  0
LINE
  8
0
 10
27.7526
 20
-45.5246
 11
29.0702
 21
-45.26
  0
LINE
  8
0
 10
29.0702
 20
-45.26
 11
30.3539
 21
-44.9491
  0
LINE
  8
0
 10
30.3539
 20
-44.9491
 11
31.6013
 21
-44.5913
  0
LINE
  8
0
 10
31.6013
 20
-44.5913
 11
32.8098
 21
-44.1859
  0
LINE
  8
0
 10
32.8098
 20
-44.1859
 11
33.9759
 21
-43.7314
  0
LINE
  8
0
 10
33.9759
 20
-43.7314
 11
34.5806
 21
-44.3226
  0
LINE
  8
0
 10
34.5806
 20
-44.3226
 11
35.1582
 21
-44.8732
  0
LINE
  8
0
 10
35.1582
 20
-44.8732
 11
34.7447
 21
-46.0545
  0
LINE
  8
0
 10
34.7447
 20
-46.0545
 11
34.3817
 21
-47.2763
  0
LINE
  8
0
 10
34.3817
 20
-47.2763
 11
34.0677
 21
-48.5355
  0
LINE
  8
0
 10
34.0677
 20
-48.5355
 11
33.8018
 21
-49.8293
  0
LINE
  8
0
 10
33.8018
 20
-49.8293
 11
33.5833
 21
-51.1553
  0
LINE
  8
0
 10
33.5833
 20
-51.1553
 11
34.571
 21
-51.9841
  0
LINE
  8
0
 10
34.571
 20
-51.9841
 11
35.839
 21
-51.5387
  0
LINE
  8
0
 10
35.839
 20
-51.5387
 11
37.0669
 21
-51.0522
  0
LINE
  8
0
 10
37.0669
 20
-51.0522
 11
38.2524
 21
-50.5242
  0
LINE
  8
0
 10
38.2524
 20
-50.5242
 11
39.3927
 21
-49.9546
  0
LINE
  8
0
 10
39.3927
 20
-49.9546
 11
40.4842
 21
-49.3423
  0
LINE
  8
0
 10
40.4842
 20
-49.3423
 11
41.1654
 21
-49.8435
  0
LINE
  8
0
 10
41.1654
 20
-49.8435
 11
41.8139
 21
-50.3084
  0
LINE
  8
0
 10
41.8139
 20
-50.3084
 11
41.5689
 21
-51.5357
  0
LINE
  8
0
 10
41.5689
 20
-51.5357
 11
41.3795
 21
-52.7962
  0
LINE
  8
0
 10
41.3795
 20
-52.7962
 11
41.2438
 21
-54.0868
  0
LINE
  8
0
 10
41.2438
 20
-54.0868
 11
41.1605
 21
-55.405
  0
LINE
  8
0
 10
41.1605
 20
-55.405
 11
41.1287
 21
-56.7485
  0
LINE
  8
0
 10
41.1287
 20
-56.7485
 11
42.2222
 21
-57.4317
  0
LINE
  8
0
 10
42.2222
 20
-57.4317
 11
43.4158
 21
-56.8143
  0
LINE
  8
0
 10
43.4158
 20
-56.8143
 11
44.564
 21
-56.1615
  0
LINE
  8
0
 10
44.564
 20
-56.1615
 11
45.6645
 21
-55.4738
  0
LINE
  8
0
 10
45.6645
 20
-55.4738
 11
46.7144
 21
-54.751
  0
LINE
  8
0
 10
46.7144
 20
-54.751
 11
47.7101
 21
-53.9927
  0
LINE
  8
0
 10
47.7101
 20
-53.9927
 11
48.4544
 21
-54.3943
  0
LINE
  8
0
 10
48.4544
 20
-54.3943
 11
49.1614
 21
-54.7643
  0
LINE
  8
0
 10
49.1614
 20
-54.7643
 11
49.0895
 21
-56.0138
  0
LINE
  8
0
 10
49.0895
 20
-56.0138
 11
49.0773
 21
-57.2884
  0
LINE
  8
0
 10
49.0773
 20
-57.2884
 11
49.1226
 21
-58.5854
  0
LINE
  8
0
 10
49.1226
 20
-58.5854
 11
49.2235
 21
-59.9023
  0
LINE
  8
0
 10
49.2235
 20
-59.9023
 11
49.3791
 21
-61.2372
  0
LINE
  8
0
 10
49.3791
 20
-61.2372
 11
50.557
 21
-61.7616
  0
LINE
  8
0
 10
50.557
 20
-61.7616
 11
51.653
 21
-60.984
  0
LINE
  8
0
 10
51.653
 20
-60.984
 11
52.6993
 21
-60.1778
  0
LINE
  8
0
 10
52.6993
 20
-60.1778
 11
53.6933
 21
-59.3436
  0
LINE
  8
0
 10
53.6933
 20
-59.3436
 11
54.6324
 21
-58.4817
  0
LINE
  8
0
 10
54.6324
 20
-58.4817
 11
55.5129
 21
-57.5922
  0
LINE
  8
0
 10
55.5129
 20
-57.5922
 11
56.3058
 21
-57.8863
  0
LINE
  8
0
 10
56.3058
 20
-57.8863
 11
57.0574
 21
-58.1544
  0
LINE
  8
0
 10
57.0574
 20
-58.1544
 11
57.1601
 21
-59.4017
  0
LINE
  8
0
 10
57.1601
 20
-59.4017
 11
57.3255
 21
-60.6656
  0
LINE
  8
0
 10
57.3255
 20
-60.6656
 11
57.5508
 21
-61.9436
  0
LINE
  8
0
 10
57.5508
 20
-61.9436
 11
57.834
 21
-63.2337
  0
LINE
  8
0
 10
57.834
 20
-63.2337
 11
58.1738
 21
-64.5339
  0
LINE
  8
0
 10
58.1738
 20
-64.5339
 11
59.4133
 21
-64.8893
  0
LINE
  8
0
 10
59.4133
 20
-64.8893
 11
60.3904
 21
-63.9667
  0
LINE
  8
0
 10
60.3904
 20
-63.9667
 11
61.3143
 21
-63.0228
  0
LINE
  8
0
 10
61.3143
 20
-63.0228
 11
62.1826
 21
-62.0583
  0
LINE
  8
0
 10
62.1826
 20
-62.0583
 11
62.9926
 21
-61.0741
  0
LINE
  8
0
 10
62.9926
 20
-61.0741
 11
63.7407
 21
-60.0708
  0
LINE
  8
0
 10
63.7407
 20
-60.0708
 11
64.5668
 21
-60.2517
  0
LINE
  8
0
 10
64.5668
 20
-60.2517
 11
65.3484
 21
-60.4125
  0
LINE
  8
0
 10
65.3484
 20
-60.4125
 11
65.6237
 21
-61.6334
  0
LINE
  8
0
 10
65.6237
 20
-61.6334
 11
65.9634
 21
-62.862
  0
LINE
  8
0
 10
65.9634
 20
-62.862
 11
66.3643
 21
-64.0962
  0
LINE
  8
0
 10
66.3643
 20
-64.0962
 11
66.8244
 21
-65.3343
  0
LINE
  8
0
 10
66.8244
 20
-65.3343
 11
67.3418
 21
-66.5746
  0
LINE
  8
0
 10
67.3418
 20
-66.5746
 11
68.6187
 21
-66.754
  0
LINE
  8
0
 10
68.6187
 20
-66.754
 11
69.4579
 21
-65.7044
  0
LINE
  8
0
 10
69.4579
 20
-65.7044
 11
70.2414
 21
-64.6411
  0
LINE
  8
0
 10
70.2414
 20
-64.6411
 11
70.9671
 21
-63.5652
  0
LINE
  8
0
 10
70.9671
 20
-63.5652
 11
71.6322
 21
-62.4778
  0
LINE
  8
0
 10
71.6322
 20
-62.4778
 11
72.2334
 21
-61.3801
  0
LINE
  8
0
 10
72.2334
 20
-61.3801
 11
73.0766
 21
-61.4443
  0
LINE
  8
0
 10
73.0766
 20
-61.4443
 11
73.873
 21
-61.4948
  0
LINE
  8
0
 10
73.873
 20
-61.4948
 11
74.3156
 21
-62.6655
  0
LINE
  8
0
 10
74.3156
 20
-62.6655
 11
74.8229
 21
-63.8348
  0
LINE
  8
0
 10
74.8229
 20
-63.8348
 11
75.3917
 21
-65.0012
  0
LINE
  8
0
 10
75.3917
 20
-65.0012
 11
76.0196
 21
-66.1633
  0
LINE
  8
0
 10
76.0196
 20
-66.1633
 11
76.7046
 21
-67.3194
  0
LINE
  8
0
 10
76.7046
 20
-67.3194
 11
77.994
 21
-67.3194
  0
LINE
  8
0
 10
77.994
 20
-67.3194
 11
78.679
 21
-66.1633
  0
LINE
  8
0
 10
75.4763
 20
-4.63591
 11
74.1354
 21
-3.83022
  0
LINE
  8
0
 10
74.1354
 20
-3.83022
 11
73.1091
 21
-2.64958
  0
LINE
  8
0
 10
73.1091
 20
-2.64958
 11
72.4978
 21
-1.20959
  0
LINE
  8
0
 10
72.4978
 20
-1.20959
 11
72.3615
 21
0.34877
  0
LINE
  8
0
 10
72.3615
 20
0.34877
 11
72.7134
 21
1.87303
  0
LINE
  8
0
 10
72.7134
 20
1.87303
 11
73.5191
 21
3.21393
  0
LINE
  8
0
 10
73.5191
 20
3.21393
 11
74.6997
 21
4.24023
  0
LINE
  8
0
 10
74.6997
 20
4.24023
 11
76.1397
 21
4.85147
  0
LINE
  8
0
 10
76.1397
 20
4.85147
 11
77.6981
 21
4.98781
  0
LINE
  8
0
 10
77.6981
 20
4.98781
 11
79.2223
 21
4.63591
  0
LINE
  8
0
 10
79.2223
 20
4.63591
 11
80.5632
 21
3.83022
  0
LINE
  8
0
 10
80.5632
 20
3.83022
 11
81.5895
 21
2.64958
  0
LINE
  8
0
 10
81.5895
 20
2.64958
 11
82.2008
 21
1.20959
  0
LINE
  8
0
 10
82.2008
 20
1.20959
 11
82.3371
 21
-0.34877
  0
LINE
  8
0
 10
82.3371
 20
-0.34877
 11
81.9852
 21
-1.87303
  0
LINE
  8
0
 10
81.9852
 20
-1.87303
 11
81.1795
 21
-3.21393
  0
LINE
  8
0
 10
81.1795
 20
-3.21393
 11
79.9989
 21
-4.24023
  0
LINE
  8
0
 10
79.9989
 20
-4.24023
 11
78.5589
 21
-4.85147
  0
LINE
  8
0
 10
78.5589
 20
-4.85147
 11
77.0005
 21
-4.98781
  0
LINE
  8
0
 10
77.0005
 20
-4.98781
 11
75.4763
 21
-4.63591
  0
LINE
  8
0
 10
5.74132
 20
-14.6731
 11
6.12735
 21
-13.5616
  0
LINE
  8
0
 10
6.12735
 20
-13.5616
 11
6.36372
 21
-12.4777
  0
LINE
  8
0
 10
6.36372
 20
-12.4777
 11
6.44928
 21
-11.4393
  0
LINE
  8
0
 10
6.44928
 20
-11.4393
 11
6.37735
 21
-10.4676
  0
LINE
  8
0
 10
6.37735
 20
-10.4676
 11
6.10992
 21
-9.60371
  0
LINE
  8
0
 10
6.10992
 20
-9.60371
 11
5.38216
 21
-8.45979
  0
LINE
  8
0
 10
5.38216
 20
-8.45979
 11
6.42848
 21
-7.69153
  0
LINE
  8
0
 10
6.42848
 20
-7.69153
 11
6.43016
 21
-7.69342
  0
LINE
  8
0
 10
6.43016
 20
-7.69342
 11
6.44424
 21
-7.67996
  0
LINE
  8
0
 10
6.44424
 20
-7.67996
 11
6.45995
 21
-7.66843
  0
LINE
  8
0
 10
6.45995
 20
-7.66843
 11
6.45839
 21
-7.66644
  0
LINE
  8
0
 10
6.45839
 20
-7.66644
 11
7.39667
 21
-6.76941
  0
LINE
  8
0
 10
7.39667
 20
-6.76941
 11
8.39684
 21
-7.68477
  0
LINE
  8
0
 10
8.39684
 20
-7.68477
 11
9.20117
 21
-8.09814
  0
LINE
  8
0
 10
9.20117
 20
-8.09814
 11
10.1456
 21
-8.33771
  0
LINE
  8
0
 10
10.1456
 20
-8.33771
 11
11.1831
 21
-8.43378
  0
LINE
  8
0
 10
11.1831
 20
-8.43378
 11
12.2915
 21
-8.38921
  0
LINE
  8
0
 10
12.2915
 20
-8.38921
 11
13.4532
 21
-8.20204
  0
LINE
  8
0
 10
13.4532
 20
-8.20204
 11
13.8298
 21
-7.54977
  0
LINE
  8
0
 10
13.8298
 20
-7.54977
 11
13.411
 21
-6.45018
  0
LINE
  8
0
 10
13.411
 20
-6.45018
 11
12.8954
 21
-5.46797
  0
LINE
  8
0
 10
12.8954
 20
-5.46797
 11
12.2935
 21
-4.61749
  0
LINE
  8
0
 10
12.2935
 20
-4.61749
 11
11.6138
 21
-3.91937
  0
LINE
  8
0
 10
11.6138
 20
-3.91937
 11
10.8536
 21
-3.42947
  0
LINE
  8
0
 10
10.8536
 20
-3.42947
 11
9.56082
 21
-3.021
  0
LINE
  8
0
 10
9.56082
 20
-3.021
 11
9.86853
 21
-1.7599
  0
LINE
  8
0
 10
9.86853
 20
-1.7599
 11
9.87103
 21
-1.76027
  0
LINE
  8
0
 10
9.87103
 20
-1.76027
 11
9.87317
 21
-1.74089
  0
LINE
  8
0
 10
9.87317
 20
-1.74089
 11
9.87778
 21
-1.72197
  0
LINE
  8
0
 10
9.87778
 20
-1.72197
 11
9.87531
 21
-1.72147
  0
LINE
  8
0
 10
9.87531
 20
-1.72147
 11
10.0175
 21
-0.431183
  0
LINE
  8
0
 10
10.0175
 20
-0.431183
 11
11.372
 21
-0.489487
  0
LINE
  8
0
 10
11.372
 20
-0.489487
 11
12.2539
 21
-0.289124
  0
LINE
  8
0
 10
12.2539
 20
-0.289124
 11
13.1314
 21
0.134399
  0
LINE
  8
0
 10
13.1314
 20
0.134399
 11
13.9879
 21
0.727707
  0
LINE
  8
0
 10
13.9879
 20
0.727707
 11
14.8083
 21
1.47435
  0
LINE
  8
0
 10
14.8083
 20
1.47435
 11
15.5779
 21
2.36441
  0
LINE
  8
0
 10
15.5779
 20
2.36441
 11
15.4471
 21
3.10614
  0
LINE
  8
0
 10
15.4471
 20
3.10614
 11
14.4196
 21
3.67931
  0
LINE
  8
0
 10
14.4196
 20
3.67931
 11
13.3932
 21
4.10031
  0
LINE
  8
0
 10
13.3932
 20
4.10031
 11
12.3854
 21
4.36488
  0
LINE
  8
0
 10
12.3854
 20
4.36488
 11
11.416
 21
4.46277
  0
LINE
  8
0
 10
11.416
 20
4.46277
 11
10.5188
 21
4.34943
  0
LINE
  8
0
 10
10.5188
 20
4.34943
 11
9.26587
 21
3.83136
  0
LINE
  8
0
 10
9.26587
 20
3.83136
 11
8.69098
 21
4.99519
  0
LINE
  8
0
 10
8.69098
 20
4.99519
 11
8.69313
 21
4.99652
  0
LINE
  8
0
 10
8.69313
 20
4.99652
 11
8.68231
 21
5.01274
  0
LINE
  8
0
 10
8.68231
 20
5.01274
 11
8.67369
 21
5.0302
  0
LINE
  8
0
 10
8.67369
 20
5.0302
 11
8.67146
 21
5.02901
  0
LINE
  8
0
 10
8.67146
 20
5.02901
 11
7.95099
 21
6.1088
  0
LINE
  8
0
 10
7.95099
 20
6.1088
 11
9.02611
 21
6.93481
  0
LINE
  8
0
 10
9.02611
 20
6.93481
 11
9.57288
 21
7.65515
  0
LINE
  8
0
 10
9.57288
 20
7.65515
 11
9.97281
 21
8.54364
  0
LINE
  8
0
 10
9.97281
 20
8.54364
 11
10.2476
 21
9.54871
  0
LINE
  8
0
 10
10.2476
 20
9.54871
 11
10.3961
 21
10.648
  0
LINE
  8
0
 10
10.3961
 20
10.648
 11
10.4136
 21
11.8245
  0
LINE
  8
0
 10
10.4136
 20
11.8245
 11
9.83659
 21
12.3087
  0
LINE
  8
0
 10
9.83659
 20
12.3087
 11
8.681
 21
12.0872
  0
LINE
  8
0
 10
8.681
 20
12.0872
 11
7.62416
 21
11.75
  0
LINE
  8
0
 10
7.62416
 20
11.75
 11
6.68208
 21
11.3049
  0
LINE
  8
0
 10
6.68208
 20
11.3049
 11
5.87654
 21
10.7568
  0
LINE
  8
0
 10
5.87654
 20
10.7568
 11
5.26208
 21
10.0932
  0
LINE
  8
0
 10
5.26208
 20
10.0932
 11
4.63531
 21
8.89098
  0
LINE
  8
0
 10
4.63531
 20
8.89098
 11
3.44681
 21
9.41299
  0
LINE
  8
0
 10
3.44681
 20
9.41299
 11
3.44762
 21
9.41541
  0
LINE
  8
0
 10
3.44762
 20
9.41541
 11
3.42889
 21
9.42087
  0
LINE
  8
0
 10
3.42889
 20
9.42087
 11
3.41107
 21
9.4287
  0
LINE
  8
0
 10
3.41107
 20
9.4287
 11
3.41014
 21
9.42635
  0
LINE
  8
0
 10
3.41014
 20
9.42635
 11
2.16415
 21
9.79042
  0
LINE
  8
0
 10
2.16415
 20
9.79042
 11
2.45679
 21
11.1143
  0
LINE
  8
0
 10
2.45679
 20
11.1143
 11
2.41261
 21
12.0175
  0
LINE
  8
0
 10
2.41261
 20
12.0175
 11
2.14787
 21
12.9552
  0
LINE
  8
0
 10
2.14787
 20
12.9552
 11
1.71231
 21
13.9018
  0
LINE
  8
0
 10
1.71231
 20
13.9018
 11
1.11949
 21
14.8394
  0
LINE
  8
0
 10
1.11949
 20
14.8394
 11
0.376587
 21
15.7518
  0
LINE
  8
0
 10
0.376587
 20
15.7518
 11
-0.376587
 21
15.7518
  0
LINE
  8
0
 10
-0.376587
 20
15.7518
 11
-1.11949
 21
14.8394
  0
LINE
  8
0
 10
-1.11949
 20
14.8394
 11
-1.71231
 21
13.9018
  0
LINE
  8
0
 10
-1.71231
 20
13.9018
 11
-2.14787
 21
12.9552
  0
LINE
  8
0
 10
-2.14787
 20
12.9552
 11
-2.41261
 21
12.0175
  0
LINE
  8
0
 10
-2.41261
 20
12.0175
 11
-2.45679
 21
11.1143
  0
LINE
  8
0
 10
-2.45679
 20
11.1143
 11
-2.16415
 21
9.79042
  0
LINE
  8
0
 10
-2.16415
 20
9.79042
 11
-3.41014
 21
9.42635
  0
LINE
  8
0
 10
-3.41014
 20
9.42635
 11
-3.41107
 21
9.4287
  0
LINE
  8
0
 10
-3.41107
 20
9.4287
 11
-3.42889
 21
9.42087
  0
LINE
  8
0
 10
-3.42889
 20
9.42087
 11
-3.44762
 21
9.41541
  0
LINE
  8
0
 10
-3.44762
 20
9.41541
 11
-3.44681
 21
9.41299
  0
LINE
  8
0
 10
-3.44681
 20
9.41299
 11
-4.63531
 21
8.89098
  0
LINE
  8
0
 10
-4.63531
 20
8.89098
 11
-5.26208
 21
10.0932
  0
LINE
  8
0
 10
-5.26208
 20
10.0932
 11
-5.87654
 21
10.7568
  0
LINE
  8
0
 10
-5.87654
 20
10.7568
 11
-6.68208
 21
11.3049
  0
LINE
  8
0
 10
-6.68208
 20
11.3049
 11
-7.62416
 21
11.75
  0
LINE
  8
0
 10
-7.62416
 20
11.75
 11
-8.681
 21
12.0872
  0
LINE
  8
0
 10
-8.681
 20
12.0872
 11
-9.83659
 21
12.3087
  0
LINE
  8
0
 10
-9.83659
 20
12.3087
 11
-10.4136
 21
11.8245
  0
LINE
  8
0
 10
-10.4136
 20
11.8245
 11
-10.3961
 21
10.648
  0
LINE
  8
0
 10
-10.3961
 20
10.648
 11
-10.2476
 21
9.54871
  0
LINE
  8
0
 10
-10.2476
 20
9.54871
 11
-9.97281
 21
8.54364
  0
LINE
  8
0
 10
-9.97281
 20
8.54364
 11
-9.57288
 21
7.65515
  0
LINE
  8
0
 10
-9.57288
 20
7.65515
 11
-9.02611
 21
6.93481
  0
LINE
  8
0
 10
-9.02611
 20
6.93481
 11
-7.95099
 21
6.1088
  0
LINE
  8
0
 10
-7.95099
 20
6.1088
 11
-8.67146
 21
5.02901
  0
LINE
  8
0
 10
-8.67146
 20
5.02901
 11
-8.67369
 21
5.0302
  0
LINE
  8
0
 10
-8.67369
 20
5.0302
 11
-8.68231
 21
5.01274
  0
LINE
  8
0
 10
-8.68231
 20
5.01274
 11
-8.69313
 21
4.99652
  0
LINE
  8
0
 10
-8.69313
 20
4.99652
 11
-8.69098
 21
4.99519
  0
LINE
  8
0
 10
-8.69098
 20
4.99519
 11
-9.26587
 21
3.83136
  0
LINE
  8
0
 10
-9.26587
 20
3.83136
 11
-10.5188
 21
4.34943
  0
LINE
  8
0
 10
-10.5188
 20
4.34943
 11
-11.416
 21
4.46277
  0
LINE
  8
0
 10
-11.416
 20
4.46277
 11
-12.3854
 21
4.36488
  0
LINE
  8
0
 10
-12.3854
 20
4.36488
 11
-13.3932
 21
4.10031
  0
LINE
  8
0
 10
-13.3932
 20
4.10031
 11
-14.4196
 21
3.67931
  0
LINE
  8
0
 10
-14.4196
 20
3.67931
 11
-15.4471
 21
3.10614
  0
LINE
  8
0
 10
-15.4471
 20
3.10614
 11
-15.5779
 21
2.36441
  0
LINE
  8
0
 10
-15.5779
 20
2.36441
 11
-14.8083
 21
1.47435
  0
LINE
  8
0
 10
-14.8083
 20
1.47435
 11
-13.9879
 21
0.727707
  0
LINE
  8
0
 10
-13.9879
 20
0.727707
 11
-13.1314
 21
0.134399
  0
LINE
  8
0
 10
-13.1314
 20
0.134399
 11
-12.2539
 21
-0.289124
  0
LINE
  8
0
 10
-12.2539
 20
-0.289124
 11
-11.372
 21
-0.489487
  0
LINE
  8
0
 10
-11.372
 20
-0.489487
 11
-10.0175
 21
-0.431183
  0
LINE
  8
0
 10
-10.0175
 20
-0.431183
 11
-9.87531
 21
-1.72147
  0
LINE
  8
0
 10
-9.87531
 20
-1.72147
 11
-9.87778
 21
-1.72197
  0
LINE
  8
0
 10
-9.87778
 20
-1.72197
 11
-9.87317
 21
-1.74089
  0
LINE
  8
0
 10
-9.87317
 20
-1.74089
 11
-9.87103
 21
-1.76027
  0
LINE
  8
0
 10
-9.87103
 20
-1.76027
 11
-9.86853
 21
-1.7599
  0
LINE
  8
0
 10
-9.86853
 20
-1.7599
 11
-9.56082
 21
-3.021
  0
LINE
  8
0
 10
-9.56082
 20
-3.021
 11
-10.8536
 21
-3.42947
  0
LINE
  8
0
 10
-10.8536
 20
-3.42947
 11
-11.6138
 21
-3.91937
  0
LINE
  8
0
 10
-11.6138
 20
-3.91937
 11
-12.2935
 21
-4.61749
  0
LINE
  8
0
 10
-12.2935
 20
-4.61749
 11
-12.8954
 21
-5.46797
  0
LINE
  8
0
 10
-12.8954
 20
-5.46797
 11
-13.411
 21
-6.45018
  0
LINE
  8
0
 10
-13.411
 20
-6.45018
 11
-13.8298
 21
-7.54977
  0
LINE
  8
0
 10
-13.8298
 20
-7.54977
 11
-13.4532
 21
-8.20204
  0
LINE
  8
0
 10
-13.4532
 20
-8.20204
 11
-12.2915
 21
-8.38921
  0
LINE
  8
0
 10
-12.2915
 20
-8.38921
 11
-11.1831
 21
-8.43378
  0
LINE
  8
0
 10
-11.1831
 20
-8.43378
 11
-10.1456
 21
-8.33771
  0
LINE
  8
0
 10
-10.1456
 20
-8.33771
 11
-9.20117
 21
-8.09814
  0
LINE
  8
0
 10
-9.20117
 20
-8.09814
 11
-8.39684
 21
-7.68477
  0
LINE
  8
0
 10
-8.39684
 20
-7.68477
 11
-7.39667
 21
-6.76941
  0
LINE
  8
0
 10
-7.39667
 20
-6.76941
 11
-6.45839
 21
-7.66644
  0
LINE
  8
0
 10
-6.45839
 20
-7.66644
 11
-6.45995
 21
-7.66843
  0
LINE
  8
0
 10
-6.45995
 20
-7.66843
 11
-6.44424
 21
-7.67996
  0
LINE
  8
0
 10
-6.44424
 20
-7.67996
 11
-6.43016
 21
-7.69342
  0
LINE
  8
0
 10
-6.43016
 20
-7.69342
 11
-6.42848
 21
-7.69153
  0
LINE
  8
0
 10
-6.42848
 20
-7.69153
 11
-5.38216
 21
-8.45979
  0
LINE
  8
0
 10
-5.38216
 20
-8.45979
 11
-6.10992
 21
-9.60371
  0
LINE
  8
0
 10
-6.10992
 20
-9.60371
 11
-6.37735
 21
-10.4676
  0
LINE
  8
0
 10
-6.37735
 20
-10.4676
 11
-6.44928
 21
-11.4393
  0
LINE
  8
0
 10
-6.44928
 20
-11.4393
 11
-6.36372
 21
-12.4777
  0
LINE
  8
0
 10
-6.36372
 20
-12.4777
 11
-6.12735
 21
-13.5616
  0
LINE
  8
0
 10
-6.12735
 20
-13.5616
 11
-5.74132
 21
-14.6731
  0
LINE
  8
0
 10
-5.74132
 20
-14.6731
 11
-5.03355
 21
-14.9307
  0
LINE
  8
0
 10
-5.03355
 20
-14.9307
 11
-4.02339
 21
-14.3274
  0
LINE
  8
0
 10
-4.02339
 20
-14.3274
 11
-3.14563
 21
-13.649
  0
LINE
  8
0
 10
-3.14563
 20
-13.649
 11
-2.4126
 21
-12.9085
  0
LINE
  8
0
 10
-2.4126
 20
-12.9085
 11
-1.84311
 21
-12.1179
  0
LINE
  8
0
 10
-1.84311
 20
-12.1179
 11
-1.49266
 21
-11.2843
  0
LINE
  8
0
 10
-1.49266
 20
-11.2843
 11
-1.31488
 21
-9.94016
  0
LINE
  8
0
 10
-1.31488
 20
-9.94016
 11
-0.0195007
 21
-10.0242
  0
LINE
  8
0
 10
-0.0195007
 20
-10.0242
 11
-0.0194397
 21
-10.0267
  0
LINE
  8
0
 10
-0.0194397
 20
-10.0267
 11
0
 21
-10.0255
  0
LINE
  8
0
 10
0
 20
-10.0255
 11
0.0194397
 21
-10.0267
  0
LINE
  8
0
 10
0.0194397
 20
-10.0267
 11
0.0195007
 21
-10.0242
  0
LINE
  8
0
 10
0.0195007
 20
-10.0242
 11
1.31488
 21
-9.94016
  0
LINE
  8
0
 10
1.31488
 20
-9.94016
 11
1.49266
 21
-11.2843
  0
LINE
  8
0
 10
1.49266
 20
-11.2843
 11
1.84311
 21
-12.1179
  0
LINE
  8
0
 10
1.84311
 20
-12.1179
 11
2.4126
 21
-12.9085
  0
LINE
  8
0
 10
2.4126
 20
-12.9085
 11
3.14563
 21
-13.649
  0
LINE
  8
0
 10
3.14563
 20
-13.649
 11
4.02339
 21
-14.3274
  0
LINE
  8
0
 10
4.02339
 20
-14.3274
 11
5.03355
 21
-14.9307
  0
LINE
  8
0
 10
5.03355
 20
-14.9307
 11
5.74132
 21
-14.6731
  0
LINE
  8
0
 10
-1.54507
 20
-4.75528
 11
-2.93892
 21
-4.04507
  0
LINE
  8
0
 10
-2.93892
 20
-4.04507
 11
-4.04507
 21
-2.93892
  0
LINE
  8
0
 10
-4.04507
 20
-2.93892
 11
-4.75528
 21
-1.54507
  0
LINE
  8
0
 10
-4.75528
 20
-1.54507
 11
-5
 21
0
  0
LINE
  8
0
 10
-5
 20
0
 11
-4.75528
 21
1.54507
  0
LINE
  8
0
 10
-4.75528
 20
1.54507
 11
-4.04507
 21
2.93892
  0
LINE
  8
0
 10
-4.04507
 20
2.93892
 11
-2.93892
 21
4.04507
  0
LINE
  8
0
 10
-2.93892
 20
4.04507
 11
-1.54507
 21
4.75528
  0
LINE
  8
0
 10
-1.54507
 20
4.75528
 11
0
 21
5
  0
LINE
  8
0
 10
0
 20
5
 11
1.54507
 21
4.75528
  0
LINE
  8
0
 10
1.54507
 20
4.75528
 11
2.93892
 21
4.04507
  0
LINE
  8
0
 10
2.93892
 20
4.04507
 11
4.04507
 21
2.93892
  0
LINE
  8
0
 10
4.04507
 20
2.93892
 11
4.75528
 21
1.54507
  0
LINE
  8
0
 10
4.75528
 20
1.54507
 11
5
 21
0
  0
LINE
  8
0
 10
5
 20
0
 11
4.75528
 21
-1.54507
  0
LINE
  8
0
 10
4.75528
 20
-1.54507
 11
4.04507
 21
-2.93892
  0
LINE
  8
0
 10
4.04507
 20
-2.93892
 11
2.93892
 21
-4.04507
  0
LINE
  8
0
 10
2.93892
 20
-4.04507
 11
1.54507
 21
-4.75528
  0
LINE
  8
0
 10
1.54507
 20
-4.75528
 11
0
 21
-5
  0
LINE
  8
0
 10
0
 20
-5
 11
-1.54507
 21
-4.75528
  0
ENDSEC
  0
SECTION
  2
OBJECTS
  0
DICTIONARY
  0
ENDSEC
  0
EOF
