  0
SECTION
  2
BLOCKS
  0
ENDSEC
  0
SECTION
  2
ENTITIES
  0
LINE
  8
0
 10
130.472
 20
-87.3249
 11
131.109
 21
-86.1539
  0
LINE
  8
0
 10
131.109
 20
-86.1539
 11
131.702
 21
-84.9796
  0
LINE
  8
0
 10
131.702
 20
-84.9796
 11
132.249
 21
-83.8029
  0
LINE
  8
0
 10
132.249
 20
-83.8029
 11
132.75
 21
-82.6247
  0
LINE
  8
0
 10
132.75
 20
-82.6247
 11
133.202
 21
-81.4459
  0
LINE
  8
0
 10
133.202
 20
-81.4459
 11
134.021
 21
-81.384
  0
LINE
  8
0
 10
134.021
 20
-81.384
 11
134.792
 21
-81.3186
  0
LINE
  8
0
 10
134.792
 20
-81.3186
 11
135.426
 21
-82.4105
  0
LINE
  8
0
 10
135.426
 20
-82.4105
 11
136.108
 21
-83.494
  0
LINE
  8
0
 10
136.108
 20
-83.494
 11
136.836
 21
-84.5686
  0
LINE
  8
0
 10
136.836
 20
-84.5686
 11
137.607
 21
-85.6337
  0
LINE
  8
0
 10
137.607
 20
-85.6337
 11
138.422
 21
-86.6886
  0
LINE
  8
0
 10
138.422
 20
-86.6886
 11
139.737
 21
-86.5125
  0
LINE
  8
0
 10
139.737
 20
-86.5125
 11
140.246
 21
-85.2804
  0
LINE
  8
0
 10
140.246
 20
-85.2804
 11
140.71
 21
-84.0498
  0
LINE
  8
0
 10
140.71
 20
-84.0498
 11
141.13
 21
-82.8216
  0
LINE
  8
0
 10
141.13
 20
-82.8216
 11
141.502
 21
-81.5968
  0
LINE
  8
0
 10
141.502
 20
-81.5968
 11
141.827
 21
-80.3767
  0
LINE
  8
0
 10
141.827
 20
-80.3767
 11
142.635
 21
-80.228
  0
LINE
  8
0
 10
142.635
 20
-80.228
 11
143.394
 21
-80.0811
  0
LINE
  8
0
 10
143.394
 20
-80.0811
 11
144.141
 21
-81.0993
  0
LINE
  8
0
 10
144.141
 20
-81.0993
 11
144.934
 21
-82.1042
  0
LINE
  8
0
 10
144.934
 20
-82.1042
 11
145.772
 21
-83.0955
  0
LINE
  8
0
 10
145.772
 20
-83.0955
 11
146.652
 21
-84.0724
  0
LINE
  8
0
 10
146.652
 20
-84.0724
 11
147.575
 21
-85.0347
  0
LINE
  8
0
 10
147.575
 20
-85.0347
 11
148.864
 21
-84.7198
  0
LINE
  8
0
 10
148.864
 20
-84.7198
 11
149.238
 21
-83.4407
  0
LINE
  8
0
 10
149.238
 20
-83.4407
 11
149.569
 21
-82.1676
  0
LINE
  8
0
 10
149.569
 20
-82.1676
 11
149.856
 21
-80.9018
  0
LINE
  8
0
 10
149.856
 20
-80.9018
 11
150.096
 21
-79.6444
  0
LINE
  8
0
 10
150.096
 20
-79.6444
 11
150.289
 21
-78.3967
  0
LINE
  8
0
 10
150.289
 20
-78.3967
 11
151.077
 21
-78.1629
  0
LINE
  8
0
 10
151.077
 20
-78.1629
 11
151.816
 21
-77.9361
  0
LINE
  8
0
 10
151.816
 20
-77.9361
 11
152.667
 21
-78.8693
  0
LINE
  8
0
 10
152.667
 20
-78.8693
 11
153.562
 21
-79.7842
  0
LINE
  8
0
 10
153.562
 20
-79.7842
 11
154.501
 21
-80.6807
  0
LINE
  8
0
 10
154.501
 20
-80.6807
 11
155.48
 21
-81.5586
  0
LINE
  8
0
 10
155.48
 20
-81.5586
 11
156.5
 21
-82.4173
  0
LINE
  8
0
 10
156.5
 20
-82.4173
 11
157.748
 21
-81.9673
  0
LINE
  8
0
 10
157.748
 20
-81.9673
 11
157.984
 21
-80.6555
  0
LINE
  8
0
 10
157.984
 20
-80.6555
 11
158.178
 21
-79.3545
  0
LINE
  8
0
 10
158.178
 20
-79.3545
 11
158.328
 21
-78.0654
  0
LINE
  8
0
 10
158.328
 20
-78.0654
 11
158.434
 21
-76.7896
  0
LINE
  8
0
 10
158.434
 20
-76.7896
 11
158.493
 21
-75.5284
  0
LINE
  8
0
 10
158.493
 20
-75.5284
 11
159.251
 21
-75.2123
  0
LINE
  8
0
 10
159.251
 20
-75.2123
 11
159.963
 21
-74.9081
  0
LINE
  8
0
 10
159.963
 20
-74.9081
 11
160.907
 21
-75.7456
  0
LINE
  8
0
 10
160.907
 20
-75.7456
 11
161.895
 21
-76.5602
  0
LINE
  8
0
 10
161.895
 20
-76.5602
 11
162.923
 21
-77.3519
  0
LINE
  8
0
 10
162.923
 20
-77.3519
 11
163.991
 21
-78.1206
  0
LINE
  8
0
 10
163.991
 20
-78.1206
 11
165.096
 21
-78.8661
  0
LINE
  8
0
 10
165.096
 20
-78.8661
 11
166.289
 21
-78.286
  0
LINE
  8
0
 10
166.289
 20
-78.286
 11
166.385
 21
-76.9565
  0
LINE
  8
0
 10
166.385
 20
-76.9565
 11
166.439
 21
-75.6423
  0
LINE
  8
0
 10
166.439
 20
-75.6423
 11
166.451
 21
-74.3445
  0
LINE
  8
0
 10
166.451
 20
-74.3445
 11
166.421
 21
-73.0647
  0
LINE
  8
0
 10
166.421
 20
-73.0647
 11
166.345
 21
-71.8044
  0
LINE
  8
0
 10
166.345
 20
-71.8044
 11
167.066
 21
-71.4094
  0
LINE
  8
0
 10
167.066
 20
-71.4094
 11
167.741
 21
-71.0314
  0
LINE
  8
0
 10
167.741
 20
-71.0314
 11
168.769
 21
-71.7637
  0
LINE
  8
0
 10
168.769
 20
-71.7637
 11
169.838
 21
-72.4687
  0
LINE
  8
0
 10
169.838
 20
-72.4687
 11
170.945
 21
-73.1466
  0
LINE
  8
0
 10
170.945
 20
-73.1466
 11
172.088
 21
-73.7975
  0
LINE
  8
0
 10
172.088
 20
-73.7975
 11
173.266
 21
-74.4214
  0
LINE
  8
0
 10
173.266
 20
-74.4214
 11
174.39
 21
-73.7177
  0
LINE
  8
0
 10
174.39
 20
-73.7177
 11
174.344
 21
-72.3855
  0
LINE
  8
0
 10
174.344
 20
-72.3855
 11
174.259
 21
-71.073
  0
LINE
  8
0
 10
174.259
 20
-71.073
 11
174.133
 21
-69.7813
  0
LINE
  8
0
 10
174.133
 20
-69.7813
 11
173.966
 21
-68.512
  0
LINE
  8
0
 10
173.966
 20
-68.512
 11
173.758
 21
-67.2668
  0
LINE
  8
0
 10
173.758
 20
-67.2668
 11
174.432
 21
-66.7975
  0
LINE
  8
0
 10
174.432
 20
-66.7975
 11
175.063
 21
-66.3499
  0
LINE
  8
0
 10
175.063
 20
-66.3499
 11
176.163
 21
-66.9687
  0
LINE
  8
0
 10
176.163
 20
-66.9687
 11
177.301
 21
-67.5561
  0
LINE
  8
0
 10
177.301
 20
-67.5561
 11
178.473
 21
-68.1126
  0
LINE
  8
0
 10
178.473
 20
-68.1126
 11
179.679
 21
-68.6383
  0
LINE
  8
0
 10
179.679
 20
-68.6383
 11
180.917
 21
-69.1334
  0
LINE
  8
0
 10
180.917
 20
-69.1334
 11
181.96
 21
-68.3142
  0
LINE
  8
0
 10
181.96
 20
-68.3142
 11
181.773
 21
-66.9944
  0
LINE
  8
0
 10
181.773
 20
-66.9944
 11
181.548
 21
-65.6984
  0
LINE
  8
0
 10
181.548
 20
-65.6984
 11
181.286
 21
-64.4274
  0
LINE
  8
0
 10
181.286
 20
-64.4274
 11
180.985
 21
-63.183
  0
LINE
  8
0
 10
180.985
 20
-63.183
 11
180.645
 21
-61.9671
  0
LINE
  8
0
 10
180.645
 20
-61.9671
 11
181.266
 21
-61.4287
  0
LINE
  8
0
 10
181.266
 20
-61.4287
 11
181.846
 21
-60.9165
  0
LINE
  8
0
 10
181.846
 20
-60.9165
 11
183.006
 21
-61.4149
  0
LINE
  8
0
 10
183.006
 20
-61.4149
 11
184.199
 21
-61.878
  0
LINE
  8
0
 10
184.199
 20
-61.878
 11
185.424
 21
-62.3068
  0
LINE
  8
0
 10
185.424
 20
-62.3068
 11
186.679
 21
-62.7014
  0
LINE
  8
0
 10
186.679
 20
-62.7014
 11
187.962
 21
-63.0621
  0
LINE
  8
0
 10
187.962
 20
-63.0621
 11
188.913
 21
-62.1366
  0
LINE
  8
0
 10
188.913
 20
-62.1366
 11
188.586
 21
-60.8442
  0
LINE
  8
0
 10
188.586
 20
-60.8442
 11
188.225
 21
-59.5794
  0
LINE
  8
0
 10
188.225
 20
-59.5794
 11
187.829
 21
-58.3435
  0
LINE
  8
0
 10
187.829
 20
-58.3435
 11
187.398
 21
-57.1382
  0
LINE
  8
0
 10
187.398
 20
-57.1382
 11
186.931
 21
-55.9652
  0
LINE
  8
0
 10
186.931
 20
-55.9652
 11
187.491
 21
-55.3639
  0
LINE
  8
0
 10
187.491
 20
-55.3639
 11
188.013
 21
-54.793
  0
LINE
  8
0
 10
188.013
 20
-54.793
 11
189.219
 21
-55.1652
  0
LINE
  8
0
 10
189.219
 20
-55.1652
 11
190.455
 21
-55.4989
  0
LINE
  8
0
 10
190.455
 20
-55.4989
 11
191.719
 21
-55.795
  0
LINE
  8
0
 10
191.719
 20
-55.795
 11
193.009
 21
-56.054
  0
LINE
  8
0
 10
193.009
 20
-56.054
 11
194.323
 21
-56.2763
  0
LINE
  8
0
 10
194.323
 20
-56.2763
 11
195.17
 21
-55.255
  0
LINE
  8
0
 10
195.17
 20
-55.255
 11
194.708
 21
-54.0047
  0
LINE
  8
0
 10
194.708
 20
-54.0047
 11
194.214
 21
-52.7853
  0
LINE
  8
0
 10
194.214
 20
-52.7853
 11
193.689
 21
-51.5985
  0
LINE
  8
0
 10
193.689
 20
-51.5985
 11
193.132
 21
-50.4459
  0
LINE
  8
0
 10
193.132
 20
-50.4459
 11
192.543
 21
-49.3293
  0
LINE
  8
0
 10
192.543
 20
-49.3293
 11
193.036
 21
-48.6718
  0
LINE
  8
0
 10
193.036
 20
-48.6718
 11
193.494
 21
-48.0487
  0
LINE
  8
0
 10
193.494
 20
-48.0487
 11
194.733
 21
-48.2905
  0
LINE
  8
0
 10
194.733
 20
-48.2905
 11
195.998
 21
-48.491
  0
LINE
  8
0
 10
195.998
 20
-48.491
 11
197.286
 21
-48.6511
  0
LINE
  8
0
 10
197.286
 20
-48.6511
 11
198.596
 21
-48.7715
  0
LINE
  8
0
 10
198.596
 20
-48.7715
 11
199.926
 21
-48.8528
  0
LINE
  8
0
 10
199.926
 20
-48.8528
 11
200.659
 21
-47.7474
  0
LINE
  8
0
 10
200.659
 20
-47.7474
 11
200.067
 21
-46.5532
  0
LINE
  8
0
 10
200.067
 20
-46.5532
 11
199.447
 21
-45.3932
  0
LINE
  8
0
 10
199.447
 20
-45.3932
 11
198.799
 21
-44.269
  0
LINE
  8
0
 10
198.799
 20
-44.269
 11
198.122
 21
-43.182
  0
LINE
  8
0
 10
198.122
 20
-43.182
 11
197.418
 21
-42.1344
  0
LINE
  8
0
 10
197.418
 20
-42.1344
 11
197.838
 21
-41.4282
  0
LINE
  8
0
 10
197.838
 20
-41.4282
 11
198.228
 21
-40.7599
  0
LINE
  8
0
 10
198.228
 20
-40.7599
 11
199.485
 21
-40.8687
  0
LINE
  8
0
 10
199.485
 20
-40.8687
 11
200.764
 21
-40.9336
  0
LINE
  8
0
 10
200.764
 20
-40.9336
 11
202.062
 21
-40.9559
  0
LINE
  8
0
 10
202.062
 20
-40.9559
 11
203.377
 21
-40.9364
  0
LINE
  8
0
 10
203.377
 20
-40.9364
 11
204.708
 21
-40.8759
  0
LINE
  8
0
 10
204.708
 20
-40.8759
 11
205.32
 21
-39.6987
  0
LINE
  8
0
 10
205.32
 20
-39.6987
 11
204.604
 21
-38.5742
  0
LINE
  8
0
 10
204.604
 20
-38.5742
 11
203.864
 21
-37.4868
  0
LINE
  8
0
 10
203.864
 20
-37.4868
 11
203.1
 21
-36.4378
  0
LINE
  8
0
 10
203.1
 20
-36.4378
 11
202.312
 21
-35.4289
  0
LINE
  8
0
 10
202.312
 20
-35.4289
 11
201.5
 21
-34.4621
  0
LINE
  8
0
 10
201.5
 20
-34.4621
 11
201.843
 21
-33.7152
  0
LINE
  8
0
 10
201.843
 20
-33.7152
 11
202.159
 21
-33.0093
  0
LINE
  8
0
 10
202.159
 20
-33.0093
 11
203.422
 21
-32.9837
  0
LINE
  8
0
 10
203.422
 20
-32.9837
 11
204.7
 21
-32.9124
  0
LINE
  8
0
 10
204.7
 20
-32.9124
 11
205.992
 21
-32.7967
  0
LINE
  8
0
 10
205.992
 20
-32.7967
 11
207.298
 21
-32.6375
  0
LINE
  8
0
 10
207.298
 20
-32.6375
 11
208.616
 21
-32.4357
  0
LINE
  8
0
 10
208.616
 20
-32.4357
 11
209.099
 21
-31.2002
  0
LINE
  8
0
 10
209.099
 20
-31.2002
 11
208.268
 21
-30.1582
  0
LINE
  8
0
 10
208.268
 20
-30.1582
 11
207.416
 21
-29.1556
  0
LINE
  8
0
 10
207.416
 20
-29.1556
 11
206.545
 21
-28.1938
  0
LINE
  8
0
 10
206.545
 20
-28.1938
 11
205.654
 21
-27.2744
  0
LINE
  8
0
 10
205.654
 20
-27.2744
 11
204.744
 21
-26.3993
  0
LINE
  8
0
 10
204.744
 20
-26.3993
 11
205.005
 21
-25.6203
  0
LINE
  8
0
 10
205.005
 20
-25.6203
 11
205.245
 21
-24.8847
  0
LINE
  8
0
 10
205.245
 20
-24.8847
 11
206.497
 21
-24.7251
  0
LINE
  8
0
 10
206.497
 20
-24.7251
 11
207.761
 21
-24.5183
  0
LINE
  8
0
 10
207.761
 20
-24.5183
 11
209.034
 21
-24.2658
  0
LINE
  8
0
 10
209.034
 20
-24.2658
 11
210.315
 21
-23.9688
  0
LINE
  8
0
 10
210.315
 20
-23.9688
 11
211.604
 21
-23.6281
  0
LINE
  8
0
 10
211.604
 20
-23.6281
 11
211.953
 21
-22.3483
  0
LINE
  8
0
 10
211.953
 20
-22.3483
 11
211.015
 21
-21.4005
  0
LINE
  8
0
 10
211.015
 20
-21.4005
 11
210.062
 21
-20.4941
  0
LINE
  8
0
 10
210.062
 20
-20.4941
 11
209.094
 21
-19.6303
  0
LINE
  8
0
 10
209.094
 20
-19.6303
 11
208.11
 21
-18.8108
  0
LINE
  8
0
 10
208.11
 20
-18.8108
 11
207.112
 21
-18.0375
  0
LINE
  8
0
 10
207.112
 20
-18.0375
 11
207.29
 21
-17.235
  0
LINE
  8
0
 10
207.29
 20
-17.235
 11
207.449
 21
-16.4782
  0
LINE
  8
0
 10
207.449
 20
-16.4782
 11
208.678
 21
-16.1863
  0
LINE
  8
0
 10
208.678
 20
-16.1863
 11
209.912
 21
-15.8464
  0
LINE
  8
0
 10
209.912
 20
-15.8464
 11
211.151
 21
-15.4601
  0
LINE
  8
0
 10
211.151
 20
-15.4601
 11
212.394
 21
-15.0285
  0
LINE
  8
0
 10
212.394
 20
-15.0285
 11
213.639
 21
-14.5528
  0
LINE
  8
0
 10
213.639
 20
-14.5528
 11
213.85
 21
-13.2431
  0
LINE
  8
0
 10
213.85
 20
-13.2431
 11
212.817
 21
-12.4003
  0
LINE
  8
0
 10
212.817
 20
-12.4003
 11
211.773
 21
-11.6004
  0
LINE
  8
0
 10
211.773
 20
-11.6004
 11
210.718
 21
-10.8444
  0
LINE
  8
0
 10
210.718
 20
-10.8444
 11
209.653
 21
-10.1341
  0
LINE
  8
0
 10
209.653
 20
-10.1341
 11
208.578
 21
-9.47121
  0
LINE
  8
0
 10
208.578
 20
-9.47121
 11
208.669
 21
-8.65445
  0
LINE
  8
0
 10
208.669
 20
-8.65445
 11
208.748
 21
-7.88492
  0
LINE
  8
0
 10
208.748
 20
-7.88492
 11
209.938
 21
-7.46417
  0
LINE
  8
0
 10
209.938
 20
-7.46417
 11
211.129
 21
-6.995
  0
LINE
  8
0
 10
211.129
 20
-6.995
 11
212.32
 21
-6.47914
  0
LINE
  8
0
 10
212.32
 20
-6.47914
 11
213.51
 21
-5.91794
  0
LINE
  8
0
 10
213.51
 20
-5.91794
 11
214.698
 21
-5.31256
  0
LINE
  8
0
 10
214.698
 20
-5.31256
 11
214.768
 21
-3.98784
  0
LINE
  8
0
 10
214.768
 20
-3.98784
 11
213.652
 21
-3.25966
  0
LINE
  8
0
 10
213.652
 20
-3.25966
 11
212.528
 21
-2.5752
  0
LINE
  8
0
 10
212.528
 20
-2.5752
 11
211.399
 21
-1.93568
  0
LINE
  8
0
 10
211.399
 20
-1.93568
 11
210.265
 21
-1.34256
  0
LINE
  8
0
 10
210.265
 20
-1.34256
 11
209.126
 21
-0.797653
  0
LINE
  8
0
 10
209.126
 20
-0.797653
 11
209.129
 21
0.0241241
  0
LINE
  8
0
 10
209.129
 20
0.0241241
 11
209.126
 21
0.797653
  0
LINE
  8
0
 10
209.126
 20
0.797653
 11
210.265
 21
1.34256
  0
LINE
  8
0
 10
210.265
 20
1.34256
 11
211.399
 21
1.93568
  0
LINE
  8
0
 10
211.399
 20
1.93568
 11
212.528
 21
2.5752
  0
LINE
  8
0
 10
212.528
 20
2.5752
 11
213.652
 21
3.25966
  0
LINE
  8
0
 10
213.652
 20
3.25966
 11
214.768
 21
3.98784
  0
LINE
  8
0
 10
214.768
 20
3.98784
 11
214.698
 21
5.31256
  0
LINE
  8
0
 10
214.698
 20
5.31256
 11
213.51
 21
5.91794
  0
LINE
  8
0
 10
213.51
 20
5.91794
 11
212.32
 21
6.47914
  0
LINE
  8
0
 10
212.32
 20
6.47914
 11
211.129
 21
6.995
  0
LINE
  8
0
 10
211.129
 20
6.995
 11
209.938
 21
7.46417
  0
LINE
  8
0
 10
209.938
 20
7.46417
 11
208.748
 21
7.88492
  0
LINE
  8
0
 10
208.748
 20
7.88492
 11
208.664
 21
8.70245
  0
LINE
  8
0
 10
208.664
 20
8.70245
 11
208.578
 21
9.47121
  0
LINE
  8
0
 10
208.578
 20
9.47121
 11
209.653
 21
10.1341
  0
LINE
  8
0
 10
209.653
 20
10.1341
 11
210.718
 21
10.8444
  0
LINE
  8
0
 10
210.718
 20
10.8444
 11
211.773
 21
11.6004
  0
LINE
  8
0
 10
211.773
 20
11.6004
 11
212.817
 21
12.4003
  0
LINE
  8
0
 10
212.817
 20
12.4003
 11
213.85
 21
13.2431
  0
LINE
  8
0
 10
213.85
 20
13.2431
 11
213.639
 21
14.5528
  0
LINE
  8
0
 10
213.639
 20
14.5528
 11
212.394
 21
15.0285
  0
LINE
  8
0
 10
212.394
 20
15.0285
 11
211.151
 21
15.4601
  0
LINE
  8
0
 10
211.151
 20
15.4601
 11
209.912
 21
15.8464
  0
LINE
  8
0
 10
209.912
 20
15.8464
 11
208.678
 21
16.1863
  0
LINE
  8
0
 10
208.678
 20
16.1863
 11
207.449
 21
16.4782
  0
LINE
  8
0
 10
207.449
 20
16.4782
 11
207.279
 21
17.2822
  0
LINE
  8
0
 10
207.279
 20
17.2822
 11
207.112
 21
18.0375
  0
LINE
  8
0
 10
207.112
 20
18.0375
 11
208.11
 21
18.8108
  0
LINE
  8
0
 10
208.11
 20
18.8108
 11
209.094
 21
19.6303
  0
LINE
  8
0
 10
209.094
 20
19.6303
 11
210.062
 21
20.4941
  0
LINE
  8
0
 10
210.062
 20
20.4941
 11
211.015
 21
21.4005
  0
LINE
  8
0
 10
211.015
 20
21.4005
 11
211.953
 21
22.3483
  0
LINE
  8
0
 10
211.953
 20
22.3483
 11
211.604
 21
23.6281
  0
LINE
  8
0
 10
211.604
 20
23.6281
 11
210.315
 21
23.9688
  0
LINE
  8
0
 10
210.315
 20
23.9688
 11
209.034
 21
24.2658
  0
LINE
  8
0
 10
209.034
 20
24.2658
 11
207.761
 21
24.5183
  0
LINE
  8
0
 10
207.761
 20
24.5183
 11
206.497
 21
24.7251
  0
LINE
  8
0
 10
206.497
 20
24.7251
 11
205.245
 21
24.8847
  0
LINE
  8
0
 10
205.245
 20
24.8847
 11
204.99
 21
25.6661
  0
LINE
  8
0
 10
204.99
 20
25.6661
 11
204.744
 21
26.3993
  0
LINE
  8
0
 10
204.744
 20
26.3993
 11
205.654
 21
27.2744
  0
LINE
  8
0
 10
205.654
 20
27.2744
 11
206.545
 21
28.1938
  0
LINE
  8
0
 10
206.545
 20
28.1938
 11
207.416
 21
29.1556
  0
LINE
  8
0
 10
207.416
 20
29.1556
 11
208.268
 21
30.1582
  0
LINE
  8
0
 10
208.268
 20
30.1582
 11
209.099
 21
31.2002
  0
LINE
  8
0
 10
209.099
 20
31.2002
 11
208.616
 21
32.4357
  0
LINE
  8
0
 10
208.616
 20
32.4357
 11
207.298
 21
32.6375
  0
LINE
  8
0
 10
207.298
 20
32.6375
 11
205.992
 21
32.7967
  0
LINE
  8
0
 10
205.992
 20
32.7967
 11
204.7
 21
32.9124
  0
LINE
  8
0
 10
204.7
 20
32.9124
 11
203.422
 21
32.9837
  0
LINE
  8
0
 10
203.422
 20
32.9837
 11
202.159
 21
33.0093
  0
LINE
  8
0
 10
202.159
 20
33.0093
 11
201.823
 21
33.7592
  0
LINE
  8
0
 10
201.823
 20
33.7592
 11
201.5
 21
34.4621
  0
LINE
  8
0
 10
201.5
 20
34.4621
 11
202.312
 21
35.4289
  0
LINE
  8
0
 10
202.312
 20
35.4289
 11
203.1
 21
36.4378
  0
LINE
  8
0
 10
203.1
 20
36.4378
 11
203.864
 21
37.4868
  0
LINE
  8
0
 10
203.864
 20
37.4868
 11
204.604
 21
38.5742
  0
LINE
  8
0
 10
204.604
 20
38.5742
 11
205.32
 21
39.6987
  0
LINE
  8
0
 10
205.32
 20
39.6987
 11
204.708
 21
40.8759
  0
LINE
  8
0
 10
204.708
 20
40.8759
 11
203.377
 21
40.9364
  0
LINE
  8
0
 10
203.377
 20
40.9364
 11
202.062
 21
40.9559
  0
LINE
  8
0
 10
202.062
 20
40.9559
 11
200.764
 21
40.9336
  0
LINE
  8
0
 10
200.764
 20
40.9336
 11
199.485
 21
40.8687
  0
LINE
  8
0
 10
199.485
 20
40.8687
 11
198.228
 21
40.7599
  0
LINE
  8
0
 10
198.228
 20
40.7599
 11
197.814
 21
41.4698
  0
LINE
  8
0
 10
197.814
 20
41.4698
 11
197.418
 21
42.1344
  0
LINE
  8
0
 10
197.418
 20
42.1344
 11
198.122
 21
43.182
  0
LINE
  8
0
 10
198.122
 20
43.182
 11
198.799
 21
44.269
  0
LINE
  8
0
 10
198.799
 20
44.269
 11
199.447
 21
45.3932
  0
LINE
  8
0
 10
199.447
 20
45.3932
 11
200.067
 21
46.5532
  0
LINE
  8
0
 10
200.067
 20
46.5532
 11
200.659
 21
47.7474
  0
LINE
  8
0
 10
200.659
 20
47.7474
 11
199.926
 21
48.8528
  0
LINE
  8
0
 10
199.926
 20
48.8528
 11
198.596
 21
48.7715
  0
LINE
  8
0
 10
198.596
 20
48.7715
 11
197.286
 21
48.6511
  0
LINE
  8
0
 10
197.286
 20
48.6511
 11
195.998
 21
48.491
  0
LINE
  8
0
 10
195.998
 20
48.491
 11
194.733
 21
48.2905
  0
LINE
  8
0
 10
194.733
 20
48.2905
 11
193.494
 21
48.0487
  0
LINE
  8
0
 10
193.494
 20
48.0487
 11
193.007
 21
48.7105
  0
LINE
  8
0
 10
193.007
 20
48.7105
 11
192.543
 21
49.3293
  0
LINE
  8
0
 10
192.543
 20
49.3293
 11
193.132
 21
50.4459
  0
LINE
  8
0
 10
193.132
 20
50.4459
 11
193.689
 21
51.5985
  0
LINE
  8
0
 10
193.689
 20
51.5985
 11
194.214
 21
52.7853
  0
LINE
  8
0
 10
194.214
 20
52.7853
 11
194.708
 21
54.0047
  0
LINE
  8
0
 10
194.708
 20
54.0047
 11
195.17
 21
55.255
  0
LINE
  8
0
 10
195.17
 20
55.255
 11
194.323
 21
56.2763
  0
LINE
  8
0
 10
194.323
 20
56.2763
 11
193.009
 21
56.054
  0
LINE
  8
0
 10
193.009
 20
56.054
 11
191.719
 21
55.795
  0
LINE
  8
0
 10
191.719
 20
55.795
 11
190.455
 21
55.4989
  0
LINE
  8
0
 10
190.455
 20
55.4989
 11
189.219
 21
55.1652
  0
LINE
  8
0
 10
189.219
 20
55.1652
 11
188.013
 21
54.793
  0
LINE
  8
0
 10
188.013
 20
54.793
 11
187.458
 21
55.3994
  0
LINE
  8
0
 10
187.458
 20
55.3994
 11
186.931
 21
55.9652
  0
LINE
  8
0
 10
186.931
 20
55.9652
 11
187.398
 21
57.1382
  0
LINE
  8
0
 10
187.398
 20
57.1382
 11
187.829
 21
58.3435
  0
LINE
  8
0
 10
187.829
 20
58.3435
 11
188.225
 21
59.5794
  0
LINE
  8
0
 10
188.225
 20
59.5794
 11
188.586
 21
60.8442
  0
LINE
  8
0
 10
188.586
 20
60.8442
 11
188.913
 21
62.1366
  0
LINE
  8
0
 10
188.913
 20
62.1366
 11
187.962
 21
63.0621
  0
LINE
  8
0
 10
187.962
 20
63.0621
 11
186.679
 21
62.7014
  0
LINE
  8
0
 10
186.679
 20
62.7014
 11
185.424
 21
62.3068
  0
LINE
  8
0
 10
185.424
 20
62.3068
 11
184.199
 21
61.878
  0
LINE
  8
0
 10
184.199
 20
61.878
 11
183.006
 21
61.4149
  0
LINE
  8
0
 10
183.006
 20
61.4149
 11
181.846
 21
60.9165
  0
LINE
  8
0
 10
181.846
 20
60.9165
 11
181.23
 21
61.4605
  0
LINE
  8
0
 10
181.23
 20
61.4605
 11
180.645
 21
61.9671
  0
LINE
  8
0
 10
180.645
 20
61.9671
 11
180.985
 21
63.183
  0
LINE
  8
0
 10
180.985
 20
63.183
 11
181.286
 21
64.4274
  0
LINE
  8
0
 10
181.286
 20
64.4274
 11
181.548
 21
65.6984
  0
LINE
  8
0
 10
181.548
 20
65.6984
 11
181.773
 21
66.9944
  0
LINE
  8
0
 10
181.773
 20
66.9944
 11
181.96
 21
68.3142
  0
LINE
  8
0
 10
181.96
 20
68.3142
 11
180.917
 21
69.1334
  0
LINE
  8
0
 10
180.917
 20
69.1334
 11
179.679
 21
68.6383
  0
LINE
  8
0
 10
179.679
 20
68.6383
 11
178.473
 21
68.1126
  0
LINE
  8
0
 10
178.473
 20
68.1126
 11
177.301
 21
67.5561
  0
LINE
  8
0
 10
177.301
 20
67.5561
 11
176.163
 21
66.9687
  0
LINE
  8
0
 10
176.163
 20
66.9687
 11
175.063
 21
66.3499
  0
LINE
  8
0
 10
175.063
 20
66.3499
 11
174.393
 21
66.8252
  0
LINE
  8
0
 10
174.393
 20
66.8252
 11
173.758
 21
67.2668
  0
LINE
  8
0
 10
173.758
 20
67.2668
 11
173.966
 21
68.512
  0
LINE
  8
0
 10
173.966
 20
68.512
 11
174.133
 21
69.7813
  0
LINE
  8
0
 10
174.133
 20
69.7813
 11
174.259
 21
71.073
  0
LINE
  8
0
 10
174.259
 20
71.073
 11
174.344
 21
72.3855
  0
LINE
  8
0
 10
174.344
 20
72.3855
 11
174.39
 21
73.7177
  0
LINE
  8
0
 10
174.39
 20
73.7177
 11
173.266
 21
74.4214
  0
LINE
  8
0
 10
173.266
 20
74.4214
 11
172.088
 21
73.7975
  0
LINE
  8
0
 10
172.088
 20
73.7975
 11
170.945
 21
73.1466
  0
LINE
  8
0
 10
170.945
 20
73.1466
 11
169.838
 21
72.4687
  0
LINE
  8
0
 10
169.838
 20
72.4687
 11
168.769
 21
71.7637
  0
LINE
  8
0
 10
168.769
 20
71.7637
 11
167.741
 21
71.0314
  0
LINE
  8
0
 10
167.741
 20
71.0314
 11
167.024
 21
71.4328
  0
LINE
  8
0
 10
167.024
 20
71.4328
 11
166.345
 21
71.8044
  0
LINE
  8
0
 10
166.345
 20
71.8044
 11
166.421
 21
73.0647
  0
LINE
  8
0
 10
166.421
 20
73.0647
 11
166.451
 21
74.3445
  0
LINE
  8
0
 10
166.451
 20
74.3445
 11
166.439
 21
75.6423
  0
LINE
  8
0
 10
166.439
 20
75.6423
 11
166.385
 21
76.9565
  0
LINE
  8
0
 10
166.385
 20
76.9565
 11
166.289
 21
78.286
  0
LINE
  8
0
 10
166.289
 20
78.286
 11
165.096
 21
78.8661
  0
LINE
  8
0
 10
165.096
 20
78.8661
 11
163.991
 21
78.1206
  0
LINE
  8
0
 10
163.991
 20
78.1206
 11
162.923
 21
77.3519
  0
LINE
  8
0
 10
162.923
 20
77.3519
 11
161.895
 21
76.5602
  0
LINE
  8
0
 10
161.895
 20
76.5602
 11
160.907
 21
75.7456
  0
LINE
  8
0
 10
160.907
 20
75.7456
 11
159.963
 21
74.9081
  0
LINE
  8
0
 10
159.963
 20
74.9081
 11
159.207
 21
75.231
  0
LINE
  8
0
 10
159.207
 20
75.231
 11
158.493
 21
75.5284
  0
LINE
  8
0
 10
158.493
 20
75.5284
 11
158.434
 21
76.7896
  0
LINE
  8
0
 10
158.434
 20
76.7896
 11
158.328
 21
78.0654
  0
LINE
  8
0
 10
158.328
 20
78.0654
 11
158.178
 21
79.3545
  0
LINE
  8
0
 10
158.178
 20
79.3545
 11
157.984
 21
80.6555
  0
LINE
  8
0
 10
157.984
 20
80.6555
 11
157.748
 21
81.9673
  0
LINE
  8
0
 10
157.748
 20
81.9673
 11
156.5
 21
82.4173
  0
LINE
  8
0
 10
156.5
 20
82.4173
 11
155.48
 21
81.5586
  0
LINE
  8
0
 10
155.48
 20
81.5586
 11
154.501
 21
80.6807
  0
LINE
  8
0
 10
154.501
 20
80.6807
 11
153.562
 21
79.7842
  0
LINE
  8
0
 10
153.562
 20
79.7842
 11
152.667
 21
78.8693
  0
LINE
  8
0
 10
152.667
 20
78.8693
 11
151.816
 21
77.9361
  0
LINE
  8
0
 10
151.816
 20
77.9361
 11
151.031
 21
78.1769
  0
LINE
  8
0
 10
151.031
 20
78.1769
 11
150.289
 21
78.3967
  0
LINE
  8
0
 10
150.289
 20
78.3967
 11
150.096
 21
79.6444
  0
LINE
  8
0
 10
150.096
 20
79.6444
 11
149.856
 21
80.9018
  0
LINE
  8
0
 10
149.856
 20
80.9018
 11
149.569
 21
82.1676
  0
LINE
  8
0
 10
149.569
 20
82.1676
 11
149.238
 21
83.4407
  0
LINE
  8
0
 10
149.238
 20
83.4407
 11
148.864
 21
84.7198
  0
LINE
  8
0
 10
148.864
 20
84.7198
 11
147.575
 21
85.0347
  0
LINE
  8
0
 10
147.575
 20
85.0347
 11
146.652
 21
84.0724
  0
LINE
  8
0
 10
146.652
 20
84.0724
 11
145.772
 21
83.0955
  0
LINE
  8
0
 10
145.772
 20
83.0955
 11
144.934
 21
82.1042
  0
LINE
  8
0
 10
144.934
 20
82.1042
 11
144.141
 21
81.0993
  0
LINE
  8
0
 10
144.141
 20
81.0993
 11
143.394
 21
80.0811
  0
LINE
  8
0
 10
143.394
 20
80.0811
 11
142.588
 21
80.2369
  0
LINE
  8
0
 10
142.588
 20
80.2369
 11
141.827
 21
80.3767
  0
LINE
  8
0
 10
141.827
 20
80.3767
 11
141.502
 21
81.5968
  0
LINE
  8
0
 10
141.502
 20
81.5968
 11
141.13
 21
82.8216
  0
LINE
  8
0
 10
141.13
 20
82.8216
 11
140.71
 21
84.0498
  0
LINE
  8
0
 10
140.71
 20
84.0498
 11
140.246
 21
85.2804
  0
LINE
  8
0
 10
140.246
 20
85.2804
 11
139.737
 21
86.5125
  0
LINE
  8
0
 10
139.737
 20
86.5125
 11
138.422
 21
86.6886
  0
LINE
  8
0
 10
138.422
 20
86.6886
 11
137.607
 21
85.6337
  0
LINE
  8
0
 10
137.607
 20
85.6337
 11
136.836
 21
84.5686
  0
LINE
  8
0
 10
136.836
 20
84.5686
 11
136.108
 21
83.494
  0
LINE
  8
0
 10
136.108
 20
83.494
 11
135.426
 21
82.4105
  0
LINE
  8
0
 10
135.426
 20
82.4105
 11
134.792
 21
81.3186
  0
LINE
  8
0
 10
134.792
 20
81.3186
 11
133.973
 21
81.3879
  0
LINE
  8
0
 10
133.973
 20
81.3879
 11
133.202
 21
81.4459
  0
LINE
  8
0
 10
133.202
 20
81.4459
 11
132.75
 21
82.6247
  0
LINE
  8
0
 10
132.75
 20
82.6247
 11
132.249
 21
83.8029
  0
LINE
  8
0
 10
132.249
 20
83.8029
 11
131.702
 21
84.9796
  0
LINE
  8
0
 10
131.702
 20
84.9796
 11
131.109
 21
86.1539
  0
LINE
  8
0
 10
131.109
 20
86.1539
 11
130.472
 21
87.3249
  0
LINE
  8
0
 10
130.472
 20
87.3249
 11
129.146
 21
87.3602
  0
LINE
  8
0
 10
129.146
 20
87.3602
 11
128.448
 21
86.2247
  0
LINE
  8
0
 10
128.448
 20
86.2247
 11
127.793
 21
85.0836
  0
LINE
  8
0
 10
127.793
 20
85.0836
 11
127.184
 21
83.9378
  0
LINE
  8
0
 10
127.184
 20
83.9378
 11
126.622
 21
82.7879
  0
LINE
  8
0
 10
126.622
 20
82.7879
 11
126.107
 21
81.6349
  0
LINE
  8
0
 10
126.107
 20
81.6349
 11
125.286
 21
81.6167
  0
LINE
  8
0
 10
125.286
 20
81.6167
 11
124.512
 21
81.5924
  0
LINE
  8
0
 10
124.512
 20
81.5924
 11
123.937
 21
82.7164
  0
LINE
  8
0
 10
123.937
 20
82.7164
 11
123.314
 21
83.8347
  0
LINE
  8
0
 10
123.314
 20
83.8347
 11
122.645
 21
84.9465
  0
LINE
  8
0
 10
122.645
 20
84.9465
 11
121.931
 21
86.0512
  0
LINE
  8
0
 10
121.931
 20
86.0512
 11
121.173
 21
87.1479
  0
LINE
  8
0
 10
121.173
 20
87.1479
 11
119.851
 21
87.0421
  0
LINE
  8
0
 10
119.851
 20
87.0421
 11
119.277
 21
85.8388
  0
LINE
  8
0
 10
119.277
 20
85.8388
 11
118.748
 21
84.6346
  0
LINE
  8
0
 10
118.748
 20
84.6346
 11
118.264
 21
83.4305
  0
LINE
  8
0
 10
118.264
 20
83.4305
 11
117.827
 21
82.2273
  0
LINE
  8
0
 10
117.827
 20
82.2273
 11
117.438
 21
81.0261
  0
LINE
  8
0
 10
117.438
 20
81.0261
 11
116.623
 21
80.9207
  0
LINE
  8
0
 10
116.623
 20
80.9207
 11
115.856
 21
80.8144
  0
LINE
  8
0
 10
115.856
 20
80.8144
 11
115.165
 21
81.8709
  0
LINE
  8
0
 10
115.165
 20
81.8709
 11
114.427
 21
82.9166
  0
LINE
  8
0
 10
114.427
 20
82.9166
 11
113.643
 21
83.951
  0
LINE
  8
0
 10
113.643
 20
83.951
 11
112.816
 21
84.9735
  0
LINE
  8
0
 10
112.816
 20
84.9735
 11
111.946
 21
85.9835
  0
LINE
  8
0
 10
111.946
 20
85.9835
 11
110.642
 21
85.7377
  0
LINE
  8
0
 10
110.642
 20
85.7377
 11
110.2
 21
84.4803
  0
LINE
  8
0
 10
110.2
 20
84.4803
 11
109.801
 21
83.2267
  0
LINE
  8
0
 10
109.801
 20
83.2267
 11
109.448
 21
81.9779
  0
LINE
  8
0
 10
109.448
 20
81.9779
 11
109.141
 21
80.7351
  0
LINE
  8
0
 10
109.141
 20
80.7351
 11
108.882
 21
79.4993
  0
LINE
  8
0
 10
108.882
 20
79.4993
 11
108.083
 21
79.3079
  0
LINE
  8
0
 10
108.083
 20
79.3079
 11
107.332
 21
79.1207
  0
LINE
  8
0
 10
107.332
 20
79.1207
 11
106.533
 21
80.0978
  0
LINE
  8
0
 10
106.533
 20
80.0978
 11
105.687
 21
81.0591
  0
LINE
  8
0
 10
105.687
 20
81.0591
 11
104.798
 21
82.0043
  0
LINE
  8
0
 10
104.798
 20
82.0043
 11
103.866
 21
82.933
  0
LINE
  8
0
 10
103.866
 20
82.933
 11
102.894
 21
83.8448
  0
LINE
  8
0
 10
102.894
 20
83.8448
 11
101.624
 21
83.4619
  0
LINE
  8
0
 10
101.624
 20
83.4619
 11
101.318
 21
82.1645
  0
LINE
  8
0
 10
101.318
 20
82.1645
 11
101.055
 21
80.8757
  0
LINE
  8
0
 10
101.055
 20
80.8757
 11
100.836
 21
79.5965
  0
LINE
  8
0
 10
100.836
 20
79.5965
 11
100.663
 21
78.328
  0
LINE
  8
0
 10
100.663
 20
78.328
 11
100.537
 21
77.0718
  0
LINE
  8
0
 10
100.537
 20
77.0718
 11
99.7628
 21
76.7965
  0
LINE
  8
0
 10
99.7628
 20
76.7965
 11
99.0364
 21
76.5306
  0
LINE
  8
0
 10
99.0364
 20
76.5306
 11
98.1375
 21
77.4171
  0
LINE
  8
0
 10
98.1375
 20
77.4171
 11
97.1946
 21
78.2831
  0
LINE
  8
0
 10
97.1946
 20
78.2831
 11
96.21
 21
79.1285
  0
LINE
  8
0
 10
96.21
 20
79.1285
 11
95.185
 21
79.9529
  0
LINE
  8
0
 10
95.185
 20
79.9529
 11
94.1213
 21
80.7562
  0
LINE
  8
0
 10
94.1213
 20
80.7562
 11
92.8991
 21
80.2404
  0
LINE
  8
0
 10
92.8991
 20
80.2404
 11
92.7325
 21
78.9179
  0
LINE
  8
0
 10
92.7325
 20
78.9179
 11
92.6081
 21
77.6084
  0
LINE
  8
0
 10
92.6081
 20
77.6084
 11
92.5268
 21
76.3131
  0
LINE
  8
0
 10
92.5268
 20
76.3131
 11
92.4895
 21
75.0335
  0
LINE
  8
0
 10
92.4895
 20
75.0335
 11
92.4976
 21
73.771
  0
LINE
  8
0
 10
92.4976
 20
73.771
 11
91.7569
 21
73.4149
  0
LINE
  8
0
 10
91.7569
 20
73.4149
 11
91.0629
 21
73.0733
  0
LINE
  8
0
 10
91.0629
 20
73.0733
 11
90.0748
 21
73.8593
  0
LINE
  8
0
 10
90.0748
 20
73.8593
 11
89.0452
 21
74.6202
  0
LINE
  8
0
 10
89.0452
 20
74.6202
 11
87.9763
 21
75.3561
  0
LINE
  8
0
 10
87.9763
 20
75.3561
 11
86.8695
 21
76.0669
  0
LINE
  8
0
 10
86.8695
 20
76.0669
 11
85.7264
 21
76.7525
  0
LINE
  8
0
 10
85.7264
 20
76.7525
 11
84.5659
 21
76.1097
  0
LINE
  8
0
 10
84.5659
 20
76.1097
 11
84.5409
 21
74.777
  0
LINE
  8
0
 10
84.5409
 20
74.777
 11
84.5564
 21
73.4617
  0
LINE
  8
0
 10
84.5564
 20
73.4617
 11
84.6133
 21
72.1652
  0
LINE
  8
0
 10
84.6133
 20
72.1652
 11
84.7122
 21
70.8889
  0
LINE
  8
0
 10
84.7122
 20
70.8889
 11
84.8544
 21
69.6343
  0
LINE
  8
0
 10
84.8544
 20
69.6343
 11
84.1558
 21
69.2015
  0
LINE
  8
0
 10
84.1558
 20
69.2015
 11
83.502
 21
68.7881
  0
LINE
  8
0
 10
83.502
 20
68.7881
 11
82.4359
 21
69.4646
  0
LINE
  8
0
 10
82.4359
 20
69.4646
 11
81.3314
 21
70.1117
  0
LINE
  8
0
 10
81.3314
 20
70.1117
 11
80.1902
 21
70.7298
  0
LINE
  8
0
 10
80.1902
 20
70.7298
 11
79.0142
 21
71.319
  0
LINE
  8
0
 10
79.0142
 20
71.319
 11
77.8047
 21
71.8793
  0
LINE
  8
0
 10
77.8047
 20
71.8793
 11
76.7191
 21
71.1167
  0
LINE
  8
0
 10
76.7191
 20
71.1167
 11
76.8358
 21
69.7889
  0
LINE
  8
0
 10
76.8358
 20
69.7889
 11
76.9911
 21
68.4827
  0
LINE
  8
0
 10
76.9911
 20
68.4827
 11
77.1854
 21
67.1996
  0
LINE
  8
0
 10
77.1854
 20
67.1996
 11
77.4195
 21
65.941
  0
LINE
  8
0
 10
77.4195
 20
65.941
 11
77.6942
 21
64.7087
  0
LINE
  8
0
 10
77.6942
 20
64.7087
 11
77.0455
 21
64.2041
  0
LINE
  8
0
 10
77.0455
 20
64.2041
 11
76.4394
 21
63.7235
  0
LINE
  8
0
 10
76.4394
 20
63.7235
 11
75.3075
 21
64.2829
  0
LINE
  8
0
 10
75.3075
 20
64.2829
 11
74.1404
 21
64.8089
  0
LINE
  8
0
 10
74.1404
 20
64.8089
 11
72.94
 21
65.3022
  0
LINE
  8
0
 10
72.94
 20
65.3022
 11
71.708
 21
65.763
  0
LINE
  8
0
 10
71.708
 20
65.763
 11
70.4458
 21
66.1916
  0
LINE
  8
0
 10
70.4458
 20
66.1916
 11
69.4475
 21
65.318
  0
LINE
  8
0
 10
69.4475
 20
65.318
 11
69.7047
 21
64.0101
  0
LINE
  8
0
 10
69.7047
 20
64.0101
 11
69.9979
 21
62.7278
  0
LINE
  8
0
 10
69.9979
 20
62.7278
 11
70.3275
 21
61.4726
  0
LINE
  8
0
 10
70.3275
 20
61.4726
 11
70.694
 21
60.246
  0
LINE
  8
0
 10
70.694
 20
60.246
 11
71.0982
 21
59.0499
  0
LINE
  8
0
 10
71.0982
 20
59.0499
 11
70.5068
 21
58.4792
  0
LINE
  8
0
 10
70.5068
 20
58.4792
 11
69.9552
 21
57.9369
  0
LINE
  8
0
 10
69.9552
 20
57.9369
 11
68.7702
 21
58.3728
  0
LINE
  8
0
 10
68.7702
 20
58.3728
 11
67.5538
 21
58.7718
  0
LINE
  8
0
 10
67.5538
 20
58.7718
 11
66.3078
 21
59.1347
  0
LINE
  8
0
 10
66.3078
 20
59.1347
 11
65.0338
 21
59.4619
  0
LINE
  8
0
 10
65.0338
 20
59.4619
 11
63.7332
 21
59.7539
  0
LINE
  8
0
 10
63.7332
 20
59.7539
 11
62.8334
 21
58.7791
  0
LINE
  8
0
 10
62.8334
 20
58.7791
 11
63.2281
 21
57.506
  0
LINE
  8
0
 10
63.2281
 20
57.506
 11
63.656
 21
56.2621
  0
LINE
  8
0
 10
63.656
 20
56.2621
 11
64.1172
 21
55.049
  0
LINE
  8
0
 10
64.1172
 20
55.049
 11
64.612
 21
53.8684
  0
LINE
  8
0
 10
64.612
 20
53.8684
 11
65.141
 21
52.722
  0
LINE
  8
0
 10
65.141
 20
52.722
 11
64.6136
 21
52.0917
  0
LINE
  8
0
 10
64.6136
 20
52.0917
 11
64.1228
 21
51.4938
  0
LINE
  8
0
 10
64.1228
 20
51.4938
 11
62.8982
 21
51.8013
  0
LINE
  8
0
 10
62.8982
 20
51.8013
 11
61.6463
 21
52.0687
  0
LINE
  8
0
 10
61.6463
 20
52.0687
 11
60.3688
 21
52.2971
  0
LINE
  8
0
 10
60.3688
 20
52.2971
 11
59.0672
 21
52.4871
  0
LINE
  8
0
 10
59.0672
 20
52.4871
 11
57.7429
 21
52.6392
  0
LINE
  8
0
 10
57.7429
 20
52.6392
 11
56.9518
 21
51.5743
  0
LINE
  8
0
 10
56.9518
 20
51.5743
 11
57.4796
 21
50.3503
  0
LINE
  8
0
 10
57.4796
 20
50.3503
 11
58.0373
 21
49.159
  0
LINE
  8
0
 10
58.0373
 20
49.159
 11
58.6248
 21
48.0018
  0
LINE
  8
0
 10
58.6248
 20
48.0018
 11
59.2423
 21
46.8804
  0
LINE
  8
0
 10
59.2423
 20
46.8804
 11
59.8902
 21
45.7967
  0
LINE
  8
0
 10
59.8902
 20
45.7967
 11
59.4328
 21
45.1139
  0
LINE
  8
0
 10
59.4328
 20
45.1139
 11
59.0083
 21
44.4673
  0
LINE
  8
0
 10
59.0083
 20
44.4673
 11
57.7579
 21
44.6429
  0
LINE
  8
0
 10
57.7579
 20
44.6429
 11
56.4847
 21
44.7757
  0
LINE
  8
0
 10
56.4847
 20
44.7757
 11
55.1902
 21
44.8671
  0
LINE
  8
0
 10
55.1902
 20
44.8671
 11
53.8757
 21
44.9176
  0
LINE
  8
0
 10
53.8757
 20
44.9176
 11
52.5428
 21
44.928
  0
LINE
  8
0
 10
52.5428
 20
44.928
 11
51.8694
 21
43.7851
  0
LINE
  8
0
 10
51.8694
 20
43.7851
 11
52.5243
 21
42.6241
  0
LINE
  8
0
 10
52.5243
 20
42.6241
 11
53.2054
 21
41.4988
  0
LINE
  8
0
 10
53.2054
 20
41.4988
 11
53.9126
 21
40.4107
  0
LINE
  8
0
 10
53.9126
 20
40.4107
 11
54.6458
 21
39.3613
  0
LINE
  8
0
 10
54.6458
 20
39.3613
 11
55.4052
 21
38.3526
  0
LINE
  8
0
 10
55.4052
 20
38.3526
 11
55.023
 21
37.625
  0
LINE
  8
0
 10
55.023
 20
37.625
 11
54.6696
 21
36.937
  0
LINE
  8
0
 10
54.6696
 20
36.937
 11
53.4077
 21
36.9786
  0
LINE
  8
0
 10
53.4077
 20
36.9786
 11
52.1275
 21
36.9754
  0
LINE
  8
0
 10
52.1275
 20
36.9754
 11
50.8306
 21
36.9286
  0
LINE
  8
0
 10
50.8306
 20
36.9286
 11
49.5183
 21
36.8392
  0
LINE
  8
0
 10
49.5183
 20
36.8392
 11
48.1918
 21
36.7078
  0
LINE
  8
0
 10
48.1918
 20
36.7078
 11
47.6436
 21
35.4998
  0
LINE
  8
0
 10
47.6436
 20
35.4998
 11
48.4183
 21
34.415
  0
LINE
  8
0
 10
48.4183
 20
34.415
 11
49.2152
 21
33.3685
  0
LINE
  8
0
 10
49.2152
 20
33.3685
 11
50.034
 21
32.3617
  0
LINE
  8
0
 10
50.034
 20
32.3617
 11
50.8746
 21
31.3961
  0
LINE
  8
0
 10
50.8746
 20
31.3961
 11
51.7369
 21
30.4739
  0
LINE
  8
0
 10
51.7369
 20
30.4739
 11
51.4342
 21
29.7099
  0
LINE
  8
0
 10
51.4342
 20
29.7099
 11
51.1559
 21
28.9881
  0
LINE
  8
0
 10
51.1559
 20
28.9881
 11
49.8968
 21
28.8954
  0
LINE
  8
0
 10
49.8968
 20
28.8954
 11
48.6242
 21
28.7561
  0
LINE
  8
0
 10
48.6242
 20
28.7561
 11
47.3396
 21
28.5717
  0
LINE
  8
0
 10
47.3396
 20
28.5717
 11
46.0442
 21
28.3433
  0
LINE
  8
0
 10
46.0442
 20
28.3433
 11
44.7392
 21
28.0717
  0
LINE
  8
0
 10
44.7392
 20
28.0717
 11
44.3226
 21
26.8123
  0
LINE
  8
0
 10
44.3226
 20
26.8123
 11
45.2081
 21
25.816
  0
LINE
  8
0
 10
45.2081
 20
25.816
 11
46.1117
 21
24.8601
  0
LINE
  8
0
 10
46.1117
 20
24.8601
 11
47.0329
 21
23.946
  0
LINE
  8
0
 10
47.0329
 20
23.946
 11
47.9714
 21
23.0753
  0
LINE
  8
0
 10
47.9714
 20
23.0753
 11
48.9268
 21
22.2499
  0
LINE
  8
0
 10
48.9268
 20
22.2499
 11
48.7071
 21
21.458
  0
LINE
  8
0
 10
48.7071
 20
21.458
 11
48.5071
 21
20.7108
  0
LINE
  8
0
 10
48.5071
 20
20.7108
 11
47.2649
 21
20.4848
  0
LINE
  8
0
 10
47.2649
 20
20.4848
 11
46.0144
 21
20.211
  0
LINE
  8
0
 10
46.0144
 20
20.211
 11
44.7566
 21
19.8911
  0
LINE
  8
0
 10
44.7566
 20
19.8911
 11
43.4929
 21
19.5263
  0
LINE
  8
0
 10
43.4929
 20
19.5263
 11
42.2241
 21
19.1176
  0
LINE
  8
0
 10
42.2241
 20
19.1176
 11
41.9437
 21
17.8209
  0
LINE
  8
0
 10
41.9437
 20
17.8209
 11
42.9302
 21
16.9244
  0
LINE
  8
0
 10
42.9302
 20
16.9244
 11
43.9303
 21
16.07
  0
LINE
  8
0
 10
43.9303
 20
16.07
 11
44.9434
 21
15.259
  0
LINE
  8
0
 10
44.9434
 20
15.259
 11
45.9691
 21
14.493
  0
LINE
  8
0
 10
45.9691
 20
14.493
 11
47.0069
 21
13.7739
  0
LINE
  8
0
 10
47.0069
 20
13.7739
 11
46.8725
 21
12.9631
  0
LINE
  8
0
 10
46.8725
 20
12.9631
 11
46.7531
 21
12.1988
  0
LINE
  8
0
 10
46.7531
 20
12.1988
 11
45.542
 21
11.842
  0
LINE
  8
0
 10
45.542
 20
11.842
 11
44.3276
 21
11.4369
  0
LINE
  8
0
 10
44.3276
 20
11.4369
 11
43.111
 21
10.9852
  0
LINE
  8
0
 10
43.111
 20
10.9852
 11
41.8932
 21
10.4881
  0
LINE
  8
0
 10
41.8932
 20
10.4881
 11
40.6751
 21
9.94678
  0
LINE
  8
0
 10
40.6751
 20
9.94678
 11
40.5341
 21
8.62769
  0
LINE
  8
0
 10
40.5341
 20
8.62769
 11
41.6102
 21
7.84113
  0
LINE
  8
0
 10
41.6102
 20
7.84113
 11
42.6954
 21
7.09784
  0
LINE
  8
0
 10
42.6954
 20
7.09784
 11
43.7891
 21
6.39912
  0
LINE
  8
0
 10
43.7891
 20
6.39912
 11
44.8904
 21
5.74646
  0
LINE
  8
0
 10
44.8904
 20
5.74646
 11
45.9987
 21
5.14172
  0
LINE
  8
0
 10
45.9987
 20
5.14172
 11
45.9513
 21
4.32127
  0
LINE
  8
0
 10
45.9513
 20
4.32127
 11
45.9138
 21
3.54866
  0
LINE
  8
0
 10
45.9138
 20
3.54866
 11
44.7475
 21
3.06516
  0
LINE
  8
0
 10
44.7475
 20
3.06516
 11
43.583
 21
2.53325
  0
LINE
  8
0
 10
43.583
 20
2.53325
 11
42.4213
 21
1.95474
  0
LINE
  8
0
 10
42.4213
 20
1.95474
 11
41.2632
 21
1.33101
  0
LINE
  8
0
 10
41.2632
 20
1.33101
 11
40.1096
 21
0.663284
  0
LINE
  8
0
 10
40.1096
 20
0.663284
 11
40.1096
 21
-0.6633
  0
LINE
  8
0
 10
40.1096
 20
-0.6633
 11
41.2632
 21
-1.33102
  0
LINE
  8
0
 10
41.2632
 20
-1.33102
 11
42.4213
 21
-1.95474
  0
LINE
  8
0
 10
42.4213
 20
-1.95474
 11
43.583
 21
-2.53325
  0
LINE
  8
0
 10
43.583
 20
-2.53325
 11
44.7475
 21
-3.06516
  0
LINE
  8
0
 10
44.7475
 20
-3.06516
 11
45.9138
 21
-3.54865
  0
LINE
  8
0
 10
45.9138
 20
-3.54865
 11
45.9539
 21
-4.36949
  0
LINE
  8
0
 10
45.9539
 20
-4.36949
 11
45.9987
 21
-5.14172
  0
LINE
  8
0
 10
45.9987
 20
-5.14172
 11
44.8904
 21
-5.74646
  0
LINE
  8
0
 10
44.8904
 20
-5.74646
 11
43.7891
 21
-6.39912
  0
LINE
  8
0
 10
43.7891
 20
-6.39912
 11
42.6954
 21
-7.09784
  0
LINE
  8
0
 10
42.6954
 20
-7.09784
 11
41.6102
 21
-7.84113
  0
LINE
  8
0
 10
41.6102
 20
-7.84113
 11
40.5341
 21
-8.62769
  0
LINE
  8
0
 10
40.5341
 20
-8.62769
 11
40.6751
 21
-9.94678
  0
LINE
  8
0
 10
40.6751
 20
-9.94678
 11
41.8932
 21
-10.4881
  0
LINE
  8
0
 10
41.8932
 20
-10.4881
 11
43.111
 21
-10.9852
  0
LINE
  8
0
 10
43.111
 20
-10.9852
 11
44.3276
 21
-11.4369
  0
LINE
  8
0
 10
44.3276
 20
-11.4369
 11
45.542
 21
-11.842
  0
LINE
  8
0
 10
45.542
 20
-11.842
 11
46.7531
 21
-12.1988
  0
LINE
  8
0
 10
46.7531
 20
-12.1988
 11
46.8802
 21
-13.0108
  0
LINE
  8
0
 10
46.8802
 20
-13.0108
 11
47.0069
 21
-13.7739
  0
LINE
  8
0
 10
47.0069
 20
-13.7739
 11
45.9691
 21
-14.493
  0
LINE
  8
0
 10
45.9691
 20
-14.493
 11
44.9434
 21
-15.259
  0
LINE
  8
0
 10
44.9434
 20
-15.259
 11
43.9303
 21
-16.07
  0
LINE
  8
0
 10
43.9303
 20
-16.07
 11
42.9302
 21
-16.9244
  0
LINE
  8
0
 10
42.9302
 20
-16.9244
 11
41.9437
 21
-17.8209
  0
LINE
  8
0
 10
41.9437
 20
-17.8209
 11
42.2241
 21
-19.1176
  0
LINE
  8
0
 10
42.2241
 20
-19.1176
 11
43.4929
 21
-19.5263
  0
LINE
  8
0
 10
43.4929
 20
-19.5263
 11
44.7566
 21
-19.8911
  0
LINE
  8
0
 10
44.7566
 20
-19.8911
 11
46.0144
 21
-20.211
  0
LINE
  8
0
 10
46.0144
 20
-20.211
 11
47.2649
 21
-20.4848
  0
LINE
  8
0
 10
47.2649
 20
-20.4848
 11
48.5071
 21
-20.7108
  0
LINE
  8
0
 10
48.5071
 20
-20.7108
 11
48.7198
 21
-21.5046
  0
LINE
  8
0
 10
48.7198
 20
-21.5046
 11
48.9268
 21
-22.2499
  0
LINE
  8
0
 10
48.9268
 20
-22.2499
 11
47.9714
 21
-23.0753
  0
LINE
  8
0
 10
47.9714
 20
-23.0753
 11
47.0329
 21
-23.946
  0
LINE
  8
0
 10
47.0329
 20
-23.946
 11
46.1117
 21
-24.8601
  0
LINE
  8
0
 10
46.1117
 20
-24.8601
 11
45.2081
 21
-25.816
  0
LINE
  8
0
 10
45.2081
 20
-25.816
 11
44.3226
 21
-26.8123
  0
LINE
  8
0
 10
44.3226
 20
-26.8123
 11
44.7392
 21
-28.0717
  0
LINE
  8
0
 10
44.7392
 20
-28.0717
 11
46.0442
 21
-28.3433
  0
LINE
  8
0
 10
46.0442
 20
-28.3433
 11
47.3396
 21
-28.5717
  0
LINE
  8
0
 10
47.3396
 20
-28.5717
 11
48.6242
 21
-28.7561
  0
LINE
  8
0
 10
48.6242
 20
-28.7561
 11
49.8968
 21
-28.8954
  0
LINE
  8
0
 10
49.8968
 20
-28.8954
 11
51.1559
 21
-28.9881
  0
LINE
  8
0
 10
51.1559
 20
-28.9881
 11
51.4518
 21
-29.7548
  0
LINE
  8
0
 10
51.4518
 20
-29.7548
 11
51.7369
 21
-30.4739
  0
LINE
  8
0
 10
51.7369
 20
-30.4739
 11
50.8746
 21
-31.3961
  0
LINE
  8
0
 10
50.8746
 20
-31.3961
 11
50.034
 21
-32.3617
  0
LINE
  8
0
 10
50.034
 20
-32.3617
 11
49.2152
 21
-33.3685
  0
LINE
  8
0
 10
49.2152
 20
-33.3685
 11
48.4183
 21
-34.415
  0
LINE
  8
0
 10
48.4183
 20
-34.415
 11
47.6436
 21
-35.4998
  0
LINE
  8
0
 10
47.6436
 20
-35.4998
 11
48.1918
 21
-36.7078
  0
LINE
  8
0
 10
48.1918
 20
-36.7078
 11
49.5183
 21
-36.8392
  0
LINE
  8
0
 10
49.5183
 20
-36.8392
 11
50.8306
 21
-36.9286
  0
LINE
  8
0
 10
50.8306
 20
-36.9286
 11
52.1275
 21
-36.9754
  0
LINE
  8
0
 10
52.1275
 20
-36.9754
 11
53.4077
 21
-36.9786
  0
LINE
  8
0
 10
53.4077
 20
-36.9786
 11
54.6696
 21
-36.937
  0
LINE
  8
0
 10
54.6696
 20
-36.937
 11
55.0453
 21
-37.6679
  0
LINE
  8
0
 10
55.0453
 20
-37.6679
 11
55.4052
 21
-38.3526
  0
LINE
  8
0
 10
55.4052
 20
-38.3526
 11
54.6458
 21
-39.3613
  0
LINE
  8
0
 10
54.6458
 20
-39.3613
 11
53.9126
 21
-40.4107
  0
LINE
  8
0
 10
53.9126
 20
-40.4107
 11
53.2054
 21
-41.4988
  0
LINE
  8
0
 10
53.2054
 20
-41.4988
 11
52.5243
 21
-42.6241
  0
LINE
  8
0
 10
52.5243
 20
-42.6241
 11
51.8693
 21
-43.7851
  0
LINE
  8
0
 10
51.8693
 20
-43.7851
 11
52.5428
 21
-44.928
  0
LINE
  8
0
 10
52.5428
 20
-44.928
 11
53.8757
 21
-44.9176
  0
LINE
  8
0
 10
53.8757
 20
-44.9176
 11
55.1902
 21
-44.8671
  0
LINE
  8
0
 10
55.1902
 20
-44.8671
 11
56.4847
 21
-44.7757
  0
LINE
  8
0
 10
56.4847
 20
-44.7757
 11
57.7579
 21
-44.6429
  0
LINE
  8
0
 10
57.7579
 20
-44.6429
 11
59.0083
 21
-44.4673
  0
LINE
  8
0
 10
59.0083
 20
-44.4673
 11
59.4595
 21
-45.1542
  0
LINE
  8
0
 10
59.4595
 20
-45.1542
 11
59.8902
 21
-45.7967
  0
LINE
  8
0
 10
59.8902
 20
-45.7967
 11
59.2423
 21
-46.8804
  0
LINE
  8
0
 10
59.2423
 20
-46.8804
 11
58.6248
 21
-48.0018
  0
LINE
  8
0
 10
58.6248
 20
-48.0018
 11
58.0373
 21
-49.159
  0
LINE
  8
0
 10
58.0373
 20
-49.159
 11
57.4796
 21
-50.3503
  0
LINE
  8
0
 10
57.4796
 20
-50.3503
 11
56.9518
 21
-51.5743
  0
LINE
  8
0
 10
56.9518
 20
-51.5743
 11
57.7429
 21
-52.6392
  0
LINE
  8
0
 10
57.7429
 20
-52.6392
 11
59.0672
 21
-52.4871
  0
LINE
  8
0
 10
59.0672
 20
-52.4871
 11
60.3688
 21
-52.2971
  0
LINE
  8
0
 10
60.3688
 20
-52.2971
 11
61.6463
 21
-52.0687
  0
LINE
  8
0
 10
61.6463
 20
-52.0687
 11
62.8982
 21
-51.8013
  0
LINE
  8
0
 10
62.8982
 20
-51.8013
 11
64.1228
 21
-51.4938
  0
LINE
  8
0
 10
64.1228
 20
-51.4938
 11
64.6445
 21
-52.1288
  0
LINE
  8
0
 10
64.6445
 20
-52.1288
 11
65.141
 21
-52.722
  0
LINE
  8
0
 10
65.141
 20
-52.722
 11
64.612
 21
-53.8684
  0
LINE
  8
0
 10
64.612
 20
-53.8684
 11
64.1172
 21
-55.049
  0
LINE
  8
0
 10
64.1172
 20
-55.049
 11
63.656
 21
-56.2621
  0
LINE
  8
0
 10
63.656
 20
-56.2621
 11
63.2281
 21
-57.506
  0
LINE
  8
0
 10
63.2281
 20
-57.506
 11
62.8334
 21
-58.7791
  0
LINE
  8
0
 10
62.8334
 20
-58.7791
 11
63.7332
 21
-59.7539
  0
LINE
  8
0
 10
63.7332
 20
-59.7539
 11
65.0338
 21
-59.4619
  0
LINE
  8
0
 10
65.0338
 20
-59.4619
 11
66.3078
 21
-59.1347
  0
LINE
  8
0
 10
66.3078
 20
-59.1347
 11
67.5538
 21
-58.7718
  0
LINE
  8
0
 10
67.5538
 20
-58.7718
 11
68.7702
 21
-58.3728
  0
LINE
  8
0
 10
68.7702
 20
-58.3728
 11
69.9552
 21
-57.9369
  0
LINE
  8
0
 10
69.9552
 20
-57.9369
 11
70.5414
 21
-58.5128
  0
LINE
  8
0
 10
70.5414
 20
-58.5128
 11
71.0982
 21
-59.0499
  0
LINE
  8
0
 10
71.0982
 20
-59.0499
 11
70.694
 21
-60.246
  0
LINE
  8
0
 10
70.694
 20
-60.246
 11
70.3275
 21
-61.4726
  0
LINE
  8
0
 10
70.3275
 20
-61.4726
 11
69.9979
 21
-62.7278
  0
LINE
  8
0
 10
69.9979
 20
-62.7278
 11
69.7047
 21
-64.0101
  0
LINE
  8
0
 10
69.7047
 20
-64.0101
 11
69.4475
 21
-65.318
  0
LINE
  8
0
 10
69.4475
 20
-65.318
 11
70.4458
 21
-66.1916
  0
LINE
  8
0
 10
70.4458
 20
-66.1916
 11
71.708
 21
-65.763
  0
LINE
  8
0
 10
71.708
 20
-65.763
 11
72.94
 21
-65.3022
  0
LINE
  8
0
 10
72.94
 20
-65.3022
 11
74.1404
 21
-64.8089
  0
LINE
  8
0
 10
74.1404
 20
-64.8089
 11
75.3075
 21
-64.2829
  0
LINE
  8
0
 10
75.3075
 20
-64.2829
 11
76.4394
 21
-63.7235
  0
LINE
  8
0
 10
76.4394
 20
-63.7235
 11
77.0835
 21
-64.2339
  0
LINE
  8
0
 10
77.0835
 20
-64.2339
 11
77.6942
 21
-64.7087
  0
LINE
  8
0
 10
77.6942
 20
-64.7087
 11
77.4195
 21
-65.941
  0
LINE
  8
0
 10
77.4195
 20
-65.941
 11
77.1854
 21
-67.1996
  0
LINE
  8
0
 10
77.1854
 20
-67.1996
 11
76.9911
 21
-68.4827
  0
LINE
  8
0
 10
76.9911
 20
-68.4827
 11
76.8358
 21
-69.7889
  0
LINE
  8
0
 10
76.8358
 20
-69.7889
 11
76.7191
 21
-71.1167
  0
LINE
  8
0
 10
76.7191
 20
-71.1167
 11
77.8047
 21
-71.8793
  0
LINE
  8
0
 10
77.8047
 20
-71.8793
 11
79.0142
 21
-71.319
  0
LINE
  8
0
 10
79.0142
 20
-71.319
 11
80.1902
 21
-70.7298
  0
LINE
  8
0
 10
80.1902
 20
-70.7298
 11
81.3314
 21
-70.1117
  0
LINE
  8
0
 10
81.3314
 20
-70.1117
 11
82.4359
 21
-69.4646
  0
LINE
  8
0
 10
82.4359
 20
-69.4646
 11
83.502
 21
-68.7881
  0
LINE
  8
0
 10
83.502
 20
-68.7881
 11
84.1967
 21
-69.2271
  0
LINE
  8
0
 10
84.1967
 20
-69.2271
 11
84.8544
 21
-69.6343
  0
LINE
  8
0
 10
84.8544
 20
-69.6343
 11
84.7122
 21
-70.8889
  0
LINE
  8
0
 10
84.7122
 20
-70.8889
 11
84.6133
 21
-72.1652
  0
LINE
  8
0
 10
84.6133
 20
-72.1652
 11
84.5564
 21
-73.4617
  0
LINE
  8
0
 10
84.5564
 20
-73.4617
 11
84.5409
 21
-74.777
  0
LINE
  8
0
 10
84.5409
 20
-74.777
 11
84.5659
 21
-76.1097
  0
LINE
  8
0
 10
84.5659
 20
-76.1097
 11
85.7264
 21
-76.7525
  0
LINE
  8
0
 10
85.7264
 20
-76.7525
 11
86.8695
 21
-76.0669
  0
LINE
  8
0
 10
86.8695
 20
-76.0669
 11
87.9763
 21
-75.3561
  0
LINE
  8
0
 10
87.9763
 20
-75.3561
 11
89.0452
 21
-74.6202
  0
LINE
  8
0
 10
89.0452
 20
-74.6202
 11
90.0748
 21
-73.8593
  0
LINE
  8
0
 10
90.0748
 20
-73.8593
 11
91.0629
 21
-73.0733
  0
LINE
  8
0
 10
91.0629
 20
-73.0733
 11
91.8003
 21
-73.436
  0
LINE
  8
0
 10
91.8003
 20
-73.436
 11
92.4976
 21
-73.771
  0
LINE
  8
0
 10
92.4976
 20
-73.771
 11
92.4895
 21
-75.0335
  0
LINE
  8
0
 10
92.4895
 20
-75.0335
 11
92.5268
 21
-76.3131
  0
LINE
  8
0
 10
92.5268
 20
-76.3131
 11
92.6081
 21
-77.6084
  0
LINE
  8
0
 10
92.6081
 20
-77.6084
 11
92.7325
 21
-78.9179
  0
LINE
  8
0
 10
92.7325
 20
-78.9179
 11
92.8991
 21
-80.2404
  0
LINE
  8
0
 10
92.8991
 20
-80.2404
 11
94.1213
 21
-80.7562
  0
LINE
  8
0
 10
94.1213
 20
-80.7562
 11
95.185
 21
-79.9529
  0
LINE
  8
0
 10
95.185
 20
-79.9529
 11
96.21
 21
-79.1285
  0
LINE
  8
0
 10
96.21
 20
-79.1285
 11
97.1946
 21
-78.2831
  0
LINE
  8
0
 10
97.1946
 20
-78.2831
 11
98.1375
 21
-77.4171
  0
LINE
  8
0
 10
98.1375
 20
-77.4171
 11
99.0364
 21
-76.5306
  0
LINE
  8
0
 10
99.0364
 20
-76.5306
 11
99.8082
 21
-76.8128
  0
LINE
  8
0
 10
99.8082
 20
-76.8128
 11
100.537
 21
-77.0718
  0
LINE
  8
0
 10
100.537
 20
-77.0718
 11
100.663
 21
-78.328
  0
LINE
  8
0
 10
100.663
 20
-78.328
 11
100.836
 21
-79.5965
  0
LINE
  8
0
 10
100.836
 20
-79.5965
 11
101.055
 21
-80.8757
  0
LINE
  8
0
 10
101.055
 20
-80.8757
 11
101.318
 21
-82.1645
  0
LINE
  8
0
 10
101.318
 20
-82.1645
 11
101.624
 21
-83.4619
  0
LINE
  8
0
 10
101.624
 20
-83.4619
 11
102.894
 21
-83.8448
  0
LINE
  8
0
 10
102.894
 20
-83.8448
 11
103.866
 21
-82.933
  0
LINE
  8
0
 10
103.866
 20
-82.933
 11
104.798
 21
-82.0043
  0
LINE
  8
0
 10
104.798
 20
-82.0043
 11
105.687
 21
-81.0591
  0
LINE
  8
0
 10
105.687
 20
-81.0591
 11
106.533
 21
-80.0978
  0
LINE
  8
0
 10
106.533
 20
-80.0978
 11
107.332
 21
-79.1207
  0
LINE
  8
0
 10
107.332
 20
-79.1207
 11
108.13
 21
-79.3193
  0
LINE
  8
0
 10
108.13
 20
-79.3193
 11
108.882
 21
-79.4993
  0
LINE
  8
0
 10
108.882
 20
-79.4993
 11
109.141
 21
-80.7351
  0
LINE
  8
0
 10
109.141
 20
-80.7351
 11
109.448
 21
-81.9779
  0
LINE
  8
0
 10
109.448
 20
-81.9779
 11
109.801
 21
-83.2267
  0
LINE
  8
0
 10
109.801
 20
-83.2267
 11
110.2
 21
-84.4803
  0
LINE
  8
0
 10
110.2
 20
-84.4803
 11
110.642
 21
-85.7377
  0
LINE
  8
0
 10
110.642
 20
-85.7377
 11
111.946
 21
-85.9835
  0
LINE
  8
0
 10
111.946
 20
-85.9835
 11
112.816
 21
-84.9735
  0
LINE
  8
0
 10
112.816
 20
-84.9735
 11
113.643
 21
-83.951
  0
LINE
  8
0
 10
113.643
 20
-83.951
 11
114.427
 21
-82.9166
  0
LINE
  8
0
 10
114.427
 20
-82.9166
 11
115.165
 21
-81.8709
  0
LINE
  8
0
 10
115.165
 20
-81.8709
 11
115.856
 21
-80.8144
  0
LINE
  8
0
 10
115.856
 20
-80.8144
 11
116.67
 21
-80.9271
  0
LINE
  8
0
 10
116.67
 20
-80.9271
 11
117.438
 21
-81.0261
  0
LINE
  8
0
 10
117.438
 20
-81.0261
 11
117.827
 21
-82.2273
  0
LINE
  8
0
 10
117.827
 20
-82.2273
 11
118.264
 21
-83.4305
  0
LINE
  8
0
 10
118.264
 20
-83.4305
 11
118.748
 21
-84.6346
  0
LINE
  8
0
 10
118.748
 20
-84.6346
 11
119.277
 21
-85.8388
  0
LINE
  8
0
 10
119.277
 20
-85.8388
 11
119.851
 21
-87.0421
  0
LINE
  8
0
 10
119.851
 20
-87.0421
 11
121.173
 21
-87.1479
  0
LINE
  8
0
 10
121.173
 20
-87.1479
 11
121.931
 21
-86.0512
  0
LINE
  8
0
 10
121.931
 20
-86.0512
 11
122.645
 21
-84.9465
  0
LINE
  8
0
 10
122.645
 20
-84.9465
 11
123.314
 21
-83.8347
  0
LINE
  8
0
 10
123.314
 20
-83.8347
 11
123.937
 21
-82.7164
  0
LINE
  8
0
 10
123.937
 20
-82.7164
 11
124.512
 21
-81.5924
  0
LINE
  8
0
 10
124.512
 20
-81.5924
 11
125.334
 21
-81.618
  0
LINE
  8
0
 10
125.334
 20
-81.618
 11
126.107
 21
-81.6349
  0
LINE
  8
0
 10
126.107
 20
-81.6349
 11
126.622
 21
-82.7879
  0
LINE
  8
0
 10
126.622
 20
-82.7879
 11
127.184
 21
-83.9378
  0
LINE
  8
0
 10
127.184
 20
-83.9378
 11
127.793
 21
-85.0836
  0
LINE
  8
0
 10
127.793
 20
-85.0836
 11
128.448
 21
-86.2247
  0
LINE
  8
0
 10
128.448
 20
-86.2247
 11
129.146
 21
-87.3602
  0
LINE
  8
0
 10
129.146
 20
-87.3602
 11
130.472
 21
-87.3249
  0
LINE
  8
0
 10
126.374
 20
-4.87547
 11
124.922
 21
-4.29419
  0
LINE
  8
0
 10
124.922
 20
-4.29419
 11
123.72
 21
-3.29256
  0
LINE
  8
0
 10
123.72
 20
-3.29256
 11
122.887
 21
-1.96861
  0
LINE
  8
0
 10
122.887
 20
-1.96861
 11
122.504
 21
-0.451981
  0
LINE
  8
0
 10
122.504
 20
-0.451981
 11
122.608
 21
1.10889
  0
LINE
  8
0
 10
122.608
 20
1.10889
 11
123.189
 21
2.56122
  0
LINE
  8
0
 10
123.189
 20
2.56122
 11
124.191
 21
3.76285
  0
LINE
  8
0
 10
124.191
 20
3.76285
 11
125.514
 21
4.59613
  0
LINE
  8
0
 10
125.514
 20
4.59613
 11
127.031
 21
4.97952
  0
LINE
  8
0
 10
127.031
 20
4.97952
 11
128.592
 21
4.87547
  0
LINE
  8
0
 10
128.592
 20
4.87547
 11
130.044
 21
4.29419
  0
LINE
  8
0
 10
130.044
 20
4.29419
 11
131.246
 21
3.29256
  0
LINE
  8
0
 10
131.246
 20
3.29256
 11
132.079
 21
1.96861
  0
LINE
  8
0
 10
132.079
 20
1.96861
 11
132.463
 21
0.451981
  0
LINE
  8
0
 10
132.463
 20
0.451981
 11
132.359
 21
-1.10889
  0
LINE
  8
0
 10
132.359
 20
-1.10889
 11
131.777
 21
-2.56122
  0
LINE
  8
0
 10
131.777
 20
-2.56122
 11
130.776
 21
-3.76285
  0
LINE
  8
0
 10
130.776
 20
-3.76285
 11
129.452
 21
-4.59613
  0
LINE
  8
0
 10
129.452
 20
-4.59613
 11
127.935
 21
-4.97952
  0
LINE
  8
0
 10
127.935
 20
-4.97952
 11
126.374
 21
-4.87547
  0
LINE
  8
0
 10
1.32727
 20
-44.671
 11
1.96353
 21
-43.5005
  0
LINE
  8
0
 10
1.96353
 20
-43.5005
 11
2.5118
 21
-42.3244
  0
LINE
  8
0
 10
2.5118
 20
-42.3244
 11
2.96651
 21
-41.1461
  0
LINE
  8
0
 10
2.96651
 20
-41.1461
 11
3.31874
 21
-39.9695
  0
LINE
  8
0
 10
3.31874
 20
-39.9695
 11
4.21547
 21
-39.8844
  0
LINE
  8
0
 10
4.21547
 20
-39.8844
 11
5.06389
 21
-39.7861
  0
LINE
  8
0
 10
5.06389
 20
-39.7861
 11
5.65306
 21
-40.8638
  0
LINE
  8
0
 10
5.65306
 20
-40.8638
 11
6.3428
 21
-41.9217
  0
LINE
  8
0
 10
6.3428
 20
-41.9217
 11
7.12361
 21
-42.9581
  0
LINE
  8
0
 10
7.12361
 20
-42.9581
 11
7.98933
 21
-43.9708
  0
LINE
  8
0
 10
7.98933
 20
-43.9708
 11
8.93552
 21
-44.9572
  0
LINE
  8
0
 10
8.93552
 20
-44.9572
 11
10.1227
 21
-44.7049
  0
LINE
  8
0
 10
10.1227
 20
-44.7049
 11
10.5859
 21
-43.4189
  0
LINE
  8
0
 10
10.5859
 20
-43.4189
 11
10.9649
 21
-42.1416
  0
LINE
  8
0
 10
10.9649
 20
-42.1416
 11
11.2567
 21
-40.8773
  0
LINE
  8
0
 10
11.2567
 20
-40.8773
 11
11.4565
 21
-39.6302
  0
LINE
  8
0
 10
11.4565
 20
-39.6302
 11
11.5564
 21
-38.4061
  0
LINE
  8
0
 10
11.5564
 20
-38.4061
 11
12.4158
 21
-38.1364
  0
LINE
  8
0
 10
12.4158
 20
-38.1364
 11
13.2252
 21
-37.8638
  0
LINE
  8
0
 10
13.2252
 20
-37.8638
 11
14.0256
 21
-38.7955
  0
LINE
  8
0
 10
14.0256
 20
-38.7955
 11
14.9202
 21
-39.6869
  0
LINE
  8
0
 10
14.9202
 20
-39.6869
 11
15.8994
 21
-40.5383
  0
LINE
  8
0
 10
15.8994
 20
-40.5383
 11
16.9568
 21
-41.3488
  0
LINE
  8
0
 10
16.9568
 20
-41.3488
 11
18.0874
 21
-42.117
  0
LINE
  8
0
 10
18.0874
 20
-42.117
 11
19.1962
 21
-41.6233
  0
LINE
  8
0
 10
19.1962
 20
-41.6233
 11
19.3819
 21
-40.2691
  0
LINE
  8
0
 10
19.3819
 20
-40.2691
 11
19.487
 21
-38.941
  0
LINE
  8
0
 10
19.487
 20
-38.941
 11
19.5095
 21
-37.6436
  0
LINE
  8
0
 10
19.5095
 20
-37.6436
 11
19.4457
 21
-36.3823
  0
LINE
  8
0
 10
19.4457
 20
-36.3823
 11
19.2889
 21
-35.1641
  0
LINE
  8
0
 10
19.2889
 20
-35.1641
 11
20.0735
 21
-34.7216
  0
LINE
  8
0
 10
20.0735
 20
-34.7216
 11
20.8085
 21
-34.2867
  0
LINE
  8
0
 10
20.8085
 20
-34.2867
 11
21.7851
 21
-35.0316
  0
LINE
  8
0
 10
21.7851
 20
-35.0316
 11
22.8456
 21
-35.7176
  0
LINE
  8
0
 10
22.8456
 20
-35.7176
 11
23.9804
 21
-36.3468
  0
LINE
  8
0
 10
23.9804
 20
-36.3468
 11
25.1832
 21
-36.9197
  0
LINE
  8
0
 10
25.1832
 20
-36.9197
 11
26.4487
 21
-37.4361
  0
LINE
  8
0
 10
26.4487
 20
-37.4361
 11
27.4307
 21
-36.7226
  0
LINE
  8
0
 10
27.4307
 20
-36.7226
 11
27.3307
 21
-35.3594
  0
LINE
  8
0
 10
27.3307
 20
-35.3594
 11
27.1575
 21
-34.0385
  0
LINE
  8
0
 10
27.1575
 20
-34.0385
 11
26.9097
 21
-32.7648
  0
LINE
  8
0
 10
26.9097
 20
-32.7648
 11
26.5851
 21
-31.5443
  0
LINE
  8
0
 10
26.5851
 20
-31.5443
 11
26.1784
 21
-30.3853
  0
LINE
  8
0
 10
26.1784
 20
-30.3853
 11
26.8539
 21
-29.7894
  0
LINE
  8
0
 10
26.8539
 20
-29.7894
 11
27.4824
 21
-29.2111
  0
LINE
  8
0
 10
27.4824
 20
-29.2111
 11
28.5925
 21
-29.7367
  0
LINE
  8
0
 10
28.5925
 20
-29.7367
 11
29.7724
 21
-30.1872
  0
LINE
  8
0
 10
29.7724
 20
-30.1872
 11
31.0133
 21
-30.5667
  0
LINE
  8
0
 10
31.0133
 20
-30.5667
 11
32.3089
 21
-30.8771
  0
LINE
  8
0
 10
32.3089
 20
-30.8771
 11
33.6542
 21
-31.119
  0
LINE
  8
0
 10
33.6542
 20
-31.119
 11
34.4663
 21
-30.217
  0
LINE
  8
0
 10
34.4663
 20
-30.217
 11
34.0851
 21
-28.9044
  0
LINE
  8
0
 10
34.0851
 20
-28.9044
 11
33.641
 21
-27.6483
  0
LINE
  8
0
 10
33.641
 20
-27.6483
 11
33.1339
 21
-26.4539
  0
LINE
  8
0
 10
33.1339
 20
-26.4539
 11
32.5625
 21
-25.3276
  0
LINE
  8
0
 10
32.5625
 20
-25.3276
 11
31.9238
 21
-24.2785
  0
LINE
  8
0
 10
31.9238
 20
-24.2785
 11
32.4606
 21
-23.5551
  0
LINE
  8
0
 10
32.4606
 20
-23.5551
 11
32.9552
 21
-22.8589
  0
LINE
  8
0
 10
32.9552
 20
-22.8589
 11
34.1503
 21
-23.1422
  0
LINE
  8
0
 10
34.1503
 20
-23.1422
 11
35.3981
 21
-23.3375
  0
LINE
  8
0
 10
35.3981
 20
-23.3375
 11
36.6908
 21
-23.4507
  0
LINE
  8
0
 10
36.6908
 20
-23.4507
 11
38.0226
 21
-23.485
  0
LINE
  8
0
 10
38.0226
 20
-23.485
 11
39.3887
 21
-23.4419
  0
LINE
  8
0
 10
39.3887
 20
-23.4419
 11
39.9956
 21
-22.3907
  0
LINE
  8
0
 10
39.9956
 20
-22.3907
 11
39.3499
 21
-21.186
  0
LINE
  8
0
 10
39.3499
 20
-21.186
 11
38.6543
 21
-20.0498
  0
LINE
  8
0
 10
38.6543
 20
-20.0498
 11
37.9099
 21
-18.9869
  0
LINE
  8
0
 10
37.9099
 20
-18.9869
 11
37.1169
 21
-18.004
  0
LINE
  8
0
 10
37.1169
 20
-18.004
 11
36.274
 21
-17.1106
  0
LINE
  8
0
 10
36.274
 20
-17.1106
 11
36.6486
 21
-16.2915
  0
LINE
  8
0
 10
36.6486
 20
-16.2915
 11
36.9877
 21
-15.5076
  0
LINE
  8
0
 10
36.9877
 20
-15.5076
 11
38.2156
 21
-15.5362
  0
LINE
  8
0
 10
38.2156
 20
-15.5362
 11
39.4767
 21
-15.4678
  0
LINE
  8
0
 10
39.4767
 20
-15.4678
 11
40.7646
 21
-15.3098
  0
LINE
  8
0
 10
40.7646
 20
-15.3098
 11
42.0745
 21
-15.0664
  0
LINE
  8
0
 10
42.0745
 20
-15.0664
 11
43.4019
 21
-14.7402
  0
LINE
  8
0
 10
43.4019
 20
-14.7402
 11
43.7769
 21
-13.5859
  0
LINE
  8
0
 10
43.7769
 20
-13.5859
 11
42.8948
 21
-12.5418
  0
LINE
  8
0
 10
42.8948
 20
-12.5418
 11
41.9782
 21
-11.5749
  0
LINE
  8
0
 10
41.9782
 20
-11.5749
 11
41.0291
 21
-10.6901
  0
LINE
  8
0
 10
41.0291
 20
-10.6901
 11
40.049
 21
-9.89352
  0
LINE
  8
0
 10
40.049
 20
-9.89352
 11
39.0388
 21
-9.19492
  0
LINE
  8
0
 10
39.0388
 20
-9.19492
 11
39.235
 21
-8.3158
  0
LINE
  8
0
 10
39.235
 20
-8.3158
 11
39.4036
 21
-7.47852
  0
LINE
  8
0
 10
39.4036
 20
-7.47852
 11
40.6107
 21
-7.25121
  0
LINE
  8
0
 10
40.6107
 20
-7.25121
 11
41.83
 21
-6.92215
  0
LINE
  8
0
 10
41.83
 20
-6.92215
 11
43.0569
 21
-6.49982
  0
LINE
  8
0
 10
43.0569
 20
-6.49982
 11
44.2875
 21
-5.9894
  0
LINE
  8
0
 10
44.2875
 20
-5.9894
 11
45.5181
 21
-5.39435
  0
LINE
  8
0
 10
45.5181
 20
-5.39435
 11
45.6449
 21
-4.18726
  0
LINE
  8
0
 10
45.6449
 20
-4.18726
 11
44.565
 21
-3.34937
  0
LINE
  8
0
 10
44.565
 20
-3.34937
 11
43.4674
 21
-2.59424
  0
LINE
  8
0
 10
43.4674
 20
-2.59424
 11
42.3551
 21
-1.92604
  0
LINE
  8
0
 10
42.3551
 20
-1.92604
 11
41.2308
 21
-1.35066
  0
LINE
  8
0
 10
41.2308
 20
-1.35066
 11
40.0974
 21
-0.877365
  0
LINE
  8
0
 10
40.0974
 20
-0.877365
 11
40.1065
 21
0.0233307
  0
LINE
  8
0
 10
40.1065
 20
0.0233307
 11
40.0974
 21
0.877365
  0
LINE
  8
0
 10
40.0974
 20
0.877365
 11
41.2308
 21
1.35066
  0
LINE
  8
0
 10
41.2308
 20
1.35066
 11
42.3551
 21
1.92604
  0
LINE
  8
0
 10
42.3551
 20
1.92604
 11
43.4674
 21
2.59424
  0
LINE
  8
0
 10
43.4674
 20
2.59424
 11
44.565
 21
3.34937
  0
LINE
  8
0
 10
44.565
 20
3.34937
 11
45.6449
 21
4.18726
  0
LINE
  8
0
 10
45.6449
 20
4.18726
 11
45.5181
 21
5.39435
  0
LINE
  8
0
 10
45.5181
 20
5.39435
 11
44.2875
 21
5.9894
  0
LINE
  8
0
 10
44.2875
 20
5.9894
 11
43.0569
 21
6.49982
  0
LINE
  8
0
 10
43.0569
 20
6.49982
 11
41.83
 21
6.92215
  0
LINE
  8
0
 10
41.83
 20
6.92215
 11
40.6107
 21
7.25121
  0
LINE
  8
0
 10
40.6107
 20
7.25121
 11
39.4036
 21
7.47852
  0
LINE
  8
0
 10
39.4036
 20
7.47852
 11
39.2253
 21
8.36143
  0
LINE
  8
0
 10
39.2253
 20
8.36143
 11
39.0388
 21
9.19492
  0
LINE
  8
0
 10
39.0388
 20
9.19492
 11
40.049
 21
9.89352
  0
LINE
  8
0
 10
40.049
 20
9.89352
 11
41.0291
 21
10.6901
  0
LINE
  8
0
 10
41.0291
 20
10.6901
 11
41.9782
 21
11.5749
  0
LINE
  8
0
 10
41.9782
 20
11.5749
 11
42.8948
 21
12.5418
  0
LINE
  8
0
 10
42.8948
 20
12.5418
 11
43.7769
 21
13.5859
  0
LINE
  8
0
 10
43.7769
 20
13.5859
 11
43.4019
 21
14.7402
  0
LINE
  8
0
 10
43.4019
 20
14.7402
 11
42.0745
 21
15.0664
  0
LINE
  8
0
 10
42.0745
 20
15.0664
 11
40.7646
 21
15.3098
  0
LINE
  8
0
 10
40.7646
 20
15.3098
 11
39.4767
 21
15.4678
  0
LINE
  8
0
 10
39.4767
 20
15.4678
 11
38.2156
 21
15.5362
  0
LINE
  8
0
 10
38.2156
 20
15.5362
 11
36.9877
 21
15.5076
  0
LINE
  8
0
 10
36.9877
 20
15.5076
 11
36.6297
 21
16.3341
  0
LINE
  8
0
 10
36.6297
 20
16.3341
 11
36.274
 21
17.1106
  0
LINE
  8
0
 10
36.274
 20
17.1106
 11
37.1169
 21
18.004
  0
LINE
  8
0
 10
37.1169
 20
18.004
 11
37.9099
 21
18.9869
  0
LINE
  8
0
 10
37.9099
 20
18.9869
 11
38.6543
 21
20.0498
  0
LINE
  8
0
 10
38.6543
 20
20.0498
 11
39.3499
 21
21.186
  0
LINE
  8
0
 10
39.3499
 20
21.186
 11
39.9956
 21
22.3907
  0
LINE
  8
0
 10
39.9956
 20
22.3907
 11
39.3887
 21
23.4419
  0
LINE
  8
0
 10
39.3887
 20
23.4419
 11
38.0226
 21
23.485
  0
LINE
  8
0
 10
38.0226
 20
23.485
 11
36.6908
 21
23.4507
  0
LINE
  8
0
 10
36.6908
 20
23.4507
 11
35.3981
 21
23.3375
  0
LINE
  8
0
 10
35.3981
 20
23.3375
 11
34.1503
 21
23.1422
  0
LINE
  8
0
 10
34.1503
 20
23.1422
 11
32.9552
 21
22.8589
  0
LINE
  8
0
 10
32.9552
 20
22.8589
 11
32.4332
 21
23.5929
  0
LINE
  8
0
 10
32.4332
 20
23.5929
 11
31.9238
 21
24.2785
  0
LINE
  8
0
 10
31.9238
 20
24.2785
 11
32.5625
 21
25.3276
  0
LINE
  8
0
 10
32.5625
 20
25.3276
 11
33.1339
 21
26.4539
  0
LINE
  8
0
 10
33.1339
 20
26.4539
 11
33.641
 21
27.6483
  0
LINE
  8
0
 10
33.641
 20
27.6483
 11
34.0851
 21
28.9044
  0
LINE
  8
0
 10
34.0851
 20
28.9044
 11
34.4663
 21
30.217
  0
LINE
  8
0
 10
34.4663
 20
30.217
 11
33.6542
 21
31.119
  0
LINE
  8
0
 10
33.6542
 20
31.119
 11
32.3089
 21
30.8771
  0
LINE
  8
0
 10
32.3089
 20
30.8771
 11
31.0133
 21
30.5667
  0
LINE
  8
0
 10
31.0133
 20
30.5667
 11
29.7724
 21
30.1872
  0
LINE
  8
0
 10
29.7724
 20
30.1872
 11
28.5925
 21
29.7367
  0
LINE
  8
0
 10
28.5925
 20
29.7367
 11
27.4824
 21
29.2111
  0
LINE
  8
0
 10
27.4824
 20
29.2111
 11
26.8192
 21
29.8206
  0
LINE
  8
0
 10
26.8192
 20
29.8206
 11
26.1784
 21
30.3853
  0
LINE
  8
0
 10
26.1784
 20
30.3853
 11
26.5851
 21
31.5443
  0
LINE
  8
0
 10
26.5851
 20
31.5443
 11
26.9097
 21
32.7648
  0
LINE
  8
0
 10
26.9097
 20
32.7648
 11
27.1575
 21
34.0385
  0
LINE
  8
0
 10
27.1575
 20
34.0385
 11
27.3307
 21
35.3594
  0
LINE
  8
0
 10
27.3307
 20
35.3594
 11
27.4307
 21
36.7226
  0
LINE
  8
0
 10
27.4307
 20
36.7226
 11
26.4487
 21
37.4361
  0
LINE
  8
0
 10
26.4487
 20
37.4361
 11
25.1832
 21
36.9197
  0
LINE
  8
0
 10
25.1832
 20
36.9197
 11
23.9804
 21
36.3468
  0
LINE
  8
0
 10
23.9804
 20
36.3468
 11
22.8456
 21
35.7176
  0
LINE
  8
0
 10
22.8456
 20
35.7176
 11
21.7851
 21
35.0316
  0
LINE
  8
0
 10
21.7851
 20
35.0316
 11
20.8085
 21
34.2867
  0
LINE
  8
0
 10
20.8085
 20
34.2867
 11
20.0331
 21
34.7449
  0
LINE
  8
0
 10
20.0331
 20
34.7449
 11
19.2889
 21
35.1641
  0
LINE
  8
0
 10
19.2889
 20
35.1641
 11
19.4457
 21
36.3823
  0
LINE
  8
0
 10
19.4457
 20
36.3823
 11
19.5095
 21
37.6436
  0
LINE
  8
0
 10
19.5095
 20
37.6436
 11
19.487
 21
38.941
  0
LINE
  8
0
 10
19.487
 20
38.941
 11
19.3819
 21
40.2691
  0
LINE
  8
0
 10
19.3819
 20
40.2691
 11
19.1962
 21
41.6233
  0
LINE
  8
0
 10
19.1962
 20
41.6233
 11
18.0874
 21
42.117
  0
LINE
  8
0
 10
18.0874
 20
42.117
 11
16.9568
 21
41.3488
  0
LINE
  8
0
 10
16.9568
 20
41.3488
 11
15.8994
 21
40.5383
  0
LINE
  8
0
 10
15.8994
 20
40.5383
 11
14.9202
 21
39.6869
  0
LINE
  8
0
 10
14.9202
 20
39.6869
 11
14.0256
 21
38.7955
  0
LINE
  8
0
 10
14.0256
 20
38.7955
 11
13.2252
 21
37.8638
  0
LINE
  8
0
 10
13.2252
 20
37.8638
 11
12.3714
 21
38.1508
  0
LINE
  8
0
 10
12.3714
 20
38.1508
 11
11.5564
 21
38.4061
  0
LINE
  8
0
 10
11.5564
 20
38.4061
 11
11.4565
 21
39.6302
  0
LINE
  8
0
 10
11.4565
 20
39.6302
 11
11.2567
 21
40.8773
  0
LINE
  8
0
 10
11.2567
 20
40.8773
 11
10.9649
 21
42.1416
  0
LINE
  8
0
 10
10.9649
 20
42.1416
 11
10.5859
 21
43.4189
  0
LINE
  8
0
 10
10.5859
 20
43.4189
 11
10.1227
 21
44.7049
  0
LINE
  8
0
 10
10.1227
 20
44.7049
 11
8.93552
 21
44.9572
  0
LINE
  8
0
 10
8.93552
 20
44.9572
 11
7.98933
 21
43.9708
  0
LINE
  8
0
 10
7.98933
 20
43.9708
 11
7.12361
 21
42.9581
  0
LINE
  8
0
 10
7.12361
 20
42.9581
 11
6.3428
 21
41.9217
  0
LINE
  8
0
 10
6.3428
 20
41.9217
 11
5.65306
 21
40.8638
  0
LINE
  8
0
 10
5.65306
 20
40.8638
 11
5.06389
 21
39.7861
  0
LINE
  8
0
 10
5.06389
 20
39.7861
 11
4.16907
 21
39.8893
  0
LINE
  8
0
 10
4.16907
 20
39.8893
 11
3.31876
 21
39.9695
  0
LINE
  8
0
 10
3.31876
 20
39.9695
 11
2.96652
 21
41.1461
  0
LINE
  8
0
 10
2.96652
 20
41.1461
 11
2.51181
 21
42.3244
  0
LINE
  8
0
 10
2.51181
 20
42.3244
 11
1.96355
 21
43.5005
  0
LINE
  8
0
 10
1.96355
 20
43.5005
 11
1.32729
 21
44.671
  0
LINE
  8
0
 10
1.32729
 20
44.671
 11
0.606873
 21
45.8326
  0
LINE
  8
0
 10
0.606873
 20
45.8326
 11
-0.606873
 21
45.8326
  0
LINE
  8
0
 10
-0.606873
 20
45.8326
 11
-1.32729
 21
44.671
  0
LINE
  8
0
 10
-1.32729
 20
44.671
 11
-1.96355
 21
43.5005
  0
LINE
  8
0
 10
-1.96355
 20
43.5005
 11
-2.51181
 21
42.3244
  0
LINE
  8
0
 10
-2.51181
 20
42.3244
 11
-2.96652
 21
41.1461
  0
LINE
  8
0
 10
-2.96652
 20
41.1461
 11
-3.31876
 21
39.9695
  0
LINE
  8
0
 10
-3.31876
 20
39.9695
 11
-4.21547
 21
39.8844
  0
LINE
  8
0
 10
-4.21547
 20
39.8844
 11
-5.06389
 21
39.7861
  0
LINE
  8
0
 10
-5.06389
 20
39.7861
 11
-5.65306
 21
40.8638
  0
LINE
  8
0
 10
-5.65306
 20
40.8638
 11
-6.3428
 21
41.9217
  0
LINE
  8
0
 10
-6.3428
 20
41.9217
 11
-7.12361
 21
42.9581
  0
LINE
  8
0
 10
-7.12361
 20
42.9581
 11
-7.98933
 21
43.9708
  0
LINE
  8
0
 10
-7.98933
 20
43.9708
 11
-8.93552
 21
44.9572
  0
LINE
  8
0
 10
-8.93552
 20
44.9572
 11
-10.1227
 21
44.7049
  0
LINE
  8
0
 10
-10.1227
 20
44.7049
 11
-10.5859
 21
43.4189
  0
LINE
  8
0
 10
-10.5859
 20
43.4189
 11
-10.9649
 21
42.1416
  0
LINE
  8
0
 10
-10.9649
 20
42.1416
 11
-11.2567
 21
40.8773
  0
LINE
  8
0
 10
-11.2567
 20
40.8773
 11
-11.4565
 21
39.6302
  0
LINE
  8
0
 10
-11.4565
 20
39.6302
 11
-11.5564
 21
38.4061
  0
LINE
  8
0
 10
-11.5564
 20
38.4061
 11
-12.4158
 21
38.1364
  0
LINE
  8
0
 10
-12.4158
 20
38.1364
 11
-13.2252
 21
37.8638
  0
LINE
  8
0
 10
-13.2252
 20
37.8638
 11
-14.0256
 21
38.7955
  0
LINE
  8
0
 10
-14.0256
 20
38.7955
 11
-14.9202
 21
39.6869
  0
LINE
  8
0
 10
-14.9202
 20
39.6869
 11
-15.8994
 21
40.5383
  0
LINE
  8
0
 10
-15.8994
 20
40.5383
 11
-16.9568
 21
41.3488
  0
LINE
  8
0
 10
-16.9568
 20
41.3488
 11
-18.0874
 21
42.117
  0
LINE
  8
0
 10
-18.0874
 20
42.117
 11
-19.1962
 21
41.6233
  0
LINE
  8
0
 10
-19.1962
 20
41.6233
 11
-19.3819
 21
40.2691
  0
LINE
  8
0
 10
-19.3819
 20
40.2691
 11
-19.487
 21
38.941
  0
LINE
  8
0
 10
-19.487
 20
38.941
 11
-19.5095
 21
37.6436
  0
LINE
  8
0
 10
-19.5095
 20
37.6436
 11
-19.4457
 21
36.3823
  0
LINE
  8
0
 10
-19.4457
 20
36.3823
 11
-19.2889
 21
35.1641
  0
LINE
  8
0
 10
-19.2889
 20
35.1641
 11
-20.0735
 21
34.7216
  0
LINE
  8
0
 10
-20.0735
 20
34.7216
 11
-20.8085
 21
34.2867
  0
LINE
  8
0
 10
-20.8085
 20
34.2867
 11
-21.7851
 21
35.0316
  0
LINE
  8
0
 10
-21.7851
 20
35.0316
 11
-22.8456
 21
35.7176
  0
LINE
  8
0
 10
-22.8456
 20
35.7176
 11
-23.9804
 21
36.3468
  0
LINE
  8
0
 10
-23.9804
 20
36.3468
 11
-25.1832
 21
36.9197
  0
LINE
  8
0
 10
-25.1832
 20
36.9197
 11
-26.4487
 21
37.4361
  0
LINE
  8
0
 10
-26.4487
 20
37.4361
 11
-27.4307
 21
36.7226
  0
LINE
  8
0
 10
-27.4307
 20
36.7226
 11
-27.3307
 21
35.3594
  0
LINE
  8
0
 10
-27.3307
 20
35.3594
 11
-27.1575
 21
34.0385
  0
LINE
  8
0
 10
-27.1575
 20
34.0385
 11
-26.9097
 21
32.7648
  0
LINE
  8
0
 10
-26.9097
 20
32.7648
 11
-26.5851
 21
31.5443
  0
LINE
  8
0
 10
-26.5851
 20
31.5443
 11
-26.1784
 21
30.3853
  0
LINE
  8
0
 10
-26.1784
 20
30.3853
 11
-26.8539
 21
29.7894
  0
LINE
  8
0
 10
-26.8539
 20
29.7894
 11
-27.4824
 21
29.2111
  0
LINE
  8
0
 10
-27.4824
 20
29.2111
 11
-28.5925
 21
29.7367
  0
LINE
  8
0
 10
-28.5925
 20
29.7367
 11
-29.7724
 21
30.1872
  0
LINE
  8
0
 10
-29.7724
 20
30.1872
 11
-31.0133
 21
30.5667
  0
LINE
  8
0
 10
-31.0133
 20
30.5667
 11
-32.3089
 21
30.8771
  0
LINE
  8
0
 10
-32.3089
 20
30.8771
 11
-33.6542
 21
31.119
  0
LINE
  8
0
 10
-33.6542
 20
31.119
 11
-34.4663
 21
30.217
  0
LINE
  8
0
 10
-34.4663
 20
30.217
 11
-34.0851
 21
28.9044
  0
LINE
  8
0
 10
-34.0851
 20
28.9044
 11
-33.641
 21
27.6483
  0
LINE
  8
0
 10
-33.641
 20
27.6483
 11
-33.1339
 21
26.4539
  0
LINE
  8
0
 10
-33.1339
 20
26.4539
 11
-32.5625
 21
25.3276
  0
LINE
  8
0
 10
-32.5625
 20
25.3276
 11
-31.9238
 21
24.2785
  0
LINE
  8
0
 10
-31.9238
 20
24.2785
 11
-32.4606
 21
23.5551
  0
LINE
  8
0
 10
-32.4606
 20
23.5551
 11
-32.9552
 21
22.8589
  0
LINE
  8
0
 10
-32.9552
 20
22.8589
 11
-34.1503
 21
23.1422
  0
LINE
  8
0
 10
-34.1503
 20
23.1422
 11
-35.3981
 21
23.3375
  0
LINE
  8
0
 10
-35.3981
 20
23.3375
 11
-36.6908
 21
23.4507
  0
LINE
  8
0
 10
-36.6908
 20
23.4507
 11
-38.0226
 21
23.485
  0
LINE
  8
0
 10
-38.0226
 20
23.485
 11
-39.3887
 21
23.4419
  0
LINE
  8
0
 10
-39.3887
 20
23.4419
 11
-39.9956
 21
22.3907
  0
LINE
  8
0
 10
-39.9956
 20
22.3907
 11
-39.3499
 21
21.186
  0
LINE
  8
0
 10
-39.3499
 20
21.186
 11
-38.6543
 21
20.0498
  0
LINE
  8
0
 10
-38.6543
 20
20.0498
 11
-37.9099
 21
18.9869
  0
LINE
  8
0
 10
-37.9099
 20
18.9869
 11
-37.1169
 21
18.004
  0
LINE
  8
0
 10
-37.1169
 20
18.004
 11
-36.274
 21
17.1106
  0
LINE
  8
0
 10
-36.274
 20
17.1106
 11
-36.6486
 21
16.2915
  0
LINE
  8
0
 10
-36.6486
 20
16.2915
 11
-36.9877
 21
15.5076
  0
LINE
  8
0
 10
-36.9877
 20
15.5076
 11
-38.2156
 21
15.5362
  0
LINE
  8
0
 10
-38.2156
 20
15.5362
 11
-39.4767
 21
15.4678
  0
LINE
  8
0
 10
-39.4767
 20
15.4678
 11
-40.7646
 21
15.3098
  0
LINE
  8
0
 10
-40.7646
 20
15.3098
 11
-42.0745
 21
15.0664
  0
LINE
  8
0
 10
-42.0745
 20
15.0664
 11
-43.4019
 21
14.7402
  0
LINE
  8
0
 10
-43.4019
 20
14.7402
 11
-43.7769
 21
13.5859
  0
LINE
  8
0
 10
-43.7769
 20
13.5859
 11
-42.8948
 21
12.5418
  0
LINE
  8
0
 10
-42.8948
 20
12.5418
 11
-41.9782
 21
11.5749
  0
LINE
  8
0
 10
-41.9782
 20
11.5749
 11
-41.0291
 21
10.6901
  0
LINE
  8
0
 10
-41.0291
 20
10.6901
 11
-40.049
 21
9.89352
  0
LINE
  8
0
 10
-40.049
 20
9.89352
 11
-39.0388
 21
9.19492
  0
LINE
  8
0
 10
-39.0388
 20
9.19492
 11
-39.235
 21
8.3158
  0
LINE
  8
0
 10
-39.235
 20
8.3158
 11
-39.4036
 21
7.47852
  0
LINE
  8
0
 10
-39.4036
 20
7.47852
 11
-40.6107
 21
7.25121
  0
LINE
  8
0
 10
-40.6107
 20
7.25121
 11
-41.83
 21
6.92215
  0
LINE
  8
0
 10
-41.83
 20
6.92215
 11
-43.0569
 21
6.49982
  0
LINE
  8
0
 10
-43.0569
 20
6.49982
 11
-44.2875
 21
5.9894
  0
LINE
  8
0
 10
-44.2875
 20
5.9894
 11
-45.5181
 21
5.39435
  0
LINE
  8
0
 10
-45.5181
 20
5.39435
 11
-45.6449
 21
4.18726
  0
LINE
  8
0
 10
-45.6449
 20
4.18726
 11
-44.565
 21
3.34937
  0
LINE
  8
0
 10
-44.565
 20
3.34937
 11
-43.4674
 21
2.59424
  0
LINE
  8
0
 10
-43.4674
 20
2.59424
 11
-42.3551
 21
1.92604
  0
LINE
  8
0
 10
-42.3551
 20
1.92604
 11
-41.2308
 21
1.35066
  0
LINE
  8
0
 10
-41.2308
 20
1.35066
 11
-40.0974
 21
0.877365
  0
LINE
  8
0
 10
-40.0974
 20
0.877365
 11
-40.1065
 21
-0.0233307
  0
LINE
  8
0
 10
-40.1065
 20
-0.0233307
 11
-40.0974
 21
-0.877365
  0
LINE
  8
0
 10
-40.0974
 20
-0.877365
 11
-41.2308
 21
-1.35066
  0
LINE
  8
0
 10
-41.2308
 20
-1.35066
 11
-42.3551
 21
-1.92604
  0
LINE
  8
0
 10
-42.3551
 20
-1.92604
 11
-43.4674
 21
-2.59424
  0
LINE
  8
0
 10
-43.4674
 20
-2.59424
 11
-44.565
 21
-3.34937
  0
LINE
  8
0
 10
-44.565
 20
-3.34937
 11
-45.6449
 21
-4.18726
  0
LINE
  8
0
 10
-45.6449
 20
-4.18726
 11
-45.5181
 21
-5.39435
  0
LINE
  8
0
 10
-45.5181
 20
-5.39435
 11
-44.2875
 21
-5.9894
  0
LINE
  8
0
 10
-44.2875
 20
-5.9894
 11
-43.0569
 21
-6.49982
  0
LINE
  8
0
 10
-43.0569
 20
-6.49982
 11
-41.83
 21
-6.92215
  0
LINE
  8
0
 10
-41.83
 20
-6.92215
 11
-40.6107
 21
-7.25121
  0
LINE
  8
0
 10
-40.6107
 20
-7.25121
 11
-39.4036
 21
-7.47852
  0
LINE
  8
0
 10
-39.4036
 20
-7.47852
 11
-39.2253
 21
-8.36143
  0
LINE
  8
0
 10
-39.2253
 20
-8.36143
 11
-39.0388
 21
-9.19492
  0
LINE
  8
0
 10
-39.0388
 20
-9.19492
 11
-40.049
 21
-9.89352
  0
LINE
  8
0
 10
-40.049
 20
-9.89352
 11
-41.0291
 21
-10.6901
  0
LINE
  8
0
 10
-41.0291
 20
-10.6901
 11
-41.9782
 21
-11.5749
  0
LINE
  8
0
 10
-41.9782
 20
-11.5749
 11
-42.8948
 21
-12.5418
  0
LINE
  8
0
 10
-42.8948
 20
-12.5418
 11
-43.7769
 21
-13.5859
  0
LINE
  8
0
 10
-43.7769
 20
-13.5859
 11
-43.4019
 21
-14.7402
  0
LINE
  8
0
 10
-43.4019
 20
-14.7402
 11
-42.0745
 21
-15.0664
  0
LINE
  8
0
 10
-42.0745
 20
-15.0664
 11
-40.7646
 21
-15.3098
  0
LINE
  8
0
 10
-40.7646
 20
-15.3098
 11
-39.4767
 21
-15.4678
  0
LINE
  8
0
 10
-39.4767
 20
-15.4678
 11
-38.2156
 21
-15.5362
  0
LINE
  8
0
 10
-38.2156
 20
-15.5362
 11
-36.9877
 21
-15.5076
  0
LINE
  8
0
 10
-36.9877
 20
-15.5076
 11
-36.6297
 21
-16.3341
  0
LINE
  8
0
 10
-36.6297
 20
-16.3341
 11
-36.274
 21
-17.1106
  0
LINE
  8
0
 10
-36.274
 20
-17.1106
 11
-37.1169
 21
-18.004
  0
LINE
  8
0
 10
-37.1169
 20
-18.004
 11
-37.9099
 21
-18.9869
  0
LINE
  8
0
 10
-37.9099
 20
-18.9869
 11
-38.6543
 21
-20.0498
  0
LINE
  8
0
 10
-38.6543
 20
-20.0498
 11
-39.3499
 21
-21.186
  0
LINE
  8
0
 10
-39.3499
 20
-21.186
 11
-39.9956
 21
-22.3907
  0
LINE
  8
0
 10
-39.9956
 20
-22.3907
 11
-39.3887
 21
-23.4419
  0
LINE
  8
0
 10
-39.3887
 20
-23.4419
 11
-38.0226
 21
-23.485
  0
LINE
  8
0
 10
-38.0226
 20
-23.485
 11
-36.6908
 21
-23.4507
  0
LINE
  8
0
 10
-36.6908
 20
-23.4507
 11
-35.3981
 21
-23.3375
  0
LINE
  8
0
 10
-35.3981
 20
-23.3375
 11
-34.1503
 21
-23.1422
  0
LINE
  8
0
 10
-34.1503
 20
-23.1422
 11
-32.9552
 21
-22.8589
  0
LINE
  8
0
 10
-32.9552
 20
-22.8589
 11
-32.4332
 21
-23.5929
  0
LINE
  8
0
 10
-32.4332
 20
-23.5929
 11
-31.9238
 21
-24.2785
  0
LINE
  8
0
 10
-31.9238
 20
-24.2785
 11
-32.5625
 21
-25.3276
  0
LINE
  8
0
 10
-32.5625
 20
-25.3276
 11
-33.1339
 21
-26.4539
  0
LINE
  8
0
 10
-33.1339
 20
-26.4539
 11
-33.641
 21
-27.6483
  0
LINE
  8
0
 10
-33.641
 20
-27.6483
 11
-34.0851
 21
-28.9044
  0
LINE
  8
0
 10
-34.0851
 20
-28.9044
 11
-34.4663
 21
-30.217
  0
LINE
  8
0
 10
-34.4663
 20
-30.217
 11
-33.6542
 21
-31.119
  0
LINE
  8
0
 10
-33.6542
 20
-31.119
 11
-32.3089
 21
-30.8771
  0
LINE
  8
0
 10
-32.3089
 20
-30.8771
 11
-31.0133
 21
-30.5667
  0
LINE
  8
0
 10
-31.0133
 20
-30.5667
 11
-29.7724
 21
-30.1872
  0
LINE
  8
0
 10
-29.7724
 20
-30.1872
 11
-28.5925
 21
-29.7367
  0
LINE
  8
0
 10
-28.5925
 20
-29.7367
 11
-27.4824
 21
-29.2111
  0
LINE
  8
0
 10
-27.4824
 20
-29.2111
 11
-26.8192
 21
-29.8206
  0
LINE
  8
0
 10
-26.8192
 20
-29.8206
 11
-26.1784
 21
-30.3853
  0
LINE
  8
0
 10
-26.1784
 20
-30.3853
 11
-26.5851
 21
-31.5443
  0
LINE
  8
0
 10
-26.5851
 20
-31.5443
 11
-26.9097
 21
-32.7648
  0
LINE
  8
0
 10
-26.9097
 20
-32.7648
 11
-27.1575
 21
-34.0385
  0
LINE
  8
0
 10
-27.1575
 20
-34.0385
 11
-27.3307
 21
-35.3594
  0
LINE
  8
0
 10
-27.3307
 20
-35.3594
 11
-27.4307
 21
-36.7226
  0
LINE
  8
0
 10
-27.4307
 20
-36.7226
 11
-26.4487
 21
-37.4361
  0
LINE
  8
0
 10
-26.4487
 20
-37.4361
 11
-25.1832
 21
-36.9197
  0
LINE
  8
0
 10
-25.1832
 20
-36.9197
 11
-23.9804
 21
-36.3468
  0
LINE
  8
0
 10
-23.9804
 20
-36.3468
 11
-22.8456
 21
-35.7176
  0
LINE
  8
0
 10
-22.8456
 20
-35.7176
 11
-21.7851
 21
-35.0316
  0
LINE
  8
0
 10
-21.7851
 20
-35.0316
 11
-20.8085
 21
-34.2867
  0
LINE
  8
0
 10
-20.8085
 20
-34.2867
 11
-20.0331
 21
-34.7449
  0
LINE
  8
0
 10
-20.0331
 20
-34.7449
 11
-19.2889
 21
-35.1641
  0
LINE
  8
0
 10
-19.2889
 20
-35.1641
 11
-19.4457
 21
-36.3823
  0
LINE
  8
0
 10
-19.4457
 20
-36.3823
 11
-19.5095
 21
-37.6436
  0
LINE
  8
0
 10
-19.5095
 20
-37.6436
 11
-19.487
 21
-38.941
  0
LINE
  8
0
 10
-19.487
 20
-38.941
 11
-19.3819
 21
-40.2691
  0
LINE
  8
0
 10
-19.3819
 20
-40.2691
 11
-19.1962
 21
-41.6233
  0
LINE
  8
0
 10
-19.1962
 20
-41.6233
 11
-18.0874
 21
-42.117
  0
LINE
  8
0
 10
-18.0874
 20
-42.117
 11
-16.9568
 21
-41.3488
  0
LINE
  8
0
 10
-16.9568
 20
-41.3488
 11
-15.8994
 21
-40.5383
  0
LINE
  8
0
 10
-15.8994
 20
-40.5383
 11
-14.9202
 21
-39.6869
  0
LINE
  8
0
 10
-14.9202
 20
-39.6869
 11
-14.0256
 21
-38.7955
  0
LINE
  8
0
 10
-14.0256
 20
-38.7955
 11
-13.2252
 21
-37.8638
  0
LINE
  8
0
 10
-13.2252
 20
-37.8638
 11
-12.3714
 21
-38.1508
  0
LINE
  8
0
 10
-12.3714
 20
-38.1508
 11
-11.5564
 21
-38.4061
  0
LINE
  8
0
 10
-11.5564
 20
-38.4061
 11
-11.4565
 21
-39.6302
  0
LINE
  8
0
 10
-11.4565
 20
-39.6302
 11
-11.2567
 21
-40.8773
  0
LINE
  8
0
 10
-11.2567
 20
-40.8773
 11
-10.9649
 21
-42.1416
  0
LINE
  8
0
 10
-10.9649
 20
-42.1416
 11
-10.5859
 21
-43.4189
  0
LINE
  8
0
 10
-10.5859
 20
-43.4189
 11
-10.1227
 21
-44.7049
  0
LINE
  8
0
 10
-10.1227
 20
-44.7049
 11
-8.93552
 21
-44.9572
  0
LINE
  8
0
 10
-8.93552
 20
-44.9572
 11
-7.98933
 21
-43.9708
  0
LINE
  8
0
 10
-7.98933
 20
-43.9708
 11
-7.12361
 21
-42.9581
  0
LINE
  8
0
 10
-7.12361
 20
-42.9581
 11
-6.3428
 21
-41.9217
  0
LINE
  8
0
 10
-6.3428
 20
-41.9217
 11
-5.65306
 21
-40.8638
  0
LINE
  8
0
 10
-5.65306
 20
-40.8638
 11
-5.06389
 21
-39.7861
  0
LINE
  8
0
 10
-5.06389
 20
-39.7861
 11
-4.16907
 21
-39.8893
  0
LINE
  8
0
 10
-4.16907
 20
-39.8893
 11
-3.31876
 21
-39.9695
  0
LINE
  8
0
 10
-3.31876
 20
-39.9695
 11
-2.96652
 21
-41.1461
  0
LINE
  8
0
 10
-2.96652
 20
-41.1461
 11
-2.51181
 21
-42.3244
  0
LINE
  8
0
 10
-2.51181
 20
-42.3244
 11
-1.96355
 21
-43.5005
  0
LINE
  8
0
 10
-1.96355
 20
-43.5005
 11
-1.32729
 21
-44.671
  0
LINE
  8
0
 10
-1.32729
 20
-44.671
 11
-0.606873
 21
-45.8326
  0
LINE
  8
0
 10
-0.606873
 20
-45.8326
 11
0.606857
 21
-45.8326
  0
LINE
  8
0
 10
0.606857
 20
-45.8326
 11
1.32727
 21
-44.671
  0
LINE
  8
0
 10
-1.54507
 20
-4.75528
 11
-2.93892
 21
-4.04507
  0
LINE
  8
0
 10
-2.93892
 20
-4.04507
 11
-4.04507
 21
-2.93892
  0
LINE
  8
0
 10
-4.04507
 20
-2.93892
 11
-4.75528
 21
-1.54507
  0
LINE
  8
0
 10
-4.75528
 20
-1.54507
 11
-5
 21
0
  0
LINE
  8
0
 10
-5
 20
0
 11
-4.75528
 21
1.54507
  0
LINE
  8
0
 10
-4.75528
 20
1.54507
 11
-4.04507
 21
2.93892
  0
LINE
  8
0
 10
-4.04507
 20
2.93892
 11
-2.93892
 21
4.04507
  0
LINE
  8
0
 10
-2.93892
 20
4.04507
 11
-1.54507
 21
4.75528
  0
LINE
  8
0
 10
-1.54507
 20
4.75528
 11
0
 21
5
  0
LINE
  8
0
 10
0
 20
5
 11
1.54507
 21
4.75528
  0
LINE
  8
0
 10
1.54507
 20
4.75528
 11
2.93892
 21
4.04507
  0
LINE
  8
0
 10
2.93892
 20
4.04507
 11
4.04507
 21
2.93892
  0
LINE
  8
0
 10
4.04507
 20
2.93892
 11
4.75528
 21
1.54507
  0
LINE
  8
0
 10
4.75528
 20
1.54507
 11
5
 21
0
  0
LINE
  8
0
 10
5
 20
0
 11
4.75528
 21
-1.54507
  0
LINE
  8
0
 10
4.75528
 20
-1.54507
 11
4.04507
 21
-2.93892
  0
LINE
  8
0
 10
4.04507
 20
-2.93892
 11
2.93892
 21
-4.04507
  0
LINE
  8
0
 10
2.93892
 20
-4.04507
 11
1.54507
 21
-4.75528
  0
LINE
  8
0
 10
1.54507
 20
-4.75528
 11
0
 21
-5
  0
LINE
  8
0
 10
0
 20
-5
 11
-1.54507
 21
-4.75528
  0
ENDSEC
  0
SECTION
  2
OBJECTS
  0
DICTIONARY
  0
ENDSEC
  0
EOF
