  0
SECTION
  2
BLOCKS
  0
ENDSEC
  0
SECTION
  2
ENTITIES
  0
LINE
  8
0
 10
153.387
 20
-110.254
 11
154.019
 21
-109.088
  0
LINE
  8
0
 10
154.019
 20
-109.088
 11
154.615
 21
-107.92
  0
LINE
  8
0
 10
154.615
 20
-107.92
 11
155.176
 21
-106.75
  0
LINE
  8
0
 10
155.176
 20
-106.75
 11
155.7
 21
-105.578
  0
LINE
  8
0
 10
155.7
 20
-105.578
 11
156.187
 21
-104.405
  0
LINE
  8
0
 10
156.187
 20
-104.405
 11
156.991
 21
-104.357
  0
LINE
  8
0
 10
156.991
 20
-104.357
 11
157.747
 21
-104.306
  0
LINE
  8
0
 10
157.747
 20
-104.306
 11
158.377
 21
-105.409
  0
LINE
  8
0
 10
158.377
 20
-105.409
 11
159.044
 21
-106.507
  0
LINE
  8
0
 10
159.044
 20
-106.507
 11
159.747
 21
-107.597
  0
LINE
  8
0
 10
159.747
 20
-107.597
 11
160.485
 21
-108.682
  0
LINE
  8
0
 10
160.485
 20
-108.682
 11
161.257
 21
-109.759
  0
LINE
  8
0
 10
161.257
 20
-109.759
 11
162.603
 21
-109.617
  0
LINE
  8
0
 10
162.603
 20
-109.617
 11
163.134
 21
-108.403
  0
LINE
  8
0
 10
163.134
 20
-108.403
 11
163.631
 21
-107.189
  0
LINE
  8
0
 10
163.631
 20
-107.189
 11
164.092
 21
-105.976
  0
LINE
  8
0
 10
164.092
 20
-105.976
 11
164.516
 21
-104.764
  0
LINE
  8
0
 10
164.516
 20
-104.764
 11
164.903
 21
-103.554
  0
LINE
  8
0
 10
164.903
 20
-103.554
 11
165.701
 21
-103.439
  0
LINE
  8
0
 10
165.701
 20
-103.439
 11
166.449
 21
-103.326
  0
LINE
  8
0
 10
166.449
 20
-103.326
 11
167.169
 21
-104.372
  0
LINE
  8
0
 10
167.169
 20
-104.372
 11
167.926
 21
-105.41
  0
LINE
  8
0
 10
167.926
 20
-105.41
 11
168.718
 21
-106.438
  0
LINE
  8
0
 10
168.718
 20
-106.438
 11
169.544
 21
-107.457
  0
LINE
  8
0
 10
169.544
 20
-107.457
 11
170.404
 21
-108.465
  0
LINE
  8
0
 10
170.404
 20
-108.465
 11
171.732
 21
-108.212
  0
LINE
  8
0
 10
171.732
 20
-108.212
 11
172.161
 21
-106.958
  0
LINE
  8
0
 10
172.161
 20
-106.958
 11
172.554
 21
-105.706
  0
LINE
  8
0
 10
172.554
 20
-105.706
 11
172.912
 21
-104.459
  0
LINE
  8
0
 10
172.912
 20
-104.459
 11
173.233
 21
-103.216
  0
LINE
  8
0
 10
173.233
 20
-103.216
 11
173.517
 21
-101.978
  0
LINE
  8
0
 10
173.517
 20
-101.978
 11
174.303
 21
-101.796
  0
LINE
  8
0
 10
174.303
 20
-101.796
 11
175.039
 21
-101.621
  0
LINE
  8
0
 10
175.039
 20
-101.621
 11
175.844
 21
-102.603
  0
LINE
  8
0
 10
175.844
 20
-102.603
 11
176.685
 21
-103.574
  0
LINE
  8
0
 10
176.685
 20
-103.574
 11
177.56
 21
-104.532
  0
LINE
  8
0
 10
177.56
 20
-104.532
 11
178.469
 21
-105.478
  0
LINE
  8
0
 10
178.469
 20
-105.478
 11
179.41
 21
-106.411
  0
LINE
  8
0
 10
179.41
 20
-106.411
 11
180.713
 21
-106.048
  0
LINE
  8
0
 10
180.713
 20
-106.048
 11
181.034
 21
-104.762
  0
LINE
  8
0
 10
181.034
 20
-104.762
 11
181.322
 21
-103.482
  0
LINE
  8
0
 10
181.322
 20
-103.482
 11
181.574
 21
-102.209
  0
LINE
  8
0
 10
181.574
 20
-102.209
 11
181.79
 21
-100.943
  0
LINE
  8
0
 10
181.79
 20
-100.943
 11
181.969
 21
-99.6858
  0
LINE
  8
0
 10
181.969
 20
-99.6858
 11
182.737
 21
-99.4393
  0
LINE
  8
0
 10
182.737
 20
-99.4393
 11
183.456
 21
-99.2027
  0
LINE
  8
0
 10
183.456
 20
-99.2027
 11
184.341
 21
-100.114
  0
LINE
  8
0
 10
184.341
 20
-100.114
 11
185.259
 21
-101.011
  0
LINE
  8
0
 10
185.259
 20
-101.011
 11
186.212
 21
-101.893
  0
LINE
  8
0
 10
186.212
 20
-101.893
 11
187.196
 21
-102.76
  0
LINE
  8
0
 10
187.196
 20
-102.76
 11
188.212
 21
-103.611
  0
LINE
  8
0
 10
188.212
 20
-103.611
 11
189.48
 21
-103.139
  0
LINE
  8
0
 10
189.48
 20
-103.139
 11
189.693
 21
-101.831
  0
LINE
  8
0
 10
189.693
 20
-101.831
 11
189.872
 21
-100.532
  0
LINE
  8
0
 10
189.872
 20
-100.532
 11
190.017
 21
-99.2419
  0
LINE
  8
0
 10
190.017
 20
-99.2419
 11
190.126
 21
-97.9626
  0
LINE
  8
0
 10
190.126
 20
-97.9626
 11
190.2
 21
-96.6947
  0
LINE
  8
0
 10
190.2
 20
-96.6947
 11
190.944
 21
-96.3848
  0
LINE
  8
0
 10
190.944
 20
-96.3848
 11
191.641
 21
-96.0888
  0
LINE
  8
0
 10
191.641
 20
-96.0888
 11
192.599
 21
-96.9233
  0
LINE
  8
0
 10
192.599
 20
-96.9233
 11
193.59
 21
-97.7401
  0
LINE
  8
0
 10
193.59
 20
-97.7401
 11
194.612
 21
-98.5391
  0
LINE
  8
0
 10
194.612
 20
-98.5391
 11
195.666
 21
-99.3202
  0
LINE
  8
0
 10
195.666
 20
-99.3202
 11
196.75
 21
-100.083
  0
LINE
  8
0
 10
196.75
 20
-100.083
 11
197.974
 21
-99.5075
  0
LINE
  8
0
 10
197.974
 20
-99.5075
 11
198.076
 21
-98.186
  0
LINE
  8
0
 10
198.076
 20
-98.186
 11
198.146
 21
-96.8762
  0
LINE
  8
0
 10
198.146
 20
-96.8762
 11
198.182
 21
-95.5789
  0
LINE
  8
0
 10
198.182
 20
-95.5789
 11
198.184
 21
-94.295
  0
LINE
  8
0
 10
198.184
 20
-94.295
 11
198.152
 21
-93.0253
  0
LINE
  8
0
 10
198.152
 20
-93.0253
 11
198.867
 21
-92.6543
  0
LINE
  8
0
 10
198.867
 20
-92.6543
 11
199.537
 21
-92.3009
  0
LINE
  8
0
 10
199.537
 20
-92.3009
 11
200.561
 21
-93.0524
  0
LINE
  8
0
 10
200.561
 20
-93.0524
 11
201.617
 21
-93.7834
  0
LINE
  8
0
 10
201.617
 20
-93.7834
 11
202.703
 21
-94.494
  0
LINE
  8
0
 10
202.703
 20
-94.494
 11
203.818
 21
-95.1843
  0
LINE
  8
0
 10
203.818
 20
-95.1843
 11
204.962
 21
-95.8541
  0
LINE
  8
0
 10
204.962
 20
-95.8541
 11
206.133
 21
-95.1777
  0
LINE
  8
0
 10
206.133
 20
-95.1777
 11
206.125
 21
-93.8523
  0
LINE
  8
0
 10
206.125
 20
-93.8523
 11
206.085
 21
-92.5413
  0
LINE
  8
0
 10
206.085
 20
-92.5413
 11
206.013
 21
-91.2455
  0
LINE
  8
0
 10
206.013
 20
-91.2455
 11
205.907
 21
-89.9659
  0
LINE
  8
0
 10
205.907
 20
-89.9659
 11
205.768
 21
-88.7034
  0
LINE
  8
0
 10
205.768
 20
-88.7034
 11
206.45
 21
-88.2738
  0
LINE
  8
0
 10
206.45
 20
-88.2738
 11
207.089
 21
-87.8656
  0
LINE
  8
0
 10
207.089
 20
-87.8656
 11
208.172
 21
-88.5287
  0
LINE
  8
0
 10
208.172
 20
-88.5287
 11
209.285
 21
-89.1689
  0
LINE
  8
0
 10
209.285
 20
-89.1689
 11
210.426
 21
-89.7862
  0
LINE
  8
0
 10
210.426
 20
-89.7862
 11
211.596
 21
-90.3807
  0
LINE
  8
0
 10
211.596
 20
-90.3807
 11
212.791
 21
-90.9524
  0
LINE
  8
0
 10
212.791
 20
-90.9524
 11
213.902
 21
-90.1804
  0
LINE
  8
0
 10
213.902
 20
-90.1804
 11
213.783
 21
-88.8603
  0
LINE
  8
0
 10
213.783
 20
-88.8603
 11
213.633
 21
-87.5572
  0
LINE
  8
0
 10
213.633
 20
-87.5572
 11
213.453
 21
-86.2721
  0
LINE
  8
0
 10
213.453
 20
-86.2721
 11
213.241
 21
-85.0058
  0
LINE
  8
0
 10
213.241
 20
-85.0058
 11
212.997
 21
-83.7593
  0
LINE
  8
0
 10
212.997
 20
-83.7593
 11
213.64
 21
-83.2741
  0
LINE
  8
0
 10
213.64
 20
-83.2741
 11
214.242
 21
-82.814
  0
LINE
  8
0
 10
214.242
 20
-82.814
 11
215.377
 21
-83.3842
  0
LINE
  8
0
 10
215.377
 20
-83.3842
 11
216.54
 21
-83.9289
  0
LINE
  8
0
 10
216.54
 20
-83.9289
 11
217.729
 21
-84.4485
  0
LINE
  8
0
 10
217.729
 20
-84.4485
 11
218.944
 21
-84.9431
  0
LINE
  8
0
 10
218.944
 20
-84.9431
 11
220.183
 21
-85.4128
  0
LINE
  8
0
 10
220.183
 20
-85.4128
 11
221.226
 21
-84.5506
  0
LINE
  8
0
 10
221.226
 20
-84.5506
 11
220.996
 21
-83.245
  0
LINE
  8
0
 10
220.996
 20
-83.245
 11
220.738
 21
-81.959
  0
LINE
  8
0
 10
220.738
 20
-81.959
 11
220.451
 21
-80.6935
  0
LINE
  8
0
 10
220.451
 20
-80.6935
 11
220.133
 21
-79.4494
  0
LINE
  8
0
 10
220.133
 20
-79.4494
 11
219.786
 21
-78.2277
  0
LINE
  8
0
 10
219.786
 20
-78.2277
 11
220.387
 21
-77.6904
  0
LINE
  8
0
 10
220.387
 20
-77.6904
 11
220.948
 21
-77.1815
  0
LINE
  8
0
 10
220.948
 20
-77.1815
 11
222.127
 21
-77.6547
  0
LINE
  8
0
 10
222.127
 20
-77.6547
 11
223.331
 21
-78.1003
  0
LINE
  8
0
 10
223.331
 20
-78.1003
 11
224.559
 21
-78.5185
  0
LINE
  8
0
 10
224.559
 20
-78.5185
 11
225.811
 21
-78.9097
  0
LINE
  8
0
 10
225.811
 20
-78.9097
 11
227.086
 21
-79.274
  0
LINE
  8
0
 10
227.086
 20
-79.274
 11
228.052
 21
-78.3276
  0
LINE
  8
0
 10
228.052
 20
-78.3276
 11
227.715
 21
-77.0458
  0
LINE
  8
0
 10
227.715
 20
-77.0458
 11
227.35
 21
-75.786
  0
LINE
  8
0
 10
227.35
 20
-75.786
 11
226.957
 21
-74.5489
  0
LINE
  8
0
 10
226.957
 20
-74.5489
 11
226.537
 21
-73.3357
  0
LINE
  8
0
 10
226.537
 20
-73.3357
 11
226.089
 21
-72.1474
  0
LINE
  8
0
 10
226.089
 20
-72.1474
 11
226.642
 21
-71.5617
  0
LINE
  8
0
 10
226.642
 20
-71.5617
 11
227.159
 21
-71.0076
  0
LINE
  8
0
 10
227.159
 20
-71.0076
 11
228.373
 21
-71.3806
  0
LINE
  8
0
 10
228.373
 20
-71.3806
 11
229.61
 21
-71.7238
  0
LINE
  8
0
 10
229.61
 20
-71.7238
 11
230.869
 21
-72.0378
  0
LINE
  8
0
 10
230.869
 20
-72.0378
 11
232.15
 21
-72.3228
  0
LINE
  8
0
 10
232.15
 20
-72.3228
 11
233.45
 21
-72.5792
  0
LINE
  8
0
 10
233.45
 20
-72.5792
 11
234.334
 21
-71.5553
  0
LINE
  8
0
 10
234.334
 20
-71.5553
 11
233.89
 21
-70.3062
  0
LINE
  8
0
 10
233.89
 20
-70.3062
 11
233.421
 21
-69.0813
  0
LINE
  8
0
 10
233.421
 20
-69.0813
 11
232.927
 21
-67.8815
  0
LINE
  8
0
 10
232.927
 20
-67.8815
 11
232.407
 21
-66.7076
  0
LINE
  8
0
 10
232.407
 20
-66.7076
 11
231.86
 21
-65.561
  0
LINE
  8
0
 10
231.86
 20
-65.561
 11
232.363
 21
-64.931
  0
LINE
  8
0
 10
232.363
 20
-64.931
 11
232.831
 21
-64.3357
  0
LINE
  8
0
 10
232.831
 20
-64.3357
 11
234.073
 21
-64.6057
  0
LINE
  8
0
 10
234.073
 20
-64.6057
 11
235.334
 21
-64.8442
  0
LINE
  8
0
 10
235.334
 20
-64.8442
 11
236.615
 21
-65.0517
  0
LINE
  8
0
 10
236.615
 20
-65.0517
 11
237.915
 21
-65.2287
  0
LINE
  8
0
 10
237.915
 20
-65.2287
 11
239.232
 21
-65.3754
  0
LINE
  8
0
 10
239.232
 20
-65.3754
 11
240.027
 21
-64.281
  0
LINE
  8
0
 10
240.027
 20
-64.281
 11
239.481
 21
-63.0735
  0
LINE
  8
0
 10
239.481
 20
-63.0735
 11
238.911
 21
-61.8921
  0
LINE
  8
0
 10
238.911
 20
-61.8921
 11
238.318
 21
-60.7378
  0
LINE
  8
0
 10
238.318
 20
-60.7378
 11
237.701
 21
-59.6117
  0
LINE
  8
0
 10
237.701
 20
-59.6117
 11
237.061
 21
-58.5148
  0
LINE
  8
0
 10
237.061
 20
-58.5148
 11
237.509
 21
-57.8449
  0
LINE
  8
0
 10
237.509
 20
-57.8449
 11
237.926
 21
-57.2125
  0
LINE
  8
0
 10
237.926
 20
-57.2125
 11
239.185
 21
-57.3777
  0
LINE
  8
0
 10
239.185
 20
-57.3777
 11
240.462
 21
-57.5098
  0
LINE
  8
0
 10
240.462
 20
-57.5098
 11
241.756
 21
-57.6094
  0
LINE
  8
0
 10
241.756
 20
-57.6094
 11
243.066
 21
-57.677
  0
LINE
  8
0
 10
243.066
 20
-57.677
 11
244.391
 21
-57.7129
  0
LINE
  8
0
 10
244.391
 20
-57.7129
 11
245.092
 21
-56.5559
  0
LINE
  8
0
 10
245.092
 20
-56.5559
 11
244.446
 21
-55.3983
  0
LINE
  8
0
 10
244.446
 20
-55.3983
 11
243.779
 21
-54.2688
  0
LINE
  8
0
 10
243.779
 20
-54.2688
 11
243.092
 21
-53.1682
  0
LINE
  8
0
 10
243.092
 20
-53.1682
 11
242.383
 21
-52.0976
  0
LINE
  8
0
 10
242.383
 20
-52.0976
 11
241.653
 21
-51.0581
  0
LINE
  8
0
 10
241.653
 20
-51.0581
 11
242.044
 21
-50.3531
  0
LINE
  8
0
 10
242.044
 20
-50.3531
 11
242.406
 21
-49.688
  0
LINE
  8
0
 10
242.406
 20
-49.688
 11
243.675
 21
-49.7473
  0
LINE
  8
0
 10
243.675
 20
-49.7473
 11
244.959
 21
-49.772
  0
LINE
  8
0
 10
244.959
 20
-49.772
 11
246.256
 21
-49.763
  0
LINE
  8
0
 10
246.256
 20
-49.763
 11
247.567
 21
-49.7207
  0
LINE
  8
0
 10
247.567
 20
-49.7207
 11
248.891
 21
-49.6456
  0
LINE
  8
0
 10
248.891
 20
-49.6456
 11
249.492
 21
-48.434
  0
LINE
  8
0
 10
249.492
 20
-48.434
 11
248.752
 21
-47.3345
  0
LINE
  8
0
 10
248.752
 20
-47.3345
 11
247.993
 21
-46.2648
  0
LINE
  8
0
 10
247.993
 20
-46.2648
 11
247.216
 21
-45.2256
  0
LINE
  8
0
 10
247.216
 20
-45.2256
 11
246.42
 21
-44.218
  0
LINE
  8
0
 10
246.42
 20
-44.218
 11
245.605
 21
-43.2433
  0
LINE
  8
0
 10
245.605
 20
-43.2433
 11
245.936
 21
-42.508
  0
LINE
  8
0
 10
245.936
 20
-42.508
 11
246.241
 21
-41.815
  0
LINE
  8
0
 10
246.241
 20
-41.815
 11
247.511
 21
-41.7679
  0
LINE
  8
0
 10
247.511
 20
-41.7679
 11
248.792
 21
-41.6851
  0
LINE
  8
0
 10
248.792
 20
-41.6851
 11
250.084
 21
-41.5675
  0
LINE
  8
0
 10
250.084
 20
-41.5675
 11
251.387
 21
-41.4157
  0
LINE
  8
0
 10
251.387
 20
-41.4157
 11
252.7
 21
-41.2301
  0
LINE
  8
0
 10
252.7
 20
-41.2301
 11
253.198
 21
-39.9724
  0
LINE
  8
0
 10
253.198
 20
-39.9724
 11
252.368
 21
-38.9388
  0
LINE
  8
0
 10
252.368
 20
-38.9388
 11
251.522
 21
-37.9362
  0
LINE
  8
0
 10
251.522
 20
-37.9362
 11
250.66
 21
-36.9658
  0
LINE
  8
0
 10
250.66
 20
-36.9658
 11
249.783
 21
-36.0284
  0
LINE
  8
0
 10
249.783
 20
-36.0284
 11
248.89
 21
-35.1252
  0
LINE
  8
0
 10
248.89
 20
-35.1252
 11
249.158
 21
-34.3648
  0
LINE
  8
0
 10
249.158
 20
-34.3648
 11
249.404
 21
-33.6486
  0
LINE
  8
0
 10
249.404
 20
-33.6486
 11
250.665
 21
-33.4955
  0
LINE
  8
0
 10
250.665
 20
-33.4955
 11
251.935
 21
-33.3058
  0
LINE
  8
0
 10
251.935
 20
-33.3058
 11
253.213
 21
-33.0805
  0
LINE
  8
0
 10
253.213
 20
-33.0805
 11
254.499
 21
-32.8202
  0
LINE
  8
0
 10
254.499
 20
-32.8202
 11
255.791
 21
-32.5255
  0
LINE
  8
0
 10
255.791
 20
-32.5255
 11
256.182
 21
-31.2305
  0
LINE
  8
0
 10
256.182
 20
-31.2305
 11
255.269
 21
-30.2699
  0
LINE
  8
0
 10
255.269
 20
-30.2699
 11
254.342
 21
-29.3416
  0
LINE
  8
0
 10
254.342
 20
-29.3416
 11
253.402
 21
-28.4467
  0
LINE
  8
0
 10
253.402
 20
-28.4467
 11
252.449
 21
-27.586
  0
LINE
  8
0
 10
252.449
 20
-27.586
 11
251.484
 21
-26.7607
  0
LINE
  8
0
 10
251.484
 20
-26.7607
 11
251.687
 21
-25.9806
  0
LINE
  8
0
 10
251.687
 20
-25.9806
 11
251.873
 21
-25.2463
  0
LINE
  8
0
 10
251.873
 20
-25.2463
 11
253.116
 21
-24.9882
  0
LINE
  8
0
 10
253.116
 20
-24.9882
 11
254.366
 21
-24.6929
  0
LINE
  8
0
 10
254.366
 20
-24.6929
 11
255.621
 21
-24.3614
  0
LINE
  8
0
 10
255.621
 20
-24.3614
 11
256.88
 21
-23.9944
  0
LINE
  8
0
 10
256.88
 20
-23.9944
 11
258.143
 21
-23.5926
  0
LINE
  8
0
 10
258.143
 20
-23.5926
 11
258.424
 21
-22.2695
  0
LINE
  8
0
 10
258.424
 20
-22.2695
 11
257.434
 21
-21.3887
  0
LINE
  8
0
 10
257.434
 20
-21.3887
 11
256.433
 21
-20.5412
  0
LINE
  8
0
 10
256.433
 20
-20.5412
 11
255.421
 21
-19.728
  0
LINE
  8
0
 10
255.421
 20
-19.728
 11
254.4
 21
-18.9501
  0
LINE
  8
0
 10
254.4
 20
-18.9501
 11
253.369
 21
-18.2085
  0
LINE
  8
0
 10
253.369
 20
-18.2085
 11
253.506
 21
-17.4141
  0
LINE
  8
0
 10
253.506
 20
-17.4141
 11
253.629
 21
-16.6668
  0
LINE
  8
0
 10
253.629
 20
-16.6668
 11
254.847
 21
-16.3056
  0
LINE
  8
0
 10
254.847
 20
-16.3056
 11
256.067
 21
-15.9068
  0
LINE
  8
0
 10
256.067
 20
-15.9068
 11
257.29
 21
-15.4715
  0
LINE
  8
0
 10
257.29
 20
-15.4715
 11
258.514
 21
-15.0004
  0
LINE
  8
0
 10
258.514
 20
-15.0004
 11
259.739
 21
-14.4943
  0
LINE
  8
0
 10
259.739
 20
-14.4943
 11
259.909
 21
-13.1523
  0
LINE
  8
0
 10
259.909
 20
-13.1523
 11
258.848
 21
-12.3574
  0
LINE
  8
0
 10
258.848
 20
-12.3574
 11
257.78
 21
-11.5967
  0
LINE
  8
0
 10
257.78
 20
-11.5967
 11
256.704
 21
-10.871
  0
LINE
  8
0
 10
256.704
 20
-10.871
 11
255.621
 21
-10.1813
  0
LINE
  8
0
 10
255.621
 20
-10.1813
 11
254.531
 21
-9.5285
  0
LINE
  8
0
 10
254.531
 20
-9.5285
 11
254.601
 21
-8.72548
  0
LINE
  8
0
 10
254.601
 20
-8.72548
 11
254.662
 21
-7.9705
  0
LINE
  8
0
 10
254.662
 20
-7.9705
 11
255.845
 21
-7.50859
  0
LINE
  8
0
 10
255.845
 20
-7.50859
 11
257.028
 21
-7.00908
  0
LINE
  8
0
 10
257.028
 20
-7.00908
 11
258.21
 21
-6.47298
  0
LINE
  8
0
 10
258.21
 20
-6.47298
 11
259.39
 21
-5.90114
  0
LINE
  8
0
 10
259.39
 20
-5.90114
 11
260.569
 21
-5.29431
  0
LINE
  8
0
 10
260.569
 20
-5.29431
 11
260.625
 21
-3.94279
  0
LINE
  8
0
 10
260.625
 20
-3.94279
 11
259.502
 21
-3.2395
  0
LINE
  8
0
 10
259.502
 20
-3.2395
 11
258.373
 21
-2.57088
  0
LINE
  8
0
 10
258.373
 20
-2.57088
 11
257.24
 21
-1.93776
  0
LINE
  8
0
 10
257.24
 20
-1.93776
 11
256.104
 21
-1.34103
  0
LINE
  8
0
 10
256.104
 20
-1.34103
 11
254.963
 21
-0.781738
  0
LINE
  8
0
 10
254.963
 20
-0.781738
 11
254.966
 21
0.0243225
  0
LINE
  8
0
 10
254.966
 20
0.0243225
 11
254.963
 21
0.781738
  0
LINE
  8
0
 10
254.963
 20
0.781738
 11
256.104
 21
1.34103
  0
LINE
  8
0
 10
256.104
 20
1.34103
 11
257.24
 21
1.93776
  0
LINE
  8
0
 10
257.24
 20
1.93776
 11
258.373
 21
2.57088
  0
LINE
  8
0
 10
258.373
 20
2.57088
 11
259.502
 21
3.2395
  0
LINE
  8
0
 10
259.502
 20
3.2395
 11
260.625
 21
3.94279
  0
LINE
  8
0
 10
260.625
 20
3.94279
 11
260.569
 21
5.29431
  0
LINE
  8
0
 10
260.569
 20
5.29431
 11
259.39
 21
5.90114
  0
LINE
  8
0
 10
259.39
 20
5.90114
 11
258.21
 21
6.47298
  0
LINE
  8
0
 10
258.21
 20
6.47298
 11
257.028
 21
7.00908
  0
LINE
  8
0
 10
257.028
 20
7.00908
 11
255.845
 21
7.50859
  0
LINE
  8
0
 10
255.845
 20
7.50859
 11
254.662
 21
7.97049
  0
LINE
  8
0
 10
254.662
 20
7.97049
 11
254.597
 21
8.77399
  0
LINE
  8
0
 10
254.597
 20
8.77399
 11
254.531
 21
9.5285
  0
LINE
  8
0
 10
254.531
 20
9.5285
 11
255.621
 21
10.1813
  0
LINE
  8
0
 10
255.621
 20
10.1813
 11
256.704
 21
10.871
  0
LINE
  8
0
 10
256.704
 20
10.871
 11
257.78
 21
11.5967
  0
LINE
  8
0
 10
257.78
 20
11.5967
 11
258.848
 21
12.3574
  0
LINE
  8
0
 10
258.848
 20
12.3574
 11
259.909
 21
13.1523
  0
LINE
  8
0
 10
259.909
 20
13.1523
 11
259.739
 21
14.4943
  0
LINE
  8
0
 10
259.739
 20
14.4943
 11
258.514
 21
15.0004
  0
LINE
  8
0
 10
258.514
 20
15.0004
 11
257.29
 21
15.4715
  0
LINE
  8
0
 10
257.29
 20
15.4715
 11
256.067
 21
15.9068
  0
LINE
  8
0
 10
256.067
 20
15.9068
 11
254.847
 21
16.3056
  0
LINE
  8
0
 10
254.847
 20
16.3056
 11
253.629
 21
16.6668
  0
LINE
  8
0
 10
253.629
 20
16.6668
 11
253.498
 21
17.4621
  0
LINE
  8
0
 10
253.498
 20
17.4621
 11
253.369
 21
18.2085
  0
LINE
  8
0
 10
253.369
 20
18.2085
 11
254.4
 21
18.9501
  0
LINE
  8
0
 10
254.4
 20
18.9501
 11
255.421
 21
19.728
  0
LINE
  8
0
 10
255.421
 20
19.728
 11
256.433
 21
20.5412
  0
LINE
  8
0
 10
256.433
 20
20.5412
 11
257.434
 21
21.3887
  0
LINE
  8
0
 10
257.434
 20
21.3887
 11
258.424
 21
22.2695
  0
LINE
  8
0
 10
258.424
 20
22.2695
 11
258.143
 21
23.5926
  0
LINE
  8
0
 10
258.143
 20
23.5926
 11
256.88
 21
23.9944
  0
LINE
  8
0
 10
256.88
 20
23.9944
 11
255.621
 21
24.3614
  0
LINE
  8
0
 10
255.621
 20
24.3614
 11
254.366
 21
24.6929
  0
LINE
  8
0
 10
254.366
 20
24.6929
 11
253.116
 21
24.9882
  0
LINE
  8
0
 10
253.116
 20
24.9882
 11
251.873
 21
25.2463
  0
LINE
  8
0
 10
251.873
 20
25.2463
 11
251.675
 21
26.0277
  0
LINE
  8
0
 10
251.675
 20
26.0277
 11
251.484
 21
26.7607
  0
LINE
  8
0
 10
251.484
 20
26.7607
 11
252.449
 21
27.586
  0
LINE
  8
0
 10
252.449
 20
27.586
 11
253.402
 21
28.4467
  0
LINE
  8
0
 10
253.402
 20
28.4467
 11
254.342
 21
29.3416
  0
LINE
  8
0
 10
254.342
 20
29.3416
 11
255.269
 21
30.2699
  0
LINE
  8
0
 10
255.269
 20
30.2699
 11
256.182
 21
31.2305
  0
LINE
  8
0
 10
256.182
 20
31.2305
 11
255.791
 21
32.5255
  0
LINE
  8
0
 10
255.791
 20
32.5255
 11
254.499
 21
32.8201
  0
LINE
  8
0
 10
254.499
 20
32.8201
 11
253.213
 21
33.0805
  0
LINE
  8
0
 10
253.213
 20
33.0805
 11
251.935
 21
33.3058
  0
LINE
  8
0
 10
251.935
 20
33.3058
 11
250.665
 21
33.4955
  0
LINE
  8
0
 10
250.665
 20
33.4955
 11
249.404
 21
33.6486
  0
LINE
  8
0
 10
249.404
 20
33.6486
 11
249.142
 21
34.4108
  0
LINE
  8
0
 10
249.142
 20
34.4108
 11
248.89
 21
35.1252
  0
LINE
  8
0
 10
248.89
 20
35.1252
 11
249.783
 21
36.0284
  0
LINE
  8
0
 10
249.783
 20
36.0284
 11
250.66
 21
36.9658
  0
LINE
  8
0
 10
250.66
 20
36.9658
 11
251.522
 21
37.9362
  0
LINE
  8
0
 10
251.522
 20
37.9362
 11
252.368
 21
38.9388
  0
LINE
  8
0
 10
252.368
 20
38.9388
 11
253.198
 21
39.9724
  0
LINE
  8
0
 10
253.198
 20
39.9724
 11
252.7
 21
41.2301
  0
LINE
  8
0
 10
252.7
 20
41.2301
 11
251.387
 21
41.4157
  0
LINE
  8
0
 10
251.387
 20
41.4157
 11
250.084
 21
41.5675
  0
LINE
  8
0
 10
250.084
 20
41.5675
 11
248.792
 21
41.6851
  0
LINE
  8
0
 10
248.792
 20
41.6851
 11
247.511
 21
41.7679
  0
LINE
  8
0
 10
247.511
 20
41.7679
 11
246.241
 21
41.815
  0
LINE
  8
0
 10
246.241
 20
41.815
 11
245.916
 21
42.5525
  0
LINE
  8
0
 10
245.916
 20
42.5525
 11
245.605
 21
43.2433
  0
LINE
  8
0
 10
245.605
 20
43.2433
 11
246.42
 21
44.218
  0
LINE
  8
0
 10
246.42
 20
44.218
 11
247.216
 21
45.2256
  0
LINE
  8
0
 10
247.216
 20
45.2256
 11
247.993
 21
46.2648
  0
LINE
  8
0
 10
247.993
 20
46.2648
 11
248.752
 21
47.3345
  0
LINE
  8
0
 10
248.752
 20
47.3345
 11
249.492
 21
48.434
  0
LINE
  8
0
 10
249.492
 20
48.434
 11
248.891
 21
49.6456
  0
LINE
  8
0
 10
248.891
 20
49.6456
 11
247.567
 21
49.7207
  0
LINE
  8
0
 10
247.567
 20
49.7207
 11
246.256
 21
49.763
  0
LINE
  8
0
 10
246.256
 20
49.763
 11
244.959
 21
49.772
  0
LINE
  8
0
 10
244.959
 20
49.772
 11
243.675
 21
49.7473
  0
LINE
  8
0
 10
243.675
 20
49.7473
 11
242.406
 21
49.688
  0
LINE
  8
0
 10
242.406
 20
49.688
 11
242.02
 21
50.3957
  0
LINE
  8
0
 10
242.02
 20
50.3957
 11
241.653
 21
51.0581
  0
LINE
  8
0
 10
241.653
 20
51.0581
 11
242.383
 21
52.0976
  0
LINE
  8
0
 10
242.383
 20
52.0976
 11
243.092
 21
53.1682
  0
LINE
  8
0
 10
243.092
 20
53.1682
 11
243.779
 21
54.2688
  0
LINE
  8
0
 10
243.779
 20
54.2688
 11
244.446
 21
55.3983
  0
LINE
  8
0
 10
244.446
 20
55.3983
 11
245.092
 21
56.5559
  0
LINE
  8
0
 10
245.092
 20
56.5559
 11
244.391
 21
57.7129
  0
LINE
  8
0
 10
244.391
 20
57.7129
 11
243.066
 21
57.677
  0
LINE
  8
0
 10
243.066
 20
57.677
 11
241.756
 21
57.6094
  0
LINE
  8
0
 10
241.756
 20
57.6094
 11
240.462
 21
57.5098
  0
LINE
  8
0
 10
240.462
 20
57.5098
 11
239.185
 21
57.3777
  0
LINE
  8
0
 10
239.185
 20
57.3777
 11
237.926
 21
57.2125
  0
LINE
  8
0
 10
237.926
 20
57.2125
 11
237.482
 21
57.8854
  0
LINE
  8
0
 10
237.482
 20
57.8854
 11
237.061
 21
58.5148
  0
LINE
  8
0
 10
237.061
 20
58.5148
 11
237.701
 21
59.6117
  0
LINE
  8
0
 10
237.701
 20
59.6117
 11
238.318
 21
60.7378
  0
LINE
  8
0
 10
238.318
 20
60.7378
 11
238.911
 21
61.8921
  0
LINE
  8
0
 10
238.911
 20
61.8921
 11
239.481
 21
63.0735
  0
LINE
  8
0
 10
239.481
 20
63.0735
 11
240.027
 21
64.281
  0
LINE
  8
0
 10
240.027
 20
64.281
 11
239.232
 21
65.3754
  0
LINE
  8
0
 10
239.232
 20
65.3754
 11
237.915
 21
65.2287
  0
LINE
  8
0
 10
237.915
 20
65.2287
 11
236.615
 21
65.0517
  0
LINE
  8
0
 10
236.615
 20
65.0517
 11
235.334
 21
64.8442
  0
LINE
  8
0
 10
235.334
 20
64.8442
 11
234.073
 21
64.6057
  0
LINE
  8
0
 10
234.073
 20
64.6057
 11
232.831
 21
64.3357
  0
LINE
  8
0
 10
232.831
 20
64.3357
 11
232.333
 21
64.9691
  0
LINE
  8
0
 10
232.333
 20
64.9691
 11
231.86
 21
65.561
  0
LINE
  8
0
 10
231.86
 20
65.561
 11
232.407
 21
66.7076
  0
LINE
  8
0
 10
232.407
 20
66.7076
 11
232.927
 21
67.8815
  0
LINE
  8
0
 10
232.927
 20
67.8815
 11
233.421
 21
69.0813
  0
LINE
  8
0
 10
233.421
 20
69.0813
 11
233.89
 21
70.3062
  0
LINE
  8
0
 10
233.89
 20
70.3062
 11
234.334
 21
71.5553
  0
LINE
  8
0
 10
234.334
 20
71.5553
 11
233.45
 21
72.5792
  0
LINE
  8
0
 10
233.45
 20
72.5792
 11
232.15
 21
72.3228
  0
LINE
  8
0
 10
232.15
 20
72.3228
 11
230.869
 21
72.0378
  0
LINE
  8
0
 10
230.869
 20
72.0378
 11
229.61
 21
71.7238
  0
LINE
  8
0
 10
229.61
 20
71.7238
 11
228.373
 21
71.3806
  0
LINE
  8
0
 10
228.373
 20
71.3806
 11
227.159
 21
71.0076
  0
LINE
  8
0
 10
227.159
 20
71.0076
 11
226.609
 21
71.5971
  0
LINE
  8
0
 10
226.609
 20
71.5971
 11
226.089
 21
72.1474
  0
LINE
  8
0
 10
226.089
 20
72.1474
 11
226.537
 21
73.3357
  0
LINE
  8
0
 10
226.537
 20
73.3357
 11
226.957
 21
74.5489
  0
LINE
  8
0
 10
226.957
 20
74.5489
 11
227.35
 21
75.786
  0
LINE
  8
0
 10
227.35
 20
75.786
 11
227.715
 21
77.0458
  0
LINE
  8
0
 10
227.715
 20
77.0458
 11
228.052
 21
78.3276
  0
LINE
  8
0
 10
228.052
 20
78.3276
 11
227.086
 21
79.274
  0
LINE
  8
0
 10
227.086
 20
79.274
 11
225.811
 21
78.9097
  0
LINE
  8
0
 10
225.811
 20
78.9097
 11
224.559
 21
78.5185
  0
LINE
  8
0
 10
224.559
 20
78.5185
 11
223.331
 21
78.1003
  0
LINE
  8
0
 10
223.331
 20
78.1003
 11
222.127
 21
77.6547
  0
LINE
  8
0
 10
222.127
 20
77.6547
 11
220.948
 21
77.1815
  0
LINE
  8
0
 10
220.948
 20
77.1815
 11
220.351
 21
77.7229
  0
LINE
  8
0
 10
220.351
 20
77.7229
 11
219.786
 21
78.2277
  0
LINE
  8
0
 10
219.786
 20
78.2277
 11
220.133
 21
79.4494
  0
LINE
  8
0
 10
220.133
 20
79.4494
 11
220.451
 21
80.6935
  0
LINE
  8
0
 10
220.451
 20
80.6935
 11
220.738
 21
81.959
  0
LINE
  8
0
 10
220.738
 20
81.959
 11
220.996
 21
83.245
  0
LINE
  8
0
 10
220.996
 20
83.245
 11
221.226
 21
84.5506
  0
LINE
  8
0
 10
221.226
 20
84.5506
 11
220.183
 21
85.4128
  0
LINE
  8
0
 10
220.183
 20
85.4128
 11
218.944
 21
84.9431
  0
LINE
  8
0
 10
218.944
 20
84.9431
 11
217.729
 21
84.4485
  0
LINE
  8
0
 10
217.729
 20
84.4485
 11
216.54
 21
83.9289
  0
LINE
  8
0
 10
216.54
 20
83.9289
 11
215.377
 21
83.3842
  0
LINE
  8
0
 10
215.377
 20
83.3842
 11
214.242
 21
82.814
  0
LINE
  8
0
 10
214.242
 20
82.814
 11
213.602
 21
83.3035
  0
LINE
  8
0
 10
213.602
 20
83.3035
 11
212.997
 21
83.7593
  0
LINE
  8
0
 10
212.997
 20
83.7593
 11
213.241
 21
85.0058
  0
LINE
  8
0
 10
213.241
 20
85.0058
 11
213.453
 21
86.2721
  0
LINE
  8
0
 10
213.453
 20
86.2721
 11
213.633
 21
87.5572
  0
LINE
  8
0
 10
213.633
 20
87.5572
 11
213.783
 21
88.8603
  0
LINE
  8
0
 10
213.783
 20
88.8603
 11
213.902
 21
90.1804
  0
LINE
  8
0
 10
213.902
 20
90.1804
 11
212.791
 21
90.9524
  0
LINE
  8
0
 10
212.791
 20
90.9524
 11
211.596
 21
90.3807
  0
LINE
  8
0
 10
211.596
 20
90.3807
 11
210.426
 21
89.7862
  0
LINE
  8
0
 10
210.426
 20
89.7862
 11
209.285
 21
89.1689
  0
LINE
  8
0
 10
209.285
 20
89.1689
 11
208.172
 21
88.5287
  0
LINE
  8
0
 10
208.172
 20
88.5287
 11
207.089
 21
87.8656
  0
LINE
  8
0
 10
207.089
 20
87.8656
 11
206.409
 21
88.2999
  0
LINE
  8
0
 10
206.409
 20
88.2999
 11
205.768
 21
88.7034
  0
LINE
  8
0
 10
205.768
 20
88.7034
 11
205.907
 21
89.9659
  0
LINE
  8
0
 10
205.907
 20
89.9659
 11
206.013
 21
91.2455
  0
LINE
  8
0
 10
206.013
 20
91.2455
 11
206.085
 21
92.5413
  0
LINE
  8
0
 10
206.085
 20
92.5413
 11
206.125
 21
93.8523
  0
LINE
  8
0
 10
206.125
 20
93.8523
 11
206.133
 21
95.1777
  0
LINE
  8
0
 10
206.133
 20
95.1777
 11
204.962
 21
95.8541
  0
LINE
  8
0
 10
204.962
 20
95.8541
 11
203.818
 21
95.1843
  0
LINE
  8
0
 10
203.818
 20
95.1843
 11
202.703
 21
94.494
  0
LINE
  8
0
 10
202.703
 20
94.494
 11
201.617
 21
93.7834
  0
LINE
  8
0
 10
201.617
 20
93.7834
 11
200.561
 21
93.0524
  0
LINE
  8
0
 10
200.561
 20
93.0524
 11
199.537
 21
92.3009
  0
LINE
  8
0
 10
199.537
 20
92.3009
 11
198.824
 21
92.6768
  0
LINE
  8
0
 10
198.824
 20
92.6768
 11
198.152
 21
93.0253
  0
LINE
  8
0
 10
198.152
 20
93.0253
 11
198.184
 21
94.295
  0
LINE
  8
0
 10
198.184
 20
94.295
 11
198.182
 21
95.5789
  0
LINE
  8
0
 10
198.182
 20
95.5789
 11
198.146
 21
96.8762
  0
LINE
  8
0
 10
198.146
 20
96.8762
 11
198.076
 21
98.186
  0
LINE
  8
0
 10
198.076
 20
98.186
 11
197.974
 21
99.5075
  0
LINE
  8
0
 10
197.974
 20
99.5075
 11
196.75
 21
100.083
  0
LINE
  8
0
 10
196.75
 20
100.083
 11
195.666
 21
99.3202
  0
LINE
  8
0
 10
195.666
 20
99.3202
 11
194.612
 21
98.5391
  0
LINE
  8
0
 10
194.612
 20
98.5391
 11
193.59
 21
97.7401
  0
LINE
  8
0
 10
193.59
 20
97.7401
 11
192.599
 21
96.9233
  0
LINE
  8
0
 10
192.599
 20
96.9233
 11
191.641
 21
96.0888
  0
LINE
  8
0
 10
191.641
 20
96.0888
 11
190.899
 21
96.4037
  0
LINE
  8
0
 10
190.899
 20
96.4037
 11
190.2
 21
96.6947
  0
LINE
  8
0
 10
190.2
 20
96.6947
 11
190.126
 21
97.9626
  0
LINE
  8
0
 10
190.126
 20
97.9626
 11
190.017
 21
99.2419
  0
LINE
  8
0
 10
190.017
 20
99.2419
 11
189.872
 21
100.532
  0
LINE
  8
0
 10
189.872
 20
100.532
 11
189.693
 21
101.831
  0
LINE
  8
0
 10
189.693
 20
101.831
 11
189.48
 21
103.139
  0
LINE
  8
0
 10
189.48
 20
103.139
 11
188.212
 21
103.611
  0
LINE
  8
0
 10
188.212
 20
103.611
 11
187.196
 21
102.76
  0
LINE
  8
0
 10
187.196
 20
102.76
 11
186.212
 21
101.893
  0
LINE
  8
0
 10
186.212
 20
101.893
 11
185.259
 21
101.011
  0
LINE
  8
0
 10
185.259
 20
101.011
 11
184.341
 21
100.114
  0
LINE
  8
0
 10
184.341
 20
100.114
 11
183.456
 21
99.2027
  0
LINE
  8
0
 10
183.456
 20
99.2027
 11
182.691
 21
99.4544
  0
LINE
  8
0
 10
182.691
 20
99.4544
 11
181.969
 21
99.6858
  0
LINE
  8
0
 10
181.969
 20
99.6858
 11
181.79
 21
100.943
  0
LINE
  8
0
 10
181.79
 20
100.943
 11
181.574
 21
102.209
  0
LINE
  8
0
 10
181.574
 20
102.209
 11
181.322
 21
103.482
  0
LINE
  8
0
 10
181.322
 20
103.482
 11
181.034
 21
104.762
  0
LINE
  8
0
 10
181.034
 20
104.762
 11
180.713
 21
106.048
  0
LINE
  8
0
 10
180.713
 20
106.048
 11
179.41
 21
106.411
  0
LINE
  8
0
 10
179.41
 20
106.411
 11
178.469
 21
105.478
  0
LINE
  8
0
 10
178.469
 20
105.478
 11
177.56
 21
104.532
  0
LINE
  8
0
 10
177.56
 20
104.532
 11
176.685
 21
103.574
  0
LINE
  8
0
 10
176.685
 20
103.574
 11
175.844
 21
102.603
  0
LINE
  8
0
 10
175.844
 20
102.603
 11
175.039
 21
101.621
  0
LINE
  8
0
 10
175.039
 20
101.621
 11
174.255
 21
101.807
  0
LINE
  8
0
 10
174.255
 20
101.807
 11
173.517
 21
101.978
  0
LINE
  8
0
 10
173.517
 20
101.978
 11
173.233
 21
103.216
  0
LINE
  8
0
 10
173.233
 20
103.216
 11
172.912
 21
104.459
  0
LINE
  8
0
 10
172.912
 20
104.459
 11
172.554
 21
105.706
  0
LINE
  8
0
 10
172.554
 20
105.706
 11
172.161
 21
106.958
  0
LINE
  8
0
 10
172.161
 20
106.958
 11
171.732
 21
108.212
  0
LINE
  8
0
 10
171.732
 20
108.212
 11
170.404
 21
108.465
  0
LINE
  8
0
 10
170.404
 20
108.465
 11
169.544
 21
107.457
  0
LINE
  8
0
 10
169.544
 20
107.457
 11
168.718
 21
106.438
  0
LINE
  8
0
 10
168.718
 20
106.438
 11
167.926
 21
105.41
  0
LINE
  8
0
 10
167.926
 20
105.41
 11
167.169
 21
104.372
  0
LINE
  8
0
 10
167.169
 20
104.372
 11
166.449
 21
103.326
  0
LINE
  8
0
 10
166.449
 20
103.326
 11
165.652
 21
103.446
  0
LINE
  8
0
 10
165.652
 20
103.446
 11
164.903
 21
103.554
  0
LINE
  8
0
 10
164.903
 20
103.554
 11
164.516
 21
104.764
  0
LINE
  8
0
 10
164.516
 20
104.764
 11
164.092
 21
105.976
  0
LINE
  8
0
 10
164.092
 20
105.976
 11
163.631
 21
107.189
  0
LINE
  8
0
 10
163.631
 20
107.189
 11
163.134
 21
108.403
  0
LINE
  8
0
 10
163.134
 20
108.403
 11
162.603
 21
109.617
  0
LINE
  8
0
 10
162.603
 20
109.617
 11
161.257
 21
109.759
  0
LINE
  8
0
 10
161.257
 20
109.759
 11
160.485
 21
108.682
  0
LINE
  8
0
 10
160.485
 20
108.682
 11
159.747
 21
107.597
  0
LINE
  8
0
 10
159.747
 20
107.597
 11
159.044
 21
106.507
  0
LINE
  8
0
 10
159.044
 20
106.507
 11
158.377
 21
105.409
  0
LINE
  8
0
 10
158.377
 20
105.409
 11
157.747
 21
104.306
  0
LINE
  8
0
 10
157.747
 20
104.306
 11
156.943
 21
104.36
  0
LINE
  8
0
 10
156.943
 20
104.36
 11
156.187
 21
104.405
  0
LINE
  8
0
 10
156.187
 20
104.405
 11
155.7
 21
105.578
  0
LINE
  8
0
 10
155.7
 20
105.578
 11
155.176
 21
106.75
  0
LINE
  8
0
 10
155.176
 20
106.75
 11
154.615
 21
107.92
  0
LINE
  8
0
 10
154.615
 20
107.92
 11
154.019
 21
109.088
  0
LINE
  8
0
 10
154.019
 20
109.088
 11
153.387
 21
110.254
  0
LINE
  8
0
 10
153.387
 20
110.254
 11
152.035
 21
110.282
  0
LINE
  8
0
 10
152.035
 20
110.282
 11
151.355
 21
109.144
  0
LINE
  8
0
 10
151.355
 20
109.144
 11
150.711
 21
108.002
  0
LINE
  8
0
 10
150.711
 20
108.002
 11
150.101
 21
106.856
  0
LINE
  8
0
 10
150.101
 20
106.856
 11
149.529
 21
105.707
  0
LINE
  8
0
 10
149.529
 20
105.707
 11
148.993
 21
104.555
  0
LINE
  8
0
 10
148.993
 20
104.555
 11
148.187
 21
104.541
  0
LINE
  8
0
 10
148.187
 20
104.541
 11
147.43
 21
104.523
  0
LINE
  8
0
 10
147.43
 20
104.523
 11
146.847
 21
105.651
  0
LINE
  8
0
 10
146.847
 20
105.651
 11
146.227
 21
106.775
  0
LINE
  8
0
 10
146.227
 20
106.775
 11
145.57
 21
107.894
  0
LINE
  8
0
 10
145.57
 20
107.894
 11
144.878
 21
109.009
  0
LINE
  8
0
 10
144.878
 20
109.009
 11
144.151
 21
110.117
  0
LINE
  8
0
 10
144.151
 20
110.117
 11
142.801
 21
110.032
  0
LINE
  8
0
 10
142.801
 20
110.032
 11
142.219
 21
108.841
  0
LINE
  8
0
 10
142.219
 20
108.841
 11
141.672
 21
107.649
  0
LINE
  8
0
 10
141.672
 20
107.649
 11
141.161
 21
106.456
  0
LINE
  8
0
 10
141.161
 20
106.456
 11
140.686
 21
105.263
  0
LINE
  8
0
 10
140.686
 20
105.263
 11
140.249
 21
104.071
  0
LINE
  8
0
 10
140.249
 20
104.071
 11
139.447
 21
103.989
  0
LINE
  8
0
 10
139.447
 20
103.989
 11
138.694
 21
103.907
  0
LINE
  8
0
 10
138.694
 20
103.907
 11
138.019
 21
104.983
  0
LINE
  8
0
 10
138.019
 20
104.983
 11
137.307
 21
106.051
  0
LINE
  8
0
 10
137.307
 20
106.051
 11
136.558
 21
107.112
  0
LINE
  8
0
 10
136.558
 20
107.112
 11
135.776
 21
108.164
  0
LINE
  8
0
 10
135.776
 20
108.164
 11
134.959
 21
109.208
  0
LINE
  8
0
 10
134.959
 20
109.208
 11
133.62
 21
109.01
  0
LINE
  8
0
 10
133.62
 20
109.01
 11
133.14
 21
107.775
  0
LINE
  8
0
 10
133.14
 20
107.775
 11
132.695
 21
106.541
  0
LINE
  8
0
 10
132.695
 20
106.541
 11
132.285
 21
105.31
  0
LINE
  8
0
 10
132.285
 20
105.31
 11
131.912
 21
104.081
  0
LINE
  8
0
 10
131.912
 20
104.081
 11
131.576
 21
102.856
  0
LINE
  8
0
 10
131.576
 20
102.856
 11
130.784
 21
102.708
  0
LINE
  8
0
 10
130.784
 20
102.708
 11
130.041
 21
102.563
  0
LINE
  8
0
 10
130.041
 20
102.563
 11
129.278
 21
103.579
  0
LINE
  8
0
 10
129.278
 20
103.579
 11
128.478
 21
104.584
  0
LINE
  8
0
 10
128.478
 20
104.584
 11
127.644
 21
105.578
  0
LINE
  8
0
 10
127.644
 20
105.578
 11
126.776
 21
106.561
  0
LINE
  8
0
 10
126.776
 20
106.561
 11
125.875
 21
107.533
  0
LINE
  8
0
 10
125.875
 20
107.533
 11
124.558
 21
107.224
  0
LINE
  8
0
 10
124.558
 20
107.224
 11
124.182
 21
105.953
  0
LINE
  8
0
 10
124.182
 20
105.953
 11
123.842
 21
104.686
  0
LINE
  8
0
 10
123.842
 20
104.686
 11
123.537
 21
103.424
  0
LINE
  8
0
 10
123.537
 20
103.424
 11
123.268
 21
102.169
  0
LINE
  8
0
 10
123.268
 20
102.169
 11
123.036
 21
100.92
  0
LINE
  8
0
 10
123.036
 20
100.92
 11
122.258
 21
100.706
  0
LINE
  8
0
 10
122.258
 20
100.706
 11
121.53
 21
100.5
  0
LINE
  8
0
 10
121.53
 20
100.5
 11
120.684
 21
101.448
  0
LINE
  8
0
 10
120.684
 20
101.448
 11
119.804
 21
102.382
  0
LINE
  8
0
 10
119.804
 20
102.382
 11
118.889
 21
103.303
  0
LINE
  8
0
 10
118.889
 20
103.303
 11
117.942
 21
104.21
  0
LINE
  8
0
 10
117.942
 20
104.21
 11
116.962
 21
105.103
  0
LINE
  8
0
 10
116.962
 20
105.103
 11
115.676
 21
104.685
  0
LINE
  8
0
 10
115.676
 20
104.685
 11
115.408
 21
103.387
  0
LINE
  8
0
 10
115.408
 20
103.387
 11
115.175
 21
102.096
  0
LINE
  8
0
 10
115.175
 20
102.096
 11
114.977
 21
100.814
  0
LINE
  8
0
 10
114.977
 20
100.814
 11
114.814
 21
99.5402
  0
LINE
  8
0
 10
114.814
 20
99.5402
 11
114.687
 21
98.2764
  0
LINE
  8
0
 10
114.687
 20
98.2764
 11
113.93
 21
97.998
  0
LINE
  8
0
 10
113.93
 20
97.998
 11
113.221
 21
97.7315
  0
LINE
  8
0
 10
113.221
 20
97.7315
 11
112.3
 21
98.6053
  0
LINE
  8
0
 10
112.3
 20
98.6053
 11
111.344
 21
99.4629
  0
LINE
  8
0
 10
111.344
 20
99.4629
 11
110.356
 21
100.304
  0
LINE
  8
0
 10
110.356
 20
100.304
 11
109.336
 21
101.129
  0
LINE
  8
0
 10
109.336
 20
101.129
 11
108.285
 21
101.936
  0
LINE
  8
0
 10
108.285
 20
101.936
 11
107.038
 21
101.412
  0
LINE
  8
0
 10
107.038
 20
101.412
 11
106.88
 21
100.096
  0
LINE
  8
0
 10
106.88
 20
100.096
 11
106.755
 21
98.7906
  0
LINE
  8
0
 10
106.755
 20
98.7906
 11
106.665
 21
97.4959
  0
LINE
  8
0
 10
106.665
 20
97.4959
 11
106.609
 21
96.2132
  0
LINE
  8
0
 10
106.609
 20
96.2132
 11
106.588
 21
94.9433
  0
LINE
  8
0
 10
106.588
 20
94.9433
 11
105.858
 21
94.6025
  0
LINE
  8
0
 10
105.858
 20
94.6025
 11
105.174
 21
94.2775
  0
LINE
  8
0
 10
105.174
 20
94.2775
 11
104.182
 21
95.0712
  0
LINE
  8
0
 10
104.182
 20
95.0712
 11
103.158
 21
95.8458
  0
LINE
  8
0
 10
103.158
 20
95.8458
 11
102.103
 21
96.6013
  0
LINE
  8
0
 10
102.103
 20
96.6013
 11
101.018
 21
97.3376
  0
LINE
  8
0
 10
101.018
 20
97.3376
 11
99.9028
 21
98.0548
  0
LINE
  8
0
 10
99.9028
 20
98.0548
 11
98.7041
 21
97.4281
  0
LINE
  8
0
 10
98.7041
 20
97.4281
 11
98.6567
 21
96.1034
  0
LINE
  8
0
 10
98.6567
 20
96.1034
 11
98.6419
 21
94.7919
  0
LINE
  8
0
 10
98.6419
 20
94.7919
 11
98.66
 21
93.4942
  0
LINE
  8
0
 10
98.66
 20
93.4942
 11
98.7117
 21
92.2113
  0
LINE
  8
0
 10
98.7117
 20
92.2113
 11
98.7975
 21
90.9441
  0
LINE
  8
0
 10
98.7975
 20
90.9441
 11
98.098
 21
90.5434
  0
LINE
  8
0
 10
98.098
 20
90.5434
 11
97.4435
 21
90.1624
  0
LINE
  8
0
 10
97.4435
 20
90.1624
 11
96.3889
 21
90.8703
  0
LINE
  8
0
 10
96.3889
 20
90.8703
 11
95.3037
 21
91.5564
  0
LINE
  8
0
 10
95.3037
 20
91.5564
 11
94.189
 21
92.221
  0
LINE
  8
0
 10
94.189
 20
92.221
 11
93.0457
 21
92.8639
  0
LINE
  8
0
 10
93.0457
 20
92.8639
 11
91.8749
 21
93.4853
  0
LINE
  8
0
 10
91.8749
 20
93.4853
 11
90.7328
 21
92.7605
  0
LINE
  8
0
 10
90.7328
 20
92.7605
 11
90.7965
 21
91.4365
  0
LINE
  8
0
 10
90.7965
 20
91.4365
 11
90.8915
 21
90.1283
  0
LINE
  8
0
 10
90.8915
 20
90.1283
 11
91.0181
 21
88.8367
  0
LINE
  8
0
 10
91.0181
 20
88.8367
 11
91.1769
 21
87.5626
  0
LINE
  8
0
 10
91.1769
 20
87.5626
 11
91.3685
 21
86.307
  0
LINE
  8
0
 10
91.3685
 20
86.307
 11
90.705
 21
85.8493
  0
LINE
  8
0
 10
90.705
 20
85.8493
 11
90.0846
 21
85.4147
  0
LINE
  8
0
 10
90.0846
 20
85.4147
 11
88.9745
 21
86.0319
  0
LINE
  8
0
 10
88.9745
 20
86.0319
 11
87.8357
 21
86.6249
  0
LINE
  8
0
 10
87.8357
 20
86.6249
 11
86.6693
 21
87.1938
  0
LINE
  8
0
 10
86.6693
 20
87.1938
 11
85.4762
 21
87.7388
  0
LINE
  8
0
 10
85.4762
 20
87.7388
 11
84.2575
 21
88.26
  0
LINE
  8
0
 10
84.2575
 20
88.26
 11
83.1801
 21
87.4422
  0
LINE
  8
0
 10
83.1801
 20
87.4422
 11
83.3543
 21
86.1282
  0
LINE
  8
0
 10
83.3543
 20
86.1282
 11
83.5584
 21
84.8326
  0
LINE
  8
0
 10
83.5584
 20
84.8326
 11
83.7927
 21
83.5561
  0
LINE
  8
0
 10
83.7927
 20
83.5561
 11
84.0576
 21
82.2997
  0
LINE
  8
0
 10
84.0576
 20
82.2997
 11
84.3535
 21
81.0646
  0
LINE
  8
0
 10
84.3535
 20
81.0646
 11
83.7307
 21
80.5529
  0
LINE
  8
0
 10
83.7307
 20
80.5529
 11
83.1488
 21
80.068
  0
LINE
  8
0
 10
83.1488
 20
80.068
 11
81.991
 21
80.5901
  0
LINE
  8
0
 10
81.991
 20
80.5901
 11
80.8066
 21
81.0857
  0
LINE
  8
0
 10
80.8066
 20
81.0857
 11
79.5966
 21
81.5551
  0
LINE
  8
0
 10
79.5966
 20
81.5551
 11
78.3622
 21
81.9983
  0
LINE
  8
0
 10
78.3622
 20
81.9983
 11
77.1041
 21
82.4157
  0
LINE
  8
0
 10
77.1041
 20
82.4157
 11
76.0988
 21
81.5106
  0
LINE
  8
0
 10
76.0988
 20
81.5106
 11
76.3824
 21
80.2158
  0
LINE
  8
0
 10
76.3824
 20
80.2158
 11
76.6942
 21
78.9417
  0
LINE
  8
0
 10
76.6942
 20
78.9417
 11
77.0345
 21
77.6894
  0
LINE
  8
0
 10
77.0345
 20
77.6894
 11
77.4036
 21
76.4596
  0
LINE
  8
0
 10
77.4036
 20
76.4596
 11
77.8018
 21
75.2536
  0
LINE
  8
0
 10
77.8018
 20
75.2536
 11
77.224
 21
74.6915
  0
LINE
  8
0
 10
77.224
 20
74.6915
 11
76.6848
 21
74.1596
  0
LINE
  8
0
 10
76.6848
 20
74.1596
 11
75.4873
 21
74.5831
  0
LINE
  8
0
 10
75.4873
 20
74.5831
 11
74.2656
 21
74.9778
  0
LINE
  8
0
 10
74.2656
 20
74.9778
 11
73.0206
 21
75.3442
  0
LINE
  8
0
 10
73.0206
 20
75.3442
 11
71.7534
 21
75.6827
  0
LINE
  8
0
 10
71.7534
 20
75.6827
 11
70.4648
 21
75.9933
  0
LINE
  8
0
 10
70.4648
 20
75.9933
 11
69.5388
 21
75.0072
  0
LINE
  8
0
 10
69.5388
 20
75.0072
 11
69.9297
 21
73.7407
  0
LINE
  8
0
 10
69.9297
 20
73.7407
 11
70.3471
 21
72.4972
  0
LINE
  8
0
 10
70.3471
 20
72.4972
 11
70.791
 21
71.2777
  0
LINE
  8
0
 10
70.791
 20
71.2777
 11
71.2616
 21
70.0831
  0
LINE
  8
0
 10
71.2616
 20
70.0831
 11
71.7594
 21
68.9147
  0
LINE
  8
0
 10
71.7594
 20
68.9147
 11
71.2306
 21
68.3062
  0
LINE
  8
0
 10
71.2306
 20
68.3062
 11
70.7378
 21
67.7311
  0
LINE
  8
0
 10
70.7378
 20
67.7311
 11
69.5091
 21
68.0528
  0
LINE
  8
0
 10
69.5091
 20
68.0528
 11
68.2586
 21
68.3439
  0
LINE
  8
0
 10
68.2586
 20
68.3439
 11
66.9873
 21
68.6049
  0
LINE
  8
0
 10
66.9873
 20
68.6049
 11
65.6962
 21
68.8361
  0
LINE
  8
0
 10
65.6962
 20
68.8361
 11
64.3862
 21
69.0379
  0
LINE
  8
0
 10
64.3862
 20
69.0379
 11
63.546
 21
67.9778
  0
LINE
  8
0
 10
63.546
 20
67.9778
 11
64.0415
 21
66.7484
  0
LINE
  8
0
 10
64.0415
 20
66.7484
 11
64.5614
 21
65.5442
  0
LINE
  8
0
 10
64.5614
 20
65.5442
 11
65.1058
 21
64.3661
  0
LINE
  8
0
 10
65.1058
 20
64.3661
 11
65.6748
 21
63.2151
  0
LINE
  8
0
 10
65.6748
 20
63.2151
 11
66.2686
 21
62.0924
  0
LINE
  8
0
 10
66.2686
 20
62.0924
 11
65.7926
 21
61.4418
  0
LINE
  8
0
 10
65.7926
 20
61.4418
 11
65.3496
 21
60.8275
  0
LINE
  8
0
 10
65.3496
 20
60.8275
 11
64.0983
 21
61.0453
  0
LINE
  8
0
 10
64.0983
 20
61.0453
 11
62.8278
 21
61.2307
  0
LINE
  8
0
 10
62.8278
 20
61.2307
 11
61.5392
 21
61.3844
  0
LINE
  8
0
 10
61.5392
 20
61.3844
 11
60.2332
 21
61.5068
  0
LINE
  8
0
 10
60.2332
 20
61.5068
 11
58.9109
 21
61.5982
  0
LINE
  8
0
 10
58.9109
 20
61.5982
 11
58.1623
 21
60.4715
  0
LINE
  8
0
 10
58.1623
 20
60.4715
 11
58.759
 21
59.2879
  0
LINE
  8
0
 10
58.759
 20
59.2879
 11
59.3779
 21
58.1314
  0
LINE
  8
0
 10
59.3779
 20
58.1314
 11
60.0189
 21
57.003
  0
LINE
  8
0
 10
60.0189
 20
57.003
 11
60.6822
 21
55.9037
  0
LINE
  8
0
 10
60.6822
 20
55.9037
 11
61.3679
 21
54.8345
  0
LINE
  8
0
 10
61.3679
 20
54.8345
 11
60.948
 21
54.1465
  0
LINE
  8
0
 10
60.948
 20
54.1465
 11
60.558
 21
53.4972
  0
LINE
  8
0
 10
60.558
 20
53.4972
 11
59.2928
 21
53.6095
  0
LINE
  8
0
 10
59.2928
 20
53.6095
 11
58.0113
 21
53.688
  0
LINE
  8
0
 10
58.0113
 20
53.688
 11
56.7143
 21
53.7333
  0
LINE
  8
0
 10
56.7143
 20
53.7333
 11
55.4027
 21
53.746
  0
LINE
  8
0
 10
55.4027
 20
53.746
 11
54.0774
 21
53.7264
  0
LINE
  8
0
 10
54.0774
 20
53.7264
 11
53.4257
 21
52.541
  0
LINE
  8
0
 10
53.4257
 20
52.541
 11
54.1193
 21
51.4115
  0
LINE
  8
0
 10
54.1193
 20
51.4115
 11
54.8328
 21
50.3109
  0
LINE
  8
0
 10
54.8328
 20
50.3109
 11
55.566
 21
49.2401
  0
LINE
  8
0
 10
55.566
 20
49.2401
 11
56.319
 21
48.2001
  0
LINE
  8
0
 10
56.319
 20
48.2001
 11
57.0917
 21
47.1921
  0
LINE
  8
0
 10
57.0917
 20
47.1921
 11
56.7309
 21
46.4713
  0
LINE
  8
0
 10
56.7309
 20
46.4713
 11
56.3965
 21
45.7917
  0
LINE
  8
0
 10
56.3965
 20
45.7917
 11
55.1264
 21
45.7977
  0
LINE
  8
0
 10
55.1264
 20
45.7977
 11
53.8428
 21
45.7687
  0
LINE
  8
0
 10
53.8428
 20
45.7687
 11
52.5466
 21
45.7053
  0
LINE
  8
0
 10
52.5466
 20
45.7053
 11
51.2385
 21
45.6082
  0
LINE
  8
0
 10
51.2385
 20
45.6082
 11
49.9195
 21
45.4778
  0
LINE
  8
0
 10
49.9195
 20
45.4778
 11
49.3693
 21
44.242
  0
LINE
  8
0
 10
49.3693
 20
44.242
 11
50.155
 21
43.1745
  0
LINE
  8
0
 10
50.155
 20
43.1745
 11
50.9581
 21
42.1375
  0
LINE
  8
0
 10
50.9581
 20
42.1375
 11
51.7783
 21
41.1318
  0
LINE
  8
0
 10
51.7783
 20
41.1318
 11
52.6157
 21
40.1584
  0
LINE
  8
0
 10
52.6157
 20
40.1584
 11
53.47
 21
39.2186
  0
LINE
  8
0
 10
53.47
 20
39.2186
 11
53.1707
 21
38.4702
  0
LINE
  8
0
 10
53.1707
 20
38.4702
 11
52.8945
 21
37.7649
  0
LINE
  8
0
 10
52.8945
 20
37.7649
 11
51.6283
 21
37.6647
  0
LINE
  8
0
 10
51.6283
 20
37.6647
 11
50.3516
 21
37.5284
  0
LINE
  8
0
 10
50.3516
 20
37.5284
 11
49.0652
 21
37.3568
  0
LINE
  8
0
 10
49.0652
 20
37.3568
 11
47.7699
 21
37.1505
  0
LINE
  8
0
 10
47.7699
 20
37.1505
 11
46.4664
 21
36.9102
  0
LINE
  8
0
 10
46.4664
 20
36.9102
 11
46.0215
 21
35.6327
  0
LINE
  8
0
 10
46.0215
 20
35.6327
 11
46.8938
 21
34.6347
  0
LINE
  8
0
 10
46.8938
 20
34.6347
 11
47.7809
 21
33.6685
  0
LINE
  8
0
 10
47.7809
 20
33.6685
 11
48.6824
 21
32.7349
  0
LINE
  8
0
 10
48.6824
 20
32.7349
 11
49.5983
 21
31.8351
  0
LINE
  8
0
 10
49.5983
 20
31.8351
 11
50.5283
 21
30.9701
  0
LINE
  8
0
 10
50.5283
 20
30.9701
 11
50.2926
 21
30.1992
  0
LINE
  8
0
 10
50.2926
 20
30.1992
 11
50.0764
 21
29.4733
  0
LINE
  8
0
 10
50.0764
 20
29.4733
 11
48.823
 21
29.2675
  0
LINE
  8
0
 10
48.823
 20
29.2675
 11
47.5622
 21
29.0248
  0
LINE
  8
0
 10
47.5622
 20
29.0248
 11
46.2947
 21
28.7462
  0
LINE
  8
0
 10
46.2947
 20
28.7462
 11
45.0212
 21
28.4322
  0
LINE
  8
0
 10
45.0212
 20
28.4322
 11
43.7424
 21
28.0837
  0
LINE
  8
0
 10
43.7424
 20
28.0837
 11
43.406
 21
26.7735
  0
LINE
  8
0
 10
43.406
 20
26.7735
 11
44.3587
 21
25.8519
  0
LINE
  8
0
 10
44.3587
 20
25.8519
 11
45.3235
 21
24.9633
  0
LINE
  8
0
 10
45.3235
 20
24.9633
 11
46.2999
 21
24.1085
  0
LINE
  8
0
 10
46.2999
 20
24.1085
 11
47.2879
 21
23.2885
  0
LINE
  8
0
 10
47.2879
 20
23.2885
 11
48.287
 21
22.5043
  0
LINE
  8
0
 10
48.287
 20
22.5043
 11
48.1167
 21
21.7164
  0
LINE
  8
0
 10
48.1167
 20
21.7164
 11
47.9619
 21
20.975
  0
LINE
  8
0
 10
47.9619
 20
20.975
 11
46.7303
 21
20.665
  0
LINE
  8
0
 10
46.7303
 20
20.665
 11
45.4942
 21
20.3177
  0
LINE
  8
0
 10
45.4942
 20
20.3177
 11
44.2544
 21
19.9339
  0
LINE
  8
0
 10
44.2544
 20
19.9339
 11
43.0116
 21
19.5145
  0
LINE
  8
0
 10
43.0116
 20
19.5145
 11
41.7664
 21
19.0602
  0
LINE
  8
0
 10
41.7664
 20
19.0602
 11
41.5409
 21
17.7264
  0
LINE
  8
0
 10
41.5409
 20
17.7264
 11
42.5674
 21
16.8878
  0
LINE
  8
0
 10
42.5674
 20
16.8878
 11
43.6031
 21
16.0831
  0
LINE
  8
0
 10
43.6031
 20
16.0831
 11
44.6477
 21
15.313
  0
LINE
  8
0
 10
44.6477
 20
15.313
 11
45.7008
 21
14.5785
  0
LINE
  8
0
 10
45.7008
 20
14.5785
 11
46.762
 21
13.8806
  0
LINE
  8
0
 10
46.762
 20
13.8806
 11
46.6583
 21
13.0813
  0
LINE
  8
0
 10
46.6583
 20
13.0813
 11
46.5661
 21
12.3295
  0
LINE
  8
0
 10
46.5661
 20
12.3295
 11
45.3646
 21
11.9175
  0
LINE
  8
0
 10
45.3646
 20
11.9175
 11
44.162
 21
11.468
  0
LINE
  8
0
 10
44.162
 20
11.468
 11
42.9587
 21
10.9818
  0
LINE
  8
0
 10
42.9587
 20
10.9818
 11
41.7553
 21
10.4599
  0
LINE
  8
0
 10
41.7553
 20
10.4599
 11
40.5525
 21
9.90298
  0
LINE
  8
0
 10
40.5525
 20
9.90298
 11
40.4393
 21
8.55504
  0
LINE
  8
0
 10
40.4393
 20
8.55504
 11
41.5324
 21
7.8053
  0
LINE
  8
0
 10
41.5324
 20
7.8053
 11
42.6319
 21
7.09003
  0
LINE
  8
0
 10
42.6319
 20
7.09003
 11
43.7372
 21
6.41002
  0
LINE
  8
0
 10
43.7372
 20
6.41002
 11
44.8481
 21
5.7662
  0
LINE
  8
0
 10
44.8481
 20
5.7662
 11
45.964
 21
5.15965
  0
LINE
  8
0
 10
45.964
 20
5.15965
 11
45.9275
 21
4.35439
  0
LINE
  8
0
 10
45.9275
 20
4.35439
 11
45.8985
 21
3.59752
  0
LINE
  8
0
 10
45.8985
 20
3.59752
 11
44.7358
 21
3.08649
  0
LINE
  8
0
 10
44.7358
 20
3.08649
 11
43.5749
 21
2.53789
  0
LINE
  8
0
 10
43.5749
 20
2.53789
 11
42.4165
 21
1.95276
  0
LINE
  8
0
 10
42.4165
 20
1.95276
 11
41.2611
 21
1.33197
  0
LINE
  8
0
 10
41.2611
 20
1.33197
 11
40.1091
 21
0.676346
  0
LINE
  8
0
 10
40.1091
 20
0.676346
 11
40.1091
 21
-0.676331
  0
LINE
  8
0
 10
40.1091
 20
-0.676331
 11
41.2611
 21
-1.33197
  0
LINE
  8
0
 10
41.2611
 20
-1.33197
 11
42.4165
 21
-1.95276
  0
LINE
  8
0
 10
42.4165
 20
-1.95276
 11
43.5749
 21
-2.53787
  0
LINE
  8
0
 10
43.5749
 20
-2.53787
 11
44.7358
 21
-3.08649
  0
LINE
  8
0
 10
44.7358
 20
-3.08649
 11
45.8985
 21
-3.59753
  0
LINE
  8
0
 10
45.8985
 20
-3.59753
 11
45.9296
 21
-4.40302
  0
LINE
  8
0
 10
45.9296
 20
-4.40302
 11
45.964
 21
-5.15965
  0
LINE
  8
0
 10
45.964
 20
-5.15965
 11
44.8481
 21
-5.7662
  0
LINE
  8
0
 10
44.8481
 20
-5.7662
 11
43.7372
 21
-6.41002
  0
LINE
  8
0
 10
43.7372
 20
-6.41002
 11
42.6319
 21
-7.09003
  0
LINE
  8
0
 10
42.6319
 20
-7.09003
 11
41.5324
 21
-7.8053
  0
LINE
  8
0
 10
41.5324
 20
-7.8053
 11
40.4393
 21
-8.55504
  0
LINE
  8
0
 10
40.4393
 20
-8.55504
 11
40.5525
 21
-9.90298
  0
LINE
  8
0
 10
40.5525
 20
-9.90298
 11
41.7553
 21
-10.4599
  0
LINE
  8
0
 10
41.7553
 20
-10.4599
 11
42.9587
 21
-10.9818
  0
LINE
  8
0
 10
42.9587
 20
-10.9818
 11
44.162
 21
-11.468
  0
LINE
  8
0
 10
44.162
 20
-11.468
 11
45.3646
 21
-11.9175
  0
LINE
  8
0
 10
45.3646
 20
-11.9175
 11
46.5661
 21
-12.3295
  0
LINE
  8
0
 10
46.5661
 20
-12.3295
 11
46.6644
 21
-13.1295
  0
LINE
  8
0
 10
46.6644
 20
-13.1295
 11
46.762
 21
-13.8806
  0
LINE
  8
0
 10
46.762
 20
-13.8806
 11
45.7008
 21
-14.5785
  0
LINE
  8
0
 10
45.7008
 20
-14.5785
 11
44.6477
 21
-15.313
  0
LINE
  8
0
 10
44.6477
 20
-15.313
 11
43.6031
 21
-16.0831
  0
LINE
  8
0
 10
43.6031
 20
-16.0831
 11
42.5674
 21
-16.8878
  0
LINE
  8
0
 10
42.5674
 20
-16.8878
 11
41.5409
 21
-17.7264
  0
LINE
  8
0
 10
41.5409
 20
-17.7264
 11
41.7664
 21
-19.0602
  0
LINE
  8
0
 10
41.7664
 20
-19.0602
 11
43.0116
 21
-19.5145
  0
LINE
  8
0
 10
43.0116
 20
-19.5145
 11
44.2544
 21
-19.9339
  0
LINE
  8
0
 10
44.2544
 20
-19.9339
 11
45.4942
 21
-20.3177
  0
LINE
  8
0
 10
45.4942
 20
-20.3177
 11
46.7303
 21
-20.665
  0
LINE
  8
0
 10
46.7303
 20
-20.665
 11
47.9619
 21
-20.975
  0
LINE
  8
0
 10
47.9619
 20
-20.975
 11
48.1269
 21
-21.764
  0
LINE
  8
0
 10
48.1269
 20
-21.764
 11
48.287
 21
-22.5043
  0
LINE
  8
0
 10
48.287
 20
-22.5043
 11
47.2879
 21
-23.2885
  0
LINE
  8
0
 10
47.2879
 20
-23.2885
 11
46.2999
 21
-24.1085
  0
LINE
  8
0
 10
46.2999
 20
-24.1085
 11
45.3235
 21
-24.9633
  0
LINE
  8
0
 10
45.3235
 20
-24.9633
 11
44.3587
 21
-25.8519
  0
LINE
  8
0
 10
44.3587
 20
-25.8519
 11
43.406
 21
-26.7735
  0
LINE
  8
0
 10
43.406
 20
-26.7735
 11
43.7424
 21
-28.0837
  0
LINE
  8
0
 10
43.7424
 20
-28.0837
 11
45.0212
 21
-28.4322
  0
LINE
  8
0
 10
45.0212
 20
-28.4322
 11
46.2947
 21
-28.7462
  0
LINE
  8
0
 10
46.2947
 20
-28.7462
 11
47.5622
 21
-29.0248
  0
LINE
  8
0
 10
47.5622
 20
-29.0248
 11
48.823
 21
-29.2675
  0
LINE
  8
0
 10
48.823
 20
-29.2675
 11
50.0764
 21
-29.4733
  0
LINE
  8
0
 10
50.0764
 20
-29.4733
 11
50.3067
 21
-30.2458
  0
LINE
  8
0
 10
50.3067
 20
-30.2458
 11
50.5283
 21
-30.9701
  0
LINE
  8
0
 10
50.5283
 20
-30.9701
 11
49.5983
 21
-31.8351
  0
LINE
  8
0
 10
49.5983
 20
-31.8351
 11
48.6824
 21
-32.7349
  0
LINE
  8
0
 10
48.6824
 20
-32.7349
 11
47.7809
 21
-33.6685
  0
LINE
  8
0
 10
47.7809
 20
-33.6685
 11
46.8938
 21
-34.6347
  0
LINE
  8
0
 10
46.8938
 20
-34.6347
 11
46.0215
 21
-35.6327
  0
LINE
  8
0
 10
46.0215
 20
-35.6327
 11
46.4664
 21
-36.9102
  0
LINE
  8
0
 10
46.4664
 20
-36.9102
 11
47.7699
 21
-37.1505
  0
LINE
  8
0
 10
47.7699
 20
-37.1505
 11
49.0652
 21
-37.3568
  0
LINE
  8
0
 10
49.0652
 20
-37.3568
 11
50.3516
 21
-37.5284
  0
LINE
  8
0
 10
50.3516
 20
-37.5284
 11
51.6283
 21
-37.6647
  0
LINE
  8
0
 10
51.6283
 20
-37.6647
 11
52.8945
 21
-37.7649
  0
LINE
  8
0
 10
52.8945
 20
-37.7649
 11
53.1887
 21
-38.5154
  0
LINE
  8
0
 10
53.1887
 20
-38.5154
 11
53.47
 21
-39.2186
  0
LINE
  8
0
 10
53.47
 20
-39.2186
 11
52.6157
 21
-40.1584
  0
LINE
  8
0
 10
52.6157
 20
-40.1584
 11
51.7783
 21
-41.1318
  0
LINE
  8
0
 10
51.7783
 20
-41.1318
 11
50.9581
 21
-42.1375
  0
LINE
  8
0
 10
50.9581
 20
-42.1375
 11
50.155
 21
-43.1745
  0
LINE
  8
0
 10
50.155
 20
-43.1745
 11
49.3693
 21
-44.242
  0
LINE
  8
0
 10
49.3693
 20
-44.242
 11
49.9195
 21
-45.4778
  0
LINE
  8
0
 10
49.9195
 20
-45.4778
 11
51.2385
 21
-45.6082
  0
LINE
  8
0
 10
51.2385
 20
-45.6082
 11
52.5466
 21
-45.7053
  0
LINE
  8
0
 10
52.5466
 20
-45.7053
 11
53.8428
 21
-45.7687
  0
LINE
  8
0
 10
53.8428
 20
-45.7687
 11
55.1264
 21
-45.7977
  0
LINE
  8
0
 10
55.1264
 20
-45.7977
 11
56.3965
 21
-45.7917
  0
LINE
  8
0
 10
56.3965
 20
-45.7917
 11
56.7525
 21
-46.5149
  0
LINE
  8
0
 10
56.7525
 20
-46.5149
 11
57.0917
 21
-47.1921
  0
LINE
  8
0
 10
57.0917
 20
-47.1921
 11
56.319
 21
-48.2001
  0
LINE
  8
0
 10
56.319
 20
-48.2001
 11
55.566
 21
-49.2401
  0
LINE
  8
0
 10
55.566
 20
-49.2401
 11
54.8328
 21
-50.3109
  0
LINE
  8
0
 10
54.8328
 20
-50.3109
 11
54.1193
 21
-51.4115
  0
LINE
  8
0
 10
54.1193
 20
-51.4115
 11
53.4257
 21
-52.541
  0
LINE
  8
0
 10
53.4257
 20
-52.541
 11
54.0774
 21
-53.7264
  0
LINE
  8
0
 10
54.0774
 20
-53.7264
 11
55.4027
 21
-53.746
  0
LINE
  8
0
 10
55.4027
 20
-53.746
 11
56.7143
 21
-53.7333
  0
LINE
  8
0
 10
56.7143
 20
-53.7333
 11
58.0113
 21
-53.688
  0
LINE
  8
0
 10
58.0113
 20
-53.688
 11
59.2928
 21
-53.6095
  0
LINE
  8
0
 10
59.2928
 20
-53.6095
 11
60.558
 21
-53.4972
  0
LINE
  8
0
 10
60.558
 20
-53.4972
 11
60.9732
 21
-54.1881
  0
LINE
  8
0
 10
60.9732
 20
-54.1881
 11
61.3679
 21
-54.8345
  0
LINE
  8
0
 10
61.3679
 20
-54.8345
 11
60.6822
 21
-55.9037
  0
LINE
  8
0
 10
60.6822
 20
-55.9037
 11
60.0189
 21
-57.003
  0
LINE
  8
0
 10
60.0189
 20
-57.003
 11
59.3779
 21
-58.1314
  0
LINE
  8
0
 10
59.3779
 20
-58.1314
 11
58.759
 21
-59.2879
  0
LINE
  8
0
 10
58.759
 20
-59.2879
 11
58.1623
 21
-60.4715
  0
LINE
  8
0
 10
58.1623
 20
-60.4715
 11
58.9109
 21
-61.5982
  0
LINE
  8
0
 10
58.9109
 20
-61.5982
 11
60.2332
 21
-61.5068
  0
LINE
  8
0
 10
60.2332
 20
-61.5068
 11
61.5392
 21
-61.3844
  0
LINE
  8
0
 10
61.5392
 20
-61.3844
 11
62.8278
 21
-61.2307
  0
LINE
  8
0
 10
62.8278
 20
-61.2307
 11
64.0983
 21
-61.0453
  0
LINE
  8
0
 10
64.0983
 20
-61.0453
 11
65.3496
 21
-60.8275
  0
LINE
  8
0
 10
65.3496
 20
-60.8275
 11
65.8212
 21
-61.4812
  0
LINE
  8
0
 10
65.8212
 20
-61.4812
 11
66.2686
 21
-62.0924
  0
LINE
  8
0
 10
66.2686
 20
-62.0924
 11
65.6748
 21
-63.2151
  0
LINE
  8
0
 10
65.6748
 20
-63.2151
 11
65.1058
 21
-64.3661
  0
LINE
  8
0
 10
65.1058
 20
-64.3661
 11
64.5614
 21
-65.5442
  0
LINE
  8
0
 10
64.5614
 20
-65.5442
 11
64.0415
 21
-66.7484
  0
LINE
  8
0
 10
64.0415
 20
-66.7484
 11
63.546
 21
-67.9778
  0
LINE
  8
0
 10
63.546
 20
-67.9778
 11
64.3862
 21
-69.0379
  0
LINE
  8
0
 10
64.3862
 20
-69.0379
 11
65.6962
 21
-68.8361
  0
LINE
  8
0
 10
65.6962
 20
-68.8361
 11
66.9873
 21
-68.6049
  0
LINE
  8
0
 10
66.9873
 20
-68.6049
 11
68.2586
 21
-68.3439
  0
LINE
  8
0
 10
68.2586
 20
-68.3439
 11
69.5091
 21
-68.0528
  0
LINE
  8
0
 10
69.5091
 20
-68.0528
 11
70.7378
 21
-67.7311
  0
LINE
  8
0
 10
70.7378
 20
-67.7311
 11
71.2624
 21
-68.3431
  0
LINE
  8
0
 10
71.2624
 20
-68.3431
 11
71.7594
 21
-68.9147
  0
LINE
  8
0
 10
71.7594
 20
-68.9147
 11
71.2616
 21
-70.0831
  0
LINE
  8
0
 10
71.2616
 20
-70.0831
 11
70.791
 21
-71.2777
  0
LINE
  8
0
 10
70.791
 20
-71.2777
 11
70.3471
 21
-72.4972
  0
LINE
  8
0
 10
70.3471
 20
-72.4972
 11
69.9297
 21
-73.7407
  0
LINE
  8
0
 10
69.9297
 20
-73.7407
 11
69.5388
 21
-75.0072
  0
LINE
  8
0
 10
69.5388
 20
-75.0072
 11
70.4648
 21
-75.9933
  0
LINE
  8
0
 10
70.4648
 20
-75.9933
 11
71.7534
 21
-75.6827
  0
LINE
  8
0
 10
71.7534
 20
-75.6827
 11
73.0206
 21
-75.3442
  0
LINE
  8
0
 10
73.0206
 20
-75.3442
 11
74.2656
 21
-74.9778
  0
LINE
  8
0
 10
74.2656
 20
-74.9778
 11
75.4873
 21
-74.5831
  0
LINE
  8
0
 10
75.4873
 20
-74.5831
 11
76.6848
 21
-74.1596
  0
LINE
  8
0
 10
76.6848
 20
-74.1596
 11
77.2588
 21
-74.7256
  0
LINE
  8
0
 10
77.2588
 20
-74.7256
 11
77.8018
 21
-75.2536
  0
LINE
  8
0
 10
77.8018
 20
-75.2536
 11
77.4036
 21
-76.4596
  0
LINE
  8
0
 10
77.4036
 20
-76.4596
 11
77.0345
 21
-77.6894
  0
LINE
  8
0
 10
77.0345
 20
-77.6894
 11
76.6942
 21
-78.9417
  0
LINE
  8
0
 10
76.6942
 20
-78.9417
 11
76.3824
 21
-80.2158
  0
LINE
  8
0
 10
76.3824
 20
-80.2158
 11
76.0988
 21
-81.5106
  0
LINE
  8
0
 10
76.0988
 20
-81.5106
 11
77.1041
 21
-82.4157
  0
LINE
  8
0
 10
77.1041
 20
-82.4157
 11
78.3622
 21
-81.9983
  0
LINE
  8
0
 10
78.3622
 20
-81.9983
 11
79.5966
 21
-81.5551
  0
LINE
  8
0
 10
79.5966
 20
-81.5551
 11
80.8066
 21
-81.0857
  0
LINE
  8
0
 10
80.8066
 20
-81.0857
 11
81.991
 21
-80.5901
  0
LINE
  8
0
 10
81.991
 20
-80.5901
 11
83.1488
 21
-80.068
  0
LINE
  8
0
 10
83.1488
 20
-80.068
 11
83.7682
 21
-80.5839
  0
LINE
  8
0
 10
83.7682
 20
-80.5839
 11
84.3535
 21
-81.0646
  0
LINE
  8
0
 10
84.3535
 20
-81.0646
 11
84.0576
 21
-82.2997
  0
LINE
  8
0
 10
84.0576
 20
-82.2997
 11
83.7927
 21
-83.5561
  0
LINE
  8
0
 10
83.7927
 20
-83.5561
 11
83.5584
 21
-84.8326
  0
LINE
  8
0
 10
83.5584
 20
-84.8326
 11
83.3543
 21
-86.1282
  0
LINE
  8
0
 10
83.3543
 20
-86.1282
 11
83.1801
 21
-87.4422
  0
LINE
  8
0
 10
83.1801
 20
-87.4422
 11
84.2575
 21
-88.26
  0
LINE
  8
0
 10
84.2575
 20
-88.26
 11
85.4762
 21
-87.7388
  0
LINE
  8
0
 10
85.4762
 20
-87.7388
 11
86.6693
 21
-87.1938
  0
LINE
  8
0
 10
86.6693
 20
-87.1938
 11
87.8357
 21
-86.6249
  0
LINE
  8
0
 10
87.8357
 20
-86.6249
 11
88.9745
 21
-86.0319
  0
LINE
  8
0
 10
88.9745
 20
-86.0319
 11
90.0846
 21
-85.4147
  0
LINE
  8
0
 10
90.0846
 20
-85.4147
 11
90.745
 21
-85.877
  0
LINE
  8
0
 10
90.745
 20
-85.877
 11
91.3685
 21
-86.307
  0
LINE
  8
0
 10
91.3685
 20
-86.307
 11
91.1769
 21
-87.5626
  0
LINE
  8
0
 10
91.1769
 20
-87.5626
 11
91.0181
 21
-88.8367
  0
LINE
  8
0
 10
91.0181
 20
-88.8367
 11
90.8915
 21
-90.1283
  0
LINE
  8
0
 10
90.8915
 20
-90.1283
 11
90.7965
 21
-91.4365
  0
LINE
  8
0
 10
90.7965
 20
-91.4365
 11
90.7328
 21
-92.7605
  0
LINE
  8
0
 10
90.7328
 20
-92.7605
 11
91.8749
 21
-93.4853
  0
LINE
  8
0
 10
91.8749
 20
-93.4853
 11
93.0457
 21
-92.8639
  0
LINE
  8
0
 10
93.0457
 20
-92.8639
 11
94.189
 21
-92.221
  0
LINE
  8
0
 10
94.189
 20
-92.221
 11
95.3037
 21
-91.5564
  0
LINE
  8
0
 10
95.3037
 20
-91.5564
 11
96.3889
 21
-90.8703
  0
LINE
  8
0
 10
96.3889
 20
-90.8703
 11
97.4435
 21
-90.1624
  0
LINE
  8
0
 10
97.4435
 20
-90.1624
 11
98.1402
 21
-90.5678
  0
LINE
  8
0
 10
98.1402
 20
-90.5678
 11
98.7975
 21
-90.9441
  0
LINE
  8
0
 10
98.7975
 20
-90.9441
 11
98.7117
 21
-92.2113
  0
LINE
  8
0
 10
98.7117
 20
-92.2113
 11
98.66
 21
-93.4942
  0
LINE
  8
0
 10
98.66
 20
-93.4942
 11
98.6419
 21
-94.7919
  0
LINE
  8
0
 10
98.6419
 20
-94.7919
 11
98.6567
 21
-96.1034
  0
LINE
  8
0
 10
98.6567
 20
-96.1034
 11
98.7041
 21
-97.4281
  0
LINE
  8
0
 10
98.7041
 20
-97.4281
 11
99.9028
 21
-98.0548
  0
LINE
  8
0
 10
99.9028
 20
-98.0548
 11
101.018
 21
-97.3376
  0
LINE
  8
0
 10
101.018
 20
-97.3376
 11
102.103
 21
-96.6013
  0
LINE
  8
0
 10
102.103
 20
-96.6013
 11
103.158
 21
-95.8458
  0
LINE
  8
0
 10
103.158
 20
-95.8458
 11
104.182
 21
-95.0712
  0
LINE
  8
0
 10
104.182
 20
-95.0712
 11
105.174
 21
-94.2775
  0
LINE
  8
0
 10
105.174
 20
-94.2775
 11
105.902
 21
-94.6232
  0
LINE
  8
0
 10
105.902
 20
-94.6232
 11
106.588
 21
-94.9433
  0
LINE
  8
0
 10
106.588
 20
-94.9433
 11
106.609
 21
-96.2132
  0
LINE
  8
0
 10
106.609
 20
-96.2132
 11
106.665
 21
-97.4959
  0
LINE
  8
0
 10
106.665
 20
-97.4959
 11
106.755
 21
-98.7906
  0
LINE
  8
0
 10
106.755
 20
-98.7906
 11
106.88
 21
-100.096
  0
LINE
  8
0
 10
106.88
 20
-100.096
 11
107.038
 21
-101.412
  0
LINE
  8
0
 10
107.038
 20
-101.412
 11
108.285
 21
-101.936
  0
LINE
  8
0
 10
108.285
 20
-101.936
 11
109.336
 21
-101.129
  0
LINE
  8
0
 10
109.336
 20
-101.129
 11
110.356
 21
-100.304
  0
LINE
  8
0
 10
110.356
 20
-100.304
 11
111.344
 21
-99.4629
  0
LINE
  8
0
 10
111.344
 20
-99.4629
 11
112.3
 21
-98.6053
  0
LINE
  8
0
 10
112.3
 20
-98.6053
 11
113.221
 21
-97.7315
  0
LINE
  8
0
 10
113.221
 20
-97.7315
 11
113.976
 21
-98.015
  0
LINE
  8
0
 10
113.976
 20
-98.015
 11
114.687
 21
-98.2764
  0
LINE
  8
0
 10
114.687
 20
-98.2764
 11
114.814
 21
-99.5402
  0
LINE
  8
0
 10
114.814
 20
-99.5402
 11
114.977
 21
-100.814
  0
LINE
  8
0
 10
114.977
 20
-100.814
 11
115.175
 21
-102.096
  0
LINE
  8
0
 10
115.175
 20
-102.096
 11
115.408
 21
-103.387
  0
LINE
  8
0
 10
115.408
 20
-103.387
 11
115.676
 21
-104.685
  0
LINE
  8
0
 10
115.676
 20
-104.685
 11
116.962
 21
-105.103
  0
LINE
  8
0
 10
116.962
 20
-105.103
 11
117.942
 21
-104.21
  0
LINE
  8
0
 10
117.942
 20
-104.21
 11
118.889
 21
-103.303
  0
LINE
  8
0
 10
118.889
 20
-103.303
 11
119.804
 21
-102.382
  0
LINE
  8
0
 10
119.804
 20
-102.382
 11
120.684
 21
-101.448
  0
LINE
  8
0
 10
120.684
 20
-101.448
 11
121.53
 21
-100.5
  0
LINE
  8
0
 10
121.53
 20
-100.5
 11
122.305
 21
-100.719
  0
LINE
  8
0
 10
122.305
 20
-100.719
 11
123.036
 21
-100.92
  0
LINE
  8
0
 10
123.036
 20
-100.92
 11
123.268
 21
-102.169
  0
LINE
  8
0
 10
123.268
 20
-102.169
 11
123.537
 21
-103.424
  0
LINE
  8
0
 10
123.537
 20
-103.424
 11
123.842
 21
-104.686
  0
LINE
  8
0
 10
123.842
 20
-104.686
 11
124.182
 21
-105.953
  0
LINE
  8
0
 10
124.182
 20
-105.953
 11
124.558
 21
-107.224
  0
LINE
  8
0
 10
124.558
 20
-107.224
 11
125.875
 21
-107.533
  0
LINE
  8
0
 10
125.875
 20
-107.533
 11
126.776
 21
-106.561
  0
LINE
  8
0
 10
126.776
 20
-106.561
 11
127.644
 21
-105.578
  0
LINE
  8
0
 10
127.644
 20
-105.578
 11
128.478
 21
-104.584
  0
LINE
  8
0
 10
128.478
 20
-104.584
 11
129.278
 21
-103.579
  0
LINE
  8
0
 10
129.278
 20
-103.579
 11
130.041
 21
-102.563
  0
LINE
  8
0
 10
130.041
 20
-102.563
 11
130.832
 21
-102.717
  0
LINE
  8
0
 10
130.832
 20
-102.717
 11
131.576
 21
-102.856
  0
LINE
  8
0
 10
131.576
 20
-102.856
 11
131.912
 21
-104.081
  0
LINE
  8
0
 10
131.912
 20
-104.081
 11
132.285
 21
-105.31
  0
LINE
  8
0
 10
132.285
 20
-105.31
 11
132.695
 21
-106.541
  0
LINE
  8
0
 10
132.695
 20
-106.541
 11
133.14
 21
-107.775
  0
LINE
  8
0
 10
133.14
 20
-107.775
 11
133.62
 21
-109.01
  0
LINE
  8
0
 10
133.62
 20
-109.01
 11
134.959
 21
-109.208
  0
LINE
  8
0
 10
134.959
 20
-109.208
 11
135.776
 21
-108.164
  0
LINE
  8
0
 10
135.776
 20
-108.164
 11
136.558
 21
-107.112
  0
LINE
  8
0
 10
136.558
 20
-107.112
 11
137.307
 21
-106.051
  0
LINE
  8
0
 10
137.307
 20
-106.051
 11
138.019
 21
-104.983
  0
LINE
  8
0
 10
138.019
 20
-104.983
 11
138.694
 21
-103.907
  0
LINE
  8
0
 10
138.694
 20
-103.907
 11
139.496
 21
-103.994
  0
LINE
  8
0
 10
139.496
 20
-103.994
 11
140.249
 21
-104.071
  0
LINE
  8
0
 10
140.249
 20
-104.071
 11
140.686
 21
-105.263
  0
LINE
  8
0
 10
140.686
 20
-105.263
 11
141.161
 21
-106.456
  0
LINE
  8
0
 10
141.161
 20
-106.456
 11
141.672
 21
-107.649
  0
LINE
  8
0
 10
141.672
 20
-107.649
 11
142.219
 21
-108.841
  0
LINE
  8
0
 10
142.219
 20
-108.841
 11
142.801
 21
-110.032
  0
LINE
  8
0
 10
142.801
 20
-110.032
 11
144.151
 21
-110.117
  0
LINE
  8
0
 10
144.151
 20
-110.117
 11
144.878
 21
-109.009
  0
LINE
  8
0
 10
144.878
 20
-109.009
 11
145.57
 21
-107.894
  0
LINE
  8
0
 10
145.57
 20
-107.894
 11
146.227
 21
-106.775
  0
LINE
  8
0
 10
146.227
 20
-106.775
 11
146.847
 21
-105.651
  0
LINE
  8
0
 10
146.847
 20
-105.651
 11
147.43
 21
-104.523
  0
LINE
  8
0
 10
147.43
 20
-104.523
 11
148.236
 21
-104.542
  0
LINE
  8
0
 10
148.236
 20
-104.542
 11
148.993
 21
-104.555
  0
LINE
  8
0
 10
148.993
 20
-104.555
 11
149.529
 21
-105.707
  0
LINE
  8
0
 10
149.529
 20
-105.707
 11
150.101
 21
-106.856
  0
LINE
  8
0
 10
150.101
 20
-106.856
 11
150.711
 21
-108.002
  0
LINE
  8
0
 10
150.711
 20
-108.002
 11
151.355
 21
-109.144
  0
LINE
  8
0
 10
151.355
 20
-109.144
 11
152.035
 21
-110.282
  0
LINE
  8
0
 10
152.035
 20
-110.282
 11
153.387
 21
-110.254
  0
LINE
  8
0
 10
148.659
 20
-4.6864
 11
147.296
 21
-3.91846
  0
LINE
  8
0
 10
147.296
 20
-3.91846
 11
146.237
 21
-2.76695
  0
LINE
  8
0
 10
146.237
 20
-2.76695
 11
145.586
 21
-1.34459
  0
LINE
  8
0
 10
145.586
 20
-1.34459
 11
145.406
 21
0.209366
  0
LINE
  8
0
 10
145.406
 20
0.209366
 11
145.715
 21
1.74286
  0
LINE
  8
0
 10
145.715
 20
1.74286
 11
146.483
 21
3.10573
  0
LINE
  8
0
 10
146.483
 20
3.10573
 11
147.634
 21
4.1646
  0
LINE
  8
0
 10
147.634
 20
4.1646
 11
149.057
 21
4.81581
  0
LINE
  8
0
 10
149.057
 20
4.81581
 11
150.611
 21
4.99561
  0
LINE
  8
0
 10
150.611
 20
4.99561
 11
152.144
 21
4.6864
  0
LINE
  8
0
 10
152.144
 20
4.6864
 11
153.507
 21
3.91846
  0
LINE
  8
0
 10
153.507
 20
3.91846
 11
154.566
 21
2.76695
  0
LINE
  8
0
 10
154.566
 20
2.76695
 11
155.217
 21
1.34459
  0
LINE
  8
0
 10
155.217
 20
1.34459
 11
155.397
 21
-0.209366
  0
LINE
  8
0
 10
155.397
 20
-0.209366
 11
155.088
 21
-1.74286
  0
LINE
  8
0
 10
155.088
 20
-1.74286
 11
154.32
 21
-3.10573
  0
LINE
  8
0
 10
154.32
 20
-3.10573
 11
153.168
 21
-4.1646
  0
LINE
  8
0
 10
153.168
 20
-4.1646
 11
151.746
 21
-4.81581
  0
LINE
  8
0
 10
151.746
 20
-4.81581
 11
150.192
 21
-4.99561
  0
LINE
  8
0
 10
150.192
 20
-4.99561
 11
148.659
 21
-4.6864
  0
LINE
  8
0
 10
1.32727
 20
-44.671
 11
1.96353
 21
-43.5005
  0
LINE
  8
0
 10
1.96353
 20
-43.5005
 11
2.5118
 21
-42.3244
  0
LINE
  8
0
 10
2.5118
 20
-42.3244
 11
2.96651
 21
-41.1461
  0
LINE
  8
0
 10
2.96651
 20
-41.1461
 11
3.31874
 21
-39.9695
  0
LINE
  8
0
 10
3.31874
 20
-39.9695
 11
4.21547
 21
-39.8844
  0
LINE
  8
0
 10
4.21547
 20
-39.8844
 11
5.06389
 21
-39.7861
  0
LINE
  8
0
 10
5.06389
 20
-39.7861
 11
5.65306
 21
-40.8638
  0
LINE
  8
0
 10
5.65306
 20
-40.8638
 11
6.3428
 21
-41.9217
  0
LINE
  8
0
 10
6.3428
 20
-41.9217
 11
7.12361
 21
-42.9581
  0
LINE
  8
0
 10
7.12361
 20
-42.9581
 11
7.98933
 21
-43.9708
  0
LINE
  8
0
 10
7.98933
 20
-43.9708
 11
8.93552
 21
-44.9572
  0
LINE
  8
0
 10
8.93552
 20
-44.9572
 11
10.1227
 21
-44.7049
  0
LINE
  8
0
 10
10.1227
 20
-44.7049
 11
10.5859
 21
-43.4189
  0
LINE
  8
0
 10
10.5859
 20
-43.4189
 11
10.9649
 21
-42.1416
  0
LINE
  8
0
 10
10.9649
 20
-42.1416
 11
11.2567
 21
-40.8773
  0
LINE
  8
0
 10
11.2567
 20
-40.8773
 11
11.4565
 21
-39.6302
  0
LINE
  8
0
 10
11.4565
 20
-39.6302
 11
11.5564
 21
-38.4061
  0
LINE
  8
0
 10
11.5564
 20
-38.4061
 11
12.4158
 21
-38.1364
  0
LINE
  8
0
 10
12.4158
 20
-38.1364
 11
13.2252
 21
-37.8638
  0
LINE
  8
0
 10
13.2252
 20
-37.8638
 11
14.0256
 21
-38.7955
  0
LINE
  8
0
 10
14.0256
 20
-38.7955
 11
14.9202
 21
-39.6869
  0
LINE
  8
0
 10
14.9202
 20
-39.6869
 11
15.8994
 21
-40.5383
  0
LINE
  8
0
 10
15.8994
 20
-40.5383
 11
16.9568
 21
-41.3488
  0
LINE
  8
0
 10
16.9568
 20
-41.3488
 11
18.0874
 21
-42.117
  0
LINE
  8
0
 10
18.0874
 20
-42.117
 11
19.1962
 21
-41.6233
  0
LINE
  8
0
 10
19.1962
 20
-41.6233
 11
19.3819
 21
-40.2691
  0
LINE
  8
0
 10
19.3819
 20
-40.2691
 11
19.487
 21
-38.941
  0
LINE
  8
0
 10
19.487
 20
-38.941
 11
19.5095
 21
-37.6436
  0
LINE
  8
0
 10
19.5095
 20
-37.6436
 11
19.4457
 21
-36.3823
  0
LINE
  8
0
 10
19.4457
 20
-36.3823
 11
19.2889
 21
-35.1641
  0
LINE
  8
0
 10
19.2889
 20
-35.1641
 11
20.0735
 21
-34.7216
  0
LINE
  8
0
 10
20.0735
 20
-34.7216
 11
20.8085
 21
-34.2867
  0
LINE
  8
0
 10
20.8085
 20
-34.2867
 11
21.7851
 21
-35.0316
  0
LINE
  8
0
 10
21.7851
 20
-35.0316
 11
22.8456
 21
-35.7176
  0
LINE
  8
0
 10
22.8456
 20
-35.7176
 11
23.9804
 21
-36.3468
  0
LINE
  8
0
 10
23.9804
 20
-36.3468
 11
25.1832
 21
-36.9197
  0
LINE
  8
0
 10
25.1832
 20
-36.9197
 11
26.4487
 21
-37.4361
  0
LINE
  8
0
 10
26.4487
 20
-37.4361
 11
27.4307
 21
-36.7226
  0
LINE
  8
0
 10
27.4307
 20
-36.7226
 11
27.3307
 21
-35.3594
  0
LINE
  8
0
 10
27.3307
 20
-35.3594
 11
27.1575
 21
-34.0385
  0
LINE
  8
0
 10
27.1575
 20
-34.0385
 11
26.9097
 21
-32.7648
  0
LINE
  8
0
 10
26.9097
 20
-32.7648
 11
26.5851
 21
-31.5443
  0
LINE
  8
0
 10
26.5851
 20
-31.5443
 11
26.1784
 21
-30.3853
  0
LINE
  8
0
 10
26.1784
 20
-30.3853
 11
26.8539
 21
-29.7894
  0
LINE
  8
0
 10
26.8539
 20
-29.7894
 11
27.4824
 21
-29.2111
  0
LINE
  8
0
 10
27.4824
 20
-29.2111
 11
28.5925
 21
-29.7367
  0
LINE
  8
0
 10
28.5925
 20
-29.7367
 11
29.7724
 21
-30.1872
  0
LINE
  8
0
 10
29.7724
 20
-30.1872
 11
31.0133
 21
-30.5667
  0
LINE
  8
0
 10
31.0133
 20
-30.5667
 11
32.3089
 21
-30.8771
  0
LINE
  8
0
 10
32.3089
 20
-30.8771
 11
33.6542
 21
-31.119
  0
LINE
  8
0
 10
33.6542
 20
-31.119
 11
34.4663
 21
-30.217
  0
LINE
  8
0
 10
34.4663
 20
-30.217
 11
34.0851
 21
-28.9044
  0
LINE
  8
0
 10
34.0851
 20
-28.9044
 11
33.641
 21
-27.6483
  0
LINE
  8
0
 10
33.641
 20
-27.6483
 11
33.1339
 21
-26.4539
  0
LINE
  8
0
 10
33.1339
 20
-26.4539
 11
32.5625
 21
-25.3276
  0
LINE
  8
0
 10
32.5625
 20
-25.3276
 11
31.9238
 21
-24.2785
  0
LINE
  8
0
 10
31.9238
 20
-24.2785
 11
32.4606
 21
-23.5551
  0
LINE
  8
0
 10
32.4606
 20
-23.5551
 11
32.9552
 21
-22.8589
  0
LINE
  8
0
 10
32.9552
 20
-22.8589
 11
34.1503
 21
-23.1422
  0
LINE
  8
0
 10
34.1503
 20
-23.1422
 11
35.3981
 21
-23.3375
  0
LINE
  8
0
 10
35.3981
 20
-23.3375
 11
36.6908
 21
-23.4507
  0
LINE
  8
0
 10
36.6908
 20
-23.4507
 11
38.0226
 21
-23.485
  0
LINE
  8
0
 10
38.0226
 20
-23.485
 11
39.3887
 21
-23.4419
  0
LINE
  8
0
 10
39.3887
 20
-23.4419
 11
39.9956
 21
-22.3907
  0
LINE
  8
0
 10
39.9956
 20
-22.3907
 11
39.3499
 21
-21.186
  0
LINE
  8
0
 10
39.3499
 20
-21.186
 11
38.6543
 21
-20.0498
  0
LINE
  8
0
 10
38.6543
 20
-20.0498
 11
37.9099
 21
-18.9869
  0
LINE
  8
0
 10
37.9099
 20
-18.9869
 11
37.1169
 21
-18.004
  0
LINE
  8
0
 10
37.1169
 20
-18.004
 11
36.274
 21
-17.1106
  0
LINE
  8
0
 10
36.274
 20
-17.1106
 11
36.6486
 21
-16.2915
  0
LINE
  8
0
 10
36.6486
 20
-16.2915
 11
36.9877
 21
-15.5076
  0
LINE
  8
0
 10
36.9877
 20
-15.5076
 11
38.2156
 21
-15.5362
  0
LINE
  8
0
 10
38.2156
 20
-15.5362
 11
39.4767
 21
-15.4678
  0
LINE
  8
0
 10
39.4767
 20
-15.4678
 11
40.7646
 21
-15.3098
  0
LINE
  8
0
 10
40.7646
 20
-15.3098
 11
42.0745
 21
-15.0664
  0
LINE
  8
0
 10
42.0745
 20
-15.0664
 11
43.4019
 21
-14.7402
  0
LINE
  8
0
 10
43.4019
 20
-14.7402
 11
43.7769
 21
-13.5859
  0
LINE
  8
0
 10
43.7769
 20
-13.5859
 11
42.8948
 21
-12.5418
  0
LINE
  8
0
 10
42.8948
 20
-12.5418
 11
41.9782
 21
-11.5749
  0
LINE
  8
0
 10
41.9782
 20
-11.5749
 11
41.0291
 21
-10.6901
  0
LINE
  8
0
 10
41.0291
 20
-10.6901
 11
40.049
 21
-9.89352
  0
LINE
  8
0
 10
40.049
 20
-9.89352
 11
39.0388
 21
-9.19492
  0
LINE
  8
0
 10
39.0388
 20
-9.19492
 11
39.235
 21
-8.3158
  0
LINE
  8
0
 10
39.235
 20
-8.3158
 11
39.4036
 21
-7.47852
  0
LINE
  8
0
 10
39.4036
 20
-7.47852
 11
40.6107
 21
-7.25121
  0
LINE
  8
0
 10
40.6107
 20
-7.25121
 11
41.83
 21
-6.92215
  0
LINE
  8
0
 10
41.83
 20
-6.92215
 11
43.0569
 21
-6.49982
  0
LINE
  8
0
 10
43.0569
 20
-6.49982
 11
44.2875
 21
-5.9894
  0
LINE
  8
0
 10
44.2875
 20
-5.9894
 11
45.5181
 21
-5.39435
  0
LINE
  8
0
 10
45.5181
 20
-5.39435
 11
45.6449
 21
-4.18726
  0
LINE
  8
0
 10
45.6449
 20
-4.18726
 11
44.565
 21
-3.34937
  0
LINE
  8
0
 10
44.565
 20
-3.34937
 11
43.4674
 21
-2.59424
  0
LINE
  8
0
 10
43.4674
 20
-2.59424
 11
42.3551
 21
-1.92604
  0
LINE
  8
0
 10
42.3551
 20
-1.92604
 11
41.2308
 21
-1.35066
  0
LINE
  8
0
 10
41.2308
 20
-1.35066
 11
40.0974
 21
-0.877365
  0
LINE
  8
0
 10
40.0974
 20
-0.877365
 11
40.1065
 21
0.0233307
  0
LINE
  8
0
 10
40.1065
 20
0.0233307
 11
40.0974
 21
0.877365
  0
LINE
  8
0
 10
40.0974
 20
0.877365
 11
41.2308
 21
1.35066
  0
LINE
  8
0
 10
41.2308
 20
1.35066
 11
42.3551
 21
1.92604
  0
LINE
  8
0
 10
42.3551
 20
1.92604
 11
43.4674
 21
2.59424
  0
LINE
  8
0
 10
43.4674
 20
2.59424
 11
44.565
 21
3.34937
  0
LINE
  8
0
 10
44.565
 20
3.34937
 11
45.6449
 21
4.18726
  0
LINE
  8
0
 10
45.6449
 20
4.18726
 11
45.5181
 21
5.39435
  0
LINE
  8
0
 10
45.5181
 20
5.39435
 11
44.2875
 21
5.9894
  0
LINE
  8
0
 10
44.2875
 20
5.9894
 11
43.0569
 21
6.49982
  0
LINE
  8
0
 10
43.0569
 20
6.49982
 11
41.83
 21
6.92215
  0
LINE
  8
0
 10
41.83
 20
6.92215
 11
40.6107
 21
7.25121
  0
LINE
  8
0
 10
40.6107
 20
7.25121
 11
39.4036
 21
7.47852
  0
LINE
  8
0
 10
39.4036
 20
7.47852
 11
39.2253
 21
8.36143
  0
LINE
  8
0
 10
39.2253
 20
8.36143
 11
39.0388
 21
9.19492
  0
LINE
  8
0
 10
39.0388
 20
9.19492
 11
40.049
 21
9.89352
  0
LINE
  8
0
 10
40.049
 20
9.89352
 11
41.0291
 21
10.6901
  0
LINE
  8
0
 10
41.0291
 20
10.6901
 11
41.9782
 21
11.5749
  0
LINE
  8
0
 10
41.9782
 20
11.5749
 11
42.8948
 21
12.5418
  0
LINE
  8
0
 10
42.8948
 20
12.5418
 11
43.7769
 21
13.5859
  0
LINE
  8
0
 10
43.7769
 20
13.5859
 11
43.4019
 21
14.7402
  0
LINE
  8
0
 10
43.4019
 20
14.7402
 11
42.0745
 21
15.0664
  0
LINE
  8
0
 10
42.0745
 20
15.0664
 11
40.7646
 21
15.3098
  0
LINE
  8
0
 10
40.7646
 20
15.3098
 11
39.4767
 21
15.4678
  0
LINE
  8
0
 10
39.4767
 20
15.4678
 11
38.2156
 21
15.5362
  0
LINE
  8
0
 10
38.2156
 20
15.5362
 11
36.9877
 21
15.5076
  0
LINE
  8
0
 10
36.9877
 20
15.5076
 11
36.6297
 21
16.3341
  0
LINE
  8
0
 10
36.6297
 20
16.3341
 11
36.274
 21
17.1106
  0
LINE
  8
0
 10
36.274
 20
17.1106
 11
37.1169
 21
18.004
  0
LINE
  8
0
 10
37.1169
 20
18.004
 11
37.9099
 21
18.9869
  0
LINE
  8
0
 10
37.9099
 20
18.9869
 11
38.6543
 21
20.0498
  0
LINE
  8
0
 10
38.6543
 20
20.0498
 11
39.3499
 21
21.186
  0
LINE
  8
0
 10
39.3499
 20
21.186
 11
39.9956
 21
22.3907
  0
LINE
  8
0
 10
39.9956
 20
22.3907
 11
39.3887
 21
23.4419
  0
LINE
  8
0
 10
39.3887
 20
23.4419
 11
38.0226
 21
23.485
  0
LINE
  8
0
 10
38.0226
 20
23.485
 11
36.6908
 21
23.4507
  0
LINE
  8
0
 10
36.6908
 20
23.4507
 11
35.3981
 21
23.3375
  0
LINE
  8
0
 10
35.3981
 20
23.3375
 11
34.1503
 21
23.1422
  0
LINE
  8
0
 10
34.1503
 20
23.1422
 11
32.9552
 21
22.8589
  0
LINE
  8
0
 10
32.9552
 20
22.8589
 11
32.4332
 21
23.5929
  0
LINE
  8
0
 10
32.4332
 20
23.5929
 11
31.9238
 21
24.2785
  0
LINE
  8
0
 10
31.9238
 20
24.2785
 11
32.5625
 21
25.3276
  0
LINE
  8
0
 10
32.5625
 20
25.3276
 11
33.1339
 21
26.4539
  0
LINE
  8
0
 10
33.1339
 20
26.4539
 11
33.641
 21
27.6483
  0
LINE
  8
0
 10
33.641
 20
27.6483
 11
34.0851
 21
28.9044
  0
LINE
  8
0
 10
34.0851
 20
28.9044
 11
34.4663
 21
30.217
  0
LINE
  8
0
 10
34.4663
 20
30.217
 11
33.6542
 21
31.119
  0
LINE
  8
0
 10
33.6542
 20
31.119
 11
32.3089
 21
30.8771
  0
LINE
  8
0
 10
32.3089
 20
30.8771
 11
31.0133
 21
30.5667
  0
LINE
  8
0
 10
31.0133
 20
30.5667
 11
29.7724
 21
30.1872
  0
LINE
  8
0
 10
29.7724
 20
30.1872
 11
28.5925
 21
29.7367
  0
LINE
  8
0
 10
28.5925
 20
29.7367
 11
27.4824
 21
29.2111
  0
LINE
  8
0
 10
27.4824
 20
29.2111
 11
26.8192
 21
29.8206
  0
LINE
  8
0
 10
26.8192
 20
29.8206
 11
26.1784
 21
30.3853
  0
LINE
  8
0
 10
26.1784
 20
30.3853
 11
26.5851
 21
31.5443
  0
LINE
  8
0
 10
26.5851
 20
31.5443
 11
26.9097
 21
32.7648
  0
LINE
  8
0
 10
26.9097
 20
32.7648
 11
27.1575
 21
34.0385
  0
LINE
  8
0
 10
27.1575
 20
34.0385
 11
27.3307
 21
35.3594
  0
LINE
  8
0
 10
27.3307
 20
35.3594
 11
27.4307
 21
36.7226
  0
LINE
  8
0
 10
27.4307
 20
36.7226
 11
26.4487
 21
37.4361
  0
LINE
  8
0
 10
26.4487
 20
37.4361
 11
25.1832
 21
36.9197
  0
LINE
  8
0
 10
25.1832
 20
36.9197
 11
23.9804
 21
36.3468
  0
LINE
  8
0
 10
23.9804
 20
36.3468
 11
22.8456
 21
35.7176
  0
LINE
  8
0
 10
22.8456
 20
35.7176
 11
21.7851
 21
35.0316
  0
LINE
  8
0
 10
21.7851
 20
35.0316
 11
20.8085
 21
34.2867
  0
LINE
  8
0
 10
20.8085
 20
34.2867
 11
20.0331
 21
34.7449
  0
LINE
  8
0
 10
20.0331
 20
34.7449
 11
19.2889
 21
35.1641
  0
LINE
  8
0
 10
19.2889
 20
35.1641
 11
19.4457
 21
36.3823
  0
LINE
  8
0
 10
19.4457
 20
36.3823
 11
19.5095
 21
37.6436
  0
LINE
  8
0
 10
19.5095
 20
37.6436
 11
19.487
 21
38.941
  0
LINE
  8
0
 10
19.487
 20
38.941
 11
19.3819
 21
40.2691
  0
LINE
  8
0
 10
19.3819
 20
40.2691
 11
19.1962
 21
41.6233
  0
LINE
  8
0
 10
19.1962
 20
41.6233
 11
18.0874
 21
42.117
  0
LINE
  8
0
 10
18.0874
 20
42.117
 11
16.9568
 21
41.3488
  0
LINE
  8
0
 10
16.9568
 20
41.3488
 11
15.8994
 21
40.5383
  0
LINE
  8
0
 10
15.8994
 20
40.5383
 11
14.9202
 21
39.6869
  0
LINE
  8
0
 10
14.9202
 20
39.6869
 11
14.0256
 21
38.7955
  0
LINE
  8
0
 10
14.0256
 20
38.7955
 11
13.2252
 21
37.8638
  0
LINE
  8
0
 10
13.2252
 20
37.8638
 11
12.3714
 21
38.1508
  0
LINE
  8
0
 10
12.3714
 20
38.1508
 11
11.5564
 21
38.4061
  0
LINE
  8
0
 10
11.5564
 20
38.4061
 11
11.4565
 21
39.6302
  0
LINE
  8
0
 10
11.4565
 20
39.6302
 11
11.2567
 21
40.8773
  0
LINE
  8
0
 10
11.2567
 20
40.8773
 11
10.9649
 21
42.1416
  0
LINE
  8
0
 10
10.9649
 20
42.1416
 11
10.5859
 21
43.4189
  0
LINE
  8
0
 10
10.5859
 20
43.4189
 11
10.1227
 21
44.7049
  0
LINE
  8
0
 10
10.1227
 20
44.7049
 11
8.93552
 21
44.9572
  0
LINE
  8
0
 10
8.93552
 20
44.9572
 11
7.98933
 21
43.9708
  0
LINE
  8
0
 10
7.98933
 20
43.9708
 11
7.12361
 21
42.9581
  0
LINE
  8
0
 10
7.12361
 20
42.9581
 11
6.3428
 21
41.9217
  0
LINE
  8
0
 10
6.3428
 20
41.9217
 11
5.65306
 21
40.8638
  0
LINE
  8
0
 10
5.65306
 20
40.8638
 11
5.06389
 21
39.7861
  0
LINE
  8
0
 10
5.06389
 20
39.7861
 11
4.16907
 21
39.8893
  0
LINE
  8
0
 10
4.16907
 20
39.8893
 11
3.31876
 21
39.9695
  0
LINE
  8
0
 10
3.31876
 20
39.9695
 11
2.96652
 21
41.1461
  0
LINE
  8
0
 10
2.96652
 20
41.1461
 11
2.51181
 21
42.3244
  0
LINE
  8
0
 10
2.51181
 20
42.3244
 11
1.96355
 21
43.5005
  0
LINE
  8
0
 10
1.96355
 20
43.5005
 11
1.32729
 21
44.671
  0
LINE
  8
0
 10
1.32729
 20
44.671
 11
0.606873
 21
45.8326
  0
LINE
  8
0
 10
0.606873
 20
45.8326
 11
-0.606873
 21
45.8326
  0
LINE
  8
0
 10
-0.606873
 20
45.8326
 11
-1.32729
 21
44.671
  0
LINE
  8
0
 10
-1.32729
 20
44.671
 11
-1.96355
 21
43.5005
  0
LINE
  8
0
 10
-1.96355
 20
43.5005
 11
-2.51181
 21
42.3244
  0
LINE
  8
0
 10
-2.51181
 20
42.3244
 11
-2.96652
 21
41.1461
  0
LINE
  8
0
 10
-2.96652
 20
41.1461
 11
-3.31876
 21
39.9695
  0
LINE
  8
0
 10
-3.31876
 20
39.9695
 11
-4.21547
 21
39.8844
  0
LINE
  8
0
 10
-4.21547
 20
39.8844
 11
-5.06389
 21
39.7861
  0
LINE
  8
0
 10
-5.06389
 20
39.7861
 11
-5.65306
 21
40.8638
  0
LINE
  8
0
 10
-5.65306
 20
40.8638
 11
-6.3428
 21
41.9217
  0
LINE
  8
0
 10
-6.3428
 20
41.9217
 11
-7.12361
 21
42.9581
  0
LINE
  8
0
 10
-7.12361
 20
42.9581
 11
-7.98933
 21
43.9708
  0
LINE
  8
0
 10
-7.98933
 20
43.9708
 11
-8.93552
 21
44.9572
  0
LINE
  8
0
 10
-8.93552
 20
44.9572
 11
-10.1227
 21
44.7049
  0
LINE
  8
0
 10
-10.1227
 20
44.7049
 11
-10.5859
 21
43.4189
  0
LINE
  8
0
 10
-10.5859
 20
43.4189
 11
-10.9649
 21
42.1416
  0
LINE
  8
0
 10
-10.9649
 20
42.1416
 11
-11.2567
 21
40.8773
  0
LINE
  8
0
 10
-11.2567
 20
40.8773
 11
-11.4565
 21
39.6302
  0
LINE
  8
0
 10
-11.4565
 20
39.6302
 11
-11.5564
 21
38.4061
  0
LINE
  8
0
 10
-11.5564
 20
38.4061
 11
-12.4158
 21
38.1364
  0
LINE
  8
0
 10
-12.4158
 20
38.1364
 11
-13.2252
 21
37.8638
  0
LINE
  8
0
 10
-13.2252
 20
37.8638
 11
-14.0256
 21
38.7955
  0
LINE
  8
0
 10
-14.0256
 20
38.7955
 11
-14.9202
 21
39.6869
  0
LINE
  8
0
 10
-14.9202
 20
39.6869
 11
-15.8994
 21
40.5383
  0
LINE
  8
0
 10
-15.8994
 20
40.5383
 11
-16.9568
 21
41.3488
  0
LINE
  8
0
 10
-16.9568
 20
41.3488
 11
-18.0874
 21
42.117
  0
LINE
  8
0
 10
-18.0874
 20
42.117
 11
-19.1962
 21
41.6233
  0
LINE
  8
0
 10
-19.1962
 20
41.6233
 11
-19.3819
 21
40.2691
  0
LINE
  8
0
 10
-19.3819
 20
40.2691
 11
-19.487
 21
38.941
  0
LINE
  8
0
 10
-19.487
 20
38.941
 11
-19.5095
 21
37.6436
  0
LINE
  8
0
 10
-19.5095
 20
37.6436
 11
-19.4457
 21
36.3823
  0
LINE
  8
0
 10
-19.4457
 20
36.3823
 11
-19.2889
 21
35.1641
  0
LINE
  8
0
 10
-19.2889
 20
35.1641
 11
-20.0735
 21
34.7216
  0
LINE
  8
0
 10
-20.0735
 20
34.7216
 11
-20.8085
 21
34.2867
  0
LINE
  8
0
 10
-20.8085
 20
34.2867
 11
-21.7851
 21
35.0316
  0
LINE
  8
0
 10
-21.7851
 20
35.0316
 11
-22.8456
 21
35.7176
  0
LINE
  8
0
 10
-22.8456
 20
35.7176
 11
-23.9804
 21
36.3468
  0
LINE
  8
0
 10
-23.9804
 20
36.3468
 11
-25.1832
 21
36.9197
  0
LINE
  8
0
 10
-25.1832
 20
36.9197
 11
-26.4487
 21
37.4361
  0
LINE
  8
0
 10
-26.4487
 20
37.4361
 11
-27.4307
 21
36.7226
  0
LINE
  8
0
 10
-27.4307
 20
36.7226
 11
-27.3307
 21
35.3594
  0
LINE
  8
0
 10
-27.3307
 20
35.3594
 11
-27.1575
 21
34.0385
  0
LINE
  8
0
 10
-27.1575
 20
34.0385
 11
-26.9097
 21
32.7648
  0
LINE
  8
0
 10
-26.9097
 20
32.7648
 11
-26.5851
 21
31.5443
  0
LINE
  8
0
 10
-26.5851
 20
31.5443
 11
-26.1784
 21
30.3853
  0
LINE
  8
0
 10
-26.1784
 20
30.3853
 11
-26.8539
 21
29.7894
  0
LINE
  8
0
 10
-26.8539
 20
29.7894
 11
-27.4824
 21
29.2111
  0
LINE
  8
0
 10
-27.4824
 20
29.2111
 11
-28.5925
 21
29.7367
  0
LINE
  8
0
 10
-28.5925
 20
29.7367
 11
-29.7724
 21
30.1872
  0
LINE
  8
0
 10
-29.7724
 20
30.1872
 11
-31.0133
 21
30.5667
  0
LINE
  8
0
 10
-31.0133
 20
30.5667
 11
-32.3089
 21
30.8771
  0
LINE
  8
0
 10
-32.3089
 20
30.8771
 11
-33.6542
 21
31.119
  0
LINE
  8
0
 10
-33.6542
 20
31.119
 11
-34.4663
 21
30.217
  0
LINE
  8
0
 10
-34.4663
 20
30.217
 11
-34.0851
 21
28.9044
  0
LINE
  8
0
 10
-34.0851
 20
28.9044
 11
-33.641
 21
27.6483
  0
LINE
  8
0
 10
-33.641
 20
27.6483
 11
-33.1339
 21
26.4539
  0
LINE
  8
0
 10
-33.1339
 20
26.4539
 11
-32.5625
 21
25.3276
  0
LINE
  8
0
 10
-32.5625
 20
25.3276
 11
-31.9238
 21
24.2785
  0
LINE
  8
0
 10
-31.9238
 20
24.2785
 11
-32.4606
 21
23.5551
  0
LINE
  8
0
 10
-32.4606
 20
23.5551
 11
-32.9552
 21
22.8589
  0
LINE
  8
0
 10
-32.9552
 20
22.8589
 11
-34.1503
 21
23.1422
  0
LINE
  8
0
 10
-34.1503
 20
23.1422
 11
-35.3981
 21
23.3375
  0
LINE
  8
0
 10
-35.3981
 20
23.3375
 11
-36.6908
 21
23.4507
  0
LINE
  8
0
 10
-36.6908
 20
23.4507
 11
-38.0226
 21
23.485
  0
LINE
  8
0
 10
-38.0226
 20
23.485
 11
-39.3887
 21
23.4419
  0
LINE
  8
0
 10
-39.3887
 20
23.4419
 11
-39.9956
 21
22.3907
  0
LINE
  8
0
 10
-39.9956
 20
22.3907
 11
-39.3499
 21
21.186
  0
LINE
  8
0
 10
-39.3499
 20
21.186
 11
-38.6543
 21
20.0498
  0
LINE
  8
0
 10
-38.6543
 20
20.0498
 11
-37.9099
 21
18.9869
  0
LINE
  8
0
 10
-37.9099
 20
18.9869
 11
-37.1169
 21
18.004
  0
LINE
  8
0
 10
-37.1169
 20
18.004
 11
-36.274
 21
17.1106
  0
LINE
  8
0
 10
-36.274
 20
17.1106
 11
-36.6486
 21
16.2915
  0
LINE
  8
0
 10
-36.6486
 20
16.2915
 11
-36.9877
 21
15.5076
  0
LINE
  8
0
 10
-36.9877
 20
15.5076
 11
-38.2156
 21
15.5362
  0
LINE
  8
0
 10
-38.2156
 20
15.5362
 11
-39.4767
 21
15.4678
  0
LINE
  8
0
 10
-39.4767
 20
15.4678
 11
-40.7646
 21
15.3098
  0
LINE
  8
0
 10
-40.7646
 20
15.3098
 11
-42.0745
 21
15.0664
  0
LINE
  8
0
 10
-42.0745
 20
15.0664
 11
-43.4019
 21
14.7402
  0
LINE
  8
0
 10
-43.4019
 20
14.7402
 11
-43.7769
 21
13.5859
  0
LINE
  8
0
 10
-43.7769
 20
13.5859
 11
-42.8948
 21
12.5418
  0
LINE
  8
0
 10
-42.8948
 20
12.5418
 11
-41.9782
 21
11.5749
  0
LINE
  8
0
 10
-41.9782
 20
11.5749
 11
-41.0291
 21
10.6901
  0
LINE
  8
0
 10
-41.0291
 20
10.6901
 11
-40.049
 21
9.89352
  0
LINE
  8
0
 10
-40.049
 20
9.89352
 11
-39.0388
 21
9.19492
  0
LINE
  8
0
 10
-39.0388
 20
9.19492
 11
-39.235
 21
8.3158
  0
LINE
  8
0
 10
-39.235
 20
8.3158
 11
-39.4036
 21
7.47852
  0
LINE
  8
0
 10
-39.4036
 20
7.47852
 11
-40.6107
 21
7.25121
  0
LINE
  8
0
 10
-40.6107
 20
7.25121
 11
-41.83
 21
6.92215
  0
LINE
  8
0
 10
-41.83
 20
6.92215
 11
-43.0569
 21
6.49982
  0
LINE
  8
0
 10
-43.0569
 20
6.49982
 11
-44.2875
 21
5.9894
  0
LINE
  8
0
 10
-44.2875
 20
5.9894
 11
-45.5181
 21
5.39435
  0
LINE
  8
0
 10
-45.5181
 20
5.39435
 11
-45.6449
 21
4.18726
  0
LINE
  8
0
 10
-45.6449
 20
4.18726
 11
-44.565
 21
3.34937
  0
LINE
  8
0
 10
-44.565
 20
3.34937
 11
-43.4674
 21
2.59424
  0
LINE
  8
0
 10
-43.4674
 20
2.59424
 11
-42.3551
 21
1.92604
  0
LINE
  8
0
 10
-42.3551
 20
1.92604
 11
-41.2308
 21
1.35066
  0
LINE
  8
0
 10
-41.2308
 20
1.35066
 11
-40.0974
 21
0.877365
  0
LINE
  8
0
 10
-40.0974
 20
0.877365
 11
-40.1065
 21
-0.0233307
  0
LINE
  8
0
 10
-40.1065
 20
-0.0233307
 11
-40.0974
 21
-0.877365
  0
LINE
  8
0
 10
-40.0974
 20
-0.877365
 11
-41.2308
 21
-1.35066
  0
LINE
  8
0
 10
-41.2308
 20
-1.35066
 11
-42.3551
 21
-1.92604
  0
LINE
  8
0
 10
-42.3551
 20
-1.92604
 11
-43.4674
 21
-2.59424
  0
LINE
  8
0
 10
-43.4674
 20
-2.59424
 11
-44.565
 21
-3.34937
  0
LINE
  8
0
 10
-44.565
 20
-3.34937
 11
-45.6449
 21
-4.18726
  0
LINE
  8
0
 10
-45.6449
 20
-4.18726
 11
-45.5181
 21
-5.39435
  0
LINE
  8
0
 10
-45.5181
 20
-5.39435
 11
-44.2875
 21
-5.9894
  0
LINE
  8
0
 10
-44.2875
 20
-5.9894
 11
-43.0569
 21
-6.49982
  0
LINE
  8
0
 10
-43.0569
 20
-6.49982
 11
-41.83
 21
-6.92215
  0
LINE
  8
0
 10
-41.83
 20
-6.92215
 11
-40.6107
 21
-7.25121
  0
LINE
  8
0
 10
-40.6107
 20
-7.25121
 11
-39.4036
 21
-7.47852
  0
LINE
  8
0
 10
-39.4036
 20
-7.47852
 11
-39.2253
 21
-8.36143
  0
LINE
  8
0
 10
-39.2253
 20
-8.36143
 11
-39.0388
 21
-9.19492
  0
LINE
  8
0
 10
-39.0388
 20
-9.19492
 11
-40.049
 21
-9.89352
  0
LINE
  8
0
 10
-40.049
 20
-9.89352
 11
-41.0291
 21
-10.6901
  0
LINE
  8
0
 10
-41.0291
 20
-10.6901
 11
-41.9782
 21
-11.5749
  0
LINE
  8
0
 10
-41.9782
 20
-11.5749
 11
-42.8948
 21
-12.5418
  0
LINE
  8
0
 10
-42.8948
 20
-12.5418
 11
-43.7769
 21
-13.5859
  0
LINE
  8
0
 10
-43.7769
 20
-13.5859
 11
-43.4019
 21
-14.7402
  0
LINE
  8
0
 10
-43.4019
 20
-14.7402
 11
-42.0745
 21
-15.0664
  0
LINE
  8
0
 10
-42.0745
 20
-15.0664
 11
-40.7646
 21
-15.3098
  0
LINE
  8
0
 10
-40.7646
 20
-15.3098
 11
-39.4767
 21
-15.4678
  0
LINE
  8
0
 10
-39.4767
 20
-15.4678
 11
-38.2156
 21
-15.5362
  0
LINE
  8
0
 10
-38.2156
 20
-15.5362
 11
-36.9877
 21
-15.5076
  0
LINE
  8
0
 10
-36.9877
 20
-15.5076
 11
-36.6297
 21
-16.3341
  0
LINE
  8
0
 10
-36.6297
 20
-16.3341
 11
-36.274
 21
-17.1106
  0
LINE
  8
0
 10
-36.274
 20
-17.1106
 11
-37.1169
 21
-18.004
  0
LINE
  8
0
 10
-37.1169
 20
-18.004
 11
-37.9099
 21
-18.9869
  0
LINE
  8
0
 10
-37.9099
 20
-18.9869
 11
-38.6543
 21
-20.0498
  0
LINE
  8
0
 10
-38.6543
 20
-20.0498
 11
-39.3499
 21
-21.186
  0
LINE
  8
0
 10
-39.3499
 20
-21.186
 11
-39.9956
 21
-22.3907
  0
LINE
  8
0
 10
-39.9956
 20
-22.3907
 11
-39.3887
 21
-23.4419
  0
LINE
  8
0
 10
-39.3887
 20
-23.4419
 11
-38.0226
 21
-23.485
  0
LINE
  8
0
 10
-38.0226
 20
-23.485
 11
-36.6908
 21
-23.4507
  0
LINE
  8
0
 10
-36.6908
 20
-23.4507
 11
-35.3981
 21
-23.3375
  0
LINE
  8
0
 10
-35.3981
 20
-23.3375
 11
-34.1503
 21
-23.1422
  0
LINE
  8
0
 10
-34.1503
 20
-23.1422
 11
-32.9552
 21
-22.8589
  0
LINE
  8
0
 10
-32.9552
 20
-22.8589
 11
-32.4332
 21
-23.5929
  0
LINE
  8
0
 10
-32.4332
 20
-23.5929
 11
-31.9238
 21
-24.2785
  0
LINE
  8
0
 10
-31.9238
 20
-24.2785
 11
-32.5625
 21
-25.3276
  0
LINE
  8
0
 10
-32.5625
 20
-25.3276
 11
-33.1339
 21
-26.4539
  0
LINE
  8
0
 10
-33.1339
 20
-26.4539
 11
-33.641
 21
-27.6483
  0
LINE
  8
0
 10
-33.641
 20
-27.6483
 11
-34.0851
 21
-28.9044
  0
LINE
  8
0
 10
-34.0851
 20
-28.9044
 11
-34.4663
 21
-30.217
  0
LINE
  8
0
 10
-34.4663
 20
-30.217
 11
-33.6542
 21
-31.119
  0
LINE
  8
0
 10
-33.6542
 20
-31.119
 11
-32.3089
 21
-30.8771
  0
LINE
  8
0
 10
-32.3089
 20
-30.8771
 11
-31.0133
 21
-30.5667
  0
LINE
  8
0
 10
-31.0133
 20
-30.5667
 11
-29.7724
 21
-30.1872
  0
LINE
  8
0
 10
-29.7724
 20
-30.1872
 11
-28.5925
 21
-29.7367
  0
LINE
  8
0
 10
-28.5925
 20
-29.7367
 11
-27.4824
 21
-29.2111
  0
LINE
  8
0
 10
-27.4824
 20
-29.2111
 11
-26.8192
 21
-29.8206
  0
LINE
  8
0
 10
-26.8192
 20
-29.8206
 11
-26.1784
 21
-30.3853
  0
LINE
  8
0
 10
-26.1784
 20
-30.3853
 11
-26.5851
 21
-31.5443
  0
LINE
  8
0
 10
-26.5851
 20
-31.5443
 11
-26.9097
 21
-32.7648
  0
LINE
  8
0
 10
-26.9097
 20
-32.7648
 11
-27.1575
 21
-34.0385
  0
LINE
  8
0
 10
-27.1575
 20
-34.0385
 11
-27.3307
 21
-35.3594
  0
LINE
  8
0
 10
-27.3307
 20
-35.3594
 11
-27.4307
 21
-36.7226
  0
LINE
  8
0
 10
-27.4307
 20
-36.7226
 11
-26.4487
 21
-37.4361
  0
LINE
  8
0
 10
-26.4487
 20
-37.4361
 11
-25.1832
 21
-36.9197
  0
LINE
  8
0
 10
-25.1832
 20
-36.9197
 11
-23.9804
 21
-36.3468
  0
LINE
  8
0
 10
-23.9804
 20
-36.3468
 11
-22.8456
 21
-35.7176
  0
LINE
  8
0
 10
-22.8456
 20
-35.7176
 11
-21.7851
 21
-35.0316
  0
LINE
  8
0
 10
-21.7851
 20
-35.0316
 11
-20.8085
 21
-34.2867
  0
LINE
  8
0
 10
-20.8085
 20
-34.2867
 11
-20.0331
 21
-34.7449
  0
LINE
  8
0
 10
-20.0331
 20
-34.7449
 11
-19.2889
 21
-35.1641
  0
LINE
  8
0
 10
-19.2889
 20
-35.1641
 11
-19.4457
 21
-36.3823
  0
LINE
  8
0
 10
-19.4457
 20
-36.3823
 11
-19.5095
 21
-37.6436
  0
LINE
  8
0
 10
-19.5095
 20
-37.6436
 11
-19.487
 21
-38.941
  0
LINE
  8
0
 10
-19.487
 20
-38.941
 11
-19.3819
 21
-40.2691
  0
LINE
  8
0
 10
-19.3819
 20
-40.2691
 11
-19.1962
 21
-41.6233
  0
LINE
  8
0
 10
-19.1962
 20
-41.6233
 11
-18.0874
 21
-42.117
  0
LINE
  8
0
 10
-18.0874
 20
-42.117
 11
-16.9568
 21
-41.3488
  0
LINE
  8
0
 10
-16.9568
 20
-41.3488
 11
-15.8994
 21
-40.5383
  0
LINE
  8
0
 10
-15.8994
 20
-40.5383
 11
-14.9202
 21
-39.6869
  0
LINE
  8
0
 10
-14.9202
 20
-39.6869
 11
-14.0256
 21
-38.7955
  0
LINE
  8
0
 10
-14.0256
 20
-38.7955
 11
-13.2252
 21
-37.8638
  0
LINE
  8
0
 10
-13.2252
 20
-37.8638
 11
-12.3714
 21
-38.1508
  0
LINE
  8
0
 10
-12.3714
 20
-38.1508
 11
-11.5564
 21
-38.4061
  0
LINE
  8
0
 10
-11.5564
 20
-38.4061
 11
-11.4565
 21
-39.6302
  0
LINE
  8
0
 10
-11.4565
 20
-39.6302
 11
-11.2567
 21
-40.8773
  0
LINE
  8
0
 10
-11.2567
 20
-40.8773
 11
-10.9649
 21
-42.1416
  0
LINE
  8
0
 10
-10.9649
 20
-42.1416
 11
-10.5859
 21
-43.4189
  0
LINE
  8
0
 10
-10.5859
 20
-43.4189
 11
-10.1227
 21
-44.7049
  0
LINE
  8
0
 10
-10.1227
 20
-44.7049
 11
-8.93552
 21
-44.9572
  0
LINE
  8
0
 10
-8.93552
 20
-44.9572
 11
-7.98933
 21
-43.9708
  0
LINE
  8
0
 10
-7.98933
 20
-43.9708
 11
-7.12361
 21
-42.9581
  0
LINE
  8
0
 10
-7.12361
 20
-42.9581
 11
-6.3428
 21
-41.9217
  0
LINE
  8
0
 10
-6.3428
 20
-41.9217
 11
-5.65306
 21
-40.8638
  0
LINE
  8
0
 10
-5.65306
 20
-40.8638
 11
-5.06389
 21
-39.7861
  0
LINE
  8
0
 10
-5.06389
 20
-39.7861
 11
-4.16907
 21
-39.8893
  0
LINE
  8
0
 10
-4.16907
 20
-39.8893
 11
-3.31876
 21
-39.9695
  0
LINE
  8
0
 10
-3.31876
 20
-39.9695
 11
-2.96652
 21
-41.1461
  0
LINE
  8
0
 10
-2.96652
 20
-41.1461
 11
-2.51181
 21
-42.3244
  0
LINE
  8
0
 10
-2.51181
 20
-42.3244
 11
-1.96355
 21
-43.5005
  0
LINE
  8
0
 10
-1.96355
 20
-43.5005
 11
-1.32729
 21
-44.671
  0
LINE
  8
0
 10
-1.32729
 20
-44.671
 11
-0.606873
 21
-45.8326
  0
LINE
  8
0
 10
-0.606873
 20
-45.8326
 11
0.606857
 21
-45.8326
  0
LINE
  8
0
 10
0.606857
 20
-45.8326
 11
1.32727
 21
-44.671
  0
LINE
  8
0
 10
-1.54507
 20
-4.75528
 11
-2.93892
 21
-4.04507
  0
LINE
  8
0
 10
-2.93892
 20
-4.04507
 11
-4.04507
 21
-2.93892
  0
LINE
  8
0
 10
-4.04507
 20
-2.93892
 11
-4.75528
 21
-1.54507
  0
LINE
  8
0
 10
-4.75528
 20
-1.54507
 11
-5
 21
0
  0
LINE
  8
0
 10
-5
 20
0
 11
-4.75528
 21
1.54507
  0
LINE
  8
0
 10
-4.75528
 20
1.54507
 11
-4.04507
 21
2.93892
  0
LINE
  8
0
 10
-4.04507
 20
2.93892
 11
-2.93892
 21
4.04507
  0
LINE
  8
0
 10
-2.93892
 20
4.04507
 11
-1.54507
 21
4.75528
  0
LINE
  8
0
 10
-1.54507
 20
4.75528
 11
0
 21
5
  0
LINE
  8
0
 10
0
 20
5
 11
1.54507
 21
4.75528
  0
LINE
  8
0
 10
1.54507
 20
4.75528
 11
2.93892
 21
4.04507
  0
LINE
  8
0
 10
2.93892
 20
4.04507
 11
4.04507
 21
2.93892
  0
LINE
  8
0
 10
4.04507
 20
2.93892
 11
4.75528
 21
1.54507
  0
LINE
  8
0
 10
4.75528
 20
1.54507
 11
5
 21
0
  0
LINE
  8
0
 10
5
 20
0
 11
4.75528
 21
-1.54507
  0
LINE
  8
0
 10
4.75528
 20
-1.54507
 11
4.04507
 21
-2.93892
  0
LINE
  8
0
 10
4.04507
 20
-2.93892
 11
2.93892
 21
-4.04507
  0
LINE
  8
0
 10
2.93892
 20
-4.04507
 11
1.54507
 21
-4.75528
  0
LINE
  8
0
 10
1.54507
 20
-4.75528
 11
0
 21
-5
  0
LINE
  8
0
 10
0
 20
-5
 11
-1.54507
 21
-4.75528
  0
ENDSEC
  0
SECTION
  2
OBJECTS
  0
DICTIONARY
  0
ENDSEC
  0
EOF
