  0
SECTION
  2
BLOCKS
  0
ENDSEC
  0
SECTION
  2
ENTITIES
  0
LINE
  8
0
 10
135.117
 20
-94.8196
 11
135.768
 21
-93.6781
  0
LINE
  8
0
 10
135.768
 20
-93.6781
 11
136.377
 21
-92.5322
  0
LINE
  8
0
 10
136.377
 20
-92.5322
 11
136.944
 21
-91.3827
  0
LINE
  8
0
 10
136.944
 20
-91.3827
 11
137.467
 21
-90.2301
  0
LINE
  8
0
 10
137.467
 20
-90.2301
 11
138.282
 21
-90.2137
  0
LINE
  8
0
 10
138.282
 20
-90.2137
 11
139.048
 21
-90.1919
  0
LINE
  8
0
 10
139.048
 20
-90.1919
 11
139.627
 21
-91.3178
  0
LINE
  8
0
 10
139.627
 20
-91.3178
 11
140.249
 21
-92.4386
  0
LINE
  8
0
 10
140.249
 20
-92.4386
 11
140.913
 21
-93.5537
  0
LINE
  8
0
 10
140.913
 20
-93.5537
 11
141.617
 21
-94.6625
  0
LINE
  8
0
 10
141.617
 20
-94.6625
 11
142.362
 21
-95.7645
  0
LINE
  8
0
 10
142.362
 20
-95.7645
 11
143.696
 21
-95.6675
  0
LINE
  8
0
 10
143.696
 20
-95.6675
 11
144.273
 21
-94.4697
  0
LINE
  8
0
 10
144.273
 20
-94.4697
 11
144.81
 21
-93.2707
  0
LINE
  8
0
 10
144.81
 20
-93.2707
 11
145.306
 21
-92.0713
  0
LINE
  8
0
 10
145.306
 20
-92.0713
 11
145.76
 21
-90.8724
  0
LINE
  8
0
 10
145.76
 20
-90.8724
 11
146.169
 21
-89.6748
  0
LINE
  8
0
 10
146.169
 20
-89.6748
 11
146.979
 21
-89.5798
  0
LINE
  8
0
 10
146.979
 20
-89.5798
 11
147.739
 21
-89.4841
  0
LINE
  8
0
 10
147.739
 20
-89.4841
 11
148.424
 21
-90.5489
  0
LINE
  8
0
 10
148.424
 20
-90.5489
 11
149.151
 21
-91.6045
  0
LINE
  8
0
 10
149.151
 20
-91.6045
 11
149.919
 21
-92.6503
  0
LINE
  8
0
 10
149.919
 20
-92.6503
 11
150.728
 21
-93.6859
  0
LINE
  8
0
 10
150.728
 20
-93.6859
 11
151.575
 21
-94.7109
  0
LINE
  8
0
 10
151.575
 20
-94.7109
 11
152.894
 21
-94.4856
  0
LINE
  8
0
 10
152.894
 20
-94.4856
 11
153.353
 21
-93.2376
  0
LINE
  8
0
 10
153.353
 20
-93.2376
 11
153.771
 21
-91.9924
  0
LINE
  8
0
 10
153.771
 20
-91.9924
 11
154.149
 21
-90.7508
  0
LINE
  8
0
 10
154.149
 20
-90.7508
 11
154.485
 21
-89.5137
  0
LINE
  8
0
 10
154.485
 20
-89.5137
 11
154.777
 21
-88.2821
  0
LINE
  8
0
 10
154.777
 20
-88.2821
 11
155.574
 21
-88.1094
  0
LINE
  8
0
 10
155.574
 20
-88.1094
 11
156.321
 21
-87.9409
  0
LINE
  8
0
 10
156.321
 20
-87.9409
 11
157.105
 21
-88.9346
  0
LINE
  8
0
 10
157.105
 20
-88.9346
 11
157.931
 21
-89.915
  0
LINE
  8
0
 10
157.931
 20
-89.915
 11
158.797
 21
-90.8818
  0
LINE
  8
0
 10
158.797
 20
-90.8818
 11
159.701
 21
-91.8346
  0
LINE
  8
0
 10
159.701
 20
-91.8346
 11
160.644
 21
-92.773
  0
LINE
  8
0
 10
160.644
 20
-92.773
 11
161.934
 21
-92.4215
  0
LINE
  8
0
 10
161.934
 20
-92.4215
 11
162.271
 21
-91.135
  0
LINE
  8
0
 10
162.271
 20
-91.135
 11
162.567
 21
-89.8552
  0
LINE
  8
0
 10
162.567
 20
-89.8552
 11
162.824
 21
-88.583
  0
LINE
  8
0
 10
162.824
 20
-88.583
 11
163.038
 21
-87.3193
  0
LINE
  8
0
 10
163.038
 20
-87.3193
 11
163.21
 21
-86.0652
  0
LINE
  8
0
 10
163.21
 20
-86.0652
 11
163.986
 21
-85.8165
  0
LINE
  8
0
 10
163.986
 20
-85.8165
 11
164.714
 21
-85.5765
  0
LINE
  8
0
 10
164.714
 20
-85.5765
 11
165.591
 21
-86.4899
  0
LINE
  8
0
 10
165.591
 20
-86.4899
 11
166.507
 21
-87.3861
  0
LINE
  8
0
 10
166.507
 20
-87.3861
 11
167.462
 21
-88.2648
  0
LINE
  8
0
 10
167.462
 20
-88.2648
 11
168.454
 21
-89.1258
  0
LINE
  8
0
 10
168.454
 20
-89.1258
 11
169.483
 21
-89.9689
  0
LINE
  8
0
 10
169.483
 20
-89.9689
 11
170.734
 21
-89.4945
  0
LINE
  8
0
 10
170.734
 20
-89.4945
 11
170.944
 21
-88.1816
  0
LINE
  8
0
 10
170.944
 20
-88.1816
 11
171.116
 21
-86.8791
  0
LINE
  8
0
 10
171.116
 20
-86.8791
 11
171.248
 21
-85.5881
  0
LINE
  8
0
 10
171.248
 20
-85.5881
 11
171.34
 21
-84.3095
  0
LINE
  8
0
 10
171.34
 20
-84.3095
 11
171.39
 21
-83.0447
  0
LINE
  8
0
 10
171.39
 20
-83.0447
 11
172.139
 21
-82.7222
  0
LINE
  8
0
 10
172.139
 20
-82.7222
 11
172.84
 21
-82.4131
  0
LINE
  8
0
 10
172.84
 20
-82.4131
 11
173.8
 21
-83.2377
  0
LINE
  8
0
 10
173.8
 20
-83.2377
 11
174.799
 21
-84.0412
  0
LINE
  8
0
 10
174.799
 20
-84.0412
 11
175.834
 21
-84.8237
  0
LINE
  8
0
 10
175.834
 20
-84.8237
 11
176.905
 21
-85.5849
  0
LINE
  8
0
 10
176.905
 20
-85.5849
 11
178.01
 21
-86.3248
  0
LINE
  8
0
 10
178.01
 20
-86.3248
 11
179.209
 21
-85.7319
  0
LINE
  8
0
 10
179.209
 20
-85.7319
 11
179.292
 21
-84.4048
  0
LINE
  8
0
 10
179.292
 20
-84.4048
 11
179.338
 21
-83.0918
  0
LINE
  8
0
 10
179.338
 20
-83.0918
 11
179.344
 21
-81.794
  0
LINE
  8
0
 10
179.344
 20
-81.794
 11
179.312
 21
-80.5126
  0
LINE
  8
0
 10
179.312
 20
-80.5126
 11
179.24
 21
-79.2489
  0
LINE
  8
0
 10
179.24
 20
-79.2489
 11
179.954
 21
-78.8557
  0
LINE
  8
0
 10
179.954
 20
-78.8557
 11
180.622
 21
-78.4803
  0
LINE
  8
0
 10
180.622
 20
-78.4803
 11
181.658
 21
-79.2084
  0
LINE
  8
0
 10
181.658
 20
-79.2084
 11
182.729
 21
-79.9117
  0
LINE
  8
0
 10
182.729
 20
-79.9117
 11
183.836
 21
-80.5906
  0
LINE
  8
0
 10
183.836
 20
-80.5906
 11
184.975
 21
-81.2449
  0
LINE
  8
0
 10
184.975
 20
-81.2449
 11
186.146
 21
-81.8748
  0
LINE
  8
0
 10
186.146
 20
-81.8748
 11
187.282
 21
-81.1689
  0
LINE
  8
0
 10
187.282
 20
-81.1689
 11
187.237
 21
-79.8399
  0
LINE
  8
0
 10
187.237
 20
-79.8399
 11
187.155
 21
-78.5287
  0
LINE
  8
0
 10
187.155
 20
-78.5287
 11
187.037
 21
-77.2363
  0
LINE
  8
0
 10
187.037
 20
-77.2363
 11
186.881
 21
-75.964
  0
LINE
  8
0
 10
186.881
 20
-75.964
 11
186.687
 21
-74.7131
  0
LINE
  8
0
 10
186.687
 20
-74.7131
 11
187.36
 21
-74.2528
  0
LINE
  8
0
 10
187.36
 20
-74.2528
 11
187.989
 21
-73.8147
  0
LINE
  8
0
 10
187.989
 20
-73.8147
 11
189.09
 21
-74.4394
  0
LINE
  8
0
 10
189.09
 20
-74.4394
 11
190.224
 21
-75.0361
  0
LINE
  8
0
 10
190.224
 20
-75.0361
 11
191.391
 21
-75.6051
  0
LINE
  8
0
 10
191.391
 20
-75.6051
 11
192.588
 21
-76.1464
  0
LINE
  8
0
 10
192.588
 20
-76.1464
 11
193.814
 21
-76.6602
  0
LINE
  8
0
 10
193.814
 20
-76.6602
 11
194.877
 21
-75.848
  0
LINE
  8
0
 10
194.877
 20
-75.848
 11
194.704
 21
-74.5296
  0
LINE
  8
0
 10
194.704
 20
-74.5296
 11
194.496
 21
-73.2324
  0
LINE
  8
0
 10
194.496
 20
-73.2324
 11
194.253
 21
-71.9575
  0
LINE
  8
0
 10
194.253
 20
-71.9575
 11
193.976
 21
-70.7061
  0
LINE
  8
0
 10
193.976
 20
-70.7061
 11
193.662
 21
-69.4797
  0
LINE
  8
0
 10
193.662
 20
-69.4797
 11
194.287
 21
-68.9567
  0
LINE
  8
0
 10
194.287
 20
-68.9567
 11
194.871
 21
-68.46
  0
LINE
  8
0
 10
194.871
 20
-68.46
 11
196.027
 21
-68.9755
  0
LINE
  8
0
 10
196.027
 20
-68.9755
 11
197.214
 21
-69.4599
  0
LINE
  8
0
 10
197.214
 20
-69.4599
 11
198.429
 21
-69.9136
  0
LINE
  8
0
 10
198.429
 20
-69.9136
 11
199.673
 21
-70.3369
  0
LINE
  8
0
 10
199.673
 20
-70.3369
 11
200.943
 21
-70.73
  0
LINE
  8
0
 10
200.943
 20
-70.73
 11
201.923
 21
-69.8189
  0
LINE
  8
0
 10
201.923
 20
-69.8189
 11
201.623
 21
-68.5234
  0
LINE
  8
0
 10
201.623
 20
-68.5234
 11
201.291
 21
-67.2523
  0
LINE
  8
0
 10
201.291
 20
-67.2523
 11
200.927
 21
-66.0068
  0
LINE
  8
0
 10
200.927
 20
-66.0068
 11
200.529
 21
-64.7881
  0
LINE
  8
0
 10
200.529
 20
-64.7881
 11
200.099
 21
-63.5977
  0
LINE
  8
0
 10
200.099
 20
-63.5977
 11
200.671
 21
-63.0168
  0
LINE
  8
0
 10
200.671
 20
-63.0168
 11
201.204
 21
-62.466
  0
LINE
  8
0
 10
201.204
 20
-62.466
 11
202.404
 21
-62.8676
  0
LINE
  8
0
 10
202.404
 20
-62.8676
 11
203.632
 21
-63.2352
  0
LINE
  8
0
 10
203.632
 20
-63.2352
 11
204.886
 21
-63.5694
  0
LINE
  8
0
 10
204.886
 20
-63.5694
 11
206.165
 21
-63.8707
  0
LINE
  8
0
 10
206.165
 20
-63.8707
 11
207.467
 21
-64.1393
  0
LINE
  8
0
 10
207.467
 20
-64.1393
 11
208.354
 21
-63.1379
  0
LINE
  8
0
 10
208.354
 20
-63.1379
 11
207.931
 21
-61.8775
  0
LINE
  8
0
 10
207.931
 20
-61.8775
 11
207.477
 21
-60.6444
  0
LINE
  8
0
 10
207.477
 20
-60.6444
 11
206.994
 21
-59.4398
  0
LINE
  8
0
 10
206.994
 20
-59.4398
 11
206.481
 21
-58.2651
  0
LINE
  8
0
 10
206.481
 20
-58.2651
 11
205.938
 21
-57.1218
  0
LINE
  8
0
 10
205.938
 20
-57.1218
 11
206.451
 21
-56.4885
  0
LINE
  8
0
 10
206.451
 20
-56.4885
 11
206.928
 21
-55.8888
  0
LINE
  8
0
 10
206.928
 20
-55.8888
 11
208.162
 21
-56.1726
  0
LINE
  8
0
 10
208.162
 20
-56.1726
 11
209.42
 21
-56.42
  0
LINE
  8
0
 10
209.42
 20
-56.42
 11
210.7
 21
-56.6316
  0
LINE
  8
0
 10
210.7
 20
-56.6316
 11
212.002
 21
-56.8081
  0
LINE
  8
0
 10
212.002
 20
-56.8081
 11
213.324
 21
-56.9498
  0
LINE
  8
0
 10
213.324
 20
-56.9498
 11
214.11
 21
-55.8675
  0
LINE
  8
0
 10
214.11
 20
-55.8675
 11
213.567
 21
-54.6538
  0
LINE
  8
0
 10
213.567
 20
-54.6538
 11
212.997
 21
-53.4702
  0
LINE
  8
0
 10
212.997
 20
-53.4702
 11
212.4
 21
-52.3178
  0
LINE
  8
0
 10
212.4
 20
-52.3178
 11
211.776
 21
-51.1981
  0
LINE
  8
0
 10
211.776
 20
-51.1981
 11
211.125
 21
-50.1126
  0
LINE
  8
0
 10
211.125
 20
-50.1126
 11
211.574
 21
-49.4327
  0
LINE
  8
0
 10
211.574
 20
-49.4327
 11
211.992
 21
-48.7898
  0
LINE
  8
0
 10
211.992
 20
-48.7898
 11
213.247
 21
-48.9532
  0
LINE
  8
0
 10
213.247
 20
-48.9532
 11
214.523
 21
-49.078
  0
LINE
  8
0
 10
214.523
 20
-49.078
 11
215.817
 21
-49.1651
  0
LINE
  8
0
 10
215.817
 20
-49.1651
 11
217.13
 21
-49.2151
  0
LINE
  8
0
 10
217.13
 20
-49.2151
 11
218.46
 21
-49.2285
  0
LINE
  8
0
 10
218.46
 20
-49.2285
 11
219.138
 21
-48.0754
  0
LINE
  8
0
 10
219.138
 20
-48.0754
 11
218.48
 21
-46.9198
  0
LINE
  8
0
 10
218.48
 20
-46.9198
 11
217.799
 21
-45.7968
  0
LINE
  8
0
 10
217.799
 20
-45.7968
 11
217.093
 21
-44.7074
  0
LINE
  8
0
 10
217.093
 20
-44.7074
 11
216.364
 21
-43.6532
  0
LINE
  8
0
 10
216.364
 20
-43.6532
 11
215.611
 21
-42.6356
  0
LINE
  8
0
 10
215.611
 20
-42.6356
 11
215.993
 21
-41.9155
  0
LINE
  8
0
 10
215.993
 20
-41.9155
 11
216.346
 21
-41.2352
  0
LINE
  8
0
 10
216.346
 20
-41.2352
 11
217.611
 21
-41.2768
  0
LINE
  8
0
 10
217.611
 20
-41.2768
 11
218.893
 21
-41.2779
  0
LINE
  8
0
 10
218.893
 20
-41.2779
 11
220.19
 21
-41.2396
  0
LINE
  8
0
 10
220.19
 20
-41.2396
 11
221.502
 21
-41.1626
  0
LINE
  8
0
 10
221.502
 20
-41.1626
 11
222.827
 21
-41.0477
  0
LINE
  8
0
 10
222.827
 20
-41.0477
 11
223.39
 21
-39.8344
  0
LINE
  8
0
 10
223.39
 20
-39.8344
 11
222.624
 21
-38.7478
  0
LINE
  8
0
 10
222.624
 20
-38.7478
 11
221.837
 21
-37.6957
  0
LINE
  8
0
 10
221.837
 20
-37.6957
 11
221.03
 21
-36.6796
  0
LINE
  8
0
 10
221.03
 20
-36.6796
 11
220.202
 21
-35.7006
  0
LINE
  8
0
 10
220.202
 20
-35.7006
 11
219.355
 21
-34.7604
  0
LINE
  8
0
 10
219.355
 20
-34.7604
 11
219.665
 21
-34.0068
  0
LINE
  8
0
 10
219.665
 20
-34.0068
 11
219.951
 21
-33.2957
  0
LINE
  8
0
 10
219.951
 20
-33.2957
 11
221.214
 21
-33.2149
  0
LINE
  8
0
 10
221.214
 20
-33.2149
 11
222.49
 21
-33.0923
  0
LINE
  8
0
 10
222.49
 20
-33.0923
 11
223.778
 21
-32.929
  0
LINE
  8
0
 10
223.778
 20
-32.929
 11
225.076
 21
-32.7258
  0
LINE
  8
0
 10
225.076
 20
-32.7258
 11
226.383
 21
-32.4836
  0
LINE
  8
0
 10
226.383
 20
-32.4836
 11
226.827
 21
-31.2216
  0
LINE
  8
0
 10
226.827
 20
-31.2216
 11
225.96
 21
-30.2139
  0
LINE
  8
0
 10
225.96
 20
-30.2139
 11
225.075
 21
-29.2428
  0
LINE
  8
0
 10
225.075
 20
-29.2428
 11
224.173
 21
-28.3092
  0
LINE
  8
0
 10
224.173
 20
-28.3092
 11
223.255
 21
-27.4147
  0
LINE
  8
0
 10
223.255
 20
-27.4147
 11
222.321
 21
-26.5607
  0
LINE
  8
0
 10
222.321
 20
-26.5607
 11
222.557
 21
-25.7807
  0
LINE
  8
0
 10
222.557
 20
-25.7807
 11
222.773
 21
-25.0453
  0
LINE
  8
0
 10
222.773
 20
-25.0453
 11
224.023
 21
-24.843
  0
LINE
  8
0
 10
224.023
 20
-24.843
 11
225.281
 21
-24.5978
  0
LINE
  8
0
 10
225.281
 20
-24.5978
 11
226.547
 21
-24.311
  0
LINE
  8
0
 10
226.547
 20
-24.311
 11
227.819
 21
-23.9835
  0
LINE
  8
0
 10
227.819
 20
-23.9835
 11
229.097
 21
-23.6161
  0
LINE
  8
0
 10
229.097
 20
-23.6161
 11
229.417
 21
-22.3172
  0
LINE
  8
0
 10
229.417
 20
-22.3172
 11
228.456
 21
-21.398
  0
LINE
  8
0
 10
228.456
 20
-21.398
 11
227.482
 21
-20.5168
  0
LINE
  8
0
 10
227.482
 20
-20.5168
 11
226.494
 21
-19.6746
  0
LINE
  8
0
 10
226.494
 20
-19.6746
 11
225.494
 21
-18.8728
  0
LINE
  8
0
 10
225.494
 20
-18.8728
 11
224.482
 21
-18.113
  0
LINE
  8
0
 10
224.482
 20
-18.113
 11
224.642
 21
-17.3139
  0
LINE
  8
0
 10
224.642
 20
-17.3139
 11
224.786
 21
-16.561
  0
LINE
  8
0
 10
224.786
 20
-16.561
 11
226.01
 21
-16.239
  0
LINE
  8
0
 10
226.01
 20
-16.239
 11
227.238
 21
-15.8736
  0
LINE
  8
0
 10
227.238
 20
-15.8736
 11
228.471
 21
-15.466
  0
LINE
  8
0
 10
228.471
 20
-15.466
 11
229.705
 21
-15.0172
  0
LINE
  8
0
 10
229.705
 20
-15.0172
 11
230.942
 21
-14.5282
  0
LINE
  8
0
 10
230.942
 20
-14.5282
 11
231.135
 21
-13.2044
  0
LINE
  8
0
 10
231.135
 20
-13.2044
 11
230.09
 21
-12.3823
  0
LINE
  8
0
 10
230.09
 20
-12.3823
 11
229.035
 21
-11.5992
  0
LINE
  8
0
 10
229.035
 20
-11.5992
 11
227.971
 21
-10.8563
  0
LINE
  8
0
 10
227.971
 20
-10.8563
 11
226.898
 21
-10.1548
  0
LINE
  8
0
 10
226.898
 20
-10.1548
 11
225.817
 21
-9.49619
  0
LINE
  8
0
 10
225.817
 20
-9.49619
 11
225.899
 21
-8.68536
  0
LINE
  8
0
 10
225.899
 20
-8.68536
 11
225.97
 21
-7.92212
  0
LINE
  8
0
 10
225.97
 20
-7.92212
 11
227.157
 21
-7.48351
  0
LINE
  8
0
 10
227.157
 20
-7.48351
 11
228.345
 21
-7.00119
  0
LINE
  8
0
 10
228.345
 20
-7.00119
 11
229.532
 21
-6.47655
  0
LINE
  8
0
 10
229.532
 20
-6.47655
 11
230.718
 21
-5.91072
  0
LINE
  8
0
 10
230.718
 20
-5.91072
 11
231.901
 21
-5.30467
  0
LINE
  8
0
 10
231.901
 20
-5.30467
 11
231.966
 21
-3.9684
  0
LINE
  8
0
 10
231.966
 20
-3.9684
 11
230.846
 21
-3.25095
  0
LINE
  8
0
 10
230.846
 20
-3.25095
 11
229.721
 21
-2.57333
  0
LINE
  8
0
 10
229.721
 20
-2.57333
 11
228.59
 21
-1.93658
  0
LINE
  8
0
 10
228.59
 20
-1.93658
 11
227.454
 21
-1.34189
  0
LINE
  8
0
 10
227.454
 20
-1.34189
 11
226.315
 21
-0.790726
  0
LINE
  8
0
 10
226.315
 20
-0.790726
 11
226.318
 21
0.0242157
  0
LINE
  8
0
 10
226.318
 20
0.0242157
 11
226.315
 21
0.790726
  0
LINE
  8
0
 10
226.315
 20
0.790726
 11
227.454
 21
1.34189
  0
LINE
  8
0
 10
227.454
 20
1.34189
 11
228.59
 21
1.93658
  0
LINE
  8
0
 10
228.59
 20
1.93658
 11
229.721
 21
2.57333
  0
LINE
  8
0
 10
229.721
 20
2.57333
 11
230.846
 21
3.25095
  0
LINE
  8
0
 10
230.846
 20
3.25095
 11
231.966
 21
3.9684
  0
LINE
  8
0
 10
231.966
 20
3.9684
 11
231.901
 21
5.30467
  0
LINE
  8
0
 10
231.901
 20
5.30467
 11
230.718
 21
5.91072
  0
LINE
  8
0
 10
230.718
 20
5.91072
 11
229.532
 21
6.47655
  0
LINE
  8
0
 10
229.532
 20
6.47655
 11
228.345
 21
7.00119
  0
LINE
  8
0
 10
228.345
 20
7.00119
 11
227.157
 21
7.48351
  0
LINE
  8
0
 10
227.157
 20
7.48351
 11
225.97
 21
7.92212
  0
LINE
  8
0
 10
225.97
 20
7.92212
 11
225.895
 21
8.73358
  0
LINE
  8
0
 10
225.895
 20
8.73358
 11
225.817
 21
9.49619
  0
LINE
  8
0
 10
225.817
 20
9.49619
 11
226.898
 21
10.1548
  0
LINE
  8
0
 10
226.898
 20
10.1548
 11
227.971
 21
10.8563
  0
LINE
  8
0
 10
227.971
 20
10.8563
 11
229.035
 21
11.5992
  0
LINE
  8
0
 10
229.035
 20
11.5992
 11
230.09
 21
12.3823
  0
LINE
  8
0
 10
230.09
 20
12.3823
 11
231.135
 21
13.2044
  0
LINE
  8
0
 10
231.135
 20
13.2044
 11
230.942
 21
14.5282
  0
LINE
  8
0
 10
230.942
 20
14.5282
 11
229.705
 21
15.0172
  0
LINE
  8
0
 10
229.705
 20
15.0172
 11
228.471
 21
15.466
  0
LINE
  8
0
 10
228.471
 20
15.466
 11
227.238
 21
15.8736
  0
LINE
  8
0
 10
227.238
 20
15.8736
 11
226.01
 21
16.239
  0
LINE
  8
0
 10
226.01
 20
16.239
 11
224.786
 21
16.561
  0
LINE
  8
0
 10
224.786
 20
16.561
 11
224.632
 21
17.3614
  0
LINE
  8
0
 10
224.632
 20
17.3614
 11
224.482
 21
18.113
  0
LINE
  8
0
 10
224.482
 20
18.113
 11
225.494
 21
18.8728
  0
LINE
  8
0
 10
225.494
 20
18.8728
 11
226.494
 21
19.6746
  0
LINE
  8
0
 10
226.494
 20
19.6746
 11
227.482
 21
20.5168
  0
LINE
  8
0
 10
227.482
 20
20.5168
 11
228.456
 21
21.398
  0
LINE
  8
0
 10
228.456
 20
21.398
 11
229.417
 21
22.3172
  0
LINE
  8
0
 10
229.417
 20
22.3172
 11
229.097
 21
23.6161
  0
LINE
  8
0
 10
229.097
 20
23.6161
 11
227.819
 21
23.9835
  0
LINE
  8
0
 10
227.819
 20
23.9835
 11
226.547
 21
24.311
  0
LINE
  8
0
 10
226.547
 20
24.311
 11
225.281
 21
24.5978
  0
LINE
  8
0
 10
225.281
 20
24.5978
 11
224.023
 21
24.843
  0
LINE
  8
0
 10
224.023
 20
24.843
 11
222.773
 21
25.0453
  0
LINE
  8
0
 10
222.773
 20
25.0453
 11
222.543
 21
25.8271
  0
LINE
  8
0
 10
222.543
 20
25.8271
 11
222.321
 21
26.5607
  0
LINE
  8
0
 10
222.321
 20
26.5607
 11
223.255
 21
27.4147
  0
LINE
  8
0
 10
223.255
 20
27.4147
 11
224.173
 21
28.3092
  0
LINE
  8
0
 10
224.173
 20
28.3092
 11
225.075
 21
29.2428
  0
LINE
  8
0
 10
225.075
 20
29.2428
 11
225.96
 21
30.2139
  0
LINE
  8
0
 10
225.96
 20
30.2139
 11
226.827
 21
31.2216
  0
LINE
  8
0
 10
226.827
 20
31.2216
 11
226.383
 21
32.4836
  0
LINE
  8
0
 10
226.383
 20
32.4836
 11
225.076
 21
32.7258
  0
LINE
  8
0
 10
225.076
 20
32.7258
 11
223.778
 21
32.929
  0
LINE
  8
0
 10
223.778
 20
32.929
 11
222.49
 21
33.0923
  0
LINE
  8
0
 10
222.49
 20
33.0923
 11
221.214
 21
33.2149
  0
LINE
  8
0
 10
221.214
 20
33.2149
 11
219.951
 21
33.2957
  0
LINE
  8
0
 10
219.951
 20
33.2957
 11
219.647
 21
34.0517
  0
LINE
  8
0
 10
219.647
 20
34.0517
 11
219.355
 21
34.7604
  0
LINE
  8
0
 10
219.355
 20
34.7604
 11
220.202
 21
35.7006
  0
LINE
  8
0
 10
220.202
 20
35.7006
 11
221.03
 21
36.6796
  0
LINE
  8
0
 10
221.03
 20
36.6796
 11
221.837
 21
37.6957
  0
LINE
  8
0
 10
221.837
 20
37.6957
 11
222.624
 21
38.7478
  0
LINE
  8
0
 10
222.624
 20
38.7478
 11
223.39
 21
39.8344
  0
LINE
  8
0
 10
223.39
 20
39.8344
 11
222.827
 21
41.0477
  0
LINE
  8
0
 10
222.827
 20
41.0477
 11
221.502
 21
41.1626
  0
LINE
  8
0
 10
221.502
 20
41.1626
 11
220.19
 21
41.2396
  0
LINE
  8
0
 10
220.19
 20
41.2396
 11
218.893
 21
41.2779
  0
LINE
  8
0
 10
218.893
 20
41.2779
 11
217.611
 21
41.2768
  0
LINE
  8
0
 10
217.611
 20
41.2768
 11
216.346
 21
41.2352
  0
LINE
  8
0
 10
216.346
 20
41.2352
 11
215.97
 21
41.9584
  0
LINE
  8
0
 10
215.97
 20
41.9584
 11
215.611
 21
42.6356
  0
LINE
  8
0
 10
215.611
 20
42.6356
 11
216.364
 21
43.6532
  0
LINE
  8
0
 10
216.364
 20
43.6532
 11
217.093
 21
44.7074
  0
LINE
  8
0
 10
217.093
 20
44.7074
 11
217.799
 21
45.7968
  0
LINE
  8
0
 10
217.799
 20
45.7968
 11
218.48
 21
46.9198
  0
LINE
  8
0
 10
218.48
 20
46.9198
 11
219.138
 21
48.0754
  0
LINE
  8
0
 10
219.138
 20
48.0754
 11
218.46
 21
49.2285
  0
LINE
  8
0
 10
218.46
 20
49.2285
 11
217.13
 21
49.2151
  0
LINE
  8
0
 10
217.13
 20
49.2151
 11
215.817
 21
49.1651
  0
LINE
  8
0
 10
215.817
 20
49.1651
 11
214.523
 21
49.0781
  0
LINE
  8
0
 10
214.523
 20
49.0781
 11
213.247
 21
48.9532
  0
LINE
  8
0
 10
213.247
 20
48.9532
 11
211.992
 21
48.7898
  0
LINE
  8
0
 10
211.992
 20
48.7898
 11
211.548
 21
49.4733
  0
LINE
  8
0
 10
211.548
 20
49.4733
 11
211.125
 21
50.1126
  0
LINE
  8
0
 10
211.125
 20
50.1126
 11
211.776
 21
51.1981
  0
LINE
  8
0
 10
211.776
 20
51.1981
 11
212.4
 21
52.3179
  0
LINE
  8
0
 10
212.4
 20
52.3179
 11
212.997
 21
53.4702
  0
LINE
  8
0
 10
212.997
 20
53.4702
 11
213.567
 21
54.6538
  0
LINE
  8
0
 10
213.567
 20
54.6538
 11
214.11
 21
55.8675
  0
LINE
  8
0
 10
214.11
 20
55.8675
 11
213.324
 21
56.9498
  0
LINE
  8
0
 10
213.324
 20
56.9498
 11
212.002
 21
56.8081
  0
LINE
  8
0
 10
212.002
 20
56.8081
 11
210.7
 21
56.6316
  0
LINE
  8
0
 10
210.7
 20
56.6316
 11
209.42
 21
56.42
  0
LINE
  8
0
 10
209.42
 20
56.42
 11
208.162
 21
56.1726
  0
LINE
  8
0
 10
208.162
 20
56.1726
 11
206.928
 21
55.8888
  0
LINE
  8
0
 10
206.928
 20
55.8888
 11
206.421
 21
56.5262
  0
LINE
  8
0
 10
206.421
 20
56.5262
 11
205.938
 21
57.1218
  0
LINE
  8
0
 10
205.938
 20
57.1218
 11
206.481
 21
58.2651
  0
LINE
  8
0
 10
206.481
 20
58.2651
 11
206.994
 21
59.4398
  0
LINE
  8
0
 10
206.994
 20
59.4398
 11
207.477
 21
60.6444
  0
LINE
  8
0
 10
207.477
 20
60.6444
 11
207.931
 21
61.8775
  0
LINE
  8
0
 10
207.931
 20
61.8775
 11
208.354
 21
63.1379
  0
LINE
  8
0
 10
208.354
 20
63.1379
 11
207.467
 21
64.1393
  0
LINE
  8
0
 10
207.467
 20
64.1393
 11
206.165
 21
63.8707
  0
LINE
  8
0
 10
206.165
 20
63.8707
 11
204.886
 21
63.5694
  0
LINE
  8
0
 10
204.886
 20
63.5694
 11
203.632
 21
63.2352
  0
LINE
  8
0
 10
203.632
 20
63.2352
 11
202.404
 21
62.8676
  0
LINE
  8
0
 10
202.404
 20
62.8676
 11
201.204
 21
62.466
  0
LINE
  8
0
 10
201.204
 20
62.466
 11
200.637
 21
63.0514
  0
LINE
  8
0
 10
200.637
 20
63.0514
 11
200.099
 21
63.5977
  0
LINE
  8
0
 10
200.099
 20
63.5977
 11
200.529
 21
64.7881
  0
LINE
  8
0
 10
200.529
 20
64.7881
 11
200.927
 21
66.0068
  0
LINE
  8
0
 10
200.927
 20
66.0068
 11
201.291
 21
67.2523
  0
LINE
  8
0
 10
201.291
 20
67.2523
 11
201.623
 21
68.5234
  0
LINE
  8
0
 10
201.623
 20
68.5234
 11
201.923
 21
69.8189
  0
LINE
  8
0
 10
201.923
 20
69.8189
 11
200.943
 21
70.73
  0
LINE
  8
0
 10
200.943
 20
70.73
 11
199.673
 21
70.3369
  0
LINE
  8
0
 10
199.673
 20
70.3369
 11
198.429
 21
69.9136
  0
LINE
  8
0
 10
198.429
 20
69.9136
 11
197.214
 21
69.4599
  0
LINE
  8
0
 10
197.214
 20
69.4599
 11
196.027
 21
68.9755
  0
LINE
  8
0
 10
196.027
 20
68.9755
 11
194.871
 21
68.46
  0
LINE
  8
0
 10
194.871
 20
68.46
 11
194.25
 21
68.9879
  0
LINE
  8
0
 10
194.25
 20
68.9879
 11
193.662
 21
69.4797
  0
LINE
  8
0
 10
193.662
 20
69.4797
 11
193.976
 21
70.7061
  0
LINE
  8
0
 10
193.976
 20
70.7061
 11
194.253
 21
71.9575
  0
LINE
  8
0
 10
194.253
 20
71.9575
 11
194.496
 21
73.2324
  0
LINE
  8
0
 10
194.496
 20
73.2324
 11
194.704
 21
74.5296
  0
LINE
  8
0
 10
194.704
 20
74.5296
 11
194.877
 21
75.848
  0
LINE
  8
0
 10
194.877
 20
75.848
 11
193.814
 21
76.6602
  0
LINE
  8
0
 10
193.814
 20
76.6602
 11
192.588
 21
76.1464
  0
LINE
  8
0
 10
192.588
 20
76.1464
 11
191.391
 21
75.6051
  0
LINE
  8
0
 10
191.391
 20
75.6051
 11
190.224
 21
75.0361
  0
LINE
  8
0
 10
190.224
 20
75.0361
 11
189.09
 21
74.4394
  0
LINE
  8
0
 10
189.09
 20
74.4394
 11
187.989
 21
73.8147
  0
LINE
  8
0
 10
187.989
 20
73.8147
 11
187.32
 21
74.2803
  0
LINE
  8
0
 10
187.32
 20
74.2803
 11
186.687
 21
74.7131
  0
LINE
  8
0
 10
186.687
 20
74.7131
 11
186.881
 21
75.964
  0
LINE
  8
0
 10
186.881
 20
75.964
 11
187.037
 21
77.2363
  0
LINE
  8
0
 10
187.037
 20
77.2363
 11
187.155
 21
78.5287
  0
LINE
  8
0
 10
187.155
 20
78.5287
 11
187.237
 21
79.8399
  0
LINE
  8
0
 10
187.237
 20
79.8399
 11
187.282
 21
81.1689
  0
LINE
  8
0
 10
187.282
 20
81.1689
 11
186.146
 21
81.8748
  0
LINE
  8
0
 10
186.146
 20
81.8748
 11
184.975
 21
81.2449
  0
LINE
  8
0
 10
184.975
 20
81.2449
 11
183.836
 21
80.5906
  0
LINE
  8
0
 10
183.836
 20
80.5906
 11
182.729
 21
79.9117
  0
LINE
  8
0
 10
182.729
 20
79.9117
 11
181.658
 21
79.2084
  0
LINE
  8
0
 10
181.658
 20
79.2084
 11
180.622
 21
78.4803
  0
LINE
  8
0
 10
180.622
 20
78.4803
 11
179.912
 21
78.8792
  0
LINE
  8
0
 10
179.912
 20
78.8792
 11
179.24
 21
79.2489
  0
LINE
  8
0
 10
179.24
 20
79.2489
 11
179.312
 21
80.5126
  0
LINE
  8
0
 10
179.312
 20
80.5126
 11
179.344
 21
81.794
  0
LINE
  8
0
 10
179.344
 20
81.794
 11
179.338
 21
83.0918
  0
LINE
  8
0
 10
179.338
 20
83.0918
 11
179.292
 21
84.4048
  0
LINE
  8
0
 10
179.292
 20
84.4048
 11
179.209
 21
85.7319
  0
LINE
  8
0
 10
179.209
 20
85.7319
 11
178.01
 21
86.3248
  0
LINE
  8
0
 10
178.01
 20
86.3248
 11
176.905
 21
85.5849
  0
LINE
  8
0
 10
176.905
 20
85.5849
 11
175.834
 21
84.8237
  0
LINE
  8
0
 10
175.834
 20
84.8237
 11
174.799
 21
84.0412
  0
LINE
  8
0
 10
174.799
 20
84.0412
 11
173.8
 21
83.2377
  0
LINE
  8
0
 10
173.8
 20
83.2377
 11
172.84
 21
82.4131
  0
LINE
  8
0
 10
172.84
 20
82.4131
 11
172.094
 21
82.7416
  0
LINE
  8
0
 10
172.094
 20
82.7416
 11
171.39
 21
83.0447
  0
LINE
  8
0
 10
171.39
 20
83.0447
 11
171.34
 21
84.3095
  0
LINE
  8
0
 10
171.34
 20
84.3095
 11
171.248
 21
85.5881
  0
LINE
  8
0
 10
171.248
 20
85.5881
 11
171.116
 21
86.8791
  0
LINE
  8
0
 10
171.116
 20
86.8791
 11
170.944
 21
88.1816
  0
LINE
  8
0
 10
170.944
 20
88.1816
 11
170.734
 21
89.4945
  0
LINE
  8
0
 10
170.734
 20
89.4945
 11
169.483
 21
89.9689
  0
LINE
  8
0
 10
169.483
 20
89.9689
 11
168.454
 21
89.1258
  0
LINE
  8
0
 10
168.454
 20
89.1258
 11
167.462
 21
88.2648
  0
LINE
  8
0
 10
167.462
 20
88.2648
 11
166.507
 21
87.3861
  0
LINE
  8
0
 10
166.507
 20
87.3861
 11
165.591
 21
86.4899
  0
LINE
  8
0
 10
165.591
 20
86.4899
 11
164.714
 21
85.5765
  0
LINE
  8
0
 10
164.714
 20
85.5765
 11
163.94
 21
85.8314
  0
LINE
  8
0
 10
163.94
 20
85.8314
 11
163.21
 21
86.0652
  0
LINE
  8
0
 10
163.21
 20
86.0652
 11
163.038
 21
87.3193
  0
LINE
  8
0
 10
163.038
 20
87.3193
 11
162.824
 21
88.583
  0
LINE
  8
0
 10
162.824
 20
88.583
 11
162.567
 21
89.8552
  0
LINE
  8
0
 10
162.567
 20
89.8552
 11
162.271
 21
91.135
  0
LINE
  8
0
 10
162.271
 20
91.135
 11
161.934
 21
92.4215
  0
LINE
  8
0
 10
161.934
 20
92.4215
 11
160.644
 21
92.773
  0
LINE
  8
0
 10
160.644
 20
92.773
 11
159.701
 21
91.8346
  0
LINE
  8
0
 10
159.701
 20
91.8346
 11
158.797
 21
90.8818
  0
LINE
  8
0
 10
158.797
 20
90.8818
 11
157.931
 21
89.915
  0
LINE
  8
0
 10
157.931
 20
89.915
 11
157.105
 21
88.9346
  0
LINE
  8
0
 10
157.105
 20
88.9346
 11
156.321
 21
87.9409
  0
LINE
  8
0
 10
156.321
 20
87.9409
 11
155.526
 21
88.1199
  0
LINE
  8
0
 10
155.526
 20
88.1199
 11
154.777
 21
88.2821
  0
LINE
  8
0
 10
154.777
 20
88.2821
 11
154.485
 21
89.5137
  0
LINE
  8
0
 10
154.485
 20
89.5137
 11
154.149
 21
90.7508
  0
LINE
  8
0
 10
154.149
 20
90.7508
 11
153.771
 21
91.9924
  0
LINE
  8
0
 10
153.771
 20
91.9924
 11
153.353
 21
93.2376
  0
LINE
  8
0
 10
153.353
 20
93.2376
 11
152.894
 21
94.4856
  0
LINE
  8
0
 10
152.894
 20
94.4856
 11
151.575
 21
94.7109
  0
LINE
  8
0
 10
151.575
 20
94.7109
 11
150.728
 21
93.6859
  0
LINE
  8
0
 10
150.728
 20
93.6859
 11
149.919
 21
92.6503
  0
LINE
  8
0
 10
149.919
 20
92.6503
 11
149.151
 21
91.6045
  0
LINE
  8
0
 10
149.151
 20
91.6045
 11
148.424
 21
90.5489
  0
LINE
  8
0
 10
148.424
 20
90.5489
 11
147.739
 21
89.4841
  0
LINE
  8
0
 10
147.739
 20
89.4841
 11
146.931
 21
89.5856
  0
LINE
  8
0
 10
146.931
 20
89.5856
 11
146.169
 21
89.6748
  0
LINE
  8
0
 10
146.169
 20
89.6748
 11
145.76
 21
90.8724
  0
LINE
  8
0
 10
145.76
 20
90.8724
 11
145.306
 21
92.0713
  0
LINE
  8
0
 10
145.306
 20
92.0713
 11
144.81
 21
93.2707
  0
LINE
  8
0
 10
144.81
 20
93.2707
 11
144.273
 21
94.4697
  0
LINE
  8
0
 10
144.273
 20
94.4697
 11
143.696
 21
95.6675
  0
LINE
  8
0
 10
143.696
 20
95.6675
 11
142.362
 21
95.7645
  0
LINE
  8
0
 10
142.362
 20
95.7645
 11
141.617
 21
94.6625
  0
LINE
  8
0
 10
141.617
 20
94.6625
 11
140.913
 21
93.5537
  0
LINE
  8
0
 10
140.913
 20
93.5537
 11
140.249
 21
92.4386
  0
LINE
  8
0
 10
140.249
 20
92.4386
 11
139.627
 21
91.3178
  0
LINE
  8
0
 10
139.627
 20
91.3178
 11
139.048
 21
90.1919
  0
LINE
  8
0
 10
139.048
 20
90.1919
 11
138.234
 21
90.2149
  0
LINE
  8
0
 10
138.234
 20
90.2149
 11
137.467
 21
90.2301
  0
LINE
  8
0
 10
137.467
 20
90.2301
 11
136.944
 21
91.3827
  0
LINE
  8
0
 10
136.944
 20
91.3827
 11
136.377
 21
92.5322
  0
LINE
  8
0
 10
136.377
 20
92.5322
 11
135.768
 21
93.6781
  0
LINE
  8
0
 10
135.768
 20
93.6781
 11
135.117
 21
94.8196
  0
LINE
  8
0
 10
135.117
 20
94.8196
 11
134.427
 21
95.9562
  0
LINE
  8
0
 10
134.427
 20
95.9562
 11
133.09
 21
95.9239
  0
LINE
  8
0
 10
133.09
 20
95.9239
 11
132.455
 21
94.7553
  0
LINE
  8
0
 10
132.455
 20
94.7553
 11
131.861
 21
93.5836
  0
LINE
  8
0
 10
131.861
 20
93.5836
 11
131.308
 21
92.4097
  0
LINE
  8
0
 10
131.308
 20
92.4097
 11
130.797
 21
91.2341
  0
LINE
  8
0
 10
130.797
 20
91.2341
 11
130.33
 21
90.0576
  0
LINE
  8
0
 10
130.33
 20
90.0576
 11
129.517
 21
90.0018
  0
LINE
  8
0
 10
129.517
 20
90.0018
 11
128.753
 21
89.9431
  0
LINE
  8
0
 10
128.753
 20
89.9431
 11
128.12
 21
91.0397
  0
LINE
  8
0
 10
128.12
 20
91.0397
 11
127.445
 21
92.1291
  0
LINE
  8
0
 10
127.445
 20
92.1291
 11
126.728
 21
93.2109
  0
LINE
  8
0
 10
126.728
 20
93.2109
 11
125.971
 21
94.2843
  0
LINE
  8
0
 10
125.971
 20
94.2843
 11
125.174
 21
95.349
  0
LINE
  8
0
 10
125.174
 20
95.349
 11
123.846
 21
95.1877
  0
LINE
  8
0
 10
123.846
 20
95.1877
 11
123.327
 21
93.9633
  0
LINE
  8
0
 10
123.327
 20
93.9633
 11
122.849
 21
92.7398
  0
LINE
  8
0
 10
122.849
 20
92.7398
 11
122.411
 21
91.5179
  0
LINE
  8
0
 10
122.411
 20
91.5179
 11
122.016
 21
90.2985
  0
LINE
  8
0
 10
122.016
 20
90.2985
 11
121.665
 21
89.0825
  0
LINE
  8
0
 10
121.665
 20
89.0825
 11
120.861
 21
88.9485
  0
LINE
  8
0
 10
120.861
 20
88.9485
 11
120.106
 21
88.8162
  0
LINE
  8
0
 10
120.106
 20
88.8162
 11
119.371
 21
89.8467
  0
LINE
  8
0
 10
119.371
 20
89.8467
 11
118.593
 21
90.8659
  0
LINE
  8
0
 10
118.593
 20
90.8659
 11
117.775
 21
91.8734
  0
LINE
  8
0
 10
117.775
 20
91.8734
 11
116.918
 21
92.8687
  0
LINE
  8
0
 10
116.918
 20
92.8687
 11
116.022
 21
93.8515
  0
LINE
  8
0
 10
116.022
 20
93.8515
 11
114.716
 21
93.5629
  0
LINE
  8
0
 10
114.716
 20
93.5629
 11
114.318
 21
92.2941
  0
LINE
  8
0
 10
114.318
 20
92.2941
 11
113.96
 21
91.0301
  0
LINE
  8
0
 10
113.96
 20
91.0301
 11
113.642
 21
89.7717
  0
LINE
  8
0
 10
113.642
 20
89.7717
 11
113.367
 21
88.5199
  0
LINE
  8
0
 10
113.367
 20
88.5199
 11
113.134
 21
87.2756
  0
LINE
  8
0
 10
113.134
 20
87.2756
 11
112.347
 21
87.0646
  0
LINE
  8
0
 10
112.347
 20
87.0646
 11
111.608
 21
86.8601
  0
LINE
  8
0
 10
111.608
 20
86.8601
 11
110.777
 21
87.8148
  0
LINE
  8
0
 10
110.777
 20
87.8148
 11
109.905
 21
88.7542
  0
LINE
  8
0
 10
109.905
 20
88.7542
 11
108.994
 21
89.678
  0
LINE
  8
0
 10
108.994
 20
89.678
 11
108.044
 21
90.586
  0
LINE
  8
0
 10
108.044
 20
90.586
 11
107.058
 21
91.4778
  0
LINE
  8
0
 10
107.058
 20
91.4778
 11
105.786
 21
91.0644
  0
LINE
  8
0
 10
105.786
 20
91.0644
 11
105.512
 21
89.7631
  0
LINE
  8
0
 10
105.512
 20
89.7631
 11
105.277
 21
88.4705
  0
LINE
  8
0
 10
105.277
 20
88.4705
 11
105.083
 21
87.1873
  0
LINE
  8
0
 10
105.083
 20
87.1873
 11
104.929
 21
85.9147
  0
LINE
  8
0
 10
104.929
 20
85.9147
 11
104.818
 21
84.6538
  0
LINE
  8
0
 10
104.818
 20
84.6538
 11
104.055
 21
84.3679
  0
LINE
  8
0
 10
104.055
 20
84.3679
 11
103.34
 21
84.093
  0
LINE
  8
0
 10
103.34
 20
84.093
 11
102.42
 21
84.9631
  0
LINE
  8
0
 10
102.42
 20
84.9631
 11
101.461
 21
85.8139
  0
LINE
  8
0
 10
101.461
 20
85.8139
 11
100.465
 21
86.6454
  0
LINE
  8
0
 10
100.465
 20
86.6454
 11
99.4323
 21
87.4575
  0
LINE
  8
0
 10
99.4323
 20
87.4575
 11
98.3645
 21
88.2499
  0
LINE
  8
0
 10
98.3645
 20
88.2499
 11
97.138
 21
87.7157
  0
LINE
  8
0
 10
97.138
 20
87.7157
 11
96.991
 21
86.3941
  0
LINE
  8
0
 10
96.991
 20
86.3941
 11
96.8824
 21
85.0848
  0
LINE
  8
0
 10
96.8824
 20
85.0848
 11
96.8128
 21
83.7889
  0
LINE
  8
0
 10
96.8128
 20
83.7889
 11
96.7829
 21
82.5074
  0
LINE
  8
0
 10
96.7829
 20
82.5074
 11
96.7939
 21
81.2417
  0
LINE
  8
0
 10
96.7939
 20
81.2417
 11
96.0619
 21
80.8834
  0
LINE
  8
0
 10
96.0619
 20
80.8834
 11
95.3762
 21
80.5408
  0
LINE
  8
0
 10
95.3762
 20
80.5408
 11
94.3771
 21
81.318
  0
LINE
  8
0
 10
94.3771
 20
81.318
 11
93.3407
 21
82.0723
  0
LINE
  8
0
 10
93.3407
 20
82.0723
 11
92.2688
 21
82.8038
  0
LINE
  8
0
 10
92.2688
 20
82.8038
 11
91.1625
 21
83.5125
  0
LINE
  8
0
 10
91.1625
 20
83.5125
 11
90.0232
 21
84.1981
  0
LINE
  8
0
 10
90.0232
 20
84.1981
 11
88.854
 21
83.548
  0
LINE
  8
0
 10
88.854
 20
83.548
 11
88.8353
 21
82.2184
  0
LINE
  8
0
 10
88.8353
 20
82.2184
 11
88.8535
 21
80.9047
  0
LINE
  8
0
 10
88.8535
 20
80.9047
 11
88.9093
 21
79.6081
  0
LINE
  8
0
 10
88.9093
 20
79.6081
 11
89.0032
 21
78.3298
  0
LINE
  8
0
 10
89.0032
 20
78.3298
 11
89.1363
 21
77.071
  0
LINE
  8
0
 10
89.1363
 20
77.071
 11
88.4423
 21
76.6437
  0
LINE
  8
0
 10
88.4423
 20
76.6437
 11
87.7929
 21
76.2365
  0
LINE
  8
0
 10
87.7929
 20
76.2365
 11
86.7234
 21
76.9137
  0
LINE
  8
0
 10
86.7234
 20
76.9137
 11
85.6191
 21
77.5645
  0
LINE
  8
0
 10
85.6191
 20
77.5645
 11
84.4816
 21
78.1891
  0
LINE
  8
0
 10
84.4816
 20
78.1891
 11
83.3121
 21
78.7877
  0
LINE
  8
0
 10
83.3121
 20
78.7877
 11
82.1119
 21
79.3602
  0
LINE
  8
0
 10
82.1119
 20
79.3602
 11
81.0109
 21
78.6002
  0
LINE
  8
0
 10
81.0109
 20
78.6002
 11
81.1206
 21
77.275
  0
LINE
  8
0
 10
81.1206
 20
77.275
 11
81.2655
 21
75.9693
  0
LINE
  8
0
 10
81.2655
 20
75.9693
 11
81.4462
 21
74.6841
  0
LINE
  8
0
 10
81.4462
 20
74.6841
 11
81.6631
 21
73.4208
  0
LINE
  8
0
 10
81.6631
 20
73.4208
 11
81.917
 21
72.1807
  0
LINE
  8
0
 10
81.917
 20
72.1807
 11
81.2675
 21
71.6885
  0
LINE
  8
0
 10
81.2675
 20
71.6885
 11
80.6604
 21
71.2205
  0
LINE
  8
0
 10
80.6604
 20
71.2205
 11
79.5306
 21
71.7913
  0
LINE
  8
0
 10
79.5306
 20
71.7913
 11
78.3686
 21
72.3325
  0
LINE
  8
0
 10
78.3686
 20
72.3325
 11
77.1761
 21
72.8444
  0
LINE
  8
0
 10
77.1761
 20
72.8444
 11
75.9543
 21
73.3273
  0
LINE
  8
0
 10
75.9543
 20
73.3273
 11
74.7045
 21
73.7813
  0
LINE
  8
0
 10
74.7045
 20
73.7813
 11
73.6819
 21
72.9186
  0
LINE
  8
0
 10
73.6819
 20
72.9186
 11
73.919
 21
71.6101
  0
LINE
  8
0
 10
73.919
 20
71.6101
 11
74.1893
 21
70.3245
  0
LINE
  8
0
 10
74.1893
 20
70.3245
 11
74.4932
 21
69.0628
  0
LINE
  8
0
 10
74.4932
 20
69.0628
 11
74.831
 21
67.8263
  0
LINE
  8
0
 10
74.831
 20
67.8263
 11
75.2034
 21
66.6165
  0
LINE
  8
0
 10
75.2034
 20
66.6165
 11
74.6044
 21
66.0639
  0
LINE
  8
0
 10
74.6044
 20
66.0639
 11
74.0454
 21
65.5395
  0
LINE
  8
0
 10
74.0454
 20
65.5395
 11
72.8657
 21
65.9986
  0
LINE
  8
0
 10
72.8657
 20
65.9986
 11
71.657
 21
66.4251
  0
LINE
  8
0
 10
71.657
 20
66.4251
 11
70.4206
 21
66.8195
  0
LINE
  8
0
 10
70.4206
 20
66.8195
 11
69.1579
 21
67.1822
  0
LINE
  8
0
 10
69.1579
 20
67.1822
 11
67.8701
 21
67.5135
  0
LINE
  8
0
 10
67.8701
 20
67.5135
 11
66.9356
 21
66.5561
  0
LINE
  8
0
 10
66.9356
 20
66.5561
 11
67.2978
 21
65.2767
  0
LINE
  8
0
 10
67.2978
 20
65.2767
 11
67.6909
 21
64.0231
  0
LINE
  8
0
 10
67.6909
 20
64.0231
 11
68.1151
 21
62.7966
  0
LINE
  8
0
 10
68.1151
 20
62.7966
 11
68.5707
 21
61.5985
  0
LINE
  8
0
 10
68.5707
 20
61.5985
 11
69.0582
 21
60.4303
  0
LINE
  8
0
 10
69.0582
 20
60.4303
 11
68.5153
 21
59.8225
  0
LINE
  8
0
 10
68.5153
 20
59.8225
 11
68.0095
 21
59.2466
  0
LINE
  8
0
 10
68.0095
 20
59.2466
 11
66.791
 21
59.5897
  0
LINE
  8
0
 10
66.791
 20
59.5897
 11
65.5468
 21
59.8975
  0
LINE
  8
0
 10
65.5468
 20
59.8975
 11
64.2781
 21
60.1708
  0
LINE
  8
0
 10
64.2781
 20
60.1708
 11
62.9863
 21
60.4099
  0
LINE
  8
0
 10
62.9863
 20
60.4099
 11
61.6725
 21
60.6153
  0
LINE
  8
0
 10
61.6725
 20
60.6153
 11
60.8347
 21
59.5723
  0
LINE
  8
0
 10
60.8347
 20
59.5723
 11
61.3188
 21
58.3338
  0
LINE
  8
0
 10
61.3188
 20
58.3338
 11
61.8311
 21
57.124
  0
LINE
  8
0
 10
61.8311
 20
57.124
 11
62.3717
 21
55.9442
  0
LINE
  8
0
 10
62.3717
 20
55.9442
 11
62.9407
 21
54.7956
  0
LINE
  8
0
 10
62.9407
 20
54.7956
 11
63.5387
 21
53.6799
  0
LINE
  8
0
 10
63.5387
 20
53.6799
 11
63.057
 21
53.0225
  0
LINE
  8
0
 10
63.057
 20
53.0225
 11
62.6091
 21
52.4005
  0
LINE
  8
0
 10
62.6091
 20
52.4005
 11
61.3633
 21
52.6244
  0
LINE
  8
0
 10
61.3633
 20
52.6244
 11
60.0951
 21
52.8107
  0
LINE
  8
0
 10
60.0951
 20
52.8107
 11
58.8059
 21
52.9602
  0
LINE
  8
0
 10
58.8059
 20
52.9602
 11
57.4971
 21
53.0736
  0
LINE
  8
0
 10
57.4971
 20
53.0736
 11
56.1696
 21
53.1512
  0
LINE
  8
0
 10
56.1696
 20
53.1512
 11
55.4365
 21
52.0322
  0
LINE
  8
0
 10
55.4365
 20
52.0322
 11
56.0378
 21
50.8462
  0
LINE
  8
0
 10
56.0378
 20
50.8462
 11
56.6644
 21
49.6915
  0
LINE
  8
0
 10
56.6644
 20
49.6915
 11
57.3164
 21
48.5694
  0
LINE
  8
0
 10
57.3164
 20
48.5694
 11
57.9936
 21
47.4811
  0
LINE
  8
0
 10
57.9936
 20
47.4811
 11
58.6965
 21
46.4283
  0
LINE
  8
0
 10
58.6965
 20
46.4283
 11
58.2805
 21
45.7275
  0
LINE
  8
0
 10
58.2805
 20
45.7275
 11
57.8947
 21
45.0651
  0
LINE
  8
0
 10
57.8947
 20
45.0651
 11
56.6331
 21
45.1678
  0
LINE
  8
0
 10
56.6331
 20
45.1678
 11
55.3528
 21
45.2308
  0
LINE
  8
0
 10
55.3528
 20
45.2308
 11
54.0553
 21
45.2552
  0
LINE
  8
0
 10
54.0553
 20
45.2552
 11
52.7416
 21
45.2417
  0
LINE
  8
0
 10
52.7416
 20
45.2417
 11
51.4128
 21
45.1909
  0
LINE
  8
0
 10
51.4128
 20
45.1909
 11
50.7911
 21
44.0063
  0
LINE
  8
0
 10
50.7911
 20
44.0063
 11
51.5041
 21
42.8839
  0
LINE
  8
0
 10
51.5041
 20
42.8839
 11
52.2392
 21
41.7951
  0
LINE
  8
0
 10
52.2392
 20
41.7951
 11
52.9964
 21
40.7411
  0
LINE
  8
0
 10
52.9964
 20
40.7411
 11
53.7756
 21
39.7233
  0
LINE
  8
0
 10
53.7756
 20
39.7233
 11
54.5767
 21
38.7432
  0
LINE
  8
0
 10
54.5767
 20
38.7432
 11
54.2303
 21
38.0055
  0
LINE
  8
0
 10
54.2303
 20
38.0055
 11
53.9103
 21
37.309
  0
LINE
  8
0
 10
53.9103
 20
37.309
 11
52.6446
 21
37.2894
  0
LINE
  8
0
 10
52.6446
 20
37.2894
 11
51.3643
 21
37.2286
  0
LINE
  8
0
 10
51.3643
 20
37.2286
 11
50.0704
 21
37.1277
  0
LINE
  8
0
 10
50.0704
 20
37.1277
 11
48.7642
 21
36.9874
  0
LINE
  8
0
 10
48.7642
 20
36.9874
 11
47.4465
 21
36.8086
  0
LINE
  8
0
 10
47.4465
 20
36.8086
 11
46.942
 21
35.5695
  0
LINE
  8
0
 10
46.942
 20
35.5695
 11
47.76
 21
34.5212
  0
LINE
  8
0
 10
47.76
 20
34.5212
 11
48.5968
 21
33.5084
  0
LINE
  8
0
 10
48.5968
 20
33.5084
 11
49.4522
 21
32.5324
  0
LINE
  8
0
 10
49.4522
 20
32.5324
 11
50.3259
 21
31.5945
  0
LINE
  8
0
 10
50.3259
 20
31.5945
 11
51.2179
 21
30.6964
  0
LINE
  8
0
 10
51.2179
 20
30.6964
 11
50.9444
 21
29.9287
  0
LINE
  8
0
 10
50.9444
 20
29.9287
 11
50.693
 21
29.2046
  0
LINE
  8
0
 10
50.693
 20
29.2046
 11
49.4352
 21
29.0629
  0
LINE
  8
0
 10
49.4352
 20
29.0629
 11
48.1667
 21
28.8788
  0
LINE
  8
0
 10
48.1667
 20
28.8788
 11
46.8886
 21
28.6535
  0
LINE
  8
0
 10
46.8886
 20
28.6535
 11
45.602
 21
28.3878
  0
LINE
  8
0
 10
45.602
 20
28.3878
 11
44.3077
 21
28.0826
  0
LINE
  8
0
 10
44.3077
 20
28.0826
 11
43.9252
 21
26.8007
  0
LINE
  8
0
 10
43.9252
 20
26.8007
 11
44.8405
 21
25.8361
  0
LINE
  8
0
 10
44.8405
 20
25.8361
 11
45.7712
 21
24.9088
  0
LINE
  8
0
 10
45.7712
 20
24.9088
 11
46.7168
 21
24.02
  0
LINE
  8
0
 10
46.7168
 20
24.02
 11
47.6769
 21
23.1708
  0
LINE
  8
0
 10
47.6769
 20
23.1708
 11
48.6515
 21
22.363
  0
LINE
  8
0
 10
48.6515
 20
22.363
 11
48.4533
 21
21.5725
  0
LINE
  8
0
 10
48.4533
 20
21.5725
 11
48.273
 21
20.8275
  0
LINE
  8
0
 10
48.273
 20
20.8275
 11
47.0347
 21
20.565
  0
LINE
  8
0
 10
47.0347
 20
20.565
 11
45.7899
 21
20.2594
  0
LINE
  8
0
 10
45.7899
 20
20.2594
 11
44.5395
 21
19.9117
  0
LINE
  8
0
 10
44.5395
 20
19.9117
 11
43.2845
 21
19.5231
  0
LINE
  8
0
 10
43.2845
 20
19.5231
 11
42.0258
 21
19.0945
  0
LINE
  8
0
 10
42.0258
 20
19.0945
 11
41.7687
 21
17.7816
  0
LINE
  8
0
 10
41.7687
 20
17.7816
 11
42.7729
 21
16.9099
  0
LINE
  8
0
 10
42.7729
 20
16.9099
 11
43.7887
 21
16.0768
  0
LINE
  8
0
 10
43.7887
 20
16.0768
 11
44.8157
 21
15.2833
  0
LINE
  8
0
 10
44.8157
 20
15.2833
 11
45.8533
 21
14.5308
  0
LINE
  8
0
 10
45.8533
 20
14.5308
 11
46.9013
 21
13.8207
  0
LINE
  8
0
 10
46.9013
 20
13.8207
 11
46.7803
 21
13.0148
  0
LINE
  8
0
 10
46.7803
 20
13.0148
 11
46.6727
 21
12.2559
  0
LINE
  8
0
 10
46.6727
 20
12.2559
 11
45.4655
 21
11.8751
  0
LINE
  8
0
 10
45.4655
 20
11.8751
 11
44.256
 21
11.4508
  0
LINE
  8
0
 10
44.256
 20
11.4508
 11
43.0451
 21
10.9841
  0
LINE
  8
0
 10
43.0451
 20
10.9841
 11
41.8335
 21
10.4762
  0
LINE
  8
0
 10
41.8335
 20
10.4762
 11
40.6219
 21
9.92804
  0
LINE
  8
0
 10
40.6219
 20
9.92804
 11
40.4928
 21
8.59645
  0
LINE
  8
0
 10
40.4928
 20
8.59645
 11
41.5764
 21
7.82576
  0
LINE
  8
0
 10
41.5764
 20
7.82576
 11
42.6679
 21
7.09454
  0
LINE
  8
0
 10
42.6679
 20
7.09454
 11
43.7667
 21
6.4039
  0
LINE
  8
0
 10
43.7667
 20
6.4039
 11
44.8721
 21
5.75505
  0
LINE
  8
0
 10
44.8721
 20
5.75505
 11
45.9837
 21
5.14948
  0
LINE
  8
0
 10
45.9837
 20
5.14948
 11
45.941
 21
4.33563
  0
LINE
  8
0
 10
45.941
 20
4.33563
 11
45.9073
 21
3.56987
  0
LINE
  8
0
 10
45.9073
 20
3.56987
 11
44.7424
 21
3.07439
  0
LINE
  8
0
 10
44.7424
 20
3.07439
 11
43.5795
 21
2.53526
  0
LINE
  8
0
 10
43.5795
 20
2.53526
 11
42.4193
 21
1.95389
  0
LINE
  8
0
 10
42.4193
 20
1.95389
 11
41.2623
 21
1.33142
  0
LINE
  8
0
 10
41.2623
 20
1.33142
 11
40.1094
 21
0.6689
  0
LINE
  8
0
 10
40.1094
 20
0.6689
 11
40.1094
 21
-0.6689
  0
LINE
  8
0
 10
40.1094
 20
-0.6689
 11
41.2623
 21
-1.33144
  0
LINE
  8
0
 10
41.2623
 20
-1.33144
 11
42.4193
 21
-1.95389
  0
LINE
  8
0
 10
42.4193
 20
-1.95389
 11
43.5795
 21
-2.53526
  0
LINE
  8
0
 10
43.5795
 20
-2.53526
 11
44.7424
 21
-3.0744
  0
LINE
  8
0
 10
44.7424
 20
-3.0744
 11
45.9073
 21
-3.56985
  0
LINE
  8
0
 10
45.9073
 20
-3.56985
 11
45.9434
 21
-4.38402
  0
LINE
  8
0
 10
45.9434
 20
-4.38402
 11
45.9837
 21
-5.14948
  0
LINE
  8
0
 10
45.9837
 20
-5.14948
 11
44.8721
 21
-5.75505
  0
LINE
  8
0
 10
44.8721
 20
-5.75505
 11
43.7667
 21
-6.4039
  0
LINE
  8
0
 10
43.7667
 20
-6.4039
 11
42.6679
 21
-7.09454
  0
LINE
  8
0
 10
42.6679
 20
-7.09454
 11
41.5764
 21
-7.82576
  0
LINE
  8
0
 10
41.5764
 20
-7.82576
 11
40.4928
 21
-8.59645
  0
LINE
  8
0
 10
40.4928
 20
-8.59645
 11
40.6219
 21
-9.92804
  0
LINE
  8
0
 10
40.6219
 20
-9.92804
 11
41.8335
 21
-10.4762
  0
LINE
  8
0
 10
41.8335
 20
-10.4762
 11
43.0451
 21
-10.9841
  0
LINE
  8
0
 10
43.0451
 20
-10.9841
 11
44.256
 21
-11.4508
  0
LINE
  8
0
 10
44.256
 20
-11.4508
 11
45.4655
 21
-11.8752
  0
LINE
  8
0
 10
45.4655
 20
-11.8752
 11
46.6727
 21
-12.2559
  0
LINE
  8
0
 10
46.6727
 20
-12.2559
 11
46.7873
 21
-13.0627
  0
LINE
  8
0
 10
46.7873
 20
-13.0627
 11
46.9013
 21
-13.8207
  0
LINE
  8
0
 10
46.9013
 20
-13.8207
 11
45.8533
 21
-14.5308
  0
LINE
  8
0
 10
45.8533
 20
-14.5308
 11
44.8157
 21
-15.2833
  0
LINE
  8
0
 10
44.8157
 20
-15.2833
 11
43.7887
 21
-16.0768
  0
LINE
  8
0
 10
43.7887
 20
-16.0768
 11
42.7729
 21
-16.9099
  0
LINE
  8
0
 10
42.7729
 20
-16.9099
 11
41.7687
 21
-17.7816
  0
LINE
  8
0
 10
41.7687
 20
-17.7816
 11
42.0258
 21
-19.0945
  0
LINE
  8
0
 10
42.0258
 20
-19.0945
 11
43.2845
 21
-19.5231
  0
LINE
  8
0
 10
43.2845
 20
-19.5231
 11
44.5395
 21
-19.9117
  0
LINE
  8
0
 10
44.5395
 20
-19.9117
 11
45.7899
 21
-20.2594
  0
LINE
  8
0
 10
45.7899
 20
-20.2594
 11
47.0347
 21
-20.565
  0
LINE
  8
0
 10
47.0347
 20
-20.565
 11
48.273
 21
-20.8275
  0
LINE
  8
0
 10
48.273
 20
-20.8275
 11
48.4649
 21
-21.6195
  0
LINE
  8
0
 10
48.4649
 20
-21.6195
 11
48.6515
 21
-22.363
  0
LINE
  8
0
 10
48.6515
 20
-22.363
 11
47.6769
 21
-23.1708
  0
LINE
  8
0
 10
47.6769
 20
-23.1708
 11
46.7168
 21
-24.02
  0
LINE
  8
0
 10
46.7168
 20
-24.02
 11
45.7712
 21
-24.9088
  0
LINE
  8
0
 10
45.7712
 20
-24.9088
 11
44.8405
 21
-25.8361
  0
LINE
  8
0
 10
44.8405
 20
-25.8361
 11
43.9252
 21
-26.8007
  0
LINE
  8
0
 10
43.9252
 20
-26.8007
 11
44.3077
 21
-28.0826
  0
LINE
  8
0
 10
44.3077
 20
-28.0826
 11
45.602
 21
-28.3878
  0
LINE
  8
0
 10
45.602
 20
-28.3878
 11
46.8886
 21
-28.6535
  0
LINE
  8
0
 10
46.8886
 20
-28.6535
 11
48.1667
 21
-28.8788
  0
LINE
  8
0
 10
48.1667
 20
-28.8788
 11
49.4352
 21
-29.0629
  0
LINE
  8
0
 10
49.4352
 20
-29.0629
 11
50.693
 21
-29.2046
  0
LINE
  8
0
 10
50.693
 20
-29.2046
 11
50.9604
 21
-29.9744
  0
LINE
  8
0
 10
50.9604
 20
-29.9744
 11
51.2179
 21
-30.6964
  0
LINE
  8
0
 10
51.2179
 20
-30.6964
 11
50.3259
 21
-31.5945
  0
LINE
  8
0
 10
50.3259
 20
-31.5945
 11
49.4522
 21
-32.5324
  0
LINE
  8
0
 10
49.4522
 20
-32.5324
 11
48.5968
 21
-33.5084
  0
LINE
  8
0
 10
48.5968
 20
-33.5084
 11
47.76
 21
-34.5212
  0
LINE
  8
0
 10
47.76
 20
-34.5212
 11
46.942
 21
-35.5695
  0
LINE
  8
0
 10
46.942
 20
-35.5695
 11
47.4465
 21
-36.8086
  0
LINE
  8
0
 10
47.4465
 20
-36.8086
 11
48.7642
 21
-36.9874
  0
LINE
  8
0
 10
48.7642
 20
-36.9874
 11
50.0704
 21
-37.1277
  0
LINE
  8
0
 10
50.0704
 20
-37.1277
 11
51.3643
 21
-37.2286
  0
LINE
  8
0
 10
51.3643
 20
-37.2286
 11
52.6446
 21
-37.2894
  0
LINE
  8
0
 10
52.6446
 20
-37.2894
 11
53.9103
 21
-37.309
  0
LINE
  8
0
 10
53.9103
 20
-37.309
 11
54.2508
 21
-38.0495
  0
LINE
  8
0
 10
54.2508
 20
-38.0495
 11
54.5767
 21
-38.7432
  0
LINE
  8
0
 10
54.5767
 20
-38.7432
 11
53.7756
 21
-39.7233
  0
LINE
  8
0
 10
53.7756
 20
-39.7233
 11
52.9964
 21
-40.7411
  0
LINE
  8
0
 10
52.9964
 20
-40.7411
 11
52.2392
 21
-41.7951
  0
LINE
  8
0
 10
52.2392
 20
-41.7951
 11
51.5041
 21
-42.8839
  0
LINE
  8
0
 10
51.5041
 20
-42.8839
 11
50.7911
 21
-44.0063
  0
LINE
  8
0
 10
50.7911
 20
-44.0063
 11
51.4128
 21
-45.1909
  0
LINE
  8
0
 10
51.4128
 20
-45.1909
 11
52.7416
 21
-45.2417
  0
LINE
  8
0
 10
52.7416
 20
-45.2417
 11
54.0553
 21
-45.2552
  0
LINE
  8
0
 10
54.0553
 20
-45.2552
 11
55.3528
 21
-45.2308
  0
LINE
  8
0
 10
55.3528
 20
-45.2308
 11
56.6331
 21
-45.1678
  0
LINE
  8
0
 10
56.6331
 20
-45.1678
 11
57.8947
 21
-45.0651
  0
LINE
  8
0
 10
57.8947
 20
-45.0651
 11
58.3051
 21
-45.7693
  0
LINE
  8
0
 10
58.3051
 20
-45.7693
 11
58.6965
 21
-46.4283
  0
LINE
  8
0
 10
58.6965
 20
-46.4283
 11
57.9936
 21
-47.4811
  0
LINE
  8
0
 10
57.9936
 20
-47.4811
 11
57.3164
 21
-48.5694
  0
LINE
  8
0
 10
57.3164
 20
-48.5694
 11
56.6644
 21
-49.6915
  0
LINE
  8
0
 10
56.6644
 20
-49.6915
 11
56.0378
 21
-50.8462
  0
LINE
  8
0
 10
56.0378
 20
-50.8462
 11
55.4365
 21
-52.0322
  0
LINE
  8
0
 10
55.4365
 20
-52.0322
 11
56.1696
 21
-53.1512
  0
LINE
  8
0
 10
56.1696
 20
-53.1512
 11
57.4971
 21
-53.0736
  0
LINE
  8
0
 10
57.4971
 20
-53.0736
 11
58.8059
 21
-52.9602
  0
LINE
  8
0
 10
58.8059
 20
-52.9602
 11
60.0951
 21
-52.8107
  0
LINE
  8
0
 10
60.0951
 20
-52.8107
 11
61.3633
 21
-52.6244
  0
LINE
  8
0
 10
61.3633
 20
-52.6244
 11
62.6091
 21
-52.4005
  0
LINE
  8
0
 10
62.6091
 20
-52.4005
 11
63.0855
 21
-53.0617
  0
LINE
  8
0
 10
63.0855
 20
-53.0617
 11
63.5387
 21
-53.6799
  0
LINE
  8
0
 10
63.5387
 20
-53.6799
 11
62.9408
 21
-54.7956
  0
LINE
  8
0
 10
62.9408
 20
-54.7956
 11
62.3717
 21
-55.9442
  0
LINE
  8
0
 10
62.3717
 20
-55.9442
 11
61.8311
 21
-57.124
  0
LINE
  8
0
 10
61.8311
 20
-57.124
 11
61.3188
 21
-58.3338
  0
LINE
  8
0
 10
61.3188
 20
-58.3338
 11
60.8347
 21
-59.5723
  0
LINE
  8
0
 10
60.8347
 20
-59.5723
 11
61.6725
 21
-60.6153
  0
LINE
  8
0
 10
61.6725
 20
-60.6153
 11
62.9863
 21
-60.4099
  0
LINE
  8
0
 10
62.9863
 20
-60.4099
 11
64.2781
 21
-60.1708
  0
LINE
  8
0
 10
64.2781
 20
-60.1708
 11
65.5468
 21
-59.8975
  0
LINE
  8
0
 10
65.5468
 20
-59.8975
 11
66.791
 21
-59.5897
  0
LINE
  8
0
 10
66.791
 20
-59.5897
 11
68.0095
 21
-59.2466
  0
LINE
  8
0
 10
68.0095
 20
-59.2466
 11
68.5475
 21
-59.8587
  0
LINE
  8
0
 10
68.5475
 20
-59.8587
 11
69.0582
 21
-60.4303
  0
LINE
  8
0
 10
69.0582
 20
-60.4303
 11
68.5707
 21
-61.5985
  0
LINE
  8
0
 10
68.5707
 20
-61.5985
 11
68.1151
 21
-62.7966
  0
LINE
  8
0
 10
68.1151
 20
-62.7966
 11
67.6909
 21
-64.0231
  0
LINE
  8
0
 10
67.6909
 20
-64.0231
 11
67.2978
 21
-65.2767
  0
LINE
  8
0
 10
67.2978
 20
-65.2767
 11
66.9356
 21
-66.5561
  0
LINE
  8
0
 10
66.9356
 20
-66.5561
 11
67.8701
 21
-67.5135
  0
LINE
  8
0
 10
67.8701
 20
-67.5135
 11
69.1579
 21
-67.1822
  0
LINE
  8
0
 10
69.1579
 20
-67.1822
 11
70.4206
 21
-66.8195
  0
LINE
  8
0
 10
70.4206
 20
-66.8195
 11
71.657
 21
-66.4251
  0
LINE
  8
0
 10
71.657
 20
-66.4251
 11
72.8657
 21
-65.9986
  0
LINE
  8
0
 10
72.8657
 20
-65.9986
 11
74.0454
 21
-65.5395
  0
LINE
  8
0
 10
74.0454
 20
-65.5395
 11
74.6399
 21
-66.0969
  0
LINE
  8
0
 10
74.6399
 20
-66.0969
 11
75.2034
 21
-66.6165
  0
LINE
  8
0
 10
75.2034
 20
-66.6165
 11
74.831
 21
-67.8263
  0
LINE
  8
0
 10
74.831
 20
-67.8263
 11
74.4932
 21
-69.0628
  0
LINE
  8
0
 10
74.4932
 20
-69.0628
 11
74.1893
 21
-70.3245
  0
LINE
  8
0
 10
74.1893
 20
-70.3245
 11
73.919
 21
-71.6101
  0
LINE
  8
0
 10
73.919
 20
-71.6101
 11
73.6819
 21
-72.9186
  0
LINE
  8
0
 10
73.6819
 20
-72.9186
 11
74.7045
 21
-73.7813
  0
LINE
  8
0
 10
74.7045
 20
-73.7813
 11
75.9543
 21
-73.3273
  0
LINE
  8
0
 10
75.9543
 20
-73.3273
 11
77.1761
 21
-72.8444
  0
LINE
  8
0
 10
77.1761
 20
-72.8444
 11
78.3686
 21
-72.3325
  0
LINE
  8
0
 10
78.3686
 20
-72.3325
 11
79.5306
 21
-71.7913
  0
LINE
  8
0
 10
79.5306
 20
-71.7913
 11
80.6604
 21
-71.2205
  0
LINE
  8
0
 10
80.6604
 20
-71.2205
 11
81.306
 21
-71.7179
  0
LINE
  8
0
 10
81.306
 20
-71.7179
 11
81.917
 21
-72.1807
  0
LINE
  8
0
 10
81.917
 20
-72.1807
 11
81.6631
 21
-73.4208
  0
LINE
  8
0
 10
81.6631
 20
-73.4208
 11
81.4462
 21
-74.6841
  0
LINE
  8
0
 10
81.4462
 20
-74.6841
 11
81.2655
 21
-75.9693
  0
LINE
  8
0
 10
81.2655
 20
-75.9693
 11
81.1206
 21
-77.275
  0
LINE
  8
0
 10
81.1206
 20
-77.275
 11
81.0109
 21
-78.6002
  0
LINE
  8
0
 10
81.0109
 20
-78.6002
 11
82.1119
 21
-79.3602
  0
LINE
  8
0
 10
82.1119
 20
-79.3602
 11
83.3121
 21
-78.7877
  0
LINE
  8
0
 10
83.3121
 20
-78.7877
 11
84.4816
 21
-78.1891
  0
LINE
  8
0
 10
84.4816
 20
-78.1891
 11
85.6191
 21
-77.5645
  0
LINE
  8
0
 10
85.6191
 20
-77.5645
 11
86.7234
 21
-76.9137
  0
LINE
  8
0
 10
86.7234
 20
-76.9137
 11
87.7929
 21
-76.2365
  0
LINE
  8
0
 10
87.7929
 20
-76.2365
 11
88.4835
 21
-76.6693
  0
LINE
  8
0
 10
88.4835
 20
-76.6693
 11
89.1363
 21
-77.071
  0
LINE
  8
0
 10
89.1363
 20
-77.071
 11
89.0032
 21
-78.3298
  0
LINE
  8
0
 10
89.0032
 20
-78.3298
 11
88.9093
 21
-79.6081
  0
LINE
  8
0
 10
88.9093
 20
-79.6081
 11
88.8535
 21
-80.9047
  0
LINE
  8
0
 10
88.8535
 20
-80.9047
 11
88.8353
 21
-82.2184
  0
LINE
  8
0
 10
88.8353
 20
-82.2184
 11
88.854
 21
-83.548
  0
LINE
  8
0
 10
88.854
 20
-83.548
 11
90.0232
 21
-84.1981
  0
LINE
  8
0
 10
90.0232
 20
-84.1981
 11
91.1625
 21
-83.5125
  0
LINE
  8
0
 10
91.1625
 20
-83.5125
 11
92.2688
 21
-82.8038
  0
LINE
  8
0
 10
92.2688
 20
-82.8038
 11
93.3407
 21
-82.0723
  0
LINE
  8
0
 10
93.3407
 20
-82.0723
 11
94.3771
 21
-81.318
  0
LINE
  8
0
 10
94.3771
 20
-81.318
 11
95.3762
 21
-80.5408
  0
LINE
  8
0
 10
95.3762
 20
-80.5408
 11
96.1053
 21
-80.9049
  0
LINE
  8
0
 10
96.1053
 20
-80.9049
 11
96.7939
 21
-81.2417
  0
LINE
  8
0
 10
96.7939
 20
-81.2417
 11
96.7829
 21
-82.5074
  0
LINE
  8
0
 10
96.7829
 20
-82.5074
 11
96.8128
 21
-83.7889
  0
LINE
  8
0
 10
96.8128
 20
-83.7889
 11
96.8824
 21
-85.0848
  0
LINE
  8
0
 10
96.8824
 20
-85.0848
 11
96.991
 21
-86.3941
  0
LINE
  8
0
 10
96.991
 20
-86.3941
 11
97.138
 21
-87.7157
  0
LINE
  8
0
 10
97.138
 20
-87.7157
 11
98.3645
 21
-88.2499
  0
LINE
  8
0
 10
98.3645
 20
-88.2499
 11
99.4323
 21
-87.4575
  0
LINE
  8
0
 10
99.4323
 20
-87.4575
 11
100.465
 21
-86.6454
  0
LINE
  8
0
 10
100.465
 20
-86.6454
 11
101.461
 21
-85.8139
  0
LINE
  8
0
 10
101.461
 20
-85.8139
 11
102.42
 21
-84.9631
  0
LINE
  8
0
 10
102.42
 20
-84.9631
 11
103.34
 21
-84.093
  0
LINE
  8
0
 10
103.34
 20
-84.093
 11
104.1
 21
-84.385
  0
LINE
  8
0
 10
104.1
 20
-84.385
 11
104.818
 21
-84.6538
  0
LINE
  8
0
 10
104.818
 20
-84.6538
 11
104.929
 21
-85.9147
  0
LINE
  8
0
 10
104.929
 20
-85.9147
 11
105.083
 21
-87.1873
  0
LINE
  8
0
 10
105.083
 20
-87.1873
 11
105.277
 21
-88.4705
  0
LINE
  8
0
 10
105.277
 20
-88.4705
 11
105.512
 21
-89.7631
  0
LINE
  8
0
 10
105.512
 20
-89.7631
 11
105.786
 21
-91.0644
  0
LINE
  8
0
 10
105.786
 20
-91.0644
 11
107.058
 21
-91.4778
  0
LINE
  8
0
 10
107.058
 20
-91.4778
 11
108.044
 21
-90.586
  0
LINE
  8
0
 10
108.044
 20
-90.586
 11
108.994
 21
-89.678
  0
LINE
  8
0
 10
108.994
 20
-89.678
 11
109.905
 21
-88.7542
  0
LINE
  8
0
 10
109.905
 20
-88.7542
 11
110.777
 21
-87.8148
  0
LINE
  8
0
 10
110.777
 20
-87.8148
 11
111.608
 21
-86.8601
  0
LINE
  8
0
 10
111.608
 20
-86.8601
 11
112.394
 21
-87.0773
  0
LINE
  8
0
 10
112.394
 20
-87.0773
 11
113.134
 21
-87.2756
  0
LINE
  8
0
 10
113.134
 20
-87.2756
 11
113.367
 21
-88.5199
  0
LINE
  8
0
 10
113.367
 20
-88.5199
 11
113.642
 21
-89.7717
  0
LINE
  8
0
 10
113.642
 20
-89.7717
 11
113.96
 21
-91.0301
  0
LINE
  8
0
 10
113.96
 20
-91.0301
 11
114.318
 21
-92.2941
  0
LINE
  8
0
 10
114.318
 20
-92.2941
 11
114.716
 21
-93.5628
  0
LINE
  8
0
 10
114.716
 20
-93.5628
 11
116.022
 21
-93.8515
  0
LINE
  8
0
 10
116.022
 20
-93.8515
 11
116.918
 21
-92.8687
  0
LINE
  8
0
 10
116.918
 20
-92.8687
 11
117.775
 21
-91.8734
  0
LINE
  8
0
 10
117.775
 20
-91.8734
 11
118.593
 21
-90.8659
  0
LINE
  8
0
 10
118.593
 20
-90.8659
 11
119.371
 21
-89.8467
  0
LINE
  8
0
 10
119.371
 20
-89.8467
 11
120.106
 21
-88.8162
  0
LINE
  8
0
 10
120.106
 20
-88.8162
 11
120.909
 21
-88.9566
  0
LINE
  8
0
 10
120.909
 20
-88.9566
 11
121.665
 21
-89.0825
  0
LINE
  8
0
 10
121.665
 20
-89.0825
 11
122.016
 21
-90.2985
  0
LINE
  8
0
 10
122.016
 20
-90.2985
 11
122.411
 21
-91.5179
  0
LINE
  8
0
 10
122.411
 20
-91.5179
 11
122.849
 21
-92.7398
  0
LINE
  8
0
 10
122.849
 20
-92.7398
 11
123.327
 21
-93.9633
  0
LINE
  8
0
 10
123.327
 20
-93.9633
 11
123.846
 21
-95.1877
  0
LINE
  8
0
 10
123.846
 20
-95.1877
 11
125.174
 21
-95.349
  0
LINE
  8
0
 10
125.174
 20
-95.349
 11
125.971
 21
-94.2843
  0
LINE
  8
0
 10
125.971
 20
-94.2843
 11
126.728
 21
-93.2109
  0
LINE
  8
0
 10
126.728
 20
-93.2109
 11
127.445
 21
-92.1291
  0
LINE
  8
0
 10
127.445
 20
-92.1291
 11
128.12
 21
-91.0397
  0
LINE
  8
0
 10
128.12
 20
-91.0397
 11
128.753
 21
-89.9431
  0
LINE
  8
0
 10
128.753
 20
-89.9431
 11
129.565
 21
-90.0053
  0
LINE
  8
0
 10
129.565
 20
-90.0053
 11
130.33
 21
-90.0576
  0
LINE
  8
0
 10
130.33
 20
-90.0576
 11
130.797
 21
-91.2341
  0
LINE
  8
0
 10
130.797
 20
-91.2341
 11
131.308
 21
-92.4097
  0
LINE
  8
0
 10
131.308
 20
-92.4097
 11
131.861
 21
-93.5836
  0
LINE
  8
0
 10
131.861
 20
-93.5836
 11
132.455
 21
-94.7553
  0
LINE
  8
0
 10
132.455
 20
-94.7553
 11
133.09
 21
-95.9239
  0
LINE
  8
0
 10
133.09
 20
-95.9239
 11
134.427
 21
-95.9562
  0
LINE
  8
0
 10
134.427
 20
-95.9562
 11
135.117
 21
-94.8196
  0
LINE
  8
0
 10
133.862
 20
-4.48213
 11
132.585
 21
-3.57799
  0
LINE
  8
0
 10
132.585
 20
-3.57799
 11
131.65
 21
-2.32361
  0
LINE
  8
0
 10
131.65
 20
-2.32361
 11
131.149
 21
-0.841782
  0
LINE
  8
0
 10
131.149
 20
-0.841782
 11
131.13
 21
0.722443
  0
LINE
  8
0
 10
131.13
 20
0.722443
 11
131.595
 21
2.21596
  0
LINE
  8
0
 10
131.595
 20
2.21596
 11
132.499
 21
3.49255
  0
LINE
  8
0
 10
132.499
 20
3.49255
 11
133.754
 21
4.42728
  0
LINE
  8
0
 10
133.754
 20
4.42728
 11
135.236
 21
4.92862
  0
LINE
  8
0
 10
135.236
 20
4.92862
 11
136.8
 21
4.94753
  0
LINE
  8
0
 10
136.8
 20
4.94753
 11
138.293
 21
4.48213
  0
LINE
  8
0
 10
138.293
 20
4.48213
 11
139.57
 21
3.57799
  0
LINE
  8
0
 10
139.57
 20
3.57799
 11
140.505
 21
2.32361
  0
LINE
  8
0
 10
140.505
 20
2.32361
 11
141.006
 21
0.841782
  0
LINE
  8
0
 10
141.006
 20
0.841782
 11
141.025
 21
-0.722443
  0
LINE
  8
0
 10
141.025
 20
-0.722443
 11
140.56
 21
-2.21596
  0
LINE
  8
0
 10
140.56
 20
-2.21596
 11
139.655
 21
-3.49255
  0
LINE
  8
0
 10
139.655
 20
-3.49255
 11
138.401
 21
-4.42728
  0
LINE
  8
0
 10
138.401
 20
-4.42728
 11
136.919
 21
-4.92862
  0
LINE
  8
0
 10
136.919
 20
-4.92862
 11
135.355
 21
-4.94753
  0
LINE
  8
0
 10
135.355
 20
-4.94753
 11
133.862
 21
-4.48213
  0
LINE
  8
0
 10
1.32727
 20
-44.671
 11
1.96353
 21
-43.5005
  0
LINE
  8
0
 10
1.96353
 20
-43.5005
 11
2.5118
 21
-42.3244
  0
LINE
  8
0
 10
2.5118
 20
-42.3244
 11
2.96651
 21
-41.1461
  0
LINE
  8
0
 10
2.96651
 20
-41.1461
 11
3.31874
 21
-39.9695
  0
LINE
  8
0
 10
3.31874
 20
-39.9695
 11
4.21547
 21
-39.8844
  0
LINE
  8
0
 10
4.21547
 20
-39.8844
 11
5.06389
 21
-39.7861
  0
LINE
  8
0
 10
5.06389
 20
-39.7861
 11
5.65306
 21
-40.8638
  0
LINE
  8
0
 10
5.65306
 20
-40.8638
 11
6.3428
 21
-41.9217
  0
LINE
  8
0
 10
6.3428
 20
-41.9217
 11
7.12361
 21
-42.9581
  0
LINE
  8
0
 10
7.12361
 20
-42.9581
 11
7.98933
 21
-43.9708
  0
LINE
  8
0
 10
7.98933
 20
-43.9708
 11
8.93552
 21
-44.9572
  0
LINE
  8
0
 10
8.93552
 20
-44.9572
 11
10.1227
 21
-44.7049
  0
LINE
  8
0
 10
10.1227
 20
-44.7049
 11
10.5859
 21
-43.4189
  0
LINE
  8
0
 10
10.5859
 20
-43.4189
 11
10.9649
 21
-42.1416
  0
LINE
  8
0
 10
10.9649
 20
-42.1416
 11
11.2567
 21
-40.8773
  0
LINE
  8
0
 10
11.2567
 20
-40.8773
 11
11.4565
 21
-39.6302
  0
LINE
  8
0
 10
11.4565
 20
-39.6302
 11
11.5564
 21
-38.4061
  0
LINE
  8
0
 10
11.5564
 20
-38.4061
 11
12.4158
 21
-38.1364
  0
LINE
  8
0
 10
12.4158
 20
-38.1364
 11
13.2252
 21
-37.8638
  0
LINE
  8
0
 10
13.2252
 20
-37.8638
 11
14.0256
 21
-38.7955
  0
LINE
  8
0
 10
14.0256
 20
-38.7955
 11
14.9202
 21
-39.6869
  0
LINE
  8
0
 10
14.9202
 20
-39.6869
 11
15.8994
 21
-40.5383
  0
LINE
  8
0
 10
15.8994
 20
-40.5383
 11
16.9568
 21
-41.3488
  0
LINE
  8
0
 10
16.9568
 20
-41.3488
 11
18.0874
 21
-42.117
  0
LINE
  8
0
 10
18.0874
 20
-42.117
 11
19.1962
 21
-41.6233
  0
LINE
  8
0
 10
19.1962
 20
-41.6233
 11
19.3819
 21
-40.2691
  0
LINE
  8
0
 10
19.3819
 20
-40.2691
 11
19.487
 21
-38.941
  0
LINE
  8
0
 10
19.487
 20
-38.941
 11
19.5095
 21
-37.6436
  0
LINE
  8
0
 10
19.5095
 20
-37.6436
 11
19.4457
 21
-36.3823
  0
LINE
  8
0
 10
19.4457
 20
-36.3823
 11
19.2889
 21
-35.1641
  0
LINE
  8
0
 10
19.2889
 20
-35.1641
 11
20.0735
 21
-34.7216
  0
LINE
  8
0
 10
20.0735
 20
-34.7216
 11
20.8085
 21
-34.2867
  0
LINE
  8
0
 10
20.8085
 20
-34.2867
 11
21.7851
 21
-35.0316
  0
LINE
  8
0
 10
21.7851
 20
-35.0316
 11
22.8456
 21
-35.7176
  0
LINE
  8
0
 10
22.8456
 20
-35.7176
 11
23.9804
 21
-36.3468
  0
LINE
  8
0
 10
23.9804
 20
-36.3468
 11
25.1832
 21
-36.9197
  0
LINE
  8
0
 10
25.1832
 20
-36.9197
 11
26.4487
 21
-37.4361
  0
LINE
  8
0
 10
26.4487
 20
-37.4361
 11
27.4307
 21
-36.7226
  0
LINE
  8
0
 10
27.4307
 20
-36.7226
 11
27.3307
 21
-35.3594
  0
LINE
  8
0
 10
27.3307
 20
-35.3594
 11
27.1575
 21
-34.0385
  0
LINE
  8
0
 10
27.1575
 20
-34.0385
 11
26.9097
 21
-32.7648
  0
LINE
  8
0
 10
26.9097
 20
-32.7648
 11
26.5851
 21
-31.5443
  0
LINE
  8
0
 10
26.5851
 20
-31.5443
 11
26.1784
 21
-30.3853
  0
LINE
  8
0
 10
26.1784
 20
-30.3853
 11
26.8539
 21
-29.7894
  0
LINE
  8
0
 10
26.8539
 20
-29.7894
 11
27.4824
 21
-29.2111
  0
LINE
  8
0
 10
27.4824
 20
-29.2111
 11
28.5925
 21
-29.7367
  0
LINE
  8
0
 10
28.5925
 20
-29.7367
 11
29.7724
 21
-30.1872
  0
LINE
  8
0
 10
29.7724
 20
-30.1872
 11
31.0133
 21
-30.5667
  0
LINE
  8
0
 10
31.0133
 20
-30.5667
 11
32.3089
 21
-30.8771
  0
LINE
  8
0
 10
32.3089
 20
-30.8771
 11
33.6542
 21
-31.119
  0
LINE
  8
0
 10
33.6542
 20
-31.119
 11
34.4663
 21
-30.217
  0
LINE
  8
0
 10
34.4663
 20
-30.217
 11
34.0851
 21
-28.9044
  0
LINE
  8
0
 10
34.0851
 20
-28.9044
 11
33.641
 21
-27.6483
  0
LINE
  8
0
 10
33.641
 20
-27.6483
 11
33.1339
 21
-26.4539
  0
LINE
  8
0
 10
33.1339
 20
-26.4539
 11
32.5625
 21
-25.3276
  0
LINE
  8
0
 10
32.5625
 20
-25.3276
 11
31.9238
 21
-24.2785
  0
LINE
  8
0
 10
31.9238
 20
-24.2785
 11
32.4606
 21
-23.5551
  0
LINE
  8
0
 10
32.4606
 20
-23.5551
 11
32.9552
 21
-22.8589
  0
LINE
  8
0
 10
32.9552
 20
-22.8589
 11
34.1503
 21
-23.1422
  0
LINE
  8
0
 10
34.1503
 20
-23.1422
 11
35.3981
 21
-23.3375
  0
LINE
  8
0
 10
35.3981
 20
-23.3375
 11
36.6908
 21
-23.4507
  0
LINE
  8
0
 10
36.6908
 20
-23.4507
 11
38.0226
 21
-23.485
  0
LINE
  8
0
 10
38.0226
 20
-23.485
 11
39.3887
 21
-23.4419
  0
LINE
  8
0
 10
39.3887
 20
-23.4419
 11
39.9956
 21
-22.3907
  0
LINE
  8
0
 10
39.9956
 20
-22.3907
 11
39.3499
 21
-21.186
  0
LINE
  8
0
 10
39.3499
 20
-21.186
 11
38.6543
 21
-20.0498
  0
LINE
  8
0
 10
38.6543
 20
-20.0498
 11
37.9099
 21
-18.9869
  0
LINE
  8
0
 10
37.9099
 20
-18.9869
 11
37.1169
 21
-18.004
  0
LINE
  8
0
 10
37.1169
 20
-18.004
 11
36.274
 21
-17.1106
  0
LINE
  8
0
 10
36.274
 20
-17.1106
 11
36.6486
 21
-16.2915
  0
LINE
  8
0
 10
36.6486
 20
-16.2915
 11
36.9877
 21
-15.5076
  0
LINE
  8
0
 10
36.9877
 20
-15.5076
 11
38.2156
 21
-15.5362
  0
LINE
  8
0
 10
38.2156
 20
-15.5362
 11
39.4767
 21
-15.4678
  0
LINE
  8
0
 10
39.4767
 20
-15.4678
 11
40.7646
 21
-15.3098
  0
LINE
  8
0
 10
40.7646
 20
-15.3098
 11
42.0745
 21
-15.0664
  0
LINE
  8
0
 10
42.0745
 20
-15.0664
 11
43.4019
 21
-14.7402
  0
LINE
  8
0
 10
43.4019
 20
-14.7402
 11
43.7769
 21
-13.5859
  0
LINE
  8
0
 10
43.7769
 20
-13.5859
 11
42.8948
 21
-12.5418
  0
LINE
  8
0
 10
42.8948
 20
-12.5418
 11
41.9782
 21
-11.5749
  0
LINE
  8
0
 10
41.9782
 20
-11.5749
 11
41.0291
 21
-10.6901
  0
LINE
  8
0
 10
41.0291
 20
-10.6901
 11
40.049
 21
-9.89352
  0
LINE
  8
0
 10
40.049
 20
-9.89352
 11
39.0388
 21
-9.19492
  0
LINE
  8
0
 10
39.0388
 20
-9.19492
 11
39.235
 21
-8.3158
  0
LINE
  8
0
 10
39.235
 20
-8.3158
 11
39.4036
 21
-7.47852
  0
LINE
  8
0
 10
39.4036
 20
-7.47852
 11
40.6107
 21
-7.25121
  0
LINE
  8
0
 10
40.6107
 20
-7.25121
 11
41.83
 21
-6.92215
  0
LINE
  8
0
 10
41.83
 20
-6.92215
 11
43.0569
 21
-6.49982
  0
LINE
  8
0
 10
43.0569
 20
-6.49982
 11
44.2875
 21
-5.9894
  0
LINE
  8
0
 10
44.2875
 20
-5.9894
 11
45.5181
 21
-5.39435
  0
LINE
  8
0
 10
45.5181
 20
-5.39435
 11
45.6449
 21
-4.18726
  0
LINE
  8
0
 10
45.6449
 20
-4.18726
 11
44.565
 21
-3.34937
  0
LINE
  8
0
 10
44.565
 20
-3.34937
 11
43.4674
 21
-2.59424
  0
LINE
  8
0
 10
43.4674
 20
-2.59424
 11
42.3551
 21
-1.92604
  0
LINE
  8
0
 10
42.3551
 20
-1.92604
 11
41.2308
 21
-1.35066
  0
LINE
  8
0
 10
41.2308
 20
-1.35066
 11
40.0974
 21
-0.877365
  0
LINE
  8
0
 10
40.0974
 20
-0.877365
 11
40.1065
 21
0.0233307
  0
LINE
  8
0
 10
40.1065
 20
0.0233307
 11
40.0974
 21
0.877365
  0
LINE
  8
0
 10
40.0974
 20
0.877365
 11
41.2308
 21
1.35066
  0
LINE
  8
0
 10
41.2308
 20
1.35066
 11
42.3551
 21
1.92604
  0
LINE
  8
0
 10
42.3551
 20
1.92604
 11
43.4674
 21
2.59424
  0
LINE
  8
0
 10
43.4674
 20
2.59424
 11
44.565
 21
3.34937
  0
LINE
  8
0
 10
44.565
 20
3.34937
 11
45.6449
 21
4.18726
  0
LINE
  8
0
 10
45.6449
 20
4.18726
 11
45.5181
 21
5.39435
  0
LINE
  8
0
 10
45.5181
 20
5.39435
 11
44.2875
 21
5.9894
  0
LINE
  8
0
 10
44.2875
 20
5.9894
 11
43.0569
 21
6.49982
  0
LINE
  8
0
 10
43.0569
 20
6.49982
 11
41.83
 21
6.92215
  0
LINE
  8
0
 10
41.83
 20
6.92215
 11
40.6107
 21
7.25121
  0
LINE
  8
0
 10
40.6107
 20
7.25121
 11
39.4036
 21
7.47852
  0
LINE
  8
0
 10
39.4036
 20
7.47852
 11
39.2253
 21
8.36143
  0
LINE
  8
0
 10
39.2253
 20
8.36143
 11
39.0388
 21
9.19492
  0
LINE
  8
0
 10
39.0388
 20
9.19492
 11
40.049
 21
9.89352
  0
LINE
  8
0
 10
40.049
 20
9.89352
 11
41.0291
 21
10.6901
  0
LINE
  8
0
 10
41.0291
 20
10.6901
 11
41.9782
 21
11.5749
  0
LINE
  8
0
 10
41.9782
 20
11.5749
 11
42.8948
 21
12.5418
  0
LINE
  8
0
 10
42.8948
 20
12.5418
 11
43.7769
 21
13.5859
  0
LINE
  8
0
 10
43.7769
 20
13.5859
 11
43.4019
 21
14.7402
  0
LINE
  8
0
 10
43.4019
 20
14.7402
 11
42.0745
 21
15.0664
  0
LINE
  8
0
 10
42.0745
 20
15.0664
 11
40.7646
 21
15.3098
  0
LINE
  8
0
 10
40.7646
 20
15.3098
 11
39.4767
 21
15.4678
  0
LINE
  8
0
 10
39.4767
 20
15.4678
 11
38.2156
 21
15.5362
  0
LINE
  8
0
 10
38.2156
 20
15.5362
 11
36.9877
 21
15.5076
  0
LINE
  8
0
 10
36.9877
 20
15.5076
 11
36.6297
 21
16.3341
  0
LINE
  8
0
 10
36.6297
 20
16.3341
 11
36.274
 21
17.1106
  0
LINE
  8
0
 10
36.274
 20
17.1106
 11
37.1169
 21
18.004
  0
LINE
  8
0
 10
37.1169
 20
18.004
 11
37.9099
 21
18.9869
  0
LINE
  8
0
 10
37.9099
 20
18.9869
 11
38.6543
 21
20.0498
  0
LINE
  8
0
 10
38.6543
 20
20.0498
 11
39.3499
 21
21.186
  0
LINE
  8
0
 10
39.3499
 20
21.186
 11
39.9956
 21
22.3907
  0
LINE
  8
0
 10
39.9956
 20
22.3907
 11
39.3887
 21
23.4419
  0
LINE
  8
0
 10
39.3887
 20
23.4419
 11
38.0226
 21
23.485
  0
LINE
  8
0
 10
38.0226
 20
23.485
 11
36.6908
 21
23.4507
  0
LINE
  8
0
 10
36.6908
 20
23.4507
 11
35.3981
 21
23.3375
  0
LINE
  8
0
 10
35.3981
 20
23.3375
 11
34.1503
 21
23.1422
  0
LINE
  8
0
 10
34.1503
 20
23.1422
 11
32.9552
 21
22.8589
  0
LINE
  8
0
 10
32.9552
 20
22.8589
 11
32.4332
 21
23.5929
  0
LINE
  8
0
 10
32.4332
 20
23.5929
 11
31.9238
 21
24.2785
  0
LINE
  8
0
 10
31.9238
 20
24.2785
 11
32.5625
 21
25.3276
  0
LINE
  8
0
 10
32.5625
 20
25.3276
 11
33.1339
 21
26.4539
  0
LINE
  8
0
 10
33.1339
 20
26.4539
 11
33.641
 21
27.6483
  0
LINE
  8
0
 10
33.641
 20
27.6483
 11
34.0851
 21
28.9044
  0
LINE
  8
0
 10
34.0851
 20
28.9044
 11
34.4663
 21
30.217
  0
LINE
  8
0
 10
34.4663
 20
30.217
 11
33.6542
 21
31.119
  0
LINE
  8
0
 10
33.6542
 20
31.119
 11
32.3089
 21
30.8771
  0
LINE
  8
0
 10
32.3089
 20
30.8771
 11
31.0133
 21
30.5667
  0
LINE
  8
0
 10
31.0133
 20
30.5667
 11
29.7724
 21
30.1872
  0
LINE
  8
0
 10
29.7724
 20
30.1872
 11
28.5925
 21
29.7367
  0
LINE
  8
0
 10
28.5925
 20
29.7367
 11
27.4824
 21
29.2111
  0
LINE
  8
0
 10
27.4824
 20
29.2111
 11
26.8192
 21
29.8206
  0
LINE
  8
0
 10
26.8192
 20
29.8206
 11
26.1784
 21
30.3853
  0
LINE
  8
0
 10
26.1784
 20
30.3853
 11
26.5851
 21
31.5443
  0
LINE
  8
0
 10
26.5851
 20
31.5443
 11
26.9097
 21
32.7648
  0
LINE
  8
0
 10
26.9097
 20
32.7648
 11
27.1575
 21
34.0385
  0
LINE
  8
0
 10
27.1575
 20
34.0385
 11
27.3307
 21
35.3594
  0
LINE
  8
0
 10
27.3307
 20
35.3594
 11
27.4307
 21
36.7226
  0
LINE
  8
0
 10
27.4307
 20
36.7226
 11
26.4487
 21
37.4361
  0
LINE
  8
0
 10
26.4487
 20
37.4361
 11
25.1832
 21
36.9197
  0
LINE
  8
0
 10
25.1832
 20
36.9197
 11
23.9804
 21
36.3468
  0
LINE
  8
0
 10
23.9804
 20
36.3468
 11
22.8456
 21
35.7176
  0
LINE
  8
0
 10
22.8456
 20
35.7176
 11
21.7851
 21
35.0316
  0
LINE
  8
0
 10
21.7851
 20
35.0316
 11
20.8085
 21
34.2867
  0
LINE
  8
0
 10
20.8085
 20
34.2867
 11
20.0331
 21
34.7449
  0
LINE
  8
0
 10
20.0331
 20
34.7449
 11
19.2889
 21
35.1641
  0
LINE
  8
0
 10
19.2889
 20
35.1641
 11
19.4457
 21
36.3823
  0
LINE
  8
0
 10
19.4457
 20
36.3823
 11
19.5095
 21
37.6436
  0
LINE
  8
0
 10
19.5095
 20
37.6436
 11
19.487
 21
38.941
  0
LINE
  8
0
 10
19.487
 20
38.941
 11
19.3819
 21
40.2691
  0
LINE
  8
0
 10
19.3819
 20
40.2691
 11
19.1962
 21
41.6233
  0
LINE
  8
0
 10
19.1962
 20
41.6233
 11
18.0874
 21
42.117
  0
LINE
  8
0
 10
18.0874
 20
42.117
 11
16.9568
 21
41.3488
  0
LINE
  8
0
 10
16.9568
 20
41.3488
 11
15.8994
 21
40.5383
  0
LINE
  8
0
 10
15.8994
 20
40.5383
 11
14.9202
 21
39.6869
  0
LINE
  8
0
 10
14.9202
 20
39.6869
 11
14.0256
 21
38.7955
  0
LINE
  8
0
 10
14.0256
 20
38.7955
 11
13.2252
 21
37.8638
  0
LINE
  8
0
 10
13.2252
 20
37.8638
 11
12.3714
 21
38.1508
  0
LINE
  8
0
 10
12.3714
 20
38.1508
 11
11.5564
 21
38.4061
  0
LINE
  8
0
 10
11.5564
 20
38.4061
 11
11.4565
 21
39.6302
  0
LINE
  8
0
 10
11.4565
 20
39.6302
 11
11.2567
 21
40.8773
  0
LINE
  8
0
 10
11.2567
 20
40.8773
 11
10.9649
 21
42.1416
  0
LINE
  8
0
 10
10.9649
 20
42.1416
 11
10.5859
 21
43.4189
  0
LINE
  8
0
 10
10.5859
 20
43.4189
 11
10.1227
 21
44.7049
  0
LINE
  8
0
 10
10.1227
 20
44.7049
 11
8.93552
 21
44.9572
  0
LINE
  8
0
 10
8.93552
 20
44.9572
 11
7.98933
 21
43.9708
  0
LINE
  8
0
 10
7.98933
 20
43.9708
 11
7.12361
 21
42.9581
  0
LINE
  8
0
 10
7.12361
 20
42.9581
 11
6.3428
 21
41.9217
  0
LINE
  8
0
 10
6.3428
 20
41.9217
 11
5.65306
 21
40.8638
  0
LINE
  8
0
 10
5.65306
 20
40.8638
 11
5.06389
 21
39.7861
  0
LINE
  8
0
 10
5.06389
 20
39.7861
 11
4.16907
 21
39.8893
  0
LINE
  8
0
 10
4.16907
 20
39.8893
 11
3.31876
 21
39.9695
  0
LINE
  8
0
 10
3.31876
 20
39.9695
 11
2.96652
 21
41.1461
  0
LINE
  8
0
 10
2.96652
 20
41.1461
 11
2.51181
 21
42.3244
  0
LINE
  8
0
 10
2.51181
 20
42.3244
 11
1.96355
 21
43.5005
  0
LINE
  8
0
 10
1.96355
 20
43.5005
 11
1.32729
 21
44.671
  0
LINE
  8
0
 10
1.32729
 20
44.671
 11
0.606873
 21
45.8326
  0
LINE
  8
0
 10
0.606873
 20
45.8326
 11
-0.606873
 21
45.8326
  0
LINE
  8
0
 10
-0.606873
 20
45.8326
 11
-1.32729
 21
44.671
  0
LINE
  8
0
 10
-1.32729
 20
44.671
 11
-1.96355
 21
43.5005
  0
LINE
  8
0
 10
-1.96355
 20
43.5005
 11
-2.51181
 21
42.3244
  0
LINE
  8
0
 10
-2.51181
 20
42.3244
 11
-2.96652
 21
41.1461
  0
LINE
  8
0
 10
-2.96652
 20
41.1461
 11
-3.31876
 21
39.9695
  0
LINE
  8
0
 10
-3.31876
 20
39.9695
 11
-4.21547
 21
39.8844
  0
LINE
  8
0
 10
-4.21547
 20
39.8844
 11
-5.06389
 21
39.7861
  0
LINE
  8
0
 10
-5.06389
 20
39.7861
 11
-5.65306
 21
40.8638
  0
LINE
  8
0
 10
-5.65306
 20
40.8638
 11
-6.3428
 21
41.9217
  0
LINE
  8
0
 10
-6.3428
 20
41.9217
 11
-7.12361
 21
42.9581
  0
LINE
  8
0
 10
-7.12361
 20
42.9581
 11
-7.98933
 21
43.9708
  0
LINE
  8
0
 10
-7.98933
 20
43.9708
 11
-8.93552
 21
44.9572
  0
LINE
  8
0
 10
-8.93552
 20
44.9572
 11
-10.1227
 21
44.7049
  0
LINE
  8
0
 10
-10.1227
 20
44.7049
 11
-10.5859
 21
43.4189
  0
LINE
  8
0
 10
-10.5859
 20
43.4189
 11
-10.9649
 21
42.1416
  0
LINE
  8
0
 10
-10.9649
 20
42.1416
 11
-11.2567
 21
40.8773
  0
LINE
  8
0
 10
-11.2567
 20
40.8773
 11
-11.4565
 21
39.6302
  0
LINE
  8
0
 10
-11.4565
 20
39.6302
 11
-11.5564
 21
38.4061
  0
LINE
  8
0
 10
-11.5564
 20
38.4061
 11
-12.4158
 21
38.1364
  0
LINE
  8
0
 10
-12.4158
 20
38.1364
 11
-13.2252
 21
37.8638
  0
LINE
  8
0
 10
-13.2252
 20
37.8638
 11
-14.0256
 21
38.7955
  0
LINE
  8
0
 10
-14.0256
 20
38.7955
 11
-14.9202
 21
39.6869
  0
LINE
  8
0
 10
-14.9202
 20
39.6869
 11
-15.8994
 21
40.5383
  0
LINE
  8
0
 10
-15.8994
 20
40.5383
 11
-16.9568
 21
41.3488
  0
LINE
  8
0
 10
-16.9568
 20
41.3488
 11
-18.0874
 21
42.117
  0
LINE
  8
0
 10
-18.0874
 20
42.117
 11
-19.1962
 21
41.6233
  0
LINE
  8
0
 10
-19.1962
 20
41.6233
 11
-19.3819
 21
40.2691
  0
LINE
  8
0
 10
-19.3819
 20
40.2691
 11
-19.487
 21
38.941
  0
LINE
  8
0
 10
-19.487
 20
38.941
 11
-19.5095
 21
37.6436
  0
LINE
  8
0
 10
-19.5095
 20
37.6436
 11
-19.4457
 21
36.3823
  0
LINE
  8
0
 10
-19.4457
 20
36.3823
 11
-19.2889
 21
35.1641
  0
LINE
  8
0
 10
-19.2889
 20
35.1641
 11
-20.0735
 21
34.7216
  0
LINE
  8
0
 10
-20.0735
 20
34.7216
 11
-20.8085
 21
34.2867
  0
LINE
  8
0
 10
-20.8085
 20
34.2867
 11
-21.7851
 21
35.0316
  0
LINE
  8
0
 10
-21.7851
 20
35.0316
 11
-22.8456
 21
35.7176
  0
LINE
  8
0
 10
-22.8456
 20
35.7176
 11
-23.9804
 21
36.3468
  0
LINE
  8
0
 10
-23.9804
 20
36.3468
 11
-25.1832
 21
36.9197
  0
LINE
  8
0
 10
-25.1832
 20
36.9197
 11
-26.4487
 21
37.4361
  0
LINE
  8
0
 10
-26.4487
 20
37.4361
 11
-27.4307
 21
36.7226
  0
LINE
  8
0
 10
-27.4307
 20
36.7226
 11
-27.3307
 21
35.3594
  0
LINE
  8
0
 10
-27.3307
 20
35.3594
 11
-27.1575
 21
34.0385
  0
LINE
  8
0
 10
-27.1575
 20
34.0385
 11
-26.9097
 21
32.7648
  0
LINE
  8
0
 10
-26.9097
 20
32.7648
 11
-26.5851
 21
31.5443
  0
LINE
  8
0
 10
-26.5851
 20
31.5443
 11
-26.1784
 21
30.3853
  0
LINE
  8
0
 10
-26.1784
 20
30.3853
 11
-26.8539
 21
29.7894
  0
LINE
  8
0
 10
-26.8539
 20
29.7894
 11
-27.4824
 21
29.2111
  0
LINE
  8
0
 10
-27.4824
 20
29.2111
 11
-28.5925
 21
29.7367
  0
LINE
  8
0
 10
-28.5925
 20
29.7367
 11
-29.7724
 21
30.1872
  0
LINE
  8
0
 10
-29.7724
 20
30.1872
 11
-31.0133
 21
30.5667
  0
LINE
  8
0
 10
-31.0133
 20
30.5667
 11
-32.3089
 21
30.8771
  0
LINE
  8
0
 10
-32.3089
 20
30.8771
 11
-33.6542
 21
31.119
  0
LINE
  8
0
 10
-33.6542
 20
31.119
 11
-34.4663
 21
30.217
  0
LINE
  8
0
 10
-34.4663
 20
30.217
 11
-34.0851
 21
28.9044
  0
LINE
  8
0
 10
-34.0851
 20
28.9044
 11
-33.641
 21
27.6483
  0
LINE
  8
0
 10
-33.641
 20
27.6483
 11
-33.1339
 21
26.4539
  0
LINE
  8
0
 10
-33.1339
 20
26.4539
 11
-32.5625
 21
25.3276
  0
LINE
  8
0
 10
-32.5625
 20
25.3276
 11
-31.9238
 21
24.2785
  0
LINE
  8
0
 10
-31.9238
 20
24.2785
 11
-32.4606
 21
23.5551
  0
LINE
  8
0
 10
-32.4606
 20
23.5551
 11
-32.9552
 21
22.8589
  0
LINE
  8
0
 10
-32.9552
 20
22.8589
 11
-34.1503
 21
23.1422
  0
LINE
  8
0
 10
-34.1503
 20
23.1422
 11
-35.3981
 21
23.3375
  0
LINE
  8
0
 10
-35.3981
 20
23.3375
 11
-36.6908
 21
23.4507
  0
LINE
  8
0
 10
-36.6908
 20
23.4507
 11
-38.0226
 21
23.485
  0
LINE
  8
0
 10
-38.0226
 20
23.485
 11
-39.3887
 21
23.4419
  0
LINE
  8
0
 10
-39.3887
 20
23.4419
 11
-39.9956
 21
22.3907
  0
LINE
  8
0
 10
-39.9956
 20
22.3907
 11
-39.3499
 21
21.186
  0
LINE
  8
0
 10
-39.3499
 20
21.186
 11
-38.6543
 21
20.0498
  0
LINE
  8
0
 10
-38.6543
 20
20.0498
 11
-37.9099
 21
18.9869
  0
LINE
  8
0
 10
-37.9099
 20
18.9869
 11
-37.1169
 21
18.004
  0
LINE
  8
0
 10
-37.1169
 20
18.004
 11
-36.274
 21
17.1106
  0
LINE
  8
0
 10
-36.274
 20
17.1106
 11
-36.6486
 21
16.2915
  0
LINE
  8
0
 10
-36.6486
 20
16.2915
 11
-36.9877
 21
15.5076
  0
LINE
  8
0
 10
-36.9877
 20
15.5076
 11
-38.2156
 21
15.5362
  0
LINE
  8
0
 10
-38.2156
 20
15.5362
 11
-39.4767
 21
15.4678
  0
LINE
  8
0
 10
-39.4767
 20
15.4678
 11
-40.7646
 21
15.3098
  0
LINE
  8
0
 10
-40.7646
 20
15.3098
 11
-42.0745
 21
15.0664
  0
LINE
  8
0
 10
-42.0745
 20
15.0664
 11
-43.4019
 21
14.7402
  0
LINE
  8
0
 10
-43.4019
 20
14.7402
 11
-43.7769
 21
13.5859
  0
LINE
  8
0
 10
-43.7769
 20
13.5859
 11
-42.8948
 21
12.5418
  0
LINE
  8
0
 10
-42.8948
 20
12.5418
 11
-41.9782
 21
11.5749
  0
LINE
  8
0
 10
-41.9782
 20
11.5749
 11
-41.0291
 21
10.6901
  0
LINE
  8
0
 10
-41.0291
 20
10.6901
 11
-40.049
 21
9.89352
  0
LINE
  8
0
 10
-40.049
 20
9.89352
 11
-39.0388
 21
9.19492
  0
LINE
  8
0
 10
-39.0388
 20
9.19492
 11
-39.235
 21
8.3158
  0
LINE
  8
0
 10
-39.235
 20
8.3158
 11
-39.4036
 21
7.47852
  0
LINE
  8
0
 10
-39.4036
 20
7.47852
 11
-40.6107
 21
7.25121
  0
LINE
  8
0
 10
-40.6107
 20
7.25121
 11
-41.83
 21
6.92215
  0
LINE
  8
0
 10
-41.83
 20
6.92215
 11
-43.0569
 21
6.49982
  0
LINE
  8
0
 10
-43.0569
 20
6.49982
 11
-44.2875
 21
5.9894
  0
LINE
  8
0
 10
-44.2875
 20
5.9894
 11
-45.5181
 21
5.39435
  0
LINE
  8
0
 10
-45.5181
 20
5.39435
 11
-45.6449
 21
4.18726
  0
LINE
  8
0
 10
-45.6449
 20
4.18726
 11
-44.565
 21
3.34937
  0
LINE
  8
0
 10
-44.565
 20
3.34937
 11
-43.4674
 21
2.59424
  0
LINE
  8
0
 10
-43.4674
 20
2.59424
 11
-42.3551
 21
1.92604
  0
LINE
  8
0
 10
-42.3551
 20
1.92604
 11
-41.2308
 21
1.35066
  0
LINE
  8
0
 10
-41.2308
 20
1.35066
 11
-40.0974
 21
0.877365
  0
LINE
  8
0
 10
-40.0974
 20
0.877365
 11
-40.1065
 21
-0.0233307
  0
LINE
  8
0
 10
-40.1065
 20
-0.0233307
 11
-40.0974
 21
-0.877365
  0
LINE
  8
0
 10
-40.0974
 20
-0.877365
 11
-41.2308
 21
-1.35066
  0
LINE
  8
0
 10
-41.2308
 20
-1.35066
 11
-42.3551
 21
-1.92604
  0
LINE
  8
0
 10
-42.3551
 20
-1.92604
 11
-43.4674
 21
-2.59424
  0
LINE
  8
0
 10
-43.4674
 20
-2.59424
 11
-44.565
 21
-3.34937
  0
LINE
  8
0
 10
-44.565
 20
-3.34937
 11
-45.6449
 21
-4.18726
  0
LINE
  8
0
 10
-45.6449
 20
-4.18726
 11
-45.5181
 21
-5.39435
  0
LINE
  8
0
 10
-45.5181
 20
-5.39435
 11
-44.2875
 21
-5.9894
  0
LINE
  8
0
 10
-44.2875
 20
-5.9894
 11
-43.0569
 21
-6.49982
  0
LINE
  8
0
 10
-43.0569
 20
-6.49982
 11
-41.83
 21
-6.92215
  0
LINE
  8
0
 10
-41.83
 20
-6.92215
 11
-40.6107
 21
-7.25121
  0
LINE
  8
0
 10
-40.6107
 20
-7.25121
 11
-39.4036
 21
-7.47852
  0
LINE
  8
0
 10
-39.4036
 20
-7.47852
 11
-39.2253
 21
-8.36143
  0
LINE
  8
0
 10
-39.2253
 20
-8.36143
 11
-39.0388
 21
-9.19492
  0
LINE
  8
0
 10
-39.0388
 20
-9.19492
 11
-40.049
 21
-9.89352
  0
LINE
  8
0
 10
-40.049
 20
-9.89352
 11
-41.0291
 21
-10.6901
  0
LINE
  8
0
 10
-41.0291
 20
-10.6901
 11
-41.9782
 21
-11.5749
  0
LINE
  8
0
 10
-41.9782
 20
-11.5749
 11
-42.8948
 21
-12.5418
  0
LINE
  8
0
 10
-42.8948
 20
-12.5418
 11
-43.7769
 21
-13.5859
  0
LINE
  8
0
 10
-43.7769
 20
-13.5859
 11
-43.4019
 21
-14.7402
  0
LINE
  8
0
 10
-43.4019
 20
-14.7402
 11
-42.0745
 21
-15.0664
  0
LINE
  8
0
 10
-42.0745
 20
-15.0664
 11
-40.7646
 21
-15.3098
  0
LINE
  8
0
 10
-40.7646
 20
-15.3098
 11
-39.4767
 21
-15.4678
  0
LINE
  8
0
 10
-39.4767
 20
-15.4678
 11
-38.2156
 21
-15.5362
  0
LINE
  8
0
 10
-38.2156
 20
-15.5362
 11
-36.9877
 21
-15.5076
  0
LINE
  8
0
 10
-36.9877
 20
-15.5076
 11
-36.6297
 21
-16.3341
  0
LINE
  8
0
 10
-36.6297
 20
-16.3341
 11
-36.274
 21
-17.1106
  0
LINE
  8
0
 10
-36.274
 20
-17.1106
 11
-37.1169
 21
-18.004
  0
LINE
  8
0
 10
-37.1169
 20
-18.004
 11
-37.9099
 21
-18.9869
  0
LINE
  8
0
 10
-37.9099
 20
-18.9869
 11
-38.6543
 21
-20.0498
  0
LINE
  8
0
 10
-38.6543
 20
-20.0498
 11
-39.3499
 21
-21.186
  0
LINE
  8
0
 10
-39.3499
 20
-21.186
 11
-39.9956
 21
-22.3907
  0
LINE
  8
0
 10
-39.9956
 20
-22.3907
 11
-39.3887
 21
-23.4419
  0
LINE
  8
0
 10
-39.3887
 20
-23.4419
 11
-38.0226
 21
-23.485
  0
LINE
  8
0
 10
-38.0226
 20
-23.485
 11
-36.6908
 21
-23.4507
  0
LINE
  8
0
 10
-36.6908
 20
-23.4507
 11
-35.3981
 21
-23.3375
  0
LINE
  8
0
 10
-35.3981
 20
-23.3375
 11
-34.1503
 21
-23.1422
  0
LINE
  8
0
 10
-34.1503
 20
-23.1422
 11
-32.9552
 21
-22.8589
  0
LINE
  8
0
 10
-32.9552
 20
-22.8589
 11
-32.4332
 21
-23.5929
  0
LINE
  8
0
 10
-32.4332
 20
-23.5929
 11
-31.9238
 21
-24.2785
  0
LINE
  8
0
 10
-31.9238
 20
-24.2785
 11
-32.5625
 21
-25.3276
  0
LINE
  8
0
 10
-32.5625
 20
-25.3276
 11
-33.1339
 21
-26.4539
  0
LINE
  8
0
 10
-33.1339
 20
-26.4539
 11
-33.641
 21
-27.6483
  0
LINE
  8
0
 10
-33.641
 20
-27.6483
 11
-34.0851
 21
-28.9044
  0
LINE
  8
0
 10
-34.0851
 20
-28.9044
 11
-34.4663
 21
-30.217
  0
LINE
  8
0
 10
-34.4663
 20
-30.217
 11
-33.6542
 21
-31.119
  0
LINE
  8
0
 10
-33.6542
 20
-31.119
 11
-32.3089
 21
-30.8771
  0
LINE
  8
0
 10
-32.3089
 20
-30.8771
 11
-31.0133
 21
-30.5667
  0
LINE
  8
0
 10
-31.0133
 20
-30.5667
 11
-29.7724
 21
-30.1872
  0
LINE
  8
0
 10
-29.7724
 20
-30.1872
 11
-28.5925
 21
-29.7367
  0
LINE
  8
0
 10
-28.5925
 20
-29.7367
 11
-27.4824
 21
-29.2111
  0
LINE
  8
0
 10
-27.4824
 20
-29.2111
 11
-26.8192
 21
-29.8206
  0
LINE
  8
0
 10
-26.8192
 20
-29.8206
 11
-26.1784
 21
-30.3853
  0
LINE
  8
0
 10
-26.1784
 20
-30.3853
 11
-26.5851
 21
-31.5443
  0
LINE
  8
0
 10
-26.5851
 20
-31.5443
 11
-26.9097
 21
-32.7648
  0
LINE
  8
0
 10
-26.9097
 20
-32.7648
 11
-27.1575
 21
-34.0385
  0
LINE
  8
0
 10
-27.1575
 20
-34.0385
 11
-27.3307
 21
-35.3594
  0
LINE
  8
0
 10
-27.3307
 20
-35.3594
 11
-27.4307
 21
-36.7226
  0
LINE
  8
0
 10
-27.4307
 20
-36.7226
 11
-26.4487
 21
-37.4361
  0
LINE
  8
0
 10
-26.4487
 20
-37.4361
 11
-25.1832
 21
-36.9197
  0
LINE
  8
0
 10
-25.1832
 20
-36.9197
 11
-23.9804
 21
-36.3468
  0
LINE
  8
0
 10
-23.9804
 20
-36.3468
 11
-22.8456
 21
-35.7176
  0
LINE
  8
0
 10
-22.8456
 20
-35.7176
 11
-21.7851
 21
-35.0316
  0
LINE
  8
0
 10
-21.7851
 20
-35.0316
 11
-20.8085
 21
-34.2867
  0
LINE
  8
0
 10
-20.8085
 20
-34.2867
 11
-20.0331
 21
-34.7449
  0
LINE
  8
0
 10
-20.0331
 20
-34.7449
 11
-19.2889
 21
-35.1641
  0
LINE
  8
0
 10
-19.2889
 20
-35.1641
 11
-19.4457
 21
-36.3823
  0
LINE
  8
0
 10
-19.4457
 20
-36.3823
 11
-19.5095
 21
-37.6436
  0
LINE
  8
0
 10
-19.5095
 20
-37.6436
 11
-19.487
 21
-38.941
  0
LINE
  8
0
 10
-19.487
 20
-38.941
 11
-19.3819
 21
-40.2691
  0
LINE
  8
0
 10
-19.3819
 20
-40.2691
 11
-19.1962
 21
-41.6233
  0
LINE
  8
0
 10
-19.1962
 20
-41.6233
 11
-18.0874
 21
-42.117
  0
LINE
  8
0
 10
-18.0874
 20
-42.117
 11
-16.9568
 21
-41.3488
  0
LINE
  8
0
 10
-16.9568
 20
-41.3488
 11
-15.8994
 21
-40.5383
  0
LINE
  8
0
 10
-15.8994
 20
-40.5383
 11
-14.9202
 21
-39.6869
  0
LINE
  8
0
 10
-14.9202
 20
-39.6869
 11
-14.0256
 21
-38.7955
  0
LINE
  8
0
 10
-14.0256
 20
-38.7955
 11
-13.2252
 21
-37.8638
  0
LINE
  8
0
 10
-13.2252
 20
-37.8638
 11
-12.3714
 21
-38.1508
  0
LINE
  8
0
 10
-12.3714
 20
-38.1508
 11
-11.5564
 21
-38.4061
  0
LINE
  8
0
 10
-11.5564
 20
-38.4061
 11
-11.4565
 21
-39.6302
  0
LINE
  8
0
 10
-11.4565
 20
-39.6302
 11
-11.2567
 21
-40.8773
  0
LINE
  8
0
 10
-11.2567
 20
-40.8773
 11
-10.9649
 21
-42.1416
  0
LINE
  8
0
 10
-10.9649
 20
-42.1416
 11
-10.5859
 21
-43.4189
  0
LINE
  8
0
 10
-10.5859
 20
-43.4189
 11
-10.1227
 21
-44.7049
  0
LINE
  8
0
 10
-10.1227
 20
-44.7049
 11
-8.93552
 21
-44.9572
  0
LINE
  8
0
 10
-8.93552
 20
-44.9572
 11
-7.98933
 21
-43.9708
  0
LINE
  8
0
 10
-7.98933
 20
-43.9708
 11
-7.12361
 21
-42.9581
  0
LINE
  8
0
 10
-7.12361
 20
-42.9581
 11
-6.3428
 21
-41.9217
  0
LINE
  8
0
 10
-6.3428
 20
-41.9217
 11
-5.65306
 21
-40.8638
  0
LINE
  8
0
 10
-5.65306
 20
-40.8638
 11
-5.06389
 21
-39.7861
  0
LINE
  8
0
 10
-5.06389
 20
-39.7861
 11
-4.16907
 21
-39.8893
  0
LINE
  8
0
 10
-4.16907
 20
-39.8893
 11
-3.31876
 21
-39.9695
  0
LINE
  8
0
 10
-3.31876
 20
-39.9695
 11
-2.96652
 21
-41.1461
  0
LINE
  8
0
 10
-2.96652
 20
-41.1461
 11
-2.51181
 21
-42.3244
  0
LINE
  8
0
 10
-2.51181
 20
-42.3244
 11
-1.96355
 21
-43.5005
  0
LINE
  8
0
 10
-1.96355
 20
-43.5005
 11
-1.32729
 21
-44.671
  0
LINE
  8
0
 10
-1.32729
 20
-44.671
 11
-0.606873
 21
-45.8326
  0
LINE
  8
0
 10
-0.606873
 20
-45.8326
 11
0.606857
 21
-45.8326
  0
LINE
  8
0
 10
0.606857
 20
-45.8326
 11
1.32727
 21
-44.671
  0
LINE
  8
0
 10
-1.54507
 20
-4.75528
 11
-2.93892
 21
-4.04507
  0
LINE
  8
0
 10
-2.93892
 20
-4.04507
 11
-4.04507
 21
-2.93892
  0
LINE
  8
0
 10
-4.04507
 20
-2.93892
 11
-4.75528
 21
-1.54507
  0
LINE
  8
0
 10
-4.75528
 20
-1.54507
 11
-5
 21
0
  0
LINE
  8
0
 10
-5
 20
0
 11
-4.75528
 21
1.54507
  0
LINE
  8
0
 10
-4.75528
 20
1.54507
 11
-4.04507
 21
2.93892
  0
LINE
  8
0
 10
-4.04507
 20
2.93892
 11
-2.93892
 21
4.04507
  0
LINE
  8
0
 10
-2.93892
 20
4.04507
 11
-1.54507
 21
4.75528
  0
LINE
  8
0
 10
-1.54507
 20
4.75528
 11
0
 21
5
  0
LINE
  8
0
 10
0
 20
5
 11
1.54507
 21
4.75528
  0
LINE
  8
0
 10
1.54507
 20
4.75528
 11
2.93892
 21
4.04507
  0
LINE
  8
0
 10
2.93892
 20
4.04507
 11
4.04507
 21
2.93892
  0
LINE
  8
0
 10
4.04507
 20
2.93892
 11
4.75528
 21
1.54507
  0
LINE
  8
0
 10
4.75528
 20
1.54507
 11
5
 21
0
  0
LINE
  8
0
 10
5
 20
0
 11
4.75528
 21
-1.54507
  0
LINE
  8
0
 10
4.75528
 20
-1.54507
 11
4.04507
 21
-2.93892
  0
LINE
  8
0
 10
4.04507
 20
-2.93892
 11
2.93892
 21
-4.04507
  0
LINE
  8
0
 10
2.93892
 20
-4.04507
 11
1.54507
 21
-4.75528
  0
LINE
  8
0
 10
1.54507
 20
-4.75528
 11
0
 21
-5
  0
LINE
  8
0
 10
0
 20
-5
 11
-1.54507
 21
-4.75528
  0
ENDSEC
  0
SECTION
  2
OBJECTS
  0
DICTIONARY
  0
ENDSEC
  0
EOF
