  0
SECTION
  2
BLOCKS
  0
ENDSEC
  0
SECTION
  2
ENTITIES
  0
LINE
  8
0
 10
90.45
 20
-12.8915
 11
87.4794
 21
-12.8915
  0
LINE
  8
0
 10
87.4794
 20
-12.8915
 11
84.4205
 21
-7.16197
  0
LINE
  8
0
 10
84.4205
 20
-7.16197
 11
82.9795
 21
-7.16197
  0
LINE
  8
0
 10
82.9795
 20
-7.16197
 11
79.9205
 21
-12.8915
  0
LINE
  8
0
 10
79.9205
 20
-12.8915
 11
78.4794
 21
-12.8915
  0
LINE
  8
0
 10
78.4794
 20
-12.8915
 11
75.4205
 21
-7.16197
  0
LINE
  8
0
 10
75.4205
 20
-7.16197
 11
73.9795
 21
-7.16197
  0
LINE
  8
0
 10
73.9795
 20
-7.16197
 11
70.9205
 21
-12.8915
  0
LINE
  8
0
 10
70.9205
 20
-12.8915
 11
69.4794
 21
-12.8915
  0
LINE
  8
0
 10
69.4794
 20
-12.8915
 11
66.4205
 21
-7.16197
  0
LINE
  8
0
 10
66.4205
 20
-7.16197
 11
64.9795
 21
-7.16197
  0
LINE
  8
0
 10
64.9795
 20
-7.16197
 11
61.9205
 21
-12.8915
  0
LINE
  8
0
 10
61.9205
 20
-12.8915
 11
60.4794
 21
-12.8915
  0
LINE
  8
0
 10
60.4794
 20
-12.8915
 11
57.4205
 21
-7.16197
  0
LINE
  8
0
 10
57.4205
 20
-7.16197
 11
55.9795
 21
-7.16197
  0
LINE
  8
0
 10
55.9795
 20
-7.16197
 11
52.9205
 21
-12.8915
  0
LINE
  8
0
 10
52.9205
 20
-12.8915
 11
51.4794
 21
-12.8915
  0
LINE
  8
0
 10
51.4794
 20
-12.8915
 11
48.4205
 21
-7.16197
  0
LINE
  8
0
 10
48.4205
 20
-7.16197
 11
46.9795
 21
-7.16197
  0
LINE
  8
0
 10
46.9795
 20
-7.16197
 11
43.9205
 21
-12.8915
  0
LINE
  8
0
 10
43.9205
 20
-12.8915
 11
42.4794
 21
-12.8915
  0
LINE
  8
0
 10
42.4794
 20
-12.8915
 11
39.4205
 21
-7.16197
  0
LINE
  8
0
 10
39.4205
 20
-7.16197
 11
37.9795
 21
-7.16197
  0
LINE
  8
0
 10
37.9795
 20
-7.16197
 11
34.9205
 21
-12.8915
  0
LINE
  8
0
 10
34.9205
 20
-12.8915
 11
33.4794
 21
-12.8915
  0
LINE
  8
0
 10
33.4794
 20
-12.8915
 11
30.4205
 21
-7.16197
  0
LINE
  8
0
 10
30.4205
 20
-7.16197
 11
28.9795
 21
-7.16197
  0
LINE
  8
0
 10
28.9795
 20
-7.16197
 11
25.9205
 21
-12.8915
  0
LINE
  8
0
 10
25.9205
 20
-12.8915
 11
24.4794
 21
-12.8915
  0
LINE
  8
0
 10
24.4794
 20
-12.8915
 11
21.4205
 21
-7.16197
  0
LINE
  8
0
 10
21.4205
 20
-7.16197
 11
19.9795
 21
-7.16197
  0
LINE
  8
0
 10
19.9795
 20
-7.16197
 11
16.9205
 21
-12.8915
  0
LINE
  8
0
 10
16.9205
 20
-12.8915
 11
15.4794
 21
-12.8915
  0
LINE
  8
0
 10
15.4794
 20
-12.8915
 11
12.4205
 21
-7.16197
  0
LINE
  8
0
 10
12.4205
 20
-7.16197
 11
10.9795
 21
-7.16197
  0
LINE
  8
0
 10
10.9795
 20
-7.16197
 11
7.92055
 21
-12.8915
  0
LINE
  8
0
 10
7.92055
 20
-12.8915
 11
6.47945
 21
-12.8915
  0
LINE
  8
0
 10
6.47945
 20
-12.8915
 11
3.42053
 21
-7.16197
  0
LINE
  8
0
 10
3.42053
 20
-7.16197
 11
1.97946
 21
-7.16197
  0
LINE
  8
0
 10
1.97946
 20
-7.16197
 11
-1.07944
 21
-12.8915
  0
LINE
  8
0
 10
-1.07944
 20
-12.8915
 11
-2.52054
 21
-12.8915
  0
LINE
  8
0
 10
-2.52054
 20
-12.8915
 11
-3.15645
 21
-11.7004
  0
LINE
  8
0
 10
-3.15645
 20
-11.7004
 11
-2.58955
 21
-12.6288
  0
LINE
  8
0
 10
-2.58955
 20
-12.6288
 11
-2.013
 21
-12.7334
  0
LINE
  8
0
 10
-2.013
 20
-12.7334
 11
-1.11607
 21
-12.0322
  0
LINE
  8
0
 10
-1.11607
 20
-12.0322
 11
-0.372635
 21
-11.27
  0
LINE
  8
0
 10
-0.372635
 20
-11.27
 11
0.207108
 21
-10.4664
  0
LINE
  8
0
 10
0.207108
 20
-10.4664
 11
0.607452
 21
-9.64166
  0
LINE
  8
0
 10
0.607452
 20
-9.64166
 11
0.777145
 21
-8.81891
  0
LINE
  8
0
 10
0.777145
 20
-8.81891
 11
0.628693
 21
-7.13431
  0
LINE
  8
0
 10
0.628693
 20
-7.13431
 11
1.88712
 21
-6.90553
  0
LINE
  8
0
 10
1.88712
 20
-6.90553
 11
1.88812
 21
-6.90858
  0
LINE
  8
0
 10
1.88812
 20
-6.90858
 11
1.90491
 21
-6.9023
  0
LINE
  8
0
 10
1.90491
 20
-6.9023
 11
1.92255
 21
-6.89909
  0
LINE
  8
0
 10
1.92255
 20
-6.89909
 11
1.92184
 21
-6.89595
  0
LINE
  8
0
 10
1.92184
 20
-6.89595
 11
3.11948
 21
-6.4469
  0
LINE
  8
0
 10
3.11948
 20
-6.4469
 11
3.85606
 21
-7.96918
  0
LINE
  8
0
 10
3.85606
 20
-7.96918
 11
4.42372
 21
-8.58844
  0
LINE
  8
0
 10
4.42372
 20
-8.58844
 11
5.19043
 21
-9.09111
  0
LINE
  8
0
 10
5.19043
 20
-9.09111
 11
6.10027
 21
-9.48358
  0
LINE
  8
0
 10
6.10027
 20
-9.48358
 11
7.12939
 21
-9.75658
  0
LINE
  8
0
 10
7.12939
 20
-9.75658
 11
8.259
 21
-9.8985
  0
LINE
  8
0
 10
8.259
 20
-9.8985
 11
8.70029
 21
-9.51297
  0
LINE
  8
0
 10
8.70029
 20
-9.51297
 11
8.71129
 21
-8.37453
  0
LINE
  8
0
 10
8.71129
 20
-8.37453
 11
8.57889
 21
-7.31807
  0
LINE
  8
0
 10
8.57889
 20
-7.31807
 11
8.3121
 21
-6.36378
  0
LINE
  8
0
 10
8.3121
 20
-6.36378
 11
7.9169
 21
-5.53653
  0
LINE
  8
0
 10
7.9169
 20
-5.53653
 11
7.37944
 21
-4.89088
  0
LINE
  8
0
 10
7.37944
 20
-4.89088
 11
5.96982
 21
-3.95663
  0
LINE
  8
0
 10
5.96982
 20
-3.95663
 11
6.57556
 21
-2.83012
  0
LINE
  8
0
 10
6.57556
 20
-2.83012
 11
6.57858
 21
-2.83124
  0
LINE
  8
0
 10
6.57858
 20
-2.83124
 11
6.58412
 21
-2.81419
  0
LINE
  8
0
 10
6.58412
 20
-2.81419
 11
6.59262
 21
-2.7984
  0
LINE
  8
0
 10
6.59262
 20
-2.7984
 11
6.58972
 21
-2.79698
  0
LINE
  8
0
 10
6.58972
 20
-2.79698
 11
6.98535
 21
-1.58066
  0
LINE
  8
0
 10
6.98535
 20
-1.58066
 11
8.63477
 21
-1.9539
  0
LINE
  8
0
 10
8.63477
 20
-1.9539
 11
9.47285
 21
-1.89619
  0
LINE
  8
0
 10
9.47285
 20
-1.89619
 11
10.3439
 21
-1.61017
  0
LINE
  8
0
 10
10.3439
 20
-1.61017
 11
11.218
 21
-1.14352
  0
LINE
  8
0
 10
11.218
 20
-1.14352
 11
12.0731
 21
-0.50914
  0
LINE
  8
0
 10
12.0731
 20
-0.50914
 11
12.8884
 21
0.285538
  0
LINE
  8
0
 10
12.8884
 20
0.285538
 11
12.8621
 21
0.870911
  0
LINE
  8
0
 10
12.8621
 20
0.870911
 11
11.9789
 21
1.58931
  0
LINE
  8
0
 10
11.9789
 20
1.58931
 11
11.0704
 21
2.1445
  0
LINE
  8
0
 10
11.0704
 20
2.1445
 11
10.1579
 21
2.5309
  0
LINE
  8
0
 10
10.1579
 20
2.5309
 11
9.26474
 21
2.7377
  0
LINE
  8
0
 10
9.26474
 20
2.7377
 11
8.42487
 21
2.72005
  0
LINE
  8
0
 10
8.42487
 20
2.72005
 11
6.81554
 21
2.20045
  0
LINE
  8
0
 10
6.81554
 20
2.20045
 11
6.31247
 21
3.37642
  0
LINE
  8
0
 10
6.31247
 20
3.37642
 11
6.31523
 21
3.3781
  0
LINE
  8
0
 10
6.31523
 20
3.3781
 11
6.30536
 21
3.39305
  0
LINE
  8
0
 10
6.30536
 20
3.39305
 11
6.29831
 21
3.40953
  0
LINE
  8
0
 10
6.29831
 20
3.40953
 11
6.29539
 21
3.40816
  0
LINE
  8
0
 10
6.29539
 20
3.40816
 11
5.59111
 21
4.47583
  0
LINE
  8
0
 10
5.59111
 20
4.47583
 11
6.91132
 21
5.53268
  0
LINE
  8
0
 10
6.91132
 20
5.53268
 11
7.38873
 21
6.22391
  0
LINE
  8
0
 10
7.38873
 20
6.22391
 11
7.70819
 21
7.08325
  0
LINE
  8
0
 10
7.70819
 20
7.08325
 11
7.88837
 21
8.05762
  0
LINE
  8
0
 10
7.88837
 20
8.05762
 11
7.92552
 21
9.12169
  0
LINE
  8
0
 10
7.92552
 20
9.12169
 11
7.81253
 21
10.2546
  0
LINE
  8
0
 10
7.81253
 20
10.2546
 11
7.33847
 21
10.599
  0
LINE
  8
0
 10
7.33847
 20
10.599
 11
6.22612
 21
10.3564
  0
LINE
  8
0
 10
6.22612
 20
10.3564
 11
5.2256
 21
9.99222
  0
LINE
  8
0
 10
5.2256
 20
9.99222
 11
4.35461
 21
9.51978
  0
LINE
  8
0
 10
4.35461
 20
9.51978
 11
3.63605
 21
8.95039
  0
LINE
  8
0
 10
3.63605
 20
8.95039
 11
3.12619
 21
8.28275
  0
LINE
  8
0
 10
3.12619
 20
8.28275
 11
2.52902
 21
6.70058
  0
LINE
  8
0
 10
2.52902
 20
6.70058
 11
1.29596
 21
7.04047
  0
LINE
  8
0
 10
1.29596
 20
7.04047
 11
1.29637
 21
7.04366
  0
LINE
  8
0
 10
1.29637
 20
7.04366
 11
1.27852
 21
7.04527
  0
LINE
  8
0
 10
1.27852
 20
7.04527
 11
1.26125
 21
7.05003
  0
LINE
  8
0
 10
1.26125
 20
7.05003
 11
1.2605
 21
7.04689
  0
LINE
  8
0
 10
1.2605
 20
7.04689
 11
-0.0133514
 21
7.16194
  0
LINE
  8
0
 10
-0.0133514
 20
7.16194
 11
-0.0164948
 21
8.85306
  0
LINE
  8
0
 10
-0.0164948
 20
8.85306
 11
-0.259247
 21
9.65729
  0
LINE
  8
0
 10
-0.259247
 20
9.65729
 11
-0.731918
 21
10.4429
  0
LINE
  8
0
 10
-0.731918
 20
10.4429
 11
-1.38138
 21
11.1912
  0
LINE
  8
0
 10
-1.38138
 20
11.1912
 11
-2.19012
 21
11.8837
  0
LINE
  8
0
 10
-2.19012
 20
11.8837
 11
-3.1463
 21
12.5017
  0
LINE
  8
0
 10
-3.1463
 20
12.5017
 11
-3.71115
 21
12.3458
  0
LINE
  8
0
 10
-3.71115
 20
12.3458
 11
-4.21501
 21
11.3249
  0
LINE
  8
0
 10
-4.21501
 20
11.3249
 11
-4.55412
 21
10.3156
  0
LINE
  8
0
 10
-4.55412
 20
10.3156
 11
-4.7278
 21
9.34006
  0
LINE
  8
0
 10
-4.7278
 20
9.34006
 11
-4.73067
 21
8.42326
  0
LINE
  8
0
 10
-4.73067
 20
8.42326
 11
-4.52657
 21
7.60837
  0
LINE
  8
0
 10
-4.52657
 20
7.60837
 11
-3.6619
 21
6.15501
  0
LINE
  8
0
 10
-3.6619
 20
6.15501
 11
-4.69643
 21
5.40288
  0
LINE
  8
0
 10
-4.69643
 20
5.40288
 11
-4.69867
 21
5.4052
  0
LINE
  8
0
 10
-4.69867
 20
5.4052
 11
-4.71106
 21
5.39224
  0
LINE
  8
0
 10
-4.71106
 20
5.39224
 11
-4.72556
 21
5.3817
  0
LINE
  8
0
 10
-4.72556
 20
5.3817
 11
-4.72357
 21
5.37918
  0
LINE
  8
0
 10
-4.72357
 20
5.37918
 11
-5.60776
 21
4.45496
  0
LINE
  8
0
 10
-5.60776
 20
4.45496
 11
-6.93188
 21
5.5069
  0
LINE
  8
0
 10
-6.93188
 20
5.5069
 11
-7.71202
 21
5.81853
  0
LINE
  8
0
 10
-7.71202
 20
5.81853
 11
-8.6209
 21
5.93877
  0
LINE
  8
0
 10
-8.6209
 20
5.93877
 11
-9.61093
 21
5.8976
  0
LINE
  8
0
 10
-9.61093
 20
5.8976
 11
-10.6566
 21
5.69705
  0
LINE
  8
0
 10
-10.6566
 20
5.69705
 11
-11.7359
 21
5.33479
  0
LINE
  8
0
 10
-11.7359
 20
5.33479
 11
-11.9662
 21
4.79597
  0
LINE
  8
0
 10
-11.9662
 20
4.79597
 11
-11.4822
 21
3.7655
  0
LINE
  8
0
 10
-11.4822
 20
3.7655
 11
-10.9045
 21
2.87111
  0
LINE
  8
0
 10
-10.9045
 20
2.87111
 11
-10.2501
 21
2.12708
  0
LINE
  8
0
 10
-10.2501
 20
2.12708
 11
-9.5351
 21
1.55322
  0
LINE
  8
0
 10
-9.5351
 20
1.55322
 11
-8.77072
 21
1.20471
  0
LINE
  8
0
 10
-8.77072
 20
1.20471
 11
-7.09534
 21
0.974594
  0
LINE
  8
0
 10
-7.09534
 20
0.974594
 11
-7.15233
 21
-0.303177
  0
LINE
  8
0
 10
-7.15233
 20
-0.303177
 11
-7.15553
 21
-0.303482
  0
LINE
  8
0
 10
-7.15553
 20
-0.303482
 11
-7.15312
 21
-0.321243
  0
LINE
  8
0
 10
-7.15312
 20
-0.321243
 11
-7.15393
 21
-0.339142
  0
LINE
  8
0
 10
-7.15393
 20
-0.339142
 11
-7.15071
 21
-0.339172
  0
LINE
  8
0
 10
-7.15071
 20
-0.339172
 11
-6.97942
 21
-1.60669
  0
LINE
  8
0
 10
-6.97942
 20
-1.60669
 11
-8.62743
 21
-1.98607
  0
LINE
  8
0
 10
-8.62743
 20
-1.98607
 11
-9.35748
 21
-2.4017
  0
LINE
  8
0
 10
-9.35748
 20
-2.4017
 11
-10.0182
 21
-3.03732
  0
LINE
  8
0
 10
-10.0182
 20
-3.03732
 11
-10.6032
 21
-3.83702
  0
LINE
  8
0
 10
-10.6032
 20
-3.83702
 11
-11.0984
 21
-4.7796
  0
LINE
  8
0
 10
-11.0984
 20
-4.7796
 11
-11.4881
 21
-5.84932
  0
LINE
  8
0
 10
-11.4881
 20
-5.84932
 11
-11.2105
 21
-6.36531
  0
LINE
  8
0
 10
-11.2105
 20
-6.36531
 11
-10.103
 21
-6.62936
  0
LINE
  8
0
 10
-10.103
 20
-6.62936
 11
-9.04358
 21
-6.73537
  0
LINE
  8
0
 10
-9.04358
 20
-6.73537
 11
-8.05385
 21
-6.68762
  0
LINE
  8
0
 10
-8.05385
 20
-6.68762
 11
-7.15939
 21
-6.4864
  0
LINE
  8
0
 10
-7.15939
 20
-6.4864
 11
-6.41035
 21
-6.10609
  0
LINE
  8
0
 10
-6.41035
 20
-6.10609
 11
-5.18584
 21
-4.9397
  0
LINE
  8
0
 10
-5.18584
 20
-4.9397
 11
-4.22237
 21
-5.78093
  0
LINE
  8
0
 10
-4.22237
 20
-5.78093
 11
-4.22412
 21
-5.78363
  0
LINE
  8
0
 10
-4.22412
 20
-5.78363
 11
-4.20874
 21
-5.79283
  0
LINE
  8
0
 10
-4.20874
 20
-5.79283
 11
-4.19524
 21
-5.80463
  0
LINE
  8
0
 10
-4.19524
 20
-5.80463
 11
-4.19321
 21
-5.80212
  0
LINE
  8
0
 10
-4.19321
 20
-5.80212
 11
-3.09541
 21
-6.45848
  0
LINE
  8
0
 10
-3.09541
 20
-6.45848
 11
-3.82632
 21
-7.98349
  0
LINE
  8
0
 10
-3.82632
 20
-7.98349
 11
-3.95656
 21
-8.8134
  0
LINE
  8
0
 10
-3.95656
 20
-8.8134
 11
-3.87154
 21
-9.72626
  0
LINE
  8
0
 10
-3.87154
 20
-9.72626
 11
-3.6111
 21
-10.6823
  0
LINE
  8
0
 10
-3.6111
 20
-10.6823
 11
-3.19833
 21
-11.622
  0
LINE
  8
0
 10
-3.19833
 20
-11.622
 11
-5.57945
 21
-7.16197
  0
LINE
  8
0
 10
-5.57945
 20
-7.16197
 11
-7.02052
 21
-7.16197
  0
LINE
  8
0
 10
-7.02052
 20
-7.16197
 11
-10.0794
 21
-12.8915
  0
LINE
  8
0
 10
-10.0794
 20
-12.8915
 11
-11.5205
 21
-12.8915
  0
LINE
  8
0
 10
-11.5205
 20
-12.8915
 11
-14.5795
 21
-7.16197
  0
LINE
  8
0
 10
-14.5795
 20
-7.16197
 11
-16.0205
 21
-7.16197
  0
LINE
  8
0
 10
-16.0205
 20
-7.16197
 11
-19.0794
 21
-12.8915
  0
LINE
  8
0
 10
-19.0794
 20
-12.8915
 11
-20.5205
 21
-12.8915
  0
LINE
  8
0
 10
-20.5205
 20
-12.8915
 11
-23.5795
 21
-7.16197
  0
LINE
  8
0
 10
-23.5795
 20
-7.16197
 11
-25.0205
 21
-7.16197
  0
LINE
  8
0
 10
-25.0205
 20
-7.16197
 11
-28.0794
 21
-12.8915
  0
LINE
  8
0
 10
-28.0794
 20
-12.8915
 11
-29.5205
 21
-12.8915
  0
LINE
  8
0
 10
-29.5205
 20
-12.8915
 11
-32.5795
 21
-7.16197
  0
LINE
  8
0
 10
-32.5795
 20
-7.16197
 11
-34.0205
 21
-7.16197
  0
LINE
  8
0
 10
-34.0205
 20
-7.16197
 11
-37.0794
 21
-12.8915
  0
LINE
  8
0
 10
-37.0794
 20
-12.8915
 11
-38.5205
 21
-12.8915
  0
LINE
  8
0
 10
-38.5205
 20
-12.8915
 11
-41.5795
 21
-7.16197
  0
LINE
  8
0
 10
-41.5795
 20
-7.16197
 11
-43.0205
 21
-7.16197
  0
LINE
  8
0
 10
-43.0205
 20
-7.16197
 11
-46.0794
 21
-12.8915
  0
LINE
  8
0
 10
-46.0794
 20
-12.8915
 11
-47.5205
 21
-12.8915
  0
LINE
  8
0
 10
-47.5205
 20
-12.8915
 11
-50.5795
 21
-7.16197
  0
LINE
  8
0
 10
-50.5795
 20
-7.16197
 11
-52.0205
 21
-7.16197
  0
LINE
  8
0
 10
-52.0205
 20
-7.16197
 11
-55.0794
 21
-12.8915
  0
LINE
  8
0
 10
-55.0794
 20
-12.8915
 11
-56.5205
 21
-12.8915
  0
LINE
  8
0
 10
-56.5205
 20
-12.8915
 11
-59.5795
 21
-7.16197
  0
LINE
  8
0
 10
-59.5795
 20
-7.16197
 11
-61.0205
 21
-7.16197
  0
LINE
  8
0
 10
-61.0205
 20
-7.16197
 11
-64.0795
 21
-12.8915
  0
LINE
  8
0
 10
-64.0795
 20
-12.8915
 11
-65.5206
 21
-12.8915
  0
LINE
  8
0
 10
-65.5206
 20
-12.8915
 11
-68.5795
 21
-7.16197
  0
LINE
  8
0
 10
-68.5795
 20
-7.16197
 11
-70.0205
 21
-7.16197
  0
LINE
  8
0
 10
-70.0205
 20
-7.16197
 11
-73.0795
 21
-12.8915
  0
LINE
  8
0
 10
-73.0795
 20
-12.8915
 11
-74.5206
 21
-12.8915
  0
LINE
  8
0
 10
-74.5206
 20
-12.8915
 11
-77.5795
 21
-7.16197
  0
LINE
  8
0
 10
-77.5795
 20
-7.16197
 11
-79.0205
 21
-7.16197
  0
LINE
  8
0
 10
-79.0205
 20
-7.16197
 11
-82.0795
 21
-12.8915
  0
LINE
  8
0
 10
-82.0795
 20
-12.8915
 11
-85.05
 21
-12.8915
  0
LINE
  8
0
 10
-85.05
 20
-12.8915
 11
-85.05
 21
-19.162
  0
LINE
  8
0
 10
-85.05
 20
-19.162
 11
90.45
 21
-19.162
  0
LINE
  8
0
 10
90.45
 20
-19.162
 11
90.45
 21
-12.8915
  0
LINE
  8
0
 10
-1.75687
 20
-4.68117
 11
-3.11745
 21
-3.90915
  0
LINE
  8
0
 10
-3.11745
 20
-3.90915
 11
-4.17285
 21
-2.75447
  0
LINE
  8
0
 10
-4.17285
 20
-2.75447
 11
-4.81981
 21
-1.33017
  0
LINE
  8
0
 10
-4.81981
 20
-1.33017
 11
-4.99496
 21
0.224319
  0
LINE
  8
0
 10
-4.99496
 20
0.224319
 11
-4.68117
 21
1.75687
  0
LINE
  8
0
 10
-4.68117
 20
1.75687
 11
-3.90915
 21
3.11745
  0
LINE
  8
0
 10
-3.90915
 20
3.11745
 11
-2.75447
 21
4.17285
  0
LINE
  8
0
 10
-2.75447
 20
4.17285
 11
-1.33017
 21
4.81981
  0
LINE
  8
0
 10
-1.33017
 20
4.81981
 11
0.224319
 21
4.99496
  0
LINE
  8
0
 10
0.224319
 20
4.99496
 11
1.75687
 21
4.68117
  0
LINE
  8
0
 10
1.75687
 20
4.68117
 11
3.11745
 21
3.90915
  0
LINE
  8
0
 10
3.11745
 20
3.90915
 11
4.17285
 21
2.75447
  0
LINE
  8
0
 10
4.17285
 20
2.75447
 11
4.81981
 21
1.33017
  0
LINE
  8
0
 10
4.81981
 20
1.33017
 11
4.99496
 21
-0.224319
  0
LINE
  8
0
 10
4.99496
 20
-0.224319
 11
4.68117
 21
-1.75687
  0
LINE
  8
0
 10
4.68117
 20
-1.75687
 11
3.90915
 21
-3.11745
  0
LINE
  8
0
 10
3.90915
 20
-3.11745
 11
2.75447
 21
-4.17285
  0
LINE
  8
0
 10
2.75447
 20
-4.17285
 11
1.33017
 21
-4.81981
  0
LINE
  8
0
 10
1.33017
 20
-4.81981
 11
-0.224319
 21
-4.99496
  0
LINE
  8
0
 10
-0.224319
 20
-4.99496
 11
-1.75687
 21
-4.68117
  0
ENDSEC
  0
SECTION
  2
OBJECTS
  0
DICTIONARY
  0
ENDSEC
  0
EOF
