  0
SECTION
  2
BLOCKS
  0
ENDSEC
  0
SECTION
  2
ENTITIES
  0
LINE
  8
0
 10
106.449
 20
-66.1694
 11
107.117
 21
-65.03
  0
LINE
  8
0
 10
107.117
 20
-65.03
 11
107.727
 21
-63.8841
  0
LINE
  8
0
 10
107.727
 20
-63.8841
 11
108.274
 21
-62.7332
  0
LINE
  8
0
 10
108.274
 20
-62.7332
 11
108.758
 21
-61.5786
  0
LINE
  8
0
 10
108.758
 20
-61.5786
 11
109.603
 21
-61.5543
  0
LINE
  8
0
 10
109.603
 20
-61.5543
 11
110.4
 21
-61.5213
  0
LINE
  8
0
 10
110.4
 20
-61.5213
 11
110.963
 21
-62.6393
  0
LINE
  8
0
 10
110.963
 20
-62.6393
 11
111.59
 21
-63.7492
  0
LINE
  8
0
 10
111.59
 20
-63.7492
 11
112.277
 21
-64.8498
  0
LINE
  8
0
 10
112.277
 20
-64.8498
 11
113.023
 21
-65.9398
  0
LINE
  8
0
 10
113.023
 20
-65.9398
 11
113.825
 21
-67.018
  0
LINE
  8
0
 10
113.825
 20
-67.018
 11
115.108
 21
-66.8833
  0
LINE
  8
0
 10
115.108
 20
-66.8833
 11
115.668
 21
-65.6618
  0
LINE
  8
0
 10
115.668
 20
-65.6618
 11
116.171
 21
-64.4405
  0
LINE
  8
0
 10
116.171
 20
-64.4405
 11
116.615
 21
-63.221
  0
LINE
  8
0
 10
116.615
 20
-63.221
 11
116.997
 21
-62.0051
  0
LINE
  8
0
 10
116.997
 20
-62.0051
 11
117.315
 21
-60.7945
  0
LINE
  8
0
 10
117.315
 20
-60.7945
 11
118.149
 21
-60.6528
  0
LINE
  8
0
 10
118.149
 20
-60.6528
 11
118.933
 21
-60.5091
  0
LINE
  8
0
 10
118.933
 20
-60.5091
 11
119.646
 21
-61.538
  0
LINE
  8
0
 10
119.646
 20
-61.538
 11
120.421
 21
-62.5498
  0
LINE
  8
0
 10
120.421
 20
-62.5498
 11
121.255
 21
-63.544
  0
LINE
  8
0
 10
121.255
 20
-63.544
 11
122.146
 21
-64.5196
  0
LINE
  8
0
 10
122.146
 20
-64.5196
 11
123.09
 21
-65.4757
  0
LINE
  8
0
 10
123.09
 20
-65.4757
 11
124.341
 21
-65.1638
  0
LINE
  8
0
 10
124.341
 20
-65.1638
 11
124.726
 21
-63.8762
  0
LINE
  8
0
 10
124.726
 20
-63.8762
 11
125.054
 21
-62.5968
  0
LINE
  8
0
 10
125.054
 20
-62.5968
 11
125.324
 21
-61.3274
  0
LINE
  8
0
 10
125.324
 20
-61.3274
 11
125.533
 21
-60.0701
  0
LINE
  8
0
 10
125.533
 20
-60.0701
 11
125.68
 21
-58.8271
  0
LINE
  8
0
 10
125.68
 20
-58.8271
 11
126.485
 21
-58.5707
  0
LINE
  8
0
 10
126.485
 20
-58.5707
 11
127.243
 21
-58.3192
  0
LINE
  8
0
 10
127.243
 20
-58.3192
 11
128.092
 21
-59.2389
  0
LINE
  8
0
 10
128.092
 20
-59.2389
 11
129
 21
-60.133
  0
LINE
  8
0
 10
129
 20
-60.133
 11
129.964
 21
-61.0014
  0
LINE
  8
0
 10
129.964
 20
-61.0014
 11
130.982
 21
-61.8436
  0
LINE
  8
0
 10
130.982
 20
-61.8436
 11
132.05
 21
-62.659
  0
LINE
  8
0
 10
132.05
 20
-62.659
 11
133.246
 21
-62.176
  0
LINE
  8
0
 10
133.246
 20
-62.176
 11
133.448
 21
-60.8474
  0
LINE
  8
0
 10
133.448
 20
-60.8474
 11
133.595
 21
-59.5348
  0
LINE
  8
0
 10
133.595
 20
-59.5348
 11
133.685
 21
-58.2402
  0
LINE
  8
0
 10
133.685
 20
-58.2402
 11
133.717
 21
-56.966
  0
LINE
  8
0
 10
133.717
 20
-56.966
 11
133.689
 21
-55.7147
  0
LINE
  8
0
 10
133.689
 20
-55.7147
 11
134.451
 21
-55.3486
  0
LINE
  8
0
 10
134.451
 20
-55.3486
 11
135.166
 21
-54.9942
  0
LINE
  8
0
 10
135.166
 20
-54.9942
 11
136.135
 21
-55.7868
  0
LINE
  8
0
 10
136.135
 20
-55.7868
 11
137.159
 21
-56.5458
  0
LINE
  8
0
 10
137.159
 20
-56.5458
 11
138.235
 21
-57.2715
  0
LINE
  8
0
 10
138.235
 20
-57.2715
 11
139.36
 21
-57.9639
  0
LINE
  8
0
 10
139.36
 20
-57.9639
 11
140.531
 21
-58.6227
  0
LINE
  8
0
 10
140.531
 20
-58.6227
 11
141.648
 21
-57.978
  0
LINE
  8
0
 10
141.648
 20
-57.978
 11
141.663
 21
-56.6342
  0
LINE
  8
0
 10
141.663
 20
-56.6342
 11
141.626
 21
-55.3139
  0
LINE
  8
0
 10
141.626
 20
-55.3139
 11
141.535
 21
-54.0193
  0
LINE
  8
0
 10
141.535
 20
-54.0193
 11
141.39
 21
-52.753
  0
LINE
  8
0
 10
141.39
 20
-52.753
 11
141.188
 21
-51.5179
  0
LINE
  8
0
 10
141.188
 20
-51.5179
 11
141.892
 21
-51.0493
  0
LINE
  8
0
 10
141.892
 20
-51.0493
 11
142.55
 21
-50.5988
  0
LINE
  8
0
 10
142.55
 20
-50.5988
 11
143.62
 21
-51.2488
  0
LINE
  8
0
 10
143.62
 20
-51.2488
 11
144.739
 21
-51.8579
  0
LINE
  8
0
 10
144.739
 20
-51.8579
 11
145.906
 21
-52.4269
  0
LINE
  8
0
 10
145.906
 20
-52.4269
 11
147.116
 21
-52.956
  0
LINE
  8
0
 10
147.116
 20
-52.956
 11
148.368
 21
-53.4453
  0
LINE
  8
0
 10
148.368
 20
-53.4453
 11
149.384
 21
-52.6515
  0
LINE
  8
0
 10
149.384
 20
-52.6515
 11
149.212
 21
-51.3187
  0
LINE
  8
0
 10
149.212
 20
-51.3187
 11
148.991
 21
-50.0164
  0
LINE
  8
0
 10
148.991
 20
-50.0164
 11
148.721
 21
-48.7471
  0
LINE
  8
0
 10
148.721
 20
-48.7471
 11
148.401
 21
-47.5133
  0
LINE
  8
0
 10
148.401
 20
-47.5133
 11
148.029
 21
-46.3183
  0
LINE
  8
0
 10
148.029
 20
-46.3183
 11
148.661
 21
-45.7563
  0
LINE
  8
0
 10
148.661
 20
-45.7563
 11
149.25
 21
-45.2185
  0
LINE
  8
0
 10
149.25
 20
-45.2185
 11
150.4
 21
-45.7134
  0
LINE
  8
0
 10
150.4
 20
-45.7134
 11
151.594
 21
-46.1607
  0
LINE
  8
0
 10
151.594
 20
-46.1607
 11
152.828
 21
-46.5618
  0
LINE
  8
0
 10
152.828
 20
-46.5618
 11
154.1
 21
-46.9174
  0
LINE
  8
0
 10
154.1
 20
-46.9174
 11
155.407
 21
-47.2278
  0
LINE
  8
0
 10
155.407
 20
-47.2278
 11
156.303
 21
-46.3003
  0
LINE
  8
0
 10
156.303
 20
-46.3003
 11
155.947
 21
-45.0043
  0
LINE
  8
0
 10
155.947
 20
-45.0043
 11
155.547
 21
-43.7455
  0
LINE
  8
0
 10
155.547
 20
-43.7455
 11
155.104
 21
-42.526
  0
LINE
  8
0
 10
155.104
 20
-42.526
 11
154.615
 21
-41.3488
  0
LINE
  8
0
 10
154.615
 20
-41.3488
 11
154.08
 21
-40.2172
  0
LINE
  8
0
 10
154.08
 20
-40.2172
 11
154.628
 21
-39.5727
  0
LINE
  8
0
 10
154.628
 20
-39.5727
 11
155.137
 21
-38.9581
  0
LINE
  8
0
 10
155.137
 20
-38.9581
 11
156.344
 21
-39.2882
  0
LINE
  8
0
 10
156.344
 20
-39.2882
 11
157.588
 21
-39.5651
  0
LINE
  8
0
 10
157.588
 20
-39.5651
 11
158.866
 21
-39.7905
  0
LINE
  8
0
 10
158.866
 20
-39.7905
 11
160.175
 21
-39.9655
  0
LINE
  8
0
 10
160.175
 20
-39.9655
 11
161.513
 21
-40.0909
  0
LINE
  8
0
 10
161.513
 20
-40.0909
 11
162.271
 21
-39.0478
  0
LINE
  8
0
 10
162.271
 20
-39.0478
 11
161.738
 21
-37.814
  0
LINE
  8
0
 10
161.738
 20
-37.814
 11
161.167
 21
-36.623
  0
LINE
  8
0
 10
161.167
 20
-36.623
 11
160.558
 21
-35.4772
  0
LINE
  8
0
 10
160.558
 20
-35.4772
 11
159.91
 21
-34.3795
  0
LINE
  8
0
 10
159.91
 20
-34.3795
 11
159.223
 21
-33.3333
  0
LINE
  8
0
 10
159.223
 20
-33.3333
 11
159.676
 21
-32.6189
  0
LINE
  8
0
 10
159.676
 20
-32.6189
 11
160.094
 21
-31.9394
  0
LINE
  8
0
 10
160.094
 20
-31.9394
 11
161.336
 21
-32.0983
  0
LINE
  8
0
 10
161.336
 20
-32.0983
 11
162.606
 21
-32.1993
  0
LINE
  8
0
 10
162.606
 20
-32.1993
 11
163.903
 21
-32.2447
  0
LINE
  8
0
 10
163.903
 20
-32.2447
 11
165.224
 21
-32.2358
  0
LINE
  8
0
 10
165.224
 20
-32.2358
 11
166.566
 21
-32.1738
  0
LINE
  8
0
 10
166.566
 20
-32.1738
 11
167.172
 21
-31.0353
  0
LINE
  8
0
 10
167.172
 20
-31.0353
 11
166.473
 21
-29.8877
  0
LINE
  8
0
 10
166.473
 20
-29.8877
 11
165.741
 21
-28.7878
  0
LINE
  8
0
 10
165.741
 20
-28.7878
 11
164.978
 21
-27.7379
  0
LINE
  8
0
 10
164.978
 20
-27.7379
 11
164.184
 21
-26.741
  0
LINE
  8
0
 10
164.184
 20
-26.741
 11
163.358
 21
-25.8006
  0
LINE
  8
0
 10
163.358
 20
-25.8006
 11
163.707
 21
-25.0302
  0
LINE
  8
0
 10
163.707
 20
-25.0302
 11
164.027
 21
-24.2991
  0
LINE
  8
0
 10
164.027
 20
-24.2991
 11
165.278
 21
-24.2836
  0
LINE
  8
0
 10
165.278
 20
-24.2836
 11
166.551
 21
-24.2068
  0
LINE
  8
0
 10
166.551
 20
-24.2068
 11
167.841
 21
-24.0713
  0
LINE
  8
0
 10
167.841
 20
-24.0713
 11
169.148
 21
-23.8787
  0
LINE
  8
0
 10
169.148
 20
-23.8787
 11
170.469
 21
-23.6304
  0
LINE
  8
0
 10
170.469
 20
-23.6304
 11
170.91
 21
-22.4188
  0
LINE
  8
0
 10
170.91
 20
-22.4188
 11
170.057
 21
-21.3796
  0
LINE
  8
0
 10
170.057
 20
-21.3796
 11
169.18
 21
-20.3922
  0
LINE
  8
0
 10
169.18
 20
-20.3922
 11
168.279
 21
-19.4587
  0
LINE
  8
0
 10
168.279
 20
-19.4587
 11
167.353
 21
-18.5821
  0
LINE
  8
0
 10
167.353
 20
-18.5821
 11
166.405
 21
-17.7658
  0
LINE
  8
0
 10
166.405
 20
-17.7658
 11
166.643
 21
-16.9543
  0
LINE
  8
0
 10
166.643
 20
-16.9543
 11
166.858
 21
-16.1858
  0
LINE
  8
0
 10
166.858
 20
-16.1858
 11
168.095
 21
-15.9963
  0
LINE
  8
0
 10
168.095
 20
-15.9963
 11
169.344
 21
-15.7432
  0
LINE
  8
0
 10
169.344
 20
-15.7432
 11
170.603
 21
-15.4293
  0
LINE
  8
0
 10
170.603
 20
-15.4293
 11
171.871
 21
-15.0568
  0
LINE
  8
0
 10
171.871
 20
-15.0568
 11
173.144
 21
-14.6271
  0
LINE
  8
0
 10
173.144
 20
-14.6271
 11
173.412
 21
-13.3659
  0
LINE
  8
0
 10
173.412
 20
-13.3659
 11
172.423
 21
-12.4555
  0
LINE
  8
0
 10
172.423
 20
-12.4555
 11
171.417
 21
-11.5997
  0
LINE
  8
0
 10
171.417
 20
-11.5997
 11
170.395
 21
-10.8008
  0
LINE
  8
0
 10
170.395
 20
-10.8008
 11
169.356
 21
-10.0614
  0
LINE
  8
0
 10
169.356
 20
-10.0614
 11
168.303
 21
-9.38513
  0
LINE
  8
0
 10
168.303
 20
-9.38513
 11
168.426
 21
-8.54839
  0
LINE
  8
0
 10
168.426
 20
-8.54839
 11
168.532
 21
-7.75749
  0
LINE
  8
0
 10
168.532
 20
-7.75749
 11
169.731
 21
-7.39767
  0
LINE
  8
0
 10
169.731
 20
-7.39767
 11
170.933
 21
-6.97316
  0
LINE
  8
0
 10
170.933
 20
-6.97316
 11
172.136
 21
-6.48708
  0
LINE
  8
0
 10
172.136
 20
-6.48708
 11
173.339
 21
-5.94179
  0
LINE
  8
0
 10
173.339
 20
-5.94179
 11
174.54
 21
-5.33907
  0
LINE
  8
0
 10
174.54
 20
-5.33907
 11
174.63
 21
-4.05284
  0
LINE
  8
0
 10
174.63
 20
-4.05284
 11
173.524
 21
-3.28883
  0
LINE
  8
0
 10
173.524
 20
-3.28883
 11
172.409
 21
-2.58142
  0
LINE
  8
0
 10
172.409
 20
-2.58142
 11
171.285
 21
-1.93262
  0
LINE
  8
0
 10
171.285
 20
-1.93262
 11
170.154
 21
-1.34496
  0
LINE
  8
0
 10
170.154
 20
-1.34496
 11
169.017
 21
-0.821823
  0
LINE
  8
0
 10
169.017
 20
-0.821823
 11
169.022
 21
0.0238647
  0
LINE
  8
0
 10
169.022
 20
0.0238647
 11
169.017
 21
0.821823
  0
LINE
  8
0
 10
169.017
 20
0.821823
 11
170.154
 21
1.34496
  0
LINE
  8
0
 10
170.154
 20
1.34496
 11
171.285
 21
1.9326
  0
LINE
  8
0
 10
171.285
 20
1.9326
 11
172.409
 21
2.58142
  0
LINE
  8
0
 10
172.409
 20
2.58142
 11
173.524
 21
3.28883
  0
LINE
  8
0
 10
173.524
 20
3.28883
 11
174.63
 21
4.05284
  0
LINE
  8
0
 10
174.63
 20
4.05284
 11
174.54
 21
5.33907
  0
LINE
  8
0
 10
174.54
 20
5.33907
 11
173.339
 21
5.94179
  0
LINE
  8
0
 10
173.339
 20
5.94179
 11
172.136
 21
6.48708
  0
LINE
  8
0
 10
172.136
 20
6.48708
 11
170.933
 21
6.97316
  0
LINE
  8
0
 10
170.933
 20
6.97316
 11
169.731
 21
7.39767
  0
LINE
  8
0
 10
169.731
 20
7.39767
 11
168.532
 21
7.75749
  0
LINE
  8
0
 10
168.532
 20
7.75749
 11
168.419
 21
8.59567
  0
LINE
  8
0
 10
168.419
 20
8.59567
 11
168.303
 21
9.38515
  0
LINE
  8
0
 10
168.303
 20
9.38515
 11
169.356
 21
10.0614
  0
LINE
  8
0
 10
169.356
 20
10.0614
 11
170.395
 21
10.8008
  0
LINE
  8
0
 10
170.395
 20
10.8008
 11
171.417
 21
11.5997
  0
LINE
  8
0
 10
171.417
 20
11.5997
 11
172.423
 21
12.4555
  0
LINE
  8
0
 10
172.423
 20
12.4555
 11
173.412
 21
13.3659
  0
LINE
  8
0
 10
173.412
 20
13.3659
 11
173.144
 21
14.6271
  0
LINE
  8
0
 10
173.144
 20
14.6271
 11
171.871
 21
15.0568
  0
LINE
  8
0
 10
171.871
 20
15.0568
 11
170.603
 21
15.4293
  0
LINE
  8
0
 10
170.603
 20
15.4293
 11
169.344
 21
15.7432
  0
LINE
  8
0
 10
169.344
 20
15.7432
 11
168.095
 21
15.9963
  0
LINE
  8
0
 10
168.095
 20
15.9963
 11
166.858
 21
16.1858
  0
LINE
  8
0
 10
166.858
 20
16.1858
 11
166.63
 21
17.0002
  0
LINE
  8
0
 10
166.63
 20
17.0002
 11
166.405
 21
17.7658
  0
LINE
  8
0
 10
166.405
 20
17.7658
 11
167.353
 21
18.5821
  0
LINE
  8
0
 10
167.353
 20
18.5821
 11
168.279
 21
19.4587
  0
LINE
  8
0
 10
168.279
 20
19.4587
 11
169.18
 21
20.3922
  0
LINE
  8
0
 10
169.18
 20
20.3922
 11
170.057
 21
21.3796
  0
LINE
  8
0
 10
170.057
 20
21.3796
 11
170.91
 21
22.4188
  0
LINE
  8
0
 10
170.91
 20
22.4188
 11
170.469
 21
23.6304
  0
LINE
  8
0
 10
170.469
 20
23.6304
 11
169.148
 21
23.8787
  0
LINE
  8
0
 10
169.148
 20
23.8787
 11
167.841
 21
24.0713
  0
LINE
  8
0
 10
167.841
 20
24.0713
 11
166.551
 21
24.2068
  0
LINE
  8
0
 10
166.551
 20
24.2068
 11
165.278
 21
24.2836
  0
LINE
  8
0
 10
165.278
 20
24.2836
 11
164.027
 21
24.2991
  0
LINE
  8
0
 10
164.027
 20
24.2991
 11
163.688
 21
25.0738
  0
LINE
  8
0
 10
163.688
 20
25.0738
 11
163.358
 21
25.8006
  0
LINE
  8
0
 10
163.358
 20
25.8006
 11
164.184
 21
26.741
  0
LINE
  8
0
 10
164.184
 20
26.741
 11
164.978
 21
27.7379
  0
LINE
  8
0
 10
164.978
 20
27.7379
 11
165.741
 21
28.7878
  0
LINE
  8
0
 10
165.741
 20
28.7878
 11
166.473
 21
29.8877
  0
LINE
  8
0
 10
166.473
 20
29.8877
 11
167.172
 21
31.0353
  0
LINE
  8
0
 10
167.172
 20
31.0353
 11
166.566
 21
32.1738
  0
LINE
  8
0
 10
166.566
 20
32.1738
 11
165.224
 21
32.2358
  0
LINE
  8
0
 10
165.224
 20
32.2358
 11
163.903
 21
32.2447
  0
LINE
  8
0
 10
163.903
 20
32.2447
 11
162.606
 21
32.1993
  0
LINE
  8
0
 10
162.606
 20
32.1993
 11
161.336
 21
32.0983
  0
LINE
  8
0
 10
161.336
 20
32.0983
 11
160.094
 21
31.9394
  0
LINE
  8
0
 10
160.094
 20
31.9394
 11
159.65
 21
32.6594
  0
LINE
  8
0
 10
159.65
 20
32.6594
 11
159.223
 21
33.3333
  0
LINE
  8
0
 10
159.223
 20
33.3333
 11
159.91
 21
34.3795
  0
LINE
  8
0
 10
159.91
 20
34.3795
 11
160.558
 21
35.4772
  0
LINE
  8
0
 10
160.558
 20
35.4772
 11
161.167
 21
36.623
  0
LINE
  8
0
 10
161.167
 20
36.623
 11
161.738
 21
37.814
  0
LINE
  8
0
 10
161.738
 20
37.814
 11
162.271
 21
39.0478
  0
LINE
  8
0
 10
162.271
 20
39.0478
 11
161.513
 21
40.0909
  0
LINE
  8
0
 10
161.513
 20
40.0909
 11
160.175
 21
39.9655
  0
LINE
  8
0
 10
160.175
 20
39.9655
 11
158.866
 21
39.7905
  0
LINE
  8
0
 10
158.866
 20
39.7905
 11
157.588
 21
39.5651
  0
LINE
  8
0
 10
157.588
 20
39.5651
 11
156.344
 21
39.2882
  0
LINE
  8
0
 10
156.344
 20
39.2882
 11
155.137
 21
38.9581
  0
LINE
  8
0
 10
155.137
 20
38.9581
 11
154.597
 21
39.6093
  0
LINE
  8
0
 10
154.597
 20
39.6093
 11
154.08
 21
40.2172
  0
LINE
  8
0
 10
154.08
 20
40.2172
 11
154.615
 21
41.3488
  0
LINE
  8
0
 10
154.615
 20
41.3488
 11
155.104
 21
42.526
  0
LINE
  8
0
 10
155.104
 20
42.526
 11
155.547
 21
43.7455
  0
LINE
  8
0
 10
155.547
 20
43.7455
 11
155.947
 21
45.0043
  0
LINE
  8
0
 10
155.947
 20
45.0043
 11
156.303
 21
46.3003
  0
LINE
  8
0
 10
156.303
 20
46.3003
 11
155.407
 21
47.2278
  0
LINE
  8
0
 10
155.407
 20
47.2278
 11
154.1
 21
46.9174
  0
LINE
  8
0
 10
154.1
 20
46.9174
 11
152.828
 21
46.5618
  0
LINE
  8
0
 10
152.828
 20
46.5618
 11
151.594
 21
46.1607
  0
LINE
  8
0
 10
151.594
 20
46.1607
 11
150.4
 21
45.7134
  0
LINE
  8
0
 10
150.4
 20
45.7134
 11
149.25
 21
45.2185
  0
LINE
  8
0
 10
149.25
 20
45.2185
 11
148.625
 21
45.7882
  0
LINE
  8
0
 10
148.625
 20
45.7882
 11
148.029
 21
46.3183
  0
LINE
  8
0
 10
148.029
 20
46.3183
 11
148.401
 21
47.5133
  0
LINE
  8
0
 10
148.401
 20
47.5133
 11
148.721
 21
48.7471
  0
LINE
  8
0
 10
148.721
 20
48.7471
 11
148.991
 21
50.0164
  0
LINE
  8
0
 10
148.991
 20
50.0164
 11
149.212
 21
51.3187
  0
LINE
  8
0
 10
149.212
 20
51.3187
 11
149.384
 21
52.6515
  0
LINE
  8
0
 10
149.384
 20
52.6515
 11
148.368
 21
53.4453
  0
LINE
  8
0
 10
148.368
 20
53.4453
 11
147.116
 21
52.956
  0
LINE
  8
0
 10
147.116
 20
52.956
 11
145.906
 21
52.4269
  0
LINE
  8
0
 10
145.906
 20
52.4269
 11
144.739
 21
51.8579
  0
LINE
  8
0
 10
144.739
 20
51.8579
 11
143.62
 21
51.2488
  0
LINE
  8
0
 10
143.62
 20
51.2488
 11
142.55
 21
50.5988
  0
LINE
  8
0
 10
142.55
 20
50.5988
 11
141.852
 21
51.076
  0
LINE
  8
0
 10
141.852
 20
51.076
 11
141.188
 21
51.5179
  0
LINE
  8
0
 10
141.188
 20
51.5179
 11
141.39
 21
52.753
  0
LINE
  8
0
 10
141.39
 20
52.753
 11
141.535
 21
54.0193
  0
LINE
  8
0
 10
141.535
 20
54.0193
 11
141.626
 21
55.3139
  0
LINE
  8
0
 10
141.626
 20
55.3139
 11
141.663
 21
56.6342
  0
LINE
  8
0
 10
141.663
 20
56.6342
 11
141.648
 21
57.978
  0
LINE
  8
0
 10
141.648
 20
57.978
 11
140.531
 21
58.6227
  0
LINE
  8
0
 10
140.531
 20
58.6227
 11
139.36
 21
57.9639
  0
LINE
  8
0
 10
139.36
 20
57.9639
 11
138.235
 21
57.2715
  0
LINE
  8
0
 10
138.235
 20
57.2715
 11
137.159
 21
56.5458
  0
LINE
  8
0
 10
137.159
 20
56.5458
 11
136.135
 21
55.7868
  0
LINE
  8
0
 10
136.135
 20
55.7868
 11
135.166
 21
54.9942
  0
LINE
  8
0
 10
135.166
 20
54.9942
 11
134.409
 21
55.3696
  0
LINE
  8
0
 10
134.409
 20
55.3696
 11
133.689
 21
55.7147
  0
LINE
  8
0
 10
133.689
 20
55.7147
 11
133.717
 21
56.966
  0
LINE
  8
0
 10
133.717
 20
56.966
 11
133.685
 21
58.2402
  0
LINE
  8
0
 10
133.685
 20
58.2402
 11
133.595
 21
59.5348
  0
LINE
  8
0
 10
133.595
 20
59.5348
 11
133.448
 21
60.8474
  0
LINE
  8
0
 10
133.448
 20
60.8474
 11
133.246
 21
62.176
  0
LINE
  8
0
 10
133.246
 20
62.176
 11
132.05
 21
62.659
  0
LINE
  8
0
 10
132.05
 20
62.659
 11
130.982
 21
61.8436
  0
LINE
  8
0
 10
130.982
 20
61.8436
 11
129.964
 21
61.0014
  0
LINE
  8
0
 10
129.964
 20
61.0014
 11
129
 21
60.133
  0
LINE
  8
0
 10
129
 20
60.133
 11
128.092
 21
59.2389
  0
LINE
  8
0
 10
128.092
 20
59.2389
 11
127.243
 21
58.3192
  0
LINE
  8
0
 10
127.243
 20
58.3192
 11
126.44
 21
58.5855
  0
LINE
  8
0
 10
126.44
 20
58.5855
 11
125.68
 21
58.8271
  0
LINE
  8
0
 10
125.68
 20
58.8271
 11
125.533
 21
60.0701
  0
LINE
  8
0
 10
125.533
 20
60.0701
 11
125.324
 21
61.3274
  0
LINE
  8
0
 10
125.324
 20
61.3274
 11
125.054
 21
62.5968
  0
LINE
  8
0
 10
125.054
 20
62.5968
 11
124.726
 21
63.8762
  0
LINE
  8
0
 10
124.726
 20
63.8762
 11
124.341
 21
65.1638
  0
LINE
  8
0
 10
124.341
 20
65.1638
 11
123.09
 21
65.4757
  0
LINE
  8
0
 10
123.09
 20
65.4757
 11
122.146
 21
64.5196
  0
LINE
  8
0
 10
122.146
 20
64.5196
 11
121.255
 21
63.544
  0
LINE
  8
0
 10
121.255
 20
63.544
 11
120.421
 21
62.5498
  0
LINE
  8
0
 10
120.421
 20
62.5498
 11
119.646
 21
61.538
  0
LINE
  8
0
 10
119.646
 20
61.538
 11
118.933
 21
60.5091
  0
LINE
  8
0
 10
118.933
 20
60.5091
 11
118.102
 21
60.6611
  0
LINE
  8
0
 10
118.102
 20
60.6611
 11
117.315
 21
60.7945
  0
LINE
  8
0
 10
117.315
 20
60.7945
 11
116.997
 21
62.0051
  0
LINE
  8
0
 10
116.997
 20
62.0051
 11
116.615
 21
63.221
  0
LINE
  8
0
 10
116.615
 20
63.221
 11
116.171
 21
64.4405
  0
LINE
  8
0
 10
116.171
 20
64.4405
 11
115.668
 21
65.6618
  0
LINE
  8
0
 10
115.668
 20
65.6618
 11
115.108
 21
66.8833
  0
LINE
  8
0
 10
115.108
 20
66.8833
 11
113.825
 21
67.018
  0
LINE
  8
0
 10
113.825
 20
67.018
 11
113.023
 21
65.9398
  0
LINE
  8
0
 10
113.023
 20
65.9398
 11
112.277
 21
64.8498
  0
LINE
  8
0
 10
112.277
 20
64.8498
 11
111.59
 21
63.7492
  0
LINE
  8
0
 10
111.59
 20
63.7492
 11
110.963
 21
62.6393
  0
LINE
  8
0
 10
110.963
 20
62.6393
 11
110.4
 21
61.5213
  0
LINE
  8
0
 10
110.4
 20
61.5213
 11
109.555
 21
61.556
  0
LINE
  8
0
 10
109.555
 20
61.556
 11
108.758
 21
61.5786
  0
LINE
  8
0
 10
108.758
 20
61.5786
 11
108.274
 21
62.7332
  0
LINE
  8
0
 10
108.274
 20
62.7332
 11
107.727
 21
63.8841
  0
LINE
  8
0
 10
107.727
 20
63.8841
 11
107.117
 21
65.03
  0
LINE
  8
0
 10
107.117
 20
65.03
 11
106.449
 21
66.1694
  0
LINE
  8
0
 10
106.449
 20
66.1694
 11
105.724
 21
67.3009
  0
LINE
  8
0
 10
105.724
 20
67.3009
 11
104.436
 21
67.2559
  0
LINE
  8
0
 10
104.436
 20
67.2559
 11
103.792
 21
66.0765
  0
LINE
  8
0
 10
103.792
 20
66.0765
 11
103.205
 21
64.8933
  0
LINE
  8
0
 10
103.205
 20
64.8933
 11
102.677
 21
63.7077
  0
LINE
  8
0
 10
102.677
 20
63.7077
 11
102.211
 21
62.5214
  0
LINE
  8
0
 10
102.211
 20
62.5214
 11
101.809
 21
61.336
  0
LINE
  8
0
 10
101.809
 20
61.336
 11
100.968
 21
61.2527
  0
LINE
  8
0
 10
100.968
 20
61.2527
 11
100.175
 21
61.1642
  0
LINE
  8
0
 10
100.175
 20
61.1642
 11
99.5355
 21
62.2402
  0
LINE
  8
0
 10
99.5355
 20
62.2402
 11
98.8328
 21
63.3037
  0
LINE
  8
0
 10
98.8328
 20
63.3037
 11
98.0701
 21
64.3537
  0
LINE
  8
0
 10
98.0701
 20
64.3537
 11
97.25
 21
65.389
  0
LINE
  8
0
 10
97.25
 20
65.389
 11
96.3746
 21
66.4086
  0
LINE
  8
0
 10
96.3746
 20
66.4086
 11
95.1048
 21
66.1848
  0
LINE
  8
0
 10
95.1048
 20
66.1848
 11
94.631
 21
64.9272
  0
LINE
  8
0
 10
94.631
 20
64.9272
 11
94.2144
 21
63.6738
  0
LINE
  8
0
 10
94.2144
 20
63.6738
 11
93.8567
 21
62.4263
  0
LINE
  8
0
 10
93.8567
 20
62.4263
 11
93.5602
 21
61.1866
  0
LINE
  8
0
 10
93.5602
 20
61.1866
 11
93.3276
 21
59.9569
  0
LINE
  8
0
 10
93.3276
 20
59.9569
 11
92.5058
 21
59.7573
  0
LINE
  8
0
 10
92.5058
 20
59.7573
 11
91.7328
 21
59.5592
  0
LINE
  8
0
 10
91.7328
 20
59.5592
 11
90.9501
 21
60.5359
  0
LINE
  8
0
 10
90.9501
 20
60.5359
 11
90.1063
 21
61.4912
  0
LINE
  8
0
 10
90.1063
 20
61.4912
 11
89.2049
 21
62.4248
  0
LINE
  8
0
 10
89.2049
 20
62.4248
 11
88.2486
 21
63.3359
  0
LINE
  8
0
 10
88.2486
 20
63.3359
 11
87.2399
 21
64.2238
  0
LINE
  8
0
 10
87.2399
 20
64.2238
 11
86.0136
 21
63.8254
  0
LINE
  8
0
 10
86.0136
 20
63.8254
 11
85.7194
 21
62.5141
  0
LINE
  8
0
 10
85.7194
 20
62.5141
 11
85.4813
 21
61.2149
  0
LINE
  8
0
 10
85.4813
 20
61.2149
 11
85.3008
 21
59.9298
  0
LINE
  8
0
 10
85.3008
 20
59.9298
 11
85.1796
 21
58.6609
  0
LINE
  8
0
 10
85.1796
 20
58.6609
 11
85.1205
 21
57.4108
  0
LINE
  8
0
 10
85.1205
 20
57.4108
 11
84.3344
 21
57.0988
  0
LINE
  8
0
 10
84.3344
 20
57.0988
 11
83.5965
 21
56.795
  0
LINE
  8
0
 10
83.5965
 20
56.795
 11
82.6856
 21
57.6533
  0
LINE
  8
0
 10
82.6856
 20
57.6533
 11
81.717
 21
58.4819
  0
LINE
  8
0
 10
81.717
 20
58.4819
 11
80.6944
 21
59.2809
  0
LINE
  8
0
 10
80.6944
 20
59.2809
 11
79.6207
 21
60.05
  0
LINE
  8
0
 10
79.6207
 20
60.05
 11
78.4981
 21
60.7889
  0
LINE
  8
0
 10
78.4981
 20
60.7889
 11
77.3392
 21
60.2237
  0
LINE
  8
0
 10
77.3392
 20
60.2237
 11
77.2304
 21
58.8842
  0
LINE
  8
0
 10
77.2304
 20
58.8842
 11
77.1754
 21
57.5646
  0
LINE
  8
0
 10
77.1754
 20
57.5646
 11
77.1755
 21
56.2668
  0
LINE
  8
0
 10
77.1755
 20
56.2668
 11
77.2321
 21
54.9935
  0
LINE
  8
0
 10
77.2321
 20
54.9935
 11
77.3476
 21
53.7472
  0
LINE
  8
0
 10
77.3476
 20
53.7472
 11
76.6126
 21
53.3289
  0
LINE
  8
0
 10
76.6126
 20
53.3289
 11
75.9241
 21
52.9254
  0
LINE
  8
0
 10
75.9241
 20
52.9254
 11
74.9026
 21
53.6485
  0
LINE
  8
0
 10
74.9026
 20
53.6485
 11
73.8281
 21
54.3342
  0
LINE
  8
0
 10
73.8281
 20
54.3342
 11
72.7043
 21
54.9831
  0
LINE
  8
0
 10
72.7043
 20
54.9831
 11
71.534
 21
55.5954
  0
LINE
  8
0
 10
71.534
 20
55.5954
 11
70.3195
 21
56.1708
  0
LINE
  8
0
 10
70.3195
 20
56.1708
 11
69.2506
 21
55.4498
  0
LINE
  8
0
 10
69.2506
 20
55.4498
 11
69.3292
 21
54.1082
  0
LINE
  8
0
 10
69.3292
 20
54.1082
 11
69.4584
 21
52.7938
  0
LINE
  8
0
 10
69.4584
 20
52.7938
 11
69.6391
 21
51.5087
  0
LINE
  8
0
 10
69.6391
 20
51.5087
 11
69.8724
 21
50.2556
  0
LINE
  8
0
 10
69.8724
 20
50.2556
 11
70.1602
 21
49.0376
  0
LINE
  8
0
 10
70.1602
 20
49.0376
 11
69.4906
 21
48.521
  0
LINE
  8
0
 10
69.4906
 20
48.521
 11
68.8649
 21
48.0256
  0
LINE
  8
0
 10
68.8649
 20
48.0256
 11
67.7527
 21
48.5995
  0
LINE
  8
0
 10
67.7527
 20
48.5995
 11
66.5933
 21
49.129
  0
LINE
  8
0
 10
66.5933
 20
49.129
 11
65.39
 21
49.6152
  0
LINE
  8
0
 10
65.39
 20
49.6152
 11
64.1459
 21
50.0586
  0
LINE
  8
0
 10
64.1459
 20
50.0586
 11
62.8632
 21
50.4595
  0
LINE
  8
0
 10
62.8632
 20
50.4595
 11
61.905
 21
49.5967
  0
LINE
  8
0
 10
61.905
 20
49.5967
 11
62.1696
 21
48.2791
  0
LINE
  8
0
 10
62.1696
 20
48.2791
 11
62.4805
 21
46.9954
  0
LINE
  8
0
 10
62.4805
 20
46.9954
 11
62.8383
 21
45.748
  0
LINE
  8
0
 10
62.8383
 20
45.748
 11
63.2437
 21
44.5396
  0
LINE
  8
0
 10
63.2437
 20
44.5396
 11
63.6982
 21
43.3734
  0
LINE
  8
0
 10
63.6982
 20
43.3734
 11
63.1069
 21
42.7687
  0
LINE
  8
0
 10
63.1069
 20
42.7687
 11
62.5564
 21
42.1911
  0
LINE
  8
0
 10
62.5564
 20
42.1911
 11
61.3751
 21
42.6046
  0
LINE
  8
0
 10
61.3751
 20
42.6046
 11
60.1532
 21
42.9676
  0
LINE
  8
0
 10
60.1532
 20
42.9676
 11
58.8941
 21
43.2816
  0
LINE
  8
0
 10
58.8941
 20
43.2816
 11
57.6003
 21
43.5475
  0
LINE
  8
0
 10
57.6003
 20
43.5475
 11
56.2743
 21
43.766
  0
LINE
  8
0
 10
56.2743
 20
43.766
 11
55.4455
 21
42.7782
  0
LINE
  8
0
 10
55.4455
 20
42.7782
 11
55.8909
 21
41.5103
  0
LINE
  8
0
 10
55.8909
 20
41.5103
 11
56.3774
 21
40.2824
  0
LINE
  8
0
 10
56.3774
 20
40.2824
 11
56.9053
 21
39.0969
  0
LINE
  8
0
 10
56.9053
 20
39.0969
 11
57.475
 21
37.9566
  0
LINE
  8
0
 10
57.475
 20
37.9566
 11
58.0873
 21
36.8651
  0
LINE
  8
0
 10
58.0873
 20
36.8651
 11
57.586
 21
36.1839
  0
LINE
  8
0
 10
57.586
 20
36.1839
 11
57.1212
 21
35.5353
  0
LINE
  8
0
 10
57.1212
 20
35.5353
 11
55.8939
 21
35.7804
  0
LINE
  8
0
 10
55.8939
 20
35.7804
 11
54.6334
 21
35.9698
  0
LINE
  8
0
 10
54.6334
 20
35.9698
 11
53.3428
 21
36.1055
  0
LINE
  8
0
 10
53.3428
 20
36.1055
 11
52.0246
 21
36.1888
  0
LINE
  8
0
 10
52.0246
 20
36.1888
 11
50.6811
 21
36.2206
  0
LINE
  8
0
 10
50.6811
 20
36.2206
 11
49.9978
 21
35.1271
  0
LINE
  8
0
 10
49.9978
 20
35.1271
 11
50.6153
 21
33.9335
  0
LINE
  8
0
 10
50.6153
 20
33.9335
 11
51.268
 21
32.7853
  0
LINE
  8
0
 10
51.268
 20
32.7853
 11
51.9558
 21
31.6848
  0
LINE
  8
0
 10
51.9558
 20
31.6848
 11
52.6786
 21
30.6349
  0
LINE
  8
0
 10
52.6786
 20
30.6349
 11
53.4369
 21
29.6392
  0
LINE
  8
0
 10
53.4369
 20
29.6392
 11
53.0353
 21
28.8949
  0
LINE
  8
0
 10
53.0353
 20
28.8949
 11
52.6652
 21
28.1879
  0
LINE
  8
0
 10
52.6652
 20
28.1879
 11
51.4158
 21
28.2598
  0
LINE
  8
0
 10
51.4158
 20
28.2598
 11
50.1412
 21
28.272
  0
LINE
  8
0
 10
50.1412
 20
28.272
 11
48.8442
 21
28.2267
  0
LINE
  8
0
 10
48.8442
 20
28.2267
 11
47.5273
 21
28.1258
  0
LINE
  8
0
 10
47.5273
 20
28.1258
 11
46.1924
 21
27.9702
  0
LINE
  8
0
 10
46.1924
 20
27.9702
 11
45.668
 21
26.7923
  0
LINE
  8
0
 10
45.668
 20
26.7923
 11
46.4456
 21
25.6963
  0
LINE
  8
0
 10
46.4456
 20
25.6963
 11
47.2518
 21
24.65
  0
LINE
  8
0
 10
47.2518
 20
24.65
 11
48.086
 21
23.6559
  0
LINE
  8
0
 10
48.086
 20
23.6559
 11
48.9479
 21
22.7169
  0
LINE
  8
0
 10
48.9479
 20
22.7169
 11
49.8374
 21
21.8364
  0
LINE
  8
0
 10
49.8374
 20
21.8364
 11
49.5433
 21
21.0435
  0
LINE
  8
0
 10
49.5433
 20
21.0435
 11
49.2752
 21
20.2919
  0
LINE
  8
0
 10
49.2752
 20
20.2919
 11
48.0279
 21
20.1892
  0
LINE
  8
0
 10
48.0279
 20
20.1892
 11
46.764
 21
20.0238
  0
LINE
  8
0
 10
46.764
 20
20.0238
 11
45.486
 21
19.7985
  0
LINE
  8
0
 10
45.486
 20
19.7985
 11
44.1959
 21
19.5153
  0
LINE
  8
0
 10
44.1959
 20
19.5153
 11
42.8957
 21
19.1755
  0
LINE
  8
0
 10
42.8957
 20
19.1755
 11
42.5403
 21
17.936
  0
LINE
  8
0
 10
42.5403
 20
17.936
 11
43.4629
 21
16.9589
  0
LINE
  8
0
 10
43.4629
 20
16.9589
 11
44.4068
 21
16.035
  0
LINE
  8
0
 10
44.4068
 20
16.035
 11
45.3712
 21
15.1667
  0
LINE
  8
0
 10
45.3712
 20
15.1667
 11
46.3554
 21
14.3567
  0
LINE
  8
0
 10
46.3554
 20
14.3567
 11
47.3588
 21
13.6086
  0
LINE
  8
0
 10
47.3588
 20
13.6086
 11
47.1779
 21
12.7825
  0
LINE
  8
0
 10
47.1779
 20
12.7825
 11
47.0171
 21
12.0009
  0
LINE
  8
0
 10
47.0171
 20
12.0009
 11
45.7962
 21
11.7256
  0
LINE
  8
0
 10
45.7962
 20
11.7256
 11
44.5676
 21
11.3859
  0
LINE
  8
0
 10
44.5676
 20
11.3859
 11
43.3334
 21
10.985
  0
LINE
  8
0
 10
43.3334
 20
10.985
 11
42.0953
 21
10.5249
  0
LINE
  8
0
 10
42.0953
 20
10.5249
 11
40.855
 21
10.0075
  0
LINE
  8
0
 10
40.855
 20
10.0075
 11
40.6756
 21
8.73064
  0
LINE
  8
0
 10
40.6756
 20
8.73064
 11
41.7252
 21
7.89137
  0
LINE
  8
0
 10
41.7252
 20
7.89137
 11
42.7885
 21
7.10786
  0
LINE
  8
0
 10
42.7885
 20
7.10786
 11
43.8644
 21
6.38223
  0
LINE
  8
0
 10
43.8644
 20
6.38223
 11
44.9517
 21
5.71712
  0
LINE
  8
0
 10
44.9517
 20
5.71712
 11
46.0495
 21
5.11594
  0
LINE
  8
0
 10
46.0495
 20
5.11594
 11
45.9853
 21
4.27266
  0
LINE
  8
0
 10
45.9853
 20
4.27266
 11
45.9348
 21
3.47629
  0
LINE
  8
0
 10
45.9348
 20
3.47629
 11
44.7641
 21
3.03374
  0
LINE
  8
0
 10
44.7641
 20
3.03374
 11
43.5948
 21
2.52641
  0
LINE
  8
0
 10
43.5948
 20
2.52641
 11
42.4283
 21
1.9576
  0
LINE
  8
0
 10
42.4283
 20
1.9576
 11
41.2663
 21
1.3297
  0
LINE
  8
0
 10
41.2663
 20
1.3297
 11
40.1101
 21
0.644669
  0
LINE
  8
0
 10
40.1101
 20
0.644669
 11
40.1101
 21
-0.644669
  0
LINE
  8
0
 10
40.1101
 20
-0.644669
 11
41.2663
 21
-1.32971
  0
LINE
  8
0
 10
41.2663
 20
-1.32971
 11
42.4283
 21
-1.9576
  0
LINE
  8
0
 10
42.4283
 20
-1.9576
 11
43.5948
 21
-2.52643
  0
LINE
  8
0
 10
43.5948
 20
-2.52643
 11
44.7641
 21
-3.03375
  0
LINE
  8
0
 10
44.7641
 20
-3.03375
 11
45.9348
 21
-3.4763
  0
LINE
  8
0
 10
45.9348
 20
-3.4763
 11
45.9886
 21
-4.3203
  0
LINE
  8
0
 10
45.9886
 20
-4.3203
 11
46.0495
 21
-5.11594
  0
LINE
  8
0
 10
46.0495
 20
-5.11594
 11
44.9517
 21
-5.71712
  0
LINE
  8
0
 10
44.9517
 20
-5.71712
 11
43.8644
 21
-6.38223
  0
LINE
  8
0
 10
43.8644
 20
-6.38223
 11
42.7885
 21
-7.10786
  0
LINE
  8
0
 10
42.7885
 20
-7.10786
 11
41.7252
 21
-7.89137
  0
LINE
  8
0
 10
41.7252
 20
-7.89137
 11
40.6756
 21
-8.73064
  0
LINE
  8
0
 10
40.6756
 20
-8.73064
 11
40.855
 21
-10.0075
  0
LINE
  8
0
 10
40.855
 20
-10.0075
 11
42.0953
 21
-10.5249
  0
LINE
  8
0
 10
42.0953
 20
-10.5249
 11
43.3334
 21
-10.985
  0
LINE
  8
0
 10
43.3334
 20
-10.985
 11
44.5676
 21
-11.3859
  0
LINE
  8
0
 10
44.5676
 20
-11.3859
 11
45.7962
 21
-11.7256
  0
LINE
  8
0
 10
45.7962
 20
-11.7256
 11
47.0171
 21
-12.0009
  0
LINE
  8
0
 10
47.0171
 20
-12.0009
 11
47.1879
 21
-12.8292
  0
LINE
  8
0
 10
47.1879
 20
-12.8292
 11
47.3588
 21
-13.6086
  0
LINE
  8
0
 10
47.3588
 20
-13.6086
 11
46.3554
 21
-14.3567
  0
LINE
  8
0
 10
46.3554
 20
-14.3567
 11
45.3712
 21
-15.1667
  0
LINE
  8
0
 10
45.3712
 20
-15.1667
 11
44.4068
 21
-16.035
  0
LINE
  8
0
 10
44.4068
 20
-16.035
 11
43.4629
 21
-16.9589
  0
LINE
  8
0
 10
43.4629
 20
-16.9589
 11
42.5403
 21
-17.936
  0
LINE
  8
0
 10
42.5403
 20
-17.936
 11
42.8957
 21
-19.1755
  0
LINE
  8
0
 10
42.8957
 20
-19.1755
 11
44.1959
 21
-19.5153
  0
LINE
  8
0
 10
44.1959
 20
-19.5153
 11
45.486
 21
-19.7985
  0
LINE
  8
0
 10
45.486
 20
-19.7985
 11
46.764
 21
-20.0238
  0
LINE
  8
0
 10
46.764
 20
-20.0238
 11
48.0279
 21
-20.1892
  0
LINE
  8
0
 10
48.0279
 20
-20.1892
 11
49.2752
 21
-20.2919
  0
LINE
  8
0
 10
49.2752
 20
-20.2919
 11
49.5596
 21
-21.0884
  0
LINE
  8
0
 10
49.5596
 20
-21.0884
 11
49.8374
 21
-21.8364
  0
LINE
  8
0
 10
49.8374
 20
-21.8364
 11
48.9479
 21
-22.7169
  0
LINE
  8
0
 10
48.9479
 20
-22.7169
 11
48.086
 21
-23.6559
  0
LINE
  8
0
 10
48.086
 20
-23.6559
 11
47.2518
 21
-24.65
  0
LINE
  8
0
 10
47.2518
 20
-24.65
 11
46.4456
 21
-25.6963
  0
LINE
  8
0
 10
46.4456
 20
-25.6963
 11
45.668
 21
-26.7923
  0
LINE
  8
0
 10
45.668
 20
-26.7923
 11
46.1924
 21
-27.9702
  0
LINE
  8
0
 10
46.1924
 20
-27.9702
 11
47.5273
 21
-28.1258
  0
LINE
  8
0
 10
47.5273
 20
-28.1258
 11
48.8442
 21
-28.2267
  0
LINE
  8
0
 10
48.8442
 20
-28.2267
 11
50.1412
 21
-28.272
  0
LINE
  8
0
 10
50.1412
 20
-28.272
 11
51.4158
 21
-28.2598
  0
LINE
  8
0
 10
51.4158
 20
-28.2598
 11
52.6652
 21
-28.1879
  0
LINE
  8
0
 10
52.6652
 20
-28.1879
 11
53.0577
 21
-28.9371
  0
LINE
  8
0
 10
53.0577
 20
-28.9371
 11
53.4369
 21
-29.6392
  0
LINE
  8
0
 10
53.4369
 20
-29.6392
 11
52.6786
 21
-30.6349
  0
LINE
  8
0
 10
52.6786
 20
-30.6349
 11
51.9558
 21
-31.6848
  0
LINE
  8
0
 10
51.9558
 20
-31.6848
 11
51.268
 21
-32.7853
  0
LINE
  8
0
 10
51.268
 20
-32.7853
 11
50.6153
 21
-33.9335
  0
LINE
  8
0
 10
50.6153
 20
-33.9335
 11
49.9978
 21
-35.1271
  0
LINE
  8
0
 10
49.9978
 20
-35.1271
 11
50.6811
 21
-36.2206
  0
LINE
  8
0
 10
50.6811
 20
-36.2206
 11
52.0246
 21
-36.1888
  0
LINE
  8
0
 10
52.0246
 20
-36.1888
 11
53.3428
 21
-36.1055
  0
LINE
  8
0
 10
53.3428
 20
-36.1055
 11
54.6334
 21
-35.9698
  0
LINE
  8
0
 10
54.6334
 20
-35.9698
 11
55.8939
 21
-35.7804
  0
LINE
  8
0
 10
55.8939
 20
-35.7804
 11
57.1212
 21
-35.5353
  0
LINE
  8
0
 10
57.1212
 20
-35.5353
 11
57.6141
 21
-36.2226
  0
LINE
  8
0
 10
57.6141
 20
-36.2226
 11
58.0873
 21
-36.8651
  0
LINE
  8
0
 10
58.0873
 20
-36.8651
 11
57.475
 21
-37.9566
  0
LINE
  8
0
 10
57.475
 20
-37.9566
 11
56.9053
 21
-39.0969
  0
LINE
  8
0
 10
56.9053
 20
-39.0969
 11
56.3774
 21
-40.2824
  0
LINE
  8
0
 10
56.3774
 20
-40.2824
 11
55.8909
 21
-41.5103
  0
LINE
  8
0
 10
55.8909
 20
-41.5103
 11
55.4455
 21
-42.7782
  0
LINE
  8
0
 10
55.4455
 20
-42.7782
 11
56.2743
 21
-43.766
  0
LINE
  8
0
 10
56.2743
 20
-43.766
 11
57.6003
 21
-43.5475
  0
LINE
  8
0
 10
57.6003
 20
-43.5475
 11
58.8941
 21
-43.2816
  0
LINE
  8
0
 10
58.8941
 20
-43.2816
 11
60.1532
 21
-42.9676
  0
LINE
  8
0
 10
60.1532
 20
-42.9676
 11
61.3751
 21
-42.6046
  0
LINE
  8
0
 10
61.3751
 20
-42.6046
 11
62.5564
 21
-42.1911
  0
LINE
  8
0
 10
62.5564
 20
-42.1911
 11
63.1401
 21
-42.803
  0
LINE
  8
0
 10
63.1401
 20
-42.803
 11
63.6982
 21
-43.3734
  0
LINE
  8
0
 10
63.6982
 20
-43.3734
 11
63.2437
 21
-44.5396
  0
LINE
  8
0
 10
63.2437
 20
-44.5396
 11
62.8383
 21
-45.748
  0
LINE
  8
0
 10
62.8383
 20
-45.748
 11
62.4805
 21
-46.9954
  0
LINE
  8
0
 10
62.4805
 20
-46.9954
 11
62.1696
 21
-48.2791
  0
LINE
  8
0
 10
62.1696
 20
-48.2791
 11
61.905
 21
-49.5967
  0
LINE
  8
0
 10
61.905
 20
-49.5967
 11
62.8632
 21
-50.4595
  0
LINE
  8
0
 10
62.8632
 20
-50.4595
 11
64.1459
 21
-50.0586
  0
LINE
  8
0
 10
64.1459
 20
-50.0586
 11
65.39
 21
-49.6152
  0
LINE
  8
0
 10
65.39
 20
-49.6152
 11
66.5933
 21
-49.129
  0
LINE
  8
0
 10
66.5933
 20
-49.129
 11
67.7527
 21
-48.5995
  0
LINE
  8
0
 10
67.7527
 20
-48.5995
 11
68.8649
 21
-48.0256
  0
LINE
  8
0
 10
68.8649
 20
-48.0256
 11
69.5282
 21
-48.5504
  0
LINE
  8
0
 10
69.5282
 20
-48.5504
 11
70.1602
 21
-49.0376
  0
LINE
  8
0
 10
70.1602
 20
-49.0376
 11
69.8724
 21
-50.2556
  0
LINE
  8
0
 10
69.8724
 20
-50.2556
 11
69.6391
 21
-51.5087
  0
LINE
  8
0
 10
69.6391
 20
-51.5087
 11
69.4584
 21
-52.7938
  0
LINE
  8
0
 10
69.4584
 20
-52.7938
 11
69.3292
 21
-54.1082
  0
LINE
  8
0
 10
69.3292
 20
-54.1082
 11
69.2506
 21
-55.4498
  0
LINE
  8
0
 10
69.2506
 20
-55.4498
 11
70.3195
 21
-56.1708
  0
LINE
  8
0
 10
70.3195
 20
-56.1708
 11
71.534
 21
-55.5954
  0
LINE
  8
0
 10
71.534
 20
-55.5954
 11
72.7043
 21
-54.9831
  0
LINE
  8
0
 10
72.7043
 20
-54.9831
 11
73.8281
 21
-54.3342
  0
LINE
  8
0
 10
73.8281
 20
-54.3342
 11
74.9026
 21
-53.6485
  0
LINE
  8
0
 10
74.9026
 20
-53.6485
 11
75.9241
 21
-52.9254
  0
LINE
  8
0
 10
75.9241
 20
-52.9254
 11
76.6539
 21
-53.3527
  0
LINE
  8
0
 10
76.6539
 20
-53.3527
 11
77.3476
 21
-53.7472
  0
LINE
  8
0
 10
77.3476
 20
-53.7472
 11
77.2321
 21
-54.9934
  0
LINE
  8
0
 10
77.2321
 20
-54.9934
 11
77.1755
 21
-56.2668
  0
LINE
  8
0
 10
77.1755
 20
-56.2668
 11
77.1754
 21
-57.5646
  0
LINE
  8
0
 10
77.1754
 20
-57.5646
 11
77.2304
 21
-58.8842
  0
LINE
  8
0
 10
77.2304
 20
-58.8842
 11
77.3392
 21
-60.2237
  0
LINE
  8
0
 10
77.3392
 20
-60.2237
 11
78.4981
 21
-60.7889
  0
LINE
  8
0
 10
78.4981
 20
-60.7889
 11
79.6207
 21
-60.05
  0
LINE
  8
0
 10
79.6207
 20
-60.05
 11
80.6944
 21
-59.2809
  0
LINE
  8
0
 10
80.6944
 20
-59.2809
 11
81.717
 21
-58.4819
  0
LINE
  8
0
 10
81.717
 20
-58.4819
 11
82.6856
 21
-57.6533
  0
LINE
  8
0
 10
82.6856
 20
-57.6533
 11
83.5965
 21
-56.795
  0
LINE
  8
0
 10
83.5965
 20
-56.795
 11
84.3787
 21
-57.1167
  0
LINE
  8
0
 10
84.3787
 20
-57.1167
 11
85.1205
 21
-57.4108
  0
LINE
  8
0
 10
85.1205
 20
-57.4108
 11
85.1796
 21
-58.6609
  0
LINE
  8
0
 10
85.1796
 20
-58.6609
 11
85.3008
 21
-59.9298
  0
LINE
  8
0
 10
85.3008
 20
-59.9298
 11
85.4813
 21
-61.2149
  0
LINE
  8
0
 10
85.4813
 20
-61.2149
 11
85.7194
 21
-62.5141
  0
LINE
  8
0
 10
85.7194
 20
-62.5141
 11
86.0136
 21
-63.8254
  0
LINE
  8
0
 10
86.0136
 20
-63.8254
 11
87.2399
 21
-64.2238
  0
LINE
  8
0
 10
87.2399
 20
-64.2238
 11
88.2486
 21
-63.3359
  0
LINE
  8
0
 10
88.2486
 20
-63.3359
 11
89.2049
 21
-62.4248
  0
LINE
  8
0
 10
89.2049
 20
-62.4248
 11
90.1063
 21
-61.4912
  0
LINE
  8
0
 10
90.1063
 20
-61.4912
 11
90.9501
 21
-60.5359
  0
LINE
  8
0
 10
90.9501
 20
-60.5359
 11
91.7328
 21
-59.5592
  0
LINE
  8
0
 10
91.7328
 20
-59.5592
 11
92.5521
 21
-59.7689
  0
LINE
  8
0
 10
92.5521
 20
-59.7689
 11
93.3276
 21
-59.9569
  0
LINE
  8
0
 10
93.3276
 20
-59.9569
 11
93.5602
 21
-61.1866
  0
LINE
  8
0
 10
93.5602
 20
-61.1866
 11
93.8567
 21
-62.4263
  0
LINE
  8
0
 10
93.8567
 20
-62.4263
 11
94.2144
 21
-63.6738
  0
LINE
  8
0
 10
94.2144
 20
-63.6738
 11
94.631
 21
-64.9272
  0
LINE
  8
0
 10
94.631
 20
-64.9272
 11
95.1048
 21
-66.1848
  0
LINE
  8
0
 10
95.1048
 20
-66.1848
 11
96.3746
 21
-66.4087
  0
LINE
  8
0
 10
96.3746
 20
-66.4087
 11
97.25
 21
-65.389
  0
LINE
  8
0
 10
97.25
 20
-65.389
 11
98.0701
 21
-64.3537
  0
LINE
  8
0
 10
98.0701
 20
-64.3537
 11
98.8328
 21
-63.3037
  0
LINE
  8
0
 10
98.8328
 20
-63.3037
 11
99.5355
 21
-62.2402
  0
LINE
  8
0
 10
99.5355
 20
-62.2402
 11
100.175
 21
-61.1642
  0
LINE
  8
0
 10
100.175
 20
-61.1642
 11
101.015
 21
-61.2577
  0
LINE
  8
0
 10
101.015
 20
-61.2577
 11
101.809
 21
-61.336
  0
LINE
  8
0
 10
101.809
 20
-61.336
 11
102.211
 21
-62.5214
  0
LINE
  8
0
 10
102.211
 20
-62.5214
 11
102.677
 21
-63.7077
  0
LINE
  8
0
 10
102.677
 20
-63.7077
 11
103.205
 21
-64.8933
  0
LINE
  8
0
 10
103.205
 20
-64.8933
 11
103.792
 21
-66.0765
  0
LINE
  8
0
 10
103.792
 20
-66.0765
 11
104.436
 21
-67.2559
  0
LINE
  8
0
 10
104.436
 20
-67.2559
 11
105.724
 21
-67.3009
  0
LINE
  8
0
 10
105.724
 20
-67.3009
 11
106.449
 21
-66.1694
  0
LINE
  8
0
 10
106.561
 20
-4.92403
 11
105.082
 21
-4.41473
  0
LINE
  8
0
 10
105.082
 20
-4.41473
 11
103.833
 21
-3.47328
  0
LINE
  8
0
 10
103.833
 20
-3.47328
 11
102.936
 21
-2.19185
  0
LINE
  8
0
 10
102.936
 20
-2.19185
 11
102.478
 21
-0.695862
  0
LINE
  8
0
 10
102.478
 20
-0.695862
 11
102.506
 21
0.86824
  0
LINE
  8
0
 10
102.506
 20
0.86824
 11
103.015
 21
2.34735
  0
LINE
  8
0
 10
103.015
 20
2.34735
 11
103.956
 21
3.59669
  0
LINE
  8
0
 10
103.956
 20
3.59669
 11
105.238
 21
4.49396
  0
LINE
  8
0
 10
105.238
 20
4.49396
 11
106.734
 21
4.95134
  0
LINE
  8
0
 10
106.734
 20
4.95134
 11
108.298
 21
4.92403
  0
LINE
  8
0
 10
108.298
 20
4.92403
 11
109.777
 21
4.41473
  0
LINE
  8
0
 10
109.777
 20
4.41473
 11
111.026
 21
3.47328
  0
LINE
  8
0
 10
111.026
 20
3.47328
 11
111.924
 21
2.19185
  0
LINE
  8
0
 10
111.924
 20
2.19185
 11
112.381
 21
0.695862
  0
LINE
  8
0
 10
112.381
 20
0.695862
 11
112.354
 21
-0.86824
  0
LINE
  8
0
 10
112.354
 20
-0.86824
 11
111.844
 21
-2.34735
  0
LINE
  8
0
 10
111.844
 20
-2.34735
 11
110.903
 21
-3.59669
  0
LINE
  8
0
 10
110.903
 20
-3.59669
 11
109.621
 21
-4.49396
  0
LINE
  8
0
 10
109.621
 20
-4.49396
 11
108.125
 21
-4.95134
  0
LINE
  8
0
 10
108.125
 20
-4.95134
 11
106.561
 21
-4.92403
  0
LINE
  8
0
 10
1.32727
 20
-44.671
 11
1.96353
 21
-43.5005
  0
LINE
  8
0
 10
1.96353
 20
-43.5005
 11
2.5118
 21
-42.3244
  0
LINE
  8
0
 10
2.5118
 20
-42.3244
 11
2.96651
 21
-41.1461
  0
LINE
  8
0
 10
2.96651
 20
-41.1461
 11
3.31874
 21
-39.9695
  0
LINE
  8
0
 10
3.31874
 20
-39.9695
 11
4.21547
 21
-39.8844
  0
LINE
  8
0
 10
4.21547
 20
-39.8844
 11
5.06389
 21
-39.7861
  0
LINE
  8
0
 10
5.06389
 20
-39.7861
 11
5.65306
 21
-40.8638
  0
LINE
  8
0
 10
5.65306
 20
-40.8638
 11
6.3428
 21
-41.9217
  0
LINE
  8
0
 10
6.3428
 20
-41.9217
 11
7.12361
 21
-42.9581
  0
LINE
  8
0
 10
7.12361
 20
-42.9581
 11
7.98933
 21
-43.9708
  0
LINE
  8
0
 10
7.98933
 20
-43.9708
 11
8.93552
 21
-44.9572
  0
LINE
  8
0
 10
8.93552
 20
-44.9572
 11
10.1227
 21
-44.7049
  0
LINE
  8
0
 10
10.1227
 20
-44.7049
 11
10.5859
 21
-43.4189
  0
LINE
  8
0
 10
10.5859
 20
-43.4189
 11
10.9649
 21
-42.1416
  0
LINE
  8
0
 10
10.9649
 20
-42.1416
 11
11.2567
 21
-40.8773
  0
LINE
  8
0
 10
11.2567
 20
-40.8773
 11
11.4565
 21
-39.6302
  0
LINE
  8
0
 10
11.4565
 20
-39.6302
 11
11.5564
 21
-38.4061
  0
LINE
  8
0
 10
11.5564
 20
-38.4061
 11
12.4158
 21
-38.1364
  0
LINE
  8
0
 10
12.4158
 20
-38.1364
 11
13.2252
 21
-37.8638
  0
LINE
  8
0
 10
13.2252
 20
-37.8638
 11
14.0256
 21
-38.7955
  0
LINE
  8
0
 10
14.0256
 20
-38.7955
 11
14.9202
 21
-39.6869
  0
LINE
  8
0
 10
14.9202
 20
-39.6869
 11
15.8994
 21
-40.5383
  0
LINE
  8
0
 10
15.8994
 20
-40.5383
 11
16.9568
 21
-41.3488
  0
LINE
  8
0
 10
16.9568
 20
-41.3488
 11
18.0874
 21
-42.117
  0
LINE
  8
0
 10
18.0874
 20
-42.117
 11
19.1962
 21
-41.6233
  0
LINE
  8
0
 10
19.1962
 20
-41.6233
 11
19.3819
 21
-40.2691
  0
LINE
  8
0
 10
19.3819
 20
-40.2691
 11
19.487
 21
-38.941
  0
LINE
  8
0
 10
19.487
 20
-38.941
 11
19.5095
 21
-37.6436
  0
LINE
  8
0
 10
19.5095
 20
-37.6436
 11
19.4457
 21
-36.3823
  0
LINE
  8
0
 10
19.4457
 20
-36.3823
 11
19.2889
 21
-35.1641
  0
LINE
  8
0
 10
19.2889
 20
-35.1641
 11
20.0735
 21
-34.7216
  0
LINE
  8
0
 10
20.0735
 20
-34.7216
 11
20.8085
 21
-34.2867
  0
LINE
  8
0
 10
20.8085
 20
-34.2867
 11
21.7851
 21
-35.0316
  0
LINE
  8
0
 10
21.7851
 20
-35.0316
 11
22.8456
 21
-35.7176
  0
LINE
  8
0
 10
22.8456
 20
-35.7176
 11
23.9804
 21
-36.3468
  0
LINE
  8
0
 10
23.9804
 20
-36.3468
 11
25.1832
 21
-36.9197
  0
LINE
  8
0
 10
25.1832
 20
-36.9197
 11
26.4487
 21
-37.4361
  0
LINE
  8
0
 10
26.4487
 20
-37.4361
 11
27.4307
 21
-36.7226
  0
LINE
  8
0
 10
27.4307
 20
-36.7226
 11
27.3307
 21
-35.3594
  0
LINE
  8
0
 10
27.3307
 20
-35.3594
 11
27.1575
 21
-34.0385
  0
LINE
  8
0
 10
27.1575
 20
-34.0385
 11
26.9097
 21
-32.7648
  0
LINE
  8
0
 10
26.9097
 20
-32.7648
 11
26.5851
 21
-31.5443
  0
LINE
  8
0
 10
26.5851
 20
-31.5443
 11
26.1784
 21
-30.3853
  0
LINE
  8
0
 10
26.1784
 20
-30.3853
 11
26.8539
 21
-29.7894
  0
LINE
  8
0
 10
26.8539
 20
-29.7894
 11
27.4824
 21
-29.2111
  0
LINE
  8
0
 10
27.4824
 20
-29.2111
 11
28.5925
 21
-29.7367
  0
LINE
  8
0
 10
28.5925
 20
-29.7367
 11
29.7724
 21
-30.1872
  0
LINE
  8
0
 10
29.7724
 20
-30.1872
 11
31.0133
 21
-30.5667
  0
LINE
  8
0
 10
31.0133
 20
-30.5667
 11
32.3089
 21
-30.8771
  0
LINE
  8
0
 10
32.3089
 20
-30.8771
 11
33.6542
 21
-31.119
  0
LINE
  8
0
 10
33.6542
 20
-31.119
 11
34.4663
 21
-30.217
  0
LINE
  8
0
 10
34.4663
 20
-30.217
 11
34.0851
 21
-28.9044
  0
LINE
  8
0
 10
34.0851
 20
-28.9044
 11
33.641
 21
-27.6483
  0
LINE
  8
0
 10
33.641
 20
-27.6483
 11
33.1339
 21
-26.4539
  0
LINE
  8
0
 10
33.1339
 20
-26.4539
 11
32.5625
 21
-25.3276
  0
LINE
  8
0
 10
32.5625
 20
-25.3276
 11
31.9238
 21
-24.2785
  0
LINE
  8
0
 10
31.9238
 20
-24.2785
 11
32.4606
 21
-23.5551
  0
LINE
  8
0
 10
32.4606
 20
-23.5551
 11
32.9552
 21
-22.8589
  0
LINE
  8
0
 10
32.9552
 20
-22.8589
 11
34.1503
 21
-23.1422
  0
LINE
  8
0
 10
34.1503
 20
-23.1422
 11
35.3981
 21
-23.3375
  0
LINE
  8
0
 10
35.3981
 20
-23.3375
 11
36.6908
 21
-23.4507
  0
LINE
  8
0
 10
36.6908
 20
-23.4507
 11
38.0226
 21
-23.485
  0
LINE
  8
0
 10
38.0226
 20
-23.485
 11
39.3887
 21
-23.4419
  0
LINE
  8
0
 10
39.3887
 20
-23.4419
 11
39.9956
 21
-22.3907
  0
LINE
  8
0
 10
39.9956
 20
-22.3907
 11
39.3499
 21
-21.186
  0
LINE
  8
0
 10
39.3499
 20
-21.186
 11
38.6543
 21
-20.0498
  0
LINE
  8
0
 10
38.6543
 20
-20.0498
 11
37.9099
 21
-18.9869
  0
LINE
  8
0
 10
37.9099
 20
-18.9869
 11
37.1169
 21
-18.004
  0
LINE
  8
0
 10
37.1169
 20
-18.004
 11
36.274
 21
-17.1106
  0
LINE
  8
0
 10
36.274
 20
-17.1106
 11
36.6486
 21
-16.2915
  0
LINE
  8
0
 10
36.6486
 20
-16.2915
 11
36.9877
 21
-15.5076
  0
LINE
  8
0
 10
36.9877
 20
-15.5076
 11
38.2156
 21
-15.5362
  0
LINE
  8
0
 10
38.2156
 20
-15.5362
 11
39.4767
 21
-15.4678
  0
LINE
  8
0
 10
39.4767
 20
-15.4678
 11
40.7646
 21
-15.3098
  0
LINE
  8
0
 10
40.7646
 20
-15.3098
 11
42.0745
 21
-15.0664
  0
LINE
  8
0
 10
42.0745
 20
-15.0664
 11
43.4019
 21
-14.7402
  0
LINE
  8
0
 10
43.4019
 20
-14.7402
 11
43.7769
 21
-13.5859
  0
LINE
  8
0
 10
43.7769
 20
-13.5859
 11
42.8948
 21
-12.5418
  0
LINE
  8
0
 10
42.8948
 20
-12.5418
 11
41.9782
 21
-11.5749
  0
LINE
  8
0
 10
41.9782
 20
-11.5749
 11
41.0291
 21
-10.6901
  0
LINE
  8
0
 10
41.0291
 20
-10.6901
 11
40.049
 21
-9.89352
  0
LINE
  8
0
 10
40.049
 20
-9.89352
 11
39.0388
 21
-9.19492
  0
LINE
  8
0
 10
39.0388
 20
-9.19492
 11
39.235
 21
-8.3158
  0
LINE
  8
0
 10
39.235
 20
-8.3158
 11
39.4036
 21
-7.47852
  0
LINE
  8
0
 10
39.4036
 20
-7.47852
 11
40.6107
 21
-7.25121
  0
LINE
  8
0
 10
40.6107
 20
-7.25121
 11
41.83
 21
-6.92215
  0
LINE
  8
0
 10
41.83
 20
-6.92215
 11
43.0569
 21
-6.49982
  0
LINE
  8
0
 10
43.0569
 20
-6.49982
 11
44.2875
 21
-5.9894
  0
LINE
  8
0
 10
44.2875
 20
-5.9894
 11
45.5181
 21
-5.39435
  0
LINE
  8
0
 10
45.5181
 20
-5.39435
 11
45.6449
 21
-4.18726
  0
LINE
  8
0
 10
45.6449
 20
-4.18726
 11
44.565
 21
-3.34937
  0
LINE
  8
0
 10
44.565
 20
-3.34937
 11
43.4674
 21
-2.59424
  0
LINE
  8
0
 10
43.4674
 20
-2.59424
 11
42.3551
 21
-1.92604
  0
LINE
  8
0
 10
42.3551
 20
-1.92604
 11
41.2308
 21
-1.35066
  0
LINE
  8
0
 10
41.2308
 20
-1.35066
 11
40.0974
 21
-0.877365
  0
LINE
  8
0
 10
40.0974
 20
-0.877365
 11
40.1065
 21
0.0233307
  0
LINE
  8
0
 10
40.1065
 20
0.0233307
 11
40.0974
 21
0.877365
  0
LINE
  8
0
 10
40.0974
 20
0.877365
 11
41.2308
 21
1.35066
  0
LINE
  8
0
 10
41.2308
 20
1.35066
 11
42.3551
 21
1.92604
  0
LINE
  8
0
 10
42.3551
 20
1.92604
 11
43.4674
 21
2.59424
  0
LINE
  8
0
 10
43.4674
 20
2.59424
 11
44.565
 21
3.34937
  0
LINE
  8
0
 10
44.565
 20
3.34937
 11
45.6449
 21
4.18726
  0
LINE
  8
0
 10
45.6449
 20
4.18726
 11
45.5181
 21
5.39435
  0
LINE
  8
0
 10
45.5181
 20
5.39435
 11
44.2875
 21
5.9894
  0
LINE
  8
0
 10
44.2875
 20
5.9894
 11
43.0569
 21
6.49982
  0
LINE
  8
0
 10
43.0569
 20
6.49982
 11
41.83
 21
6.92215
  0
LINE
  8
0
 10
41.83
 20
6.92215
 11
40.6107
 21
7.25121
  0
LINE
  8
0
 10
40.6107
 20
7.25121
 11
39.4036
 21
7.47852
  0
LINE
  8
0
 10
39.4036
 20
7.47852
 11
39.2253
 21
8.36143
  0
LINE
  8
0
 10
39.2253
 20
8.36143
 11
39.0388
 21
9.19492
  0
LINE
  8
0
 10
39.0388
 20
9.19492
 11
40.049
 21
9.89352
  0
LINE
  8
0
 10
40.049
 20
9.89352
 11
41.0291
 21
10.6901
  0
LINE
  8
0
 10
41.0291
 20
10.6901
 11
41.9782
 21
11.5749
  0
LINE
  8
0
 10
41.9782
 20
11.5749
 11
42.8948
 21
12.5418
  0
LINE
  8
0
 10
42.8948
 20
12.5418
 11
43.7769
 21
13.5859
  0
LINE
  8
0
 10
43.7769
 20
13.5859
 11
43.4019
 21
14.7402
  0
LINE
  8
0
 10
43.4019
 20
14.7402
 11
42.0745
 21
15.0664
  0
LINE
  8
0
 10
42.0745
 20
15.0664
 11
40.7646
 21
15.3098
  0
LINE
  8
0
 10
40.7646
 20
15.3098
 11
39.4767
 21
15.4678
  0
LINE
  8
0
 10
39.4767
 20
15.4678
 11
38.2156
 21
15.5362
  0
LINE
  8
0
 10
38.2156
 20
15.5362
 11
36.9877
 21
15.5076
  0
LINE
  8
0
 10
36.9877
 20
15.5076
 11
36.6297
 21
16.3341
  0
LINE
  8
0
 10
36.6297
 20
16.3341
 11
36.274
 21
17.1106
  0
LINE
  8
0
 10
36.274
 20
17.1106
 11
37.1169
 21
18.004
  0
LINE
  8
0
 10
37.1169
 20
18.004
 11
37.9099
 21
18.9869
  0
LINE
  8
0
 10
37.9099
 20
18.9869
 11
38.6543
 21
20.0498
  0
LINE
  8
0
 10
38.6543
 20
20.0498
 11
39.3499
 21
21.186
  0
LINE
  8
0
 10
39.3499
 20
21.186
 11
39.9956
 21
22.3907
  0
LINE
  8
0
 10
39.9956
 20
22.3907
 11
39.3887
 21
23.4419
  0
LINE
  8
0
 10
39.3887
 20
23.4419
 11
38.0226
 21
23.485
  0
LINE
  8
0
 10
38.0226
 20
23.485
 11
36.6908
 21
23.4507
  0
LINE
  8
0
 10
36.6908
 20
23.4507
 11
35.3981
 21
23.3375
  0
LINE
  8
0
 10
35.3981
 20
23.3375
 11
34.1503
 21
23.1422
  0
LINE
  8
0
 10
34.1503
 20
23.1422
 11
32.9552
 21
22.8589
  0
LINE
  8
0
 10
32.9552
 20
22.8589
 11
32.4332
 21
23.5929
  0
LINE
  8
0
 10
32.4332
 20
23.5929
 11
31.9238
 21
24.2785
  0
LINE
  8
0
 10
31.9238
 20
24.2785
 11
32.5625
 21
25.3276
  0
LINE
  8
0
 10
32.5625
 20
25.3276
 11
33.1339
 21
26.4539
  0
LINE
  8
0
 10
33.1339
 20
26.4539
 11
33.641
 21
27.6483
  0
LINE
  8
0
 10
33.641
 20
27.6483
 11
34.0851
 21
28.9044
  0
LINE
  8
0
 10
34.0851
 20
28.9044
 11
34.4663
 21
30.217
  0
LINE
  8
0
 10
34.4663
 20
30.217
 11
33.6542
 21
31.119
  0
LINE
  8
0
 10
33.6542
 20
31.119
 11
32.3089
 21
30.8771
  0
LINE
  8
0
 10
32.3089
 20
30.8771
 11
31.0133
 21
30.5667
  0
LINE
  8
0
 10
31.0133
 20
30.5667
 11
29.7724
 21
30.1872
  0
LINE
  8
0
 10
29.7724
 20
30.1872
 11
28.5925
 21
29.7367
  0
LINE
  8
0
 10
28.5925
 20
29.7367
 11
27.4824
 21
29.2111
  0
LINE
  8
0
 10
27.4824
 20
29.2111
 11
26.8192
 21
29.8206
  0
LINE
  8
0
 10
26.8192
 20
29.8206
 11
26.1784
 21
30.3853
  0
LINE
  8
0
 10
26.1784
 20
30.3853
 11
26.5851
 21
31.5443
  0
LINE
  8
0
 10
26.5851
 20
31.5443
 11
26.9097
 21
32.7648
  0
LINE
  8
0
 10
26.9097
 20
32.7648
 11
27.1575
 21
34.0385
  0
LINE
  8
0
 10
27.1575
 20
34.0385
 11
27.3307
 21
35.3594
  0
LINE
  8
0
 10
27.3307
 20
35.3594
 11
27.4307
 21
36.7226
  0
LINE
  8
0
 10
27.4307
 20
36.7226
 11
26.4487
 21
37.4361
  0
LINE
  8
0
 10
26.4487
 20
37.4361
 11
25.1832
 21
36.9197
  0
LINE
  8
0
 10
25.1832
 20
36.9197
 11
23.9804
 21
36.3468
  0
LINE
  8
0
 10
23.9804
 20
36.3468
 11
22.8456
 21
35.7176
  0
LINE
  8
0
 10
22.8456
 20
35.7176
 11
21.7851
 21
35.0316
  0
LINE
  8
0
 10
21.7851
 20
35.0316
 11
20.8085
 21
34.2867
  0
LINE
  8
0
 10
20.8085
 20
34.2867
 11
20.0331
 21
34.7449
  0
LINE
  8
0
 10
20.0331
 20
34.7449
 11
19.2889
 21
35.1641
  0
LINE
  8
0
 10
19.2889
 20
35.1641
 11
19.4457
 21
36.3823
  0
LINE
  8
0
 10
19.4457
 20
36.3823
 11
19.5095
 21
37.6436
  0
LINE
  8
0
 10
19.5095
 20
37.6436
 11
19.487
 21
38.941
  0
LINE
  8
0
 10
19.487
 20
38.941
 11
19.3819
 21
40.2691
  0
LINE
  8
0
 10
19.3819
 20
40.2691
 11
19.1962
 21
41.6233
  0
LINE
  8
0
 10
19.1962
 20
41.6233
 11
18.0874
 21
42.117
  0
LINE
  8
0
 10
18.0874
 20
42.117
 11
16.9568
 21
41.3488
  0
LINE
  8
0
 10
16.9568
 20
41.3488
 11
15.8994
 21
40.5383
  0
LINE
  8
0
 10
15.8994
 20
40.5383
 11
14.9202
 21
39.6869
  0
LINE
  8
0
 10
14.9202
 20
39.6869
 11
14.0256
 21
38.7955
  0
LINE
  8
0
 10
14.0256
 20
38.7955
 11
13.2252
 21
37.8638
  0
LINE
  8
0
 10
13.2252
 20
37.8638
 11
12.3714
 21
38.1508
  0
LINE
  8
0
 10
12.3714
 20
38.1508
 11
11.5564
 21
38.4061
  0
LINE
  8
0
 10
11.5564
 20
38.4061
 11
11.4565
 21
39.6302
  0
LINE
  8
0
 10
11.4565
 20
39.6302
 11
11.2567
 21
40.8773
  0
LINE
  8
0
 10
11.2567
 20
40.8773
 11
10.9649
 21
42.1416
  0
LINE
  8
0
 10
10.9649
 20
42.1416
 11
10.5859
 21
43.4189
  0
LINE
  8
0
 10
10.5859
 20
43.4189
 11
10.1227
 21
44.7049
  0
LINE
  8
0
 10
10.1227
 20
44.7049
 11
8.93552
 21
44.9572
  0
LINE
  8
0
 10
8.93552
 20
44.9572
 11
7.98933
 21
43.9708
  0
LINE
  8
0
 10
7.98933
 20
43.9708
 11
7.12361
 21
42.9581
  0
LINE
  8
0
 10
7.12361
 20
42.9581
 11
6.3428
 21
41.9217
  0
LINE
  8
0
 10
6.3428
 20
41.9217
 11
5.65306
 21
40.8638
  0
LINE
  8
0
 10
5.65306
 20
40.8638
 11
5.06389
 21
39.7861
  0
LINE
  8
0
 10
5.06389
 20
39.7861
 11
4.16907
 21
39.8893
  0
LINE
  8
0
 10
4.16907
 20
39.8893
 11
3.31876
 21
39.9695
  0
LINE
  8
0
 10
3.31876
 20
39.9695
 11
2.96652
 21
41.1461
  0
LINE
  8
0
 10
2.96652
 20
41.1461
 11
2.51181
 21
42.3244
  0
LINE
  8
0
 10
2.51181
 20
42.3244
 11
1.96355
 21
43.5005
  0
LINE
  8
0
 10
1.96355
 20
43.5005
 11
1.32729
 21
44.671
  0
LINE
  8
0
 10
1.32729
 20
44.671
 11
0.606873
 21
45.8326
  0
LINE
  8
0
 10
0.606873
 20
45.8326
 11
-0.606873
 21
45.8326
  0
LINE
  8
0
 10
-0.606873
 20
45.8326
 11
-1.32729
 21
44.671
  0
LINE
  8
0
 10
-1.32729
 20
44.671
 11
-1.96355
 21
43.5005
  0
LINE
  8
0
 10
-1.96355
 20
43.5005
 11
-2.51181
 21
42.3244
  0
LINE
  8
0
 10
-2.51181
 20
42.3244
 11
-2.96652
 21
41.1461
  0
LINE
  8
0
 10
-2.96652
 20
41.1461
 11
-3.31876
 21
39.9695
  0
LINE
  8
0
 10
-3.31876
 20
39.9695
 11
-4.21547
 21
39.8844
  0
LINE
  8
0
 10
-4.21547
 20
39.8844
 11
-5.06389
 21
39.7861
  0
LINE
  8
0
 10
-5.06389
 20
39.7861
 11
-5.65306
 21
40.8638
  0
LINE
  8
0
 10
-5.65306
 20
40.8638
 11
-6.3428
 21
41.9217
  0
LINE
  8
0
 10
-6.3428
 20
41.9217
 11
-7.12361
 21
42.9581
  0
LINE
  8
0
 10
-7.12361
 20
42.9581
 11
-7.98933
 21
43.9708
  0
LINE
  8
0
 10
-7.98933
 20
43.9708
 11
-8.93552
 21
44.9572
  0
LINE
  8
0
 10
-8.93552
 20
44.9572
 11
-10.1227
 21
44.7049
  0
LINE
  8
0
 10
-10.1227
 20
44.7049
 11
-10.5859
 21
43.4189
  0
LINE
  8
0
 10
-10.5859
 20
43.4189
 11
-10.9649
 21
42.1416
  0
LINE
  8
0
 10
-10.9649
 20
42.1416
 11
-11.2567
 21
40.8773
  0
LINE
  8
0
 10
-11.2567
 20
40.8773
 11
-11.4565
 21
39.6302
  0
LINE
  8
0
 10
-11.4565
 20
39.6302
 11
-11.5564
 21
38.4061
  0
LINE
  8
0
 10
-11.5564
 20
38.4061
 11
-12.4158
 21
38.1364
  0
LINE
  8
0
 10
-12.4158
 20
38.1364
 11
-13.2252
 21
37.8638
  0
LINE
  8
0
 10
-13.2252
 20
37.8638
 11
-14.0256
 21
38.7955
  0
LINE
  8
0
 10
-14.0256
 20
38.7955
 11
-14.9202
 21
39.6869
  0
LINE
  8
0
 10
-14.9202
 20
39.6869
 11
-15.8994
 21
40.5383
  0
LINE
  8
0
 10
-15.8994
 20
40.5383
 11
-16.9568
 21
41.3488
  0
LINE
  8
0
 10
-16.9568
 20
41.3488
 11
-18.0874
 21
42.117
  0
LINE
  8
0
 10
-18.0874
 20
42.117
 11
-19.1962
 21
41.6233
  0
LINE
  8
0
 10
-19.1962
 20
41.6233
 11
-19.3819
 21
40.2691
  0
LINE
  8
0
 10
-19.3819
 20
40.2691
 11
-19.487
 21
38.941
  0
LINE
  8
0
 10
-19.487
 20
38.941
 11
-19.5095
 21
37.6436
  0
LINE
  8
0
 10
-19.5095
 20
37.6436
 11
-19.4457
 21
36.3823
  0
LINE
  8
0
 10
-19.4457
 20
36.3823
 11
-19.2889
 21
35.1641
  0
LINE
  8
0
 10
-19.2889
 20
35.1641
 11
-20.0735
 21
34.7216
  0
LINE
  8
0
 10
-20.0735
 20
34.7216
 11
-20.8085
 21
34.2867
  0
LINE
  8
0
 10
-20.8085
 20
34.2867
 11
-21.7851
 21
35.0316
  0
LINE
  8
0
 10
-21.7851
 20
35.0316
 11
-22.8456
 21
35.7176
  0
LINE
  8
0
 10
-22.8456
 20
35.7176
 11
-23.9804
 21
36.3468
  0
LINE
  8
0
 10
-23.9804
 20
36.3468
 11
-25.1832
 21
36.9197
  0
LINE
  8
0
 10
-25.1832
 20
36.9197
 11
-26.4487
 21
37.4361
  0
LINE
  8
0
 10
-26.4487
 20
37.4361
 11
-27.4307
 21
36.7226
  0
LINE
  8
0
 10
-27.4307
 20
36.7226
 11
-27.3307
 21
35.3594
  0
LINE
  8
0
 10
-27.3307
 20
35.3594
 11
-27.1575
 21
34.0385
  0
LINE
  8
0
 10
-27.1575
 20
34.0385
 11
-26.9097
 21
32.7648
  0
LINE
  8
0
 10
-26.9097
 20
32.7648
 11
-26.5851
 21
31.5443
  0
LINE
  8
0
 10
-26.5851
 20
31.5443
 11
-26.1784
 21
30.3853
  0
LINE
  8
0
 10
-26.1784
 20
30.3853
 11
-26.8539
 21
29.7894
  0
LINE
  8
0
 10
-26.8539
 20
29.7894
 11
-27.4824
 21
29.2111
  0
LINE
  8
0
 10
-27.4824
 20
29.2111
 11
-28.5925
 21
29.7367
  0
LINE
  8
0
 10
-28.5925
 20
29.7367
 11
-29.7724
 21
30.1872
  0
LINE
  8
0
 10
-29.7724
 20
30.1872
 11
-31.0133
 21
30.5667
  0
LINE
  8
0
 10
-31.0133
 20
30.5667
 11
-32.3089
 21
30.8771
  0
LINE
  8
0
 10
-32.3089
 20
30.8771
 11
-33.6542
 21
31.119
  0
LINE
  8
0
 10
-33.6542
 20
31.119
 11
-34.4663
 21
30.217
  0
LINE
  8
0
 10
-34.4663
 20
30.217
 11
-34.0851
 21
28.9044
  0
LINE
  8
0
 10
-34.0851
 20
28.9044
 11
-33.641
 21
27.6483
  0
LINE
  8
0
 10
-33.641
 20
27.6483
 11
-33.1339
 21
26.4539
  0
LINE
  8
0
 10
-33.1339
 20
26.4539
 11
-32.5625
 21
25.3276
  0
LINE
  8
0
 10
-32.5625
 20
25.3276
 11
-31.9238
 21
24.2785
  0
LINE
  8
0
 10
-31.9238
 20
24.2785
 11
-32.4606
 21
23.5551
  0
LINE
  8
0
 10
-32.4606
 20
23.5551
 11
-32.9552
 21
22.8589
  0
LINE
  8
0
 10
-32.9552
 20
22.8589
 11
-34.1503
 21
23.1422
  0
LINE
  8
0
 10
-34.1503
 20
23.1422
 11
-35.3981
 21
23.3375
  0
LINE
  8
0
 10
-35.3981
 20
23.3375
 11
-36.6908
 21
23.4507
  0
LINE
  8
0
 10
-36.6908
 20
23.4507
 11
-38.0226
 21
23.485
  0
LINE
  8
0
 10
-38.0226
 20
23.485
 11
-39.3887
 21
23.4419
  0
LINE
  8
0
 10
-39.3887
 20
23.4419
 11
-39.9956
 21
22.3907
  0
LINE
  8
0
 10
-39.9956
 20
22.3907
 11
-39.3499
 21
21.186
  0
LINE
  8
0
 10
-39.3499
 20
21.186
 11
-38.6543
 21
20.0498
  0
LINE
  8
0
 10
-38.6543
 20
20.0498
 11
-37.9099
 21
18.9869
  0
LINE
  8
0
 10
-37.9099
 20
18.9869
 11
-37.1169
 21
18.004
  0
LINE
  8
0
 10
-37.1169
 20
18.004
 11
-36.274
 21
17.1106
  0
LINE
  8
0
 10
-36.274
 20
17.1106
 11
-36.6486
 21
16.2915
  0
LINE
  8
0
 10
-36.6486
 20
16.2915
 11
-36.9877
 21
15.5076
  0
LINE
  8
0
 10
-36.9877
 20
15.5076
 11
-38.2156
 21
15.5362
  0
LINE
  8
0
 10
-38.2156
 20
15.5362
 11
-39.4767
 21
15.4678
  0
LINE
  8
0
 10
-39.4767
 20
15.4678
 11
-40.7646
 21
15.3098
  0
LINE
  8
0
 10
-40.7646
 20
15.3098
 11
-42.0745
 21
15.0664
  0
LINE
  8
0
 10
-42.0745
 20
15.0664
 11
-43.4019
 21
14.7402
  0
LINE
  8
0
 10
-43.4019
 20
14.7402
 11
-43.7769
 21
13.5859
  0
LINE
  8
0
 10
-43.7769
 20
13.5859
 11
-42.8948
 21
12.5418
  0
LINE
  8
0
 10
-42.8948
 20
12.5418
 11
-41.9782
 21
11.5749
  0
LINE
  8
0
 10
-41.9782
 20
11.5749
 11
-41.0291
 21
10.6901
  0
LINE
  8
0
 10
-41.0291
 20
10.6901
 11
-40.049
 21
9.89352
  0
LINE
  8
0
 10
-40.049
 20
9.89352
 11
-39.0388
 21
9.19492
  0
LINE
  8
0
 10
-39.0388
 20
9.19492
 11
-39.235
 21
8.3158
  0
LINE
  8
0
 10
-39.235
 20
8.3158
 11
-39.4036
 21
7.47852
  0
LINE
  8
0
 10
-39.4036
 20
7.47852
 11
-40.6107
 21
7.25121
  0
LINE
  8
0
 10
-40.6107
 20
7.25121
 11
-41.83
 21
6.92215
  0
LINE
  8
0
 10
-41.83
 20
6.92215
 11
-43.0569
 21
6.49982
  0
LINE
  8
0
 10
-43.0569
 20
6.49982
 11
-44.2875
 21
5.9894
  0
LINE
  8
0
 10
-44.2875
 20
5.9894
 11
-45.5181
 21
5.39435
  0
LINE
  8
0
 10
-45.5181
 20
5.39435
 11
-45.6449
 21
4.18726
  0
LINE
  8
0
 10
-45.6449
 20
4.18726
 11
-44.565
 21
3.34937
  0
LINE
  8
0
 10
-44.565
 20
3.34937
 11
-43.4674
 21
2.59424
  0
LINE
  8
0
 10
-43.4674
 20
2.59424
 11
-42.3551
 21
1.92604
  0
LINE
  8
0
 10
-42.3551
 20
1.92604
 11
-41.2308
 21
1.35066
  0
LINE
  8
0
 10
-41.2308
 20
1.35066
 11
-40.0974
 21
0.877365
  0
LINE
  8
0
 10
-40.0974
 20
0.877365
 11
-40.1065
 21
-0.0233307
  0
LINE
  8
0
 10
-40.1065
 20
-0.0233307
 11
-40.0974
 21
-0.877365
  0
LINE
  8
0
 10
-40.0974
 20
-0.877365
 11
-41.2308
 21
-1.35066
  0
LINE
  8
0
 10
-41.2308
 20
-1.35066
 11
-42.3551
 21
-1.92604
  0
LINE
  8
0
 10
-42.3551
 20
-1.92604
 11
-43.4674
 21
-2.59424
  0
LINE
  8
0
 10
-43.4674
 20
-2.59424
 11
-44.565
 21
-3.34937
  0
LINE
  8
0
 10
-44.565
 20
-3.34937
 11
-45.6449
 21
-4.18726
  0
LINE
  8
0
 10
-45.6449
 20
-4.18726
 11
-45.5181
 21
-5.39435
  0
LINE
  8
0
 10
-45.5181
 20
-5.39435
 11
-44.2875
 21
-5.9894
  0
LINE
  8
0
 10
-44.2875
 20
-5.9894
 11
-43.0569
 21
-6.49982
  0
LINE
  8
0
 10
-43.0569
 20
-6.49982
 11
-41.83
 21
-6.92215
  0
LINE
  8
0
 10
-41.83
 20
-6.92215
 11
-40.6107
 21
-7.25121
  0
LINE
  8
0
 10
-40.6107
 20
-7.25121
 11
-39.4036
 21
-7.47852
  0
LINE
  8
0
 10
-39.4036
 20
-7.47852
 11
-39.2253
 21
-8.36143
  0
LINE
  8
0
 10
-39.2253
 20
-8.36143
 11
-39.0388
 21
-9.19492
  0
LINE
  8
0
 10
-39.0388
 20
-9.19492
 11
-40.049
 21
-9.89352
  0
LINE
  8
0
 10
-40.049
 20
-9.89352
 11
-41.0291
 21
-10.6901
  0
LINE
  8
0
 10
-41.0291
 20
-10.6901
 11
-41.9782
 21
-11.5749
  0
LINE
  8
0
 10
-41.9782
 20
-11.5749
 11
-42.8948
 21
-12.5418
  0
LINE
  8
0
 10
-42.8948
 20
-12.5418
 11
-43.7769
 21
-13.5859
  0
LINE
  8
0
 10
-43.7769
 20
-13.5859
 11
-43.4019
 21
-14.7402
  0
LINE
  8
0
 10
-43.4019
 20
-14.7402
 11
-42.0745
 21
-15.0664
  0
LINE
  8
0
 10
-42.0745
 20
-15.0664
 11
-40.7646
 21
-15.3098
  0
LINE
  8
0
 10
-40.7646
 20
-15.3098
 11
-39.4767
 21
-15.4678
  0
LINE
  8
0
 10
-39.4767
 20
-15.4678
 11
-38.2156
 21
-15.5362
  0
LINE
  8
0
 10
-38.2156
 20
-15.5362
 11
-36.9877
 21
-15.5076
  0
LINE
  8
0
 10
-36.9877
 20
-15.5076
 11
-36.6297
 21
-16.3341
  0
LINE
  8
0
 10
-36.6297
 20
-16.3341
 11
-36.274
 21
-17.1106
  0
LINE
  8
0
 10
-36.274
 20
-17.1106
 11
-37.1169
 21
-18.004
  0
LINE
  8
0
 10
-37.1169
 20
-18.004
 11
-37.9099
 21
-18.9869
  0
LINE
  8
0
 10
-37.9099
 20
-18.9869
 11
-38.6543
 21
-20.0498
  0
LINE
  8
0
 10
-38.6543
 20
-20.0498
 11
-39.3499
 21
-21.186
  0
LINE
  8
0
 10
-39.3499
 20
-21.186
 11
-39.9956
 21
-22.3907
  0
LINE
  8
0
 10
-39.9956
 20
-22.3907
 11
-39.3887
 21
-23.4419
  0
LINE
  8
0
 10
-39.3887
 20
-23.4419
 11
-38.0226
 21
-23.485
  0
LINE
  8
0
 10
-38.0226
 20
-23.485
 11
-36.6908
 21
-23.4507
  0
LINE
  8
0
 10
-36.6908
 20
-23.4507
 11
-35.3981
 21
-23.3375
  0
LINE
  8
0
 10
-35.3981
 20
-23.3375
 11
-34.1503
 21
-23.1422
  0
LINE
  8
0
 10
-34.1503
 20
-23.1422
 11
-32.9552
 21
-22.8589
  0
LINE
  8
0
 10
-32.9552
 20
-22.8589
 11
-32.4332
 21
-23.5929
  0
LINE
  8
0
 10
-32.4332
 20
-23.5929
 11
-31.9238
 21
-24.2785
  0
LINE
  8
0
 10
-31.9238
 20
-24.2785
 11
-32.5625
 21
-25.3276
  0
LINE
  8
0
 10
-32.5625
 20
-25.3276
 11
-33.1339
 21
-26.4539
  0
LINE
  8
0
 10
-33.1339
 20
-26.4539
 11
-33.641
 21
-27.6483
  0
LINE
  8
0
 10
-33.641
 20
-27.6483
 11
-34.0851
 21
-28.9044
  0
LINE
  8
0
 10
-34.0851
 20
-28.9044
 11
-34.4663
 21
-30.217
  0
LINE
  8
0
 10
-34.4663
 20
-30.217
 11
-33.6542
 21
-31.119
  0
LINE
  8
0
 10
-33.6542
 20
-31.119
 11
-32.3089
 21
-30.8771
  0
LINE
  8
0
 10
-32.3089
 20
-30.8771
 11
-31.0133
 21
-30.5667
  0
LINE
  8
0
 10
-31.0133
 20
-30.5667
 11
-29.7724
 21
-30.1872
  0
LINE
  8
0
 10
-29.7724
 20
-30.1872
 11
-28.5925
 21
-29.7367
  0
LINE
  8
0
 10
-28.5925
 20
-29.7367
 11
-27.4824
 21
-29.2111
  0
LINE
  8
0
 10
-27.4824
 20
-29.2111
 11
-26.8192
 21
-29.8206
  0
LINE
  8
0
 10
-26.8192
 20
-29.8206
 11
-26.1784
 21
-30.3853
  0
LINE
  8
0
 10
-26.1784
 20
-30.3853
 11
-26.5851
 21
-31.5443
  0
LINE
  8
0
 10
-26.5851
 20
-31.5443
 11
-26.9097
 21
-32.7648
  0
LINE
  8
0
 10
-26.9097
 20
-32.7648
 11
-27.1575
 21
-34.0385
  0
LINE
  8
0
 10
-27.1575
 20
-34.0385
 11
-27.3307
 21
-35.3594
  0
LINE
  8
0
 10
-27.3307
 20
-35.3594
 11
-27.4307
 21
-36.7226
  0
LINE
  8
0
 10
-27.4307
 20
-36.7226
 11
-26.4487
 21
-37.4361
  0
LINE
  8
0
 10
-26.4487
 20
-37.4361
 11
-25.1832
 21
-36.9197
  0
LINE
  8
0
 10
-25.1832
 20
-36.9197
 11
-23.9804
 21
-36.3468
  0
LINE
  8
0
 10
-23.9804
 20
-36.3468
 11
-22.8456
 21
-35.7176
  0
LINE
  8
0
 10
-22.8456
 20
-35.7176
 11
-21.7851
 21
-35.0316
  0
LINE
  8
0
 10
-21.7851
 20
-35.0316
 11
-20.8085
 21
-34.2867
  0
LINE
  8
0
 10
-20.8085
 20
-34.2867
 11
-20.0331
 21
-34.7449
  0
LINE
  8
0
 10
-20.0331
 20
-34.7449
 11
-19.2889
 21
-35.1641
  0
LINE
  8
0
 10
-19.2889
 20
-35.1641
 11
-19.4457
 21
-36.3823
  0
LINE
  8
0
 10
-19.4457
 20
-36.3823
 11
-19.5095
 21
-37.6436
  0
LINE
  8
0
 10
-19.5095
 20
-37.6436
 11
-19.487
 21
-38.941
  0
LINE
  8
0
 10
-19.487
 20
-38.941
 11
-19.3819
 21
-40.2691
  0
LINE
  8
0
 10
-19.3819
 20
-40.2691
 11
-19.1962
 21
-41.6233
  0
LINE
  8
0
 10
-19.1962
 20
-41.6233
 11
-18.0874
 21
-42.117
  0
LINE
  8
0
 10
-18.0874
 20
-42.117
 11
-16.9568
 21
-41.3488
  0
LINE
  8
0
 10
-16.9568
 20
-41.3488
 11
-15.8994
 21
-40.5383
  0
LINE
  8
0
 10
-15.8994
 20
-40.5383
 11
-14.9202
 21
-39.6869
  0
LINE
  8
0
 10
-14.9202
 20
-39.6869
 11
-14.0256
 21
-38.7955
  0
LINE
  8
0
 10
-14.0256
 20
-38.7955
 11
-13.2252
 21
-37.8638
  0
LINE
  8
0
 10
-13.2252
 20
-37.8638
 11
-12.3714
 21
-38.1508
  0
LINE
  8
0
 10
-12.3714
 20
-38.1508
 11
-11.5564
 21
-38.4061
  0
LINE
  8
0
 10
-11.5564
 20
-38.4061
 11
-11.4565
 21
-39.6302
  0
LINE
  8
0
 10
-11.4565
 20
-39.6302
 11
-11.2567
 21
-40.8773
  0
LINE
  8
0
 10
-11.2567
 20
-40.8773
 11
-10.9649
 21
-42.1416
  0
LINE
  8
0
 10
-10.9649
 20
-42.1416
 11
-10.5859
 21
-43.4189
  0
LINE
  8
0
 10
-10.5859
 20
-43.4189
 11
-10.1227
 21
-44.7049
  0
LINE
  8
0
 10
-10.1227
 20
-44.7049
 11
-8.93552
 21
-44.9572
  0
LINE
  8
0
 10
-8.93552
 20
-44.9572
 11
-7.98933
 21
-43.9708
  0
LINE
  8
0
 10
-7.98933
 20
-43.9708
 11
-7.12361
 21
-42.9581
  0
LINE
  8
0
 10
-7.12361
 20
-42.9581
 11
-6.3428
 21
-41.9217
  0
LINE
  8
0
 10
-6.3428
 20
-41.9217
 11
-5.65306
 21
-40.8638
  0
LINE
  8
0
 10
-5.65306
 20
-40.8638
 11
-5.06389
 21
-39.7861
  0
LINE
  8
0
 10
-5.06389
 20
-39.7861
 11
-4.16907
 21
-39.8893
  0
LINE
  8
0
 10
-4.16907
 20
-39.8893
 11
-3.31876
 21
-39.9695
  0
LINE
  8
0
 10
-3.31876
 20
-39.9695
 11
-2.96652
 21
-41.1461
  0
LINE
  8
0
 10
-2.96652
 20
-41.1461
 11
-2.51181
 21
-42.3244
  0
LINE
  8
0
 10
-2.51181
 20
-42.3244
 11
-1.96355
 21
-43.5005
  0
LINE
  8
0
 10
-1.96355
 20
-43.5005
 11
-1.32729
 21
-44.671
  0
LINE
  8
0
 10
-1.32729
 20
-44.671
 11
-0.606873
 21
-45.8326
  0
LINE
  8
0
 10
-0.606873
 20
-45.8326
 11
0.606857
 21
-45.8326
  0
LINE
  8
0
 10
0.606857
 20
-45.8326
 11
1.32727
 21
-44.671
  0
LINE
  8
0
 10
-1.54507
 20
-4.75528
 11
-2.93892
 21
-4.04507
  0
LINE
  8
0
 10
-2.93892
 20
-4.04507
 11
-4.04507
 21
-2.93892
  0
LINE
  8
0
 10
-4.04507
 20
-2.93892
 11
-4.75528
 21
-1.54507
  0
LINE
  8
0
 10
-4.75528
 20
-1.54507
 11
-5
 21
0
  0
LINE
  8
0
 10
-5
 20
0
 11
-4.75528
 21
1.54507
  0
LINE
  8
0
 10
-4.75528
 20
1.54507
 11
-4.04507
 21
2.93892
  0
LINE
  8
0
 10
-4.04507
 20
2.93892
 11
-2.93892
 21
4.04507
  0
LINE
  8
0
 10
-2.93892
 20
4.04507
 11
-1.54507
 21
4.75528
  0
LINE
  8
0
 10
-1.54507
 20
4.75528
 11
0
 21
5
  0
LINE
  8
0
 10
0
 20
5
 11
1.54507
 21
4.75528
  0
LINE
  8
0
 10
1.54507
 20
4.75528
 11
2.93892
 21
4.04507
  0
LINE
  8
0
 10
2.93892
 20
4.04507
 11
4.04507
 21
2.93892
  0
LINE
  8
0
 10
4.04507
 20
2.93892
 11
4.75528
 21
1.54507
  0
LINE
  8
0
 10
4.75528
 20
1.54507
 11
5
 21
0
  0
LINE
  8
0
 10
5
 20
0
 11
4.75528
 21
-1.54507
  0
LINE
  8
0
 10
4.75528
 20
-1.54507
 11
4.04507
 21
-2.93892
  0
LINE
  8
0
 10
4.04507
 20
-2.93892
 11
2.93892
 21
-4.04507
  0
LINE
  8
0
 10
2.93892
 20
-4.04507
 11
1.54507
 21
-4.75528
  0
LINE
  8
0
 10
1.54507
 20
-4.75528
 11
0
 21
-5
  0
LINE
  8
0
 10
0
 20
-5
 11
-1.54507
 21
-4.75528
  0
ENDSEC
  0
SECTION
  2
OBJECTS
  0
DICTIONARY
  0
ENDSEC
  0
EOF
