<svg xmlns="http://www.w3.org/2000/svg" version="1.1" width="452.7mm" height="572.7mm" viewBox = " 0 0 1604.056437 2029.253637" >
<!-- Front--> 
<g transform="translate(22.5000185, 22.5000185) " > 
<polygon style="stroke:#000000; fill:none; stroke-width:0.90000074" points="0, 0 97.441025, 0 97.441025, 10.62993 194.88205, 10.62993 194.88205, 0 265.74825, 0 265.74825, 10.62993 336.61445, 10.62993 336.61445, 0 407.48064999999997, 0 407.48064999999997, 10.62993 504.921675, 10.62993 504.921675, 0 602.3627, 0 602.3627, 88.58275 591.7327700000001, 88.58275 591.7327700000001, 177.1655 602.3627, 177.1655 602.3627, 248.0317 591.7327700000001, 248.0317 591.7327700000001, 318.8979 602.3627, 318.8979 602.3627, 389.7641 591.7327700000001, 389.7641 591.7327700000001, 460.6303 602.3627, 460.6303 602.3627, 531.4965 591.7327700000001, 531.4965 591.7327700000001, 602.3626999999999 602.3627, 602.3626999999999 602.3627, 673.2289 591.7327700000001, 673.2289 591.7327700000001, 744.0951 602.3627, 744.0951 602.3627, 814.9612999999999 591.7327700000001, 814.9612999999999 591.7327700000001, 903.5440499999999 602.3627, 903.5440499999999 602.3626999999999, 992.1268 504.921675, 992.1268 504.921675, 981.4968700000001 407.48064999999997, 981.4968700000001 407.48064999999997, 992.1268 336.61445, 992.1268 336.61445, 981.4968700000001 265.74825, 981.4968700000001 265.74825, 992.1268 194.88205, 992.1268 194.88205, 981.4968700000001 97.441025, 981.4968700000001 97.441025, 992.1268 0, 992.1267999999999 0, 903.5440499999999 10.62993, 903.5440499999999 10.62993, 814.9612999999999 0, 814.9612999999999 0, 744.0951 10.62993, 744.0951 10.62993, 673.2289 0, 673.2289 0, 602.3626999999999 10.62993, 602.3626999999999 10.62993, 531.4965 0, 531.4965 0, 460.6303 10.62993, 460.6303 10.62993, 389.7641 0, 389.7641 0, 318.8979 10.62993, 318.8979 10.62993, 248.0317 0, 248.0317 0, 177.1655 10.62993, 177.1655 10.62993, 88.58275 0, 88.58275 "/> 
</g>
<!-- Back--> 
<g transform="translate(624.8627185, 22.5000185) " > 
<polygon style="stroke:#000000; fill:none; stroke-width:0.90000074" points="0, 0 97.441025, 0 97.441025, 10.62993 194.88205, 10.62993 194.88205, 0 265.74825, 0 265.74825, 10.62993 336.61445, 10.62993 336.61445, 0 407.48064999999997, 0 407.48064999999997, 10.62993 504.921675, 10.62993 504.921675, 0 602.3627, 0 602.3627, 88.58275 591.7327700000001, 88.58275 591.7327700000001, 177.1655 602.3627, 177.1655 602.3627, 248.0317 591.7327700000001, 248.0317 591.7327700000001, 318.8979 602.3627, 318.8979 602.3627, 389.7641 591.7327700000001, 389.7641 591.7327700000001, 460.6303 602.3627, 460.6303 602.3627, 531.4965 591.7327700000001, 531.4965 591.7327700000001, 602.3626999999999 602.3627, 602.3626999999999 602.3627, 673.2289 591.7327700000001, 673.2289 591.7327700000001, 744.0951 602.3627, 744.0951 602.3627, 814.9612999999999 591.7327700000001, 814.9612999999999 591.7327700000001, 903.5440499999999 602.3627, 903.5440499999999 602.3626999999999, 992.1268 504.921675, 992.1268 504.921675, 981.4968700000001 407.48064999999997, 981.4968700000001 407.48064999999997, 992.1268 336.61445, 992.1268 336.61445, 981.4968700000001 265.74825, 981.4968700000001 265.74825, 992.1268 194.88205, 992.1268 194.88205, 981.4968700000001 97.441025, 981.4968700000001 97.441025, 992.1268 0, 992.1267999999999 0, 903.5440499999999 10.62993, 903.5440499999999 10.62993, 814.9612999999999 0, 814.9612999999999 0, 744.0951 10.62993, 744.0951 10.62993, 673.2289 0, 673.2289 0, 602.3626999999999 10.62993, 602.3626999999999 10.62993, 531.4965 0, 531.4965 0, 460.6303 10.62993, 460.6303 10.62993, 389.7641 0, 389.7641 0, 318.8979 10.62993, 318.8979 10.62993, 248.0317 0, 248.0317 0, 177.1655 10.62993, 177.1655 10.62993, 88.58275 0, 88.58275 "/> 
</g>
<!-- Left--> 
<g transform="translate(1227.2254185000002, 22.5000185) " > 
<polygon style="stroke:#000000; fill:none; stroke-width:0.90000074" points="10.62993, 0 70.86619999999999, 0 70.86619999999999, 10.62993 141.73239999999998, 10.62993 141.73239999999998, 0 212.59859999999998, 0 212.59859999999998, 10.62993 283.46479999999997, 10.62993 283.46479999999997, 0 343.70107, 0 343.70107, 88.58275 354.331, 88.58275 354.331, 177.1655 343.70107, 177.1655 343.70107, 248.0317 354.331, 248.0317 354.331, 318.8979 343.70107, 318.8979 343.70107, 389.7641 354.331, 389.7641 354.331, 460.6303 343.70107, 460.6303 343.70107, 531.4965 354.331, 531.4965 354.331, 602.3626999999999 343.70107, 602.3626999999999 343.70107, 673.2289 354.331, 673.2289 354.331, 744.0951 343.70107, 744.0951 343.70107, 814.9612999999999 354.331, 814.9612999999999 354.331, 903.5440499999999 343.70107, 903.5440499999999 343.70106999999996, 992.1268 283.46479999999997, 992.1268 283.46479999999997, 981.4968700000001 212.59859999999998, 981.4968700000001 212.59859999999998, 992.1268 141.73239999999998, 992.1268 141.73239999999998, 981.4968700000001 70.86619999999999, 981.4968700000001 70.86619999999999, 992.1268 10.62993, 992.1267999999999 10.62993, 903.5440499999999 0, 903.5440499999999 0, 814.9612999999999 10.62993, 814.9612999999999 10.62993, 744.0951 0, 744.0951 0, 673.2289 10.62993, 673.2289 10.62993, 602.3626999999999 0, 602.3626999999999 0, 531.4965 10.62993, 531.4965 10.62993, 460.6303 0, 460.6303 0, 389.7641 10.62993, 389.7641 10.62993, 318.8979 0, 318.8979 0, 248.0317 10.62993, 248.0317 10.62993, 177.1655 0, 177.1655 0, 88.58275 10.62993, 88.58275 "/> 
</g>
<!-- Right--> 
<g transform="translate(1227.2254185000002, 1014.6268185) " > 
<polygon style="stroke:#000000; fill:none; stroke-width:0.90000074" points="10.62993, 0 70.86619999999999, 0 70.86619999999999, 10.62993 141.73239999999998, 10.62993 141.73239999999998, 0 212.59859999999998, 0 212.59859999999998, 10.62993 283.46479999999997, 10.62993 283.46479999999997, 0 343.70107, 0 343.70107, 88.58275 354.331, 88.58275 354.331, 177.1655 343.70107, 177.1655 343.70107, 248.0317 354.331, 248.0317 354.331, 318.8979 343.70107, 318.8979 343.70107, 389.7641 354.331, 389.7641 354.331, 460.6303 343.70107, 460.6303 343.70107, 531.4965 354.331, 531.4965 354.331, 602.3626999999999 343.70107, 602.3626999999999 343.70107, 673.2289 354.331, 673.2289 354.331, 744.0951 343.70107, 744.0951 343.70107, 814.9612999999999 354.331, 814.9612999999999 354.331, 903.5440499999999 343.70107, 903.5440499999999 343.70106999999996, 992.1268 283.46479999999997, 992.1268 283.46479999999997, 981.4968700000001 212.59859999999998, 981.4968700000001 212.59859999999998, 992.1268 141.73239999999998, 992.1268 141.73239999999998, 981.4968700000001 70.86619999999999, 981.4968700000001 70.86619999999999, 992.1268 10.62993, 992.1267999999999 10.62993, 903.5440499999999 0, 903.5440499999999 0, 814.9612999999999 10.62993, 814.9612999999999 10.62993, 744.0951 0, 744.0951 0, 673.2289 10.62993, 673.2289 10.62993, 602.3626999999999 0, 602.3626999999999 0, 531.4965 10.62993, 531.4965 10.62993, 460.6303 0, 460.6303 0, 389.7641 10.62993, 389.7641 10.62993, 318.8979 0, 318.8979 0, 248.0317 10.62993, 248.0317 10.62993, 177.1655 0, 177.1655 0, 88.58275 10.62993, 88.58275 "/> 
</g>
<!-- Top--> 
<g transform="translate(22.5000185, 1014.6268185) " > 
<polygon style="stroke:#000000; fill:none; stroke-width:0.90000074" points="10.62993, 10.62993 97.441025, 10.62993 97.441025, 0 194.88205, 0 194.88205, 10.62993 265.74825, 10.62993 265.74825, 0 336.61445, 0 336.61445, 10.62993 407.48064999999997, 10.62993 407.48064999999997, 0 504.921675, 0 504.921675, 10.62993 591.7327700000001, 10.62993 591.7327700000001, 70.86619999999999 602.3627, 70.86619999999999 602.3627, 141.73239999999998 591.7327700000001, 141.73239999999998 591.7327700000001, 212.59859999999998 602.3627, 212.59859999999998 602.3627, 283.46479999999997 591.7327700000001, 283.46479999999997 591.73277, 343.70107 504.921675, 343.70107 504.921675, 354.331 407.48064999999997, 354.331 407.48064999999997, 343.70107 336.61445, 343.70107 336.61445, 354.331 265.74825, 354.331 265.74825, 343.70107 194.88205, 343.70107 194.88205, 354.331 97.441025, 354.331 97.441025, 343.70107 10.62993, 343.70106999999996 10.62993, 283.46479999999997 0, 283.46479999999997 0, 212.59859999999998 10.62993, 212.59859999999998 10.62993, 141.73239999999998 0, 141.73239999999998 0, 70.86619999999999 10.62993, 70.86619999999999 "/> 
</g>
<!-- Bottom--> 
<g transform="translate(624.8627185, 1014.6268185) " > 
<polygon style="stroke:#000000; fill:none; stroke-width:0.90000074" points="10.62993, 10.62993 97.441025, 10.62993 97.441025, 0 194.88205, 0 194.88205, 10.62993 265.74825, 10.62993 265.74825, 0 336.61445, 0 336.61445, 10.62993 407.48064999999997, 10.62993 407.48064999999997, 0 504.921675, 0 504.921675, 10.62993 591.7327700000001, 10.62993 591.7327700000001, 70.86619999999999 602.3627, 70.86619999999999 602.3627, 141.73239999999998 591.7327700000001, 141.73239999999998 591.7327700000001, 212.59859999999998 602.3627, 212.59859999999998 602.3627, 283.46479999999997 591.7327700000001, 283.46479999999997 591.73277, 343.70107 504.921675, 343.70107 504.921675, 354.331 407.48064999999997, 354.331 407.48064999999997, 343.70107 336.61445, 343.70107 336.61445, 354.331 265.74825, 354.331 265.74825, 343.70107 194.88205, 343.70107 194.88205, 354.331 97.441025, 354.331 97.441025, 343.70107 10.62993, 343.70106999999996 10.62993, 283.46479999999997 0, 283.46479999999997 0, 212.59859999999998 10.62993, 212.59859999999998 10.62993, 141.73239999999998 0, 141.73239999999998 0, 70.86619999999999 10.62993, 70.86619999999999 "/> 
</g></svg>