<?xml version="1.0" encoding="utf-8"?>
<!-- Generator: Adobe Illustrator 15.1.0, SVG Export Plug-In . SVG Version: 6.00 Build 0)  -->
<!DOCTYPE svg PUBLIC "-//W3C//DTD SVG 1.1//EN" "http://www.w3.org/Graphics/SVG/1.1/DTD/svg11.dtd">
<svg version="1.1" id="Layer_1" xmlns="http://www.w3.org/2000/svg" xmlns:xlink="http://www.w3.org/1999/xlink" x="0px" y="0px"
	 width="1708.317px" height="2048px" viewBox="-1105.755 -693.248 1708.317 2048"
	 enable-background="new -1105.755 -693.248 1708.317 2048" xml:space="preserve">
<g display="none">
	<polyline display="inline" fill="none" points="3666.403,2050.386 3663.301,2049.356 3660.202,2047.284 3656.049,2045.206 
		3652.948,2044.187 3652.948,2042.104 3652.948,2040.03 3656.049,2037.979 3659.149,2035.878 3662.274,2033.825 3665.381,2032.774 
		3668.479,2029.673 3668.479,2026.548 3665.381,2024.493 3661.227,2023.446 3658.122,2022.419 3654.997,2020.341 3650.87,2019.319 
		3650.87,2017.216 3650.87,2015.165 3653.969,2013.087 3657.075,2011.013 3659.149,2008.937 3662.274,2006.86 3665.381,2003.759 
		3664.327,2000.653 3661.227,1999.632 3657.075,1998.581 3653.969,1997.528 3649.817,1996.501 3646.715,1995.479 3645.688,1993.376 
		3645.688,1991.327 3647.743,1989.249 3650.87,1986.146 3652.948,1984.069 3656.049,1980.968 3658.122,1978.868 3657.075,1974.741 	
		"/>
	<polyline display="inline" fill="none" points="3657.075,1974.741 3653.969,1973.688 3649.817,1973.688 3645.688,1972.663 
		3642.563,1972.663 3639.461,1972.663 3638.411,1970.589 3637.383,1968.511 3639.461,1965.409 3641.538,1963.335 3644.641,1960.229 
		3646.715,1957.128 3648.795,1954.003 3646.715,1950.901 3643.616,1949.849 3639.461,1949.849 3636.362,1949.849 3632.208,1949.849 
		3629.106,1949.849 3628.057,1947.798 3627.03,1946.774 3629.106,1943.646 3630.129,1940.521 3632.208,1937.442 3634.284,1934.317 
		3636.362,1931.212 3634.284,1927.063 3630.129,1928.11 3627.03,1928.11 3622.877,1928.11 3619.776,1929.138 3615.624,1929.138 
		3614.571,1927.063 3613.545,1926.011 3614.571,1922.937 3616.649,1919.806 3617.698,1915.651 3619.776,1912.552 3620.803,1909.45 
		3618.723,1906.325 3614.571,1906.325 3611.471,1907.372 3607.317,1908.423 3604.217,1909.45 3601.112,1910.476 3599.038,1908.423 
		3597.987,1907.372 3599.038,1903.22 3600.063,1900.118 3601.112,1896.991 3602.139,1892.864 3603.19,1889.765 3600.063,1886.638 
		3596.963,1887.659 3593.858,1888.712 3589.706,1890.786 3586.604,1891.813 3583.479,1892.864 3581.399,1891.813 3579.325,1889.765 
		3580.377,1886.638 3581.399,1883.532 3582.452,1879.38 3582.452,1876.278 3583.479,1872.126 3580.377,1870.077 3577.272,1871.099 
		3573.12,1873.153 3569.995,1874.206 3566.893,1876.278 3563.792,1878.354 3561.713,1876.278 3560.688,1875.253 3560.688,1872.126 
		3560.688,1867.974 3561.713,1864.872 3561.713,1860.745 3561.713,1857.618 3558.614,1855.567 3555.487,1857.618 3552.385,1858.642 
		3549.282,1860.745 3546.155,1862.794 3543.055,1864.872 3540.975,1863.847 3538.901,1862.794 3538.901,1859.692 3538.901,1856.593 
		3538.901,1852.438 3538.901,1848.286 3537.875,1845.187 3534.772,1843.104 3531.647,1845.187 3528.542,1848.286 3526.467,1850.364 
		3523.368,1852.438 3520.237,1855.567 3518.188,1854.513 3516.114,1853.466 3516.114,1850.364 3516.114,1846.237 3515.061,1843.104 
		3514.034,1838.954 3514.034,1835.854 3509.881,1834.802 3506.782,1836.907 3504.704,1840.007 3501.602,1842.085 3499.528,1845.187 
		3497.45,1848.286 3495.375,1847.261 3493.297,1847.261 3492.27,1843.104 3491.223,1840.007 3490.196,1835.854 3489.143,1832.753 
		3488.118,1829.628 3483.965,1828.601 3481.891,1831.729 3479.813,1833.78 3477.739,1836.907 	"/>
	<polyline display="inline" fill="none" points="3477.739,1836.907 3475.688,1840.007 3473.61,1843.104 3471.536,1843.104 
		3468.405,1843.104 3467.383,1838.954 3466.356,1835.854 3465.305,1832.753 3463.229,1829.628 3462.204,1825.499 3458.051,1825.499 
		3455.971,1828.601 3453.897,1831.729 3451.819,1834.802 3450.797,1837.933 3448.719,1841.062 3446.645,1841.062 3444.565,1841.062 
		3442.491,1837.933 3441.465,1834.802 3439.387,1831.729 3437.313,1828.601 3435.233,1825.499 3431.112,1825.499 3430.059,1829.628 
		3427.981,1832.753 3426.958,1835.854 3425.932,1838.954 3424.879,1843.104 3421.78,1843.104 3419.7,1843.104 3417.625,1840.007 
		3415.547,1836.907 3413.473,1833.78 3411.42,1831.729 3409.321,1828.601 3405.168,1829.628 3404.141,1832.753 3403.114,1835.854 
		3402.092,1840.007 3401.04,1843.104 3399.989,1847.261 3397.938,1847.261 3395.836,1848.286 3393.788,1845.187 3391.708,1842.085 
		3388.608,1840.007 3386.534,1836.907 3383.428,1834.802 3379.274,1835.854 3379.274,1838.954 3378.252,1843.104 3377.202,1846.237 
		3377.202,1850.364 3377.202,1853.466 3375.124,1854.513 3373.049,1855.567 3369.948,1852.438 3366.817,1850.364 3364.768,1848.286 
		3361.643,1845.187 3358.538,1843.104 3355.436,1845.187 3354.383,1848.286 3354.383,1852.438 3354.383,1856.593 3354.383,1859.692 
		3354.383,1862.794 3352.309,1863.847 3350.26,1864.872 3347.129,1862.794 3344.03,1860.745 3340.928,1858.642 3337.803,1857.618 
		3334.698,1855.567 3331.598,1857.618 3331.598,1860.745 3331.598,1864.872 3332.624,1867.974 3332.624,1872.126 3332.624,1875.253 
		3331.598,1876.278 3329.497,1878.354 3326.418,1876.278 3323.292,1874.206 3320.165,1873.153 3316.038,1871.099 3312.936,1870.077 
		3309.807,1872.126 3310.834,1876.278 3310.834,1879.38 3311.885,1883.532 3312.936,1886.638 3313.959,1889.765 3311.885,1891.813 
		3309.807,1892.864 3306.706,1891.813 3303.604,1890.786 3299.452,1888.712 3296.327,1887.659 3293.225,1886.638 3290.12,1889.765 
		3291.145,1892.864 3292.198,1896.991 3293.225,1900.118 3294.272,1903.22 3295.299,1907.372 3294.272,1908.423 3292.198,1910.476 
		3289.098,1909.45 3285.967,1908.423 3281.813,1907.372 3278.713,1906.325 3274.586,1906.325 3272.487,1909.45 3273.536,1912.552 
		3275.614,1915.651 3276.639,1919.806 3278.713,1922.937 3279.766,1926.011 3278.713,1928.11 	"/>
	<polyline display="inline" fill="none" points="3278.713,1928.11 3277.663,1929.138 3273.536,1929.138 3270.434,1928.11 
		3266.282,1928.11 3263.155,1928.11 3259.028,1927.063 3256.954,1931.212 3259.028,1934.317 3261.104,1937.442 3263.155,1940.521 
		3264.208,1943.646 3266.282,1946.774 3265.258,1948.823 3264.208,1949.849 3261.104,1949.849 3256.954,1949.849 3253.823,1949.849 
		3249.696,1949.849 3246.594,1950.901 3244.495,1954.003 3246.594,1957.128 3248.647,1960.229 3251.772,1963.335 3253.823,1965.409 
		3255.926,1968.511 3254.874,1970.589 3253.823,1972.663 3250.723,1972.663 3247.622,1972.663 3243.469,1973.688 3239.315,1973.688 
		3236.215,1974.741 3235.163,1978.868 3237.262,1980.968 3240.368,1984.069 3242.44,1986.146 3245.543,1989.249 3247.622,1991.327 
		3247.622,1993.376 3246.594,1995.479 3243.469,1996.501 3239.315,1997.528 3236.215,1998.581 3232.086,1999.632 3228.956,2000.653 
		3227.934,2003.759 3231.036,2006.86 3234.135,2008.937 3236.215,2011.013 3239.315,2013.087 3242.44,2015.165 3242.44,2017.216 
		3242.44,2019.319 3238.29,2020.341 3235.163,2022.419 3232.086,2023.446 3227.934,2024.493 3224.803,2026.548 3224.803,2029.673 
		3227.934,2032.774 3231.036,2033.825 3234.135,2035.878 3237.262,2037.979 3240.368,2040.03 3240.368,2042.104 3240.368,2044.187 
		3237.262,2045.206 3233.108,2047.284 3229.983,2049.356 3226.881,2050.386 3223.782,2052.487 3223.782,2056.612 3226.881,2058.69 
		3231.036,2059.718 3234.135,2061.792 3237.262,2062.845 3240.368,2063.872 3240.368,2065.944 3241.415,2069.046 3238.29,2070.073 
		3235.163,2072.177 3232.086,2074.228 3228.956,2076.304 3225.831,2079.405 3226.881,2082.532 3229.983,2084.579 3233.108,2085.632 
		3237.262,2086.687 3240.368,2087.71 3243.469,2088.729 3244.495,2090.837 3244.495,2092.886 3242.44,2094.964 3239.315,2097.038 
		3236.215,2100.146 3234.135,2102.218 3231.036,2105.343 3232.086,2108.423 3236.215,2109.472 3239.315,2110.521 3243.469,2110.521 
		3246.594,2111.55 3249.696,2111.55 3250.723,2114.649 3251.772,2116.729 3248.647,2118.804 3246.594,2120.882 3244.495,2123.981 
		3241.415,2127.083 3239.315,2130.21 3240.368,2133.312 3244.495,2134.362 3248.647,2134.362 3251.772,2134.362 3255.926,2134.362 
		3259.028,2134.362 3260.053,2136.415 3261.104,2138.489 3259.028,2141.591 3256.954,2144.72 	"/>
	<polyline display="inline" fill="none" points="3256.954,2144.72 3254.874,2147.821 3252.801,2150.923 3250.723,2154.048 
		3252.801,2157.153 3255.926,2157.153 3260.053,2157.153 3263.155,2157.153 3267.307,2157.153 3270.434,2156.104 3271.461,2158.2 
		3273.536,2160.255 3271.461,2163.38 3269.381,2166.479 3267.307,2169.583 3266.282,2172.714 3264.208,2176.841 3266.282,2178.915 
		3270.434,2178.915 3274.586,2178.915 3277.663,2177.888 3280.792,2176.841 3284.944,2176.841 3285.967,2177.888 3288.045,2179.94 
		3285.967,2183.065 3284.944,2186.169 3282.866,2190.296 3281.813,2193.425 3280.792,2196.552 3283.918,2199.628 3286.993,2198.603 
		3291.145,2197.579 3294.272,2196.552 3297.377,2195.499 3301.532,2194.448 3302.553,2196.552 3304.631,2197.579 3303.604,2200.679 
		3302.553,2204.833 3301.532,2207.935 3300.479,2212.085 3299.452,2215.188 3302.553,2218.288 3305.655,2216.237 3309.807,2215.188 
		3312.936,2214.136 3316.038,2212.085 3319.139,2211.062 3321.217,2212.085 3323.292,2213.112 3322.264,2217.265 3321.217,2220.366 
		3321.217,2224.521 3321.217,2227.62 3320.165,2231.771 3323.292,2233.853 3327.444,2231.771 3330.545,2230.745 3333.649,2228.646 
		3336.774,2226.593 3339.875,2224.521 3341.956,2225.571 3344.03,2226.593 3342.977,2230.745 3342.977,2233.853 3342.977,2237.976 
		3342.977,2241.104 3342.977,2245.259 3346.108,2247.306 3350.26,2245.259 3352.309,2243.153 3355.436,2241.104 3358.538,2237.976 
		3361.643,2235.925 3363.717,2236.952 3365.795,2237.976 3365.795,2241.104 3365.795,2245.259 3365.795,2248.356 3366.817,2252.485 
		3366.817,2255.61 3370.969,2257.688 3374.1,2254.585 3376.149,2252.485 3379.274,2250.431 3381.329,2247.306 3384.456,2245.259 
		3386.534,2245.259 3388.608,2246.28 3388.608,2249.409 3389.633,2253.538 3390.657,2256.638 3391.708,2260.79 3392.76,2263.917 
		3395.836,2264.944 3398.961,2261.815 3401.04,2259.765 3403.114,2256.638 3406.219,2253.538 3408.293,2250.431 3410.372,2251.458 
		3412.446,2251.458 3413.473,2254.585 3414.5,2258.712 3415.547,2261.815 3416.6,2265.97 3418.653,2269.097 3421.78,2269.097 
		3424.879,2265.97 3426.958,2262.864 3429.032,2259.765 3430.059,2256.638 3432.133,2253.538 3434.211,2254.585 3436.286,2254.585 
		3438.366,2257.688 3439.387,2260.79 3441.465,2263.917 3442.491,2266.993 3444.565,2271.146 	"/>
	<polyline display="inline" fill="none" points="3444.565,2271.146 3448.719,2271.146 3450.797,2266.993 3451.819,2263.917 
		3453.897,2260.79 3454.95,2257.688 3457.022,2254.585 3459.102,2254.585 3461.151,2253.538 3463.229,2256.638 3464.278,2259.765 
		3466.356,2262.864 3468.405,2265.97 3471.536,2269.097 3474.637,2269.097 3476.711,2265.97 3477.739,2261.815 3478.79,2258.712 
		3479.813,2254.585 3480.864,2251.458 3482.942,2251.458 3484.993,2250.431 3487.071,2253.538 3490.196,2256.638 3492.27,2259.765 
		3494.323,2261.815 3497.45,2264.944 3500.549,2263.917 3501.602,2260.79 3502.627,2256.638 3503.655,2253.538 3504.704,2249.409 
		3504.704,2246.28 3506.782,2245.259 3508.854,2245.259 3511.961,2247.306 3514.034,2250.431 3517.135,2252.485 3519.213,2254.585 
		3522.315,2257.688 3526.467,2255.61 3526.467,2252.485 3527.495,2248.356 3527.495,2245.259 3527.495,2241.104 3527.495,2237.976 
		3529.569,2236.952 3531.647,2235.925 3534.772,2237.976 3537.875,2241.104 3540.975,2243.153 3543.055,2245.259 3547.206,2247.306 
		3550.307,2245.259 3550.307,2241.104 3550.307,2237.976 3550.307,2233.853 3550.307,2230.745 3549.282,2226.593 3551.358,2225.571 
		3553.407,2224.521 3556.54,2226.593 3559.639,2228.646 3562.741,2230.745 3565.866,2231.771 3569.995,2233.853 3573.12,2231.771 
		3572.073,2227.62 3572.073,2224.521 3572.073,2220.366 3571.045,2217.265 3569.995,2213.112 3572.073,2212.085 3574.145,2211.062 
		3577.272,2212.085 3580.377,2214.136 3583.479,2215.188 3587.631,2216.237 3590.731,2218.288 3593.858,2215.188 3592.811,2212.085 
		3591.784,2207.935 3590.731,2204.833 3589.706,2200.679 3588.659,2197.579 3590.731,2196.552 3591.784,2194.448 3595.913,2195.499 
		3599.038,2196.552 3602.139,2197.579 3606.292,2198.603 3609.393,2199.628 3612.497,2196.552 3611.471,2193.425 3610.444,2190.296 
		3608.37,2186.169 3607.317,2183.065 3605.239,2179.94 3607.317,2177.888 3608.37,2176.841 3612.497,2176.841 3615.624,2177.888 
		3618.723,2178.915 3622.877,2178.915 3627.03,2178.915 3629.106,2176.841 3627.03,2172.714 3625.977,2169.583 3623.903,2166.479 
		3621.825,2163.38 3619.776,2160.255 3621.825,2158.2 3622.877,2156.104 3625.977,2157.153 3630.129,2157.153 3633.237,2157.153 
		3637.383,2157.153 3640.489,2157.153 3642.563,2154.048 3640.489,2150.923 3638.411,2147.821 	"/>
	<polyline display="inline" fill="none" points="3638.411,2147.821 3636.362,2144.72 3634.284,2141.591 3632.208,2138.489 
		3633.237,2136.415 3634.284,2134.362 3637.383,2134.362 3641.538,2134.362 3644.641,2134.362 3648.795,2134.362 3652.948,2133.312 
		3653.969,2130.21 3651.895,2127.083 3648.795,2123.981 3646.715,2120.882 3644.641,2118.804 3641.538,2116.729 3642.563,2113.624 
		3643.616,2111.55 3646.715,2111.55 3649.817,2110.521 3653.969,2110.521 3657.075,2109.472 3661.227,2108.423 3662.274,2105.343 
		3659.149,2102.218 3657.075,2100.146 3653.969,2097.038 3650.87,2094.964 3648.795,2092.886 3648.795,2090.837 3649.817,2088.729 
		3652.948,2087.71 3656.049,2086.687 3660.202,2085.632 3663.301,2084.579 3666.403,2082.532 3667.456,2079.405 3664.327,2076.304 
		3661.227,2074.228 3658.122,2072.177 3654.997,2070.073 3651.895,2069.046 3652.948,2065.944 3652.948,2063.872 3656.049,2062.845 
		3659.149,2061.792 3662.274,2059.718 3666.403,2058.69 3669.534,2056.612 3669.534,2052.487 3666.403,2050.386 	"/>
	<polygon display="inline" fill="none" points="3460.125,2052.487 3458.051,2056.612 3454.95,2059.718 3450.797,2061.792 
		3446.645,2061.792 3442.491,2061.792 3438.366,2059.718 3435.233,2056.612 3433.159,2052.487 3432.133,2048.333 3433.159,2043.159 
		3435.233,2040.03 3438.366,2036.927 3442.491,2034.854 3446.645,2033.825 3450.797,2034.854 3454.95,2036.927 3458.051,2040.03 
		3460.125,2044.187 3461.151,2048.333 	"/>
	<polyline display="inline" fill="none" points="3573.12,2379.987 3569.995,2378.964 3566.893,2376.862 3562.741,2375.835 
		3559.639,2374.813 3559.639,2371.685 3559.639,2369.634 3562.741,2368.581 3564.813,2366.507 3567.944,2364.429 3571.045,2361.327 
		3574.145,2359.249 3573.12,2355.126 3568.967,2354.073 3565.866,2353.021 3562.741,2351.995 3558.614,2351.995 3555.487,2350.972 
		3554.459,2348.896 3553.407,2346.819 3556.54,2344.741 3558.614,2341.644 3561.713,2339.563 3563.792,2336.462 3565.866,2333.335 
		3564.813,2330.235 3560.688,2329.185 3556.54,2329.185 3553.407,2329.185 3549.282,2329.185 3546.155,2329.185 3545.127,2327.13 
		3544.104,2325.056 3546.155,2322.979 3547.206,2319.853 3549.282,2316.772 3551.358,2312.622 3552.385,2309.497 3550.307,2306.396 
		3546.155,2306.396 3543.055,2307.44 3538.901,2308.47 3535.801,2308.47 3532.696,2310.548 3530.622,2308.47 3529.569,2306.396 
		3530.622,2303.29 3531.647,2300.163 3532.696,2296.011 3533.721,2292.938 	"/>
	<polyline display="inline" fill="none" points="3533.721,2292.938 3534.772,2288.782 3531.647,2286.704 3528.542,2287.757 
		3524.389,2288.782 3521.288,2290.831 3518.188,2291.884 3515.061,2293.962 3512.983,2291.884 3510.909,2290.831 3511.961,2287.757 
		3512.983,2283.604 3512.983,2280.479 3512.983,2276.325 3512.983,2273.226 3509.881,2271.146 3506.782,2273.226 3503.655,2275.298 
		3500.549,2277.378 3497.45,2279.452 3495.375,2281.503 3492.27,2280.479 3490.196,2279.452 3490.196,2276.325 3490.196,2272.198 
		3490.196,2269.097 3489.143,2264.944 3488.118,2261.815 3484.993,2260.79 3481.891,2262.864 3479.813,2264.944 3476.711,2268.044 
		3474.637,2271.146 3472.559,2273.226 3470.483,2273.226 3467.383,2272.198 3467.383,2269.097 3466.356,2265.97 3465.305,2262.864 
		3463.229,2258.712 3462.204,2255.61 3458.051,2254.585 3455.971,2257.688 3453.897,2260.79 3451.819,2263.917 3450.797,2268.044 
		3448.719,2271.146 3446.645,2271.146 3444.565,2271.146 3442.491,2268.044 3441.465,2263.917 3439.387,2260.79 3437.313,2257.688 
		3435.233,2254.585 3431.112,2255.61 3430.059,2258.712 3427.981,2262.864 3426.958,2265.97 3425.932,2269.097 3425.932,2272.198 
		3422.805,2273.226 3420.752,2273.226 3418.653,2271.146 3416.6,2268.044 3413.473,2264.944 3411.42,2262.864 3408.293,2260.79 
		3405.168,2261.815 3404.141,2264.944 3403.114,2269.097 3403.114,2272.198 3403.114,2276.325 3403.114,2279.452 3399.989,2280.479 
		3397.938,2281.503 3395.836,2279.452 3392.76,2277.378 3389.633,2275.298 3386.534,2273.226 3383.428,2271.146 3380.303,2273.226 
		3380.303,2276.325 3380.303,2280.479 3380.303,2283.604 3381.329,2287.757 3382.381,2290.831 3380.303,2292.938 3378.252,2293.962 
		3375.124,2291.884 3371.997,2290.831 3368.92,2288.782 3364.768,2287.757 3361.643,2286.704 3358.538,2288.782 3359.588,2292.938 
		3360.616,2296.011 3361.643,2300.163 3362.665,2303.29 3363.717,2306.396 3362.665,2308.47 3360.616,2310.548 3357.489,2308.47 
		3354.383,2308.47 3350.26,2307.44 3347.129,2306.396 3342.977,2306.396 3340.928,2309.497 3341.956,2312.622 3344.03,2316.772 
		3346.108,2319.853 3347.129,2322.979 3349.209,2325.056 3348.157,2327.13 3347.129,2329.185 3344.03,2329.185 3339.875,2329.185 
		3336.774,2329.185 3332.624,2329.185 3328.471,2330.235 3327.444,2333.335 3329.497,2336.462 	"/>
	<polyline display="inline" fill="none" points="3329.497,2336.462 3331.598,2339.563 3334.698,2341.644 3336.774,2344.741 
		3339.875,2346.819 3338.825,2348.896 3337.803,2350.972 3334.698,2351.995 3330.545,2351.995 3327.444,2353.021 3324.317,2354.073 
		3320.165,2355.126 3319.139,2359.249 3322.264,2361.327 3325.37,2364.429 3328.471,2366.507 3330.545,2368.581 3333.649,2369.634 
		3333.649,2372.708 3333.649,2374.813 3330.545,2375.835 3326.418,2376.862 3323.292,2378.964 3320.165,2379.987 3317.09,2382.04 
		3317.09,2386.19 3320.165,2388.269 3323.292,2389.319 3326.418,2391.368 3330.545,2392.421 3333.649,2393.472 3333.649,2395.521 
		3333.649,2398.649 3330.545,2399.673 3328.471,2401.753 3325.37,2403.827 3322.264,2406.935 3319.139,2409.005 3320.165,2413.157 
		3324.317,2414.187 3327.444,2415.212 3330.545,2416.259 3334.698,2416.259 3337.803,2416.259 3338.825,2419.364 3339.875,2421.438 
		3336.774,2423.519 3334.698,2426.618 3331.598,2428.69 3329.497,2431.823 3327.444,2434.896 3328.471,2438.022 3332.624,2439.05 
		3336.774,2439.05 3339.875,2439.05 3344.03,2439.05 3347.129,2439.05 3348.157,2441.126 3349.209,2443.204 3347.129,2445.274 
		3346.108,2448.378 3344.03,2451.509 3341.956,2455.636 3340.928,2458.737 3342.977,2461.864 3347.129,2461.864 3350.26,2460.837 
		3354.383,2459.79 3357.489,2458.737 3360.616,2457.71 3362.665,2459.79 3363.717,2461.864 3362.665,2464.964 3361.643,2468.063 
		3360.616,2472.218 3359.588,2475.351 3358.538,2479.478 3361.643,2481.55 3364.768,2480.522 3368.92,2479.478 3371.997,2477.396 
		3375.124,2476.37 3378.252,2474.298 3380.303,2476.37 3382.381,2477.396 3381.329,2480.522 3380.303,2484.677 3380.303,2487.755 
		3380.303,2491.909 3380.303,2495.034 3383.428,2497.083 3386.534,2495.034 3389.633,2492.931 3392.76,2490.882 3395.836,2488.804 
		3397.938,2486.729 3401.04,2487.755 3403.114,2488.804 3403.114,2491.909 3403.114,2496.063 3403.114,2499.188 3404.141,2503.313 
		3405.168,2506.417 3408.293,2507.468 3411.42,2505.39 3413.473,2502.263 3416.6,2500.214 3418.653,2497.083 3420.752,2493.981 
		3422.805,2495.034 3425.932,2495.034 3425.932,2499.188 3426.958,2502.263 3427.981,2505.39 3430.059,2509.542 3431.112,2512.646 
		3435.233,2512.646 3437.313,2510.569 3439.387,2507.468 3441.465,2503.313 3442.491,2500.214 	"/>
	<polyline display="inline" fill="none" points="3442.491,2500.214 3444.565,2497.083 3446.645,2497.083 3448.719,2497.083 
		3450.797,2500.214 3451.819,2503.313 3453.897,2507.468 3455.971,2510.569 3458.051,2512.646 3462.204,2512.646 3463.229,2509.542 
		3465.305,2505.39 3466.356,2502.263 3467.383,2499.188 3467.383,2495.034 3470.483,2495.034 3472.559,2493.981 3474.637,2497.083 
		3476.711,2500.214 3479.813,2502.263 3481.891,2505.39 3484.993,2507.468 3488.118,2506.417 3489.143,2503.313 3490.196,2499.188 
		3490.196,2496.063 3490.196,2491.909 3490.196,2488.804 3493.297,2487.755 3495.375,2486.729 3497.45,2488.804 3500.549,2490.882 
		3503.655,2492.931 3506.782,2495.034 3509.881,2497.083 3512.983,2495.034 3512.983,2491.909 3512.983,2487.755 3512.983,2484.677 
		3511.961,2480.522 3510.909,2477.396 3512.983,2475.351 3515.061,2474.298 3518.188,2476.37 3521.288,2477.396 3524.389,2479.478 
		3528.542,2480.522 3531.647,2481.55 3534.772,2479.478 3533.721,2475.351 3532.696,2472.218 3531.647,2468.063 3530.622,2464.964 
		3529.569,2461.864 3530.622,2459.79 3532.696,2457.71 3535.801,2458.737 3538.901,2459.79 3543.055,2460.837 3546.155,2461.864 
		3550.307,2461.864 3552.385,2458.737 3551.358,2455.636 3549.282,2451.509 3547.206,2448.378 3546.155,2445.274 3544.104,2443.204 
		3545.127,2441.126 3546.155,2439.05 3549.282,2439.05 3553.407,2439.05 3556.54,2439.05 3560.688,2439.05 3564.813,2438.022 
		3565.866,2434.896 3563.792,2431.823 3561.713,2428.69 3558.614,2426.618 3556.54,2423.519 3553.407,2421.438 3554.459,2419.364 
		3555.487,2416.259 3558.614,2416.259 3562.741,2416.259 3565.866,2415.212 3568.967,2414.187 3573.12,2413.157 3574.145,2409.005 
		3571.045,2406.935 3567.944,2403.827 3564.813,2401.753 3562.741,2399.673 3559.639,2398.649 3559.639,2395.521 3559.639,2393.472 
		3562.741,2392.421 3566.893,2391.368 3569.995,2389.319 3573.12,2388.269 3576.225,2386.19 3576.225,2382.04 3573.12,2379.987 	"/>
	<polyline display="inline" fill="none" points="3460.125,2388.269 3458.051,2392.421 3454.95,2395.521 3450.797,2397.601 
		3446.645,2398.649 3442.491,2397.601 3438.366,2395.521 3435.233,2392.421 3433.159,2388.269 3432.133,2384.14 3433.159,2379.987 
		3435.233,2375.835 3438.366,2372.708 3442.491,2370.659 3446.645,2369.634 3450.797,2370.659 3454.95,2372.708 3458.051,2375.835 
		3460.125,2379.987 3461.151,2384.14 	"/>
	<line display="inline" fill="none" x1="3461.151" y1="2384.14" x2="3460.125" y2="2388.269"/>
</g>
<polyline display="none" fill="none" points="-2785.688,2392.451 -2755.468,2392.451 -2732.498,2392.451 -2702.268,2392.451 "/>
<path fill="#C4C9BA" stroke="#000000" stroke-width="0.9" d="M238.29,506.041h325.984v785.18H238.29V506.041z M251.046,534.369
	v12.756h8.504v-25.512h-8.504V534.369 M251.046,760.195v12.756h8.504v-25.512h-8.504V760.195 M251.046,986.023v12.756h8.504v-25.512
	h-8.504V986.023 M251.046,1211.85v12.756h8.504v-25.512h-8.504V1211.85 M551.519,1211.85v-12.756h-8.504v25.512h8.504V1211.85
	 M551.519,986.023v-12.757h-8.504v25.513h8.504V986.023 M551.519,760.195v-12.756h-8.504v25.512h8.504V760.195 M551.519,534.369
	v-12.756h-8.504v25.512h8.504V534.369 M397.03,534.369v12.756h8.504v-25.512h-8.504V534.369 M397.03,760.195v12.756h8.504v-25.512
	h-8.504V760.195 M397.03,986.023v12.756h8.504v-25.512h-8.504V986.023 M397.03,1211.85v12.756h8.504v-25.512h-8.504V1211.85"/>
<path fill="#C4C9BA" stroke="#000000" stroke-width="0.9" d="M-105.985,446.35v-13.604c0.193-1.037,1.004-1.849,2.041-2.041
	l32.314-3.146v-2.723c0.193-1.035,1.004-1.848,2.041-2.041h6.803c1.037,0.193,1.848,1.006,2.041,2.041v21.26L-105.985,446.35"/>
<circle fill="#C4C9BA" stroke="#000000" stroke-width="0.9" cx="-100.374" cy="437.846" r="2.211"/>
<path fill="#C4C9BA" stroke="#000000" stroke-width="0.9" d="M-54.961,446.35v-13.604c0.193-1.037,1.004-1.849,2.041-2.041
	l32.314-3.146v-2.723c0.191-1.035,1.004-1.848,2.041-2.041h6.803c1.037,0.193,1.848,1.006,2.041,2.041v21.26L-54.961,446.35"/>
<circle fill="#C4C9BA" stroke="#000000" stroke-width="0.9" cx="-49.348" cy="437.846" r="2.211"/>
<path fill="#C4C9BA" stroke="#000000" stroke-width="0.9" d="M-3.938,446.35v-13.604c0.193-1.037,1.004-1.849,2.041-2.041
	l32.314-3.146v-2.723c0.193-1.035,1.004-1.848,2.041-2.041h6.803c1.037,0.193,1.848,1.006,2.041,2.041v21.26L-3.938,446.35"/>
<circle fill="#C4C9BA" stroke="#000000" stroke-width="0.9" cx="1.675" cy="437.846" r="2.211"/>
<path fill="#C4C9BA" stroke="#000000" stroke-width="0.9" d="M47.085,446.35v-13.604c0.193-1.037,1.004-1.849,2.041-2.041
	l32.314-3.146v-2.723c0.191-1.035,1.004-1.848,2.041-2.041h6.803c1.037,0.193,1.85,1.006,2.041,2.041v21.26L47.085,446.35"/>
<circle fill="#C4C9BA" stroke="#000000" stroke-width="0.9" cx="52.699" cy="437.846" r="2.211"/>
<path fill="#C4C9BA" stroke="#000000" stroke-width="0.9" d="M98.109,446.35v-13.604c0.193-1.037,1.004-1.849,2.041-2.041
	l32.314-3.146v-2.723c0.193-1.035,1.006-1.848,2.041-2.041h6.805c1.035,0.193,1.848,1.006,2.041,2.041v21.26L98.109,446.35"/>
<circle fill="#C4C9BA" stroke="#000000" stroke-width="0.9" cx="103.722" cy="437.846" r="2.211"/>
<path fill="#C4C9BA" stroke="#000000" stroke-width="0.9" d="M149.132,446.35v-13.604c0.193-1.037,1.004-1.849,2.041-2.041
	l32.316-3.146v-2.723c0.191-1.035,1.004-1.848,2.039-2.041h6.805c1.035,0.193,1.848,1.006,2.041,2.041v21.26L149.132,446.35"/>
<circle fill="#C4C9BA" stroke="#000000" stroke-width="0.9" cx="154.746" cy="437.846" r="2.211"/>
<path fill="#C4C9BA" stroke="#000000" stroke-width="0.9" d="M200.156,446.35v-13.604c0.193-1.037,1.006-1.849,2.041-2.041
	l32.314-3.146v-2.723c0.191-1.035,1.006-1.848,2.041-2.041h6.805c1.037,0.193,1.848,1.006,2.041,2.041v21.26L200.156,446.35"/>
<circle fill="#C4C9BA" stroke="#000000" stroke-width="0.9" cx="205.769" cy="437.846" r="2.211"/>
<path fill="#C4C9BA" stroke="#000000" stroke-width="0.9" d="M251.179,446.35v-13.604c0.193-1.037,1.006-1.849,2.041-2.041
	l32.316-3.146v-2.723c0.193-1.035,1.004-1.848,2.041-2.041h6.803c1.037,0.193,1.848,1.006,2.041,2.041v21.26L251.179,446.35"/>
<circle fill="#C4C9BA" stroke="#000000" stroke-width="0.9" cx="256.792" cy="437.846" r="2.211"/>
<path fill="#C4C9BA" stroke="#000000" stroke-width="0.9" d="M302.205,446.35v-13.604c0.191-1.037,1.004-1.849,2.039-2.041
	l32.316-3.146v-2.723c0.191-1.035,1.004-1.848,2.041-2.041h6.803c1.037,0.193,1.848,1.006,2.041,2.041v21.26L302.205,446.35"/>
<circle fill="#C4C9BA" stroke="#000000" stroke-width="0.9" cx="307.816" cy="437.846" r="2.211"/>
<path fill="#C4C9BA" stroke="#000000" stroke-width="0.9" d="M353.228,446.35v-13.604c0.193-1.037,1.004-1.849,2.041-2.041
	l32.314-3.146v-2.723c0.193-1.035,1.004-1.848,2.041-2.041h6.803c1.037,0.193,1.848,1.006,2.041,2.041v21.26L353.228,446.35"/>
<circle fill="#C4C9BA" stroke="#000000" stroke-width="0.9" cx="358.839" cy="437.846" r="2.211"/>
<path fill="#C4C9BA" stroke="#000000" stroke-width="0.9" d="M404.251,446.35v-13.604c0.193-1.037,1.004-1.849,2.041-2.041
	l32.314-3.146v-2.723c0.191-1.035,1.004-1.848,2.041-2.041h6.803c1.037,0.193,1.848,1.006,2.041,2.041v21.26L404.251,446.35"/>
<circle fill="#C4C9BA" stroke="#000000" stroke-width="0.9" cx="409.863" cy="437.846" r="2.211"/>
<path fill="#C4C9BA" stroke="#000000" stroke-width="0.9" d="M455.275,446.35v-13.604c0.193-1.037,1.004-1.849,2.041-2.041
	l32.314-3.146v-2.723c0.193-1.035,1.004-1.848,2.041-2.041h6.803c1.037,0.193,1.848,1.006,2.041,2.041v21.26L455.275,446.35"/>
<circle fill="#C4C9BA" stroke="#000000" stroke-width="0.9" cx="460.886" cy="437.846" r="2.211"/>
<path fill="#C4C9BA" stroke="#000000" stroke-width="0.9" d="M506.298,446.35v-13.604c0.193-1.037,1.004-1.849,2.041-2.041
	l32.314-3.146v-2.723c0.191-1.035,1.004-1.848,2.041-2.041h6.803c1.037,0.193,1.848,1.006,2.041,2.041v21.26L506.298,446.35"/>
<circle fill="#C4C9BA" stroke="#000000" stroke-width="0.9" cx="511.912" cy="437.846" r="2.211"/>
<path fill="#C4C9BA" stroke="#000000" stroke-width="0.9" d="M-569.237-561.141v-13.604c0.191-1.037,1.004-1.849,2.041-2.041
	l32.313-3.146v-2.723c0.193-1.035,1.004-1.848,2.041-2.041h6.805c1.035,0.193,1.848,1.006,2.041,2.041v21.26L-569.237-561.141"/>
<circle fill="#C4C9BA" stroke="#000000" stroke-width="0.9" cx="-563.624" cy="-569.645" r="2.211"/>
<path fill="#C4C9BA" stroke="#000000" stroke-width="0.9" d="M-518.213-561.141v-13.604c0.193-1.037,1.004-1.849,2.041-2.041
	l32.314-3.146v-2.723c0.193-1.035,1.004-1.848,2.041-2.041h6.805c1.035,0.193,1.848,1.006,2.039,2.041v21.26L-518.213-561.141"/>
<circle fill="#C4C9BA" stroke="#000000" stroke-width="0.9" cx="-512.6" cy="-569.645" r="2.211"/>
<path fill="#C4C9BA" stroke="#000000" stroke-width="0.9" d="M-105.985,480.35v-13.604c0.193-1.037,1.004-1.849,2.041-2.041
	l32.314-3.146v-2.723c0.193-1.035,1.004-1.848,2.041-2.041h6.803c1.037,0.193,1.848,1.006,2.041,2.041v21.26L-105.985,480.35"/>
<circle fill="#C4C9BA" stroke="#000000" stroke-width="0.9" cx="-100.374" cy="471.846" r="2.211"/>
<path fill="#C4C9BA" stroke="#000000" stroke-width="0.9" d="M-54.961,480.35v-13.604c0.193-1.037,1.004-1.849,2.041-2.041
	l32.314-3.146v-2.723c0.191-1.035,1.004-1.848,2.041-2.041h6.803c1.037,0.193,1.848,1.006,2.041,2.041v21.26L-54.961,480.35"/>
<circle fill="#C4C9BA" stroke="#000000" stroke-width="0.9" cx="-49.348" cy="471.846" r="2.211"/>
<path fill="#C4C9BA" stroke="#000000" stroke-width="0.9" d="M-3.938,480.35v-13.604c0.193-1.037,1.004-1.849,2.041-2.041
	l32.314-3.146v-2.723c0.193-1.035,1.004-1.848,2.041-2.041h6.803c1.037,0.193,1.848,1.006,2.041,2.041v21.26L-3.938,480.35"/>
<circle fill="#C4C9BA" stroke="#000000" stroke-width="0.9" cx="1.675" cy="471.846" r="2.211"/>
<path fill="#C4C9BA" stroke="#000000" stroke-width="0.9" d="M47.085,480.35v-13.604c0.193-1.037,1.004-1.849,2.041-2.041
	l32.314-3.146v-2.723c0.191-1.035,1.004-1.848,2.041-2.041h6.803c1.037,0.193,1.85,1.006,2.041,2.041v21.26L47.085,480.35"/>
<circle fill="#C4C9BA" stroke="#000000" stroke-width="0.9" cx="52.699" cy="471.846" r="2.211"/>
<path fill="#C4C9BA" stroke="#000000" stroke-width="0.9" d="M98.109,480.35v-13.604c0.193-1.037,1.004-1.849,2.041-2.041
	l32.314-3.146v-2.723c0.193-1.035,1.006-1.848,2.041-2.041h6.805c1.035,0.193,1.848,1.006,2.041,2.041v21.26L98.109,480.35"/>
<circle fill="#C4C9BA" stroke="#000000" stroke-width="0.9" cx="103.722" cy="471.846" r="2.211"/>
<path fill="#C4C9BA" stroke="#000000" stroke-width="0.9" d="M149.132,480.35v-13.604c0.193-1.037,1.004-1.849,2.041-2.041
	l32.316-3.146v-2.723c0.191-1.035,1.004-1.848,2.039-2.041h6.805c1.035,0.193,1.848,1.006,2.041,2.041v21.26L149.132,480.35"/>
<circle fill="#C4C9BA" stroke="#000000" stroke-width="0.9" cx="154.746" cy="471.846" r="2.211"/>
<path fill="#C4C9BA" stroke="#000000" stroke-width="0.9" d="M200.156,480.35v-13.604c0.193-1.037,1.006-1.849,2.041-2.041
	l32.314-3.146v-2.723c0.191-1.035,1.006-1.848,2.041-2.041h6.805c1.037,0.193,1.848,1.006,2.041,2.041v21.26L200.156,480.35"/>
<circle fill="#C4C9BA" stroke="#000000" stroke-width="0.9" cx="205.769" cy="471.846" r="2.211"/>
<path fill="#C4C9BA" stroke="#000000" stroke-width="0.9" d="M251.179,480.35v-13.604c0.193-1.037,1.006-1.849,2.041-2.041
	l32.316-3.146v-2.723c0.193-1.035,1.004-1.848,2.041-2.041h6.803c1.037,0.193,1.848,1.006,2.041,2.041v21.26L251.179,480.35"/>
<circle fill="#C4C9BA" stroke="#000000" stroke-width="0.9" cx="256.792" cy="471.846" r="2.211"/>
<path fill="#C4C9BA" stroke="#000000" stroke-width="0.9" d="M302.205,480.35v-13.604c0.191-1.037,1.004-1.849,2.039-2.041
	l32.316-3.146v-2.723c0.191-1.035,1.004-1.848,2.041-2.041h6.803c1.037,0.193,1.848,1.006,2.041,2.041v21.26L302.205,480.35"/>
<circle fill="#C4C9BA" stroke="#000000" stroke-width="0.9" cx="307.816" cy="471.846" r="2.211"/>
<path fill="#C4C9BA" stroke="#000000" stroke-width="0.9" d="M353.228,480.35v-13.604c0.193-1.037,1.004-1.849,2.041-2.041
	l32.314-3.146v-2.723c0.193-1.035,1.004-1.848,2.041-2.041h6.803c1.037,0.193,1.848,1.006,2.041,2.041v21.26L353.228,480.35"/>
<circle fill="#C4C9BA" stroke="#000000" stroke-width="0.9" cx="358.839" cy="471.846" r="2.211"/>
<path fill="#C4C9BA" stroke="#000000" stroke-width="0.9" d="M404.251,480.35v-13.604c0.193-1.037,1.004-1.849,2.041-2.041
	l32.314-3.146v-2.723c0.191-1.035,1.004-1.848,2.041-2.041h6.803c1.037,0.193,1.848,1.006,2.041,2.041v21.26L404.251,480.35"/>
<circle fill="#C4C9BA" stroke="#000000" stroke-width="0.9" cx="409.863" cy="471.846" r="2.211"/>
<path fill="#C4C9BA" stroke="#000000" stroke-width="0.9" d="M455.275,480.35v-13.604c0.193-1.037,1.004-1.849,2.041-2.041
	l32.314-3.146v-2.723c0.193-1.035,1.004-1.848,2.041-2.041h6.803c1.037,0.193,1.848,1.006,2.041,2.041v21.26L455.275,480.35"/>
<circle fill="#C4C9BA" stroke="#000000" stroke-width="0.9" cx="460.886" cy="471.846" r="2.211"/>
<path fill="#C4C9BA" stroke="#000000" stroke-width="0.9" d="M506.298,480.35v-13.604c0.193-1.037,1.004-1.849,2.041-2.041
	l32.314-3.146v-2.723c0.191-1.035,1.004-1.848,2.041-2.041h6.803c1.037,0.193,1.848,1.006,2.041,2.041v21.26L506.298,480.35"/>
<circle fill="#C4C9BA" stroke="#000000" stroke-width="0.9" cx="511.912" cy="471.846" r="2.211"/>
<path fill="#C4C9BA" stroke="#000000" stroke-width="0.9" d="M-569.237-527.141v-13.604c0.191-1.037,1.004-1.849,2.041-2.041
	l32.313-3.146v-2.723c0.193-1.035,1.004-1.848,2.041-2.041h6.805c1.035,0.193,1.848,1.006,2.041,2.041v21.26L-569.237-527.141"/>
<circle fill="#C4C9BA" stroke="#000000" stroke-width="0.9" cx="-563.624" cy="-535.645" r="2.211"/>
<path fill="#C4C9BA" stroke="#000000" stroke-width="0.9" d="M-518.213-527.141v-13.604c0.193-1.037,1.004-1.849,2.041-2.041
	l32.314-3.146v-2.723c0.193-1.035,1.004-1.848,2.041-2.041h6.805c1.035,0.193,1.848,1.006,2.039,2.041v21.26L-518.213-527.141"/>
<circle fill="#C4C9BA" stroke="#000000" stroke-width="0.9" cx="-512.6" cy="-535.645" r="2.211"/>
<path fill="#C4C9BA" stroke="#000000" stroke-width="0.9" d="M-6.83-561.141v-13.604c0.191-1.037,1.004-1.849,2.041-2.041
	l32.313-3.146v-2.723c0.193-1.035,1.004-1.848,2.041-2.041h6.805c1.035,0.193,1.848,1.006,2.041,2.041v21.26L-6.83-561.141"/>
<circle fill="#C4C9BA" stroke="#000000" stroke-width="0.9" cx="-1.216" cy="-569.645" r="2.211"/>
<path fill="#C4C9BA" stroke="#000000" stroke-width="0.9" d="M44.194-561.141v-13.604c0.193-1.037,1.004-1.849,2.041-2.041
	l32.314-3.146v-2.723c0.193-1.035,1.004-1.848,2.041-2.041h6.805c1.035,0.193,1.848,1.006,2.039,2.041v21.26L44.194-561.141"/>
<circle fill="#C4C9BA" stroke="#000000" stroke-width="0.9" cx="49.807" cy="-569.645" r="2.211"/>
<path fill="#C4C9BA" stroke="#000000" stroke-width="0.9" d="M-6.83-527.141v-13.604c0.191-1.037,1.004-1.849,2.041-2.041
	l32.313-3.146v-2.723c0.193-1.035,1.004-1.848,2.041-2.041h6.805c1.035,0.193,1.848,1.006,2.041,2.041v21.26L-6.83-527.141"/>
<circle fill="#C4C9BA" stroke="#000000" stroke-width="0.9" cx="-1.216" cy="-535.645" r="2.211"/>
<path fill="#C4C9BA" stroke="#000000" stroke-width="0.9" d="M44.194-527.141v-13.604c0.193-1.037,1.004-1.849,2.041-2.041
	l32.314-3.146v-2.723c0.193-1.035,1.004-1.848,2.041-2.041h6.805c1.035,0.193,1.848,1.006,2.039,2.041v21.26L44.194-527.141"/>
<circle fill="#C4C9BA" stroke="#000000" stroke-width="0.9" cx="49.807" cy="-535.645" r="2.211"/>
<path fill="#C4C9BA" stroke="#000000" stroke-width="0.9" d="M556.909-483.706l-8.504,14.729l3.683,2.126l3.683,2.126l8.504-14.729
	L556.909-483.706z M555.606-465.34l-6.584-3.802l8.053-13.949l6.586,3.802L555.606-465.34z"/>
<path fill="#C4C9BA" stroke="#000000" stroke-width="0.9" d="M84.356-466.851l3.682-2.126l-8.504-14.729l-7.364,4.252l8.504,14.729
	L84.356-466.851z M79.37-483.091l8.053,13.95l-6.584,3.801l-8.055-13.948L79.37-483.091z"/>
<path fill="#C4C9BA" stroke="#000000" stroke-width="0.9" d="M578.442-178.185c7.045,0,12.758-5.711,12.758-12.756
	c0-7.045-5.713-12.756-12.758-12.756h-19.275v-200.314h19.275c7.045,0,12.758-5.711,12.758-12.756s-5.713-12.756-12.758-12.756
	h-19.275v-24.076l9.639-16.693c3.521-6.101,1.434-13.904-4.668-17.427c-6.102-3.522-13.904-1.43-17.426,4.671l-9.639,16.692
	L318.222-592.721L99.372-466.356l-9.637-16.692c-3.522-6.101-11.324-8.193-17.426-4.671c-6.101,3.523-8.189,11.326-4.666,17.427
	l9.637,16.693l0,0v24.076H58.004c-7.045,0-12.756,5.711-12.756,12.756s5.711,12.756,12.756,12.756H77.28v200.314H58.004
	c-7.045,0-12.756,5.711-12.756,12.756c0,7.045,5.711,12.756,12.756,12.756H77.28V22.13H58.004c-7.045,0-12.756,5.711-12.756,12.756
	c0,7.045,5.711,12.756,12.756,12.756H77.28v200.314H58.004c-7.045,0-12.756,5.712-12.756,12.756c0,7.045,5.711,12.758,12.756,12.758
	H77.28v66.613h481.889V273.47h19.275c7.045,0,12.758-5.713,12.758-12.758c0-7.044-5.713-12.756-12.758-12.756h-19.275V47.642h19.275
	c7.045,0,12.758-5.711,12.758-12.756c0-7.045-5.713-12.756-12.758-12.756h-19.275v-200.315H578.442z M566.653-195.643h17.908v9.404
	h-17.908V-195.643z M566.653-421.469h17.908v9.404h-17.908V-421.469z M556.745-484.321l8.145,4.702l-8.953,15.509l-8.146-4.702
	L556.745-484.321z M79.7-484.321l8.953,15.509l-8.145,4.702l-8.954-15.509L79.7-484.321z M69.79-412.064H51.881v-9.404H69.79
	V-412.064z M69.79-186.238H51.881v-9.404H69.79V-186.238z M69.79,39.589H51.881v-9.404H69.79V39.589z M69.79,265.416H51.881v-9.405
	H69.79V265.416z M566.653,256.011h17.908v9.405h-17.908V256.011z M566.653,30.185h17.908v9.404h-17.908V30.185z M182.161,274.886
	c-7.827,0-14.174-6.346-14.174-14.173c0-7.828,6.347-14.173,14.174-14.173c7.828,0,14.174,6.345,14.174,14.173
	C196.334,268.54,189.989,274.886,182.161,274.886z M182.161-196.214c-7.827,0-14.174-6.346-14.174-14.173
	c0-7.828,6.347-14.173,14.174-14.173c7.828,0,14.174,6.345,14.174,14.173C196.334-202.56,189.989-196.214,182.161-196.214z
	 M318.222-224.56c7.827,0,14.173,6.345,14.173,14.173c0,7.827-6.346,14.173-14.173,14.173s-14.174-6.346-14.174-14.173
	S310.395-224.56,318.222-224.56z M318.222,49.06c-7.829,0-14.173-6.346-14.173-14.172c0-7.828,6.344-14.174,14.173-14.174
	c7.828,0,14.175,6.346,14.175,14.174C332.397,42.714,326.05,49.06,318.222,49.06z M454.284,274.886
	c-7.827,0-14.174-6.346-14.174-14.173c0-7.828,6.347-14.173,14.174-14.173c7.828,0,14.174,6.345,14.174,14.173
	C468.458,268.54,462.112,274.886,454.284,274.886z M454.284-196.214c-7.827,0-14.174-6.346-14.174-14.173
	c0-7.828,6.347-14.173,14.174-14.173c7.828,0,14.174,6.345,14.174,14.173C468.458-202.56,462.112-196.214,454.284-196.214z"/>
<path fill="#C4C9BA" stroke="#000000" stroke-width="0.9" d="M567.104-190.94v4.252h17.008v-8.504h-17.008V-190.94z
	 M567.553-194.742h16.107v7.604h-16.107V-194.742z"/>
<polygon fill="#C4C9BA" stroke="#000000" stroke-width="0.9" points="69.339,260.713 69.339,256.461 52.331,256.461 52.331,264.966 
	69.339,264.966 "/>
<path fill="#C4C9BA" stroke="#000000" stroke-width="0.9" d="M567.104,260.713v4.253h17.008v-8.505h-17.008V260.713z
	 M567.553,256.911h16.107v7.604h-16.107V256.911z"/>
<polygon fill="#C4C9BA" stroke="#000000" stroke-width="0.9" points="69.339,-190.94 69.339,-195.192 52.331,-195.192 
	52.331,-186.688 69.339,-186.688 "/>
<polygon fill="#C4C9BA" stroke="#000000" stroke-width="0.9" points="69.339,34.887 69.339,30.635 52.331,30.635 52.331,39.139 
	69.339,39.139 "/>
<path fill="#C4C9BA" stroke="#000000" stroke-width="0.9" d="M567.104,34.887v4.252h17.008v-8.504h-17.008V34.887z M567.553,31.085
	h16.107v7.604h-16.107V31.085z"/>
<path fill="#C4C9BA" stroke="#000000" stroke-width="0.9" d="M567.104-416.767v4.252h17.008v-8.504h-17.008V-416.767z
	 M567.553-420.568h16.107v7.604h-16.107V-420.568z"/>
<polygon fill="#C4C9BA" stroke="#000000" stroke-width="0.9" points="69.339,-416.767 69.339,-421.019 52.331,-421.019 
	52.331,-412.515 69.339,-412.515 "/>
<path fill="#C4C9BA" stroke="#000000" stroke-width="0.9" d="M-16.527-483.706l-8.504,14.729l3.682,2.126l3.683,2.126l8.504-14.729
	L-16.527-483.706z M-17.832-465.34l-6.584-3.802l8.053-13.949l6.586,3.802L-17.832-465.34z"/>
<path fill="#C4C9BA" stroke="#000000" stroke-width="0.9" d="M-489.082-466.851l3.682-2.126l-8.504-14.729l-7.365,4.252
	l8.504,14.729L-489.082-466.851z M-494.068-483.091l8.053,13.95l-6.584,3.801l-8.054-13.948L-494.068-483.091z"/>
<path fill="#C4C9BA" stroke="#000000" stroke-width="0.9" d="M-6.334-416.767v4.252h17.008v-8.504H-6.334V-416.767z M-5.884-420.568
	h16.106v7.604H-5.884V-420.568z"/>
<path fill="#C4C9BA" stroke="#000000" stroke-width="0.9" d="M-6.334-190.94v4.252h17.008v-8.504H-6.334V-190.94z M-5.884-194.742
	h16.106v7.604H-5.884V-194.742z"/>
<path fill="#C4C9BA" stroke="#000000" stroke-width="0.9" d="M-6.334,260.713v4.253h17.008v-8.505H-6.334V260.713z M-5.884,256.911
	h16.106v7.604H-5.884V256.911z"/>
<path fill="#C4C9BA" stroke="#000000" stroke-width="0.9" d="M-6.334,34.887v4.252h17.008v-8.504H-6.334V34.887z M-5.884,31.085
	h16.106v7.604H-5.884V31.085z"/>
<path fill="#C4C9BA" stroke="#000000" stroke-width="0.9" d="M5.004-178.185c7.045,0,12.758-5.711,12.758-12.756
	c0-7.045-5.713-12.756-12.758-12.756h-19.275v-200.314H5.004c7.045,0,12.758-5.711,12.758-12.756s-5.713-12.756-12.758-12.756
	h-19.275v-24.076l9.639-16.693c3.521-6.101,1.433-13.904-4.668-17.427c-6.103-3.522-13.904-1.43-17.426,4.671l-9.638,16.692
	l-218.851-126.365l-218.852,126.365l-9.636-16.692c-3.523-6.101-11.325-8.193-17.426-4.671c-6.102,3.523-8.19,11.326-4.667,17.427
	l9.637,16.693v24.076h-19.275c-7.045,0-12.756,5.711-12.756,12.756s5.711,12.756,12.756,12.756h19.275v200.314h-19.275
	c-7.045,0-12.756,5.711-12.756,12.756c0,7.045,5.711,12.756,12.756,12.756h19.275V22.13h-19.275
	c-7.045,0-12.756,5.711-12.756,12.756s5.711,12.756,12.756,12.756h19.275v200.314h-19.275c-7.045,0-12.756,5.712-12.756,12.756
	c0,7.045,5.711,12.758,12.756,12.758h19.275v66.613H-14.27v-12.757v-8.504v-45.354H5.006c7.045,0,12.758-5.711,12.758-12.757
	c0-7.044-5.713-12.756-12.758-12.756H-14.27V47.642H5.006c7.045,0,12.758-5.711,12.758-12.757c0-7.045-5.713-12.756-12.758-12.756
	H-14.27v-200.315L5.004-178.185L5.004-178.185z M-6.784-195.643h17.908v9.404H-6.784V-195.643z M-6.784-421.469h17.908v9.404H-6.784
	V-421.469z M-16.692-484.321l8.145,4.702l-8.954,15.509l-8.145-4.702L-16.692-484.321z M-501.883-479.619l8.145-4.703l8.954,15.509
	l-8.145,4.702L-501.883-479.619z M-503.647-412.064h-17.908v-9.404h17.908V-412.064z M-503.647-186.238h-17.908v-9.404h17.908
	V-186.238z M-503.647,39.589h-17.908v-9.404h17.908V39.589z M-503.647,265.416h-17.908v-9.405h17.908V265.416z M-6.784,256.011
	h17.908v9.405H-6.784V256.011z M-6.784,30.185h17.908v9.404H-6.784V30.185z M-176.613-513.316l51.021,31.118v85.682
	c-15.704-10.705-32.825-19.486-51.021-26.007V-513.316z M-253.15-224.56c7.827,0,14.173,6.345,14.173,14.173
	c0,7.827-6.346,14.173-14.173,14.173c-7.828,0-14.174-6.346-14.174-14.173S-260.979-224.56-253.15-224.56z M-312.678-522.53
	l51.022-30.064v116.988c-17.594,0.645-34.674,3.296-51.022,7.732V-522.53z M-448.74-444.005l51.025-29.944v90.221
	c-20.291,16.807-37.595,37.086-51.025,59.92V-444.005z M-420.394,260.713v34.017h-28.349V-94.209
	c13.432,22.834,30.736,43.113,51.025,59.92v265.005C-410.803,234.418-420.394,246.44-420.394,260.713z M-389.212,274.886
	c-7.828,0-14.174-6.346-14.174-14.173c0-7.828,6.346-14.173,14.174-14.173c7.827,0,14.173,6.345,14.173,14.173
	C-375.039,268.54-381.385,274.886-389.212,274.886z M-329.686,294.729h-28.346v-34.017c0-14.271-9.592-26.295-22.676-29.998V-21.502
	c15.705,10.705,32.826,19.487,51.021,26.008L-329.686,294.729L-329.686,294.729z M-329.686-422.526
	c-18.195,6.525-35.316,15.304-51.021,26.009v-86.604l51.021-28.957V-422.526z M-261.654,294.729h-51.022V9.851
	c11.149,3.023,22.646,5.197,34.411,6.493c-3.809,5.19-6.064,11.603-6.064,18.543c0,14.325,9.591,26.396,22.677,30.111
	L-261.654,294.729L-261.654,294.729z M-267.323,34.887c0-7.827,6.344-14.174,14.173-14.174c7.828,0,14.174,6.346,14.174,14.174
	c0,7.827-6.346,14.173-14.174,14.173C-260.979,49.06-267.323,42.714-267.323,34.887z M-193.623,294.729h-51.023V64.999
	c13.086-3.717,22.678-15.786,22.678-30.112c0-6.94-2.255-13.353-6.063-18.543c11.761-1.295,23.259-3.468,34.409-6.495
	L-193.623,294.729L-193.623,294.729z M-193.623-427.872c-16.349-4.433-33.429-7.087-51.023-7.732v-115.504l51.023,30.021V-427.872z
	 M-148.271,260.713v34.017h-28.345V4.511c18.195-6.525,35.316-15.305,51.021-26.01v252.213
	C-138.679,234.418-148.271,246.44-148.271,260.713z M-117.089,274.886c-7.828,0-14.174-6.346-14.174-14.173
	c0-7.828,6.346-14.173,14.174-14.173c7.827,0,14.173,6.345,14.173,14.173C-102.916,268.54-109.262,274.886-117.089,274.886z
	 M-57.562,294.729h-28.347v-34.017c0-14.271-9.592-26.294-22.676-29.998V-34.293C-88.296-51.1-70.993-71.378-57.563-94.209
	L-57.562,294.729L-57.562,294.729z M-57.562-323.813c-13.431-22.831-30.733-43.109-51.022-59.92v-87.24l51.022,29.395V-323.813z"/>
<polygon fill="#C4C9BA" stroke="#000000" stroke-width="0.9" points="-504.098,-416.767 -504.098,-421.019 -521.105,-421.019 
	-521.105,-412.515 -504.098,-412.515 "/>
<polygon fill="#C4C9BA" stroke="#000000" stroke-width="0.9" points="-504.098,-190.94 -504.098,-195.192 -521.105,-195.192 
	-521.105,-186.688 -504.098,-186.688 "/>
<polygon fill="#C4C9BA" stroke="#000000" stroke-width="0.9" points="-504.098,34.887 -504.098,30.635 -521.105,30.635 
	-521.105,39.139 -504.098,39.139 "/>
<polygon fill="#C4C9BA" stroke="#000000" stroke-width="0.9" points="-504.098,260.713 -504.098,256.461 -521.105,256.461 
	-521.105,264.966 -504.098,264.966 "/>
<path fill="#C4C9BA" stroke="#000000" stroke-miterlimit="10" d="M-501.269,840.056v48.188h184.255v11.34h-184.255v394.015h368.506
	V840.056H-501.269z M-145.519,1151.77v26.034h-8.504v-26.034H-145.519z M-437.487,1151.77v26.034h-8.504v-26.034H-437.487z"/>
<path fill="#C4C9BA" stroke="#000000" stroke-miterlimit="10" d="M-132.762,362.665H-501.27v48.189h184.255v11.339H-501.27v394.015
	h368.508V362.665L-132.762,362.665z M-480.005,674.379v26.034h-8.504v-26.034H-480.005z M-188.037,674.379v26.034h-8.504v-26.034
	H-188.037z"/>
<g>
	<path fill="#C4C9BA" stroke="#000000" stroke-width="0.9" d="M-560.223,849.958v-72.756h19.275c7.045,0,12.758-5.711,12.758-12.757
		s-5.713-12.757-12.758-12.757h-19.275v-39.004V551.374h19.275c7.045,0,12.758-5.711,12.758-12.756s-5.713-12.756-12.758-12.756
		h-19.275v-24.076l-240.943-139.122l-240.943,139.122v24.076h-19.275c-7.045,0-12.756,5.711-12.756,12.756
		s5.711,12.756,12.756,12.756h19.275v161.311v39.005h-19.275c-7.045,0-12.756,5.711-12.756,12.757
		c0,7.045,5.711,12.756,12.756,12.756h19.275v72.756v97.795v29.765h-19.275c-7.045,0-12.756,5.711-12.756,12.757
		c0,7.045,5.711,12.756,12.756,12.756h19.275v102.521v97.793h-19.275c-7.045,0-12.756,5.711-12.756,12.756
		s5.711,12.756,12.756,12.756h19.275v66.615h481.886v-66.615h19.275c7.045,0,12.758-5.711,12.758-12.756
		s-5.713-12.756-12.758-12.756h-19.275v-97.793c0,0,0.012-0.191,0-0.551V1003.03h19.275c7.045,0,12.758-5.711,12.758-12.756
		c0-7.046-5.713-12.757-12.758-12.757h-19.275v-29.765V849.958z M-801.16,416.756c23.479,0,42.52,19.029,42.52,42.52
		c0,23.48-19.039,42.521-42.52,42.521c-23.49,0-42.521-19.041-42.521-42.521C-843.68,435.787-824.65,416.756-801.16,416.756z
		 M-999.588,550.296c30.612-16.922,88.614-32.47,198.429-32.47c109.824,0,167.816,15.55,198.417,32.476v162.383h-396.846V550.296z
		 M-650.929,744.944c0,7.826-6.346,14.172-14.174,14.172s-14.174-6.346-14.174-14.172c0-7.828,6.346-14.174,14.174-14.174
		S-650.929,737.116-650.929,744.944z M-718.96,744.944c0,7.827-6.348,14.174-14.174,14.174c-7.828,0-14.174-6.346-14.174-14.174
		s6.346-14.173,14.174-14.173C-725.308,730.771-718.96,737.116-718.96,744.944z M-824.351,877.139
		c-38.488,7.851-70.012,34.845-84.172,70.614h-91.064V806.966c32.506-15.368,89.868-29.104,191.076-29.739v56.64
		c-11.969,3.317-20.76,14.283-20.76,27.311C-829.271,867.098-827.455,872.593-824.351,877.139z M-951.4,744.944
		c0-7.828,6.347-14.174,14.174-14.174c7.828,0,14.174,6.346,14.174,14.174c0,7.826-6.346,14.172-14.174,14.172
		C-945.053,759.116-951.4,752.771-951.4,744.944z M-883.369,744.944c0-7.828,6.346-14.173,14.174-14.173s14.174,6.345,14.174,14.173
		c0,7.827-6.346,14.174-14.174,14.174S-883.369,752.771-883.369,744.944z M-800.925,875.351c-7.826,0-14.174-6.346-14.174-14.174
		c0-7.827,6.348-14.172,14.174-14.172c7.828,0,14.174,6.344,14.174,14.172S-793.097,875.351-800.925,875.351z M-786.992,990.218
		c0,7.826-6.346,14.172-14.174,14.172s-14.174-6.346-14.174-14.172c0-7.828,6.346-14.174,14.174-14.174
		S-786.992,982.39-786.992,990.218z M-801.166,759.118c-7.828,0-14.174-6.346-14.174-14.174s6.346-14.173,14.174-14.173
		c7.826,0,14.174,6.345,14.174,14.173C-786.992,752.771-793.339,759.118-801.166,759.118z M-1019.43,744.944
		c0-7.828,6.346-14.173,14.174-14.173c7.827,0,14.173,6.345,14.173,14.173c0,7.827-6.346,14.174-14.173,14.174
		C-1013.084,759.118-1019.43,752.771-1019.43,744.944z M-923.053,1216.101c0,7.826-6.347,14.172-14.173,14.172
		c-7.828,0-14.174-6.346-14.174-14.172c0-0.014,0.002-0.025,0.002-0.037c0-0.008-0.002-0.014-0.002-0.02
		c0-7.828,6.347-14.174,14.174-14.174c7.828,0,14.174,6.346,14.174,14.174c0,0.012-0.002,0.023-0.002,0.037
		C-923.054,1216.087-923.053,1216.093-923.053,1216.101z M-650.931,1216.101c0,7.826-6.346,14.172-14.172,14.172
		c-7.828,0-14.174-6.346-14.174-14.172c0-0.014,0.002-0.025,0.002-0.037c0-0.008-0.002-0.014-0.002-0.02
		c0-7.828,6.346-14.174,14.174-14.174s14.174,6.346,14.174,14.174c0,0.012-0.002,0.023-0.002,0.037
		C-650.931,1216.087-650.931,1216.093-650.931,1216.101z M-602.742,1252.95h-31.182v-36.852c0-17.223-13.96-31.182-31.181-31.182
		s-31.182,13.959-31.182,31.182v36.852h-209.76v-36.852c0-17.223-13.961-31.182-31.18-31.182c-17.223,0-31.184,13.959-31.184,31.182
		v36.852h-31.18v-190.211c33.512-15.811,93.43-29.947,200.584-29.947c104.42,0,163.189,13.424,196.261,28.736v191.422H-602.742z
		 M-602.742,947.753h-91.064c-14.107-35.641-45.457-62.564-83.758-70.523c3.143-4.564,4.986-10.092,4.986-16.052
		c0-13.026-8.791-23.991-20.758-27.312v-56.635c100.908,0.676,158.138,14.393,190.593,29.736V947.753z M-597.072,759.118
		c-7.828,0-14.174-6.346-14.174-14.174s6.346-14.173,14.174-14.173c7.826,0,14.172,6.345,14.172,14.173
		C-582.9,752.771-589.246,759.118-597.072,759.118z"/>
	<polyline fill="#C4C9BA" stroke="#000000" stroke-width="0.9" points="-1050.047,538.62 -1050.047,542.872 -1067.055,542.872 
		-1067.055,534.368 -1050.047,534.368 -1050.047,538.62 	"/>
	<polyline fill="#C4C9BA" stroke="#000000" stroke-width="0.9" points="-1050.047,764.446 -1050.047,768.698 -1067.055,768.698 
		-1067.055,760.194 -1050.047,760.194 -1050.047,764.446 	"/>
	<polyline fill="#C4C9BA" stroke="#000000" stroke-width="0.9" points="-1050.047,990.274 -1050.047,994.526 -1067.055,994.526 
		-1067.055,986.022 -1050.047,986.022 -1050.047,990.274 	"/>
	<polyline fill="#C4C9BA" stroke="#000000" stroke-width="0.9" points="-1050.047,1216.101 -1050.047,1220.353 -1067.055,1220.353 
		-1067.055,1211.849 -1050.047,1211.849 -1050.047,1216.101 	"/>
	<polyline fill="#C4C9BA" stroke="#000000" stroke-width="0.9" points="-552.283,1216.101 -552.283,1220.353 -535.277,1220.353 
		-535.277,1211.849 -552.283,1211.849 -552.283,1216.101 	"/>
	<polyline fill="#C4C9BA" stroke="#000000" stroke-width="0.9" points="-552.283,990.274 -552.283,994.526 -535.277,994.526 
		-535.277,986.022 -552.283,986.022 -552.283,990.274 	"/>
	<polyline fill="#C4C9BA" stroke="#000000" stroke-width="0.9" points="-552.283,764.446 -552.283,768.698 -535.277,768.698 
		-535.277,760.194 -552.283,760.194 -552.283,764.446 	"/>
	<polyline fill="#C4C9BA" stroke="#000000" stroke-width="0.9" points="-552.283,538.62 -552.283,542.872 -535.277,542.872 
		-535.277,534.368 -552.283,534.368 -552.283,538.62 	"/>
	<rect x="-552.734" y="1211.397" fill="#C4C9BA" stroke="#000000" stroke-width="0.9" width="17.908" height="9.404"/>
	<rect x="-551.834" y="1212.298" fill="#C4C9BA" stroke="#000000" stroke-width="0.9" width="16.107" height="7.604"/>
	<rect x="-1067.505" y="1211.397" fill="#C4C9BA" stroke="#000000" stroke-width="0.9" width="17.908" height="9.404"/>
	<rect x="-1066.605" y="1212.298" fill="#C4C9BA" stroke="#000000" stroke-width="0.9" width="16.107" height="7.604"/>
	<rect x="-552.734" y="985.571" fill="#C4C9BA" stroke="#000000" stroke-width="0.9" width="17.908" height="9.404"/>
	<rect x="-551.834" y="986.472" fill="#C4C9BA" stroke="#000000" stroke-width="0.9" width="16.107" height="7.604"/>
	<rect x="-1067.505" y="985.571" fill="#C4C9BA" stroke="#000000" stroke-width="0.9" width="17.908" height="9.404"/>
	<rect x="-1066.605" y="986.472" fill="#C4C9BA" stroke="#000000" stroke-width="0.9" width="16.107" height="7.604"/>
	<rect x="-552.734" y="759.745" fill="#C4C9BA" stroke="#000000" stroke-width="0.9" width="17.908" height="9.404"/>
	<rect x="-551.834" y="760.645" fill="#C4C9BA" stroke="#000000" stroke-width="0.9" width="16.107" height="7.604"/>
	<rect x="-1067.505" y="759.745" fill="#C4C9BA" stroke="#000000" stroke-width="0.9" width="17.908" height="9.404"/>
	<rect x="-1066.605" y="760.645" fill="#C4C9BA" stroke="#000000" stroke-width="0.9" width="16.107" height="7.604"/>
	<rect x="-552.734" y="533.917" fill="#C4C9BA" stroke="#000000" stroke-width="0.9" width="17.908" height="9.404"/>
	<rect x="-551.834" y="534.818" fill="#C4C9BA" stroke="#000000" stroke-width="0.9" width="16.107" height="7.604"/>
	<rect x="-1067.505" y="533.917" fill="#C4C9BA" stroke="#000000" stroke-width="0.9" width="17.908" height="9.404"/>
	<rect x="-1066.605" y="534.818" fill="#C4C9BA" stroke="#000000" stroke-width="0.9" width="16.107" height="7.604"/>
	<rect x="-560.289" y="501.788" fill="#C4C9BA" stroke="#000000" stroke-width="0.9" width="8.504" height="8.504"/>
</g>
<path fill="#C4C9BA" stroke="#000000" stroke-width="0.9" d="M-562.074-178.185c7.045,0,12.758-5.711,12.758-12.756
	c0-7.045-5.713-12.756-12.758-12.756h-19.275v-200.314h19.275c7.045,0,12.758-5.711,12.758-12.756s-5.713-12.756-12.758-12.756
	h-19.275v-24.076l9.639-16.693c3.521-6.101,1.433-13.904-4.668-17.427c-6.103-3.522-13.904-1.43-17.426,4.671l-9.638,16.692
	l-218.851-126.365l-218.851,126.365l-9.636-16.692c-3.523-6.101-11.325-8.193-17.426-4.671c-6.101,3.523-8.189,11.326-4.667,17.427
	l9.637,16.693v24.076h-19.275c-7.045,0-12.756,5.711-12.756,12.756s5.711,12.756,12.756,12.756h19.275v200.314h-19.275
	c-7.045,0-12.756,5.711-12.756,12.756c0,7.045,5.711,12.756,12.756,12.756h19.275V22.13h-19.275
	c-7.045,0-12.756,5.711-12.756,12.756s5.711,12.756,12.756,12.756h19.275v200.314h-19.275c-7.045,0-12.756,5.712-12.756,12.756
	c0,7.045,5.711,12.758,12.756,12.758h19.275v66.613h481.889v-12.757v-8.504v-45.354h19.275c7.045,0,12.758-5.711,12.758-12.757
	c0-7.044-5.713-12.756-12.758-12.756h-19.275V47.642h19.275c7.045,0,12.758-5.711,12.758-12.757c0-7.045-5.713-12.756-12.758-12.756
	h-19.275v-200.315L-562.074-178.185L-562.074-178.185z M-573.862-195.643h17.908v9.404h-17.908V-195.643z M-573.862-421.469h17.908
	v9.404h-17.908V-421.469z M-1070.725-412.064h-17.908v-9.404h17.908V-412.064z M-1070.725-186.238h-17.908v-9.404h17.908V-186.238z
	 M-1070.725,39.589h-17.908v-9.404h17.908V39.589z M-1070.725,265.416h-17.908v-9.405h17.908V265.416z M-1060.007-464.11
	l-8.954-15.509l8.145-4.703l8.954,15.509L-1060.007-464.11z M-820.229-224.56c7.827,0,14.173,6.345,14.173,14.173
	c0,7.827-6.346,14.173-14.173,14.173c-7.828,0-14.174-6.346-14.174-14.173S-828.057-224.56-820.229-224.56z M-806.054,34.887
	c0,7.827-6.346,14.173-14.174,14.173c-7.829,0-14.173-6.347-14.173-14.173c0-7.827,6.344-14.174,14.173-14.174
	C-812.4,20.713-806.054,27.06-806.054,34.887z M-1021.103,49.06h176.279l-111.075,184.198l-65.204-108.218V49.06z M-1021.103,246.54
	v-66.573l40.111,66.573H-1021.103z M-956.29,274.886c-7.828,0-14.174-6.346-14.174-14.173c0-7.828,6.346-14.173,14.174-14.173
	c7.827,0,14.173,6.345,14.173,14.173C-942.117,268.54-948.463,274.886-956.29,274.886z M-930.807,246.54l110.543-183.318
	l110.453,183.318H-930.807z M-684.167,274.886c-7.828,0-14.174-6.346-14.174-14.173c0-7.828,6.346-14.173,14.174-14.173
	c7.827,0,14.173,6.345,14.173,14.173C-669.994,268.54-676.34,274.886-684.167,274.886z M-623.483,246.54h-34.987l34.987-58.02
	V246.54z M-623.483,133.626l-60.657,100.589L-795.701,49.06h172.218V133.626z M-573.862,256.011h17.908v9.405h-17.908V256.011z
	 M-573.862,30.185h17.908v9.404h-17.908V30.185z M-584.58-464.11l-8.146-4.702l8.954-15.509l8.146,4.702L-584.58-464.11z"/>
<path fill="#C4C9BA" stroke="#000000" stroke-width="0.9" d="M-56.794,391.705L-56.794,391.705l-20.506-0.709V378.24l20.506-0.708
	c3.147-12.226,14.247-21.259,27.456-21.259c13.207,0,24.306,9.033,27.453,21.259l0,0l200.857,3.543v7.086l-200.857,3.543l0,0
	c-3.146,12.226-14.244,21.261-27.453,21.261S-53.647,403.931-56.794,391.705z M-28.107,392.416c4.303,0,7.794-3.492,7.794-7.795
	c0-4.305-3.49-7.795-7.794-7.795c-4.305,0-7.796,3.49-7.796,7.795C-35.903,388.923-32.412,392.416-28.107,392.416z"/>
<path fill="#C4C9BA" stroke="#000000" stroke-width="0.9" d="M495.947,356.574l-4.063,0.443c-1.104-1.104-2.904-1.104-4.012,0
	l-10.021,10.021c-1.104,1.104-2.906,1.104-4.012,0l-154.051,4.785c0.363-1.662-0.072-3.356-1.418-4.703
	c-2.756-2.756-6.98-1.729-9.387,2.277l-2.535,4.229c0.076-1.074-0.166-2.146-0.805-3.012c-1.492-2.035-3.779-1.275-5.082,1.685
	l-1.719,3.901h-11.418c-1.561,0-2.834,1.271-2.834,2.834v2.836c0,1.561,1.273,2.834,2.834,2.834h11.418l1.719,3.902
	c1.303,2.959,3.59,3.717,5.084,1.686c0.637-0.868,0.879-1.938,0.803-3.014l2.535,4.225c2.406,4.013,6.631,5.037,9.387,2.281
	c1.348-1.349,1.783-3.041,1.418-4.703l154.051,4.783c1.104-1.104,2.902-1.104,4.01,0l10.021,10.021
	c1.104,1.104,2.906,1.104,4.008-0.001l4.064,0.441c4.406,2.822,9.641,4.469,15.262,4.469c15.656,0,28.352-12.69,28.352-28.35
	c0-15.652-12.691-28.347-28.352-28.347C505.589,352.107,500.355,353.748,495.947,356.574z M519.007,380.455
	c0,4.305-3.492,7.795-7.797,7.795s-7.795-3.49-7.795-7.795s3.492-7.795,7.795-7.795C515.515,372.66,519.007,376.149,519.007,380.455
	z"/>
<path fill="#C4C9BA" stroke="#000000" stroke-width="0.9" d="M-117.744,506.041H208.24v785.18h-325.983V506.041z M-104.988,534.369
	v12.756h8.504v-25.512h-8.504V534.369 M-104.988,760.195v12.756h8.504v-25.512h-8.504V760.195 M-104.988,986.023v12.756h8.504
	v-25.512h-8.504V986.023 M-104.988,1211.85v12.756h8.504v-25.512h-8.504V1211.85 M195.484,1211.85v-12.756h-8.505v25.512h8.505
	V1211.85 M195.484,986.023v-12.757h-8.505v25.513h8.505V986.023 M195.484,760.195v-12.756h-8.505v25.512h8.505V760.195
	 M195.484,534.369v-12.756h-8.505v25.512h8.505V534.369 M40.996,534.369v12.756H49.5v-25.512h-8.505V534.369 M40.996,760.195v12.756
	H49.5v-25.512h-8.505V760.195 M40.996,986.023v12.756H49.5v-25.512h-8.505V986.023 M40.996,1211.85v12.756H49.5v-25.512h-8.505
	V1211.85"/>
<circle fill="none" stroke="#000000" stroke-miterlimit="10" cx="-27.303" cy="908.543" r="4.535"/>
<circle fill="none" stroke="#000000" stroke-miterlimit="10" cx="-27.303" cy="837.677" r="4.536"/>
<path fill="none" stroke="#000000" stroke-miterlimit="10" d="M-34.512,900.584c0,0-6.792-5.332-6.792-5.166s0-44.5,0-44.5
	l6.792-5.334l15.167,2.709l6.208,5.25v39.209l-6.041,5.291L-34.512,900.584z"/>
</svg>
