<?xml version="1.0" encoding="utf-8"?>
<!-- Generator: Adobe Illustrator 15.1.0, SVG Export Plug-In . SVG Version: 6.00 Build 0)  -->
<!DOCTYPE svg PUBLIC "-//W3C//DTD SVG 1.1//EN" "http://www.w3.org/Graphics/SVG/1.1/DTD/svg11.dtd">
<svg version="1.1" id="Layer_1" xmlns="http://www.w3.org/2000/svg" xmlns:xlink="http://www.w3.org/1999/xlink" x="0px" y="0px"
	 width="1700.789px" height="2551.182px" viewBox="0 0 1700.789 2551.182" enable-background="new 0 0 1700.789 2551.182"
	 xml:space="preserve">
<g display="none">
	<polyline display="inline" fill="none" points="3666.404,2050.386 3663.3,2049.356 3660.203,2047.284 3656.048,2045.206 
		3652.949,2044.187 3652.949,2042.104 3652.949,2040.03 3656.048,2037.979 3659.15,2035.878 3662.275,2033.825 3665.38,2032.774 
		3668.48,2029.673 3668.48,2026.548 3665.38,2024.493 3661.228,2023.446 3658.123,2022.419 3654.998,2020.341 3650.871,2019.319 
		3650.871,2017.216 3650.871,2015.165 3653.968,2013.087 3657.076,2011.013 3659.15,2008.937 3662.275,2006.86 3665.38,2003.759 
		3664.328,2000.653 3661.228,1999.632 3657.076,1998.581 3653.968,1997.528 3649.818,1996.501 3646.714,1995.479 3645.689,1993.376 
		3645.689,1991.327 3647.744,1989.249 3650.871,1986.146 3652.949,1984.069 3656.048,1980.968 3658.123,1978.868 3657.076,1974.741 
			"/>
	<polyline display="inline" fill="none" points="3657.076,1974.741 3653.968,1973.688 3649.818,1973.688 3645.689,1972.663 
		3642.564,1972.663 3639.46,1972.663 3638.412,1970.589 3637.382,1968.511 3639.46,1965.409 3641.539,1963.335 3644.642,1960.229 
		3646.714,1957.128 3648.794,1954.003 3646.714,1950.901 3643.617,1949.849 3639.46,1949.849 3636.363,1949.849 3632.208,1949.849 
		3629.107,1949.849 3628.056,1947.798 3627.031,1946.774 3629.107,1943.646 3630.128,1940.521 3632.208,1937.442 3634.285,1934.317 
		3636.363,1931.212 3634.285,1927.063 3630.128,1928.11 3627.031,1928.11 3622.876,1928.11 3619.777,1929.138 3615.625,1929.138 
		3614.572,1927.063 3613.544,1926.011 3614.572,1922.937 3616.65,1919.806 3617.699,1915.651 3619.777,1912.552 3620.802,1909.45 
		3618.722,1906.325 3614.572,1906.325 3611.47,1907.372 3607.318,1908.423 3604.216,1909.45 3601.113,1910.476 3599.039,1908.423 
		3597.988,1907.372 3599.039,1903.22 3600.064,1900.118 3601.113,1896.991 3602.138,1892.864 3603.191,1889.765 3600.064,1886.638 
		3596.962,1887.659 3593.859,1888.712 3589.707,1890.786 3586.605,1891.813 3583.48,1892.864 3581.4,1891.813 3579.326,1889.765 
		3580.376,1886.638 3581.4,1883.532 3582.453,1879.38 3582.453,1876.278 3583.48,1872.126 3580.376,1870.077 3577.273,1871.099 
		3573.121,1873.153 3569.996,1874.206 3566.894,1876.278 3563.792,1878.354 3561.712,1876.278 3560.689,1875.253 3560.689,1872.126 
		3560.689,1867.974 3561.712,1864.872 3561.712,1860.745 3561.712,1857.618 3558.615,1855.567 3555.488,1857.618 3552.384,1858.642 
		3549.283,1860.745 3546.156,1862.794 3543.054,1864.872 3540.976,1863.847 3538.902,1862.794 3538.902,1859.692 3538.902,1856.593 
		3538.902,1852.438 3538.902,1848.286 3537.875,1845.187 3534.773,1843.104 3531.648,1845.187 3528.542,1848.286 3526.466,1850.364 
		3523.369,1852.438 3520.238,1855.567 3518.189,1854.513 3516.115,1853.466 3516.115,1850.364 3516.115,1846.237 3515.062,1843.104 
		3514.035,1838.954 3514.035,1835.854 3509.88,1834.802 3506.783,1836.907 3504.705,1840.007 3501.603,1842.085 3499.529,1845.187 
		3497.451,1848.286 3495.375,1847.261 3493.296,1847.261 3492.271,1843.104 3491.222,1840.007 3490.197,1835.854 3489.144,1832.753 
		3488.119,1829.628 3483.964,1828.601 3481.892,1831.729 3479.814,1833.78 3477.74,1836.907 	"/>
	<polyline display="inline" fill="none" points="3477.74,1836.907 3475.689,1840.007 3473.611,1843.104 3471.537,1843.104 
		3468.406,1843.104 3467.382,1838.954 3466.357,1835.854 3465.304,1832.753 3463.23,1829.628 3462.205,1825.499 3458.05,1825.499 
		3455.97,1828.601 3453.898,1831.729 3451.82,1834.802 3450.796,1837.933 3448.718,1841.062 3446.646,1841.062 3444.566,1841.062 
		3442.492,1837.933 3441.464,1834.802 3439.386,1831.729 3437.314,1828.601 3435.234,1825.499 3431.113,1825.499 3430.06,1829.628 
		3427.982,1832.753 3426.958,1835.854 3425.931,1838.954 3424.878,1843.104 3421.781,1843.104 3419.701,1843.104 3417.625,1840.007 
		3415.546,1836.907 3413.472,1833.78 3411.419,1831.729 3409.322,1828.601 3405.167,1829.628 3404.142,1832.753 3403.115,1835.854 
		3402.091,1840.007 3401.041,1843.104 3399.99,1847.261 3397.939,1847.261 3395.835,1848.286 3393.789,1845.187 3391.708,1842.085 
		3388.609,1840.007 3386.535,1836.907 3383.427,1834.802 3379.275,1835.854 3379.275,1838.954 3378.251,1843.104 3377.203,1846.237 
		3377.203,1850.364 3377.203,1853.466 3375.125,1854.513 3373.048,1855.567 3369.949,1852.438 3366.818,1850.364 3364.769,1848.286 
		3361.644,1845.187 3358.539,1843.104 3355.437,1845.187 3354.382,1848.286 3354.382,1852.438 3354.382,1856.593 3354.382,1859.692 
		3354.382,1862.794 3352.31,1863.847 3350.259,1864.872 3347.128,1862.794 3344.031,1860.745 3340.927,1858.642 3337.802,1857.618 
		3334.699,1855.567 3331.597,1857.618 3331.597,1860.745 3331.597,1864.872 3332.625,1867.974 3332.625,1872.126 3332.625,1875.253 
		3331.597,1876.278 3329.498,1878.354 3326.417,1876.278 3323.292,1874.206 3320.166,1873.153 3316.039,1871.099 3312.937,1870.077 
		3309.806,1872.126 3310.833,1876.278 3310.833,1879.38 3311.884,1883.532 3312.937,1886.638 3313.958,1889.765 3311.884,1891.813 
		3309.806,1892.864 3306.707,1891.813 3303.605,1890.786 3299.453,1888.712 3296.328,1887.659 3293.226,1886.638 3290.121,1889.765 
		3291.146,1892.864 3292.199,1896.991 3293.226,1900.118 3294.273,1903.22 3295.298,1907.372 3294.273,1908.423 3292.199,1910.476 
		3289.097,1909.45 3285.966,1908.423 3281.814,1907.372 3278.712,1906.325 3274.585,1906.325 3272.488,1909.45 3273.537,1912.552 
		3275.615,1915.651 3276.638,1919.806 3278.712,1922.937 3279.767,1926.011 3278.712,1928.11 	"/>
	<polyline display="inline" fill="none" points="3278.712,1928.11 3277.664,1929.138 3273.537,1929.138 3270.435,1928.11 
		3266.283,1928.11 3263.156,1928.11 3259.029,1927.063 3256.955,1931.212 3259.029,1934.317 3261.105,1937.442 3263.156,1940.521 
		3264.208,1943.646 3266.283,1946.774 3265.257,1948.823 3264.208,1949.849 3261.105,1949.849 3256.955,1949.849 3253.824,1949.849 
		3249.697,1949.849 3246.593,1950.901 3244.496,1954.003 3246.593,1957.128 3248.648,1960.229 3251.773,1963.335 3253.824,1965.409 
		3255.925,1968.511 3254.875,1970.589 3253.824,1972.663 3250.722,1972.663 3247.623,1972.663 3243.468,1973.688 3239.316,1973.688 
		3236.214,1974.741 3235.164,1978.868 3237.261,1980.968 3240.369,1984.069 3242.441,1986.146 3245.542,1989.249 3247.623,1991.327 
		3247.623,1993.376 3246.593,1995.479 3243.468,1996.501 3239.316,1997.528 3236.214,1998.581 3232.085,1999.632 3228.957,2000.653 
		3227.935,2003.759 3231.037,2006.86 3234.134,2008.937 3236.214,2011.013 3239.316,2013.087 3242.441,2015.165 3242.441,2017.216 
		3242.441,2019.319 3238.291,2020.341 3235.164,2022.419 3232.085,2023.446 3227.935,2024.493 3224.802,2026.548 3224.802,2029.673 
		3227.935,2032.774 3231.037,2033.825 3234.134,2035.878 3237.261,2037.979 3240.369,2040.03 3240.369,2042.104 3240.369,2044.187 
		3237.261,2045.206 3233.109,2047.284 3229.984,2049.356 3226.88,2050.386 3223.783,2052.487 3223.783,2056.612 3226.88,2058.69 
		3231.037,2059.718 3234.134,2061.792 3237.261,2062.845 3240.369,2063.872 3240.369,2065.944 3241.416,2069.046 3238.291,2070.073 
		3235.164,2072.177 3232.085,2074.228 3228.957,2076.304 3225.832,2079.405 3226.88,2082.532 3229.984,2084.579 3233.109,2085.632 
		3237.261,2086.687 3240.369,2087.71 3243.468,2088.729 3244.496,2090.837 3244.496,2092.886 3242.441,2094.964 3239.316,2097.038 
		3236.214,2100.146 3234.134,2102.218 3231.037,2105.343 3232.085,2108.423 3236.214,2109.472 3239.316,2110.521 3243.468,2110.521 
		3246.593,2111.55 3249.697,2111.55 3250.722,2114.649 3251.773,2116.729 3248.648,2118.804 3246.593,2120.882 3244.496,2123.981 
		3241.416,2127.083 3239.316,2130.21 3240.369,2133.312 3244.496,2134.362 3248.648,2134.362 3251.773,2134.362 3255.925,2134.362 
		3259.029,2134.362 3260.052,2136.415 3261.105,2138.489 3259.029,2141.591 3256.955,2144.72 	"/>
	<polyline display="inline" fill="none" points="3256.955,2144.72 3254.875,2147.821 3252.8,2150.923 3250.722,2154.048 
		3252.8,2157.153 3255.925,2157.153 3260.052,2157.153 3263.156,2157.153 3267.306,2157.153 3270.435,2156.104 3271.46,2158.2 
		3273.537,2160.255 3271.46,2163.38 3269.38,2166.479 3267.306,2169.583 3266.283,2172.714 3264.208,2176.841 3266.283,2178.915 
		3270.435,2178.915 3274.585,2178.915 3277.664,2177.888 3280.792,2176.841 3284.945,2176.841 3285.966,2177.888 3288.044,2179.94 
		3285.966,2183.065 3284.945,2186.169 3282.867,2190.296 3281.814,2193.425 3280.792,2196.552 3283.917,2199.628 3286.994,2198.603 
		3291.146,2197.579 3294.273,2196.552 3297.376,2195.499 3301.533,2194.448 3302.552,2196.552 3304.63,2197.579 3303.605,2200.679 
		3302.552,2204.833 3301.533,2207.935 3300.48,2212.085 3299.453,2215.188 3302.552,2218.288 3305.656,2216.237 3309.806,2215.188 
		3312.937,2214.136 3316.039,2212.085 3319.138,2211.062 3321.216,2212.085 3323.292,2213.112 3322.263,2217.265 3321.216,2220.366 
		3321.216,2224.521 3321.216,2227.62 3320.166,2231.771 3323.292,2233.853 3327.445,2231.771 3330.544,2230.745 3333.65,2228.646 
		3336.775,2226.593 3339.875,2224.521 3341.957,2225.571 3344.031,2226.593 3342.978,2230.745 3342.978,2233.853 3342.978,2237.976 
		3342.978,2241.104 3342.978,2245.259 3346.109,2247.306 3350.259,2245.259 3352.31,2243.153 3355.437,2241.104 3358.539,2237.976 
		3361.644,2235.925 3363.716,2236.952 3365.794,2237.976 3365.794,2241.104 3365.794,2245.259 3365.794,2248.356 3366.818,2252.485 
		3366.818,2255.61 3370.968,2257.688 3374.101,2254.585 3376.15,2252.485 3379.275,2250.431 3381.33,2247.306 3384.457,2245.259 
		3386.535,2245.259 3388.609,2246.28 3388.609,2249.409 3389.632,2253.538 3390.658,2256.638 3391.708,2260.79 3392.759,2263.917 
		3395.835,2264.944 3398.96,2261.815 3401.041,2259.765 3403.115,2256.638 3406.218,2253.538 3408.292,2250.431 3410.373,2251.458 
		3412.447,2251.458 3413.472,2254.585 3414.5,2258.712 3415.546,2261.815 3416.601,2265.97 3418.654,2269.097 3421.781,2269.097 
		3424.878,2265.97 3426.958,2262.864 3429.033,2259.765 3430.06,2256.638 3432.132,2253.538 3434.21,2254.585 3436.287,2254.585 
		3438.367,2257.688 3439.386,2260.79 3441.464,2263.917 3442.492,2266.993 3444.566,2271.146 	"/>
	<polyline display="inline" fill="none" points="3444.566,2271.146 3448.718,2271.146 3450.796,2266.993 3451.82,2263.917 
		3453.898,2260.79 3454.951,2257.688 3457.023,2254.585 3459.103,2254.585 3461.152,2253.538 3463.23,2256.638 3464.279,2259.765 
		3466.357,2262.864 3468.406,2265.97 3471.537,2269.097 3474.636,2269.097 3476.71,2265.97 3477.74,2261.815 3478.791,2258.712 
		3479.814,2254.585 3480.865,2251.458 3482.943,2251.458 3484.994,2250.431 3487.072,2253.538 3490.197,2256.638 3492.271,2259.765 
		3494.324,2261.815 3497.451,2264.944 3500.548,2263.917 3501.603,2260.79 3502.626,2256.638 3503.656,2253.538 3504.705,2249.409 
		3504.705,2246.28 3506.783,2245.259 3508.855,2245.259 3511.96,2247.306 3514.035,2250.431 3517.134,2252.485 3519.212,2254.585 
		3522.316,2257.688 3526.466,2255.61 3526.466,2252.485 3527.496,2248.356 3527.496,2245.259 3527.496,2241.104 3527.496,2237.976 
		3529.57,2236.952 3531.648,2235.925 3534.773,2237.976 3537.875,2241.104 3540.976,2243.153 3543.054,2245.259 3547.207,2247.306 
		3550.306,2245.259 3550.306,2241.104 3550.306,2237.976 3550.306,2233.853 3550.306,2230.745 3549.283,2226.593 3551.359,2225.571 
		3553.408,2224.521 3556.541,2226.593 3559.638,2228.646 3562.742,2230.745 3565.867,2231.771 3569.996,2233.853 3573.121,2231.771 
		3572.074,2227.62 3572.074,2224.521 3572.074,2220.366 3571.044,2217.265 3569.996,2213.112 3572.074,2212.085 3574.146,2211.062 
		3577.273,2212.085 3580.376,2214.136 3583.48,2215.188 3587.63,2216.237 3590.732,2218.288 3593.859,2215.188 3592.812,2212.085 
		3591.785,2207.935 3590.732,2204.833 3589.707,2200.679 3588.66,2197.579 3590.732,2196.552 3591.785,2194.448 3595.914,2195.499 
		3599.039,2196.552 3602.138,2197.579 3606.292,2198.603 3609.394,2199.628 3612.498,2196.552 3611.47,2193.425 3610.445,2190.296 
		3608.371,2186.169 3607.318,2183.065 3605.24,2179.94 3607.318,2177.888 3608.371,2176.841 3612.498,2176.841 3615.625,2177.888 
		3618.722,2178.915 3622.876,2178.915 3627.031,2178.915 3629.107,2176.841 3627.031,2172.714 3625.978,2169.583 3623.904,2166.479 
		3621.826,2163.38 3619.777,2160.255 3621.826,2158.2 3622.876,2156.104 3625.978,2157.153 3630.128,2157.153 3633.238,2157.153 
		3637.382,2157.153 3640.49,2157.153 3642.564,2154.048 3640.49,2150.923 3638.412,2147.821 	"/>
	<polyline display="inline" fill="none" points="3638.412,2147.821 3636.363,2144.72 3634.285,2141.591 3632.208,2138.489 
		3633.238,2136.415 3634.285,2134.362 3637.382,2134.362 3641.539,2134.362 3644.642,2134.362 3648.794,2134.362 3652.949,2133.312 
		3653.968,2130.21 3651.896,2127.083 3648.794,2123.981 3646.714,2120.882 3644.642,2118.804 3641.539,2116.729 3642.564,2113.624 
		3643.617,2111.55 3646.714,2111.55 3649.818,2110.521 3653.968,2110.521 3657.076,2109.472 3661.228,2108.423 3662.275,2105.343 
		3659.15,2102.218 3657.076,2100.146 3653.968,2097.038 3650.871,2094.964 3648.794,2092.886 3648.794,2090.837 3649.818,2088.729 
		3652.949,2087.71 3656.048,2086.687 3660.203,2085.632 3663.3,2084.579 3666.404,2082.532 3667.457,2079.405 3664.328,2076.304 
		3661.228,2074.228 3658.123,2072.177 3654.998,2070.073 3651.896,2069.046 3652.949,2065.944 3652.949,2063.872 3656.048,2062.845 
		3659.15,2061.792 3662.275,2059.718 3666.404,2058.69 3669.535,2056.612 3669.535,2052.487 3666.404,2050.386 	"/>
	<polygon display="inline" fill="none" points="3460.125,2052.487 3458.05,2056.612 3454.951,2059.718 3450.796,2061.792 
		3446.646,2061.792 3442.492,2061.792 3438.367,2059.718 3435.234,2056.612 3433.16,2052.487 3432.132,2048.333 3433.16,2043.159 
		3435.234,2040.03 3438.367,2036.927 3442.492,2034.854 3446.646,2033.825 3450.796,2034.854 3454.951,2036.927 3458.05,2040.03 
		3460.125,2044.187 3461.152,2048.333 	"/>
	<polyline display="inline" fill="none" points="3573.121,2379.987 3569.996,2378.964 3566.894,2376.862 3562.742,2375.835 
		3559.638,2374.813 3559.638,2371.685 3559.638,2369.634 3562.742,2368.581 3564.814,2366.507 3567.945,2364.429 3571.044,2361.327 
		3574.146,2359.249 3573.121,2355.126 3568.966,2354.073 3565.867,2353.021 3562.742,2351.995 3558.615,2351.995 3555.488,2350.972 
		3554.458,2348.896 3553.408,2346.819 3556.541,2344.741 3558.615,2341.644 3561.712,2339.563 3563.792,2336.462 3565.867,2333.335 
		3564.814,2330.235 3560.689,2329.185 3556.541,2329.185 3553.408,2329.185 3549.283,2329.185 3546.156,2329.185 3545.126,2327.13 
		3544.105,2325.056 3546.156,2322.979 3547.207,2319.853 3549.283,2316.772 3551.359,2312.622 3552.384,2309.497 3550.306,2306.396 
		3546.156,2306.396 3543.054,2307.44 3538.902,2308.47 3535.8,2308.47 3532.697,2310.548 3530.623,2308.47 3529.57,2306.396 
		3530.623,2303.29 3531.648,2300.163 3532.697,2296.011 3533.72,2292.938 	"/>
	<polyline display="inline" fill="none" points="3533.72,2292.938 3534.773,2288.782 3531.648,2286.704 3528.542,2287.757 
		3524.388,2288.782 3521.289,2290.831 3518.189,2291.884 3515.062,2293.962 3512.984,2291.884 3510.91,2290.831 3511.96,2287.757 
		3512.984,2283.604 3512.984,2280.479 3512.984,2276.325 3512.984,2273.226 3509.88,2271.146 3506.783,2273.226 3503.656,2275.298 
		3500.548,2277.378 3497.451,2279.452 3495.375,2281.503 3492.271,2280.479 3490.197,2279.452 3490.197,2276.325 3490.197,2272.198 
		3490.197,2269.097 3489.144,2264.944 3488.119,2261.815 3484.994,2260.79 3481.892,2262.864 3479.814,2264.944 3476.71,2268.044 
		3474.636,2271.146 3472.56,2273.226 3470.484,2273.226 3467.382,2272.198 3467.382,2269.097 3466.357,2265.97 3465.304,2262.864 
		3463.23,2258.712 3462.205,2255.61 3458.05,2254.585 3455.97,2257.688 3453.898,2260.79 3451.82,2263.917 3450.796,2268.044 
		3448.718,2271.146 3446.646,2271.146 3444.566,2271.146 3442.492,2268.044 3441.464,2263.917 3439.386,2260.79 3437.314,2257.688 
		3435.234,2254.585 3431.113,2255.61 3430.06,2258.712 3427.982,2262.864 3426.958,2265.97 3425.931,2269.097 3425.931,2272.198 
		3422.804,2273.226 3420.751,2273.226 3418.654,2271.146 3416.601,2268.044 3413.472,2264.944 3411.419,2262.864 3408.292,2260.79 
		3405.167,2261.815 3404.142,2264.944 3403.115,2269.097 3403.115,2272.198 3403.115,2276.325 3403.115,2279.452 3399.99,2280.479 
		3397.939,2281.503 3395.835,2279.452 3392.759,2277.378 3389.632,2275.298 3386.535,2273.226 3383.427,2271.146 3380.302,2273.226 
		3380.302,2276.325 3380.302,2280.479 3380.302,2283.604 3381.33,2287.757 3382.38,2290.831 3380.302,2292.938 3378.251,2293.962 
		3375.125,2291.884 3371.998,2290.831 3368.919,2288.782 3364.769,2287.757 3361.644,2286.704 3358.539,2288.782 3359.587,2292.938 
		3360.617,2296.011 3361.644,2300.163 3362.666,2303.29 3363.716,2306.396 3362.666,2308.47 3360.617,2310.548 3357.49,2308.47 
		3354.382,2308.47 3350.259,2307.44 3347.128,2306.396 3342.978,2306.396 3340.927,2309.497 3341.957,2312.622 3344.031,2316.772 
		3346.109,2319.853 3347.128,2322.979 3349.208,2325.056 3348.158,2327.13 3347.128,2329.185 3344.031,2329.185 3339.875,2329.185 
		3336.775,2329.185 3332.625,2329.185 3328.47,2330.235 3327.445,2333.335 3329.498,2336.462 	"/>
	<polyline display="inline" fill="none" points="3329.498,2336.462 3331.597,2339.563 3334.699,2341.644 3336.775,2344.741 
		3339.875,2346.819 3338.826,2348.896 3337.802,2350.972 3334.699,2351.995 3330.544,2351.995 3327.445,2353.021 3324.318,2354.073 
		3320.166,2355.126 3319.138,2359.249 3322.263,2361.327 3325.371,2364.429 3328.47,2366.507 3330.544,2368.581 3333.65,2369.634 
		3333.65,2372.708 3333.65,2374.813 3330.544,2375.835 3326.417,2376.862 3323.292,2378.964 3320.166,2379.987 3317.089,2382.04 
		3317.089,2386.19 3320.166,2388.269 3323.292,2389.319 3326.417,2391.368 3330.544,2392.421 3333.65,2393.472 3333.65,2395.521 
		3333.65,2398.649 3330.544,2399.673 3328.47,2401.753 3325.371,2403.827 3322.263,2406.935 3319.138,2409.005 3320.166,2413.157 
		3324.318,2414.187 3327.445,2415.212 3330.544,2416.259 3334.699,2416.259 3337.802,2416.259 3338.826,2419.364 3339.875,2421.438 
		3336.775,2423.519 3334.699,2426.618 3331.597,2428.69 3329.498,2431.823 3327.445,2434.896 3328.47,2438.022 3332.625,2439.05 
		3336.775,2439.05 3339.875,2439.05 3344.031,2439.05 3347.128,2439.05 3348.158,2441.126 3349.208,2443.204 3347.128,2445.274 
		3346.109,2448.378 3344.031,2451.509 3341.957,2455.636 3340.927,2458.737 3342.978,2461.864 3347.128,2461.864 3350.259,2460.837 
		3354.382,2459.79 3357.49,2458.737 3360.617,2457.71 3362.666,2459.79 3363.716,2461.864 3362.666,2464.964 3361.644,2468.063 
		3360.617,2472.218 3359.587,2475.351 3358.539,2479.478 3361.644,2481.55 3364.769,2480.522 3368.919,2479.478 3371.998,2477.396 
		3375.125,2476.37 3378.251,2474.298 3380.302,2476.37 3382.38,2477.396 3381.33,2480.522 3380.302,2484.677 3380.302,2487.755 
		3380.302,2491.909 3380.302,2495.034 3383.427,2497.083 3386.535,2495.034 3389.632,2492.931 3392.759,2490.882 3395.835,2488.804 
		3397.939,2486.729 3401.041,2487.755 3403.115,2488.804 3403.115,2491.909 3403.115,2496.063 3403.115,2499.188 3404.142,2503.313 
		3405.167,2506.417 3408.292,2507.468 3411.419,2505.39 3413.472,2502.263 3416.601,2500.214 3418.654,2497.083 3420.751,2493.981 
		3422.804,2495.034 3425.931,2495.034 3425.931,2499.188 3426.958,2502.263 3427.982,2505.39 3430.06,2509.542 3431.113,2512.646 
		3435.234,2512.646 3437.314,2510.569 3439.386,2507.468 3441.464,2503.313 3442.492,2500.214 	"/>
	<polyline display="inline" fill="none" points="3442.492,2500.214 3444.566,2497.083 3446.646,2497.083 3448.718,2497.083 
		3450.796,2500.214 3451.82,2503.313 3453.898,2507.468 3455.97,2510.569 3458.05,2512.646 3462.205,2512.646 3463.23,2509.542 
		3465.304,2505.39 3466.357,2502.263 3467.382,2499.188 3467.382,2495.034 3470.484,2495.034 3472.56,2493.981 3474.636,2497.083 
		3476.71,2500.214 3479.814,2502.263 3481.892,2505.39 3484.994,2507.468 3488.119,2506.417 3489.144,2503.313 3490.197,2499.188 
		3490.197,2496.063 3490.197,2491.909 3490.197,2488.804 3493.296,2487.755 3495.375,2486.729 3497.451,2488.804 3500.548,2490.882 
		3503.656,2492.931 3506.783,2495.034 3509.88,2497.083 3512.984,2495.034 3512.984,2491.909 3512.984,2487.755 3512.984,2484.677 
		3511.96,2480.522 3510.91,2477.396 3512.984,2475.351 3515.062,2474.298 3518.189,2476.37 3521.289,2477.396 3524.388,2479.478 
		3528.542,2480.522 3531.648,2481.55 3534.773,2479.478 3533.72,2475.351 3532.697,2472.218 3531.648,2468.063 3530.623,2464.964 
		3529.57,2461.864 3530.623,2459.79 3532.697,2457.71 3535.8,2458.737 3538.902,2459.79 3543.054,2460.837 3546.156,2461.864 
		3550.306,2461.864 3552.384,2458.737 3551.359,2455.636 3549.283,2451.509 3547.207,2448.378 3546.156,2445.274 3544.105,2443.204 
		3545.126,2441.126 3546.156,2439.05 3549.283,2439.05 3553.408,2439.05 3556.541,2439.05 3560.689,2439.05 3564.814,2438.022 
		3565.867,2434.896 3563.792,2431.823 3561.712,2428.69 3558.615,2426.618 3556.541,2423.519 3553.408,2421.438 3554.458,2419.364 
		3555.488,2416.259 3558.615,2416.259 3562.742,2416.259 3565.867,2415.212 3568.966,2414.187 3573.121,2413.157 3574.146,2409.005 
		3571.044,2406.935 3567.945,2403.827 3564.814,2401.753 3562.742,2399.673 3559.638,2398.649 3559.638,2395.521 3559.638,2393.472 
		3562.742,2392.421 3566.894,2391.368 3569.996,2389.319 3573.121,2388.269 3576.226,2386.19 3576.226,2382.04 3573.121,2379.987 	
		"/>
	<polyline display="inline" fill="none" points="3460.125,2388.269 3458.05,2392.421 3454.951,2395.521 3450.796,2397.601 
		3446.646,2398.649 3442.492,2397.601 3438.367,2395.521 3435.234,2392.421 3433.16,2388.269 3432.132,2384.14 3433.16,2379.987 
		3435.234,2375.835 3438.367,2372.708 3442.492,2370.659 3446.646,2369.634 3450.796,2370.659 3454.951,2372.708 3458.05,2375.835 
		3460.125,2379.987 3461.152,2384.14 	"/>
	<line display="inline" fill="none" x1="3461.152" y1="2384.14" x2="3460.125" y2="2388.269"/>
</g>
<polyline display="none" fill="none" points="-2785.688,2392.451 -2755.468,2392.451 -2732.498,2392.451 -2702.268,2392.451 "/>
<path fill="none" stroke="#000000" stroke-miterlimit="10" d="M1352.492,1480.691h325.984v785.18h-325.984V1480.691z
	 M1365.248,1509.021v12.756h8.504v-25.513h-8.504V1509.021 M1365.248,1734.846v12.756h8.504v-25.512h-8.504V1734.846
	 M1365.248,1960.674v12.756h8.504v-25.512h-8.504V1960.674 M1365.248,2186.5v12.758h8.504v-25.514h-8.504V2186.5 M1665.718,2186.5
	v-12.756h-8.504v25.514h8.504V2186.5 M1665.718,1960.674v-12.758h-8.504v25.514h8.504V1960.674 M1665.718,1734.846v-12.756h-8.504
	v25.512h8.504V1734.846 M1665.718,1509.021v-12.757h-8.504v25.513h8.504V1509.021 M1511.232,1509.021v12.756h8.504v-25.513h-8.504
	V1509.021 M1511.232,1734.846v12.756h8.504v-25.512h-8.504V1734.846 M1511.232,1960.674v12.756h8.504v-25.512h-8.504V1960.674
	 M1511.232,2186.5v12.758h8.504v-25.514h-8.504V2186.5"/>
<path fill="none" stroke="#000000" stroke-miterlimit="10" d="M1008.214,1421v-13.604c0.193-1.036,1.004-1.848,2.041-2.041
	l32.314-3.145v-2.725c0.193-1.035,1.004-1.849,2.041-2.041h6.803c1.037,0.192,1.85,1.006,2.041,2.041v21.26L1008.214,1421"/>
<circle fill="none" stroke="#000000" stroke-miterlimit="10" cx="1013.828" cy="1412.496" r="2.211"/>
<path fill="none" stroke="#000000" stroke-miterlimit="10" d="M1059.24,1421v-13.604c0.193-1.036,1.004-1.848,2.041-2.041
	l32.313-3.145v-2.725c0.191-1.035,1.006-1.849,2.041-2.041h6.805c1.037,0.192,1.848,1.006,2.041,2.041v21.26L1059.24,1421"/>
<circle fill="none" stroke="#000000" stroke-miterlimit="10" cx="1064.853" cy="1412.496" r="2.211"/>
<path fill="none" stroke="#000000" stroke-miterlimit="10" d="M1110.261,1421v-13.604c0.193-1.036,1.006-1.848,2.041-2.041
	l32.314-3.145v-2.725c0.193-1.035,1.004-1.849,2.041-2.041h6.803c1.037,0.192,1.85,1.006,2.041,2.041v21.26L1110.261,1421"/>
<circle fill="none" stroke="#000000" stroke-miterlimit="10" cx="1115.875" cy="1412.496" r="2.211"/>
<path fill="none" stroke="#000000" stroke-miterlimit="10" d="M1161.287,1421v-13.604c0.193-1.036,1.004-1.848,2.041-2.041
	l32.314-3.145v-2.725c0.189-1.035,1.004-1.849,2.041-2.041h6.803c1.037,0.192,1.85,1.006,2.041,2.041v21.26L1161.287,1421"/>
<circle fill="none" stroke="#000000" stroke-miterlimit="10" cx="1166.9" cy="1412.496" r="2.211"/>
<path fill="none" stroke="#000000" stroke-miterlimit="10" d="M1212.31,1421v-13.604c0.191-1.036,1.004-1.848,2.041-2.041
	l32.313-3.145v-2.725c0.193-1.035,1.006-1.849,2.041-2.041h6.805c1.035,0.192,1.85,1.006,2.041,2.041v21.26L1212.31,1421"/>
<circle fill="none" stroke="#000000" stroke-miterlimit="10" cx="1217.921" cy="1412.496" r="2.211"/>
<path fill="none" stroke="#000000" stroke-miterlimit="10" d="M1263.333,1421v-13.604c0.193-1.036,1.004-1.848,2.041-2.041
	l32.316-3.145v-2.725c0.189-1.035,1.004-1.849,2.039-2.041h6.805c1.035,0.192,1.848,1.006,2.041,2.041v21.26L1263.333,1421"/>
<circle fill="none" stroke="#000000" stroke-miterlimit="10" cx="1268.947" cy="1412.496" r="2.211"/>
<path fill="none" stroke="#000000" stroke-miterlimit="10" d="M1314.357,1421v-13.604c0.191-1.036,1.006-1.848,2.041-2.041
	l32.313-3.145v-2.725c0.191-1.035,1.006-1.849,2.041-2.041h6.807c1.037,0.192,1.848,1.006,2.041,2.041v21.26L1314.357,1421"/>
<circle fill="none" stroke="#000000" stroke-miterlimit="10" cx="1319.968" cy="1412.496" r="2.211"/>
<path fill="none" stroke="#000000" stroke-miterlimit="10" d="M1365.378,1421v-13.604c0.193-1.036,1.006-1.848,2.041-2.041
	l32.316-3.145v-2.725c0.193-1.035,1.004-1.849,2.041-2.041h6.803c1.037,0.192,1.85,1.006,2.041,2.041v21.26L1365.378,1421"/>
<circle fill="none" stroke="#000000" stroke-miterlimit="10" cx="1370.994" cy="1412.496" r="2.211"/>
<path fill="none" stroke="#000000" stroke-miterlimit="10" d="M1416.406,1421v-13.604c0.189-1.036,1.004-1.848,2.039-2.041
	l32.314-3.145v-2.725c0.191-1.035,1.004-1.849,2.041-2.041h6.805c1.035,0.192,1.848,1.006,2.041,2.041v21.26L1416.406,1421"/>
<circle fill="none" stroke="#000000" stroke-miterlimit="10" cx="1422.017" cy="1412.496" r="2.211"/>
<path fill="none" stroke="#000000" stroke-miterlimit="10" d="M1467.427,1421v-13.604c0.193-1.036,1.006-1.848,2.041-2.041
	l32.314-3.145v-2.725c0.193-1.035,1.004-1.849,2.041-2.041h6.803c1.037,0.192,1.85,1.006,2.041,2.041v21.26L1467.427,1421"/>
<circle fill="none" stroke="#000000" stroke-miterlimit="10" cx="1473.041" cy="1412.496" r="2.211"/>
<path fill="none" stroke="#000000" stroke-miterlimit="10" d="M1518.453,1421v-13.604c0.193-1.036,1.004-1.848,2.041-2.041
	l32.314-3.145v-2.725c0.189-1.035,1.004-1.849,2.041-2.041h6.803c1.037,0.192,1.848,1.006,2.041,2.041v21.26L1518.453,1421"/>
<circle fill="none" stroke="#000000" stroke-miterlimit="10" cx="1524.064" cy="1412.496" r="2.211"/>
<path fill="none" stroke="#000000" stroke-miterlimit="10" d="M1569.476,1421v-13.604c0.191-1.036,1.004-1.848,2.041-2.041
	l32.313-3.145v-2.725c0.193-1.035,1.004-1.849,2.041-2.041h6.803c1.037,0.192,1.85,1.006,2.041,2.041v21.26L1569.476,1421"/>
<circle fill="none" stroke="#000000" stroke-miterlimit="10" cx="1575.085" cy="1412.496" r="2.211"/>
<path fill="none" stroke="#000000" stroke-miterlimit="10" d="M1620.5,1421v-13.604c0.193-1.036,1.004-1.848,2.041-2.041
	l32.314-3.145v-2.725c0.189-1.035,1.004-1.849,2.041-2.041h6.803c1.037,0.192,1.848,1.006,2.041,2.041v21.26L1620.5,1421"/>
<circle fill="none" stroke="#000000" stroke-miterlimit="10" cx="1626.113" cy="1412.496" r="2.211"/>
<path fill="none" stroke="#000000" stroke-miterlimit="10" d="M544.964,413.51v-13.604c0.191-1.037,1.004-1.85,2.041-2.041
	l32.313-3.146v-2.723c0.192-1.035,1.004-1.848,2.041-2.041h6.805c1.035,0.193,1.848,1.006,2.041,2.041v21.26L544.964,413.51"/>
<circle fill="none" stroke="#000000" stroke-miterlimit="10" cx="550.577" cy="405.006" r="2.211"/>
<path fill="none" stroke="#000000" stroke-miterlimit="10" d="M595.988,413.51v-13.604c0.192-1.037,1.004-1.85,2.041-2.041
	l32.313-3.146v-2.723c0.193-1.035,1.004-1.848,2.041-2.041h6.805c1.035,0.193,1.849,1.006,2.039,2.041v21.26L595.988,413.51"/>
<circle fill="none" stroke="#000000" stroke-miterlimit="10" cx="601.601" cy="405.006" r="2.211"/>
<path fill="none" stroke="#000000" stroke-miterlimit="10" d="M1008.214,1455v-13.604c0.193-1.036,1.004-1.848,2.041-2.041
	l32.314-3.145v-2.725c0.193-1.035,1.004-1.849,2.041-2.041h6.803c1.037,0.192,1.85,1.006,2.041,2.041v21.26L1008.214,1455"/>
<circle fill="none" stroke="#000000" stroke-miterlimit="10" cx="1013.828" cy="1446.496" r="2.211"/>
<path fill="none" stroke="#000000" stroke-miterlimit="10" d="M1059.24,1455v-13.604c0.193-1.036,1.004-1.848,2.041-2.041
	l32.313-3.145v-2.725c0.191-1.035,1.006-1.849,2.041-2.041h6.805c1.037,0.192,1.848,1.006,2.041,2.041v21.26L1059.24,1455"/>
<circle fill="none" stroke="#000000" stroke-miterlimit="10" cx="1064.853" cy="1446.496" r="2.211"/>
<path fill="none" stroke="#000000" stroke-miterlimit="10" d="M1110.261,1455v-13.604c0.193-1.036,1.006-1.848,2.041-2.041
	l32.314-3.145v-2.725c0.193-1.035,1.004-1.849,2.041-2.041h6.803c1.037,0.192,1.85,1.006,2.041,2.041v21.26L1110.261,1455"/>
<circle fill="none" stroke="#000000" stroke-miterlimit="10" cx="1115.875" cy="1446.496" r="2.211"/>
<path fill="none" stroke="#000000" stroke-miterlimit="10" d="M1161.287,1455v-13.604c0.193-1.036,1.004-1.848,2.041-2.041
	l32.314-3.145v-2.725c0.189-1.035,1.004-1.849,2.041-2.041h6.803c1.037,0.192,1.85,1.006,2.041,2.041v21.26L1161.287,1455"/>
<circle fill="none" stroke="#000000" stroke-miterlimit="10" cx="1166.9" cy="1446.496" r="2.211"/>
<path fill="none" stroke="#000000" stroke-miterlimit="10" d="M1212.31,1455v-13.604c0.191-1.036,1.004-1.848,2.041-2.041
	l32.313-3.145v-2.725c0.193-1.035,1.006-1.849,2.041-2.041h6.805c1.035,0.192,1.85,1.006,2.041,2.041v21.26L1212.31,1455"/>
<circle fill="none" stroke="#000000" stroke-miterlimit="10" cx="1217.921" cy="1446.496" r="2.211"/>
<path fill="none" stroke="#000000" stroke-miterlimit="10" d="M1263.333,1455v-13.604c0.193-1.036,1.004-1.848,2.041-2.041
	l32.316-3.145v-2.725c0.189-1.035,1.004-1.849,2.039-2.041h6.805c1.035,0.192,1.848,1.006,2.041,2.041v21.26L1263.333,1455"/>
<circle fill="none" stroke="#000000" stroke-miterlimit="10" cx="1268.947" cy="1446.496" r="2.211"/>
<path fill="none" stroke="#000000" stroke-miterlimit="10" d="M1314.357,1455v-13.604c0.191-1.036,1.006-1.848,2.041-2.041
	l32.313-3.145v-2.725c0.191-1.035,1.006-1.849,2.041-2.041h6.807c1.037,0.192,1.848,1.006,2.041,2.041v21.26L1314.357,1455"/>
<circle fill="none" stroke="#000000" stroke-miterlimit="10" cx="1319.968" cy="1446.496" r="2.211"/>
<path fill="none" stroke="#000000" stroke-miterlimit="10" d="M1365.378,1455v-13.604c0.193-1.036,1.006-1.848,2.041-2.041
	l32.316-3.145v-2.725c0.193-1.035,1.004-1.849,2.041-2.041h6.803c1.037,0.192,1.85,1.006,2.041,2.041v21.26L1365.378,1455"/>
<circle fill="none" stroke="#000000" stroke-miterlimit="10" cx="1370.994" cy="1446.496" r="2.211"/>
<path fill="none" stroke="#000000" stroke-miterlimit="10" d="M1416.406,1455v-13.604c0.189-1.036,1.004-1.848,2.039-2.041
	l32.314-3.145v-2.725c0.191-1.035,1.004-1.849,2.041-2.041h6.805c1.035,0.192,1.848,1.006,2.041,2.041v21.26L1416.406,1455"/>
<circle fill="none" stroke="#000000" stroke-miterlimit="10" cx="1422.017" cy="1446.496" r="2.211"/>
<path fill="none" stroke="#000000" stroke-miterlimit="10" d="M1467.427,1455v-13.604c0.193-1.036,1.006-1.848,2.041-2.041
	l32.314-3.145v-2.725c0.193-1.035,1.004-1.849,2.041-2.041h6.803c1.037,0.192,1.85,1.006,2.041,2.041v21.26L1467.427,1455"/>
<circle fill="none" stroke="#000000" stroke-miterlimit="10" cx="1473.041" cy="1446.496" r="2.211"/>
<path fill="none" stroke="#000000" stroke-miterlimit="10" d="M1518.453,1455v-13.604c0.193-1.036,1.004-1.848,2.041-2.041
	l32.314-3.145v-2.725c0.189-1.035,1.004-1.849,2.041-2.041h6.803c1.037,0.192,1.848,1.006,2.041,2.041v21.26L1518.453,1455"/>
<circle fill="none" stroke="#000000" stroke-miterlimit="10" cx="1524.064" cy="1446.496" r="2.211"/>
<path fill="none" stroke="#000000" stroke-miterlimit="10" d="M1569.476,1455v-13.604c0.191-1.036,1.004-1.848,2.041-2.041
	l32.313-3.145v-2.725c0.193-1.035,1.004-1.849,2.041-2.041h6.803c1.037,0.192,1.85,1.006,2.041,2.041v21.26L1569.476,1455"/>
<circle fill="none" stroke="#000000" stroke-miterlimit="10" cx="1575.085" cy="1446.496" r="2.211"/>
<path fill="none" stroke="#000000" stroke-miterlimit="10" d="M1620.5,1455v-13.604c0.193-1.036,1.004-1.848,2.041-2.041
	l32.314-3.145v-2.725c0.189-1.035,1.004-1.849,2.041-2.041h6.803c1.037,0.192,1.848,1.006,2.041,2.041v21.26L1620.5,1455"/>
<circle fill="none" stroke="#000000" stroke-miterlimit="10" cx="1626.113" cy="1446.496" r="2.211"/>
<path fill="none" stroke="#000000" stroke-miterlimit="10" d="M544.964,447.51v-13.604c0.191-1.037,1.004-1.85,2.041-2.041
	l32.313-3.146v-2.723c0.192-1.035,1.004-1.848,2.041-2.041h6.805c1.035,0.193,1.848,1.006,2.041,2.041v21.26L544.964,447.51"/>
<circle fill="none" stroke="#000000" stroke-miterlimit="10" cx="550.577" cy="439.006" r="2.211"/>
<path fill="none" stroke="#000000" stroke-miterlimit="10" d="M595.988,447.51v-13.604c0.192-1.037,1.004-1.85,2.041-2.041
	l32.313-3.146v-2.723c0.193-1.035,1.004-1.848,2.041-2.041h6.805c1.035,0.193,1.849,1.006,2.039,2.041v21.26L595.988,447.51"/>
<circle fill="none" stroke="#000000" stroke-miterlimit="10" cx="601.601" cy="439.006" r="2.211"/>
<path fill="none" stroke="#000000" stroke-miterlimit="10" d="M1102.378,408.288v-13.604c0.191-1.036,1.004-1.849,2.041-2.04
	l32.314-3.146v-2.723c0.191-1.035,1.004-1.849,2.041-2.041h6.805c1.035,0.192,1.848,1.006,2.041,2.041v21.26L1102.378,408.288"/>
<circle fill="none" stroke="#000000" stroke-miterlimit="10" cx="1107.994" cy="399.784" r="2.211"/>
<path fill="none" stroke="#000000" stroke-miterlimit="10" d="M1153.404,408.288v-13.604c0.191-1.036,1.004-1.849,2.041-2.04
	l32.313-3.146v-2.723c0.193-1.035,1.004-1.849,2.041-2.041h6.807c1.035,0.192,1.848,1.006,2.039,2.041v21.26L1153.404,408.288"/>
<circle fill="none" stroke="#000000" stroke-miterlimit="10" cx="1159.017" cy="399.784" r="2.211"/>
<path fill="none" stroke="#000000" stroke-miterlimit="10" d="M1102.378,442.288v-13.604c0.191-1.036,1.004-1.849,2.041-2.04
	l32.314-3.146v-2.723c0.191-1.035,1.004-1.849,2.041-2.041h6.805c1.035,0.192,1.848,1.006,2.041,2.041v21.26L1102.378,442.288"/>
<circle fill="none" stroke="#000000" stroke-miterlimit="10" cx="1107.994" cy="433.784" r="2.211"/>
<path fill="none" stroke="#000000" stroke-miterlimit="10" d="M1153.404,442.288v-13.604c0.191-1.036,1.004-1.849,2.041-2.04
	l32.313-3.146v-2.723c0.193-1.035,1.004-1.849,2.041-2.041h6.807c1.035,0.192,1.848,1.006,2.039,2.041v21.26L1153.404,442.288"/>
<circle fill="none" stroke="#000000" stroke-miterlimit="10" cx="1159.017" cy="433.784" r="2.211"/>
<path fill="none" stroke="#000000" stroke-miterlimit="10" d="M1097.673,490.945l-8.504,14.729l3.684,2.126l3.682,2.126
	l8.504-14.729L1097.673,490.945z M1096.369,509.312l-6.584-3.803l8.055-13.949l6.586,3.803L1096.369,509.312z"/>
<path fill="none" stroke="#000000" stroke-miterlimit="10" d="M625.119,507.8l3.682-2.126l-8.504-14.729l-7.365,4.252l8.505,14.729
	L625.119,507.8z M620.133,491.56l8.054,13.95l-6.584,3.802l-8.055-13.948L620.133,491.56z"/>
<path fill="none" stroke="#000000" stroke-miterlimit="10" d="M1107.867,557.884v4.252h17.008v-8.504h-17.008V557.884z
	 M1108.318,554.083h16.104v7.604h-16.104V554.083z"/>
<path fill="none" stroke="#000000" stroke-miterlimit="10" d="M1107.867,783.711v4.252h17.008v-8.504h-17.008V783.711z
	 M1108.318,779.909h16.104v7.604h-16.104V779.909z"/>
<path fill="none" stroke="#000000" stroke-miterlimit="10" d="M1107.867,1235.363v4.254h17.008v-8.506h-17.008V1235.363z
	 M1108.318,1231.563h16.104v7.604h-16.104V1231.563z"/>
<path fill="none" stroke="#000000" stroke-miterlimit="10" d="M1107.867,1009.538v4.252h17.008v-8.504h-17.008V1009.538z
	 M1108.318,1005.736h16.104v7.604h-16.104V1005.736z"/>
<polygon fill="none" stroke="#000000" stroke-miterlimit="10" points="610.103,557.884 610.103,553.632 593.096,553.632 
	593.096,562.136 610.103,562.136 "/>
<polygon fill="none" stroke="#000000" stroke-miterlimit="10" points="610.103,783.711 610.103,779.459 593.096,779.459 
	593.096,787.963 610.103,787.963 "/>
<polygon fill="none" stroke="#000000" stroke-miterlimit="10" points="610.103,1009.538 610.103,1005.286 593.096,1005.286 
	593.096,1013.79 610.103,1013.79 "/>
<polygon fill="none" stroke="#000000" stroke-miterlimit="10" points="610.103,1235.363 610.103,1231.111 593.096,1231.111 
	593.096,1239.617 610.103,1239.617 "/>
<path fill="none" stroke="#000000" stroke-miterlimit="10" d="M612.932,1814.707v48.188h184.255v11.34H612.932v394.016h368.507
	v-453.543L612.932,1814.707L612.932,1814.707z M968.681,2126.422v26.033h-8.504v-26.033H968.681z M676.714,2126.422v26.033h-8.504
	v-26.033H676.714z"/>
<path fill="none" stroke="#000000" stroke-miterlimit="10" d="M981.439,1337.316H612.931v48.188h184.256v11.338H612.931v394.017
	h368.508V1337.316L981.439,1337.316z M634.196,1649.029v26.035h-8.504v-26.035H634.196z M926.164,1649.029v26.035h-8.504v-26.035
	H926.164z"/>
<path fill="none" stroke="#000000" stroke-miterlimit="10" d="M433.678,793.569L433.678,793.569l-0.709,20.506h-12.756
	l-0.707-20.506c-12.227-3.145-21.26-14.246-21.26-27.455c0-13.207,9.033-24.307,21.26-27.453l0,0l3.543-172.509h7.086l3.543,172.509
	l0,0c12.227,3.146,21.262,14.244,21.262,27.453S445.907,790.424,433.678,793.569z M434.391,764.883c0-4.305-3.492-7.793-7.797-7.793
	s-7.795,3.488-7.795,7.793s3.49,7.797,7.795,7.797S434.391,769.188,434.391,764.883z"/>
<path fill="none" stroke="#000000" stroke-miterlimit="10" d="M1545.724,1443.144l-0.443-4.064c1.104-1.104,1.104-2.904,0-4.012
	l-10.021-10.021c-1.104-1.104-1.104-2.902,0-4.012l-4.783-154.051c1.66,0.363,3.355-0.072,4.701-1.418
	c2.758-2.756,1.73-6.979-2.275-9.387l-4.23-2.535c1.074,0.076,2.146-0.166,3.014-0.805c2.033-1.492,1.273-3.779-1.686-5.082
	l-3.902-1.719v-11.418c0-1.561-1.27-2.834-2.834-2.834h-2.836c-1.561,0-2.834,1.273-2.834,2.834v11.418l-3.9,1.719
	c-2.959,1.303-3.719,3.59-1.688,5.084c0.869,0.637,1.939,0.879,3.016,0.803l-4.227,2.535c-4.014,2.406-5.037,6.631-2.281,9.387
	c1.352,1.348,3.041,1.783,4.703,1.418l-4.781,154.051c1.104,1.105,1.104,2.902,0,4.01l-10.021,10.021
	c-1.104,1.104-1.104,2.906,0,4.008l-0.441,4.064c-2.82,4.406-4.469,9.641-4.469,15.262c0,15.656,12.689,28.352,28.352,28.352
	c15.65,0,28.348-12.688,28.348-28.352C1550.191,1452.784,1548.548,1447.55,1545.724,1443.144z M1521.841,1466.202
	c-4.305,0-7.795-3.492-7.795-7.797s3.49-7.795,7.795-7.795c4.307,0,7.795,3.492,7.795,7.795
	C1529.636,1462.71,1526.148,1466.202,1521.841,1466.202z"/>
<path fill="none" stroke="#000000" stroke-miterlimit="10" d="M343.991,749.439l-0.443-4.064c1.104-1.104,1.104-2.904,0-4.012
	l-10.021-10.021c-1.104-1.104-1.104-2.902,0-4.012l-4.783-125.705c1.66,0.363,3.355-0.072,4.701-1.418
	c2.758-2.756,1.73-6.979-2.275-9.387l-4.23-2.535c1.074,0.076,2.146-0.166,3.014-0.805c2.033-1.492,1.273-3.779-1.686-5.082
	l-3.902-1.719v-11.418c0-1.561-1.27-2.834-2.834-2.834h-2.836c-1.561,0-2.834,1.273-2.834,2.834v11.418l-3.9,1.719
	c-2.959,1.303-3.719,3.59-1.688,5.084c0.869,0.637,1.939,0.879,3.016,0.803l-4.227,2.535c-4.014,2.406-5.037,6.631-2.281,9.387
	c1.352,1.348,3.041,1.783,4.703,1.418l-4.781,125.705c1.104,1.105,1.104,2.902,0,4.01l-10.021,10.021
	c-1.104,1.104-1.104,2.906,0,4.008l-0.441,4.064c-2.82,4.406-4.469,9.641-4.469,15.262c0,15.656,12.689,28.352,28.352,28.352
	c15.65,0,28.348-12.688,28.348-28.352C348.458,759.08,346.815,753.846,343.991,749.439z M320.108,772.498
	c-4.305,0-7.795-3.492-7.795-7.797s3.49-7.795,7.795-7.795c4.307,0,7.795,3.492,7.795,7.795
	C327.903,769.006,324.415,772.498,320.108,772.498z"/>
<g>
	<path fill="none" stroke="#000000" stroke-miterlimit="10" d="M996.457,1480.691h325.984v785.18H996.458L996.457,1480.691
		L996.457,1480.691z M1009.212,1509.021v12.756h8.504v-25.513h-8.504V1509.021 M1009.212,1734.846v12.756h8.504v-25.512h-8.504
		V1734.846 M1009.212,1960.674v12.756h8.504v-25.512h-8.504V1960.674 M1009.212,2186.5v12.758h8.504v-25.514h-8.504V2186.5
		 M1309.685,2186.5v-12.756h-8.506v25.514h8.506V2186.5 M1309.685,1960.674v-12.758h-8.506v25.514h8.506V1960.674
		 M1309.685,1734.846v-12.756h-8.506v25.512h8.506V1734.846 M1309.685,1509.021v-12.757h-8.506v25.513h8.506V1509.021
		 M1155.197,1509.021v12.756h8.504v-25.513h-8.504V1509.021 M1155.197,1734.846v12.756h8.504v-25.512h-8.504V1734.846
		 M1155.197,1960.674v12.756h8.504v-25.512h-8.504V1960.674 M1155.197,2186.5v12.758h8.504v-25.514h-8.504V2186.5"/>
	<circle fill="none" stroke="#000000" stroke-miterlimit="10" cx="1086.898" cy="1883.193" r="4.535"/>
	<circle fill="none" stroke="#000000" stroke-miterlimit="10" cx="1086.898" cy="1812.327" r="4.536"/>
	<path fill="none" stroke="#000000" stroke-miterlimit="10" d="M1079.689,1875.234c0,0-6.791-5.332-6.791-5.166s0-44.5,0-44.5
		l6.791-5.334l15.168,2.709l6.207,5.25v39.209l-6.041,5.291L1079.689,1875.234z"/>
</g>
<polygon fill="none" stroke="#000000" stroke-miterlimit="10" points="1655.089,490.945 1646.585,505.674 1650.269,507.8 
	1653.951,509.926 1662.455,495.197 "/>
<rect x="1650.749" y="492.303" transform="matrix(-0.866 -0.5 0.5 -0.866 2837.1841 1761.0193)" fill="none" stroke="#000000" stroke-miterlimit="10" width="7.603" height="16.106"/>
<polygon fill="none" stroke="#000000" stroke-miterlimit="10" points="1170.351,495.197 1178.855,509.926 1182.537,507.8 
	1186.218,505.674 1177.714,490.945 "/>
<rect x="1170.247" y="496.667" transform="matrix(-0.5002 -0.8659 0.8659 -0.5002 1334.2797 1771.113)" fill="none" stroke="#000000" stroke-miterlimit="10" width="16.108" height="7.605"/>
<rect x="1664.833" y="1004.836" fill="none" stroke="#000000" stroke-miterlimit="10" width="17.908" height="9.404"/>
<rect x="1664.833" y="779.008" fill="none" stroke="#000000" stroke-miterlimit="10" width="17.908" height="9.404"/>
<rect x="1664.833" y="553.182" fill="none" stroke="#000000" stroke-miterlimit="10" width="17.908" height="9.404"/>
<rect x="1150.062" y="553.183" fill="none" stroke="#000000" stroke-miterlimit="10" width="17.908" height="9.404"/>
<rect x="1150.062" y="779.009" fill="none" stroke="#000000" stroke-miterlimit="10" width="17.908" height="9.404"/>
<rect x="1150.062" y="1004.835" fill="none" stroke="#000000" stroke-miterlimit="10" width="17.908" height="9.404"/>
<rect x="1150.062" y="1230.662" fill="none" stroke="#000000" stroke-miterlimit="10" width="17.908" height="9.404"/>
<rect x="1169.338" y="495.705" transform="matrix(-0.5001 -0.866 0.866 -0.5001 1334.1725 1771.0289)" fill="none" stroke="#000000" stroke-miterlimit="10" width="17.908" height="9.405"/>
<rect x="1645.585" y="495.698" transform="matrix(0.5 -0.866 0.866 0.5 393.9601 1683.1261)" fill="none" stroke="#000000" stroke-miterlimit="10" width="17.908" height="9.404"/>
<rect x="1664.833" y="1230.662" fill="none" stroke="#000000" stroke-miterlimit="10" width="17.908" height="9.404"/>
<polygon fill="none" stroke="#000000" stroke-miterlimit="10" points="1665.285,783.711 1665.285,787.963 1682.292,787.963 
	1682.292,779.459 1665.285,779.459 "/>
<rect x="1665.734" y="779.909" fill="none" stroke="#000000" stroke-miterlimit="10" width="16.107" height="7.604"/>
<polygon fill="none" stroke="#000000" stroke-miterlimit="10" points="1167.521,1235.363 1167.521,1231.111 1150.511,1231.111 
	1150.511,1239.617 1167.521,1239.617 "/>
<polygon fill="none" stroke="#000000" stroke-miterlimit="10" points="1682.292,1231.111 1665.285,1231.111 1665.285,1235.363 
	1665.285,1239.617 1682.292,1239.617 "/>
<rect x="1665.734" y="1231.563" fill="none" stroke="#000000" stroke-miterlimit="10" width="16.107" height="7.604"/>
<polygon fill="none" stroke="#000000" stroke-miterlimit="10" points="1167.521,783.711 1167.521,779.458 1150.511,779.458 
	1150.511,787.963 1167.521,787.963 "/>
<polygon fill="none" stroke="#000000" stroke-miterlimit="10" points="1167.521,1009.538 1167.521,1005.286 1150.511,1005.286 
	1150.511,1013.79 1167.521,1013.79 "/>
<polygon fill="none" stroke="#000000" stroke-miterlimit="10" points="1665.285,1009.538 1665.285,1013.79 1682.292,1013.79 
	1682.292,1005.286 1665.285,1005.286 "/>
<rect x="1665.734" y="1005.736" fill="none" stroke="#000000" stroke-miterlimit="10" width="16.107" height="7.604"/>
<polygon fill="none" stroke="#000000" stroke-miterlimit="10" points="1665.285,557.884 1665.285,562.136 1682.292,562.136 
	1682.292,553.632 1665.285,553.632 "/>
<rect x="1665.734" y="554.083" fill="none" stroke="#000000" stroke-miterlimit="10" width="16.107" height="7.604"/>
<polygon fill="none" stroke="#000000" stroke-miterlimit="10" points="1167.521,557.884 1167.521,553.632 1150.511,553.632 
	1150.511,562.136 1167.521,562.136 "/>
<g>
	<path fill="none" stroke="#000000" stroke-miterlimit="10" d="M475.279-4.83l-3.271-1.76l-3.149-1.77l-3.28-1.51v-4.53l3.28-1.52
		l3.149-1.63l3.271-1.89l3.149-1.89l3.149-2.14l-0.25-3.78l-3.399-1.64l-3.399-1.64l-3.28-1.39l-3.399-1.26l-3.399-1.13l-0.25-2.39
		l-0.38-2.15l3.021-1.89l3.029-2.01l3.021-2.27l2.899-2.27l2.891-2.51l-0.63-3.66l-3.649-1.26l-3.53-1.13l-3.521-1.01l-3.529-0.88
		l-3.521-0.76l-0.511-2.27l-0.5-2.14l2.771-2.27l2.77-2.39l2.641-2.52l2.649-2.64l2.521-2.78l-1.01-3.521l-3.78-0.89l-3.649-0.75
		l-3.649-0.63l-3.53-0.51l-3.529-0.25l-0.88-2.14l-0.75-2.14l2.521-2.52l4.779-5.54l2.271-2.9l2.271-3.15l-1.521-3.4l-3.771-0.38
		l-3.779-0.25l-3.649-0.26h-3.66l-3.521,0.13l-1.011-2.14l-1.13-1.89l2.261-2.9l2.021-2.9l2.01-3.15l2.021-3.14l1.761-3.28
		l-1.891-3.28h-3.779l-3.65,0.25l-3.779,0.26l-3.521,0.37l-3.53,0.51l-1.39-1.89l-1.13-1.89l1.76-3.021l1.771-3.15l1.63-3.41
		l1.521-3.4l1.38-3.4l-2.27-3.02l-3.65,0.5l-3.779,0.63l-3.521,0.63l-3.53,0.88l-3.52,0.88l-1.521-1.76l-1.38-1.64l1.38-3.27
		l1.391-3.4l1.261-3.41l1.01-3.65l1.13-3.65l-2.64-2.65l-3.66,0.88l-3.649,1.14l-3.529,1.13l-3.4,1.14l-3.27,1.38l-1.762-1.64
		l-1.64-1.38l1.13-3.4l0.88-3.53l0.892-3.65l0.619-3.66l0.641-3.78l-2.9-2.27l-3.529,1.26l-3.521,1.521l-3.28,1.51l-3.27,1.63
		l-3.15,1.77l-1.89-1.39l-1.76-1.26l0.63-3.52l0.5-3.66l0.38-3.65l0.25-3.66l0.12-3.77l-3.141-2.021l-3.399,1.76l-3.15,1.77
		l-3.149,2.01l-3.021,1.89l-2.899,2.14l-2.141-1.13l-1.89-1.13l0.25-3.53v-7.31l-0.25-3.65l-0.25-3.78l-3.4-1.64l-3.149,2.14
		l-3.03,2.14l-2.89,2.4l-2.65,2.27l-2.64,2.39l-2.271-0.88l-2.01-0.76l-0.13-3.65l-0.38-3.53l-0.5-3.649l-0.63-3.66l-0.761-3.78
		l-3.52-1.13l-2.9,2.39l-2.77,2.65l-2.521,2.52l-2.52,2.64l-2.26,2.78l-2.271-0.63l-2.14-0.63l-0.63-3.41l-0.761-3.65l-0.88-3.53
		l-1.13-3.52l-1.14-3.66l-3.65-0.75l-2.52,2.77l-2.521,2.9l-2.26,2.89l-2.14,2.9l-1.891,3.02l-2.399-0.37l-2.141-0.38l-1-3.399
		l-1.26-3.41l-1.26-3.4l-1.51-3.4l-1.641-3.52l-3.649-0.26l-2.271,3.03l-2.02,3.15l-1.891,3.15l-1.76,3.15l-1.64,3.15h-2.391
		l-2.14-0.13l-1.51-3.28l-1.51-3.27l-1.771-3.15l-1.89-3.28l-2.011-3.27l-3.649,0.12l-1.891,3.4l-1.64,3.28l-1.51,3.4l-1.39,3.28
		l-1.261,3.4l-2.39,0.25l-2.14,0.13l-1.761-3.02l-2.02-3.03l-2.141-3.02l-2.14-3.03l-2.39-3.021l-3.65,0.63l-1.52,3.53l-1.261,3.52
		l-1.13,3.41l-0.88,3.52l-0.88,3.53l-2.27,0.38l-2.141,0.5l-2.27-2.9l-2.26-2.77l-2.4-2.77l-2.64-2.64l-2.65-2.65l-3.65,1.01
		l-0.88,3.65l-0.88,3.66l-0.76,3.52l-0.5,3.66l-0.38,3.521l-2.271,0.76l-2.14,0.63l-2.39-2.52l-2.641-2.52l-2.78-2.39l-2.89-2.4
		l-3.02-2.39l-3.4,1.51l-0.51,3.65l-0.5,3.78l-0.25,3.66l-0.13,3.65v3.53l-2.141,1.01l-2.02,1l-2.641-2.26l-2.899-2.27l-3.021-2.02
		l-3.149-2.01l-3.271-2.02l-3.279,1.77l-0.12,3.9v3.66l0.5,7.3l0.5,3.53l-2.011,1.26l-1.89,1.13l-3.02-1.89l-3.15-1.76l-3.28-1.76
		l-3.27-1.64l-3.53-1.51l-3.02,2.14l0.38,3.78l0.5,3.65l0.63,3.65l0.63,3.53l0.88,3.53l-1.76,1.51l-1.76,1.39l-3.28-1.64
		l-3.271-1.39l-3.399-1.38l-3.53-1.13l-3.65-1.14l-2.77,2.52l0.88,3.65l0.88,3.66l1.01,3.53l1.131,3.4l1.26,3.4l-1.641,1.64
		l-1.51,1.63l-3.4-1.13l-3.52-1.13l-3.529-0.88l-3.65-0.76l-3.78-0.76l-2.39,2.9l1.26,3.53l1.26,3.53l1.51,3.4l1.511,3.27l1.64,3.15
		l-1.39,1.89l-1.39,1.77l-3.521-0.76l-3.53-0.63l-3.65-0.5l-3.649-0.38l-3.78-0.26l-2.14,3.03l1.63,3.53l1.77,3.271l1.761,3.15
		l2.02,3.15l1.88,2.9l-1.13,2.01l-1.13,1.9l-3.529-0.26l-3.65-0.25h-7.43l-3.78,0.25l-1.64,3.28l2.02,3.27l2.14,3.03l2.14,2.9
		l2.271,2.89l2.39,2.65l-1.01,2.14l-0.88,2.02l-3.521,0.12l-3.659,0.26l-3.65,0.37l-3.649,0.51l-3.78,0.63l-1.261,3.52l2.391,2.9
		l2.4,2.9l2.51,2.65l2.65,2.52l2.64,2.39l-0.75,2.27l-0.63,2.14l-3.53,0.5l-3.521,0.63l-3.66,0.76l-3.52,1l-3.65,1.14l-0.89,3.53
		l2.771,2.64l2.77,2.52l2.78,2.4l2.89,2.14l2.9,2.14l-0.381,2.27l-0.379,2.14l-3.521,1.01l-3.399,1.01l-3.53,1.26l-3.4,1.38
		l-3.53,1.51l-0.5,3.66l3.021,2.27l3.149,2.14l3.021,2.01l3.149,1.89l3.15,1.77l-0.13,2.26l-0.12,2.27l-3.4,1.39l-3.279,1.38
		l-3.27,1.64l-3.281,1.76l-3.27,1.89v3.78l3.27,1.89l3.281,1.77l3.27,1.64l3.279,1.51l3.4,1.26l0.12,2.39l0.13,2.27l-3.15,1.63
		l-3.149,1.9l-3.021,2.01l-3.149,2.14l-3.021,2.27l0.5,3.65l3.53,1.52l3.4,1.38l3.53,1.26l3.399,1.14l3.521,0.88l0.379,2.271
		l0.381,2.26l-2.9,2.02l-2.89,2.27l-2.78,2.26l-2.77,2.52l-2.771,2.65l0.89,3.65l3.65,1.01l3.52,1.01l3.66,0.75l3.521,0.76l3.53,0.5
		l0.75,2.27l0.63,2.02l-2.64,2.39l-2.65,2.65l-2.51,2.64l-2.4,2.77l-2.391,2.9l1.261,3.53l3.78,0.63l3.649,0.5l3.65,0.38l3.659,0.25
		l3.521,0.13l0.88,2.14l1.01,2.02l-2.39,2.77l-2.271,2.771l-2.14,2.9L61.06,85l-2.02,3.15l1.64,3.4l3.78,0.13l3.779,0.12l3.65-0.12
		l3.65-0.13l3.529-0.38l1.13,2.02l1.13,1.89l-1.88,3.02l-2.021,3.03l-1.761,3.27l-1.77,3.28l-1.63,3.4l2.14,3.02l3.78-0.25
		l3.649-0.25l3.65-0.51l3.53-0.63l3.521-0.75l1.39,1.89l1.39,1.76l-1.64,3.15l-1.511,3.28l-1.51,3.4l-1.26,3.4l-1.26,3.65l2.39,2.78
		l3.78-0.63l3.65-0.89l3.529-0.88l3.52-1.01l3.4-1.13l1.641,1.64l1.51,1.63l-1.26,3.28l-1.131,3.53l-1.01,3.53l-0.88,3.52
		l-0.88,3.78l2.77,2.52l3.65-1.13l3.53-1.26l3.399-1.39l3.271-1.38l3.28-1.51l1.76,1.51l1.76,1.38l-0.88,3.4l-0.63,3.53l-0.63,3.65
		l-0.5,3.66l-0.38,3.78l3.02,2.27l3.53-1.64l3.271-1.64l3.28-1.64l3.15-1.89l3.02-1.89l2.01,1.26l1.891,1.14l-0.5,3.53l-0.5,7.3
		v3.78l0.12,3.78l3.279,1.771l3.271-1.89l3.149-2.02l3.021-2.14l2.899-2.14l2.641-2.27l2.14,1l2.021,0.89v3.65l0.13,3.53l0.25,3.78
		l0.5,3.65l0.51,3.78l3.4,1.39l3.02-2.271l2.89-2.39l2.78-2.52l2.641-2.52l2.39-2.52l2.27,0.75l2.141,0.76l0.38,3.53l0.5,3.53
		l0.76,3.65l0.88,3.649l0.88,3.65l3.65,0.89l2.65-2.65l2.64-2.64l2.4-2.78l2.26-2.77l2.271-2.9l2.271,0.51l2.14,0.5l0.88,3.41
		l0.88,3.52l1.13,3.53l1.261,3.53l1.521,3.53l3.65,0.5l2.39-2.9l2.14-3.02l2.141-3.03l2.02-3.02l1.761-3.15l2.39,0.25l2.14,0.13
		l1.261,3.4l1.39,3.4l1.51,3.28l1.64,3.4l1.891,3.27l3.649,0.13l2.011-3.27l1.89-3.16l1.771-3.27l1.51-3.28l1.51-3.27h2.27
		l2.261-0.13l1.64,3.15l1.76,3.15l1.891,3.15l2.02,3.15l2.271,3.15l3.649-0.38l1.641-3.4l1.51-3.4l1.26-3.53l1.26-3.4l1-3.4
		l2.271-0.38l2.27-0.25l1.891,2.9l2.14,2.89l2.26,2.9l2.521,2.9l2.52,2.77l3.65-0.75l1.14-3.53l1.13-3.66l0.88-3.52l0.761-3.53
		l0.63-3.53l2.26-0.63l2.15-0.63l2.26,2.77l2.52,2.65l2.521,2.64l2.77,2.52l2.9,2.52l3.52-1.26l0.761-3.65l0.63-3.65l0.5-3.66
		l0.38-3.65l0.13-3.53l2.14-0.88l2.141-0.88l2.64,2.39l2.65,2.4l2.89,2.26l3.03,2.14l3.148,2.15l3.4-1.52l0.25-3.77l0.25-3.78v-7.31
		l-0.25-3.53l2.01-1.13l2.021-1.14l2.899,2.15l3.021,2.01l3.149,1.89l3.15,1.89l3.4,1.76l3.14-2.01l-0.12-3.78l-0.25-3.78
		l-0.38-3.65l-0.5-3.53l-0.63-3.53l1.88-1.39l1.77-1.26l3.15,1.64l3.27,1.64l3.28,1.64l3.521,1.38l3.529,1.39l2.9-2.4l-0.641-3.771
		l-0.619-3.66l-0.892-3.52l-0.88-3.53l-1.13-3.4l1.76-1.64l1.642-1.51l3.27,1.38l3.4,1.26l3.529,1.14l3.649,1l3.66,0.89l2.64-2.65
		l-1.13-3.65l-1.01-3.53l-1.261-3.53l-1.391-3.4l-1.38-3.15l1.51-1.76l1.392-1.77l3.52,1.01l3.53,0.76l3.521,0.75l3.779,0.63
		l3.65,0.38l2.27-2.899l-1.38-3.53l-1.521-3.4l-1.63-3.27l-1.771-3.15l-1.76-3.149l1.26-1.89l1.26-1.89l3.53,0.5l3.521,0.51
		l3.779,0.25l3.65,0.12h3.779l1.891-3.14l-1.76-3.41l-2.021-3.14l-2.01-3.03l-2.021-3.02l-2.261-2.78l1.13-2.14l1.011-2.01
		l3.521,0.12h3.66l3.649-0.12l3.779-0.38l3.771-0.38l1.52-3.4l-2.27-3.02l-2.271-3.03l-2.391-2.77l-2.39-2.64l-2.521-2.65l0.88-2.14
		l0.75-2.14l3.53-0.26l3.529-0.5l3.649-0.5l3.649-0.76l3.78-0.88l1.01-3.53l-2.521-2.77l-2.649-2.77l-2.641-2.52l-2.771-2.27
		l-2.771-2.27l0.5-2.26l0.511-2.15l3.521-0.75l3.529-0.89l3.521-1l3.53-1.14l3.649-1.38l0.63-3.66l-2.891-2.39l-2.899-2.39
		l-3.021-2.15l-3.029-2.01l-3.021-1.89l0.38-2.4l0.25-2.14l3.399-1.13l3.399-1.39l3.28-1.38l3.399-1.52l3.399-1.76l0.25-3.78
		l-3.149-2.01L475.279-4.83z M272.01-7.6l-2.011,3.9l-3.149,3.15l-4.03,1.89l-4.41,0.76l-4.279-0.76l-4.03-2.01l-3.021-3.15
		l-2.02-4.03l-0.75-4.29l0.75-4.41l2.02-3.9l3.141-3.15l4.029-2.02l4.41-0.63l4.28,0.63l4.03,2.15l3.029,3.15l2.011,3.9l0.76,4.41
		L272.01-7.6z"/>
	<polygon fill="none" stroke="#000000" stroke-miterlimit="10" points="272.77,-12.01 272.01,-7.6 269.999,-3.7 266.85,-0.55 
		262.819,1.34 258.409,2.1 254.13,1.34 250.1,-0.67 247.079,-3.82 245.06,-7.85 244.31,-12.14 245.06,-16.55 247.079,-20.45 
		250.22,-23.6 254.249,-25.62 258.659,-26.25 262.939,-25.62 266.97,-23.47 269.999,-20.32 272.01,-16.42 	"/>
	<polygon fill="none" stroke="#000000" stroke-miterlimit="10" points="272.77,-12.01 272.01,-7.6 269.999,-3.7 266.85,-0.55 
		262.819,1.34 258.409,2.1 254.13,1.34 250.1,-0.67 247.079,-3.82 245.06,-7.85 244.31,-12.14 245.06,-16.55 247.079,-20.45 
		250.22,-23.6 254.249,-25.62 258.659,-26.25 262.939,-25.62 266.97,-23.47 269.999,-20.32 272.01,-16.42 	"/>
	<polygon fill="none" stroke="#000000" stroke-miterlimit="10" points="272.77,44.683 272.01,49.093 269.999,52.993 266.85,56.143 
		262.819,58.033 258.409,58.793 254.13,58.033 250.1,56.023 247.079,52.873 245.06,48.843 244.31,44.553 245.06,40.143 
		247.079,36.243 250.22,33.093 254.249,31.073 258.659,30.443 262.939,31.073 266.97,33.223 269.999,36.373 272.01,40.273 	"/>
	<polygon fill="none" stroke="#000000" stroke-miterlimit="10" points="272.64,101.376 271.88,105.787 269.869,109.687 
		266.72,112.836 262.689,114.727 258.279,115.486 254,114.727 249.97,112.716 246.949,109.566 244.93,105.537 244.18,101.247 
		244.93,96.836 246.949,92.937 250.09,89.787 254.119,87.767 258.529,87.137 262.81,87.767 266.84,89.917 269.869,93.066 
		271.88,96.966 	"/>
	<polyline fill="none" stroke="#000000" stroke-miterlimit="10" points="417.603,-12.262 419.994,-12.388 422.261,-12.893 
		424.527,-13.774 426.668,-14.781 428.558,-16.169 430.194,-17.806 431.705,-19.694 432.84,-21.71 433.721,-23.98 434.351,-26.248 
		434.604,-28.64 434.478,-30.91 	"/>
	<polyline fill="none" stroke="#000000" stroke-miterlimit="10" points="434.478,-30.91 433.47,-38.341 432.209,-45.776 
		430.699,-53.082 428.809,-60.39 426.543,-67.571 424.022,-74.625 421.253,-81.681 418.104,-88.483 414.829,-95.161 
		411.051,-101.711 407.146,-108.136 402.992,-114.31 398.457,-120.358 393.798,-126.279 388.759,-131.951 383.596,-137.366 
		378.18,-142.53 372.513,-147.444 366.719,-152.232 360.675,-156.643 354.377,-160.926 347.953,-164.831 341.406,-168.486 
		334.73,-171.885 327.93,-174.911 320.877,-177.808 313.824,-180.201 306.645,-182.468 299.34,-184.359 292.037,-185.87 
		284.605,-187.256 277.175,-188.14 269.618,-188.767 262.188,-189.147 254.631,-189.147 247.201,-188.767 239.645,-188.14 
		232.213,-187.256 224.783,-185.87 217.479,-184.359 210.174,-182.468 202.994,-180.201 195.942,-177.808 188.89,-174.911 
		182.088,-171.885 175.414,-168.486 168.865,-164.831 162.441,-160.926 156.145,-156.643 150.1,-152.232 144.307,-147.444 
		138.639,-142.53 133.223,-137.366 128.06,-131.951 123.021,-126.279 118.361,-120.358 113.828,-114.31 109.672,-108.136 
		105.768,-101.711 101.989,-95.161 98.716,-88.483 95.567,-81.681 92.796,-74.625 90.277,-67.571 88.011,-60.39 86.12,-53.082 
		84.609,-45.776 83.351,-38.341 82.343,-30.91 	"/>
	<polyline fill="none" stroke="#000000" stroke-miterlimit="10" points="82.217,-30.91 82.09,-28.64 82.343,-26.248 82.973,-23.98 
		83.854,-21.71 84.987,-19.694 86.499,-17.806 88.136,-16.169 90.024,-14.781 92.165,-13.774 94.433,-12.893 96.699,-12.388 
		99.092,-12.262 	"/>
	<line fill="none" stroke="#000000" stroke-miterlimit="10" x1="99.092" y1="-12.137" x2="208.787" y2="-12.137"/>
	<polyline fill="none" stroke="#000000" stroke-miterlimit="10" points="208.787,-12.262 211.182,-12.388 213.449,-12.893 
		215.59,-13.649 217.729,-14.781 219.62,-16.169 221.257,-17.681 222.769,-19.569 223.9,-21.584 224.908,-23.726 	"/>
	<polyline fill="none" stroke="#000000" stroke-miterlimit="10" points="291.91,-23.601 290.65,-26.752 289.14,-29.775 
		287.25,-32.546 285.235,-35.319 282.843,-37.711 280.323,-39.978 277.553,-41.869 274.655,-43.634 271.633,-45.02 268.359,-46.152 
		265.085,-46.908 261.811,-47.413 258.409,-47.538 255.009,-47.413 251.734,-46.908 248.459,-46.152 245.186,-45.02 
		242.163,-43.634 239.266,-41.869 236.495,-39.978 233.977,-37.711 231.583,-35.319 229.568,-32.546 227.68,-29.775 
		226.168,-26.752 224.908,-23.601 	"/>
	<polyline fill="none" stroke="#000000" stroke-miterlimit="10" points="291.91,-23.726 292.918,-21.584 294.052,-19.569 
		295.562,-17.681 297.199,-16.169 299.089,-14.781 301.229,-13.649 303.371,-12.893 305.639,-12.388 308.031,-12.262 	"/>
	<line fill="none" stroke="#000000" stroke-miterlimit="10" x1="308.031" y1="-12.137" x2="417.603" y2="-12.137"/>
</g>
<g>
	<path fill="none" stroke="#000000" stroke-miterlimit="10" d="M-824.764,1295.213l-3.27-1.76l-3.15-1.771l-3.28-1.51v-4.531
		l3.28-1.52l3.15-1.63l3.27-1.891l3.15-1.891l3.149-2.14l-0.25-3.78l-3.399-1.64l-3.4-1.641l-3.28-1.391l-3.399-1.26l-3.4-1.131
		l-0.25-2.39l-0.38-2.15l3.021-1.891l3.029-2.01l3.021-2.271l2.899-2.27l2.891-2.512l-0.63-3.658l-3.65-1.262l-3.53-1.13
		l-3.521-1.01l-3.53-0.881l-3.52-0.76l-0.511-2.271l-0.5-2.141l2.771-2.271l2.771-2.391l2.641-2.521l2.649-2.64l2.521-2.78
		l-1.01-3.52l-3.78-0.892l-3.65-0.75l-3.649-0.63l-3.53-0.51l-3.53-0.25l-0.88-2.14l-0.75-2.142l2.521-2.52l4.779-5.541l2.271-2.899
		l2.27-3.149l-1.52-3.399l-3.771-0.38l-3.779-0.25l-3.65-0.262h-3.66l-3.52,0.132l-1.011-2.142l-1.13-1.89l2.261-2.899l2.02-2.899
		l2.01-3.15l2.021-3.14l1.76-3.28l-1.89-3.279h-3.78l-3.65,0.25l-3.779,0.26l-3.521,0.369l-3.53,0.511l-1.39-1.89l-1.13-1.891
		l1.76-3.021l1.771-3.149l1.63-3.41l1.52-3.4l1.38-3.399l-2.27-3.021l-3.65,0.5l-3.779,0.631l-3.521,0.629l-3.53,0.881l-3.52,0.88
		l-1.521-1.761l-1.38-1.639l1.38-3.271l1.391-3.399l1.26-3.409l1.01-3.65l1.13-3.649l-2.64-2.65l-3.66,0.881l-3.649,1.141
		l-3.53,1.13l-3.4,1.141l-3.27,1.379l-1.761-1.639l-1.64-1.381l1.13-3.4l0.88-3.529l0.891-3.649l0.62-3.66l0.64-3.779l-2.9-2.271
		l-3.529,1.262l-3.521,1.52l-3.28,1.51l-3.27,1.632l-3.15,1.77l-1.89-1.391l-1.76-1.261l0.63-3.52l0.5-3.66l0.38-3.65l0.25-3.659
		l0.12-3.771l-3.14-2.02l-3.4,1.76l-3.15,1.77l-3.149,2.011l-3.021,1.891l-2.899,2.14l-2.141-1.13l-1.89-1.13l0.25-3.53v-7.311
		l-0.25-3.649l-0.25-3.779l-3.4-1.641l-3.149,2.141l-3.03,2.141l-2.89,2.4l-2.65,2.27l-2.64,2.39l-2.271-0.88l-2.01-0.76l-0.13-3.65
		l-0.38-3.528l-0.5-3.65l-0.63-3.66l-0.761-3.779l-3.52-1.131l-2.9,2.392l-2.77,2.648l-2.521,2.521l-2.52,2.64l-2.26,2.78
		l-2.271-0.631l-2.14-0.629l-0.63-3.41l-0.761-3.65l-0.88-3.529l-1.13-3.521l-1.14-3.66l-3.65-0.75l-2.52,2.771l-2.521,2.899
		l-2.26,2.89l-2.14,2.9l-1.891,3.021l-2.399-0.369l-2.141-0.381l-1-3.399l-1.26-3.41l-1.26-3.398l-1.51-3.4l-1.641-3.521
		l-3.649-0.261l-2.271,3.03l-2.021,3.149l-1.891,3.149l-1.76,3.149l-1.64,3.149h-2.391l-2.14-0.13l-1.51-3.279l-1.51-3.271
		l-1.771-3.15l-1.89-3.278l-2.011-3.271l-3.649,0.12l-1.891,3.4l-1.64,3.278l-1.51,3.4l-1.39,3.279l-1.261,3.399l-2.39,0.25
		l-2.14,0.132l-1.761-3.021l-2.02-3.03l-2.141-3.02l-2.14-3.03l-2.39-3.021l-3.65,0.632l-1.52,3.528l-1.261,3.521l-1.13,3.409
		l-0.88,3.521l-0.88,3.53l-2.27,0.38l-2.141,0.5l-2.27-2.898l-2.26-2.771l-2.4-2.771l-2.64-2.64l-2.65-2.649l-3.65,1.011
		l-0.88,3.649l-0.88,3.659l-0.76,3.521l-0.5,3.66l-0.38,3.52l-2.271,0.76l-2.14,0.632l-2.39-2.521l-2.641-2.521l-2.78-2.39
		l-2.89-2.399l-3.02-2.391l-3.4,1.51l-0.51,3.65l-0.5,3.779l-0.25,3.66l-0.13,3.649v3.53l-2.141,1.01l-2.02,1l-2.641-2.26
		l-2.899-2.271l-3.021-2.02l-3.149-2.01l-3.271-2.021l-3.279,1.771l-0.12,3.898v3.66l0.5,7.301l0.5,3.529l-2.011,1.26l-1.89,1.131
		l-3.021-1.891l-3.15-1.761l-3.28-1.76l-3.27-1.641l-3.53-1.51l-3.02,2.14l0.38,3.78l0.5,3.649l0.63,3.65l0.63,3.529l0.88,3.53
		l-1.76,1.51l-1.76,1.391l-3.28-1.641l-3.271-1.391l-3.399-1.379l-3.53-1.131l-3.65-1.141l-2.77,2.521l0.88,3.648l0.88,3.66
		l1.01,3.53l1.131,3.399l1.26,3.398l-1.641,1.642l-1.51,1.63l-3.4-1.13l-3.52-1.131l-3.529-0.88l-3.65-0.76l-3.78-0.76l-2.39,2.899
		l1.26,3.529l1.26,3.529l1.51,3.4l1.511,3.27l1.64,3.15l-1.39,1.891l-1.39,1.771l-3.521-0.761l-3.53-0.631l-3.65-0.5l-3.649-0.379
		l-3.78-0.261l-2.14,3.03l1.63,3.528l1.77,3.271l1.761,3.149l2.02,3.149l1.88,2.9l-1.13,2.01l-1.13,1.9l-3.529-0.261l-3.65-0.25
		h-7.43l-3.78,0.25l-1.64,3.279l2.02,3.271l2.14,3.03l2.14,2.899l2.271,2.89l2.39,2.65l-1.01,2.141l-0.88,2.021l-3.521,0.119
		l-3.659,0.261l-3.65,0.37l-3.649,0.51l-3.78,0.63l-1.261,3.521l2.391,2.899l2.4,2.899l2.51,2.649l2.65,2.521l2.64,2.391
		l-0.75,2.271l-0.63,2.14l-3.53,0.5l-3.521,0.631l-3.66,0.761l-3.52,1l-3.65,1.14l-0.89,3.53l2.771,2.64l2.77,2.521l2.78,2.398
		l2.89,2.141l2.9,2.141l-0.381,2.271l-0.379,2.141l-3.521,1.01l-3.399,1.011l-3.53,1.26l-3.4,1.381l-3.53,1.51l-0.5,3.66l3.021,2.27
		l3.149,2.142l3.021,2.01l3.149,1.89l3.15,1.771l-0.13,2.26l-0.12,2.271l-3.4,1.391l-3.279,1.379l-3.271,1.642l-3.281,1.76
		l-3.27,1.891v3.779l3.27,1.891l3.281,1.771l3.271,1.641l3.279,1.511l3.4,1.26l0.12,2.391l0.13,2.271l-3.15,1.63l-3.149,1.898
		l-3.021,2.012l-3.149,2.14l-3.021,2.271l0.5,3.649l3.53,1.521l3.4,1.381l3.53,1.26l3.399,1.141l3.521,0.879l0.379,2.271
		l0.381,2.261l-2.9,2.021l-2.89,2.27l-2.78,2.26l-2.77,2.521l-2.771,2.649l0.89,3.649l3.65,1.01l3.52,1.011l3.66,0.75l3.521,0.761
		l3.53,0.5l0.75,2.271l0.63,2.02l-2.64,2.39l-2.65,2.65l-2.51,2.64l-2.4,2.771l-2.391,2.899l1.261,3.53l3.78,0.63l3.649,0.5
		l3.65,0.381l3.659,0.25l3.521,0.13l0.88,2.141l1.01,2.021l-2.39,2.77l-2.271,2.771l-2.14,2.898l-2.14,3.15l-2.02,3.149l1.64,3.4
		l3.78,0.129l3.779,0.121l3.65-0.121l3.65-0.129l3.529-0.381l1.13,2.021l1.13,1.891l-1.88,3.02l-2.02,3.031l-1.761,3.27l-1.77,3.279
		l-1.63,3.4l2.14,3.02l3.78-0.25l3.649-0.25l3.65-0.51l3.53-0.629l3.521-0.75l1.39,1.889l1.39,1.762l-1.64,3.148l-1.511,3.281
		l-1.51,3.399l-1.26,3.398l-1.26,3.65l2.39,2.78l3.78-0.631l3.65-0.891l3.529-0.88l3.52-1.01l3.4-1.13l1.641,1.64l1.51,1.63
		l-1.26,3.28l-1.131,3.53l-1.01,3.528l-0.88,3.521l-0.88,3.78l2.77,2.52l3.65-1.13l3.53-1.26l3.399-1.391l3.271-1.381l3.28-1.51
		l1.76,1.51l1.76,1.381l-0.88,3.399l-0.63,3.53l-0.63,3.649l-0.5,3.659l-0.38,3.78l3.02,2.27l3.53-1.64l3.27-1.64l3.28-1.642
		l3.15-1.89l3.021-1.89l2.01,1.26l1.891,1.14l-0.5,3.53l-0.5,7.3v3.78l0.12,3.779l3.279,1.771l3.271-1.89l3.149-2.021l3.021-2.14
		l2.899-2.141l2.641-2.271l2.14,1l2.021,0.892v3.648l0.13,3.53l0.25,3.779l0.5,3.649l0.51,3.779l3.4,1.391l3.02-2.27l2.89-2.391
		l2.78-2.521l2.641-2.521l2.39-2.521l2.27,0.75l2.141,0.76l0.38,3.53l0.5,3.529l0.76,3.649l0.88,3.65l0.88,3.65l3.65,0.889
		l2.65-2.649l2.64-2.64l2.4-2.78l2.26-2.771l2.27-2.899l2.271,0.51l2.14,0.5l0.88,3.41l0.88,3.521l1.13,3.529l1.261,3.529l1.52,3.53
		l3.65,0.5l2.39-2.9l2.14-3.02l2.141-3.03l2.02-3.021l1.761-3.15l2.39,0.25l2.14,0.131l1.261,3.4l1.39,3.398l1.51,3.28l1.64,3.4
		l1.891,3.27l3.649,0.13l2.011-3.271l1.89-3.16l1.771-3.27l1.51-3.279l1.51-3.271h2.27l2.261-0.13l1.64,3.15l1.76,3.148l1.891,3.149
		l2.021,3.15l2.271,3.149l3.649-0.381l1.641-3.399l1.51-3.398l1.26-3.53l1.26-3.399l1-3.399l2.271-0.381l2.27-0.25l1.891,2.899
		l2.14,2.892l2.26,2.898l2.521,2.899l2.52,2.771l3.65-0.75l1.14-3.53l1.13-3.66l0.88-3.521l0.761-3.528l0.63-3.531l2.26-0.629
		l2.15-0.631l2.26,2.771l2.52,2.649l2.521,2.641l2.77,2.521l2.9,2.521l3.52-1.261l0.761-3.649l0.63-3.648l0.5-3.66l0.38-3.65
		l0.13-3.53l2.14-0.88l2.141-0.88l2.64,2.391l2.65,2.399l2.89,2.26l3.03,2.142l3.149,2.148l3.4-1.521l0.25-3.771l0.25-3.778v-7.312
		l-0.25-3.529l2.01-1.131l2.021-1.14l2.899,2.149l3.021,2.01l3.149,1.891l3.15,1.891l3.4,1.761l3.14-2.011l-0.12-3.78l-0.25-3.779
		l-0.38-3.65l-0.5-3.528l-0.63-3.53l1.88-1.39l1.77-1.261l3.15,1.64l3.27,1.641l3.28,1.641l3.521,1.379l3.529,1.392l2.9-2.4
		l-0.64-3.77l-0.62-3.66l-0.891-3.521l-0.88-3.53l-1.13-3.399l1.76-1.64l1.641-1.511l3.27,1.379l3.4,1.262l3.53,1.14l3.649,1
		l3.66,0.892l2.64-2.65l-1.13-3.65l-1.01-3.529l-1.26-3.529l-1.391-3.399l-1.38-3.149l1.51-1.761l1.391-1.771l3.52,1.011l3.53,0.76
		l3.521,0.75l3.779,0.629l3.65,0.382l2.27-2.9l-1.38-3.529l-1.52-3.4l-1.63-3.27l-1.771-3.15l-1.76-3.149l1.26-1.891l1.26-1.89
		l3.53,0.5l3.521,0.51l3.779,0.25l3.65,0.119h3.78l1.89-3.14l-1.76-3.409l-2.021-3.141l-2.01-3.029l-2.02-3.021l-2.261-2.779
		l1.13-2.142l1.011-2.01l3.52,0.121h3.66l3.65-0.121l3.779-0.379l3.771-0.381l1.52-3.4l-2.27-3.021l-2.271-3.028l-2.39-2.771
		l-2.39-2.64l-2.521-2.65l0.88-2.141l0.75-2.139l3.53-0.262l3.53-0.5l3.649-0.5l3.65-0.76l3.78-0.88l1.01-3.53l-2.521-2.771
		l-2.649-2.771l-2.641-2.52l-2.77-2.271l-2.771-2.271l0.5-2.261l0.511-2.149l3.52-0.75l3.53-0.89l3.52-1l3.53-1.141l3.65-1.38
		l0.63-3.66l-2.891-2.39l-2.899-2.392l-3.021-2.149l-3.029-2.011l-3.021-1.89l0.38-2.399l0.25-2.141l3.4-1.13l3.399-1.391
		l3.28-1.381l3.4-1.52l3.399-1.76l0.25-3.78l-3.149-2.01L-824.764,1295.213z M-1028.033,1292.443l-2.011,3.899l-3.149,3.149
		l-4.03,1.89l-4.41,0.76l-4.279-0.76l-4.03-2.01l-3.021-3.15l-2.021-4.028l-0.75-4.29l0.75-4.41l2.021-3.899l3.141-3.149
		l4.029-2.021l4.41-0.631l4.28,0.631l4.03,2.149l3.029,3.148l2.011,3.9l0.76,4.41L-1028.033,1292.443z"/>
	<polygon fill="none" stroke="#000000" stroke-miterlimit="10" points="-1027.273,1288.033 -1028.033,1292.443 -1030.044,1296.344 
		-1033.193,1299.493 -1037.224,1301.383 -1041.634,1302.143 -1045.913,1301.383 -1049.943,1299.373 -1052.964,1296.223 
		-1054.983,1292.193 -1055.733,1287.903 -1054.983,1283.493 -1052.964,1279.594 -1049.823,1276.443 -1045.794,1274.424 
		-1041.384,1273.793 -1037.104,1274.424 -1033.073,1276.573 -1030.044,1279.723 -1028.033,1283.623 	"/>
	<polygon fill="none" stroke="#000000" stroke-miterlimit="10" points="-1027.273,1288.033 -1028.033,1292.443 -1030.044,1296.344 
		-1033.193,1299.493 -1037.224,1301.383 -1041.634,1302.143 -1045.913,1301.383 -1049.943,1299.373 -1052.964,1296.223 
		-1054.983,1292.193 -1055.733,1287.903 -1054.983,1283.493 -1052.964,1279.594 -1049.823,1276.443 -1045.794,1274.424 
		-1041.384,1273.793 -1037.104,1274.424 -1033.073,1276.573 -1030.044,1279.723 -1028.033,1283.623 	"/>
	<polygon fill="none" stroke="#000000" stroke-miterlimit="10" points="-1027.273,1344.728 -1028.033,1349.137 -1030.044,1353.037 
		-1033.193,1356.187 -1037.224,1358.076 -1041.634,1358.836 -1045.913,1358.076 -1049.943,1356.066 -1052.964,1352.916 
		-1054.983,1348.887 -1055.733,1344.597 -1054.983,1340.187 -1052.964,1336.287 -1049.823,1333.137 -1045.794,1331.117 
		-1041.384,1330.486 -1037.104,1331.117 -1033.073,1333.267 -1030.044,1336.416 -1028.033,1340.316 	"/>
	<polyline fill="none" stroke="#000000" stroke-miterlimit="10" points="-882.441,1287.781 -880.049,1287.655 -877.782,1287.15 
		-875.516,1286.271 -873.375,1285.263 -871.485,1283.874 -869.849,1282.237 -868.338,1280.35 -867.203,1278.333 -866.322,1276.063 
		-865.692,1273.796 -865.439,1271.403 -865.566,1269.134 	"/>
	<polyline fill="none" stroke="#000000" stroke-miterlimit="10" points="-865.566,1269.134 -866.573,1261.702 -867.834,1254.268 
		-869.344,1246.962 -871.234,1239.653 -873.5,1232.473 -876.02,1225.418 -878.79,1218.362 -881.938,1211.562 -885.214,1204.883 
		-888.992,1198.332 -892.896,1191.907 -897.051,1185.733 -901.586,1179.687 -906.245,1173.765 -911.284,1168.093 -916.447,1162.678 
		-921.863,1157.514 -927.53,1152.6 -933.324,1147.812 -939.368,1143.4 -945.666,1139.117 -952.09,1135.213 -958.637,1131.558 
		-965.313,1128.158 -972.113,1125.133 -979.166,1122.235 -986.219,1119.843 -993.398,1117.575 -1000.703,1115.685 
		-1008.006,1114.174 -1015.438,1112.787 -1022.868,1111.903 -1030.425,1111.276 -1037.855,1110.896 -1045.412,1110.896 
		-1052.842,1111.276 -1060.398,1111.903 -1067.83,1112.787 -1075.26,1114.174 -1082.564,1115.685 -1089.869,1117.575 
		-1097.049,1119.843 -1104.101,1122.235 -1111.153,1125.133 -1117.955,1128.158 -1124.629,1131.558 -1131.178,1135.213 
		-1137.602,1139.117 -1143.898,1143.4 -1149.943,1147.812 -1155.736,1152.6 -1161.404,1157.514 -1166.82,1162.678 
		-1171.983,1168.093 -1177.021,1173.765 -1181.682,1179.687 -1186.215,1185.733 -1190.371,1191.907 -1194.275,1198.332 
		-1198.054,1204.883 -1201.327,1211.562 -1204.476,1218.362 -1207.247,1225.418 -1209.766,1232.473 -1212.032,1239.653 
		-1213.923,1246.962 -1215.434,1254.268 -1216.692,1261.702 -1217.7,1269.134 	"/>
	<polyline fill="none" stroke="#000000" stroke-miterlimit="10" points="-1217.826,1269.134 -1217.953,1271.403 -1217.7,1273.796 
		-1217.07,1276.063 -1216.189,1278.333 -1215.056,1280.35 -1213.544,1282.237 -1211.907,1283.874 -1210.019,1285.263 
		-1207.878,1286.271 -1205.61,1287.15 -1203.344,1287.655 -1200.951,1287.781 	"/>
	<line fill="none" stroke="#000000" stroke-miterlimit="10" x1="-1200.951" y1="1287.906" x2="-1091.256" y2="1287.906"/>
	<polyline fill="none" stroke="#000000" stroke-miterlimit="10" points="-1091.256,1287.781 -1088.861,1287.655 -1086.594,1287.15 
		-1084.453,1286.396 -1082.313,1285.263 -1080.423,1283.874 -1078.786,1282.362 -1077.274,1280.475 -1076.143,1278.459 
		-1075.135,1276.317 	"/>
	<polyline fill="none" stroke="#000000" stroke-miterlimit="10" points="-1008.133,1276.442 -1009.393,1273.291 -1010.903,1270.269 
		-1012.793,1267.497 -1014.808,1264.725 -1017.2,1262.332 -1019.72,1260.065 -1022.49,1258.175 -1025.388,1256.409 
		-1028.41,1255.022 -1031.684,1253.892 -1034.958,1253.136 -1038.232,1252.631 -1041.634,1252.506 -1045.034,1252.631 
		-1048.309,1253.136 -1051.584,1253.892 -1054.857,1255.022 -1057.88,1256.409 -1060.777,1258.175 -1063.548,1260.065 
		-1066.066,1262.332 -1068.46,1264.725 -1070.475,1267.497 -1072.363,1270.269 -1073.875,1273.291 -1075.135,1276.442 	"/>
	<polyline fill="none" stroke="#000000" stroke-miterlimit="10" points="-1008.133,1276.317 -1007.125,1278.459 -1005.991,1280.475 
		-1004.481,1282.362 -1002.844,1283.874 -1000.954,1285.263 -998.813,1286.396 -996.672,1287.15 -994.404,1287.655 
		-992.012,1287.781 	"/>
	<line fill="none" stroke="#000000" stroke-miterlimit="10" x1="-992.012" y1="1287.906" x2="-882.441" y2="1287.906"/>
</g>
<circle fill="none" stroke="#000000" stroke-miterlimit="10" cx="861.158" cy="1009.538" r="12.047"/>
<circle fill="none" stroke="#000000" stroke-miterlimit="10" cx="1416.406" cy="1009.538" r="12.047"/>
<g>
	<circle fill="none" stroke="#000000" stroke-miterlimit="10" cx="320.12" cy="1952.064" r="12.047"/>
	<path fill="none" stroke="#000000" stroke-miterlimit="10" d="M561.063,1811.75v-72.758h19.274c7.045,0,12.758-5.711,12.758-12.756
		s-5.713-12.757-12.758-12.757h-19.274v-39.006v-161.309h19.274c7.045,0,12.758-5.711,12.758-12.756s-5.713-12.756-12.758-12.756
		h-19.274v-24.076L320.12,1324.454L79.175,1463.578v24.076H59.899c-7.045,0-12.756,5.711-12.756,12.756s5.711,12.756,12.756,12.756
		h19.275v161.31v39.006H59.899c-7.045,0-12.756,5.711-12.756,12.756s5.711,12.756,12.756,12.756h19.275v72.758v97.795v29.765H59.899
		c-7.045,0-12.756,5.711-12.756,12.756s5.711,12.756,12.756,12.756h19.275v102.521v97.793H59.899
		c-7.045,0-12.756,5.711-12.756,12.757c0,7.045,5.711,12.758,12.756,12.758h19.275v66.613H277.6h85.039h198.423v-66.613h19.275
		c7.045,0,12.758-5.713,12.758-12.758c0-7.043-5.713-12.757-12.758-12.757h-19.275v-97.793c0,0,0.013-0.19,0-0.551V1964.82h19.275
		c7.045,0,12.758-5.712,12.758-12.757s-5.713-12.756-12.758-12.756h-19.275v-29.764v-97.794H561.063z M320.125,1378.547
		c23.479,0,42.52,19.029,42.52,42.521c0,23.48-19.039,42.521-42.52,42.521c-23.49,0-42.521-19.039-42.521-42.521
		C277.604,1397.578,296.635,1378.547,320.125,1378.547z M121.696,1512.086c30.611-16.922,88.614-32.469,198.429-32.469
		c109.823,0,167.815,15.55,198.417,32.475v162.386H121.696V1512.086z M470.354,1706.734c0,7.827-6.347,14.174-14.174,14.174
		c-7.828,0-14.174-6.347-14.174-14.174c0-7.828,6.346-14.173,14.174-14.173S470.354,1698.906,470.354,1706.734z M402.323,1706.736
		c0,7.825-6.347,14.172-14.173,14.172c-7.828,0-14.175-6.347-14.175-14.172c0-7.828,6.347-14.175,14.175-14.175
		C395.977,1692.563,402.323,1698.908,402.323,1706.736z M312.773,1739.018v19.755c-19.979,3.481-35.173,20.896-35.173,41.873v44.055
		c-29.561,11.719-53.135,35.277-64.84,64.846h-91.063v-140.787C154.203,1753.389,211.565,1739.652,312.773,1739.018z
		 M169.885,1706.734c0-7.828,6.347-14.173,14.174-14.173c7.827,0,14.173,6.345,14.173,14.173c0,7.827-6.346,14.174-14.173,14.174
		C176.232,1720.908,169.885,1714.562,169.885,1706.734z M237.916,1706.736c0-7.828,6.346-14.175,14.174-14.175
		c7.827,0,14.173,6.347,14.173,14.175c0,7.825-6.346,14.172-14.173,14.172C244.261,1720.908,237.916,1714.563,237.916,1706.736z
		 M305.947,1846.396c0-7.827,6.345-14.173,14.173-14.173s14.173,6.346,14.173,14.173c0,7.828-6.345,14.175-14.173,14.175
		S305.947,1854.225,305.947,1846.396z M320.12,1814.818c-7.828,0-14.173-6.347-14.173-14.175c0-7.827,6.345-14.173,14.173-14.173
		s14.173,6.346,14.173,14.173C334.293,1808.472,327.948,1814.818,320.12,1814.818z M320.119,1720.908
		c-7.828,0-14.174-6.347-14.174-14.172c0-7.828,6.346-14.175,14.174-14.175c7.826,0,14.173,6.347,14.173,14.175
		C334.292,1714.563,327.945,1720.908,320.119,1720.908z M101.854,1706.736c0-7.828,6.346-14.175,14.174-14.175
		c7.826,0,14.172,6.347,14.172,14.175c0,7.825-6.346,14.172-14.172,14.172C108.2,1720.908,101.854,1714.563,101.854,1706.736z
		 M198.231,2177.892c0,7.825-6.347,14.174-14.174,14.174c-7.828,0-14.174-6.348-14.174-14.174c0-0.015,0.002-0.023,0.002-0.037
		c0-0.009-0.001-0.015-0.001-0.021c0-7.828,6.347-14.174,14.174-14.174c7.827,0,14.173,6.346,14.173,14.174
		c0,0.014-0.002,0.022-0.002,0.037C198.229,2177.879,198.231,2177.885,198.231,2177.892z M320.12,2169.887
		c-7.828,0-14.173-6.344-14.173-14.172s6.345-14.174,14.173-14.174s14.173,6.346,14.173,14.174S327.948,2169.887,320.12,2169.887z
		 M470.354,2177.892c0,7.825-6.347,14.174-14.174,14.174c-7.828,0-14.174-6.348-14.174-14.174c0-0.015,0.002-0.023,0.002-0.037
		c0-0.009-0.001-0.015-0.001-0.021c0-7.828,6.347-14.174,14.174-14.174s14.175,6.346,14.175,14.174c0,0.014-0.004,0.022-0.004,0.037
		C470.353,2177.879,470.354,2177.885,470.354,2177.892z M518.541,2214.742h-31.18v-36.854c0-17.221-13.961-31.182-31.183-31.182
		c-17.221,0-31.182,13.961-31.182,31.182v36.854H362.64v-59.125c0-23.482-19.037-42.521-42.52-42.521
		c-23.483,0-42.52,19.037-42.52,42.521v59.125h-62.363v-36.854c0-17.221-13.961-31.182-31.18-31.182
		c-17.223,0-31.183,13.961-31.183,31.182v36.854h-31.181v-190.213c33.512-15.812,93.43-29.945,200.585-29.945
		c104.419,0,163.188,13.422,196.262,28.736L518.541,2214.742L518.541,2214.742z M518.542,1909.545h-91.063
		c-11.704-29.567-35.279-53.123-64.839-64.841v-44.061c0-20.807-14.95-38.11-34.691-41.786v-19.837
		c100.909,0.677,158.14,14.396,190.594,29.737L518.542,1909.545L518.542,1909.545z M524.212,1720.908
		c-7.828,0-14.174-6.347-14.174-14.172c0-7.828,6.346-14.175,14.174-14.175c7.827,0,14.173,6.347,14.173,14.175
		C538.384,1714.563,532.039,1720.908,524.212,1720.908z"/>
	<rect x="568.548" y="1947.339" fill="none" stroke="#000000" stroke-miterlimit="10" width="17.908" height="9.404"/>
	<rect x="568.548" y="1721.511" fill="none" stroke="#000000" stroke-miterlimit="10" width="17.908" height="9.404"/>
	<rect x="568.548" y="1495.685" fill="none" stroke="#000000" stroke-miterlimit="10" width="17.908" height="9.404"/>
	<rect x="53.777" y="1495.687" fill="none" stroke="#000000" stroke-miterlimit="10" width="17.908" height="9.404"/>
	<rect x="53.777" y="1721.513" fill="none" stroke="#000000" stroke-miterlimit="10" width="17.908" height="9.403"/>
	<rect x="53.777" y="1947.339" fill="none" stroke="#000000" stroke-miterlimit="10" width="17.908" height="9.404"/>
	<rect x="53.777" y="2173.165" fill="none" stroke="#000000" stroke-miterlimit="10" width="17.908" height="9.404"/>
	<rect x="568.548" y="2173.165" fill="none" stroke="#000000" stroke-miterlimit="10" width="17.908" height="9.404"/>
	<polygon fill="none" stroke="#000000" stroke-miterlimit="10" points="569,1726.214 569,1730.466 586.007,1730.466 
		586.007,1721.962 569,1721.962 	"/>
	<rect x="569.449" y="1722.412" fill="none" stroke="#000000" stroke-miterlimit="10" width="16.106" height="7.604"/>
	<polygon fill="none" stroke="#000000" stroke-miterlimit="10" points="71.235,2177.866 71.235,2173.614 54.226,2173.614 
		54.226,2182.12 71.235,2182.12 	"/>
	<polygon fill="none" stroke="#000000" stroke-miterlimit="10" points="586.007,2173.614 569,2173.614 569,2177.866 569,2182.12 
		586.007,2182.12 	"/>
	<rect x="569.449" y="2174.065" fill="none" stroke="#000000" stroke-miterlimit="10" width="16.106" height="7.604"/>
	<polygon fill="none" stroke="#000000" stroke-miterlimit="10" points="71.235,1726.214 71.235,1721.962 54.226,1721.962 
		54.226,1730.466 71.235,1730.466 	"/>
	<polygon fill="none" stroke="#000000" stroke-miterlimit="10" points="71.235,1952.041 71.235,1947.789 54.226,1947.789 
		54.226,1956.293 71.235,1956.293 	"/>
	<polygon fill="none" stroke="#000000" stroke-miterlimit="10" points="569,1952.041 569,1956.293 586.007,1956.293 
		586.007,1947.789 569,1947.789 	"/>
	<rect x="569.449" y="1948.239" fill="none" stroke="#000000" stroke-miterlimit="10" width="16.106" height="7.604"/>
	<polygon fill="none" stroke="#000000" stroke-miterlimit="10" points="569,1500.388 569,1504.64 586.007,1504.64 586.007,1496.136 
		569,1496.136 	"/>
	<rect x="569.449" y="1496.587" fill="none" stroke="#000000" stroke-miterlimit="10" width="16.106" height="7.604"/>
	<polygon fill="none" stroke="#000000" stroke-miterlimit="10" points="71.235,1500.388 71.235,1496.136 54.226,1496.136 
		54.226,1504.64 71.235,1504.64 	"/>
</g>
<g>
	<circle fill="none" stroke="#000000" stroke-miterlimit="10" cx="1357.476" cy="72.894" r="12.048"/>
	<path fill="none" stroke="#000000" stroke-miterlimit="10" d="M1217.162-168.048h-72.758v-19.275
		c0-7.045-5.711-12.758-12.756-12.758s-12.756,5.713-12.756,12.758v19.275h-39.006H918.578v-19.275
		c0-7.045-5.711-12.758-12.756-12.758s-12.756,5.713-12.756,12.758v19.275H868.99L729.867,72.895L868.99,313.839h24.076v19.275
		c0,7.045,5.711,12.756,12.756,12.756s12.756-5.711,12.756-12.756v-19.275h161.311h39.006v19.275
		c0,7.045,5.711,12.756,12.756,12.756s12.756-5.711,12.756-12.756v-19.275h72.758h97.795h29.764v19.275
		c0,7.045,5.711,12.756,12.756,12.756s12.756-5.711,12.756-12.756v-19.275h102.521h97.793v19.275
		c0,7.045,5.711,12.756,12.756,12.756s12.758-5.711,12.758-12.756v-19.275h66.613V115.413V30.374v-198.422h-66.613v-19.275
		c0-7.045-5.713-12.758-12.758-12.758c-7.043,0-12.756,5.713-12.756,12.758v19.275h-97.793c0,0-0.191-0.012-0.551,0h-101.971
		v-19.275c0-7.045-5.711-12.758-12.756-12.758s-12.756,5.713-12.756,12.758v19.275h-29.766H1217.162z M783.958,72.889
		c0-23.479,19.029-42.52,42.521-42.52C849.96,30.37,869,49.409,869,72.889c0,23.49-19.039,42.52-42.52,42.52
		C802.99,115.409,783.958,96.379,783.958,72.889z M917.498,271.317c-16.922-30.611-32.469-88.614-32.469-198.428
		c0-109.824,15.551-167.816,32.475-198.418h162.385v396.846H917.498z M1112.146-77.341c7.828,0,14.174,6.346,14.174,14.174
		s-6.346,14.174-14.174,14.174s-14.172-6.346-14.172-14.174S1104.318-77.341,1112.146-77.341z M1112.148-9.31
		c7.826,0,14.172,6.348,14.172,14.174c0,7.828-6.346,14.174-14.172,14.174c-7.828,0-14.174-6.346-14.174-14.174
		C1097.974-2.962,1104.32-9.31,1112.148-9.31z M1144.429,80.241h19.754c3.482,19.979,20.896,35.172,41.873,35.172h44.055
		c11.719,29.561,35.277,53.135,64.846,64.84v91.064h-140.787C1158.8,238.811,1145.064,181.448,1144.429,80.241z M1112.146,223.129
		c-7.828,0-14.172-6.347-14.172-14.174s6.344-14.173,14.172-14.173s14.174,6.346,14.174,14.173S1119.974,223.129,1112.146,223.129z
		 M1112.148,155.098c-7.828,0-14.174-6.346-14.174-14.173c0-7.828,6.346-14.174,14.174-14.174c7.826,0,14.172,6.346,14.172,14.174
		C1126.32,148.753,1119.974,155.098,1112.148,155.098z M1251.808,87.067c-7.828,0-14.174-6.346-14.174-14.174
		c0-7.828,6.346-14.172,14.174-14.172s14.174,6.344,14.174,14.172C1265.982,80.721,1259.636,87.067,1251.808,87.067z
		 M1220.23,72.893c0,7.828-6.346,14.174-14.174,14.174s-14.174-6.346-14.174-14.174c0-7.828,6.346-14.172,14.174-14.172
		S1220.23,65.065,1220.23,72.893z M1126.32,72.895c0,7.828-6.346,14.174-14.172,14.174c-7.828,0-14.174-6.346-14.174-14.174
		c0-7.826,6.346-14.174,14.174-14.174C1119.974,58.721,1126.32,65.069,1126.32,72.895z M1112.148,291.159
		c-7.828,0-14.174-6.346-14.174-14.174c0-7.826,6.346-14.172,14.174-14.172c7.826,0,14.172,6.346,14.172,14.172
		C1126.32,284.813,1119.974,291.159,1112.148,291.159z M1583.302,194.782c7.826,0,14.174,6.347,14.174,14.174
		c0,7.828-6.348,14.174-14.174,14.174c-0.014,0-0.023-0.002-0.037-0.002c-0.008,0-0.014,0.001-0.02,0.001
		c-7.828,0-14.174-6.347-14.174-14.174s6.346-14.173,14.174-14.173c0.014,0,0.023,0.002,0.037,0.002
		C1583.291,194.784,1583.296,194.782,1583.302,194.782z M1575.298,72.893c0,7.828-6.344,14.174-14.172,14.174
		s-14.174-6.346-14.174-14.174c0-7.828,6.346-14.172,14.174-14.172S1575.298,65.065,1575.298,72.893z M1583.302-77.339
		c7.826,0,14.174,6.346,14.174,14.172c0,7.828-6.348,14.174-14.174,14.174c-0.014,0-0.023-0.002-0.037-0.002
		c-0.008,0-0.014,0.002-0.02,0.002c-7.828,0-14.174-6.346-14.174-14.174s6.346-14.174,14.174-14.174
		c0.014,0,0.023,0.002,0.037,0.002C1583.291-77.339,1583.296-77.339,1583.302-77.339z M1620.154-125.527v31.18H1583.3
		c-17.221,0-31.182,13.961-31.182,31.182c0,17.221,13.961,31.182,31.182,31.182h36.854v62.357h-59.125
		c-23.482,0-42.52,19.037-42.52,42.52s19.037,42.52,42.52,42.52h59.125v62.364H1583.3c-17.221,0-31.182,13.961-31.182,31.18
		c0,17.223,13.961,31.183,31.182,31.183h36.854v31.181h-190.213c-15.811-33.512-29.945-93.43-29.945-200.584
		c0-104.42,13.422-163.189,28.736-196.262h191.422V-125.527z M1314.957-125.529v91.064c-29.566,11.703-53.123,35.279-64.84,64.838
		h-44.061c-20.807,0-38.111,14.951-41.787,34.691h-19.836c0.676-100.908,14.395-158.139,29.736-190.594L1314.957-125.529
		L1314.957-125.529z M1126.32-131.199c0,7.828-6.346,14.174-14.172,14.174c-7.828,0-14.174-6.346-14.174-14.174
		c0-7.826,6.346-14.172,14.174-14.172C1119.974-145.371,1126.32-139.025,1126.32-131.199z"/>
	<rect x="1352.75" y="-193.443" fill="none" stroke="#000000" stroke-miterlimit="10" width="9.404" height="17.908"/>
	<rect x="1126.921" y="-193.443" fill="none" stroke="#000000" stroke-miterlimit="10" width="9.404" height="17.908"/>
	<rect x="901.095" y="-193.443" fill="none" stroke="#000000" stroke-miterlimit="10" width="9.404" height="17.908"/>
	<rect x="901.097" y="321.329" fill="none" stroke="#000000" stroke-miterlimit="10" width="9.404" height="17.908"/>
	<rect x="1126.923" y="321.329" fill="none" stroke="#000000" stroke-miterlimit="10" width="9.404" height="17.908"/>
	<rect x="1352.75" y="321.329" fill="none" stroke="#000000" stroke-miterlimit="10" width="9.404" height="17.908"/>
	<rect x="1578.576" y="321.329" fill="none" stroke="#000000" stroke-miterlimit="10" width="9.404" height="17.908"/>
	<rect x="1578.576" y="-193.443" fill="none" stroke="#000000" stroke-miterlimit="10" width="9.404" height="17.908"/>
	<polygon fill="none" stroke="#000000" stroke-miterlimit="10" points="1131.625,-175.986 1135.876,-175.986 1135.876,-192.994 
		1127.375,-192.994 1127.375,-175.986 	"/>
	<rect x="1127.824" y="-192.542" fill="none" stroke="#000000" stroke-miterlimit="10" width="7.604" height="16.107"/>
	<polygon fill="none" stroke="#000000" stroke-miterlimit="10" points="1583.277,321.779 1579.025,321.779 1579.025,338.788 
		1587.531,338.788 1587.531,321.779 	"/>
	<polygon fill="none" stroke="#000000" stroke-miterlimit="10" points="1579.025,-192.994 1579.025,-175.986 1583.277,-175.986 
		1587.531,-175.986 1587.531,-192.994 	"/>
	<rect x="1579.476" y="-192.542" fill="none" stroke="#000000" stroke-miterlimit="10" width="7.604" height="16.107"/>
	<polygon fill="none" stroke="#000000" stroke-miterlimit="10" points="1131.625,321.779 1127.375,321.779 1127.375,338.788 
		1135.876,338.788 1135.876,321.779 	"/>
	<polygon fill="none" stroke="#000000" stroke-miterlimit="10" points="1357.453,321.779 1353.201,321.779 1353.201,338.788 
		1361.705,338.788 1361.705,321.779 	"/>
	<polygon fill="none" stroke="#000000" stroke-miterlimit="10" points="1357.453,-175.986 1361.705,-175.986 1361.705,-192.994 
		1353.201,-192.994 1353.201,-175.986 	"/>
	<rect x="1353.652" y="-192.542" fill="none" stroke="#000000" stroke-miterlimit="10" width="7.604" height="16.107"/>
	<polygon fill="none" stroke="#000000" stroke-miterlimit="10" points="905.798,-175.986 910.05,-175.986 910.05,-192.994 
		901.546,-192.994 901.546,-175.986 	"/>
	<rect x="902" y="-192.542" fill="none" stroke="#000000" stroke-miterlimit="10" width="7.604" height="16.107"/>
	<polygon fill="none" stroke="#000000" stroke-miterlimit="10" points="905.798,321.779 901.546,321.779 901.546,338.788 
		910.05,338.788 910.05,321.779 	"/>
</g>
<path fill="none" stroke="#000000" stroke-miterlimit="10" d="M1119.207,1222.604h-19.275v-200.313h19.275
	c7.045,0,12.76-5.711,12.76-12.757c0-7.045-5.715-12.756-12.76-12.756h-19.275V796.465l19.273,0.001
	c7.045,0,12.758-5.711,12.758-12.756s-5.713-12.756-12.758-12.756h-19.273V570.64h19.273c7.045,0,12.758-5.711,12.758-12.756
	s-5.713-12.756-12.758-12.756h-19.273v-24.076l9.639-16.692c3.521-6.102,1.434-13.904-4.668-17.427
	c-6.104-3.522-13.904-1.431-17.426,4.67l-9.639,16.692L858.986,381.93L640.134,508.295l-9.636-16.692
	c-3.523-6.101-11.325-8.192-17.426-4.671c-6.103,3.522-8.19,11.326-4.667,17.428l9.637,16.692v24.076h-19.275
	c-7.045,0-12.756,5.711-12.756,12.756s5.711,12.756,12.756,12.756h19.275v200.313h-19.275c-7.045,0-12.756,5.711-12.756,12.756
	s5.711,12.756,12.756,12.756h19.275V996.78h-19.275c-7.045,0-12.756,5.711-12.756,12.756s5.711,12.756,12.756,12.756h19.275v200.314
	h-19.275c-7.045,0-12.756,5.711-12.756,12.756s5.711,12.758,12.756,12.758h19.275v66.613h481.889v-12.759v-8.504v-45.354h19.275
	c7.045,0,12.76-5.711,12.76-12.759C1131.964,1228.318,1126.251,1222.604,1119.207,1222.604z M1107.417,1004.836h17.908v9.404
	h-17.908V1004.836z M1107.417,779.008h17.908v9.404h-17.908V779.008z M1107.417,553.182h17.908v9.404h-17.908V553.182z
	 M610.554,562.587h-17.908v-9.404h17.908V562.587z M610.554,788.413h-17.908v-9.404h17.908V788.413z M610.554,1014.24h-17.908
	v-9.404h17.908V1014.24z M610.554,1240.066h-17.908v-9.404h17.908V1240.066z M621.272,510.54l-8.954-15.508l8.145-4.703
	l8.954,15.509L621.272,510.54z M937.587,461.335l51.021,31.118v85.683c-15.705-10.705-32.826-19.486-51.021-26.007V461.335z
	 M869.554,423.543l51.023,30.021v93.216c-16.35-4.434-33.43-7.087-51.023-7.732V423.543z M861.05,750.091
	c7.826,0,14.172,6.345,14.172,14.173c0,7.827-6.346,14.173-14.172,14.173c-7.828,0-14.174-6.346-14.174-14.173
	S853.222,750.091,861.05,750.091z M665.46,530.646l51.025-29.943v90.221c-20.291,16.807-37.596,37.086-51.025,59.92V530.646z
	 M693.807,1235.363v34.018h-28.349V880.442c13.432,22.834,30.736,43.112,51.025,59.92v265.005
	C703.397,1209.068,693.807,1221.091,693.807,1235.363z M724.989,1249.537c-7.828,0-14.174-6.346-14.174-14.174
	s6.346-14.172,14.174-14.172c7.827,0,14.173,6.344,14.173,14.172S732.815,1249.537,724.989,1249.537z M756.168,1269.38v-34.017
	c0-14.271-9.592-26.295-22.676-29.998V953.149c15.705,10.705,32.826,19.486,51.021,26.008l0.001,290.223H756.168z M784.515,552.125
	c-18.194,6.525-35.315,15.304-51.021,26.009V491.53l51.021-28.957V552.125z M801.522,452.121l51.022-30.063v116.988
	c-17.594,0.646-34.674,3.296-51.022,7.732V452.121z M852.546,1269.38h-51.021V984.502c11.148,3.023,22.646,5.197,34.411,6.493
	c-3.81,5.189-6.064,11.604-6.064,18.543c0,14.325,9.591,26.396,22.676,30.111L852.546,1269.38z M920.578,1269.38h-51.021V1039.65
	c13.086-3.718,22.678-15.787,22.678-30.113c0-6.939-2.256-13.354-6.063-18.543c11.76-1.295,23.258-3.468,34.408-6.495
	L920.578,1269.38z M965.929,1235.363v34.018h-28.346V979.162c18.195-6.525,35.316-15.305,51.021-26.01v252.213
	C975.523,1209.068,965.929,1221.091,965.929,1235.363z M997.113,1249.537c-7.828,0-14.174-6.346-14.174-14.174
	s6.346-14.172,14.174-14.172c7.826,0,14.172,6.344,14.172,14.172S1004.939,1249.537,997.113,1249.537z M1028.292,1269.38v-34.017
	c0-14.271-9.592-26.295-22.676-29.998V940.358c20.289-16.808,37.592-37.086,51.02-59.916l0.002,388.938H1028.292L1028.292,1269.38z
	 M1056.64,650.838c-13.434-22.831-30.734-43.108-51.023-59.92v-87.24l51.023,29.396V650.838z M1096.701,510.541l-8.146-4.702
	l8.953-15.509l8.146,4.702L1096.701,510.541z M1125.326,1240.066h-17.908v-9.404h17.908V1240.066z"/>
<g>
	<circle fill="none" stroke="#000000" stroke-miterlimit="10" cx="-145.749" cy="1046.34" r="12.047"/>
	<path fill="none" stroke="#000000" stroke-miterlimit="10" d="M112.407,1259.408H93.132v-200.313h19.275
		c7.045,0,12.758-5.711,12.758-12.758c0-7.045-5.713-12.756-12.758-12.756H93.132V833.267l19.273,0.001
		c7.045,0,12.758-5.711,12.758-12.756s-5.713-12.756-12.758-12.756H93.13V607.442h19.275c7.045,0,12.758-5.711,12.758-12.756
		s-5.713-12.757-12.758-12.757H93.13v-24.075l9.639-16.693c3.521-6.102,1.433-13.904-4.668-17.427
		c-6.103-3.522-13.904-1.431-17.426,4.671l-9.638,16.691l-218.851-126.364l-218.851,126.364l-9.636-16.691
		c-3.522-6.102-11.325-8.193-17.426-4.671c-6.101,3.521-8.189,11.325-4.667,17.427l9.637,16.693v24.075h-19.275
		c-7.045,0-12.756,5.712-12.756,12.757s5.711,12.756,12.756,12.756h19.275v200.313h-19.275c-7.045,0-12.756,5.711-12.756,12.756
		s5.711,12.756,12.756,12.756h19.275v200.315h-19.275c-7.045,0-12.756,5.711-12.756,12.756c0,7.046,5.711,12.757,12.756,12.757
		h19.275v200.314h-19.275c-7.045,0-12.756,5.711-12.756,12.756s5.711,12.758,12.756,12.758h19.275v66.613H93.132v-12.758v-8.504
		v-45.354h19.275c7.045,0,12.758-5.711,12.758-12.758C125.166,1265.121,119.453,1259.408,112.407,1259.408z M100.618,1041.639
		h17.908v9.403h-17.908V1041.639z M100.618,815.81h17.908v9.404h-17.908V815.81z M100.618,589.984h17.908v9.403h-17.908V589.984z
		 M-396.246,599.389h-17.908v-9.403h17.908V599.389z M-396.246,825.215h-17.908v-9.403h17.908V825.215z M-396.246,1051.042h-17.908
		v-9.403h17.908V1051.042z M-396.246,1276.869h-17.908v-9.404h17.908V1276.869z M-385.527,547.343l-8.954-15.509l8.145-4.703
		l8.954,15.509L-385.527,547.343z M-145.75,786.893c7.827,0,14.173,6.346,14.173,14.174c0,7.826-6.346,14.173-14.173,14.173
		c-7.828,0-14.174-6.347-14.174-14.173C-159.923,793.239-153.578,786.893-145.75,786.893z M-346.624,1060.514h176.279
		l-111.075,184.197l-65.204-108.217V1060.514z M-346.624,1257.994v-66.574l40.111,66.574H-346.624z M-281.811,1286.34
		c-7.828,0-14.174-6.346-14.174-14.174s6.346-14.172,14.174-14.172c7.827,0,14.173,6.344,14.173,14.172
		S-273.983,1286.34-281.811,1286.34z M-256.328,1257.994l110.543-183.318l110.453,183.318H-256.328z M-9.688,1286.34
		c-7.828,0-14.174-6.346-14.174-14.174s6.346-14.172,14.174-14.172c7.827,0,14.173,6.344,14.173,14.172S-1.86,1286.34-9.688,1286.34
		z M50.997,1257.994H16.01l34.987-58.021V1257.994z M50.997,1145.08L-9.66,1245.668l-111.561-185.154H50.997V1145.08z
		 M81.753,542.641l8.954-15.509l8.146,4.702l-8.954,15.509L81.753,542.641z M118.525,1276.869h-17.908v-9.404h17.908V1276.869z"/>
</g>
<path fill="none" stroke="#000000" stroke-miterlimit="10" d="M1676.625,1222.607h-19.273v-200.314h19.273
	c7.045,0,12.758-5.711,12.758-12.756s-5.713-12.756-12.758-12.756h-19.273V796.466h19.271c7.045,0,12.758-5.711,12.758-12.756
	s-5.713-12.756-12.758-12.756h-19.275V570.64h19.275c7.045,0,12.758-5.711,12.758-12.756s-5.713-12.756-12.758-12.756h-19.275
	v-24.076l9.641-16.692c3.52-6.102,1.434-13.904-4.668-17.427c-6.104-3.522-13.904-1.431-17.426,4.67l-9.641,16.692l-218.85-126.365
	l-218.852,126.365l-9.637-16.692c-3.521-6.101-11.324-8.192-17.426-4.671c-6.102,3.523-8.189,11.326-4.666,17.428l9.637,16.692
	v24.076h-19.275c-7.045,0-12.756,5.711-12.756,12.756s5.711,12.756,12.756,12.756h19.275v200.314h-19.275
	c-7.045,0-12.756,5.711-12.756,12.756s5.711,12.756,12.756,12.756h19.275v200.315h-19.275c-7.045,0-12.756,5.711-12.756,12.756
	s5.711,12.756,12.756,12.756h19.275v200.313h-19.275c-7.045,0-12.756,5.712-12.756,12.757s5.711,12.757,12.756,12.757h19.275v66.613
	h481.889v-66.613h19.275c7.045,0,12.758-5.712,12.758-12.757S1683.669,1222.607,1676.625,1222.607z M1416.406,846.849
	c7.828,0,14.174,6.346,14.174,14.174c0,7.827-6.346,14.173-14.174,14.173s-14.172-6.346-14.172-14.173
	C1402.234,853.194,1408.578,846.849,1416.406,846.849z M1246.328,873.78c-7.045,0-12.756-5.711-12.756-12.758
	c0-7.049,5.711-12.76,12.756-12.76c7.043,0,12.754,5.713,12.754,12.76C1259.082,868.067,1253.371,873.78,1246.328,873.78z
	 M1246.328,749.931c-7.045,0-12.756-5.711-12.756-12.758c0-7.048,5.711-12.759,12.756-12.759c7.043,0,12.754,5.713,12.754,12.759
	C1259.082,744.218,1253.371,749.931,1246.328,749.931z M1280.343,1249.941c-7.824,0-14.174-6.347-14.174-14.175
	c0-7.827,6.348-14.172,14.174-14.172c7.828,0,14.176,6.345,14.176,14.172C1294.519,1243.595,1288.171,1249.941,1280.343,1249.941z
	 M1552.466,1249.941c-7.824,0-14.174-6.347-14.174-14.175c0-7.827,6.348-14.172,14.174-14.172c7.828,0,14.176,6.345,14.176,14.172
	C1566.642,1243.595,1560.294,1249.941,1552.466,1249.941z M1586.484,873.78c-7.045,0-12.756-5.711-12.756-12.758
	c0-7.049,5.711-12.76,12.756-12.76s12.756,5.713,12.756,12.76C1599.24,868.067,1593.529,873.78,1586.484,873.78z M1586.484,749.931
	c-7.045,0-12.756-5.711-12.756-12.758c0-7.048,5.711-12.759,12.756-12.759s12.756,5.713,12.756,12.759
	C1599.24,744.218,1593.529,749.931,1586.484,749.931z"/>
</svg>
