<?xml version="1.0" encoding="utf-8"?>
<!-- Generator: Adobe Illustrator 15.1.0, SVG Export Plug-In . SVG Version: 6.00 Build 0)  -->
<!DOCTYPE svg PUBLIC "-//W3C//DTD SVG 1.1//EN" "http://www.w3.org/Graphics/SVG/1.1/DTD/svg11.dtd">
<svg version="1.1" id="Layer_1" xmlns="http://www.w3.org/2000/svg" xmlns:xlink="http://www.w3.org/1999/xlink" x="0px" y="0px"
	 width="1283.244px" height="1623.402px" viewBox="0 0 1283.244 1623.402" enable-background="new 0 0 1283.244 1623.402"
	 xml:space="preserve">
<g transform="translate(22.5000185, 22.5000185) ">
	<polygon fill="none" stroke="#000000" stroke-width="0.9" points="-4.5,-4.5 73.453,-4.5 73.453,4.004 151.405,4.004 151.405,-4.5 
		208.099,-4.5 208.099,4.004 264.791,4.004 264.791,-4.5 321.484,-4.5 321.484,4.004 399.437,4.004 399.437,-4.5 477.39,-4.5 
		477.39,66.366 468.886,66.366 468.886,137.232 477.39,137.232 477.39,193.925 468.886,193.925 468.886,250.618 477.39,250.618 
		477.39,307.311 468.886,307.311 468.886,364.004 477.39,364.004 477.39,420.697 468.886,420.697 468.886,477.39 477.39,477.39 
		477.39,534.083 468.886,534.083 468.886,590.775 477.39,590.775 477.39,647.469 468.886,647.469 468.886,718.335 477.39,718.335 
		477.39,789.201 399.437,789.201 399.437,780.697 321.484,780.697 321.484,789.201 264.791,789.201 264.791,780.697 
		208.099,780.697 208.099,789.201 151.405,789.201 151.405,780.697 73.453,780.697 73.453,789.201 -4.5,789.201 -4.5,718.335 
		4.004,718.335 4.004,647.469 -4.5,647.469 -4.5,590.775 4.004,590.775 4.004,534.083 -4.5,534.083 -4.5,477.39 4.004,477.39 
		4.004,420.697 -4.5,420.697 -4.5,364.004 4.004,364.004 4.004,307.311 -4.5,307.311 -4.5,250.618 4.004,250.618 4.004,193.925 
		-4.5,193.925 -4.5,137.232 4.004,137.232 4.004,66.366 -4.5,66.366 	"/>
</g>
<g transform="translate(624.8627185, 22.5000185) ">
	<polygon fill="none" stroke="#000000" stroke-width="0.9" points="-124.973,-4.5 -47.02,-4.5 -47.02,4.004 30.932,4.004 
		30.932,-4.5 87.626,-4.5 87.626,4.004 144.319,4.004 144.319,-4.5 201.011,-4.5 201.011,4.004 278.964,4.004 278.964,-4.5 
		356.917,-4.5 356.917,66.366 348.413,66.366 348.413,137.232 356.917,137.232 356.917,193.925 348.413,193.925 348.413,250.618 
		356.917,250.618 356.917,307.311 348.413,307.311 348.413,364.004 356.917,364.004 356.917,420.697 348.413,420.697 
		348.413,477.39 356.917,477.39 356.917,534.083 348.413,534.083 348.413,590.775 356.917,590.775 356.917,647.469 348.413,647.469 
		348.413,718.335 356.917,718.335 356.917,789.201 278.964,789.201 278.964,780.697 201.011,780.697 201.011,789.201 
		144.319,789.201 144.319,780.697 87.626,780.697 87.626,789.201 30.932,789.201 30.932,780.697 -47.02,780.697 -47.02,789.201 
		-124.973,789.201 -124.973,718.335 -116.469,718.335 -116.469,647.469 -124.973,647.469 -124.973,590.775 -116.469,590.775 
		-116.469,534.083 -124.973,534.083 -124.973,477.39 -116.469,477.39 -116.469,420.697 -124.973,420.697 -124.973,364.004 
		-116.469,364.004 -116.469,307.311 -124.973,307.311 -124.973,250.618 -116.469,250.618 -116.469,193.925 -124.973,193.925 
		-124.973,137.232 -116.469,137.232 -116.469,66.366 -124.973,66.366 	"/>
</g>
<g transform="translate(1227.2254185000002, 22.5000185) ">
	<polygon fill="none" stroke="#000000" stroke-width="0.9" points="-236.942,-4.5 -188.753,-4.5 -188.753,4.004 -132.06,4.004 
		-132.06,-4.5 -75.367,-4.5 -75.367,4.004 -18.675,4.004 -18.675,-4.5 29.515,-4.5 29.515,66.366 38.019,66.366 38.019,137.232 
		29.515,137.232 29.515,193.925 38.019,193.925 38.019,250.618 29.515,250.618 29.515,307.311 38.019,307.311 38.019,364.004 
		29.515,364.004 29.515,420.697 38.019,420.697 38.019,477.39 29.515,477.39 29.515,534.083 38.019,534.083 38.019,590.775 
		29.515,590.775 29.515,647.469 38.019,647.469 38.019,718.335 29.515,718.335 29.515,789.201 -18.675,789.201 -18.675,780.697 
		-75.367,780.697 -75.367,789.201 -132.06,789.201 -132.06,780.697 -188.753,780.697 -188.753,789.201 -236.942,789.201 
		-236.942,718.335 -245.446,718.335 -245.446,647.469 -236.942,647.469 -236.942,590.775 -245.446,590.775 -245.446,534.083 
		-236.942,534.083 -236.942,477.39 -245.446,477.39 -245.446,420.697 -236.942,420.697 -236.942,364.004 -245.446,364.004 
		-245.446,307.311 -236.942,307.311 -236.942,250.618 -245.446,250.618 -245.446,193.925 -236.942,193.925 -236.942,137.232 
		-245.446,137.232 -245.446,66.366 -236.942,66.366 	"/>
</g>
<g transform="translate(1227.2254185000002, 1014.6268185) ">
	<polygon fill="none" stroke="#000000" stroke-width="0.9" points="-236.942,-202.926 -188.753,-202.926 -188.753,-194.422 
		-132.06,-194.422 -132.06,-202.926 -75.367,-202.926 -75.367,-194.422 -18.675,-194.422 -18.675,-202.926 29.515,-202.926 
		29.515,-132.059 38.019,-132.059 38.019,-61.194 29.515,-61.194 29.515,-4.5 38.019,-4.5 38.019,52.193 29.515,52.193 
		29.515,108.884 38.019,108.884 38.019,165.578 29.515,165.578 29.515,222.271 38.019,222.271 38.019,278.964 29.515,278.964 
		29.515,335.656 38.019,335.656 38.019,392.349 29.515,392.349 29.515,449.043 38.019,449.043 38.019,519.908 29.515,519.908 
		29.515,590.775 -18.675,590.775 -18.675,582.271 -75.367,582.271 -75.367,590.775 -132.06,590.775 -132.06,582.271 
		-188.753,582.271 -188.753,590.775 -236.942,590.775 -236.942,519.908 -245.446,519.908 -245.446,449.043 -236.942,449.043 
		-236.942,392.349 -245.446,392.349 -245.446,335.656 -236.942,335.656 -236.942,278.964 -245.446,278.964 -245.446,222.271 
		-236.942,222.271 -236.942,165.578 -245.446,165.578 -245.446,108.884 -236.942,108.884 -236.942,52.193 -245.446,52.193 
		-245.446,-4.5 -236.942,-4.5 -236.942,-61.194 -245.446,-61.194 -245.446,-132.059 -236.942,-132.059 	"/>
</g>
<g transform="translate(22.5000185, 1014.6268185) ">
	<polygon fill="none" stroke="#000000" stroke-width="0.9" points="4.004,-194.422 73.453,-194.422 73.453,-202.926 
		151.405,-202.926 151.405,-194.422 208.099,-194.422 208.099,-202.926 264.791,-202.926 264.791,-194.422 321.484,-194.422 
		321.484,-202.926 399.437,-202.926 399.437,-194.422 468.886,-194.422 468.886,-146.233 477.39,-146.233 477.39,-89.539 
		468.886,-89.539 468.886,-32.848 477.39,-32.848 477.39,23.845 468.886,23.845 468.886,72.035 399.437,72.035 399.437,80.539 
		321.484,80.539 321.484,72.035 264.791,72.035 264.791,80.539 208.099,80.539 208.099,72.035 151.405,72.035 151.405,80.539 
		73.453,80.539 73.453,72.035 4.004,72.035 4.004,23.845 -4.5,23.845 -4.5,-32.848 4.004,-32.848 4.004,-89.539 -4.5,-89.539 
		-4.5,-146.233 4.004,-146.233 	"/>
</g>
<g transform="translate(624.8627185, 1014.6268185) ">
	<polygon fill="none" stroke="#000000" stroke-width="0.9" points="-116.469,-194.422 -47.02,-194.422 -47.02,-202.926 
		30.932,-202.926 30.932,-194.422 87.626,-194.422 87.626,-202.926 144.319,-202.926 144.319,-194.422 201.011,-194.422 
		201.011,-202.926 278.964,-202.926 278.964,-194.422 348.413,-194.422 348.413,-146.233 356.917,-146.233 356.917,-89.539 
		348.413,-89.539 348.413,-32.848 356.917,-32.848 356.917,23.845 348.413,23.845 348.413,72.035 278.964,72.035 278.964,80.539 
		201.011,80.539 201.011,72.035 144.319,72.035 144.319,80.539 87.626,80.539 87.626,72.035 30.932,72.035 30.932,80.539 
		-47.02,80.539 -47.02,72.035 -116.469,72.035 -116.469,23.845 -124.973,23.845 -124.973,-32.848 -116.469,-32.848 
		-116.469,-89.539 -124.973,-89.539 -124.973,-146.233 -116.469,-146.233 	"/>
</g>
<circle fill="#CDC1DD" stroke="#000000" stroke-width="0.9" cx="258.945" cy="321.346" r="226.772"/>
<rect x="46.346" y="46.347" fill="none" stroke="#000000" stroke-width="0.9" width="425.197" height="737.008"/>
<rect x="46.346" y="46.347" fill="#CDC1DD" stroke="#CDC1DD" stroke-width="0.9" width="28.347" height="737.008"/>
<rect x="103.04" y="46.347" fill="#CDC1DD" stroke="#CDC1DD" stroke-width="0.9" width="28.347" height="737.008"/>
<rect x="159.733" y="46.347" fill="#CDC1DD" stroke="#CDC1DD" stroke-width="0.9" width="28.347" height="737.008"/>
<rect x="216.425" y="46.347" fill="#CDC1DD" stroke="#CDC1DD" stroke-width="0.9" width="28.347" height="737.008"/>
<rect x="273.118" y="46.347" fill="#CDC1DD" stroke="#CDC1DD" stroke-width="0.9" width="28.347" height="737.008"/>
<rect x="329.812" y="46.347" fill="#CDC1DD" stroke="#CDC1DD" stroke-width="0.9" width="28.347" height="737.008"/>
<rect x="386.505" y="46.347" fill="#CDC1DD" stroke="#CDC1DD" stroke-width="0.9" width="28.347" height="737.008"/>
<rect x="443.198" y="46.347" fill="#CDC1DD" stroke="#CDC1DD" stroke-width="0.9" width="28.347" height="737.008"/>
<circle fill="#6C64DD" stroke="#000000" stroke-width="0.9" cx="740.835" cy="321.346" r="226.772"/>
<g>
	<rect x="545.244" y="63.354" fill="none" stroke="#000000" stroke-width="0.9" width="51.025" height="702.992"/>
	<rect x="613.277" y="63.354" fill="none" stroke="#000000" stroke-width="0.9" width="51.023" height="702.992"/>
	<rect x="681.308" y="63.354" fill="none" stroke="#000000" stroke-width="0.9" width="51.023" height="702.992"/>
	<rect x="817.37" y="63.354" fill="none" stroke="#000000" stroke-width="0.9" width="51.023" height="702.992"/>
	<rect x="749.339" y="63.354" fill="none" stroke="#000000" stroke-width="0.9" width="51.023" height="702.992"/>
	<rect x="885.401" y="63.354" fill="none" stroke="#000000" stroke-width="0.9" width="51.023" height="702.992"/>
</g>
<circle fill="#6C64DD" stroke="#000000" stroke-width="0.9" cx="1597.292" cy="321.346" r="226.771"/>
<g>
	<rect x="1401.701" y="63.354" fill="none" stroke="#000000" stroke-width="0.9" width="51.024" height="702.992"/>
	<rect x="1469.733" y="63.354" fill="none" stroke="#000000" stroke-width="0.9" width="51.023" height="702.992"/>
	<rect x="1537.765" y="63.354" fill="none" stroke="#000000" stroke-width="0.9" width="51.023" height="702.992"/>
	<rect x="1673.827" y="63.354" fill="none" stroke="#000000" stroke-width="0.9" width="51.023" height="702.992"/>
	<rect x="1605.796" y="63.354" fill="none" stroke="#000000" stroke-width="0.9" width="51.023" height="702.992"/>
	<rect x="1741.858" y="63.354" fill="none" stroke="#000000" stroke-width="0.9" width="51.023" height="702.992"/>
</g>
<rect x="-1216.61" y="63.347" fill="#CDC1DD" stroke="#CDC1DD" stroke-width="0.9" width="51.023" height="737.008"/>
<circle fill="#6C64DD" stroke="#000000" stroke-width="0.9" cx="-1021.021" cy="338.346" r="226.772"/>
<rect x="-1233.62" y="63.347" fill="none" stroke="#000000" stroke-width="0.9" width="425.197" height="737.008"/>
<rect x="-1165.587" y="63.347" fill="#6C64DD" stroke="#6C64DD" stroke-width="0.9" width="17.008" height="737.008"/>
<rect x="-1233.62" y="63.347" fill="#6C64DD" stroke="#6C64DD" stroke-width="0.9" width="17.008" height="737.008"/>
<rect x="-1148.579" y="63.347" fill="#CDC1DD" stroke="#CDC1DD" stroke-width="0.9" width="51.023" height="737.008"/>
<rect x="-1097.556" y="63.347" fill="#6C64DD" stroke="#6C64DD" stroke-width="0.9" width="17.008" height="737.008"/>
<rect x="-1080.548" y="63.347" fill="#CDC1DD" stroke="#CDC1DD" stroke-width="0.9" width="51.023" height="737.008"/>
<rect x="-1029.524" y="63.347" fill="#6C64DD" stroke="#6C64DD" stroke-width="0.9" width="17.008" height="737.008"/>
<rect x="-1012.517" y="63.347" fill="#CDC1DD" stroke="#CDC1DD" stroke-width="0.9" width="51.023" height="737.008"/>
<rect x="-961.493" y="63.347" fill="#6C64DD" stroke="#6C64DD" stroke-width="0.9" width="17.008" height="737.008"/>
<rect x="-944.485" y="63.347" fill="#CDC1DD" stroke="#CDC1DD" stroke-width="0.9" width="51.023" height="737.008"/>
<rect x="-893.462" y="63.347" fill="#6C64DD" stroke="#6C64DD" stroke-width="0.9" width="17.008" height="737.008"/>
<rect x="-876.454" y="63.347" fill="#CDC1DD" stroke="#CDC1DD" stroke-width="0.9" width="51.023" height="737.008"/>
<rect x="-825.431" y="63.347" fill="#6C64DD" stroke="#6C64DD" stroke-width="0.9" width="17.008" height="737.008"/>
<rect x="549.496" y="-40.466" fill="none" stroke="#000000" stroke-width="0.9" width="382.677" height="28.667"/>
</svg>
