  0
SECTION
  2
BLOCKS
  0
ENDSEC
  0
SECTION
  2
ENTITIES
  0
LINE
  8
0
 10
45.4202
 20
36.0998
 11
46.9233
 21
37.7117
  0
LINE
  8
0
 10
46.9233
 20
37.7117
 11
48.3692
 21
39.375
  0
LINE
  8
0
 10
48.3692
 20
39.375
 11
49.7562
 21
41.0878
  0
LINE
  8
0
 10
49.7562
 20
41.0878
 11
51.0825
 21
42.8479
  0
LINE
  8
0
 10
51.0825
 20
42.8479
 11
52.3467
 21
44.6533
  0
LINE
  8
0
 10
52.3467
 20
44.6533
 11
53.547
 21
46.5017
  0
LINE
  8
0
 10
53.547
 20
46.5017
 11
54.6821
 21
48.3908
  0
LINE
  8
0
 10
54.6821
 20
48.3908
 11
55.7506
 21
50.3185
  0
LINE
  8
0
 10
55.7506
 20
50.3185
 11
56.7512
 21
52.2822
  0
LINE
  8
0
 10
56.7512
 20
52.2822
 11
57.5572
 21
54.0106
  0
LINE
  8
0
 10
57.5572
 20
54.0106
 11
57.6073
 21
53.9904
  0
LINE
  8
0
 10
57.6073
 20
53.9904
 11
59.4803
 21
58.6263
  0
LINE
  8
0
 10
59.4803
 20
58.6263
 11
11.7637
 21
77.9051
  0
LINE
  8
0
 10
11.7637
 20
77.9051
 11
11.9342
 21
78.7072
  0
LINE
  8
0
 10
11.9342
 20
78.7072
 11
11.9342
 21
81.2159
  0
LINE
  8
0
 10
11.9342
 20
81.2159
 11
11.4127
 21
83.6698
  0
LINE
  8
0
 10
11.4127
 20
83.6698
 11
10.3923
 21
85.9616
  0
LINE
  8
0
 10
10.3923
 20
85.9616
 11
8.91772
 21
87.9911
  0
LINE
  8
0
 10
8.91772
 20
87.9911
 11
7.05342
 21
89.6698
  0
LINE
  8
0
 10
7.05342
 20
89.6698
 11
4.88083
 21
90.9241
  0
LINE
  8
0
 10
4.88083
 20
90.9241
 11
2.49493
 21
91.6993
  0
LINE
  8
0
 10
2.49493
 20
91.6993
 11
0
 21
91.9616
  0
LINE
  8
0
 10
0
 20
91.9616
 11
-2.49493
 21
91.6993
  0
LINE
  8
0
 10
-2.49493
 20
91.6993
 11
-4.88083
 21
90.9241
  0
LINE
  8
0
 10
-4.88083
 20
90.9241
 11
-7.05342
 21
89.6698
  0
LINE
  8
0
 10
-7.05342
 20
89.6698
 11
-8.91772
 21
87.9911
  0
LINE
  8
0
 10
-8.91772
 20
87.9911
 11
-10.3923
 21
85.9616
  0
LINE
  8
0
 10
-10.3923
 20
85.9616
 11
-11.4127
 21
83.6698
  0
LINE
  8
0
 10
-11.4127
 20
83.6698
 11
-11.9342
 21
81.2159
  0
LINE
  8
0
 10
-11.9342
 20
81.2159
 11
-11.9342
 21
78.7072
  0
LINE
  8
0
 10
-11.9342
 20
78.7072
 11
-11.7637
 21
77.9051
  0
LINE
  8
0
 10
-11.7637
 20
77.9051
 11
-59.4803
 21
58.6263
  0
LINE
  8
0
 10
-59.4803
 20
58.6263
 11
-57.6073
 21
53.9904
  0
LINE
  8
0
 10
-57.6073
 20
53.9904
 11
-57.5572
 21
54.0106
  0
LINE
  8
0
 10
-57.5572
 20
54.0106
 11
-56.7512
 21
52.2822
  0
LINE
  8
0
 10
-56.7512
 20
52.2822
 11
-55.7506
 21
50.3185
  0
LINE
  8
0
 10
-55.7506
 20
50.3185
 11
-54.6821
 21
48.3908
  0
LINE
  8
0
 10
-54.6821
 20
48.3908
 11
-53.547
 21
46.5017
  0
LINE
  8
0
 10
-53.547
 20
46.5017
 11
-52.3467
 21
44.6533
  0
LINE
  8
0
 10
-52.3467
 20
44.6533
 11
-51.0825
 21
42.8479
  0
LINE
  8
0
 10
-51.0825
 20
42.8479
 11
-49.7562
 21
41.0878
  0
LINE
  8
0
 10
-49.7562
 20
41.0878
 11
-48.6805
 21
39.7594
  0
LINE
  8
0
 10
-48.6805
 20
39.7594
 11
-40.6468
 21
40.2106
  0
LINE
  8
0
 10
-40.6468
 20
40.2106
 11
-40.9006
 21
40.4644
  0
LINE
  8
0
 10
-40.9006
 20
40.4644
 11
-42.2541
 21
41.9158
  0
LINE
  8
0
 10
-42.2541
 20
41.9158
 11
-43.5561
 21
43.4137
  0
LINE
  8
0
 10
-43.5561
 20
43.4137
 11
-44.8051
 21
44.956
  0
LINE
  8
0
 10
-44.8051
 20
44.956
 11
-45.9995
 21
46.541
  0
LINE
  8
0
 10
-45.9995
 20
46.541
 11
-47.1378
 21
48.1667
  0
LINE
  8
0
 10
-47.1378
 20
48.1667
 11
-48.2187
 21
49.8312
  0
LINE
  8
0
 10
-48.2187
 20
49.8312
 11
-49.2409
 21
51.5323
  0
LINE
  8
0
 10
-49.2409
 20
51.5323
 11
-50.2031
 21
53.2681
  0
LINE
  8
0
 10
-50.2031
 20
53.2681
 11
-51.1041
 21
55.0365
  0
LINE
  8
0
 10
-51.1041
 20
55.0365
 11
-51.7246
 21
56.3672
  0
LINE
  8
0
 10
-51.7246
 20
56.3672
 11
-9.88954
 21
73.2696
  0
LINE
  8
0
 10
-9.88954
 20
73.2696
 11
-8.91772
 21
71.932
  0
LINE
  8
0
 10
-8.91772
 20
71.932
 11
-7.05342
 21
70.2534
  0
LINE
  8
0
 10
-7.05342
 20
70.2534
 11
-4.88083
 21
68.999
  0
LINE
  8
0
 10
-4.88083
 20
68.999
 11
-2.49493
 21
68.2238
  0
LINE
  8
0
 10
-2.49493
 20
68.2238
 11
0
 21
67.9616
  0
LINE
  8
0
 10
0
 20
67.9616
 11
2.49493
 21
68.2238
  0
LINE
  8
0
 10
2.49493
 20
68.2238
 11
4.88083
 21
68.999
  0
LINE
  8
0
 10
4.88083
 20
68.999
 11
7.05342
 21
70.2534
  0
LINE
  8
0
 10
7.05342
 20
70.2534
 11
8.91772
 21
71.932
  0
LINE
  8
0
 10
8.91772
 20
71.932
 11
9.88954
 21
73.2696
  0
LINE
  8
0
 10
9.88954
 20
73.2696
 11
51.7246
 21
56.3672
  0
LINE
  8
0
 10
51.7246
 20
56.3672
 11
51.1041
 21
55.0365
  0
LINE
  8
0
 10
51.1041
 20
55.0365
 11
50.2031
 21
53.2681
  0
LINE
  8
0
 10
50.2031
 20
53.2681
 11
49.2409
 21
51.5323
  0
LINE
  8
0
 10
49.2409
 20
51.5323
 11
48.2187
 21
49.8312
  0
LINE
  8
0
 10
48.2187
 20
49.8312
 11
47.1378
 21
48.1667
  0
LINE
  8
0
 10
47.1378
 20
48.1667
 11
45.9995
 21
46.541
  0
LINE
  8
0
 10
45.9995
 20
46.541
 11
45.0351
 21
45.2612
  0
LINE
  8
0
 10
45.0351
 20
45.2612
 11
44.467
 21
35.1467
  0
LINE
  8
0
 10
44.467
 20
35.1467
 11
45.4202
 21
36.0998
  0
LINE
  8
0
 10
-1.03955
 20
75.0708
 11
-2.03368
 21
75.3939
  0
LINE
  8
0
 10
-2.03368
 20
75.3939
 11
-2.93892
 21
75.9165
  0
LINE
  8
0
 10
-2.93892
 20
75.9165
 11
-3.71571
 21
76.6159
  0
LINE
  8
0
 10
-3.71571
 20
76.6159
 11
-4.33012
 21
77.4616
  0
LINE
  8
0
 10
-4.33012
 20
77.4616
 11
-4.75528
 21
78.4165
  0
LINE
  8
0
 10
-4.75528
 20
78.4165
 11
-4.9726
 21
79.4389
  0
LINE
  8
0
 10
-4.9726
 20
79.4389
 11
-4.9726
 21
80.4842
  0
LINE
  8
0
 10
-4.9726
 20
80.4842
 11
-4.75528
 21
81.5067
  0
LINE
  8
0
 10
-4.75528
 20
81.5067
 11
-4.33012
 21
82.4616
  0
LINE
  8
0
 10
-4.33012
 20
82.4616
 11
-3.71571
 21
83.3072
  0
LINE
  8
0
 10
-3.71571
 20
83.3072
 11
-2.93892
 21
84.0067
  0
LINE
  8
0
 10
-2.93892
 20
84.0067
 11
-2.03368
 21
84.5293
  0
LINE
  8
0
 10
-2.03368
 20
84.5293
 11
-1.03955
 21
84.8523
  0
LINE
  8
0
 10
-1.03955
 20
84.8523
 11
0
 21
84.9616
  0
LINE
  8
0
 10
0
 20
84.9616
 11
1.03955
 21
84.8523
  0
LINE
  8
0
 10
1.03955
 20
84.8523
 11
2.03368
 21
84.5293
  0
LINE
  8
0
 10
2.03368
 20
84.5293
 11
2.93892
 21
84.0067
  0
LINE
  8
0
 10
2.93892
 20
84.0067
 11
3.71571
 21
83.3072
  0
LINE
  8
0
 10
3.71571
 20
83.3072
 11
4.33012
 21
82.4616
  0
LINE
  8
0
 10
4.33012
 20
82.4616
 11
4.75528
 21
81.5067
  0
LINE
  8
0
 10
4.75528
 20
81.5067
 11
4.9726
 21
80.4842
  0
LINE
  8
0
 10
4.9726
 20
80.4842
 11
4.9726
 21
79.4389
  0
LINE
  8
0
 10
4.9726
 20
79.4389
 11
4.75528
 21
78.4165
  0
LINE
  8
0
 10
4.75528
 20
78.4165
 11
4.33012
 21
77.4616
  0
LINE
  8
0
 10
4.33012
 20
77.4616
 11
3.71571
 21
76.6159
  0
LINE
  8
0
 10
3.71571
 20
76.6159
 11
2.93892
 21
75.9165
  0
LINE
  8
0
 10
2.93892
 20
75.9165
 11
2.03368
 21
75.3939
  0
LINE
  8
0
 10
2.03368
 20
75.3939
 11
1.03955
 21
75.0708
  0
LINE
  8
0
 10
1.03955
 20
75.0708
 11
0
 21
74.9616
  0
LINE
  8
0
 10
0
 20
74.9616
 11
-1.03955
 21
75.0708
  0
LINE
  8
0
 10
-5.21907
 20
-45.6607
 11
-4.8083
 21
-45.748
  0
LINE
  8
0
 10
-4.8083
 20
-45.748
 11
1.52315
 21
-45.748
  0
LINE
  8
0
 10
1.52315
 20
-45.748
 11
13.3512
 21
-58.4957
  0
LINE
  8
0
 10
13.3512
 20
-58.4957
 11
5.08055
 21
-45.6901
  0
LINE
  8
0
 10
5.08055
 20
-45.6901
 11
11.6967
 21
-44.2838
  0
LINE
  8
0
 10
11.6967
 20
-44.2838
 11
26.033
 21
-54.0581
  0
LINE
  8
0
 10
26.033
 20
-54.0581
 11
15.0719
 21
-43.367
  0
LINE
  8
0
 10
15.0719
 20
-43.367
 11
21.3079
 21
-40.5905
  0
LINE
  8
0
 10
21.3079
 20
-40.5905
 11
37.4094
 21
-46.9099
  0
LINE
  8
0
 10
37.4094
 20
-46.9099
 11
24.2953
 21
-38.896
  0
LINE
  8
0
 10
24.2953
 20
-38.896
 11
29.8754
 21
-34.8419
  0
LINE
  8
0
 10
29.8754
 20
-34.8419
 11
46.9099
 21
-37.4094
  0
LINE
  8
0
 10
46.9099
 20
-37.4094
 11
32.2971
 21
-32.4997
  0
LINE
  8
0
 10
32.2971
 20
-32.4997
 11
36.9665
 21
-27.3139
  0
LINE
  8
0
 10
36.9665
 20
-27.3139
 11
54.0581
 21
-26.033
  0
LINE
  8
0
 10
54.0581
 20
-26.033
 11
38.6833
 21
-24.4945
  0
LINE
  8
0
 10
38.6833
 20
-24.4945
 11
42.0231
 21
-18.7099
  0
LINE
  8
0
 10
42.0231
 20
-18.7099
 11
42.1233
 21
-18.4015
  0
LINE
  8
0
 10
42.1233
 20
-18.4015
 11
58.4957
 21
-13.3512
  0
LINE
  8
0
 10
58.4957
 20
-13.3512
 11
43.1389
 21
-15.2757
  0
LINE
  8
0
 10
43.1389
 20
-15.2757
 11
44.9948
 21
-9.56393
  0
LINE
  8
0
 10
44.9948
 20
-9.56393
 11
45.0956
 21
-8.60507
  0
LINE
  8
0
 10
45.0956
 20
-8.60507
 11
60
 21
0
  0
LINE
  8
0
 10
60
 20
0
 11
45.4431
 21
-5.29826
  0
LINE
  8
0
 10
45.4431
 20
-5.29826
 11
46
 21
0
  0
LINE
  8
0
 10
46
 20
0
 11
45.8317
 21
1.60085
  0
LINE
  8
0
 10
45.8317
 20
1.60085
 11
58.4957
 21
13.3512
  0
LINE
  8
0
 10
58.4957
 20
13.3512
 11
45.4803
 21
4.94501
  0
LINE
  8
0
 10
45.4803
 20
4.94501
 11
44.9948
 21
9.56393
  0
LINE
  8
0
 10
44.9948
 20
9.56393
 11
44.296
 21
11.7146
  0
LINE
  8
0
 10
44.296
 20
11.7146
 11
54.0581
 21
26.033
  0
LINE
  8
0
 10
54.0581
 20
26.033
 11
43.2456
 21
14.9474
  0
LINE
  8
0
 10
43.2456
 20
14.9474
 11
42.0231
 21
18.7099
  0
LINE
  8
0
 10
42.0231
 20
18.7099
 11
40.5632
 21
21.2384
  0
LINE
  8
0
 10
40.5632
 20
21.2384
 11
46.9099
 21
37.4094
  0
LINE
  8
0
 10
46.9099
 20
37.4094
 11
38.8458
 21
24.2131
  0
LINE
  8
0
 10
38.8458
 20
24.2131
 11
37.2148
 21
27.0381
  0
LINE
  8
0
 10
37.2148
 20
27.0381
 11
34.8158
 21
29.7025
  0
LINE
  8
0
 10
34.8158
 20
29.7025
 11
37.4094
 21
46.9099
  0
LINE
  8
0
 10
37.4094
 20
46.9099
 11
32.4943
 21
32.2808
  0
LINE
  8
0
 10
32.4943
 20
32.2808
 11
30.78
 21
34.1847
  0
LINE
  8
0
 10
30.78
 20
34.1847
 11
27.3347
 21
36.6878
  0
LINE
  8
0
 10
27.3347
 20
36.6878
 11
26.033
 21
54.0581
  0
LINE
  8
0
 10
26.033
 20
54.0581
 11
24.5009
 21
38.7467
  0
LINE
  8
0
 10
24.5009
 20
38.7467
 11
23
 21
39.8372
  0
LINE
  8
0
 10
23
 20
39.8372
 11
18.4868
 21
41.8466
  0
LINE
  8
0
 10
18.4868
 20
41.8466
 11
13.3512
 21
58.4957
  0
LINE
  8
0
 10
13.3512
 20
58.4957
 11
15.2575
 21
43.2843
  0
LINE
  8
0
 10
15.2575
 20
43.2843
 11
14.2148
 21
43.7486
  0
LINE
  8
0
 10
14.2148
 20
43.7486
 11
8.7068
 21
44.9193
  0
LINE
  8
0
 10
8.7068
 20
44.9193
 11
0
 21
60
  0
LINE
  8
0
 10
0
 20
60
 11
5.21907
 21
45.6607
  0
LINE
  8
0
 10
5.21907
 20
45.6607
 11
4.8083
 21
45.748
  0
LINE
  8
0
 10
4.8083
 20
45.748
 11
-1.52315
 21
45.748
  0
LINE
  8
0
 10
-1.52315
 20
45.748
 11
-13.3512
 21
58.4957
  0
LINE
  8
0
 10
-13.3512
 20
58.4957
 11
-5.08055
 21
45.6901
  0
LINE
  8
0
 10
-5.08055
 20
45.6901
 11
-11.6967
 21
44.2838
  0
LINE
  8
0
 10
-11.6967
 20
44.2838
 11
-26.033
 21
54.0581
  0
LINE
  8
0
 10
-26.033
 20
54.0581
 11
-15.0719
 21
43.367
  0
LINE
  8
0
 10
-15.0719
 20
43.367
 11
-21.3079
 21
40.5905
  0
LINE
  8
0
 10
-21.3079
 20
40.5905
 11
-37.4094
 21
46.9099
  0
LINE
  8
0
 10
-37.4094
 20
46.9099
 11
-24.2953
 21
38.896
  0
LINE
  8
0
 10
-24.2953
 20
38.896
 11
-29.8754
 21
34.8419
  0
LINE
  8
0
 10
-29.8754
 20
34.8419
 11
-46.9099
 21
37.4094
  0
LINE
  8
0
 10
-46.9099
 20
37.4094
 11
-32.2971
 21
32.4997
  0
LINE
  8
0
 10
-32.2971
 20
32.4997
 11
-36.9665
 21
27.3139
  0
LINE
  8
0
 10
-36.9665
 20
27.3139
 11
-54.0581
 21
26.033
  0
LINE
  8
0
 10
-54.0581
 20
26.033
 11
-38.6833
 21
24.4945
  0
LINE
  8
0
 10
-38.6833
 20
24.4945
 11
-42.0231
 21
18.7099
  0
LINE
  8
0
 10
-42.0231
 20
18.7099
 11
-42.1233
 21
18.4015
  0
LINE
  8
0
 10
-42.1233
 20
18.4015
 11
-58.4957
 21
13.3512
  0
LINE
  8
0
 10
-58.4957
 20
13.3512
 11
-43.1389
 21
15.2757
  0
LINE
  8
0
 10
-43.1389
 20
15.2757
 11
-44.9948
 21
9.56393
  0
LINE
  8
0
 10
-44.9948
 20
9.56393
 11
-45.0956
 21
8.60507
  0
LINE
  8
0
 10
-45.0956
 20
8.60507
 11
-60
 21
0
  0
LINE
  8
0
 10
-60
 20
0
 11
-45.4431
 21
5.29826
  0
LINE
  8
0
 10
-45.4431
 20
5.29826
 11
-46
 21
0
  0
LINE
  8
0
 10
-46
 20
0
 11
-45.8317
 21
-1.60085
  0
LINE
  8
0
 10
-45.8317
 20
-1.60085
 11
-58.4957
 21
-13.3512
  0
LINE
  8
0
 10
-58.4957
 20
-13.3512
 11
-45.4803
 21
-4.94501
  0
LINE
  8
0
 10
-45.4803
 20
-4.94501
 11
-44.9948
 21
-9.56393
  0
LINE
  8
0
 10
-44.9948
 20
-9.56393
 11
-44.296
 21
-11.7146
  0
LINE
  8
0
 10
-44.296
 20
-11.7146
 11
-54.0581
 21
-26.033
  0
LINE
  8
0
 10
-54.0581
 20
-26.033
 11
-43.2456
 21
-14.9474
  0
LINE
  8
0
 10
-43.2456
 20
-14.9474
 11
-42.0231
 21
-18.7099
  0
LINE
  8
0
 10
-42.0231
 20
-18.7099
 11
-40.5632
 21
-21.2384
  0
LINE
  8
0
 10
-40.5632
 20
-21.2384
 11
-46.9099
 21
-37.4094
  0
LINE
  8
0
 10
-46.9099
 20
-37.4094
 11
-38.8458
 21
-24.2131
  0
LINE
  8
0
 10
-38.8458
 20
-24.2131
 11
-37.2148
 21
-27.0381
  0
LINE
  8
0
 10
-37.2148
 20
-27.0381
 11
-34.8158
 21
-29.7025
  0
LINE
  8
0
 10
-34.8158
 20
-29.7025
 11
-37.4094
 21
-46.9099
  0
LINE
  8
0
 10
-37.4094
 20
-46.9099
 11
-32.4943
 21
-32.2808
  0
LINE
  8
0
 10
-32.4943
 20
-32.2808
 11
-30.78
 21
-34.1847
  0
LINE
  8
0
 10
-30.78
 20
-34.1847
 11
-27.3347
 21
-36.6878
  0
LINE
  8
0
 10
-27.3347
 20
-36.6878
 11
-26.033
 21
-54.0581
  0
LINE
  8
0
 10
-26.033
 20
-54.0581
 11
-24.5009
 21
-38.7467
  0
LINE
  8
0
 10
-24.5009
 20
-38.7467
 11
-23
 21
-39.8372
  0
LINE
  8
0
 10
-23
 20
-39.8372
 11
-18.4868
 21
-41.8466
  0
LINE
  8
0
 10
-18.4868
 20
-41.8466
 11
-13.3512
 21
-58.4957
  0
LINE
  8
0
 10
-13.3512
 20
-58.4957
 11
-15.2575
 21
-43.2843
  0
LINE
  8
0
 10
-15.2575
 20
-43.2843
 11
-14.2148
 21
-43.7486
  0
LINE
  8
0
 10
-14.2148
 20
-43.7486
 11
-8.7068
 21
-44.9193
  0
LINE
  8
0
 10
-8.7068
 20
-44.9193
 11
0
 21
-60
  0
LINE
  8
0
 10
0
 20
-60
 11
-5.21907
 21
-45.6607
  0
LINE
  8
0
 10
-0.873978
 20
39.7809
 11
4.18114
 21
39.7809
  0
LINE
  8
0
 10
4.18114
 20
39.7809
 11
12.3607
 21
38.0423
  0
LINE
  8
0
 10
12.3607
 20
38.0423
 11
18.076
 21
35.4976
  0
LINE
  8
0
 10
18.076
 20
35.4976
 11
4.10286
 21
17.9758
  0
LINE
  8
0
 10
4.10286
 20
17.9758
 11
-0.873978
 21
39.7809
  0
LINE
  8
0
 10
-31.7628
 20
24.1755
 11
-26.7652
 21
29.7258
  0
LINE
  8
0
 10
-26.7652
 20
29.7258
 11
-20
 21
34.641
  0
LINE
  8
0
 10
-20
 20
34.641
 11
-16.4709
 21
36.2122
  0
LINE
  8
0
 10
-16.4709
 20
36.2122
 11
-11.496
 21
14.4155
  0
LINE
  8
0
 10
-11.496
 20
14.4155
 11
-31.7628
 21
24.1755
  0
LINE
  8
0
 10
16.6122
 20
8
 11
30.569
 21
25.5013
  0
LINE
  8
0
 10
30.569
 20
25.5013
 11
32.3607
 21
23.5114
  0
LINE
  8
0
 10
32.3607
 20
23.5114
 11
36.5418
 21
16.2695
  0
LINE
  8
0
 10
36.5418
 20
16.2695
 11
39.1259
 21
8.31647
  0
LINE
  8
0
 10
39.1259
 20
8.31647
 11
39.1592
 21
8
  0
LINE
  8
0
 10
39.1592
 20
8
 11
16.6122
 21
8
  0
LINE
  8
0
 10
-39.1259
 20
-8.31647
 11
-40
 21
0
  0
LINE
  8
0
 10
-40
 20
0
 11
-39.1259
 21
8.31647
  0
LINE
  8
0
 10
-39.1259
 20
8.31647
 11
-38.6634
 21
9.73996
  0
LINE
  8
0
 10
-38.6634
 20
9.73996
 11
-18.4381
 21
0
  0
LINE
  8
0
 10
-18.4381
 20
0
 11
-38.6634
 21
-9.73996
  0
LINE
  8
0
 10
-38.6634
 20
-9.73996
 11
-39.1259
 21
-8.31647
  0
LINE
  8
0
 10
-0.522629
 20
-4.9726
 11
-1.54507
 21
-4.75528
  0
LINE
  8
0
 10
-1.54507
 20
-4.75528
 11
-2.5
 21
-4.33012
  0
LINE
  8
0
 10
-2.5
 20
-4.33012
 11
-3.34564
 21
-3.71571
  0
LINE
  8
0
 10
-3.34564
 20
-3.71571
 11
-4.04507
 21
-2.93892
  0
LINE
  8
0
 10
-4.04507
 20
-2.93892
 11
-4.56772
 21
-2.03368
  0
LINE
  8
0
 10
-4.56772
 20
-2.03368
 11
-4.89073
 21
-1.03955
  0
LINE
  8
0
 10
-4.89073
 20
-1.03955
 11
-5
 21
0
  0
LINE
  8
0
 10
-5
 20
0
 11
-4.89073
 21
1.03955
  0
LINE
  8
0
 10
-4.89073
 20
1.03955
 11
-4.56772
 21
2.03368
  0
LINE
  8
0
 10
-4.56772
 20
2.03368
 11
-4.04507
 21
2.93892
  0
LINE
  8
0
 10
-4.04507
 20
2.93892
 11
-3.34564
 21
3.71571
  0
LINE
  8
0
 10
-3.34564
 20
3.71571
 11
-2.49998
 21
4.33012
  0
LINE
  8
0
 10
-2.49998
 20
4.33012
 11
-1.54507
 21
4.75528
  0
LINE
  8
0
 10
-1.54507
 20
4.75528
 11
-0.522629
 21
4.9726
  0
LINE
  8
0
 10
-0.522629
 20
4.9726
 11
0.522629
 21
4.9726
  0
LINE
  8
0
 10
0.522629
 20
4.9726
 11
1.54507
 21
4.75528
  0
LINE
  8
0
 10
1.54507
 20
4.75528
 11
2.5
 21
4.33012
  0
LINE
  8
0
 10
2.5
 20
4.33012
 11
3.34564
 21
3.71571
  0
LINE
  8
0
 10
3.34564
 20
3.71571
 11
4.04507
 21
2.93892
  0
LINE
  8
0
 10
4.04507
 20
2.93892
 11
4.56772
 21
2.03368
  0
LINE
  8
0
 10
4.56772
 20
2.03368
 11
4.89073
 21
1.03955
  0
LINE
  8
0
 10
4.89073
 20
1.03955
 11
5
 21
0
  0
LINE
  8
0
 10
5
 20
0
 11
4.89073
 21
-1.03955
  0
LINE
  8
0
 10
4.89073
 20
-1.03955
 11
4.56772
 21
-2.03368
  0
LINE
  8
0
 10
4.56772
 20
-2.03368
 11
4.04507
 21
-2.93892
  0
LINE
  8
0
 10
4.04507
 20
-2.93892
 11
3.34564
 21
-3.71571
  0
LINE
  8
0
 10
3.34564
 20
-3.71571
 11
2.5
 21
-4.33012
  0
LINE
  8
0
 10
2.5
 20
-4.33012
 11
1.54507
 21
-4.75528
  0
LINE
  8
0
 10
1.54507
 20
-4.75528
 11
0.522629
 21
-4.9726
  0
LINE
  8
0
 10
0.522629
 20
-4.9726
 11
-0.522629
 21
-4.9726
  0
LINE
  8
0
 10
16.6122
 20
-8
 11
39.1592
 21
-8
  0
LINE
  8
0
 10
39.1592
 20
-8
 11
39.1259
 21
-8.31647
  0
LINE
  8
0
 10
39.1259
 20
-8.31647
 11
36.5418
 21
-16.2695
  0
LINE
  8
0
 10
36.5418
 20
-16.2695
 11
32.3607
 21
-23.5114
  0
LINE
  8
0
 10
32.3607
 20
-23.5114
 11
30.569
 21
-25.5013
  0
LINE
  8
0
 10
30.569
 20
-25.5013
 11
16.6122
 21
-8
  0
LINE
  8
0
 10
-20
 20
-34.641
 11
-26.7652
 21
-29.7258
  0
LINE
  8
0
 10
-26.7652
 20
-29.7258
 11
-31.7628
 21
-24.1755
  0
LINE
  8
0
 10
-31.7628
 20
-24.1755
 11
-11.496
 21
-14.4155
  0
LINE
  8
0
 10
-11.496
 20
-14.4155
 11
-16.4709
 21
-36.2122
  0
LINE
  8
0
 10
-16.4709
 20
-36.2122
 11
-20
 21
-34.641
  0
LINE
  8
0
 10
-0.873978
 20
-39.7809
 11
4.10286
 21
-17.9758
  0
LINE
  8
0
 10
4.10286
 20
-17.9758
 11
18.076
 21
-35.4976
  0
LINE
  8
0
 10
18.076
 20
-35.4976
 11
12.3607
 21
-38.0423
  0
LINE
  8
0
 10
12.3607
 20
-38.0423
 11
4.18114
 21
-39.7809
  0
LINE
  8
0
 10
4.18114
 20
-39.7809
 11
-0.873978
 21
-39.7809
  0
ENDSEC
  0
SECTION
  2
OBJECTS
  0
DICTIONARY
  0
ENDSEC
  0
EOF
