  0
SECTION
  2
HEADER
  9
$ACADVER
  1
AC1032
  9
$ACADMAINTVER
 90
       55
  9
$DWGCODEPAGE
  3
ANSI_1252
  9
$LASTSAVEDBY
  1
Jasper
  9
$REQUIREDVERSIONS
160
                 0
  9
$INSBASE
 10
0.0
 20
0.0
 30
0.0
  9
$EXTMIN
 10
-119.708
 20
-119.927
 30
0.0
  9
$EXTMAX
 10
248.0
 20
183.706
 30
0.0
  9
$LIMMIN
 10
0.0
 20
0.0
  9
$LIMMAX
 10
12.0
 20
9.0
  9
$ORTHOMODE
 70
     0
  9
$REGENMODE
 70
     1
  9
$FILLMODE
 70
     1
  9
$QTEXTMODE
 70
     0
  9
$MIRRTEXT
 70
     0
  9
$LTSCALE
 40
1.0
  9
$ATTMODE
 70
     1
  9
$TEXTSIZE
 40
0.2
  9
$TRACEWID
 40
0.05
  9
$TEXTSTYLE
  7
Standard
  9
$CLAYER
  8
0
  9
$CELTYPE
  6
ByLayer
  9
$CECOLOR
 62
   256
  9
$CELTSCALE
 40
1.0
  9
$DISPSILH
 70
     0
  9
$DIMSCALE
 40
1.0
  9
$DIMASZ
 40
0.18
  9
$DIMEXO
 40
0.0625
  9
$DIMDLI
 40
0.38
  9
$DIMRND
 40
0.0
  9
$DIMDLE
 40
0.0
  9
$DIMEXE
 40
0.18
  9
$DIMTP
 40
0.0
  9
$DIMTM
 40
0.0
  9
$DIMTXT
 40
0.18
  9
$DIMCEN
 40
0.09
  9
$DIMTSZ
 40
0.0
  9
$DIMTOL
 70
     0
  9
$DIMLIM
 70
     0
  9
$DIMTIH
 70
     1
  9
$DIMTOH
 70
     1
  9
$DIMSE1
 70
     0
  9
$DIMSE2
 70
     0
  9
$DIMTAD
 70
     0
  9
$DIMZIN
 70
     0
  9
$DIMBLK
  1

  9
$DIMASO
 70
     1
  9
$DIMSHO
 70
     1
  9
$DIMPOST
  1

  9
$DIMAPOST
  1

  9
$DIMALT
 70
     0
  9
$DIMALTD
 70
     2
  9
$DIMALTF
 40
25.4
  9
$DIMLFAC
 40
1.0
  9
$DIMTOFL
 70
     0
  9
$DIMTVP
 40
0.0
  9
$DIMTIX
 70
     0
  9
$DIMSOXD
 70
     0
  9
$DIMSAH
 70
     0
  9
$DIMBLK1
  1

  9
$DIMBLK2
  1

  9
$DIMSTYLE
  2
Standard
  9
$DIMCLRD
 70
     0
  9
$DIMCLRE
 70
     0
  9
$DIMCLRT
 70
     0
  9
$DIMTFAC
 40
1.0
  9
$DIMGAP
 40
0.09
  9
$DIMJUST
 70
     0
  9
$DIMSD1
 70
     0
  9
$DIMSD2
 70
     0
  9
$DIMTOLJ
 70
     1
  9
$DIMTZIN
 70
     0
  9
$DIMALTZ
 70
     0
  9
$DIMALTTZ
 70
     0
  9
$DIMUPT
 70
     0
  9
$DIMDEC
 70
     4
  9
$DIMTDEC
 70
     4
  9
$DIMALTU
 70
     2
  9
$DIMALTTD
 70
     2
  9
$DIMTXSTY
  7
Standard
  9
$DIMAUNIT
 70
     0
  9
$DIMADEC
 70
     0
  9
$DIMALTRND
 40
0.0
  9
$DIMAZIN
 70
     0
  9
$DIMDSEP
 70
    46
  9
$DIMATFIT
 70
     3
  9
$DIMFRAC
 70
     0
  9
$DIMLDRBLK
  1

  9
$DIMLUNIT
 70
     2
  9
$DIMLWD
 70
    -2
  9
$DIMLWE
 70
    -2
  9
$DIMTMOVE
 70
     0
  9
$DIMFXL
 40
1.0
  9
$DIMFXLON
 70
     0
  9
$DIMJOGANG
 40
0.7853981633974483
  9
$DIMTFILL
 70
     0
  9
$DIMTFILLCLR
 70
     0
  9
$DIMARCSYM
 70
     0
  9
$DIMLTYPE
  6

  9
$DIMLTEX1
  6

  9
$DIMLTEX2
  6

  9
$DIMTXTDIRECTION
 70
     0
  9
$LUNITS
 70
     2
  9
$LUPREC
 70
     4
  9
$SKETCHINC
 40
0.1
  9
$FILLETRAD
 40
0.0
  9
$AUNITS
 70
     0
  9
$AUPREC
 70
     0
  9
$MENU
  1
.
  9
$ELEVATION
 40
0.0
  9
$PELEVATION
 40
0.0
  9
$THICKNESS
 40
0.0
  9
$LIMCHECK
 70
     0
  9
$CHAMFERA
 40
0.0
  9
$CHAMFERB
 40
0.0
  9
$CHAMFERC
 40
0.0
  9
$CHAMFERD
 40
0.0
  9
$SKPOLY
 70
     0
  9
$TDCREATE
 40
2458435.487800926
  9
$TDUCREATE
 40
2458435.446134259
  9
$TDUPDATE
 40
2458435.489826389
  9
$TDUUPDATE
 40
2458435.448159722
  9
$TDINDWG
 40
0.0020254630
  9
$TDUSRTIMER
 40
0.0020254630
  9
$USRTIMER
 70
     1
  9
$ANGBASE
 50
0.0
  9
$ANGDIR
 70
     0
  9
$PDMODE
 70
     0
  9
$PDSIZE
 40
0.0
  9
$PLINEWID
 40
0.0
  9
$SPLFRAME
 70
     0
  9
$SPLINETYPE
 70
     6
  9
$SPLINESEGS
 70
     8
  9
$HANDSEED
  5
1CC
  9
$SURFTAB1
 70
     6
  9
$SURFTAB2
 70
     6
  9
$SURFTYPE
 70
     6
  9
$SURFU
 70
     6
  9
$SURFV
 70
     6
  9
$UCSBASE
  2

  9
$UCSNAME
  2

  9
$UCSORG
 10
0.0
 20
0.0
 30
0.0
  9
$UCSXDIR
 10
1.0
 20
0.0
 30
0.0
  9
$UCSYDIR
 10
0.0
 20
1.0
 30
0.0
  9
$UCSORTHOREF
  2

  9
$UCSORTHOVIEW
 70
     0
  9
$UCSORGTOP
 10
0.0
 20
0.0
 30
0.0
  9
$UCSORGBOTTOM
 10
0.0
 20
0.0
 30
0.0
  9
$UCSORGLEFT
 10
0.0
 20
0.0
 30
0.0
  9
$UCSORGRIGHT
 10
0.0
 20
0.0
 30
0.0
  9
$UCSORGFRONT
 10
0.0
 20
0.0
 30
0.0
  9
$UCSORGBACK
 10
0.0
 20
0.0
 30
0.0
  9
$PUCSBASE
  2

  9
$PUCSNAME
  2

  9
$PUCSORG
 10
0.0
 20
0.0
 30
0.0
  9
$PUCSXDIR
 10
1.0
 20
0.0
 30
0.0
  9
$PUCSYDIR
 10
0.0
 20
1.0
 30
0.0
  9
$PUCSORTHOREF
  2

  9
$PUCSORTHOVIEW
 70
     0
  9
$PUCSORGTOP
 10
0.0
 20
0.0
 30
0.0
  9
$PUCSORGBOTTOM
 10
0.0
 20
0.0
 30
0.0
  9
$PUCSORGLEFT
 10
0.0
 20
0.0
 30
0.0
  9
$PUCSORGRIGHT
 10
0.0
 20
0.0
 30
0.0
  9
$PUCSORGFRONT
 10
0.0
 20
0.0
 30
0.0
  9
$PUCSORGBACK
 10
0.0
 20
0.0
 30
0.0
  9
$USERI1
 70
     0
  9
$USERI2
 70
     0
  9
$USERI3
 70
     0
  9
$USERI4
 70
     0
  9
$USERI5
 70
     0
  9
$USERR1
 40
0.0
  9
$USERR2
 40
0.0
  9
$USERR3
 40
0.0
  9
$USERR4
 40
0.0
  9
$USERR5
 40
0.0
  9
$WORLDVIEW
 70
     1
  9
$SHADEDGE
 70
     3
  9
$SHADEDIF
 70
    70
  9
$TILEMODE
 70
     1
  9
$MAXACTVP
 70
    64
  9
$PINSBASE
 10
0.0
 20
0.0
 30
0.0
  9
$PLIMCHECK
 70
     0
  9
$PEXTMIN
 10
1.000000000000000E+20
 20
1.000000000000000E+20
 30
1.000000000000000E+20
  9
$PEXTMAX
 10
-1.000000000000000E+20
 20
-1.000000000000000E+20
 30
-1.000000000000000E+20
  9
$PLIMMIN
 10
0.0
 20
0.0
  9
$PLIMMAX
 10
12.0
 20
9.0
  9
$UNITMODE
 70
     0
  9
$VISRETAIN
 70
     1
  9
$PLINEGEN
 70
     0
  9
$PSLTSCALE
 70
     1
  9
$TREEDEPTH
 70
  3020
  9
$CMLSTYLE
  2
Standard
  9
$CMLJUST
 70
     0
  9
$CMLSCALE
 40
1.0
  9
$PROXYGRAPHICS
 70
     1
  9
$MEASUREMENT
 70
     0
  9
$CELWEIGHT
370
    -1
  9
$ENDCAPS
280
     0
  9
$JOINSTYLE
280
     0
  9
$LWDISPLAY
290
     0
  9
$INSUNITS
 70
     0
  9
$HYPERLINKBASE
  1

  9
$STYLESHEET
  1

  9
$XEDIT
290
     1
  9
$CEPSNTYPE
380
     0
  9
$PSTYLEMODE
290
     1
  9
$FINGERPRINTGUID
  2
{411BF20A-C173-7E44-B48D-29560CE4B658}
  9
$VERSIONGUID
  2
{6204FF6A-2930-1F40-8C2F-2D04572BA3C3}
  9
$EXTNAMES
290
     1
  9
$PSVPSCALE
 40
0.0
  9
$OLESTARTUP
290
     0
  9
$SORTENTS
280
   127
  9
$INDEXCTL
280
     0
  9
$HIDETEXT
280
     0
  9
$XCLIPFRAME
280
     2
  9
$HALOGAP
280
     0
  9
$OBSCOLOR
 70
   257
  9
$OBSLTYPE
280
     0
  9
$INTERSECTIONDISPLAY
280
     0
  9
$INTERSECTIONCOLOR
 70
   257
  9
$DIMASSOC
280
     1
  9
$PROJECTNAME
  1

  9
$CAMERADISPLAY
290
     0
  9
$LENSLENGTH
 40
50.0
  9
$CAMERAHEIGHT
 40
0.0
  9
$STEPSPERSEC
 40
2.0
  9
$STEPSIZE
 40
6.0
  9
$3DDWFPREC
 40
2.0
  9
$PSOLWIDTH
 40
0.25
  9
$PSOLHEIGHT
 40
4.0
  9
$LOFTANG1
 40
1.570796326794896
  9
$LOFTANG2
 40
1.570796326794896
  9
$LOFTMAG1
 40
0.0
  9
$LOFTMAG2
 40
0.0
  9
$LOFTPARAM
 70
     7
  9
$LOFTNORMALS
280
     1
  9
$LATITUDE
 40
37.795
  9
$LONGITUDE
 40
-122.394
  9
$NORTHDIRECTION
 40
0.0
  9
$TIMEZONE
 70
 -8000
  9
$LIGHTGLYPHDISPLAY
280
     1
  9
$TILEMODELIGHTSYNCH
280
     1
  9
$CMATERIAL
347
11
  9
$SOLIDHIST
280
     0
  9
$SHOWHIST
280
     1
  9
$DWFFRAME
280
     2
  9
$DGNFRAME
280
     0
  9
$REALWORLDSCALE
290
     1
  9
$INTERFERECOLOR
 62
     1
  9
$INTERFEREOBJVS
345
33
  9
$INTERFEREVPVS
346
30
  9
$CSHADOW
280
     0
  9
$SHADOWPLANELOCATION
 40
0.0
  0
ENDSEC
  0
SECTION
  2
CLASSES
  0
CLASS
  1
ACDBDICTIONARYWDFLT
  2
AcDbDictionaryWithDefault
  3
ObjectDBX Classes
 90
        0
 91
        1
280
     0
281
     0
  0
CLASS
  1
MATERIAL
  2
AcDbMaterial
  3
ObjectDBX Classes
 90
     1153
 91
        3
280
     0
281
     0
  0
CLASS
  1
VISUALSTYLE
  2
AcDbVisualStyle
  3
ObjectDBX Classes
 90
     4095
 91
       24
280
     0
281
     0
  0
CLASS
  1
SCALE
  2
AcDbScale
  3
ObjectDBX Classes
 90
     1153
 91
       17
280
     0
281
     0
  0
CLASS
  1
TABLESTYLE
  2
AcDbTableStyle
  3
ObjectDBX Classes
 90
     4095
 91
        1
280
     0
281
     0
  0
CLASS
  1
MLEADERSTYLE
  2
AcDbMLeaderStyle
  3
ACDB_MLEADERSTYLE_CLASS
 90
     4095
 91
        1
280
     0
281
     0
  0
CLASS
  1
ACDBSECTIONVIEWSTYLE
  2
AcDbSectionViewStyle
  3
ObjectDBX Classes
 90
     1025
 91
        1
280
     0
281
     0
  0
CLASS
  1
ACDBDETAILVIEWSTYLE
  2
AcDbDetailViewStyle
  3
ObjectDBX Classes
 90
     1025
 91
        1
280
     0
281
     0
  0
CLASS
  1
DICTIONARYVAR
  2
AcDbDictionaryVar
  3
ObjectDBX Classes
 90
        0
 91
        9
280
     0
281
     0
  0
CLASS
  1
CELLSTYLEMAP
  2
AcDbCellStyleMap
  3
ObjectDBX Classes
 90
     1152
 91
        1
280
     0
281
     0
  0
ENDSEC
  0
SECTION
  2
TABLES
  0
TABLE
  2
VPORT
  5
8
330
0
100
AcDbSymbolTable
 70
     1
  0
VPORT
  5
1AE
330
8
100
AcDbSymbolTableRecord
100
AcDbViewportTableRecord
  2
*Active
 70
     0
 10
0.0
 20
0.0
 11
1.0
 21
1.0
 12
-10.82114010207311
 22
57.22217585807036
 13
0.0
 23
0.0
 14
1.0
 24
1.0
 15
0.0
 25
0.0
 16
0.0
 26
0.0
 36
1.0
 17
0.0
 27
0.0
 37
0.0
 40
424.5138005089401
 41
2.25886524822695
 42
50.0
 43
0.0
 44
0.0
 50
0.0
 51
0.0
 71
     0
 72
  1000
 73
     1
 74
     3
 75
     1
 76
     1
 77
     0
 78
     0
281
     0
 65
     1
110
0.0
120
0.0
130
0.0
111
1.0
121
0.0
131
0.0
112
0.0
122
1.0
132
0.0
 79
     0
146
0.0
348
2F
 60
     3
 61
     5
292
     1
282
     1
141
0.0
142
0.0
 63
   250
421
  3355443
1001
ACAD_NAV_VCDISPLAY
1070
     1
  0
ENDTAB
  0
TABLE
  2
LTYPE
  5
5
330
0
100
AcDbSymbolTable
 70
     2
  0
LTYPE
  5
5A
330
5
100
AcDbSymbolTableRecord
100
AcDbLinetypeTableRecord
  2
ByBlock
 70
     0
  3

 72
    65
 73
     0
 40
0.0
  0
LTYPE
  5
5B
330
5
100
AcDbSymbolTableRecord
100
AcDbLinetypeTableRecord
  2
ByLayer
 70
     0
  3

 72
    65
 73
     0
 40
0.0
  0
LTYPE
  5
5C
330
5
100
AcDbSymbolTableRecord
100
AcDbLinetypeTableRecord
  2
Continuous
 70
     0
  3
Solid line
 72
    65
 73
     0
 40
0.0
  0
ENDTAB
  0
TABLE
  2
LAYER
  5
2
330
0
100
AcDbSymbolTable
 70
     1
  0
LAYER
  5
54
102
{ACAD_XDICTIONARY
360
1BD
102
}
330
2
100
AcDbSymbolTableRecord
100
AcDbLayerTableRecord
  2
0
 70
     0
 62
     7
  6
Continuous
370
    -3
390
F
347
21
348
0
  0
ENDTAB
  0
TABLE
  2
STYLE
  5
3
330
0
100
AcDbSymbolTable
 70
     2
  0
STYLE
  5
55
330
3
100
AcDbSymbolTableRecord
100
AcDbTextStyleTableRecord
  2
Standard
 70
     0
 40
0.0
 41
1.0
 50
0.0
 71
     0
 42
0.2
  3
txt
  4

  0
STYLE
  5
59
330
3
100
AcDbSymbolTableRecord
100
AcDbTextStyleTableRecord
  2
Annotative
 70
     0
 40
0.0
 41
1.0
 50
0.0
 71
     0
 42
0.2
  3
txt
  4

1001
AcadAnnotative
1000
AnnotativeData
1002
{
1070
     1
1070
     1
1002
}
  0
ENDTAB
  0
TABLE
  2
VIEW
  5
6
330
0
100
AcDbSymbolTable
 70
     0
  0
ENDTAB
  0
TABLE
  2
UCS
  5
7
330
0
100
AcDbSymbolTable
 70
     0
  0
ENDTAB
  0
TABLE
  2
APPID
  5
9
330
0
100
AcDbSymbolTable
 70
     4
  0
APPID
  5
56
330
9
100
AcDbSymbolTableRecord
100
AcDbRegAppTableRecord
  2
ACAD
 70
     0
  0
APPID
  5
5D
330
9
100
AcDbSymbolTableRecord
100
AcDbRegAppTableRecord
  2
AcadAnnotative
 70
     0
  0
APPID
  5
1AD
330
9
100
AcDbSymbolTableRecord
100
AcDbRegAppTableRecord
  2
ACAD_NAV_VCDISPLAY
 70
     0
  0
APPID
  5
1B0
330
9
100
AcDbSymbolTableRecord
100
AcDbRegAppTableRecord
  2
ACAD_EXEMPT_FROM_CAD_STANDARDS
 70
     0
  0
ENDTAB
  0
TABLE
  2
DIMSTYLE
  5
A
330
0
100
AcDbSymbolTable
 70
     3
100
AcDbDimStyleTable
 71
     1
340
57
  0
DIMSTYLE
105
57
330
A
100
AcDbSymbolTableRecord
100
AcDbDimStyleTableRecord
  2
Standard
 70
     0
340
55
  0
DIMSTYLE
105
58
330
A
100
AcDbSymbolTableRecord
100
AcDbDimStyleTableRecord
  2
Annotative
 70
     0
340
55
1001
AcadAnnotative
1000
AnnotativeData
1002
{
1070
     1
1070
     1
1002
}
  0
ENDTAB
  0
TABLE
  2
BLOCK_RECORD
  5
1
330
0
100
AcDbSymbolTable
 70
     1
  0
BLOCK_RECORD
  5
6F
330
1
100
AcDbSymbolTableRecord
100
AcDbBlockTableRecord
  2
*Model_Space
340
72
 70
     0
280
     1
281
     0
  0
BLOCK_RECORD
  5
6B
330
1
100
AcDbSymbolTableRecord
100
AcDbBlockTableRecord
  2
*Paper_Space
340
6E
 70
     0
280
     1
281
     0
  0
ENDTAB
  0
ENDSEC
  0
SECTION
  2
BLOCKS
  0
BLOCK
  5
70
330
6F
100
AcDbEntity
  8
0
100
AcDbBlockBegin
  2
*Model_Space
 70
     0
 10
0.0
 20
0.0
 30
0.0
  3
*Model_Space
  1

  0
ENDBLK
  5
71
330
6F
100
AcDbEntity
  8
0
100
AcDbBlockEnd
  0
BLOCK
  5
6C
330
6B
100
AcDbEntity
 67
     1
  8
0
100
AcDbBlockBegin
  2
*Paper_Space
 70
     0
 10
0.0
 20
0.0
 30
0.0
  3
*Paper_Space
  1

  0
ENDBLK
  5
6D
330
6B
100
AcDbEntity
 67
     1
  8
0
100
AcDbBlockEnd
  0
ENDSEC
  0
SECTION
  2
ENTITIES
  0
LINE
  5
73
102
{ACAD_REACTORS
330
1BC
102
}
330
6F
100
AcDbEntity
  8
0
100
AcDbLine
 10
87.72350000000001
 20
78.8652
 30
0.0
 11
90.84039999999999
 21
81.98210000000001
 31
0.0
  0
LINE
  5
74
102
{ACAD_REACTORS
330
1BC
102
}
330
6F
100
AcDbEntity
  8
0
100
AcDbLine
 10
90.84039999999999
 20
81.98210000000001
 30
0.0
 11
93.8466
 21
85.2058
 31
0.0
  0
LINE
  5
75
102
{ACAD_REACTORS
330
1BC
102
}
330
6F
100
AcDbEntity
  8
0
100
AcDbLine
 10
93.8466
 20
85.2058
 30
0.0
 11
96.7384
 21
88.5325
 31
0.0
  0
LINE
  5
76
102
{ACAD_REACTORS
330
1BC
102
}
330
6F
100
AcDbEntity
  8
0
100
AcDbLine
 10
96.7384
 20
88.5325
 30
0.0
 11
99.5124
 21
91.95809999999999
 31
0.0
  0
LINE
  5
77
102
{ACAD_REACTORS
330
1BC
102
}
330
6F
100
AcDbEntity
  8
0
100
AcDbLine
 10
99.5124
 20
91.95809999999999
 30
0.0
 11
102.165
 21
95.47830000000001
 31
0.0
  0
LINE
  5
78
102
{ACAD_REACTORS
330
1BC
102
}
330
6F
100
AcDbEntity
  8
0
100
AcDbLine
 10
102.165
 20
95.47830000000001
 30
0.0
 11
104.693
 21
99.0891
 31
0.0
  0
LINE
  5
79
102
{ACAD_REACTORS
330
1BC
102
}
330
6F
100
AcDbEntity
  8
0
100
AcDbLine
 10
104.693
 20
99.0891
 30
0.0
 11
107.094
 21
102.786
 31
0.0
  0
LINE
  5
7A
102
{ACAD_REACTORS
330
1BC
102
}
330
6F
100
AcDbEntity
  8
0
100
AcDbLine
 10
107.094
 20
102.786
 30
0.0
 11
109.364
 21
106.564
 31
0.0
  0
LINE
  5
7B
102
{ACAD_REACTORS
330
1BC
102
}
330
6F
100
AcDbEntity
  8
0
100
AcDbLine
 10
109.364
 20
106.564
 30
0.0
 11
111.501
 21
110.419
 31
0.0
  0
LINE
  5
7C
102
{ACAD_REACTORS
330
1BC
102
}
330
6F
100
AcDbEntity
  8
0
100
AcDbLine
 10
111.501
 20
110.419
 30
0.0
 11
113.502
 21
114.347
 31
0.0
  0
LINE
  5
7D
102
{ACAD_REACTORS
330
1BC
102
}
330
6F
100
AcDbEntity
  8
0
100
AcDbLine
 10
113.502
 20
114.347
 30
0.0
 11
115.114
 21
117.804
 31
0.0
  0
LINE
  5
7E
102
{ACAD_REACTORS
330
1BC
102
}
330
6F
100
AcDbEntity
  8
0
100
AcDbLine
 10
115.114
 20
117.804
 30
0.0
 11
115.215
 21
117.763
 31
0.0
  0
LINE
  5
7F
102
{ACAD_REACTORS
330
1BC
102
}
330
6F
100
AcDbEntity
  8
0
100
AcDbLine
 10
115.215
 20
117.763
 30
0.0
 11
118.961
 21
127.035
 31
0.0
  0
LINE
  5
80
102
{ACAD_REACTORS
330
1BC
102
}
330
6F
100
AcDbEntity
  8
0
100
AcDbLine
 10
118.961
 20
127.035
 30
0.0
 11
13.9233
 21
169.473
 31
0.0
  0
LINE
  5
81
102
{ACAD_REACTORS
330
1BC
102
}
330
6F
100
AcDbEntity
  8
0
100
AcDbLine
 10
13.9233
 20
169.473
 30
0.0
 11
13.9233
 21
171.169
 31
0.0
  0
LINE
  5
82
102
{ACAD_REACTORS
330
1BC
102
}
330
6F
100
AcDbEntity
  8
0
100
AcDbLine
 10
13.9233
 20
171.169
 30
0.0
 11
13.3148
 21
174.032
 31
0.0
  0
LINE
  5
83
102
{ACAD_REACTORS
330
1BC
102
}
330
6F
100
AcDbEntity
  8
0
100
AcDbLine
 10
13.3148
 20
174.032
 30
0.0
 11
12.1243
 21
176.706
 31
0.0
  0
LINE
  5
84
102
{ACAD_REACTORS
330
1BC
102
}
330
6F
100
AcDbEntity
  8
0
100
AcDbLine
 10
12.1243
 20
176.706
 30
0.0
 11
10.404
 21
179.073
 31
0.0
  0
LINE
  5
85
102
{ACAD_REACTORS
330
1BC
102
}
330
6F
100
AcDbEntity
  8
0
100
AcDbLine
 10
10.404
 20
179.073
 30
0.0
 11
8.228989999999999
 21
181.032
 31
0.0
  0
LINE
  5
86
102
{ACAD_REACTORS
330
1BC
102
}
330
6F
100
AcDbEntity
  8
0
100
AcDbLine
 10
8.228989999999999
 20
181.032
 30
0.0
 11
5.694309999999999
 21
182.495
 31
0.0
  0
LINE
  5
87
102
{ACAD_REACTORS
330
1BC
102
}
330
6F
100
AcDbEntity
  8
0
100
AcDbLine
 10
5.694309999999999
 20
182.495
 30
0.0
 11
2.91075
 21
183.4
 31
0.0
  0
LINE
  5
88
102
{ACAD_REACTORS
330
1BC
102
}
330
6F
100
AcDbEntity
  8
0
100
AcDbLine
 10
2.91075
 20
183.4
 30
0.0
 11
0.0
 21
183.706
 31
0.0
  0
LINE
  5
89
102
{ACAD_REACTORS
330
1BC
102
}
330
6F
100
AcDbEntity
  8
0
100
AcDbLine
 10
0.0
 20
183.706
 30
0.0
 11
-2.91075
 21
183.4
 31
0.0
  0
LINE
  5
8A
102
{ACAD_REACTORS
330
1BC
102
}
330
6F
100
AcDbEntity
  8
0
100
AcDbLine
 10
-2.91075
 20
183.4
 30
0.0
 11
-5.694309999999999
 21
182.495
 31
0.0
  0
LINE
  5
8B
102
{ACAD_REACTORS
330
1BC
102
}
330
6F
100
AcDbEntity
  8
0
100
AcDbLine
 10
-5.694309999999999
 20
182.495
 30
0.0
 11
-8.228989999999999
 21
181.032
 31
0.0
  0
LINE
  5
8C
102
{ACAD_REACTORS
330
1BC
102
}
330
6F
100
AcDbEntity
  8
0
100
AcDbLine
 10
-8.228989999999999
 20
181.032
 30
0.0
 11
-10.404
 21
179.073
 31
0.0
  0
LINE
  5
8D
102
{ACAD_REACTORS
330
1BC
102
}
330
6F
100
AcDbEntity
  8
0
100
AcDbLine
 10
-10.404
 20
179.073
 30
0.0
 11
-12.1243
 21
176.706
 31
0.0
  0
LINE
  5
8E
102
{ACAD_REACTORS
330
1BC
102
}
330
6F
100
AcDbEntity
  8
0
100
AcDbLine
 10
-12.1243
 20
176.706
 30
0.0
 11
-13.3148
 21
174.032
 31
0.0
  0
LINE
  5
8F
102
{ACAD_REACTORS
330
1BC
102
}
330
6F
100
AcDbEntity
  8
0
100
AcDbLine
 10
-13.3148
 20
174.032
 30
0.0
 11
-13.9233
 21
171.169
 31
0.0
  0
LINE
  5
90
102
{ACAD_REACTORS
330
1BC
102
}
330
6F
100
AcDbEntity
  8
0
100
AcDbLine
 10
-13.9233
 20
171.169
 30
0.0
 11
-13.9233
 21
169.473
 31
0.0
  0
LINE
  5
91
102
{ACAD_REACTORS
330
1BC
102
}
330
6F
100
AcDbEntity
  8
0
100
AcDbLine
 10
-13.9233
 20
169.473
 30
0.0
 11
-118.961
 21
127.035
 31
0.0
  0
LINE
  5
92
102
{ACAD_REACTORS
330
1BC
102
}
330
6F
100
AcDbEntity
  8
0
100
AcDbLine
 10
-118.961
 20
127.035
 30
0.0
 11
-115.215
 21
117.763
 31
0.0
  0
LINE
  5
93
102
{ACAD_REACTORS
330
1BC
102
}
330
6F
100
AcDbEntity
  8
0
100
AcDbLine
 10
-115.215
 20
117.763
 30
0.0
 11
-115.114
 21
117.804
 31
0.0
  0
LINE
  5
94
102
{ACAD_REACTORS
330
1BC
102
}
330
6F
100
AcDbEntity
  8
0
100
AcDbLine
 10
-115.114
 20
117.804
 30
0.0
 11
-113.502
 21
114.347
 31
0.0
  0
LINE
  5
95
102
{ACAD_REACTORS
330
1BC
102
}
330
6F
100
AcDbEntity
  8
0
100
AcDbLine
 10
-113.502
 20
114.347
 30
0.0
 11
-111.501
 21
110.419
 31
0.0
  0
LINE
  5
96
102
{ACAD_REACTORS
330
1BC
102
}
330
6F
100
AcDbEntity
  8
0
100
AcDbLine
 10
-111.501
 20
110.419
 30
0.0
 11
-109.364
 21
106.564
 31
0.0
  0
LINE
  5
97
102
{ACAD_REACTORS
330
1BC
102
}
330
6F
100
AcDbEntity
  8
0
100
AcDbLine
 10
-109.364
 20
106.564
 30
0.0
 11
-107.094
 21
102.786
 31
0.0
  0
LINE
  5
98
102
{ACAD_REACTORS
330
1BC
102
}
330
6F
100
AcDbEntity
  8
0
100
AcDbLine
 10
-107.094
 20
102.786
 30
0.0
 11
-104.693
 21
99.0891
 31
0.0
  0
LINE
  5
99
102
{ACAD_REACTORS
330
1BC
102
}
330
6F
100
AcDbEntity
  8
0
100
AcDbLine
 10
-104.693
 20
99.0891
 30
0.0
 11
-102.165
 21
95.47830000000001
 31
0.0
  0
LINE
  5
9A
102
{ACAD_REACTORS
330
1BC
102
}
330
6F
100
AcDbEntity
  8
0
100
AcDbLine
 10
-102.165
 20
95.47830000000001
 30
0.0
 11
-99.5124
 21
91.95809999999999
 31
0.0
  0
LINE
  5
9B
102
{ACAD_REACTORS
330
1BC
102
}
330
6F
100
AcDbEntity
  8
0
100
AcDbLine
 10
-99.5124
 20
91.95809999999999
 30
0.0
 11
-96.7384
 21
88.5325
 31
0.0
  0
LINE
  5
9C
102
{ACAD_REACTORS
330
1BC
102
}
330
6F
100
AcDbEntity
  8
0
100
AcDbLine
 10
-96.7384
 20
88.5325
 30
0.0
 11
-93.8466
 21
85.2058
 31
0.0
  0
LINE
  5
9D
102
{ACAD_REACTORS
330
1BC
102
}
330
6F
100
AcDbEntity
  8
0
100
AcDbLine
 10
-93.8466
 20
85.2058
 30
0.0
 11
-93.51739999999999
 21
84.85280000000001
 31
0.0
  0
LINE
  5
9E
102
{ACAD_REACTORS
330
1BC
102
}
330
6F
100
AcDbEntity
  8
0
100
AcDbLine
 10
-93.51739999999999
 20
84.85280000000001
 30
0.0
 11
-75.6951
 21
84.85280000000001
 31
0.0
  0
LINE
  5
9F
102
{ACAD_REACTORS
330
1BC
102
}
330
6F
100
AcDbEntity
  8
0
100
AcDbLine
 10
-75.6951
 20
84.85280000000001
 30
0.0
 11
-76.09149999999999
 21
85.1974
 31
0.0
  0
LINE
  5
A0
102
{ACAD_REACTORS
330
1BC
102
}
330
6F
100
AcDbEntity
  8
0
100
AcDbLine
 10
-76.09149999999999
 20
85.1974
 30
0.0
 11
-78.9945
 21
87.90449999999999
 31
0.0
  0
LINE
  5
A1
102
{ACAD_REACTORS
330
1BC
102
}
330
6F
100
AcDbEntity
  8
0
100
AcDbLine
 10
-78.9945
 20
87.90449999999999
 30
0.0
 11
-81.8012
 21
90.7112
 31
0.0
  0
LINE
  5
A2
102
{ACAD_REACTORS
330
1BC
102
}
330
6F
100
AcDbEntity
  8
0
100
AcDbLine
 10
-81.8012
 20
90.7112
 30
0.0
 11
-84.5082
 21
93.61409999999999
 31
0.0
  0
LINE
  5
A3
102
{ACAD_REACTORS
330
1BC
102
}
330
6F
100
AcDbEntity
  8
0
100
AcDbLine
 10
-84.5082
 20
93.61409999999999
 30
0.0
 11
-87.1123
 21
96.6097
 31
0.0
  0
LINE
  5
A4
102
{ACAD_REACTORS
330
1BC
102
}
330
6F
100
AcDbEntity
  8
0
100
AcDbLine
 10
-87.1123
 20
96.6097
 30
0.0
 11
-89.61020000000001
 21
99.6944
 31
0.0
  0
LINE
  5
A5
102
{ACAD_REACTORS
330
1BC
102
}
330
6F
100
AcDbEntity
  8
0
100
AcDbLine
 10
-89.61020000000001
 20
99.6944
 30
0.0
 11
-91.99899999999999
 21
102.864
 31
0.0
  0
LINE
  5
A6
102
{ACAD_REACTORS
330
1BC
102
}
330
6F
100
AcDbEntity
  8
0
100
AcDbLine
 10
-91.99899999999999
 20
102.864
 30
0.0
 11
-94.27570000000001
 21
106.116
 31
0.0
  0
LINE
  5
A7
102
{ACAD_REACTORS
330
1BC
102
}
330
6F
100
AcDbEntity
  8
0
100
AcDbLine
 10
-94.27570000000001
 20
106.116
 30
0.0
 11
-96.4375
 21
109.445
 31
0.0
  0
LINE
  5
A8
102
{ACAD_REACTORS
330
1BC
102
}
330
6F
100
AcDbEntity
  8
0
100
AcDbLine
 10
-96.4375
 20
109.445
 30
0.0
 11
-98.48180000000001
 21
112.847
 31
0.0
  0
LINE
  5
A9
102
{ACAD_REACTORS
330
1BC
102
}
330
6F
100
AcDbEntity
  8
0
100
AcDbLine
 10
-98.48180000000001
 20
112.847
 30
0.0
 11
-100.406
 21
116.319
 31
0.0
  0
LINE
  5
AA
102
{ACAD_REACTORS
330
1BC
102
}
330
6F
100
AcDbEntity
  8
0
100
AcDbLine
 10
-100.406
 20
116.319
 30
0.0
 11
-102.208
 21
119.855
 31
0.0
  0
LINE
  5
AB
102
{ACAD_REACTORS
330
1BC
102
}
330
6F
100
AcDbEntity
  8
0
100
AcDbLine
 10
-102.208
 20
119.855
 30
0.0
 11
-103.449
 21
122.517
 31
0.0
  0
LINE
  5
AC
102
{ACAD_REACTORS
330
1BC
102
}
330
6F
100
AcDbEntity
  8
0
100
AcDbLine
 10
-103.449
 20
122.517
 30
0.0
 11
-10.229
 21
160.18
 31
0.0
  0
LINE
  5
AD
102
{ACAD_REACTORS
330
1BC
102
}
330
6F
100
AcDbEntity
  8
0
100
AcDbLine
 10
-10.229
 20
160.18
 30
0.0
 11
-8.228989999999999
 21
158.379
 31
0.0
  0
LINE
  5
AE
102
{ACAD_REACTORS
330
1BC
102
}
330
6F
100
AcDbEntity
  8
0
100
AcDbLine
 10
-8.228989999999999
 20
158.379
 30
0.0
 11
-5.694309999999999
 21
156.916
 31
0.0
  0
LINE
  5
AF
102
{ACAD_REACTORS
330
1BC
102
}
330
6F
100
AcDbEntity
  8
0
100
AcDbLine
 10
-5.694309999999999
 20
156.916
 30
0.0
 11
-2.91075
 21
156.012
 31
0.0
  0
LINE
  5
B0
102
{ACAD_REACTORS
330
1BC
102
}
330
6F
100
AcDbEntity
  8
0
100
AcDbLine
 10
-2.91075
 20
156.012
 30
0.0
 11
0.0
 21
155.706
 31
0.0
  0
LINE
  5
B1
102
{ACAD_REACTORS
330
1BC
102
}
330
6F
100
AcDbEntity
  8
0
100
AcDbLine
 10
0.0
 20
155.706
 30
0.0
 11
2.91075
 21
156.012
 31
0.0
  0
LINE
  5
B2
102
{ACAD_REACTORS
330
1BC
102
}
330
6F
100
AcDbEntity
  8
0
100
AcDbLine
 10
2.91075
 20
156.012
 30
0.0
 11
5.694309999999999
 21
156.916
 31
0.0
  0
LINE
  5
B3
102
{ACAD_REACTORS
330
1BC
102
}
330
6F
100
AcDbEntity
  8
0
100
AcDbLine
 10
5.694309999999999
 20
156.916
 30
0.0
 11
8.228989999999999
 21
158.379
 31
0.0
  0
LINE
  5
B4
102
{ACAD_REACTORS
330
1BC
102
}
330
6F
100
AcDbEntity
  8
0
100
AcDbLine
 10
8.228989999999999
 20
158.379
 30
0.0
 11
10.229
 21
160.18
 31
0.0
  0
LINE
  5
B5
102
{ACAD_REACTORS
330
1BC
102
}
330
6F
100
AcDbEntity
  8
0
100
AcDbLine
 10
10.229
 20
160.18
 30
0.0
 11
103.449
 21
122.517
 31
0.0
  0
LINE
  5
B6
102
{ACAD_REACTORS
330
1BC
102
}
330
6F
100
AcDbEntity
  8
0
100
AcDbLine
 10
103.449
 20
122.517
 30
0.0
 11
102.208
 21
119.855
 31
0.0
  0
LINE
  5
B7
102
{ACAD_REACTORS
330
1BC
102
}
330
6F
100
AcDbEntity
  8
0
100
AcDbLine
 10
102.208
 20
119.855
 30
0.0
 11
100.406
 21
116.319
 31
0.0
  0
LINE
  5
B8
102
{ACAD_REACTORS
330
1BC
102
}
330
6F
100
AcDbEntity
  8
0
100
AcDbLine
 10
100.406
 20
116.319
 30
0.0
 11
98.48180000000001
 21
112.847
 31
0.0
  0
LINE
  5
B9
102
{ACAD_REACTORS
330
1BC
102
}
330
6F
100
AcDbEntity
  8
0
100
AcDbLine
 10
98.48180000000001
 20
112.847
 30
0.0
 11
96.4375
 21
109.445
 31
0.0
  0
LINE
  5
BA
102
{ACAD_REACTORS
330
1BC
102
}
330
6F
100
AcDbEntity
  8
0
100
AcDbLine
 10
96.4375
 20
109.445
 30
0.0
 11
94.27570000000001
 21
106.116
 31
0.0
  0
LINE
  5
BB
102
{ACAD_REACTORS
330
1BC
102
}
330
6F
100
AcDbEntity
  8
0
100
AcDbLine
 10
94.27570000000001
 20
106.116
 30
0.0
 11
91.99899999999999
 21
102.864
 31
0.0
  0
LINE
  5
BC
102
{ACAD_REACTORS
330
1BC
102
}
330
6F
100
AcDbEntity
  8
0
100
AcDbLine
 10
91.99899999999999
 20
102.864
 30
0.0
 11
89.61020000000001
 21
99.6944
 31
0.0
  0
LINE
  5
BD
102
{ACAD_REACTORS
330
1BC
102
}
330
6F
100
AcDbEntity
  8
0
100
AcDbLine
 10
89.61020000000001
 20
99.6944
 30
0.0
 11
87.1123
 21
96.6097
 31
0.0
  0
LINE
  5
BE
102
{ACAD_REACTORS
330
1BC
102
}
330
6F
100
AcDbEntity
  8
0
100
AcDbLine
 10
87.1123
 20
96.6097
 30
0.0
 11
84.85280000000001
 21
94.01049999999999
 31
0.0
  0
LINE
  5
BF
102
{ACAD_REACTORS
330
1BC
102
}
330
6F
100
AcDbEntity
  8
0
100
AcDbLine
 10
84.85280000000001
 20
94.01049999999999
 30
0.0
 11
84.85280000000001
 21
76.18819999999999
 31
0.0
  0
LINE
  5
C0
102
{ACAD_REACTORS
330
1BC
102
}
330
6F
100
AcDbEntity
  8
0
100
AcDbLine
 10
84.85280000000001
 20
76.18819999999999
 30
0.0
 11
87.72350000000001
 21
78.8652
 31
0.0
  0
LINE
  5
C1
102
{ACAD_REACTORS
330
1BC
102
}
330
6F
100
AcDbEntity
  8
0
100
AcDbLine
 10
-0.935593
 20
165.304
 30
0.0
 11
-1.830309999999999
 21
165.595
 31
0.0
  0
LINE
  5
C2
102
{ACAD_REACTORS
330
1BC
102
}
330
6F
100
AcDbEntity
  8
0
100
AcDbLine
 10
-1.830309999999999
 20
165.595
 30
0.0
 11
-2.64502
 21
166.065
 31
0.0
  0
LINE
  5
C3
102
{ACAD_REACTORS
330
1BC
102
}
330
6F
100
AcDbEntity
  8
0
100
AcDbLine
 10
-2.64502
 20
166.065
 30
0.0
 11
-3.344149999999999
 21
166.695
 31
0.0
  0
LINE
  5
C4
102
{ACAD_REACTORS
330
1BC
102
}
330
6F
100
AcDbEntity
  8
0
100
AcDbLine
 10
-3.344149999999999
 20
166.695
 30
0.0
 11
-3.897109999999999
 21
167.456
 31
0.0
  0
LINE
  5
C5
102
{ACAD_REACTORS
330
1BC
102
}
330
6F
100
AcDbEntity
  8
0
100
AcDbLine
 10
-3.897109999999999
 20
167.456
 30
0.0
 11
-4.27974
 21
168.315
 31
0.0
  0
LINE
  5
C6
102
{ACAD_REACTORS
330
1BC
102
}
330
6F
100
AcDbEntity
  8
0
100
AcDbLine
 10
-4.27974
 20
168.315
 30
0.0
 11
-4.47534
 21
169.235
 31
0.0
  0
LINE
  5
C7
102
{ACAD_REACTORS
330
1BC
102
}
330
6F
100
AcDbEntity
  8
0
100
AcDbLine
 10
-4.47534
 20
169.235
 30
0.0
 11
-4.47534
 21
170.176
 31
0.0
  0
LINE
  5
C8
102
{ACAD_REACTORS
330
1BC
102
}
330
6F
100
AcDbEntity
  8
0
100
AcDbLine
 10
-4.47534
 20
170.176
 30
0.0
 11
-4.27974
 21
171.096
 31
0.0
  0
LINE
  5
C9
102
{ACAD_REACTORS
330
1BC
102
}
330
6F
100
AcDbEntity
  8
0
100
AcDbLine
 10
-4.27974
 20
171.096
 30
0.0
 11
-3.897109999999999
 21
171.956
 31
0.0
  0
LINE
  5
CA
102
{ACAD_REACTORS
330
1BC
102
}
330
6F
100
AcDbEntity
  8
0
100
AcDbLine
 10
-3.897109999999999
 20
171.956
 30
0.0
 11
-3.344149999999999
 21
172.717
 31
0.0
  0
LINE
  5
CB
102
{ACAD_REACTORS
330
1BC
102
}
330
6F
100
AcDbEntity
  8
0
100
AcDbLine
 10
-3.344149999999999
 20
172.717
 30
0.0
 11
-2.64502
 21
173.346
 31
0.0
  0
LINE
  5
CC
102
{ACAD_REACTORS
330
1BC
102
}
330
6F
100
AcDbEntity
  8
0
100
AcDbLine
 10
-2.64502
 20
173.346
 30
0.0
 11
-1.830309999999999
 21
173.817
 31
0.0
  0
LINE
  5
CD
102
{ACAD_REACTORS
330
1BC
102
}
330
6F
100
AcDbEntity
  8
0
100
AcDbLine
 10
-1.830309999999999
 20
173.817
 30
0.0
 11
-0.935593
 21
174.107
 31
0.0
  0
LINE
  5
CE
102
{ACAD_REACTORS
330
1BC
102
}
330
6F
100
AcDbEntity
  8
0
100
AcDbLine
 10
-0.935593
 20
174.107
 30
0.0
 11
0.0
 21
174.206
 31
0.0
  0
LINE
  5
CF
102
{ACAD_REACTORS
330
1BC
102
}
330
6F
100
AcDbEntity
  8
0
100
AcDbLine
 10
0.0
 20
174.206
 30
0.0
 11
0.935593
 21
174.107
 31
0.0
  0
LINE
  5
D0
102
{ACAD_REACTORS
330
1BC
102
}
330
6F
100
AcDbEntity
  8
0
100
AcDbLine
 10
0.935593
 20
174.107
 30
0.0
 11
1.830309999999999
 21
173.817
 31
0.0
  0
LINE
  5
D1
102
{ACAD_REACTORS
330
1BC
102
}
330
6F
100
AcDbEntity
  8
0
100
AcDbLine
 10
1.830309999999999
 20
173.817
 30
0.0
 11
2.64502
 21
173.346
 31
0.0
  0
LINE
  5
D2
102
{ACAD_REACTORS
330
1BC
102
}
330
6F
100
AcDbEntity
  8
0
100
AcDbLine
 10
2.64502
 20
173.346
 30
0.0
 11
3.344149999999999
 21
172.717
 31
0.0
  0
LINE
  5
D3
102
{ACAD_REACTORS
330
1BC
102
}
330
6F
100
AcDbEntity
  8
0
100
AcDbLine
 10
3.344149999999999
 20
172.717
 30
0.0
 11
3.897109999999999
 21
171.956
 31
0.0
  0
LINE
  5
D4
102
{ACAD_REACTORS
330
1BC
102
}
330
6F
100
AcDbEntity
  8
0
100
AcDbLine
 10
3.897109999999999
 20
171.956
 30
0.0
 11
4.27974
 21
171.096
 31
0.0
  0
LINE
  5
D5
102
{ACAD_REACTORS
330
1BC
102
}
330
6F
100
AcDbEntity
  8
0
100
AcDbLine
 10
4.27974
 20
171.096
 30
0.0
 11
4.47534
 21
170.176
 31
0.0
  0
LINE
  5
D6
102
{ACAD_REACTORS
330
1BC
102
}
330
6F
100
AcDbEntity
  8
0
100
AcDbLine
 10
4.47534
 20
170.176
 30
0.0
 11
4.47534
 21
169.235
 31
0.0
  0
LINE
  5
D7
102
{ACAD_REACTORS
330
1BC
102
}
330
6F
100
AcDbEntity
  8
0
100
AcDbLine
 10
4.47534
 20
169.235
 30
0.0
 11
4.27974
 21
168.315
 31
0.0
  0
LINE
  5
D8
102
{ACAD_REACTORS
330
1BC
102
}
330
6F
100
AcDbEntity
  8
0
100
AcDbLine
 10
4.27974
 20
168.315
 30
0.0
 11
3.897109999999999
 21
167.456
 31
0.0
  0
LINE
  5
D9
102
{ACAD_REACTORS
330
1BC
102
}
330
6F
100
AcDbEntity
  8
0
100
AcDbLine
 10
3.897109999999999
 20
167.456
 30
0.0
 11
3.344149999999999
 21
166.695
 31
0.0
  0
LINE
  5
DA
102
{ACAD_REACTORS
330
1BC
102
}
330
6F
100
AcDbEntity
  8
0
100
AcDbLine
 10
3.344149999999999
 20
166.695
 30
0.0
 11
2.64502
 21
166.065
 31
0.0
  0
LINE
  5
DB
102
{ACAD_REACTORS
330
1BC
102
}
330
6F
100
AcDbEntity
  8
0
100
AcDbLine
 10
2.64502
 20
166.065
 30
0.0
 11
1.830309999999999
 21
165.595
 31
0.0
  0
LINE
  5
DC
102
{ACAD_REACTORS
330
1BC
102
}
330
6F
100
AcDbEntity
  8
0
100
AcDbLine
 10
1.830309999999999
 20
165.595
 30
0.0
 11
0.935593
 21
165.304
 31
0.0
  0
LINE
  5
DD
102
{ACAD_REACTORS
330
1BC
102
}
330
6F
100
AcDbEntity
  8
0
100
AcDbLine
 10
0.935593
 20
165.304
 30
0.0
 11
0.0
 21
165.206
 31
0.0
  0
LINE
  5
DE
102
{ACAD_REACTORS
330
1BC
102
}
330
6F
100
AcDbEntity
  8
0
100
AcDbLine
 10
0.0
 20
165.206
 30
0.0
 11
-0.935593
 21
165.304
 31
0.0
  0
LINE
  5
DF
102
{ACAD_REACTORS
330
1BC
102
}
330
6F
100
AcDbEntity
  8
0
100
AcDbLine
 10
9.0762
 20
-87.09700000000001
 30
0.0
 11
15.281
 21
-86.66310000000001
 31
0.0
  0
LINE
  5
E0
102
{ACAD_REACTORS
330
1BC
102
}
330
6F
100
AcDbEntity
  8
0
100
AcDbLine
 10
15.281
 20
-86.66310000000001
 30
0.0
 11
20.8378
 21
-85.0697
 31
0.0
  0
LINE
  5
E1
102
{ACAD_REACTORS
330
1BC
102
}
330
6F
100
AcDbEntity
  8
0
100
AcDbLine
 10
20.8378
 20
-85.0697
 30
0.0
 11
20.8378
 21
-118.177
 31
0.0
  0
LINE
  5
E2
102
{ACAD_REACTORS
330
1BC
102
}
330
6F
100
AcDbEntity
  8
0
100
AcDbLine
 10
20.8378
 20
-118.177
 30
0.0
 11
26.9863
 21
-83.30659999999999
 31
0.0
  0
LINE
  5
E3
102
{ACAD_REACTORS
330
1BC
102
}
330
6F
100
AcDbEntity
  8
0
100
AcDbLine
 10
26.9863
 20
-83.30659999999999
 30
0.0
 11
32.9654
 21
-81.59220000000001
 31
0.0
  0
LINE
  5
E4
102
{ACAD_REACTORS
330
1BC
102
}
330
6F
100
AcDbEntity
  8
0
100
AcDbLine
 10
32.9654
 20
-81.59220000000001
 30
0.0
 11
38.0694
 21
-78.8783
 31
0.0
  0
LINE
  5
E5
102
{ACAD_REACTORS
330
1BC
102
}
330
6F
100
AcDbEntity
  8
0
100
AcDbLine
 10
38.0694
 20
-78.8783
 30
0.0
 11
44.9528
 21
-111.262
 31
0.0
  0
LINE
  5
E6
102
{ACAD_REACTORS
330
1BC
102
}
330
6F
100
AcDbEntity
  8
0
100
AcDbLine
 10
44.9528
 20
-111.262
 30
0.0
 11
43.7171
 21
-75.8754
 31
0.0
  0
LINE
  5
E7
102
{ACAD_REACTORS
330
1BC
102
}
330
6F
100
AcDbEntity
  8
0
100
AcDbLine
 10
43.7171
 20
-75.8754
 30
0.0
 11
49.20899999999999
 21
-72.95529999999999
 31
0.0
  0
LINE
  5
E8
102
{ACAD_REACTORS
330
1BC
102
}
330
6F
100
AcDbEntity
  8
0
100
AcDbLine
 10
49.20899999999999
 20
-72.95529999999999
 30
0.0
 11
53.6372
 21
-69.23950000000001
 31
0.0
  0
LINE
  5
E9
102
{ACAD_REACTORS
330
1BC
102
}
330
6F
100
AcDbEntity
  8
0
100
AcDbLine
 10
53.6372
 20
-69.23950000000001
 30
0.0
 11
67.10309999999999
 21
-99.48450000000001
 31
0.0
  0
LINE
  5
EA
102
{ACAD_REACTORS
330
1BC
102
}
330
6F
100
AcDbEntity
  8
0
100
AcDbLine
 10
67.10309999999999
 20
-99.48450000000001
 30
0.0
 11
58.5371
 21
-65.1281
 31
0.0
  0
LINE
  5
EB
102
{ACAD_REACTORS
330
1BC
102
}
330
6F
100
AcDbEntity
  8
0
100
AcDbLine
 10
58.5371
 20
-65.1281
 30
0.0
 11
63.3019
 21
-61.12989999999999
 31
0.0
  0
LINE
  5
EC
102
{ACAD_REACTORS
330
1BC
102
}
330
6F
100
AcDbEntity
  8
0
100
AcDbLine
 10
63.3019
 20
-61.12989999999999
 30
0.0
 11
66.8608
 21
-56.57469999999999
 31
0.0
  0
LINE
  5
ED
102
{ACAD_REACTORS
330
1BC
102
}
330
6F
100
AcDbEntity
  8
0
100
AcDbLine
 10
66.8608
 20
-56.57469999999999
 30
0.0
 11
86.3208
 21
-83.359
 31
0.0
  0
LINE
  5
EE
102
{ACAD_REACTORS
330
1BC
102
}
330
6F
100
AcDbEntity
  8
0
100
AcDbLine
 10
86.3208
 20
-83.359
 30
0.0
 11
70.7988
 21
-51.5343
 31
0.0
  0
LINE
  5
EF
102
{ACAD_REACTORS
330
1BC
102
}
330
6F
100
AcDbEntity
  8
0
100
AcDbLine
 10
70.7988
 20
-51.5343
 30
0.0
 11
74.6282
 21
-46.63289999999999
 31
0.0
  0
LINE
  5
F0
102
{ACAD_REACTORS
330
1BC
102
}
330
6F
100
AcDbEntity
  8
0
100
AcDbLine
 10
74.6282
 20
-46.63289999999999
 30
0.0
 11
77.1623
 21
-41.4373
 31
0.0
  0
LINE
  5
F1
102
{ACAD_REACTORS
330
1BC
102
}
330
6F
100
AcDbEntity
  8
0
100
AcDbLine
 10
77.1623
 20
-41.4373
 30
0.0
 11
101.766
 21
-63.5903
 31
0.0
  0
LINE
  5
F2
102
{ACAD_REACTORS
330
1BC
102
}
330
6F
100
AcDbEntity
  8
0
100
AcDbLine
 10
101.766
 20
-63.5903
 30
0.0
 11
79.9663
 21
-35.6882
 31
0.0
  0
LINE
  5
F3
102
{ACAD_REACTORS
330
1BC
102
}
330
6F
100
AcDbEntity
  8
0
100
AcDbLine
 10
79.9663
 20
-35.6882
 30
0.0
 11
82.69289999999999
 21
-30.0978
 31
0.0
  0
LINE
  5
F4
102
{ACAD_REACTORS
330
1BC
102
}
330
6F
100
AcDbEntity
  8
0
100
AcDbLine
 10
82.69289999999999
 20
-30.0978
 30
0.0
 11
84.09139999999998
 21
-24.4888
 31
0.0
  0
LINE
  5
F5
102
{ACAD_REACTORS
330
1BC
102
}
330
6F
100
AcDbEntity
  8
0
100
AcDbLine
 10
84.09139999999998
 20
-24.4888
 30
0.0
 11
112.763
 21
-41.04239999999999
 31
0.0
  0
LINE
  5
F6
102
{ACAD_REACTORS
330
1BC
102
}
330
6F
100
AcDbEntity
  8
0
100
AcDbLine
 10
112.763
 20
-41.04239999999999
 30
0.0
 11
85.63880000000001
 21
-18.2824
 31
0.0
  0
LINE
  5
F7
102
{ACAD_REACTORS
330
1BC
102
}
330
6F
100
AcDbEntity
  8
0
100
AcDbLine
 10
85.63880000000001
 20
-18.2824
 30
0.0
 11
87.1436
 21
-12.2472
 31
0.0
  0
LINE
  5
F8
102
{ACAD_REACTORS
330
1BC
102
}
330
6F
100
AcDbEntity
  8
0
100
AcDbLine
 10
87.1436
 20
-12.2472
 30
0.0
 11
87.34529999999999
 21
-6.47008
 31
0.0
  0
LINE
  5
F9
102
{ACAD_REACTORS
330
1BC
102
}
330
6F
100
AcDbEntity
  8
0
100
AcDbLine
 10
87.34529999999999
 20
-6.47008
 30
0.0
 11
118.832
 21
-16.7008
 31
0.0
  0
LINE
  5
FA
102
{ACAD_REACTORS
330
1BC
102
}
330
6F
100
AcDbEntity
  8
0
100
AcDbLine
 10
118.832
 20
-16.7008
 30
0.0
 11
87.56860000000001
 21
-0.0776062
 31
0.0
  0
LINE
  5
FB
102
{ACAD_REACTORS
330
1BC
102
}
330
6F
100
AcDbEntity
  8
0
100
AcDbLine
 10
87.56860000000001
 20
-0.0776062
 30
0.0
 11
87.7856
 21
6.138569999999999
 31
0.0
  0
LINE
  5
FC
102
{ACAD_REACTORS
330
1BC
102
}
330
6F
100
AcDbEntity
  8
0
100
AcDbLine
 10
87.7856
 20
6.138569999999999
 30
0.0
 11
86.78180000000001
 21
11.8314
 31
0.0
  0
LINE
  5
FD
102
{ACAD_REACTORS
330
1BC
102
}
330
6F
100
AcDbEntity
  8
0
100
AcDbLine
 10
86.78180000000001
 20
11.8314
 30
0.0
 11
119.708
 21
8.37077
 31
0.0
  0
LINE
  5
FE
102
{ACAD_REACTORS
330
1BC
102
}
330
6F
100
AcDbEntity
  8
0
100
AcDbLine
 10
119.708
 20
8.37077
 30
0.0
 11
85.67109999999999
 21
18.1306
 31
0.0
  0
LINE
  5
FF
102
{ACAD_REACTORS
330
1BC
102
}
330
6F
100
AcDbEntity
  8
0
100
AcDbLine
 10
85.67109999999999
 20
18.1306
 30
0.0
 11
84.59100000000001
 21
24.2561
 31
0.0
  0
LINE
  5
100
102
{ACAD_REACTORS
330
1BC
102
}
330
6F
100
AcDbEntity
  8
0
100
AcDbLine
 10
84.59100000000001
 20
24.2561
 30
0.0
 11
82.4256
 21
29.6158
 31
0.0
  0
LINE
  5
101
102
{ACAD_REACTORS
330
1BC
102
}
330
6F
100
AcDbEntity
  8
0
100
AcDbLine
 10
82.4256
 20
29.6158
 30
0.0
 11
115.351
 21
33.07650000000001
 31
0.0
  0
LINE
  5
102
102
{ACAD_REACTORS
330
1BC
102
}
330
6F
100
AcDbEntity
  8
0
100
AcDbLine
 10
115.351
 20
33.07650000000001
 30
0.0
 11
80.0294
 21
35.5464
 31
0.0
  0
LINE
  5
103
102
{ACAD_REACTORS
330
1BC
102
}
330
6F
100
AcDbEntity
  8
0
100
AcDbLine
 10
80.0294
 20
35.5464
 30
0.0
 11
77.6994
 21
41.3135
 31
0.0
  0
LINE
  5
104
102
{ACAD_REACTORS
330
1BC
102
}
330
6F
100
AcDbEntity
  8
0
100
AcDbLine
 10
77.6994
 20
41.3135
 30
0.0
 11
74.4669
 21
46.1059
 31
0.0
  0
LINE
  5
105
102
{ACAD_REACTORS
330
1BC
102
}
330
6F
100
AcDbEntity
  8
0
100
AcDbLine
 10
74.4669
 20
46.1059
 30
0.0
 11
105.954
 21
56.33659999999999
 31
0.0
  0
LINE
  5
106
102
{ACAD_REACTORS
330
1BC
102
}
330
6F
100
AcDbEntity
  8
0
100
AcDbLine
 10
105.954
 20
56.33659999999999
 30
0.0
 11
70.8901
 21
51.4087
 31
0.0
  0
LINE
  5
107
102
{ACAD_REACTORS
330
1BC
102
}
330
6F
100
AcDbEntity
  8
0
100
AcDbLine
 10
70.8901
 20
51.4087
 30
0.0
 11
67.4119
 21
56.5653
 31
0.0
  0
LINE
  5
108
102
{ACAD_REACTORS
330
1BC
102
}
330
6F
100
AcDbEntity
  8
0
100
AcDbLine
 10
67.4119
 20
56.5653
 30
0.0
 11
63.25359999999999
 21
60.58089999999999
 31
0.0
  0
LINE
  5
109
102
{ACAD_REACTORS
330
1BC
102
}
330
6F
100
AcDbEntity
  8
0
100
AcDbLine
 10
63.25359999999999
 20
60.58089999999999
 30
0.0
 11
91.92529999999999
 21
77.1345
 31
0.0
  0
LINE
  5
10A
102
{ACAD_REACTORS
330
1BC
102
}
330
6F
100
AcDbEntity
  8
0
100
AcDbLine
 10
91.92529999999999
 20
77.1345
 30
0.0
 11
58.6525
 21
65.02419999999999
 31
0.0
  0
LINE
  5
10B
102
{ACAD_REACTORS
330
1BC
102
}
330
6F
100
AcDbEntity
  8
0
100
AcDbLine
 10
58.6525
 20
65.02419999999999
 30
0.0
 11
54.17819999999999
 21
69.3449
 31
0.0
  0
LINE
  5
10C
102
{ACAD_REACTORS
330
1BC
102
}
330
6F
100
AcDbEntity
  8
0
100
AcDbLine
 10
54.17819999999999
 20
69.3449
 30
0.0
 11
49.2759
 21
72.40819999999999
 31
0.0
  0
LINE
  5
10D
102
{ACAD_REACTORS
330
1BC
102
}
330
6F
100
AcDbEntity
  8
0
100
AcDbLine
 10
49.2759
 20
72.40819999999999
 30
0.0
 11
73.8794
 21
94.56129999999999
 31
0.0
  0
LINE
  5
10E
102
{ACAD_REACTORS
330
1BC
102
}
330
6F
100
AcDbEntity
  8
0
100
AcDbLine
 10
73.8794
 20
94.56129999999999
 30
0.0
 11
43.8515
 21
75.79779999999999
 31
0.0
  0
LINE
  5
10F
102
{ACAD_REACTORS
330
1BC
102
}
330
6F
100
AcDbEntity
  8
0
100
AcDbLine
 10
43.8515
 20
75.79779999999999
 30
0.0
 11
38.5767
 21
79.09390000000001
 31
0.0
  0
LINE
  5
110
102
{ACAD_REACTORS
330
1BC
102
}
330
6F
100
AcDbEntity
  8
0
100
AcDbLine
 10
38.5767
 20
79.09390000000001
 30
0.0
 11
33.1446
 21
81.071
 31
0.0
  0
LINE
  5
111
102
{ACAD_REACTORS
330
1BC
102
}
330
6F
100
AcDbEntity
  8
0
100
AcDbLine
 10
33.1446
 20
81.071
 30
0.0
 11
52.6045
 21
107.855
 31
0.0
  0
LINE
  5
112
102
{ACAD_REACTORS
330
1BC
102
}
330
6F
100
AcDbEntity
  8
0
100
AcDbLine
 10
52.6045
 20
107.855
 30
0.0
 11
27.134
 21
83.2587
 31
0.0
  0
LINE
  5
113
102
{ACAD_REACTORS
330
1BC
102
}
330
6F
100
AcDbEntity
  8
0
100
AcDbLine
 10
27.134
 20
83.2587
 30
0.0
 11
21.2891
 21
85.386
 31
0.0
  0
LINE
  5
114
102
{ACAD_REACTORS
330
1BC
102
}
330
6F
100
AcDbEntity
  8
0
100
AcDbLine
 10
21.2891
 20
85.386
 30
0.0
 11
15.5647
 21
86.19049999999999
 31
0.0
  0
LINE
  5
115
102
{ACAD_REACTORS
330
1BC
102
}
330
6F
100
AcDbEntity
  8
0
100
AcDbLine
 10
15.5647
 20
86.19049999999999
 30
0.0
 11
29.0306
 21
116.435
 31
0.0
  0
LINE
  5
116
102
{ACAD_REACTORS
330
1BC
102
}
330
6F
100
AcDbEntity
  8
0
100
AcDbLine
 10
29.0306
 20
116.435
 30
0.0
 11
9.230589999999999
 21
87.08069999999999
 31
0.0
  0
LINE
  5
117
102
{ACAD_REACTORS
330
1BC
102
}
330
6F
100
AcDbEntity
  8
0
100
AcDbLine
 10
9.230589999999999
 20
87.08069999999999
 30
0.0
 11
3.071149999999999
 21
87.94639999999999
 31
0.0
  0
LINE
  5
118
102
{ACAD_REACTORS
330
1BC
102
}
330
6F
100
AcDbEntity
  8
0
100
AcDbLine
 10
3.071149999999999
 20
87.94639999999999
 30
0.0
 11
-2.695429999999999
 21
87.54319999999999
 31
0.0
  0
LINE
  5
119
102
{ACAD_REACTORS
330
1BC
102
}
330
6F
100
AcDbEntity
  8
0
100
AcDbLine
 10
-2.695429999999999
 20
87.54319999999999
 30
0.0
 11
4.18793
 21
119.927
 31
0.0
  0
LINE
  5
11A
102
{ACAD_REACTORS
330
1BC
102
}
330
6F
100
AcDbEntity
  8
0
100
AcDbLine
 10
4.18793
 20
119.927
 30
0.0
 11
-9.0762
 21
87.09700000000001
 31
0.0
  0
LINE
  5
11B
102
{ACAD_REACTORS
330
1BC
102
}
330
6F
100
AcDbEntity
  8
0
100
AcDbLine
 10
-9.0762
 20
87.09700000000001
 30
0.0
 11
-15.281
 21
86.66310000000001
 31
0.0
  0
LINE
  5
11C
102
{ACAD_REACTORS
330
1BC
102
}
330
6F
100
AcDbEntity
  8
0
100
AcDbLine
 10
-15.281
 20
86.66310000000001
 30
0.0
 11
-20.8378
 21
85.0697
 31
0.0
  0
LINE
  5
11D
102
{ACAD_REACTORS
330
1BC
102
}
330
6F
100
AcDbEntity
  8
0
100
AcDbLine
 10
-20.8378
 20
85.0697
 30
0.0
 11
-20.8378
 21
118.177
 31
0.0
  0
LINE
  5
11E
102
{ACAD_REACTORS
330
1BC
102
}
330
6F
100
AcDbEntity
  8
0
100
AcDbLine
 10
-20.8378
 20
118.177
 30
0.0
 11
-26.9863
 21
83.30659999999999
 31
0.0
  0
LINE
  5
11F
102
{ACAD_REACTORS
330
1BC
102
}
330
6F
100
AcDbEntity
  8
0
100
AcDbLine
 10
-26.9863
 20
83.30659999999999
 30
0.0
 11
-32.9654
 21
81.59220000000001
 31
0.0
  0
LINE
  5
120
102
{ACAD_REACTORS
330
1BC
102
}
330
6F
100
AcDbEntity
  8
0
100
AcDbLine
 10
-32.9654
 20
81.59220000000001
 30
0.0
 11
-38.0694
 21
78.8783
 31
0.0
  0
LINE
  5
121
102
{ACAD_REACTORS
330
1BC
102
}
330
6F
100
AcDbEntity
  8
0
100
AcDbLine
 10
-38.0694
 20
78.8783
 30
0.0
 11
-44.9528
 21
111.262
 31
0.0
  0
LINE
  5
122
102
{ACAD_REACTORS
330
1BC
102
}
330
6F
100
AcDbEntity
  8
0
100
AcDbLine
 10
-44.9528
 20
111.262
 30
0.0
 11
-43.7171
 21
75.8754
 31
0.0
  0
LINE
  5
123
102
{ACAD_REACTORS
330
1BC
102
}
330
6F
100
AcDbEntity
  8
0
100
AcDbLine
 10
-43.7171
 20
75.8754
 30
0.0
 11
-49.20899999999999
 21
72.95529999999999
 31
0.0
  0
LINE
  5
124
102
{ACAD_REACTORS
330
1BC
102
}
330
6F
100
AcDbEntity
  8
0
100
AcDbLine
 10
-49.20899999999999
 20
72.95529999999999
 30
0.0
 11
-53.6372
 21
69.23950000000001
 31
0.0
  0
LINE
  5
125
102
{ACAD_REACTORS
330
1BC
102
}
330
6F
100
AcDbEntity
  8
0
100
AcDbLine
 10
-53.6372
 20
69.23950000000001
 30
0.0
 11
-67.10309999999999
 21
99.48450000000001
 31
0.0
  0
LINE
  5
126
102
{ACAD_REACTORS
330
1BC
102
}
330
6F
100
AcDbEntity
  8
0
100
AcDbLine
 10
-67.10309999999999
 20
99.48450000000001
 30
0.0
 11
-58.5371
 21
65.1281
 31
0.0
  0
LINE
  5
127
102
{ACAD_REACTORS
330
1BC
102
}
330
6F
100
AcDbEntity
  8
0
100
AcDbLine
 10
-58.5371
 20
65.1281
 30
0.0
 11
-63.3019
 21
61.12989999999999
 31
0.0
  0
LINE
  5
128
102
{ACAD_REACTORS
330
1BC
102
}
330
6F
100
AcDbEntity
  8
0
100
AcDbLine
 10
-63.3019
 20
61.12989999999999
 30
0.0
 11
-66.8608
 21
56.57469999999999
 31
0.0
  0
LINE
  5
129
102
{ACAD_REACTORS
330
1BC
102
}
330
6F
100
AcDbEntity
  8
0
100
AcDbLine
 10
-66.8608
 20
56.57469999999999
 30
0.0
 11
-86.3208
 21
83.359
 31
0.0
  0
LINE
  5
12A
102
{ACAD_REACTORS
330
1BC
102
}
330
6F
100
AcDbEntity
  8
0
100
AcDbLine
 10
-86.3208
 20
83.359
 30
0.0
 11
-70.7988
 21
51.5343
 31
0.0
  0
LINE
  5
12B
102
{ACAD_REACTORS
330
1BC
102
}
330
6F
100
AcDbEntity
  8
0
100
AcDbLine
 10
-70.7988
 20
51.5343
 30
0.0
 11
-74.6282
 21
46.63289999999999
 31
0.0
  0
LINE
  5
12C
102
{ACAD_REACTORS
330
1BC
102
}
330
6F
100
AcDbEntity
  8
0
100
AcDbLine
 10
-74.6282
 20
46.63289999999999
 30
0.0
 11
-77.1623
 21
41.4373
 31
0.0
  0
LINE
  5
12D
102
{ACAD_REACTORS
330
1BC
102
}
330
6F
100
AcDbEntity
  8
0
100
AcDbLine
 10
-77.1623
 20
41.4373
 30
0.0
 11
-101.766
 21
63.5903
 31
0.0
  0
LINE
  5
12E
102
{ACAD_REACTORS
330
1BC
102
}
330
6F
100
AcDbEntity
  8
0
100
AcDbLine
 10
-101.766
 20
63.5903
 30
0.0
 11
-79.9663
 21
35.6882
 31
0.0
  0
LINE
  5
12F
102
{ACAD_REACTORS
330
1BC
102
}
330
6F
100
AcDbEntity
  8
0
100
AcDbLine
 10
-79.9663
 20
35.6882
 30
0.0
 11
-82.69289999999999
 21
30.0978
 31
0.0
  0
LINE
  5
130
102
{ACAD_REACTORS
330
1BC
102
}
330
6F
100
AcDbEntity
  8
0
100
AcDbLine
 10
-82.69289999999999
 20
30.0978
 30
0.0
 11
-84.09139999999998
 21
24.4888
 31
0.0
  0
LINE
  5
131
102
{ACAD_REACTORS
330
1BC
102
}
330
6F
100
AcDbEntity
  8
0
100
AcDbLine
 10
-84.09139999999998
 20
24.4888
 30
0.0
 11
-112.763
 21
41.04239999999999
 31
0.0
  0
LINE
  5
132
102
{ACAD_REACTORS
330
1BC
102
}
330
6F
100
AcDbEntity
  8
0
100
AcDbLine
 10
-112.763
 20
41.04239999999999
 30
0.0
 11
-85.63880000000001
 21
18.2824
 31
0.0
  0
LINE
  5
133
102
{ACAD_REACTORS
330
1BC
102
}
330
6F
100
AcDbEntity
  8
0
100
AcDbLine
 10
-85.63880000000001
 20
18.2824
 30
0.0
 11
-87.1436
 21
12.2472
 31
0.0
  0
LINE
  5
134
102
{ACAD_REACTORS
330
1BC
102
}
330
6F
100
AcDbEntity
  8
0
100
AcDbLine
 10
-87.1436
 20
12.2472
 30
0.0
 11
-87.34529999999999
 21
6.47008
 31
0.0
  0
LINE
  5
135
102
{ACAD_REACTORS
330
1BC
102
}
330
6F
100
AcDbEntity
  8
0
100
AcDbLine
 10
-87.34529999999999
 20
6.47008
 30
0.0
 11
-118.832
 21
16.7008
 31
0.0
  0
LINE
  5
136
102
{ACAD_REACTORS
330
1BC
102
}
330
6F
100
AcDbEntity
  8
0
100
AcDbLine
 10
-118.832
 20
16.7008
 30
0.0
 11
-87.56860000000001
 21
0.0776062
 31
0.0
  0
LINE
  5
137
102
{ACAD_REACTORS
330
1BC
102
}
330
6F
100
AcDbEntity
  8
0
100
AcDbLine
 10
-87.56860000000001
 20
0.0776062
 30
0.0
 11
-87.7856
 21
-6.138569999999999
 31
0.0
  0
LINE
  5
138
102
{ACAD_REACTORS
330
1BC
102
}
330
6F
100
AcDbEntity
  8
0
100
AcDbLine
 10
-87.7856
 20
-6.138569999999999
 30
0.0
 11
-86.78180000000001
 21
-11.8314
 31
0.0
  0
LINE
  5
139
102
{ACAD_REACTORS
330
1BC
102
}
330
6F
100
AcDbEntity
  8
0
100
AcDbLine
 10
-86.78180000000001
 20
-11.8314
 30
0.0
 11
-119.708
 21
-8.37077
 31
0.0
  0
LINE
  5
13A
102
{ACAD_REACTORS
330
1BC
102
}
330
6F
100
AcDbEntity
  8
0
100
AcDbLine
 10
-119.708
 20
-8.37077
 30
0.0
 11
-85.67109999999999
 21
-18.1306
 31
0.0
  0
LINE
  5
13B
102
{ACAD_REACTORS
330
1BC
102
}
330
6F
100
AcDbEntity
  8
0
100
AcDbLine
 10
-85.67109999999999
 20
-18.1306
 30
0.0
 11
-84.59100000000001
 21
-24.2561
 31
0.0
  0
LINE
  5
13C
102
{ACAD_REACTORS
330
1BC
102
}
330
6F
100
AcDbEntity
  8
0
100
AcDbLine
 10
-84.59100000000001
 20
-24.2561
 30
0.0
 11
-82.4256
 21
-29.6158
 31
0.0
  0
LINE
  5
13D
102
{ACAD_REACTORS
330
1BC
102
}
330
6F
100
AcDbEntity
  8
0
100
AcDbLine
 10
-82.4256
 20
-29.6158
 30
0.0
 11
-115.351
 21
-33.07650000000001
 31
0.0
  0
LINE
  5
13E
102
{ACAD_REACTORS
330
1BC
102
}
330
6F
100
AcDbEntity
  8
0
100
AcDbLine
 10
-115.351
 20
-33.07650000000001
 30
0.0
 11
-80.0294
 21
-35.5464
 31
0.0
  0
LINE
  5
13F
102
{ACAD_REACTORS
330
1BC
102
}
330
6F
100
AcDbEntity
  8
0
100
AcDbLine
 10
-80.0294
 20
-35.5464
 30
0.0
 11
-77.6994
 21
-41.3135
 31
0.0
  0
LINE
  5
140
102
{ACAD_REACTORS
330
1BC
102
}
330
6F
100
AcDbEntity
  8
0
100
AcDbLine
 10
-77.6994
 20
-41.3135
 30
0.0
 11
-74.4669
 21
-46.1059
 31
0.0
  0
LINE
  5
141
102
{ACAD_REACTORS
330
1BC
102
}
330
6F
100
AcDbEntity
  8
0
100
AcDbLine
 10
-74.4669
 20
-46.1059
 30
0.0
 11
-105.954
 21
-56.33659999999999
 31
0.0
  0
LINE
  5
142
102
{ACAD_REACTORS
330
1BC
102
}
330
6F
100
AcDbEntity
  8
0
100
AcDbLine
 10
-105.954
 20
-56.33659999999999
 30
0.0
 11
-70.8901
 21
-51.4087
 31
0.0
  0
LINE
  5
143
102
{ACAD_REACTORS
330
1BC
102
}
330
6F
100
AcDbEntity
  8
0
100
AcDbLine
 10
-70.8901
 20
-51.4087
 30
0.0
 11
-67.4119
 21
-56.5653
 31
0.0
  0
LINE
  5
144
102
{ACAD_REACTORS
330
1BC
102
}
330
6F
100
AcDbEntity
  8
0
100
AcDbLine
 10
-67.4119
 20
-56.5653
 30
0.0
 11
-63.25359999999999
 21
-60.58089999999999
 31
0.0
  0
LINE
  5
145
102
{ACAD_REACTORS
330
1BC
102
}
330
6F
100
AcDbEntity
  8
0
100
AcDbLine
 10
-63.25359999999999
 20
-60.58089999999999
 30
0.0
 11
-91.92529999999999
 21
-77.1345
 31
0.0
  0
LINE
  5
146
102
{ACAD_REACTORS
330
1BC
102
}
330
6F
100
AcDbEntity
  8
0
100
AcDbLine
 10
-91.92529999999999
 20
-77.1345
 30
0.0
 11
-58.6525
 21
-65.02419999999999
 31
0.0
  0
LINE
  5
147
102
{ACAD_REACTORS
330
1BC
102
}
330
6F
100
AcDbEntity
  8
0
100
AcDbLine
 10
-58.6525
 20
-65.02419999999999
 30
0.0
 11
-54.17819999999999
 21
-69.3449
 31
0.0
  0
LINE
  5
148
102
{ACAD_REACTORS
330
1BC
102
}
330
6F
100
AcDbEntity
  8
0
100
AcDbLine
 10
-54.17819999999999
 20
-69.3449
 30
0.0
 11
-49.2759
 21
-72.40819999999999
 31
0.0
  0
LINE
  5
149
102
{ACAD_REACTORS
330
1BC
102
}
330
6F
100
AcDbEntity
  8
0
100
AcDbLine
 10
-49.2759
 20
-72.40819999999999
 30
0.0
 11
-73.8794
 21
-94.56129999999999
 31
0.0
  0
LINE
  5
14A
102
{ACAD_REACTORS
330
1BC
102
}
330
6F
100
AcDbEntity
  8
0
100
AcDbLine
 10
-73.8794
 20
-94.56129999999999
 30
0.0
 11
-43.8515
 21
-75.79779999999999
 31
0.0
  0
LINE
  5
14B
102
{ACAD_REACTORS
330
1BC
102
}
330
6F
100
AcDbEntity
  8
0
100
AcDbLine
 10
-43.8515
 20
-75.79779999999999
 30
0.0
 11
-38.5767
 21
-79.09390000000001
 31
0.0
  0
LINE
  5
14C
102
{ACAD_REACTORS
330
1BC
102
}
330
6F
100
AcDbEntity
  8
0
100
AcDbLine
 10
-38.5767
 20
-79.09390000000001
 30
0.0
 11
-33.1446
 21
-81.071
 31
0.0
  0
LINE
  5
14D
102
{ACAD_REACTORS
330
1BC
102
}
330
6F
100
AcDbEntity
  8
0
100
AcDbLine
 10
-33.1446
 20
-81.071
 30
0.0
 11
-52.6045
 21
-107.855
 31
0.0
  0
LINE
  5
14E
102
{ACAD_REACTORS
330
1BC
102
}
330
6F
100
AcDbEntity
  8
0
100
AcDbLine
 10
-52.6045
 20
-107.855
 30
0.0
 11
-27.134
 21
-83.2587
 31
0.0
  0
LINE
  5
14F
102
{ACAD_REACTORS
330
1BC
102
}
330
6F
100
AcDbEntity
  8
0
100
AcDbLine
 10
-27.134
 20
-83.2587
 30
0.0
 11
-21.2891
 21
-85.386
 31
0.0
  0
LINE
  5
150
102
{ACAD_REACTORS
330
1BC
102
}
330
6F
100
AcDbEntity
  8
0
100
AcDbLine
 10
-21.2891
 20
-85.386
 30
0.0
 11
-15.5647
 21
-86.19049999999999
 31
0.0
  0
LINE
  5
151
102
{ACAD_REACTORS
330
1BC
102
}
330
6F
100
AcDbEntity
  8
0
100
AcDbLine
 10
-15.5647
 20
-86.19049999999999
 30
0.0
 11
-29.0306
 21
-116.435
 31
0.0
  0
LINE
  5
152
102
{ACAD_REACTORS
330
1BC
102
}
330
6F
100
AcDbEntity
  8
0
100
AcDbLine
 10
-29.0306
 20
-116.435
 30
0.0
 11
-9.230589999999999
 21
-87.08069999999999
 31
0.0
  0
LINE
  5
153
102
{ACAD_REACTORS
330
1BC
102
}
330
6F
100
AcDbEntity
  8
0
100
AcDbLine
 10
-9.230589999999999
 20
-87.08069999999999
 30
0.0
 11
-3.071149999999999
 21
-87.94639999999999
 31
0.0
  0
LINE
  5
154
102
{ACAD_REACTORS
330
1BC
102
}
330
6F
100
AcDbEntity
  8
0
100
AcDbLine
 10
-3.071149999999999
 20
-87.94639999999999
 30
0.0
 11
2.695429999999999
 21
-87.54319999999999
 31
0.0
  0
LINE
  5
155
102
{ACAD_REACTORS
330
1BC
102
}
330
6F
100
AcDbEntity
  8
0
100
AcDbLine
 10
2.695429999999999
 20
-87.54319999999999
 30
0.0
 11
-4.18793
 21
-119.927
 31
0.0
  0
LINE
  5
156
102
{ACAD_REACTORS
330
1BC
102
}
330
6F
100
AcDbEntity
  8
0
100
AcDbLine
 10
-4.18793
 20
-119.927
 30
0.0
 11
9.0762
 21
-87.09700000000001
 31
0.0
  0
LINE
  5
157
102
{ACAD_REACTORS
330
1BC
102
}
330
6F
100
AcDbEntity
  8
0
100
AcDbLine
 10
2.09843
 20
13.7652
 30
0.0
 11
-17.3062
 21
77.8056
 31
0.0
  0
LINE
  5
158
102
{ACAD_REACTORS
330
1BC
102
}
330
6F
100
AcDbEntity
  8
0
100
AcDbLine
 10
-17.3062
 20
77.8056
 30
0.0
 11
-13.8918
 21
78.7846
 31
0.0
  0
LINE
  5
159
102
{ACAD_REACTORS
330
1BC
102
}
330
6F
100
AcDbEntity
  8
0
100
AcDbLine
 10
-13.8918
 20
78.7846
 30
0.0
 11
2.791949999999999
 21
79.9513
 31
0.0
  0
LINE
  5
15A
102
{ACAD_REACTORS
330
1BC
102
}
330
6F
100
AcDbEntity
  8
0
100
AcDbLine
 10
2.791949999999999
 20
79.9513
 30
0.0
 11
19.3537
 21
77.6237
 31
0.0
  0
LINE
  5
15B
102
{ACAD_REACTORS
330
1BC
102
}
330
6F
100
AcDbEntity
  8
0
100
AcDbLine
 10
19.3537
 20
77.6237
 30
0.0
 11
35.0697
 21
71.90349999999999
 31
0.0
  0
LINE
  5
15C
102
{ACAD_REACTORS
330
1BC
102
}
330
6F
100
AcDbEntity
  8
0
100
AcDbLine
 10
35.0697
 20
71.90349999999999
 30
0.0
 11
40.0981
 21
68.76139999999999
 31
0.0
  0
LINE
  5
15D
102
{ACAD_REACTORS
330
1BC
102
}
330
6F
100
AcDbEntity
  8
0
100
AcDbLine
 10
40.0981
 20
68.76139999999999
 30
0.0
 11
2.19028
 21
13.7523
 31
0.0
  0
LINE
  5
15E
102
{ACAD_REACTORS
330
1BC
102
}
330
6F
100
AcDbEntity
  8
0
100
AcDbLine
 10
2.19028
 20
13.7523
 30
0.0
 11
2.09843
 21
13.7652
 31
0.0
  0
LINE
  5
15F
102
{ACAD_REACTORS
330
1BC
102
}
330
6F
100
AcDbEntity
  8
0
100
AcDbLine
 10
-71.48569999999999
 20
34.9265
 30
0.0
 11
-67.8438
 21
42.3935
 31
0.0
  0
LINE
  5
160
102
{ACAD_REACTORS
330
1BC
102
}
330
6F
100
AcDbEntity
  8
0
100
AcDbLine
 10
-67.8438
 20
42.3935
 30
0.0
 11
-57.54719999999999
 21
55.57269999999999
 31
0.0
  0
LINE
  5
161
102
{ACAD_REACTORS
330
1BC
102
}
330
6F
100
AcDbEntity
  8
0
100
AcDbLine
 10
-57.54719999999999
 20
55.57269999999999
 30
0.0
 11
-44.73539999999999
 21
66.323
 31
0.0
  0
LINE
  5
162
102
{ACAD_REACTORS
330
1BC
102
}
330
6F
100
AcDbEntity
  8
0
100
AcDbLine
 10
-44.73539999999999
 20
66.323
 30
0.0
 11
-29.9685
 21
74.1747
 31
0.0
  0
LINE
  5
163
102
{ACAD_REACTORS
330
1BC
102
}
330
6F
100
AcDbEntity
  8
0
100
AcDbLine
 10
-29.9685
 20
74.1747
 30
0.0
 11
-28.8426
 21
74.49760000000001
 31
0.0
  0
LINE
  5
164
102
{ACAD_REACTORS
330
1BC
102
}
330
6F
100
AcDbEntity
  8
0
100
AcDbLine
 10
-28.8426
 20
74.49760000000001
 30
0.0
 11
-9.389419999999999
 21
10.2969
 31
0.0
  0
LINE
  5
165
102
{ACAD_REACTORS
330
1BC
102
}
330
6F
100
AcDbEntity
  8
0
100
AcDbLine
 10
-9.389419999999999
 20
10.2969
 30
0.0
 11
-9.46977
 21
10.2295
 31
0.0
  0
LINE
  5
166
102
{ACAD_REACTORS
330
1BC
102
}
330
6F
100
AcDbEntity
  8
0
100
AcDbLine
 10
-9.46977
 20
10.2295
 30
0.0
 11
-71.48569999999999
 21
34.9265
 31
0.0
  0
LINE
  5
167
102
{ACAD_REACTORS
330
1BC
102
}
330
6F
100
AcDbEntity
  8
0
100
AcDbLine
 10
12.0915
 20
6.972469999999999
 30
0.0
 11
50.1394
 21
62.1848
 31
0.0
  0
LINE
  5
168
102
{ACAD_REACTORS
330
1BC
102
}
330
6F
100
AcDbEntity
  8
0
100
AcDbLine
 10
50.1394
 20
62.1848
 30
0.0
 11
61.2836
 21
51.423
 31
0.0
  0
LINE
  5
169
102
{ACAD_REACTORS
330
1BC
102
}
330
6F
100
AcDbEntity
  8
0
100
AcDbLine
 10
61.2836
 20
51.423
 30
0.0
 11
70.6358
 21
37.5577
 31
0.0
  0
LINE
  5
16A
102
{ACAD_REACTORS
330
1BC
102
}
330
6F
100
AcDbEntity
  8
0
100
AcDbLine
 10
70.6358
 20
37.5577
 30
0.0
 11
76.90089999999999
 21
22.051
 31
0.0
  0
LINE
  5
16B
102
{ACAD_REACTORS
330
1BC
102
}
330
6F
100
AcDbEntity
  8
0
100
AcDbLine
 10
76.90089999999999
 20
22.051
 30
0.0
 11
78.7575
 21
11.5219
 31
0.0
  0
LINE
  5
16C
102
{ACAD_REACTORS
330
1BC
102
}
330
6F
100
AcDbEntity
  8
0
100
AcDbLine
 10
78.7575
 20
11.5219
 30
0.0
 11
12.1639
 21
6.865219999999999
 31
0.0
  0
LINE
  5
16D
102
{ACAD_REACTORS
330
1BC
102
}
330
6F
100
AcDbEntity
  8
0
100
AcDbLine
 10
12.1639
 20
6.865219999999999
 30
0.0
 11
12.0915
 21
6.972469999999999
 31
0.0
  0
LINE
  5
16E
102
{ACAD_REACTORS
330
1BC
102
}
330
6F
100
AcDbEntity
  8
0
100
AcDbLine
 10
-76.90089999999999
 20
-22.051
 30
0.0
 11
-79.80509999999999
 21
-5.580509999999999
 31
0.0
  0
LINE
  5
16F
102
{ACAD_REACTORS
330
1BC
102
}
330
6F
100
AcDbEntity
  8
0
100
AcDbLine
 10
-79.80509999999999
 20
-5.580509999999999
 30
0.0
 11
-79.2214
 21
11.1338
 31
0.0
  0
LINE
  5
170
102
{ACAD_REACTORS
330
1BC
102
}
330
6F
100
AcDbEntity
  8
0
100
AcDbLine
 10
-79.2214
 20
11.1338
 30
0.0
 11
-76.05589999999999
 21
23.83
 31
0.0
  0
LINE
  5
171
102
{ACAD_REACTORS
330
1BC
102
}
330
6F
100
AcDbEntity
  8
0
100
AcDbLine
 10
-76.05589999999999
 20
23.83
 30
0.0
 11
-13.9631
 21
-0.897629
 31
0.0
  0
LINE
  5
172
102
{ACAD_REACTORS
330
1BC
102
}
330
6F
100
AcDbEntity
  8
0
100
AcDbLine
 10
-13.9631
 20
-0.897629
 30
0.0
 11
-13.9659
 21
-0.9765780000000001
 31
0.0
  0
LINE
  5
173
102
{ACAD_REACTORS
330
1BC
102
}
330
6F
100
AcDbEntity
  8
0
100
AcDbLine
 10
-13.9659
 20
-0.9765780000000001
 30
0.0
 11
-13.9522
 21
-1.054379999999999
 31
0.0
  0
LINE
  5
174
102
{ACAD_REACTORS
330
1BC
102
}
330
6F
100
AcDbEntity
  8
0
100
AcDbLine
 10
-13.9522
 20
-1.054379999999999
 30
0.0
 11
-71.99930000000001
 21
-34.183
 31
0.0
  0
LINE
  5
175
102
{ACAD_REACTORS
330
1BC
102
}
330
6F
100
AcDbEntity
  8
0
100
AcDbLine
 10
-71.99930000000001
 20
-34.183
 30
0.0
 11
-76.90089999999999
 21
-22.051
 31
0.0
  0
LINE
  5
176
102
{ACAD_REACTORS
330
1BC
102
}
330
6F
100
AcDbEntity
  8
0
100
AcDbLine
 10
-1.08864
 20
-4.366319999999999
 30
0.0
 11
-1.972659999999999
 21
-4.044569999999999
 31
0.0
  0
LINE
  5
177
102
{ACAD_REACTORS
330
1BC
102
}
330
6F
100
AcDbEntity
  8
0
100
AcDbLine
 10
-1.972659999999999
 20
-4.044569999999999
 30
0.0
 11
-2.770459999999999
 21
-3.54604
 31
0.0
  0
LINE
  5
178
102
{ACAD_REACTORS
330
1BC
102
}
330
6F
100
AcDbEntity
  8
0
100
AcDbLine
 10
-2.770459999999999
 20
-3.54604
 30
0.0
 11
-3.447189999999999
 21
-2.892529999999999
 31
0.0
  0
LINE
  5
179
102
{ACAD_REACTORS
330
1BC
102
}
330
6F
100
AcDbEntity
  8
0
100
AcDbLine
 10
-3.447189999999999
 20
-2.892529999999999
 30
0.0
 11
-3.97325
 21
-2.112609999999999
 31
0.0
  0
LINE
  5
17A
102
{ACAD_REACTORS
330
1BC
102
}
330
6F
100
AcDbEntity
  8
0
100
AcDbLine
 10
-3.97325
 20
-2.112609999999999
 30
0.0
 11
-4.325669999999999
 21
-1.24036
 31
0.0
  0
LINE
  5
17B
102
{ACAD_REACTORS
330
1BC
102
}
330
6F
100
AcDbEntity
  8
0
100
AcDbLine
 10
-4.325669999999999
 20
-1.24036
 30
0.0
 11
-4.48903
 21
-0.313904
 31
0.0
  0
LINE
  5
17C
102
{ACAD_REACTORS
330
1BC
102
}
330
6F
100
AcDbEntity
  8
0
100
AcDbLine
 10
-4.48903
 20
-0.313904
 30
0.0
 11
-4.45619
 21
0.6262660000000001
 31
0.0
  0
LINE
  5
17D
102
{ACAD_REACTORS
330
1BC
102
}
330
6F
100
AcDbEntity
  8
0
100
AcDbLine
 10
-4.45619
 20
0.6262660000000001
 30
0.0
 11
-4.228609999999999
 21
1.53908
 31
0.0
  0
LINE
  5
17E
102
{ACAD_REACTORS
330
1BC
102
}
330
6F
100
AcDbEntity
  8
0
100
AcDbLine
 10
-4.228609999999999
 20
1.53908
 30
0.0
 11
-3.816209999999999
 21
2.38463
 31
0.0
  0
LINE
  5
17F
102
{ACAD_REACTORS
330
1BC
102
}
330
6F
100
AcDbEntity
  8
0
100
AcDbLine
 10
-3.816209999999999
 20
2.38463
 30
0.0
 11
-3.237009999999999
 21
3.12596
 31
0.0
  0
LINE
  5
180
102
{ACAD_REACTORS
330
1BC
102
}
330
6F
100
AcDbEntity
  8
0
100
AcDbLine
 10
-3.237009999999999
 20
3.12596
 30
0.0
 11
-2.516359999999999
 21
3.730669999999999
 31
0.0
  0
LINE
  5
181
102
{ACAD_REACTORS
330
1BC
102
}
330
6F
100
AcDbEntity
  8
0
100
AcDbLine
 10
-2.516359999999999
 20
3.730669999999999
 30
0.0
 11
-1.685709999999999
 21
4.17232
 31
0.0
  0
LINE
  5
182
102
{ACAD_REACTORS
330
1BC
102
}
330
6F
100
AcDbEntity
  8
0
100
AcDbLine
 10
-1.685709999999999
 20
4.17232
 30
0.0
 11
-0.781403
 21
4.43163
 31
0.0
  0
LINE
  5
183
102
{ACAD_REACTORS
330
1BC
102
}
330
6F
100
AcDbEntity
  8
0
100
AcDbLine
 10
-0.781403
 20
4.43163
 30
0.0
 11
0.157043
 21
4.49725
 31
0.0
  0
LINE
  5
184
102
{ACAD_REACTORS
330
1BC
102
}
330
6F
100
AcDbEntity
  8
0
100
AcDbLine
 10
0.157043
 20
4.49725
 30
0.0
 11
1.08864
 21
4.366319999999999
 31
0.0
  0
LINE
  5
185
102
{ACAD_REACTORS
330
1BC
102
}
330
6F
100
AcDbEntity
  8
0
100
AcDbLine
 10
1.08864
 20
4.366319999999999
 30
0.0
 11
1.972659999999999
 21
4.044569999999999
 31
0.0
  0
LINE
  5
186
102
{ACAD_REACTORS
330
1BC
102
}
330
6F
100
AcDbEntity
  8
0
100
AcDbLine
 10
1.972659999999999
 20
4.044569999999999
 30
0.0
 11
2.770459999999999
 21
3.54604
 31
0.0
  0
LINE
  5
187
102
{ACAD_REACTORS
330
1BC
102
}
330
6F
100
AcDbEntity
  8
0
100
AcDbLine
 10
2.770459999999999
 20
3.54604
 30
0.0
 11
3.447189999999999
 21
2.892529999999999
 31
0.0
  0
LINE
  5
188
102
{ACAD_REACTORS
330
1BC
102
}
330
6F
100
AcDbEntity
  8
0
100
AcDbLine
 10
3.447189999999999
 20
2.892529999999999
 30
0.0
 11
3.97325
 21
2.112609999999999
 31
0.0
  0
LINE
  5
189
102
{ACAD_REACTORS
330
1BC
102
}
330
6F
100
AcDbEntity
  8
0
100
AcDbLine
 10
3.97325
 20
2.112609999999999
 30
0.0
 11
4.325669999999999
 21
1.24036
 31
0.0
  0
LINE
  5
18A
102
{ACAD_REACTORS
330
1BC
102
}
330
6F
100
AcDbEntity
  8
0
100
AcDbLine
 10
4.325669999999999
 20
1.24036
 30
0.0
 11
4.48903
 21
0.313904
 31
0.0
  0
LINE
  5
18B
102
{ACAD_REACTORS
330
1BC
102
}
330
6F
100
AcDbEntity
  8
0
100
AcDbLine
 10
4.48903
 20
0.313904
 30
0.0
 11
4.45619
 21
-0.6262660000000001
 31
0.0
  0
LINE
  5
18C
102
{ACAD_REACTORS
330
1BC
102
}
330
6F
100
AcDbEntity
  8
0
100
AcDbLine
 10
4.45619
 20
-0.6262660000000001
 30
0.0
 11
4.228609999999999
 21
-1.53908
 31
0.0
  0
LINE
  5
18D
102
{ACAD_REACTORS
330
1BC
102
}
330
6F
100
AcDbEntity
  8
0
100
AcDbLine
 10
4.228609999999999
 20
-1.53908
 30
0.0
 11
3.816209999999999
 21
-2.38463
 31
0.0
  0
LINE
  5
18E
102
{ACAD_REACTORS
330
1BC
102
}
330
6F
100
AcDbEntity
  8
0
100
AcDbLine
 10
3.816209999999999
 20
-2.38463
 30
0.0
 11
3.237009999999999
 21
-3.12596
 31
0.0
  0
LINE
  5
18F
102
{ACAD_REACTORS
330
1BC
102
}
330
6F
100
AcDbEntity
  8
0
100
AcDbLine
 10
3.237009999999999
 20
-3.12596
 30
0.0
 11
2.516359999999999
 21
-3.730669999999999
 31
0.0
  0
LINE
  5
190
102
{ACAD_REACTORS
330
1BC
102
}
330
6F
100
AcDbEntity
  8
0
100
AcDbLine
 10
2.516359999999999
 20
-3.730669999999999
 30
0.0
 11
1.685709999999999
 21
-4.17232
 31
0.0
  0
LINE
  5
191
102
{ACAD_REACTORS
330
1BC
102
}
330
6F
100
AcDbEntity
  8
0
100
AcDbLine
 10
1.685709999999999
 20
-4.17232
 30
0.0
 11
0.781403
 21
-4.43163
 31
0.0
  0
LINE
  5
192
102
{ACAD_REACTORS
330
1BC
102
}
330
6F
100
AcDbEntity
  8
0
100
AcDbLine
 10
0.781403
 20
-4.43163
 30
0.0
 11
-0.157043
 21
-4.49725
 31
0.0
  0
LINE
  5
193
102
{ACAD_REACTORS
330
1BC
102
}
330
6F
100
AcDbEntity
  8
0
100
AcDbLine
 10
-0.157043
 20
-4.49725
 30
0.0
 11
-1.08864
 21
-4.366319999999999
 31
0.0
  0
LINE
  5
194
102
{ACAD_REACTORS
330
1BC
102
}
330
6F
100
AcDbEntity
  8
0
100
AcDbLine
 10
12.9442
 20
-5.221799999999999
 30
0.0
 11
13.0009
 21
-5.105529999999999
 31
0.0
  0
LINE
  5
195
102
{ACAD_REACTORS
330
1BC
102
}
330
6F
100
AcDbEntity
  8
0
100
AcDbLine
 10
13.0009
 20
-5.105529999999999
 30
0.0
 11
79.59459999999999
 21
-0.448853
 31
0.0
  0
LINE
  5
196
102
{ACAD_REACTORS
330
1BC
102
}
330
6F
100
AcDbEntity
  8
0
100
AcDbLine
 10
79.59459999999999
 20
-0.448853
 30
0.0
 11
79.2214
 21
-11.1338
 31
0.0
  0
LINE
  5
197
102
{ACAD_REACTORS
330
1BC
102
}
330
6F
100
AcDbEntity
  8
0
100
AcDbLine
 10
79.2214
 20
-11.1338
 30
0.0
 11
75.1754
 21
-27.3616
 31
0.0
  0
LINE
  5
198
102
{ACAD_REACTORS
330
1BC
102
}
330
6F
100
AcDbEntity
  8
0
100
AcDbLine
 10
75.1754
 20
-27.3616
 30
0.0
 11
67.8438
 21
-42.3935
 31
0.0
  0
LINE
  5
199
102
{ACAD_REACTORS
330
1BC
102
}
330
6F
100
AcDbEntity
  8
0
100
AcDbLine
 10
67.8438
 20
-42.3935
 30
0.0
 11
58.3059
 21
-54.6016
 31
0.0
  0
LINE
  5
19A
102
{ACAD_REACTORS
330
1BC
102
}
330
6F
100
AcDbEntity
  8
0
100
AcDbLine
 10
58.3059
 20
-54.6016
 30
0.0
 11
12.9442
 21
-5.221799999999999
 31
0.0
  0
LINE
  5
19B
102
{ACAD_REACTORS
330
1BC
102
}
330
6F
100
AcDbEntity
  8
0
100
AcDbLine
 10
-19.3537
 20
-77.6237
 30
0.0
 11
-35.0697
 21
-71.90349999999999
 31
0.0
  0
LINE
  5
19C
102
{ACAD_REACTORS
330
1BC
102
}
330
6F
100
AcDbEntity
  8
0
100
AcDbLine
 10
-35.0697
 20
-71.90349999999999
 30
0.0
 11
-49.2529
 21
-63.04079999999999
 31
0.0
  0
LINE
  5
19D
102
{ACAD_REACTORS
330
1BC
102
}
330
6F
100
AcDbEntity
  8
0
100
AcDbLine
 10
-49.2529
 20
-63.04079999999999
 30
0.0
 11
-61.2836
 21
-51.423
 31
0.0
  0
LINE
  5
19E
102
{ACAD_REACTORS
330
1BC
102
}
330
6F
100
AcDbEntity
  8
0
100
AcDbLine
 10
-61.2836
 20
-51.423
 30
0.0
 11
-65.92919999999999
 21
-44.53549999999999
 31
0.0
  0
LINE
  5
19F
102
{ACAD_REACTORS
330
1BC
102
}
330
6F
100
AcDbEntity
  8
0
100
AcDbLine
 10
-65.92919999999999
 20
-44.53549999999999
 30
0.0
 11
-7.953949999999999
 21
-11.4479
 31
0.0
  0
LINE
  5
1A0
102
{ACAD_REACTORS
330
1BC
102
}
330
6F
100
AcDbEntity
  8
0
100
AcDbLine
 10
-7.953949999999999
 20
-11.4479
 30
0.0
 11
-7.864989999999999
 21
-11.5035
 31
0.0
  0
LINE
  5
1A1
102
{ACAD_REACTORS
330
1BC
102
}
330
6F
100
AcDbEntity
  8
0
100
AcDbLine
 10
-7.864989999999999
 20
-11.5035
 30
0.0
 11
-18.1939
 21
-77.78669999999999
 31
0.0
  0
LINE
  5
1A2
102
{ACAD_REACTORS
330
1BC
102
}
330
6F
100
AcDbEntity
  8
0
100
AcDbLine
 10
-18.1939
 20
-77.78669999999999
 30
0.0
 11
-19.3537
 21
-77.6237
 31
0.0
  0
LINE
  5
1A3
102
{ACAD_REACTORS
330
1BC
102
}
330
6F
100
AcDbEntity
  8
0
100
AcDbLine
 10
-6.30933
 20
-79.4569
 30
0.0
 11
3.993759999999999
 21
-13.3392
 31
0.0
  0
LINE
  5
1A4
102
{ACAD_REACTORS
330
1BC
102
}
330
6F
100
AcDbEntity
  8
0
100
AcDbLine
 10
3.993759999999999
 20
-13.3392
 30
0.0
 11
4.082919999999999
 21
-13.3136
 31
0.0
  0
LINE
  5
1A5
102
{ACAD_REACTORS
330
1BC
102
}
330
6F
100
AcDbEntity
  8
0
100
AcDbLine
 10
4.082919999999999
 20
-13.3136
 30
0.0
 11
49.2776
 21
-62.5117
 31
0.0
  0
LINE
  5
1A6
102
{ACAD_REACTORS
330
1BC
102
}
330
6F
100
AcDbEntity
  8
0
100
AcDbLine
 10
49.2776
 20
-62.5117
 30
0.0
 11
44.73539999999999
 21
-66.323
 31
0.0
  0
LINE
  5
1A7
102
{ACAD_REACTORS
330
1BC
102
}
330
6F
100
AcDbEntity
  8
0
100
AcDbLine
 10
44.73539999999999
 20
-66.323
 30
0.0
 11
29.9685
 21
-74.1747
 31
0.0
  0
LINE
  5
1A8
102
{ACAD_REACTORS
330
1BC
102
}
330
6F
100
AcDbEntity
  8
0
100
AcDbLine
 10
29.9685
 20
-74.1747
 30
0.0
 11
13.8918
 21
-78.7846
 31
0.0
  0
LINE
  5
1A9
102
{ACAD_REACTORS
330
1BC
102
}
330
6F
100
AcDbEntity
  8
0
100
AcDbLine
 10
13.8918
 20
-78.7846
 30
0.0
 11
-2.791949999999999
 21
-79.9513
 31
0.0
  0
LINE
  5
1AA
102
{ACAD_REACTORS
330
1BC
102
}
330
6F
100
AcDbEntity
  8
0
100
AcDbLine
 10
-2.791949999999999
 20
-79.9513
 30
0.0
 11
-6.30933
 21
-79.4569
 31
0.0
  0
CIRCLE
  5
1B7
102
{ACAD_REACTORS
330
1BA
102
}
330
6F
100
AcDbEntity
  8
0
100
AcDbCircle
 10
143.0
 20
-36.0
 30
0.0
 40
4.5
  0
CIRCLE
  5
1B8
102
{ACAD_REACTORS
330
1BA
102
}
330
6F
100
AcDbEntity
  8
0
100
AcDbCircle
 10
143.0
 20
133.7035913359289
 30
0.0
 40
4.5
  0
LWPOLYLINE
  5
1B9
102
{ACAD_REACTORS
330
1BA
102
}
330
6F
100
AcDbEntity
  8
0
100
AcDbPolyline
 90
        4
 70
     1
 43
0.0
 10
133.0
 20
144.0
 10
153.0
 20
144.0
 10
153.0
 20
-46.0
 10
133.0
 20
-46.0
  0
ENDSEC
  0
SECTION
  2
OBJECTS
  0
DICTIONARY
  5
C
330
0
100
AcDbDictionary
281
     1
  3
ACAD_CIP_PREVIOUS_PRODUCT_INFO
350
1AF
  3
ACAD_COLOR
350
62
  3
ACAD_DETAILVIEWSTYLE
350
69
  3
ACAD_GROUP
350
D
  3
ACAD_LAYOUT
350
61
  3
ACAD_MATERIAL
350
10
  3
ACAD_MLEADERSTYLE
350
65
  3
ACAD_MLINESTYLE
350
5E
  3
ACAD_PLOTSETTINGS
350
60
  3
ACAD_PLOTSTYLENAME
350
E
  3
ACAD_SCALELIST
350
42
  3
ACAD_SECTIONVIEWSTYLE
350
67
  3
ACAD_TABLESTYLE
350
63
  3
ACAD_VISUALSTYLE
350
29
  3
ACDB_RECOMPOSE_DATA
350
1CB
  3
AcDbVariableDictionary
350
1BF
  0
DICTIONARY
  5
1BD
330
54
100
AcDbDictionary
280
     1
281
     1
  3
ADSK_XREC_LAYER_RECONCILED
360
1BE
  0
XRECORD
  5
1AF
102
{ACAD_REACTORS
330
C
102
}
330
C
100
AcDbXrecord
280
     1
300
ACD
300
2019
300
ACD_F_S
  0
DICTIONARY
  5
62
102
{ACAD_REACTORS
330
C
102
}
330
C
100
AcDbDictionary
281
     1
  0
DICTIONARY
  5
69
102
{ACAD_REACTORS
330
C
102
}
330
C
100
AcDbDictionary
281
     1
  3
Imperial24
350
6A
  0
DICTIONARY
  5
D
102
{ACAD_REACTORS
330
C
102
}
330
C
100
AcDbDictionary
281
     1
  3
*A1
350
1BA
  3
*A3
350
1BC
  0
DICTIONARY
  5
61
102
{ACAD_REACTORS
330
C
102
}
330
C
100
AcDbDictionary
281
     1
  3
Layout1
350
6E
  3
Model
350
72
  0
DICTIONARY
  5
10
102
{ACAD_REACTORS
330
C
102
}
330
C
100
AcDbDictionary
281
     1
  3
ByBlock
350
19
  3
ByLayer
350
11
  3
Global
350
21
  0
DICTIONARY
  5
65
102
{ACAD_REACTORS
330
C
102
}
330
C
100
AcDbDictionary
281
     1
  3
Standard
350
66
  0
DICTIONARY
  5
5E
102
{ACAD_REACTORS
330
C
102
}
330
C
100
AcDbDictionary
281
     1
  3
Standard
350
5F
  0
DICTIONARY
  5
60
102
{ACAD_REACTORS
330
C
102
}
330
C
100
AcDbDictionary
281
     1
  0
ACDBDICTIONARYWDFLT
  5
E
102
{ACAD_REACTORS
330
C
102
}
330
C
100
AcDbDictionary
281
     1
  3
Normal
350
F
100
AcDbDictionaryWithDefault
340
F
  0
DICTIONARY
  5
42
102
{ACAD_REACTORS
330
C
102
}
330
C
100
AcDbDictionary
281
     1
  3
A0
350
43
  3
A1
350
44
  3
A2
350
45
  3
A3
350
46
  3
A4
350
47
  3
A5
350
48
  3
A6
350
49
  3
A7
350
4A
  3
A8
350
4B
  3
A9
350
4C
  3
B0
350
4D
  3
B1
350
4E
  3
B2
350
4F
  3
B3
350
50
  3
B4
350
51
  3
B5
350
52
  3
B6
350
53
  0
DICTIONARY
  5
67
102
{ACAD_REACTORS
330
C
102
}
330
C
100
AcDbDictionary
281
     1
  3
Imperial24
350
68
  0
DICTIONARY
  5
63
102
{ACAD_REACTORS
330
C
102
}
330
C
100
AcDbDictionary
281
     1
  3
Standard
350
64
  0
DICTIONARY
  5
29
102
{ACAD_REACTORS
330
C
102
}
330
C
100
AcDbDictionary
281
     1
  3
2dWireframe
350
2F
  3
Basic
350
2E
  3
Brighten
350
35
  3
ColorChange
350
39
  3
Conceptual
350
32
  3
Dim
350
34
  3
EdgeColorOff
350
41
  3
Facepattern
350
38
  3
Flat
350
2A
  3
FlatWithEdges
350
2B
  3
Gouraud
350
2C
  3
GouraudWithEdges
350
2D
  3
Hidden
350
31
  3
JitterOff
350
3F
  3
Linepattern
350
37
  3
OverhangOff
350
40
  3
Realistic
350
33
  3
Shaded
350
3E
  3
Shaded with edges
350
3D
  3
Shades of Gray
350
3A
  3
Sketchy
350
3B
  3
Thicken
350
36
  3
Wireframe
350
30
  3
X-Ray
350
3C
  0
XRECORD
  5
1CB
102
{ACAD_REACTORS
330
C
102
}
330
C
100
AcDbXrecord
280
     1
 90
        1
330
64
  0
DICTIONARY
  5
1BF
102
{ACAD_REACTORS
330
C
102
}
330
C
100
AcDbDictionary
281
     1
  3
CANNOSCALE
350
1C5
  3
CMLEADERSTYLE
350
1C1
  3
CTABLESTYLE
350
1C0
  3
CVIEWDETAILSTYLE
350
1C2
  3
CVIEWSECTIONSTYLE
350
1C3
  3
LAYEREVAL
350
1C7
  3
LAYERNOTIFY
350
1C8
  3
LIGHTINGUNITS
350
1C6
  3
MSLTSCALE
350
1C4
  0
XRECORD
  5
1BE
102
{ACAD_REACTORS
330
1BD
102
}
330
1BD
100
AcDbXrecord
280
     1
290
     1
  0
ACDBDETAILVIEWSTYLE
  5
6A
102
{ACAD_REACTORS
330
69
102
}
330
69
100
AcDbModelDocViewStyle
 70
     0
  3
Imperial24
290
     0
300
Imperial24
 90
        0
100
AcDbDetailViewStyle
 70
     0
 71
     0
 90
        3
 71
     1
340
55
 62
   256
 40
0.24
340
0
 62
   256
 40
0.24
300

 40
0.36
280
     3
 71
     2
340
5C
 90
       25
 62
   256
 71
     3
340
55
 62
   256
 40
0.24
 90
        1
 40
0.75
 90
        1
300
%<\AcVar ViewType \f "%tc1">% %<\AcVar ViewDetailId>%\PSCALE %<\AcVar ViewScale \f "%sn">%
 71
     4
340
5C
 90
       25
 62
   256
340
5C
 90
       25
 62
   256
280
     0
  0
GROUP
  5
1BA
102
{ACAD_REACTORS
330
D
102
}
330
D
100
AcDbGroup
300

 70
     1
 71
     1
340
1B9
340
1B8
340
1B7
  0
GROUP
  5
1BC
102
{ACAD_REACTORS
330
D
102
}
330
D
100
AcDbGroup
300

 70
     1
 71
     1
340
1AA
340
1A9
340
1A8
340
1A7
340
1A6
340
1A5
340
1A4
340
1A3
340
1A2
340
1A1
340
1A0
340
19F
340
19E
340
19D
340
19C
340
19B
340
19A
340
199
340
198
340
197
340
196
340
195
340
194
340
193
340
192
340
191
340
190
340
18F
340
18E
340
18D
340
18C
340
18B
340
18A
340
189
340
188
340
187
340
186
340
185
340
184
340
183
340
182
340
181
340
180
340
17F
340
17E
340
17D
340
17C
340
17B
340
17A
340
179
340
178
340
177
340
176
340
175
340
174
340
173
340
172
340
171
340
170
340
16F
340
16E
340
16D
340
16C
340
16B
340
16A
340
169
340
168
340
167
340
166
340
165
340
164
340
163
340
162
340
161
340
160
340
15F
340
15E
340
15D
340
15C
340
15B
340
15A
340
159
340
158
340
157
340
156
340
155
340
154
340
153
340
152
340
151
340
150
340
14F
340
14E
340
14D
340
14C
340
14B
340
14A
340
149
340
148
340
147
340
146
340
145
340
144
340
143
340
142
340
141
340
140
340
13F
340
13E
340
13D
340
13C
340
13B
340
13A
340
139
340
138
340
137
340
136
340
135
340
134
340
133
340
132
340
131
340
130
340
12F
340
12E
340
12D
340
12C
340
12B
340
12A
340
129
340
128
340
127
340
126
340
125
340
124
340
123
340
122
340
121
340
120
340
11F
340
11E
340
11D
340
11C
340
11B
340
11A
340
119
340
118
340
117
340
116
340
115
340
114
340
113
340
112
340
111
340
110
340
10F
340
10E
340
10D
340
10C
340
10B
340
10A
340
109
340
108
340
107
340
106
340
105
340
104
340
103
340
102
340
101
340
100
340
FF
340
FE
340
FD
340
FC
340
FB
340
FA
340
F9
340
F8
340
F7
340
F6
340
F5
340
F4
340
F3
340
F2
340
F1
340
F0
340
EF
340
EE
340
ED
340
EC
340
EB
340
EA
340
E9
340
E8
340
E7
340
E6
340
E5
340
E4
340
E3
340
E2
340
E1
340
E0
340
DF
340
DE
340
DD
340
DC
340
DB
340
DA
340
D9
340
D8
340
D7
340
D6
340
D5
340
D4
340
D3
340
D2
340
D1
340
D0
340
CF
340
CE
340
CD
340
CC
340
CB
340
CA
340
C9
340
C8
340
C7
340
C6
340
C5
340
C4
340
C3
340
C2
340
C1
340
C0
340
BF
340
BE
340
BD
340
BC
340
BB
340
BA
340
B9
340
B8
340
B7
340
B6
340
B5
340
B4
340
B3
340
B2
340
B1
340
B0
340
AF
340
AE
340
AD
340
AC
340
AB
340
AA
340
A9
340
A8
340
A7
340
A6
340
A5
340
A4
340
A3
340
A2
340
A1
340
A0
340
9F
340
9E
340
9D
340
9C
340
9B
340
9A
340
99
340
98
340
97
340
96
340
95
340
94
340
93
340
92
340
91
340
90
340
8F
340
8E
340
8D
340
8C
340
8B
340
8A
340
89
340
88
340
87
340
86
340
85
340
84
340
83
340
82
340
81
340
80
340
7F
340
7E
340
7D
340
7C
340
7B
340
7A
340
79
340
78
340
77
340
76
340
75
340
74
340
73
  0
LAYOUT
  5
6E
102
{ACAD_REACTORS
330
61
102
}
330
61
100
AcDbPlotSettings
  1

  2
EPSON067FEE (WF-3520 Series)
  4

  6

 40
0.0
 41
0.0
 42
0.0
 43
0.0
 44
0.0
 45
0.0
 46
0.0
 47
0.0
 48
0.0
 49
0.0
140
0.0
141
0.0
142
1.0
143
1.0
 70
   688
 72
     0
 73
     0
 74
     5
  7

 75
    16
147
1.0
 76
     0
 77
     2
 78
   300
148
0.0
149
0.0
100
AcDbLayout
  1
Layout1
 70
     1
 71
     1
 10
0.0
 20
0.0
 11
12.0
 21
9.0
 12
0.0
 22
0.0
 32
0.0
 14
1.000000000000000E+20
 24
1.000000000000000E+20
 34
1.000000000000000E+20
 15
-1.000000000000000E+20
 25
-1.000000000000000E+20
 35
-1.000000000000000E+20
146
0.0
 13
0.0
 23
0.0
 33
0.0
 16
1.0
 26
0.0
 36
0.0
 17
0.0
 27
1.0
 37
0.0
 76
     0
330
6B
  0
LAYOUT
  5
72
102
{ACAD_REACTORS
330
61
102
}
330
61
100
AcDbPlotSettings
  1

  2
EPSON067FEE (WF-3520 Series)
  4

  6

 40
0.0
 41
0.0
 42
0.0
 43
0.0
 44
0.0
 45
0.0
 46
0.0
 47
0.0
 48
0.0
 49
0.0
140
0.0
141
0.0
142
1.0
143
1.0
 70
  1712
 72
     0
 73
     0
 74
     0
  7

 75
     0
147
1.0
 76
     0
 77
     2
 78
   300
148
0.0
149
0.0
100
AcDbLayout
  1
Model
 70
     1
 71
     0
 10
0.0
 20
0.0
 11
12.0
 21
9.0
 12
0.0
 22
0.0
 32
0.0
 14
0.0
 24
0.0
 34
0.0
 15
0.0
 25
0.0
 35
0.0
146
0.0
 13
0.0
 23
0.0
 33
0.0
 16
1.0
 26
0.0
 36
0.0
 17
0.0
 27
1.0
 37
0.0
 76
     0
330
6F
331
1AE
  0
MATERIAL
  5
19
102
{ACAD_XDICTIONARY
360
1A
102
}
102
{ACAD_REACTORS
330
10
102
}
330
10
100
AcDbMaterial
  1
ByBlock
 72
     0
 43
0.0208333333333333
 43
0.0
 43
0.0
 43
0.0
 43
0.0
 43
0.0208333333333333
 43
0.0
 43
0.0
 43
0.0
 43
0.0
 43
1.0
 43
0.0
 43
0.0
 43
0.0
 43
0.0
 43
1.0
 77
     0
 47
0.0208333333333333
 47
0.0
 47
0.0
 47
0.0
 47
0.0
 47
0.0208333333333333
 47
0.0
 47
0.0
 47
0.0
 47
0.0
 47
1.0
 47
0.0
 47
0.0
 47
0.0
 47
0.0
 47
1.0
171
     0
 49
0.0208333333333333
 49
0.0
 49
0.0
 49
0.0
 49
0.0
 49
0.0208333333333333
 49
0.0
 49
0.0
 49
0.0
 49
0.0
 49
1.0
 49
0.0
 49
0.0
 49
0.0
 49
0.0
 49
1.0
175
     0
142
0.0208333333333333
142
0.0
142
0.0
142
0.0
142
0.0
142
0.0208333333333333
142
0.0
142
0.0
142
0.0
142
0.0
142
1.0
142
0.0
142
0.0
142
0.0
142
0.0
142
1.0
179
     0
144
0.0208333333333333
144
0.0
144
0.0
144
0.0
144
0.0
144
0.0208333333333333
144
0.0
144
0.0
144
0.0
144
0.0
144
1.0
144
0.0
144
0.0
144
0.0
144
0.0
144
1.0
147
0.0208333333333333
147
0.0
147
0.0
147
0.0
147
0.0
147
0.0208333333333333
147
0.0
147
0.0
147
0.0
147
0.0
147
1.0
147
0.0
147
0.0
147
0.0
147
0.0
147
1.0
  0
MATERIAL
  5
11
102
{ACAD_XDICTIONARY
360
12
102
}
102
{ACAD_REACTORS
330
10
102
}
330
10
100
AcDbMaterial
  1
ByLayer
 72
     0
 43
0.0208333333333333
 43
0.0
 43
0.0
 43
0.0
 43
0.0
 43
0.0208333333333333
 43
0.0
 43
0.0
 43
0.0
 43
0.0
 43
1.0
 43
0.0
 43
0.0
 43
0.0
 43
0.0
 43
1.0
 77
     0
 47
0.0208333333333333
 47
0.0
 47
0.0
 47
0.0
 47
0.0
 47
0.0208333333333333
 47
0.0
 47
0.0
 47
0.0
 47
0.0
 47
1.0
 47
0.0
 47
0.0
 47
0.0
 47
0.0
 47
1.0
171
     0
 49
0.0208333333333333
 49
0.0
 49
0.0
 49
0.0
 49
0.0
 49
0.0208333333333333
 49
0.0
 49
0.0
 49
0.0
 49
0.0
 49
1.0
 49
0.0
 49
0.0
 49
0.0
 49
0.0
 49
1.0
175
     0
142
0.0208333333333333
142
0.0
142
0.0
142
0.0
142
0.0
142
0.0208333333333333
142
0.0
142
0.0
142
0.0
142
0.0
142
1.0
142
0.0
142
0.0
142
0.0
142
0.0
142
1.0
179
     0
144
0.0208333333333333
144
0.0
144
0.0
144
0.0
144
0.0
144
0.0208333333333333
144
0.0
144
0.0
144
0.0
144
0.0
144
1.0
144
0.0
144
0.0
144
0.0
144
0.0
144
1.0
147
0.0208333333333333
147
0.0
147
0.0
147
0.0
147
0.0
147
0.0208333333333333
147
0.0
147
0.0
147
0.0
147
0.0
147
1.0
147
0.0
147
0.0
147
0.0
147
0.0
147
1.0
  0
MATERIAL
  5
21
102
{ACAD_XDICTIONARY
360
22
102
}
102
{ACAD_REACTORS
330
10
102
}
330
10
100
AcDbMaterial
  1
Global
 72
     0
 43
0.0208333333333333
 43
0.0
 43
0.0
 43
0.0
 43
0.0
 43
0.0208333333333333
 43
0.0
 43
0.0
 43
0.0
 43
0.0
 43
1.0
 43
0.0
 43
0.0
 43
0.0
 43
0.0
 43
1.0
 77
     0
 47
0.0208333333333333
 47
0.0
 47
0.0
 47
0.0
 47
0.0
 47
0.0208333333333333
 47
0.0
 47
0.0
 47
0.0
 47
0.0
 47
1.0
 47
0.0
 47
0.0
 47
0.0
 47
0.0
 47
1.0
171
     0
 49
0.0208333333333333
 49
0.0
 49
0.0
 49
0.0
 49
0.0
 49
0.0208333333333333
 49
0.0
 49
0.0
 49
0.0
 49
0.0
 49
1.0
 49
0.0
 49
0.0
 49
0.0
 49
0.0
 49
1.0
175
     0
142
0.0208333333333333
142
0.0
142
0.0
142
0.0
142
0.0
142
0.0208333333333333
142
0.0
142
0.0
142
0.0
142
0.0
142
1.0
142
0.0
142
0.0
142
0.0
142
0.0
142
1.0
179
     0
144
0.0208333333333333
144
0.0
144
0.0
144
0.0
144
0.0
144
0.0208333333333333
144
0.0
144
0.0
144
0.0
144
0.0
144
1.0
144
0.0
144
0.0
144
0.0
144
0.0
144
1.0
147
0.0208333333333333
147
0.0
147
0.0
147
0.0
147
0.0
147
0.0208333333333333
147
0.0
147
0.0
147
0.0
147
0.0
147
1.0
147
0.0
147
0.0
147
0.0
147
0.0
147
1.0
  0
MLEADERSTYLE
  5
66
102
{ACAD_REACTORS
330
65
102
}
330
65
100
AcDbMLeaderStyle
179
     2
170
     2
171
     1
172
     0
 90
        2
 40
0.0
 41
0.0
173
     1
 91
-1056964608
340
5A
 92
       -2
290
     1
 42
0.09
291
     1
 43
0.36
  3
Standard
 44
0.18
300

342
55
174
     1
178
     6
175
     1
176
     0
 93
-1056964608
 45
0.18
292
     0
297
     0
 46
0.18
 94
-1056964608
 47
1.0
 49
1.0
140
1.0
293
     1
141
0.0
294
     1
177
     0
142
1.0
295
     0
296
     0
143
0.125
271
     0
272
     9
273
     9
298
     0
  0
MLINESTYLE
  5
5F
102
{ACAD_REACTORS
330
5E
102
}
330
5E
100
AcDbMlineStyle
  2
STANDARD
 70
     0
  3

 62
   256
 51
90.0
 52
90.0
 71
     2
 49
0.5
 62
   256
  6
BYLAYER
 49
-0.5
 62
   256
  6
BYLAYER
  0
ACDBPLACEHOLDER
  5
F
102
{ACAD_REACTORS
330
E
102
}
330
E
  0
SCALE
  5
43
102
{ACAD_REACTORS
330
42
102
}
330
42
100
AcDbScale
 70
     0
300
1:1
140
1.0
141
1.0
290
     1
  0
SCALE
  5
44
102
{ACAD_REACTORS
330
42
102
}
330
42
100
AcDbScale
 70
     0
300
1/128" = 1'-0"
140
0.0078125
141
12.0
290
     0
  0
SCALE
  5
45
102
{ACAD_REACTORS
330
42
102
}
330
42
100
AcDbScale
 70
     0
300
1/64" = 1'-0"
140
0.015625
141
12.0
290
     0
  0
SCALE
  5
46
102
{ACAD_REACTORS
330
42
102
}
330
42
100
AcDbScale
 70
     0
300
1/32" = 1'-0"
140
0.03125
141
12.0
290
     0
  0
SCALE
  5
47
102
{ACAD_REACTORS
330
42
102
}
330
42
100
AcDbScale
 70
     0
300
1/16" = 1'-0"
140
0.0625
141
12.0
290
     0
  0
SCALE
  5
48
102
{ACAD_REACTORS
330
42
102
}
330
42
100
AcDbScale
 70
     0
300
3/32" = 1'-0"
140
0.09375
141
12.0
290
     0
  0
SCALE
  5
49
102
{ACAD_REACTORS
330
42
102
}
330
42
100
AcDbScale
 70
     0
300
1/8" = 1'-0"
140
0.125
141
12.0
290
     0
  0
SCALE
  5
4A
102
{ACAD_REACTORS
330
42
102
}
330
42
100
AcDbScale
 70
     0
300
3/16" = 1'-0"
140
0.1875
141
12.0
290
     0
  0
SCALE
  5
4B
102
{ACAD_REACTORS
330
42
102
}
330
42
100
AcDbScale
 70
     0
300
1/4" = 1'-0"
140
0.25
141
12.0
290
     0
  0
SCALE
  5
4C
102
{ACAD_REACTORS
330
42
102
}
330
42
100
AcDbScale
 70
     0
300
3/8" = 1'-0"
140
0.375
141
12.0
290
     0
  0
SCALE
  5
4D
102
{ACAD_REACTORS
330
42
102
}
330
42
100
AcDbScale
 70
     0
300
1/2" = 1'-0"
140
0.5
141
12.0
290
     0
  0
SCALE
  5
4E
102
{ACAD_REACTORS
330
42
102
}
330
42
100
AcDbScale
 70
     0
300
3/4" = 1'-0"
140
0.75
141
12.0
290
     0
  0
SCALE
  5
4F
102
{ACAD_REACTORS
330
42
102
}
330
42
100
AcDbScale
 70
     0
300
1" = 1'-0"
140
1.0
141
12.0
290
     0
  0
SCALE
  5
50
102
{ACAD_REACTORS
330
42
102
}
330
42
100
AcDbScale
 70
     0
300
1-1/2" = 1'-0"
140
1.5
141
12.0
290
     0
  0
SCALE
  5
51
102
{ACAD_REACTORS
330
42
102
}
330
42
100
AcDbScale
 70
     0
300
3" = 1'-0"
140
3.0
141
12.0
290
     0
  0
SCALE
  5
52
102
{ACAD_REACTORS
330
42
102
}
330
42
100
AcDbScale
 70
     0
300
6" = 1'-0"
140
6.0
141
12.0
290
     0
  0
SCALE
  5
53
102
{ACAD_REACTORS
330
42
102
}
330
42
100
AcDbScale
 70
     0
300
1'-0" = 1'-0"
140
12.0
141
12.0
290
     0
  0
ACDBSECTIONVIEWSTYLE
  5
68
102
{ACAD_REACTORS
330
67
102
}
330
67
100
AcDbModelDocViewStyle
 70
     0
  3
Imperial24
290
     0
300
Imperial24
 90
        0
100
AcDbSectionViewStyle
 70
     0
 71
     0
 90
       78
 71
     1
340
55
 62
   256
 40
0.24
340
0
340
0
 62
   256
 40
0.24
300
I, O, Q, S, X, Z
 40
0.48
 90
        3
 40
0.18
 90
        1
 71
     2
340
5C
 90
       25
 62
   256
340
5C
 90
       50
 62
   256
 40
0.24
 40
0.0
 40
0.24
 71
     3
340
55
 62
   256
 40
0.24
 90
        1
 40
0.75
 90
        1
300
%<\AcVar ViewType \f "%tc1">% %<\AcVar ViewSectionStartId>%-%<\AcVar ViewSectionEndId>%\PSCALE %<\AcVar ViewScale \f "%sn">%
 71
     4
 62
   256
 62
   257
300
ANSI31
 40
1.0
 90
        0
290
     0
290
     0
 90
        6
 40
0.0
 40
1.570796326794896
 40
0.2617993877991494
 40
1.308996938995747
 40
-0.2617993877991494
 40
1.832595714594046
  0
TABLESTYLE
  5
64
102
{ACAD_XDICTIONARY
360
1C9
102
}
102
{ACAD_REACTORS
330
63
102
}
330
63
100
AcDbTableStyle
280
     0
  3
Standard
 70
     0
 71
     0
 40
0.06
 41
0.06
280
     0
281
     0
  7
Standard
140
0.18
170
     2
 62
     0
 63
     7
283
     0
 90
      512
 91
        0
  1

274
    -2
284
     1
 64
     0
275
    -2
285
     1
 65
     0
276
    -2
286
     1
 66
     0
277
    -2
287
     1
 67
     0
278
    -2
288
     1
 68
     0
279
    -2
289
     1
 69
     0
  7
Standard
140
0.25
170
     5
 62
     0
 63
     7
283
     0
 90
      512
 91
        0
  1

274
    -2
284
     1
 64
     0
275
    -2
285
     1
 65
     0
276
    -2
286
     1
 66
     0
277
    -2
287
     1
 67
     0
278
    -2
288
     1
 68
     0
279
    -2
289
     1
 69
     0
  7
Standard
140
0.18
170
     5
 62
     0
 63
     7
283
     0
 90
      512
 91
        0
  1

274
    -2
284
     1
 64
     0
275
    -2
285
     1
 65
     0
276
    -2
286
     1
 66
     0
277
    -2
287
     1
 67
     0
278
    -2
288
     1
 68
     0
279
    -2
289
     1
 69
     0
  0
VISUALSTYLE
  5
2F
102
{ACAD_REACTORS
330
29
102
}
330
29
100
AcDbVisualStyle
  2
2dWireframe
 70
     4
177
     3
291
     0
 70
    58
 90
        0
176
     1
 90
        2
176
     1
 90
        0
176
     1
 90
        0
176
     1
 40
0.6
176
     1
 40
30.0
176
     1
 62
     7
420
 16777215
176
     1
 90
        1
176
     1
 90
        4
176
     1
 62
     7
176
     1
 62
   257
176
     1
 90
        1
176
     1
 90
        1
176
     1
 40
1.0
176
     1
 90
        0
176
     1
 62
   257
176
     1
 40
1.0
176
     1
 90
        1
176
     1
 90
        6
176
     1
 90
        2
176
     1
 62
     7
176
     1
 90
        5
176
     1
 90
        0
176
     1
 90
        0
176
     1
290
     0
176
     1
 90
        1
176
     1
 40
0.0
176
     1
 90
        0
176
     1
290
     1
176
     1
290
     1
176
     1
290
     0
176
     1
290
     0
176
     1
290
     0
176
     1
290
     0
176
     1
290
     0
176
     1
290
     0
176
     1
290
     0
176
     1
 90
       50
176
     1
 40
0.0
176
     1
 40
1.0
176
     1
 90
        0
176
     1
 62
    18
420
        0
176
     1
 90
       50
176
     1
 90
        3
176
     1
 62
     5
420
      255
176
     1
290
     0
176
     1
 90
       50
176
     1
 90
       50
176
     1
 90
       50
176
     1
290
     0
176
     1
 90
       50
176
     1
 62
   256
176
     0
 40
1.0
176
     0
 90
        2
176
     1
  1
strokes_ogs.tif
176
     1
290
     0
176
     1
 40
1.0
176
     1
 40
1.0
176
     1
  0
VISUALSTYLE
  5
2E
102
{ACAD_REACTORS
330
29
102
}
330
29
100
AcDbVisualStyle
  2
Basic
 70
     7
177
     3
291
     1
 70
    58
 90
        1
176
     1
 90
        0
176
     1
 90
        1
176
     1
 90
        0
176
     1
 40
0.6
176
     1
 40
30.0
176
     1
 62
     7
420
 16777215
176
     1
 90
        0
176
     1
 90
        4
176
     1
 62
     7
176
     1
 62
   257
176
     1
 90
        1
176
     1
 90
        1
176
     1
 40
1.0
176
     1
 90
        8
176
     1
 62
     7
176
     1
 40
1.0
176
     1
 90
        1
176
     1
 90
        6
176
     1
 90
        2
176
     1
 62
     7
176
     1
 90
        5
176
     1
 90
        0
176
     1
 90
        0
176
     1
290
     0
176
     1
 90
        1
176
     1
 40
0.0
176
     1
 90
        0
176
     1
290
     0
176
     1
290
     1
176
     1
290
     1
176
     1
290
     0
176
     1
290
     0
176
     1
290
     0
176
     1
290
     0
176
     1
290
     0
176
     1
290
     0
176
     1
 90
       50
176
     1
 40
0.0
176
     1
 40
1.0
176
     1
 90
        0
176
     1
 62
    18
420
        0
176
     1
 90
       50
176
     1
 90
        3
176
     1
 62
     5
420
      255
176
     1
290
     0
176
     1
 90
       50
176
     1
 90
       50
176
     1
 90
       50
176
     1
290
     0
176
     1
 90
       50
176
     1
 62
   256
176
     0
 40
1.0
176
     0
 90
        2
176
     1
  1
strokes_ogs.tif
176
     1
290
     0
176
     1
 40
1.0
176
     1
 40
1.0
176
     1
  0
VISUALSTYLE
  5
35
102
{ACAD_REACTORS
330
29
102
}
330
29
100
AcDbVisualStyle
  2
Brighten
 70
    12
177
     3
291
     1
 70
    58
 90
        2
176
     1
 90
        2
176
     1
 90
        0
176
     1
 90
        0
176
     1
 40
0.6
176
     1
 40
30.0
176
     1
 62
     7
420
 16777215
176
     1
 90
        1
176
     1
 90
        4
176
     1
 62
     7
176
     1
 62
   257
176
     1
 90
        1
176
     1
 90
        1
176
     1
 40
1.0
176
     1
 90
        8
176
     1
 62
     7
176
     1
 40
1.0
176
     1
 90
        1
176
     1
 90
        6
176
     1
 90
        2
176
     1
 62
     7
176
     1
 90
        5
176
     1
 90
        0
176
     1
 90
        0
176
     1
290
     0
176
     1
 90
        1
176
     1
 40
50.0
176
     1
 90
        0
176
     1
290
     0
176
     1
290
     1
176
     1
290
     1
176
     1
290
     0
176
     1
290
     0
176
     1
290
     0
176
     1
290
     0
176
     1
290
     0
176
     1
290
     0
176
     1
 90
       50
176
     1
 40
0.0
176
     1
 40
1.0
176
     1
 90
        0
176
     1
 62
    18
420
        0
176
     1
 90
       50
176
     1
 90
        3
176
     1
 62
     5
420
      255
176
     1
290
     0
176
     1
 90
       50
176
     1
 90
       50
176
     1
 90
       50
176
     1
290
     0
176
     1
 90
       50
176
     1
 62
   256
176
     0
 40
1.0
176
     0
 90
        2
176
     1
  1
strokes_ogs.tif
176
     1
290
     0
176
     1
 40
1.0
176
     1
 40
1.0
176
     1
  0
VISUALSTYLE
  5
39
102
{ACAD_REACTORS
330
29
102
}
330
29
100
AcDbVisualStyle
  2
ColorChange
 70
    16
177
     3
291
     1
 70
    58
 90
        2
176
     1
 90
        2
176
     1
 90
        3
176
     1
 90
        0
176
     1
 40
0.6
176
     1
 40
30.0
176
     1
 62
     8
420
  8421504
176
     1
 90
        1
176
     1
 90
        4
176
     1
 62
     7
176
     1
 62
   257
176
     1
 90
        1
176
     1
 90
        1
176
     1
 40
1.0
176
     1
 90
        8
176
     1
 62
     8
420
  8421504
176
     1
 40
1.0
176
     1
 90
        1
176
     1
 90
        6
176
     1
 90
        2
176
     1
 62
     7
176
     1
 90
        5
176
     1
 90
        0
176
     1
 90
        0
176
     1
290
     0
176
     1
 90
        1
176
     1
 40
0.0
176
     1
 90
        0
176
     1
290
     0
176
     1
290
     1
176
     1
290
     1
176
     1
290
     0
176
     1
290
     0
176
     1
290
     0
176
     1
290
     0
176
     1
290
     0
176
     1
290
     0
176
     1
 90
       50
176
     1
 40
0.0
176
     1
 40
1.0
176
     1
 90
        0
176
     1
 62
    18
420
        0
176
     1
 90
       50
176
     1
 90
        3
176
     1
 62
     5
420
      255
176
     1
290
     0
176
     1
 90
       50
176
     1
 90
       50
176
     1
 90
       50
176
     1
290
     0
176
     1
 90
       50
176
     1
 62
   256
176
     0
 40
1.0
176
     0
 90
        2
176
     1
  1
strokes_ogs.tif
176
     1
290
     0
176
     1
 40
1.0
176
     1
 40
1.0
176
     1
  0
VISUALSTYLE
  5
32
102
{ACAD_REACTORS
330
29
102
}
330
29
100
AcDbVisualStyle
  2
Conceptual
 70
     9
177
     3
291
     0
 70
    58
 90
        3
176
     1
 90
        2
176
     1
 90
        0
176
     1
 90
        0
176
     1
 40
0.6
176
     1
 40
30.0
176
     1
 62
     7
420
 16777215
176
     1
 90
        2
176
     1
 90
        2
176
     1
 62
     7
176
     1
 62
   257
176
     1
 90
        1
176
     1
 90
        1
176
     1
 40
179.0
176
     1
 90
        8
176
     1
 62
     7
176
     1
 40
1.0
176
     1
 90
        1
176
     1
 90
        6
176
     1
 90
        2
176
     1
 62
     7
176
     1
 90
        3
176
     1
 90
        0
176
     1
 90
        0
176
     1
290
     0
176
     1
 90
        1
176
     1
 40
0.0
176
     1
 90
        0
176
     1
290
     0
176
     1
290
     1
176
     1
290
     1
176
     1
290
     0
176
     1
290
     0
176
     1
290
     0
176
     1
290
     0
176
     1
290
     0
176
     1
290
     0
176
     1
 90
       50
176
     1
 40
0.0
176
     1
 40
1.0
176
     1
 90
        0
176
     1
 62
    18
420
        0
176
     1
 90
       50
176
     1
 90
        3
176
     1
 62
     5
420
      255
176
     1
290
     0
176
     1
 90
       50
176
     1
 90
       50
176
     1
 90
       50
176
     1
290
     0
176
     1
 90
       50
176
     1
 62
   256
176
     0
 40
1.0
176
     0
 90
        2
176
     1
  1
strokes_ogs.tif
176
     1
290
     0
176
     1
 40
1.0
176
     1
 40
1.0
176
     1
  0
VISUALSTYLE
  5
34
102
{ACAD_REACTORS
330
29
102
}
330
29
100
AcDbVisualStyle
  2
Dim
 70
    11
177
     3
291
     1
 70
    58
 90
        2
176
     1
 90
        2
176
     1
 90
        0
176
     1
 90
        0
176
     1
 40
0.6
176
     1
 40
30.0
176
     1
 62
     7
420
 16777215
176
     1
 90
        1
176
     1
 90
        4
176
     1
 62
     7
176
     1
 62
   257
176
     1
 90
        1
176
     1
 90
        1
176
     1
 40
1.0
176
     1
 90
        8
176
     1
 62
     7
176
     1
 40
1.0
176
     1
 90
        1
176
     1
 90
        6
176
     1
 90
        2
176
     1
 62
     7
176
     1
 90
        5
176
     1
 90
        0
176
     1
 90
        0
176
     1
290
     0
176
     1
 90
        1
176
     1
 40
-50.0
176
     1
 90
        0
176
     1
290
     0
176
     1
290
     1
176
     1
290
     1
176
     1
290
     0
176
     1
290
     0
176
     1
290
     0
176
     1
290
     0
176
     1
290
     0
176
     1
290
     0
176
     1
 90
       50
176
     1
 40
0.0
176
     1
 40
1.0
176
     1
 90
        0
176
     1
 62
    18
420
        0
176
     1
 90
       50
176
     1
 90
        3
176
     1
 62
     5
420
      255
176
     1
290
     0
176
     1
 90
       50
176
     1
 90
       50
176
     1
 90
       50
176
     1
290
     0
176
     1
 90
       50
176
     1
 62
   256
176
     0
 40
1.0
176
     0
 90
        2
176
     1
  1
strokes_ogs.tif
176
     1
290
     0
176
     1
 40
1.0
176
     1
 40
1.0
176
     1
  0
VISUALSTYLE
  5
41
102
{ACAD_REACTORS
330
29
102
}
330
29
100
AcDbVisualStyle
  2
EdgeColorOff
 70
    22
177
     3
291
     1
 70
    58
 90
        2
176
     0
 90
        2
176
     0
 90
        0
176
     0
 90
        0
176
     0
 40
0.6
176
     0
 40
30.0
176
     0
 62
     7
420
 16777215
176
     0
 90
        1
176
     0
 90
        4
176
     0
 62
     7
176
     0
 62
   257
176
     0
 90
        1
176
     0
 90
        1
176
     0
 40
1.0
176
     0
 90
        8
176
     2
 62
     7
176
     0
 40
1.0
176
     0
 90
        1
176
     0
 90
        6
176
     0
 90
        2
176
     0
 62
     7
176
     0
 90
        5
176
     0
 90
        0
176
     0
 90
        0
176
     0
290
     0
176
     0
 90
        1
176
     0
 40
0.0
176
     0
 90
        0
176
     0
290
     0
176
     1
290
     1
176
     1
290
     1
176
     1
290
     0
176
     1
290
     0
176
     1
290
     0
176
     1
290
     0
176
     1
290
     0
176
     1
290
     0
176
     1
 90
       50
176
     0
 40
0.0
176
     0
 40
1.0
176
     0
 90
        0
176
     0
 62
    18
420
        0
176
     0
 90
       50
176
     0
 90
        3
176
     0
 62
     5
420
      255
176
     0
290
     0
176
     1
 90
       50
176
     0
 90
       50
176
     0
 90
       50
176
     0
290
     0
176
     1
 90
       50
176
     0
 62
   256
176
     0
 40
1.0
176
     0
 90
        2
176
     0
  1
strokes_ogs.tif
176
     0
290
     0
176
     1
 40
1.0
176
     0
 40
1.0
176
     0
  0
VISUALSTYLE
  5
38
102
{ACAD_REACTORS
330
29
102
}
330
29
100
AcDbVisualStyle
  2
Facepattern
 70
    15
177
     3
291
     1
 70
    58
 90
        2
176
     1
 90
        2
176
     1
 90
        0
176
     1
 90
        0
176
     1
 40
0.6
176
     1
 40
30.0
176
     1
 62
     7
420
 16777215
176
     1
 90
        1
176
     1
 90
        4
176
     1
 62
     7
176
     1
 62
   257
176
     1
 90
        1
176
     1
 90
        1
176
     1
 40
1.0
176
     1
 90
        8
176
     1
 62
     7
176
     1
 40
1.0
176
     1
 90
        1
176
     1
 90
        6
176
     1
 90
        2
176
     1
 62
     7
176
     1
 90
        5
176
     1
 90
        0
176
     1
 90
        0
176
     1
290
     0
176
     1
 90
        1
176
     1
 40
0.0
176
     1
 90
        0
176
     1
290
     0
176
     1
290
     1
176
     1
290
     1
176
     1
290
     0
176
     1
290
     0
176
     1
290
     0
176
     1
290
     0
176
     1
290
     0
176
     1
290
     0
176
     1
 90
       50
176
     1
 40
0.0
176
     1
 40
1.0
176
     1
 90
        0
176
     1
 62
    18
420
        0
176
     1
 90
       50
176
     1
 90
        3
176
     1
 62
     5
420
      255
176
     1
290
     0
176
     1
 90
       50
176
     1
 90
       50
176
     1
 90
       50
176
     1
290
     0
176
     1
 90
       50
176
     1
 62
   256
176
     0
 40
1.0
176
     0
 90
        2
176
     1
  1
strokes_ogs.tif
176
     1
290
     0
176
     1
 40
1.0
176
     1
 40
1.0
176
     1
  0
VISUALSTYLE
  5
2A
102
{ACAD_REACTORS
330
29
102
}
330
29
100
AcDbVisualStyle
  2
Flat
 70
     0
177
     3
291
     1
 70
    58
 90
        2
176
     1
 90
        1
176
     1
 90
        1
176
     1
 90
        2
176
     1
 40
0.6
176
     1
 40
30.0
176
     1
 62
     7
420
 16777215
176
     1
 90
        0
176
     1
 90
        0
176
     1
 62
     7
176
     1
 62
   257
176
     1
 90
        1
176
     1
 90
        1
176
     1
 40
1.0
176
     1
 90
        8
176
     1
 62
     7
176
     1
 40
1.0
176
     1
 90
        1
176
     1
 90
        6
176
     1
 90
        2
176
     1
 62
     7
176
     1
 90
        5
176
     1
 90
        0
176
     1
 90
        0
176
     1
290
     0
176
     1
 90
       13
176
     1
 40
0.0
176
     1
 90
        0
176
     1
290
     0
176
     1
290
     1
176
     1
290
     1
176
     1
290
     0
176
     1
290
     0
176
     1
290
     0
176
     1
290
     0
176
     1
290
     0
176
     1
290
     0
176
     1
 90
       50
176
     1
 40
0.0
176
     1
 40
1.0
176
     1
 90
        0
176
     1
 62
    18
420
        0
176
     1
 90
       50
176
     1
 90
        3
176
     1
 62
     5
420
      255
176
     1
290
     0
176
     1
 90
       50
176
     1
 90
       50
176
     1
 90
       50
176
     1
290
     0
176
     1
 90
       50
176
     1
 62
   256
176
     0
 40
1.0
176
     0
 90
        2
176
     1
  1
strokes_ogs.tif
176
     1
290
     0
176
     1
 40
1.0
176
     1
 40
1.0
176
     1
  0
VISUALSTYLE
  5
2B
102
{ACAD_REACTORS
330
29
102
}
330
29
100
AcDbVisualStyle
  2
FlatWithEdges
 70
     1
177
     3
291
     1
 70
    58
 90
        2
176
     1
 90
        1
176
     1
 90
        1
176
     1
 90
        2
176
     1
 40
0.6
176
     1
 40
30.0
176
     1
 62
     7
420
 16777215
176
     1
 90
        1
176
     1
 90
        0
176
     1
 62
     7
176
     1
 62
   257
176
     1
 90
        1
176
     1
 90
        1
176
     1
 40
1.0
176
     1
 90
        0
176
     1
 62
   257
176
     1
 40
1.0
176
     1
 90
        1
176
     1
 90
        6
176
     1
 90
        2
176
     1
 62
     7
176
     1
 90
        5
176
     1
 90
        0
176
     1
 90
        0
176
     1
290
     0
176
     1
 90
       13
176
     1
 40
0.0
176
     1
 90
        0
176
     1
290
     0
176
     1
290
     1
176
     1
290
     1
176
     1
290
     0
176
     1
290
     0
176
     1
290
     0
176
     1
290
     0
176
     1
290
     0
176
     1
290
     0
176
     1
 90
       50
176
     1
 40
0.0
176
     1
 40
1.0
176
     1
 90
        0
176
     1
 62
    18
420
        0
176
     1
 90
       50
176
     1
 90
        3
176
     1
 62
     5
420
      255
176
     1
290
     0
176
     1
 90
       50
176
     1
 90
       50
176
     1
 90
       50
176
     1
290
     0
176
     1
 90
       50
176
     1
 62
   256
176
     0
 40
1.0
176
     0
 90
        2
176
     1
  1
strokes_ogs.tif
176
     1
290
     0
176
     1
 40
1.0
176
     1
 40
1.0
176
     1
  0
VISUALSTYLE
  5
2C
102
{ACAD_REACTORS
330
29
102
}
330
29
100
AcDbVisualStyle
  2
Gouraud
 70
     2
177
     3
291
     1
 70
    58
 90
        2
176
     1
 90
        2
176
     1
 90
        1
176
     1
 90
        2
176
     1
 40
0.6
176
     1
 40
30.0
176
     1
 62
     7
420
 16777215
176
     1
 90
        0
176
     1
 90
        0
176
     1
 62
     7
176
     1
 62
   257
176
     1
 90
        1
176
     1
 90
        1
176
     1
 40
1.0
176
     1
 90
        0
176
     1
 62
     7
176
     1
 40
1.0
176
     1
 90
        1
176
     1
 90
        6
176
     1
 90
        2
176
     1
 62
     7
176
     1
 90
        5
176
     1
 90
        0
176
     1
 90
        0
176
     1
290
     0
176
     1
 90
       13
176
     1
 40
0.0
176
     1
 90
        0
176
     1
290
     0
176
     1
290
     1
176
     1
290
     1
176
     1
290
     0
176
     1
290
     0
176
     1
290
     0
176
     1
290
     0
176
     1
290
     0
176
     1
290
     0
176
     1
 90
       50
176
     1
 40
0.0
176
     1
 40
1.0
176
     1
 90
        0
176
     1
 62
    18
420
        0
176
     1
 90
       50
176
     1
 90
        3
176
     1
 62
     5
420
      255
176
     1
290
     0
176
     1
 90
       50
176
     1
 90
       50
176
     1
 90
       50
176
     1
290
     0
176
     1
 90
       50
176
     1
 62
   256
176
     0
 40
1.0
176
     0
 90
        2
176
     1
  1
strokes_ogs.tif
176
     1
290
     0
176
     1
 40
1.0
176
     1
 40
1.0
176
     1
  0
VISUALSTYLE
  5
2D
102
{ACAD_REACTORS
330
29
102
}
330
29
100
AcDbVisualStyle
  2
GouraudWithEdges
 70
     3
177
     3
291
     1
 70
    58
 90
        2
176
     1
 90
        2
176
     1
 90
        1
176
     1
 90
        2
176
     1
 40
0.6
176
     1
 40
30.0
176
     1
 62
     7
420
 16777215
176
     1
 90
        1
176
     1
 90
        0
176
     1
 62
     7
176
     1
 62
   257
176
     1
 90
        1
176
     1
 90
        1
176
     1
 40
1.0
176
     1
 90
        0
176
     1
 62
   257
176
     1
 40
1.0
176
     1
 90
        1
176
     1
 90
        6
176
     1
 90
        2
176
     1
 62
     7
176
     1
 90
        5
176
     1
 90
        0
176
     1
 90
        0
176
     1
290
     0
176
     1
 90
       13
176
     1
 40
0.0
176
     1
 90
        0
176
     1
290
     0
176
     1
290
     1
176
     1
290
     1
176
     1
290
     0
176
     1
290
     0
176
     1
290
     0
176
     1
290
     0
176
     1
290
     0
176
     1
290
     0
176
     1
 90
       50
176
     1
 40
0.0
176
     1
 40
1.0
176
     1
 90
        0
176
     1
 62
    18
420
        0
176
     1
 90
       50
176
     1
 90
        3
176
     1
 62
     5
420
      255
176
     1
290
     0
176
     1
 90
       50
176
     1
 90
       50
176
     1
 90
       50
176
     1
290
     0
176
     1
 90
       50
176
     1
 62
   256
176
     0
 40
1.0
176
     0
 90
        2
176
     1
  1
strokes_ogs.tif
176
     1
290
     0
176
     1
 40
1.0
176
     1
 40
1.0
176
     1
  0
VISUALSTYLE
  5
31
102
{ACAD_REACTORS
330
29
102
}
330
29
100
AcDbVisualStyle
  2
Hidden
 70
     6
177
     3
291
     0
 70
    58
 90
        1
176
     1
 90
        2
176
     1
 90
        2
176
     1
 90
        0
176
     1
 40
0.6
176
     1
 40
30.0
176
     1
 62
     7
420
 16777215
176
     1
 90
        2
176
     1
 90
        2
176
     1
 62
     7
176
     1
 62
   257
176
     1
 90
        2
176
     1
 90
        1
176
     1
 40
40.0
176
     1
 90
        0
176
     1
 62
   257
176
     1
 40
1.0
176
     1
 90
        1
176
     1
 90
        6
176
     1
 90
        2
176
     1
 62
     7
176
     1
 90
        3
176
     1
 90
        0
176
     1
 90
        0
176
     1
290
     0
176
     1
 90
        1
176
     1
 40
0.0
176
     1
 90
        0
176
     1
290
     0
176
     1
290
     1
176
     1
290
     1
176
     1
290
     0
176
     1
290
     0
176
     1
290
     0
176
     1
290
     0
176
     1
290
     0
176
     1
290
     0
176
     1
 90
       50
176
     1
 40
0.0
176
     1
 40
1.0
176
     1
 90
        0
176
     1
 62
    18
420
        0
176
     1
 90
       50
176
     1
 90
        3
176
     1
 62
     5
420
      255
176
     1
290
     0
176
     1
 90
       50
176
     1
 90
       50
176
     1
 90
       50
176
     1
290
     0
176
     1
 90
       50
176
     1
 62
   256
176
     0
 40
1.0
176
     0
 90
        2
176
     1
  1
strokes_ogs.tif
176
     1
290
     0
176
     1
 40
1.0
176
     1
 40
1.0
176
     1
  0
VISUALSTYLE
  5
3F
102
{ACAD_REACTORS
330
29
102
}
330
29
100
AcDbVisualStyle
  2
JitterOff
 70
    20
177
     3
291
     1
 70
    58
 90
        2
176
     0
 90
        2
176
     0
 90
        0
176
     0
 90
        0
176
     0
 40
0.6
176
     0
 40
30.0
176
     0
 62
     7
420
 16777215
176
     0
 90
        1
176
     0
 90
        4
176
     0
 62
     7
176
     0
 62
   257
176
     0
 90
        1
176
     0
 90
        1
176
     0
 40
1.0
176
     0
 90
       10
176
     2
 62
     7
176
     0
 40
1.0
176
     0
 90
        1
176
     0
 90
        6
176
     0
 90
        2
176
     0
 62
     7
176
     0
 90
        5
176
     0
 90
        0
176
     0
 90
        0
176
     0
290
     0
176
     0
 90
        1
176
     0
 40
0.0
176
     0
 90
        0
176
     0
290
     0
176
     1
290
     1
176
     1
290
     1
176
     1
290
     0
176
     1
290
     0
176
     1
290
     0
176
     1
290
     0
176
     1
290
     0
176
     1
290
     0
176
     1
 90
       50
176
     0
 40
0.0
176
     0
 40
1.0
176
     0
 90
        0
176
     0
 62
    18
420
        0
176
     0
 90
       50
176
     0
 90
        3
176
     0
 62
     5
420
      255
176
     0
290
     0
176
     1
 90
       50
176
     0
 90
       50
176
     0
 90
       50
176
     0
290
     0
176
     1
 90
       50
176
     0
 62
   256
176
     0
 40
1.0
176
     0
 90
        2
176
     0
  1
strokes_ogs.tif
176
     0
290
     0
176
     1
 40
1.0
176
     0
 40
1.0
176
     0
  0
VISUALSTYLE
  5
37
102
{ACAD_REACTORS
330
29
102
}
330
29
100
AcDbVisualStyle
  2
Linepattern
 70
    14
177
     3
291
     1
 70
    58
 90
        2
176
     1
 90
        2
176
     1
 90
        0
176
     1
 90
        0
176
     1
 40
0.6
176
     1
 40
30.0
176
     1
 62
     7
420
 16777215
176
     1
 90
        1
176
     1
 90
        4
176
     1
 62
     7
176
     1
 62
   257
176
     1
 90
        7
176
     1
 90
        7
176
     1
 40
1.0
176
     1
 90
        8
176
     1
 62
     7
176
     1
 40
1.0
176
     1
 90
        1
176
     1
 90
        6
176
     1
 90
        2
176
     1
 62
     7
176
     1
 90
        5
176
     1
 90
        0
176
     1
 90
        0
176
     1
290
     0
176
     1
 90
        1
176
     1
 40
0.0
176
     1
 90
        0
176
     1
290
     0
176
     1
290
     1
176
     1
290
     1
176
     1
290
     0
176
     1
290
     0
176
     1
290
     0
176
     1
290
     0
176
     1
290
     0
176
     1
290
     0
176
     1
 90
       50
176
     1
 40
0.0
176
     1
 40
1.0
176
     1
 90
        0
176
     1
 62
    18
420
        0
176
     1
 90
       50
176
     1
 90
        3
176
     1
 62
     5
420
      255
176
     1
290
     0
176
     1
 90
       50
176
     1
 90
       50
176
     1
 90
       50
176
     1
290
     0
176
     1
 90
       50
176
     1
 62
   256
176
     0
 40
1.0
176
     0
 90
        2
176
     1
  1
strokes_ogs.tif
176
     1
290
     0
176
     1
 40
1.0
176
     1
 40
1.0
176
     1
  0
VISUALSTYLE
  5
40
102
{ACAD_REACTORS
330
29
102
}
330
29
100
AcDbVisualStyle
  2
OverhangOff
 70
    21
177
     3
291
     1
 70
    58
 90
        2
176
     0
 90
        2
176
     0
 90
        0
176
     0
 90
        0
176
     0
 40
0.6
176
     0
 40
30.0
176
     0
 62
     7
420
 16777215
176
     0
 90
        1
176
     0
 90
        4
176
     0
 62
     7
176
     0
 62
   257
176
     0
 90
        1
176
     0
 90
        1
176
     0
 40
1.0
176
     0
 90
        9
176
     2
 62
     7
176
     0
 40
1.0
176
     0
 90
        1
176
     0
 90
        6
176
     0
 90
        2
176
     0
 62
     7
176
     0
 90
        5
176
     0
 90
        0
176
     0
 90
        0
176
     0
290
     0
176
     0
 90
        1
176
     0
 40
0.0
176
     0
 90
        0
176
     0
290
     0
176
     1
290
     1
176
     1
290
     1
176
     1
290
     0
176
     1
290
     0
176
     1
290
     0
176
     1
290
     0
176
     1
290
     0
176
     1
290
     0
176
     1
 90
       50
176
     0
 40
0.0
176
     0
 40
1.0
176
     0
 90
        0
176
     0
 62
    18
420
        0
176
     0
 90
       50
176
     0
 90
        3
176
     0
 62
     5
420
      255
176
     0
290
     0
176
     1
 90
       50
176
     0
 90
       50
176
     0
 90
       50
176
     0
290
     0
176
     1
 90
       50
176
     0
 62
   256
176
     0
 40
1.0
176
     0
 90
        2
176
     0
  1
strokes_ogs.tif
176
     0
290
     0
176
     1
 40
1.0
176
     0
 40
1.0
176
     0
  0
VISUALSTYLE
  5
33
102
{ACAD_REACTORS
330
29
102
}
330
29
100
AcDbVisualStyle
  2
Realistic
 70
     8
177
     3
291
     0
 70
    58
 90
        2
176
     1
 90
        3
176
     1
 90
        0
176
     1
 90
        2
176
     1
 40
0.6
176
     1
 40
30.0
176
     1
 62
     7
420
 16777215
176
     1
 90
        0
176
     1
 90
        0
176
     1
 62
     7
176
     1
 62
   257
176
     1
 90
        1
176
     1
 90
        1
176
     1
 40
1.0
176
     1
 90
        8
176
     1
 62
   257
176
     1
 40
1.0
176
     1
 90
        1
176
     1
 90
        6
176
     1
 90
        2
176
     1
 62
     7
176
     1
 90
        3
176
     1
 90
        0
176
     1
 90
        0
176
     1
290
     0
176
     1
 90
       13
176
     1
 40
0.0
176
     1
 90
        0
176
     1
290
     0
176
     1
290
     1
176
     1
290
     1
176
     1
290
     0
176
     1
290
     0
176
     1
290
     0
176
     1
290
     0
176
     1
290
     0
176
     1
290
     0
176
     1
 90
       50
176
     1
 40
0.0
176
     1
 40
1.0
176
     1
 90
        0
176
     1
 62
    18
420
        0
176
     1
 90
       50
176
     1
 90
        3
176
     1
 62
     5
420
      255
176
     1
290
     0
176
     1
 90
       50
176
     1
 90
       50
176
     1
 90
       50
176
     1
290
     0
176
     1
 90
       50
176
     1
 62
   256
176
     0
 40
1.0
176
     0
 90
        2
176
     1
  1
strokes_ogs.tif
176
     1
290
     0
176
     1
 40
1.0
176
     1
 40
1.0
176
     1
  0
VISUALSTYLE
  5
3E
102
{ACAD_REACTORS
330
29
102
}
330
29
100
AcDbVisualStyle
  2
Shaded
 70
    27
177
     3
291
     0
 70
    58
 90
        2
176
     1
 90
        2
176
     1
 90
        1
176
     1
 90
        2
176
     1
 40
0.6
176
     1
 40
30.0
176
     1
 62
     7
420
 16777215
176
     1
 90
        0
176
     1
 90
        4
176
     1
 62
     7
176
     1
 62
   257
176
     1
 90
        1
176
     1
 90
        1
176
     1
 40
1.0
176
     1
 90
        8
176
     1
 62
   257
176
     1
 40
1.0
176
     1
 90
        1
176
     1
 90
        6
176
     1
 90
        2
176
     1
 62
     8
420
  7895160
176
     1
 90
        3
176
     1
 90
        0
176
     1
 90
        0
176
     1
290
     0
176
     1
 90
        5
176
     1
 40
0.0
176
     1
 90
        0
176
     1
290
     0
176
     1
290
     1
176
     1
290
     1
176
     1
290
     0
176
     1
290
     0
176
     1
290
     0
176
     1
290
     0
176
     1
290
     0
176
     1
290
     0
176
     1
 90
       50
176
     1
 40
0.0
176
     1
 40
1.0
176
     1
 90
        0
176
     1
 62
    18
420
        0
176
     1
 90
       50
176
     1
 90
        3
176
     1
 62
     5
420
      255
176
     1
290
     0
176
     1
 90
       50
176
     1
 90
       50
176
     1
 90
       50
176
     1
290
     0
176
     1
 90
       50
176
     1
 62
   256
176
     0
 40
1.0
176
     0
 90
        2
176
     1
  1
strokes_ogs.tif
176
     1
290
     0
176
     1
 40
1.0
176
     1
 40
1.0
176
     1
  0
VISUALSTYLE
  5
3D
102
{ACAD_REACTORS
330
29
102
}
330
29
100
AcDbVisualStyle
  2
Shaded with edges
 70
    26
177
     3
291
     0
 70
    58
 90
        2
176
     1
 90
        2
176
     1
 90
        1
176
     1
 90
        2
176
     1
 40
0.6
176
     1
 40
30.0
176
     1
 62
     7
420
 16777215
176
     1
 90
        1
176
     1
 90
        2
176
     1
 62
     7
176
     1
 62
   257
176
     1
 90
        2
176
     1
 90
        1
176
     1
 40
1.0
176
     1
 90
        8
176
     1
 62
   257
176
     1
 40
1.0
176
     1
 90
        1
176
     1
 90
        6
176
     1
 90
        2
176
     1
 62
     7
176
     1
 90
        3
176
     1
 90
        0
176
     1
 90
        0
176
     1
290
     0
176
     1
 90
        5
176
     1
 40
0.0
176
     1
 90
        0
176
     1
290
     0
176
     1
290
     1
176
     1
290
     1
176
     1
290
     0
176
     1
290
     0
176
     1
290
     0
176
     1
290
     0
176
     1
290
     0
176
     1
290
     0
176
     1
 90
       50
176
     1
 40
0.0
176
     1
 40
1.0
176
     1
 90
        0
176
     1
 62
    18
420
        0
176
     1
 90
       50
176
     1
 90
        3
176
     1
 62
     5
420
      255
176
     1
290
     0
176
     1
 90
       50
176
     1
 90
       50
176
     1
 90
       50
176
     1
290
     0
176
     1
 90
       50
176
     1
 62
   256
176
     0
 40
1.0
176
     0
 90
        2
176
     1
  1
strokes_ogs.tif
176
     1
290
     0
176
     1
 40
1.0
176
     1
 40
1.0
176
     1
  0
VISUALSTYLE
  5
3A
102
{ACAD_REACTORS
330
29
102
}
330
29
100
AcDbVisualStyle
  2
Shades of Gray
 70
    23
177
     3
291
     0
 70
    58
 90
        2
176
     1
 90
        2
176
     1
 90
        3
176
     1
 90
        0
176
     1
 40
0.6
176
     1
 40
30.0
176
     1
 62
     7
420
 16777215
176
     1
 90
        2
176
     1
 90
        2
176
     1
 62
     7
176
     1
 62
     7
176
     1
 90
        1
176
     1
 90
        1
176
     1
 40
40.0
176
     1
 90
        8
176
     1
 62
     7
176
     1
 40
1.0
176
     1
 90
        1
176
     1
 90
        6
176
     1
 90
        2
176
     1
 62
     7
176
     1
 90
        3
176
     1
 90
        0
176
     1
 90
        0
176
     1
290
     0
176
     1
 90
        1
176
     1
 40
0.0
176
     1
 90
        0
176
     1
290
     0
176
     1
290
     1
176
     1
290
     1
176
     1
290
     0
176
     1
290
     0
176
     1
290
     0
176
     1
290
     0
176
     1
290
     0
176
     1
290
     0
176
     1
 90
       50
176
     1
 40
0.0
176
     1
 40
1.0
176
     1
 90
        0
176
     1
 62
    18
420
        0
176
     1
 90
       50
176
     1
 90
        3
176
     1
 62
     5
420
      255
176
     1
290
     0
176
     1
 90
       50
176
     1
 90
       50
176
     1
 90
       50
176
     1
290
     0
176
     1
 90
       50
176
     1
 62
   256
176
     0
 40
1.0
176
     0
 90
        2
176
     1
  1
strokes_ogs.tif
176
     1
290
     0
176
     1
 40
1.0
176
     1
 40
1.0
176
     1
  0
VISUALSTYLE
  5
3B
102
{ACAD_REACTORS
330
29
102
}
330
29
100
AcDbVisualStyle
  2
Sketchy
 70
    24
177
     3
291
     0
 70
    58
 90
        1
176
     1
 90
        2
176
     1
 90
        2
176
     1
 90
        0
176
     1
 40
0.6
176
     1
 40
30.0
176
     1
 62
     7
420
 16777215
176
     1
 90
        2
176
     1
 90
        2
176
     1
 62
     7
176
     1
 62
     7
176
     1
 90
        1
176
     1
 90
        1
176
     1
 40
40.0
176
     1
 90
       11
176
     1
 62
     7
176
     1
 40
1.0
176
     1
 90
        1
176
     1
 90
        6
176
     1
 90
        2
176
     1
 62
     7
176
     1
 90
        6
176
     1
 90
        0
176
     1
 90
        0
176
     1
290
     0
176
     1
 90
        1
176
     1
 40
0.0
176
     1
 90
        0
176
     1
290
     0
176
     1
290
     1
176
     1
290
     1
176
     1
290
     0
176
     1
290
     0
176
     1
290
     0
176
     1
290
     0
176
     1
290
     0
176
     1
290
     0
176
     1
 90
       50
176
     1
 40
0.0
176
     1
 40
1.0
176
     1
 90
        0
176
     1
 62
    18
420
        0
176
     1
 90
       50
176
     1
 90
        3
176
     1
 62
     5
420
      255
176
     1
290
     0
176
     1
 90
       50
176
     1
 90
       50
176
     1
 90
       50
176
     1
290
     0
176
     1
 90
       50
176
     1
 62
   256
176
     0
 40
1.0
176
     0
 90
        2
176
     1
  1
strokes_ogs.tif
176
     1
290
     0
176
     1
 40
1.0
176
     1
 40
1.0
176
     1
  0
VISUALSTYLE
  5
36
102
{ACAD_REACTORS
330
29
102
}
330
29
100
AcDbVisualStyle
  2
Thicken
 70
    13
177
     3
291
     1
 70
    58
 90
        2
176
     1
 90
        2
176
     1
 90
        0
176
     1
 90
        0
176
     1
 40
0.6
176
     1
 40
30.0
176
     1
 62
     7
420
 16777215
176
     1
 90
        1
176
     1
 90
        4
176
     1
 62
     7
176
     1
 62
   257
176
     1
 90
        1
176
     1
 90
        1
176
     1
 40
1.0
176
     1
 90
       12
176
     1
 62
     7
176
     1
 40
1.0
176
     1
 90
        1
176
     1
 90
        6
176
     1
 90
        2
176
     1
 62
     7
176
     1
 90
        5
176
     1
 90
        0
176
     1
 90
        0
176
     1
290
     0
176
     1
 90
        1
176
     1
 40
0.0
176
     1
 90
        0
176
     1
290
     0
176
     1
290
     1
176
     1
290
     1
176
     1
290
     0
176
     1
290
     0
176
     1
290
     0
176
     1
290
     0
176
     1
290
     0
176
     1
290
     0
176
     1
 90
       50
176
     1
 40
0.0
176
     1
 40
1.0
176
     1
 90
        0
176
     1
 62
    18
420
        0
176
     1
 90
       50
176
     1
 90
        3
176
     1
 62
     5
420
      255
176
     1
290
     0
176
     1
 90
       50
176
     1
 90
       50
176
     1
 90
       50
176
     1
290
     0
176
     1
 90
       50
176
     1
 62
   256
176
     0
 40
1.0
176
     0
 90
        2
176
     1
  1
strokes_ogs.tif
176
     1
290
     0
176
     1
 40
1.0
176
     1
 40
1.0
176
     1
  0
VISUALSTYLE
  5
30
102
{ACAD_REACTORS
330
29
102
}
330
29
100
AcDbVisualStyle
  2
Wireframe
 70
     5
177
     3
291
     0
 70
    58
 90
        0
176
     1
 90
        2
176
     1
 90
        0
176
     1
 90
        0
176
     1
 40
0.6
176
     1
 40
30.0
176
     1
 62
     7
420
 16777215
176
     1
 90
        1
176
     1
 90
        4
176
     1
 62
     7
176
     1
 62
   257
176
     1
 90
        1
176
     1
 90
        1
176
     1
 40
1.0
176
     1
 90
        0
176
     1
 62
   257
176
     1
 40
1.0
176
     1
 90
        1
176
     1
 90
        6
176
     1
 90
        2
176
     1
 62
     7
176
     1
 90
        3
176
     1
 90
        0
176
     1
 90
        0
176
     1
290
     0
176
     1
 90
        1
176
     1
 40
0.0
176
     1
 90
        0
176
     1
290
     0
176
     1
290
     1
176
     1
290
     1
176
     1
290
     0
176
     1
290
     0
176
     1
290
     0
176
     1
290
     0
176
     1
290
     0
176
     1
290
     0
176
     1
 90
       50
176
     1
 40
0.0
176
     1
 40
1.0
176
     1
 90
        0
176
     1
 62
    18
420
        0
176
     1
 90
       50
176
     1
 90
        3
176
     1
 62
     5
420
      255
176
     1
290
     0
176
     1
 90
       50
176
     1
 90
       50
176
     1
 90
       50
176
     1
290
     0
176
     1
 90
       50
176
     1
 62
   256
176
     0
 40
1.0
176
     0
 90
        2
176
     1
  1
strokes_ogs.tif
176
     1
290
     0
176
     1
 40
1.0
176
     1
 40
1.0
176
     1
  0
VISUALSTYLE
  5
3C
102
{ACAD_REACTORS
330
29
102
}
330
29
100
AcDbVisualStyle
  2
X-Ray
 70
    25
177
     3
291
     0
 70
    58
 90
        2
176
     1
 90
        2
176
     1
 90
        1
176
     1
 90
        1
176
     1
 40
0.5
176
     1
 40
30.0
176
     1
 62
     7
420
 16777215
176
     1
 90
        1
176
     1
 90
        0
176
     1
 62
     7
176
     1
 62
   257
176
     1
 90
        1
176
     1
 90
        1
176
     1
 40
1.0
176
     1
 90
        8
176
     1
 62
     7
176
     1
 40
1.0
176
     1
 90
        1
176
     1
 90
        6
176
     1
 90
        2
176
     1
 62
     7
176
     1
 90
        3
176
     1
 90
        0
176
     1
 90
        0
176
     1
290
     0
176
     1
 90
       13
176
     1
 40
0.0
176
     1
 90
        0
176
     1
290
     0
176
     1
290
     1
176
     1
290
     1
176
     1
290
     0
176
     1
290
     0
176
     1
290
     0
176
     1
290
     0
176
     1
290
     0
176
     1
290
     0
176
     1
 90
       50
176
     1
 40
0.0
176
     1
 40
1.0
176
     1
 90
        0
176
     1
 62
    18
420
        0
176
     1
 90
       50
176
     1
 90
        3
176
     1
 62
     5
420
      255
176
     1
290
     0
176
     1
 90
       50
176
     1
 90
       50
176
     1
 90
       50
176
     1
290
     0
176
     1
 90
       50
176
     1
 62
   256
176
     0
 40
1.0
176
     0
 90
        2
176
     1
  1
strokes_ogs.tif
176
     1
290
     0
176
     1
 40
1.0
176
     1
 40
1.0
176
     1
  0
DICTIONARYVAR
  5
1C5
102
{ACAD_REACTORS
330
1BF
102
}
330
1BF
100
DictionaryVariables
280
     0
  1
1:1
  0
DICTIONARYVAR
  5
1C1
102
{ACAD_REACTORS
330
1BF
102
}
330
1BF
100
DictionaryVariables
280
     0
  1
STANDARD
  0
DICTIONARYVAR
  5
1C0
102
{ACAD_REACTORS
330
1BF
102
}
330
1BF
100
DictionaryVariables
280
     0
  1
STANDARD
  0
DICTIONARYVAR
  5
1C2
102
{ACAD_REACTORS
330
1BF
102
}
330
1BF
100
DictionaryVariables
280
     0
  1
Imperial24
  0
DICTIONARYVAR
  5
1C3
102
{ACAD_REACTORS
330
1BF
102
}
330
1BF
100
DictionaryVariables
280
     0
  1
Imperial24
  0
DICTIONARYVAR
  5
1C7
102
{ACAD_REACTORS
330
1BF
102
}
330
1BF
100
DictionaryVariables
280
     0
  1
1
  0
DICTIONARYVAR
  5
1C8
102
{ACAD_REACTORS
330
1BF
102
}
330
1BF
100
DictionaryVariables
280
     0
  1
15
  0
DICTIONARYVAR
  5
1C6
102
{ACAD_REACTORS
330
1BF
102
}
330
1BF
100
DictionaryVariables
280
     0
  1
0
  0
DICTIONARYVAR
  5
1C4
102
{ACAD_REACTORS
330
1BF
102
}
330
1BF
100
DictionaryVariables
280
     0
  1
0
  0
DICTIONARY
  5
1A
330
19
100
AcDbDictionary
280
     1
281
     1
  3
BUMPTILE
360
1C
  3
DIFFUSETILE
360
1B
  3
OPACITYTILE
360
1F
  3
REFLECTIONTILE
360
1E
  3
REFRACTIONTILE
360
20
  3
SPECULARTILE
360
1D
  0
DICTIONARY
  5
12
330
11
100
AcDbDictionary
280
     1
281
     1
  3
BUMPTILE
360
14
  3
DIFFUSETILE
360
13
  3
OPACITYTILE
360
17
  3
REFLECTIONTILE
360
16
  3
REFRACTIONTILE
360
18
  3
SPECULARTILE
360
15
  0
DICTIONARY
  5
22
330
21
100
AcDbDictionary
280
     1
281
     1
  3
BUMPTILE
360
24
  3
DIFFUSETILE
360
23
  3
OPACITYTILE
360
27
  3
REFLECTIONTILE
360
26
  3
REFRACTIONTILE
360
28
  3
SPECULARTILE
360
25
  0
DICTIONARY
  5
1C9
330
64
100
AcDbDictionary
280
     1
281
     1
  3
ACAD_ROUNDTRIP_2008_TABLESTYLE_CELLSTYLEMAP
360
1CA
  0
XRECORD
  5
1C
102
{ACAD_REACTORS
330
1A
102
}
330
1A
100
AcDbXrecord
280
     1
270
     1
271
     1
  0
XRECORD
  5
1B
102
{ACAD_REACTORS
330
1A
102
}
330
1A
100
AcDbXrecord
280
     1
270
     1
271
     1
  0
XRECORD
  5
1F
102
{ACAD_REACTORS
330
1A
102
}
330
1A
100
AcDbXrecord
280
     1
270
     1
271
     1
  0
XRECORD
  5
1E
102
{ACAD_REACTORS
330
1A
102
}
330
1A
100
AcDbXrecord
280
     1
270
     1
271
     1
  0
XRECORD
  5
20
102
{ACAD_REACTORS
330
1A
102
}
330
1A
100
AcDbXrecord
280
     1
270
     1
271
     1
  0
XRECORD
  5
1D
102
{ACAD_REACTORS
330
1A
102
}
330
1A
100
AcDbXrecord
280
     1
270
     1
271
     1
  0
XRECORD
  5
14
102
{ACAD_REACTORS
330
12
102
}
330
12
100
AcDbXrecord
280
     1
270
     1
271
     1
  0
XRECORD
  5
13
102
{ACAD_REACTORS
330
12
102
}
330
12
100
AcDbXrecord
280
     1
270
     1
271
     1
  0
XRECORD
  5
17
102
{ACAD_REACTORS
330
12
102
}
330
12
100
AcDbXrecord
280
     1
270
     1
271
     1
  0
XRECORD
  5
16
102
{ACAD_REACTORS
330
12
102
}
330
12
100
AcDbXrecord
280
     1
270
     1
271
     1
  0
XRECORD
  5
18
102
{ACAD_REACTORS
330
12
102
}
330
12
100
AcDbXrecord
280
     1
270
     1
271
     1
  0
XRECORD
  5
15
102
{ACAD_REACTORS
330
12
102
}
330
12
100
AcDbXrecord
280
     1
270
     1
271
     1
  0
XRECORD
  5
24
102
{ACAD_REACTORS
330
22
102
}
330
22
100
AcDbXrecord
280
     1
270
     1
271
     1
  0
XRECORD
  5
23
102
{ACAD_REACTORS
330
22
102
}
330
22
100
AcDbXrecord
280
     1
270
     1
271
     1
  0
XRECORD
  5
27
102
{ACAD_REACTORS
330
22
102
}
330
22
100
AcDbXrecord
280
     1
270
     1
271
     1
  0
XRECORD
  5
26
102
{ACAD_REACTORS
330
22
102
}
330
22
100
AcDbXrecord
280
     1
270
     1
271
     1
  0
XRECORD
  5
28
102
{ACAD_REACTORS
330
22
102
}
330
22
100
AcDbXrecord
280
     1
270
     1
271
     1
  0
XRECORD
  5
25
102
{ACAD_REACTORS
330
22
102
}
330
22
100
AcDbXrecord
280
     1
270
     1
271
     1
  0
CELLSTYLEMAP
  5
1CA
102
{ACAD_REACTORS
330
1C9
102
}
330
1C9
100
AcDbCellStyleMap
 90
        3
300
CELLSTYLE
  1
TABLEFORMAT_BEGIN
 90
        5
170
     1
 91
        0
 92
    32768
 62
   257
 93
        1
300
CONTENTFORMAT
  1
CONTENTFORMAT_BEGIN
 90
        0
 91
        0
 92
      512
 93
        0
300

 40
0.0
140
1.0
 94
        5
 62
     0
340
55
144
0.25
309
CONTENTFORMAT_END
171
     0
 94
        0
309
TABLEFORMAT_END
  1
CELLSTYLE_BEGIN
 90
        1
 91
        1
300
_TITLE
309
CELLSTYLE_END
300
CELLSTYLE
  1
TABLEFORMAT_BEGIN
 90
        5
170
     1
 91
        0
 92
        0
 62
   257
 93
        1
300
CONTENTFORMAT
  1
CONTENTFORMAT_BEGIN
 90
        0
 91
        0
 92
      512
 93
        0
300

 40
0.0
140
1.0
 94
        5
 62
     0
340
55
144
0.18
309
CONTENTFORMAT_END
171
     0
 94
        0
309
TABLEFORMAT_END
  1
CELLSTYLE_BEGIN
 90
        2
 91
        1
300
_HEADER
309
CELLSTYLE_END
300
CELLSTYLE
  1
TABLEFORMAT_BEGIN
 90
        5
170
     1
 91
        0
 92
        0
 62
   257
 93
        1
300
CONTENTFORMAT
  1
CONTENTFORMAT_BEGIN
 90
        0
 91
        0
 92
      512
 93
        0
300

 40
0.0
140
1.0
 94
        2
 62
     0
340
55
144
0.18
309
CONTENTFORMAT_END
171
     0
 94
        0
309
TABLEFORMAT_END
  1
CELLSTYLE_BEGIN
 90
        3
 91
        2
300
_DATA
309
CELLSTYLE_END
  0
ENDSEC
  0
EOF
