<?xml version="1.0" standalone="no"?>
<!DOCTYPE svg PUBLIC "-//W3C//DTD SVG 1.1//EN" "http://www.w3.org/Graphics/SVG/1.1/DTD/svg11.dtd">
<svg width="118" height="98" viewBox="-49 -49 118 98" xmlns="http://www.w3.org/2000/svg" version="1.1">
<title>OpenSCAD Model</title>
<path d="
M 3.47961,48.5769 L 4.12395,47.3763 L 4.68875,46.1721 L 5.17079,44.9673 L 5.56538,43.7653 L 5.86519,42.5697
 L 6.74533,42.4386 L 7.57661,42.2986 L 8.2312,43.3431 L 8.97794,44.3643 L 9.80869,45.3612 L 10.718,46.3319
 L 11.7018,47.2747 L 12.8896,46.9647 L 13.2874,45.6615 L 13.6064,44.3702 L 13.8441,43.0945 L 13.9966,41.8386
 L 14.0574,40.6075 L 14.8951,40.3073 L 15.6831,40.0077 L 16.5289,40.9044 L 17.4605,41.7604 L 18.4697,42.576
 L 19.5509,43.3507 L 20.6998,44.0834 L 21.8043,43.5476 L 21.9402,42.1919 L 22.0011,40.8631 L 21.9854,39.5656
 L 21.89,38.3041 L 21.7094,37.0847 L 22.4724,36.6269 L 23.1869,36.1794 L 24.1913,36.8938 L 25.272,37.5516
 L 26.421,38.1546 L 27.6326,38.7035 L 28.9023,39.198 L 29.8811,38.4571 L 29.7498,37.1008 L 29.5504,35.7858
 L 29.2819,34.5162 L 28.9422,33.2975 L 28.5272,32.1369 L 29.1862,31.5389 L 29.7996,30.9607 L 30.9241,31.4654
 L 32.1124,31.8997 L 33.3569,32.267 L 34.6523,32.569 L 35.9941,32.8063 L 36.8096,31.8886 L 36.4162,30.5841
 L 35.9641,29.3332 L 35.453,28.1404 L 34.8821,27.0114 L 34.2486,25.954 L 34.7783,25.239 L 35.2671,24.5522
 L 36.4685,24.8278 L 37.7187,25.022 L 39.011,25.1394 L 40.3404,25.1829 L 41.7027,25.1538 L 42.3234,24.0947
 L 41.6831,22.8919 L 40.9956,21.7533 L 40.2617,20.6831 L 39.4815,19.6872 L 38.6539,18.7737 L 39.034,17.9691
 L 39.3794,17.2001 L 40.6115,17.2361 L 41.8755,17.1826 L 43.1659,17.0457 L 44.4782,16.829 L 45.8086,16.5347
 L 46.2108,15.3748 L 45.3482,14.3201 L 44.4518,13.3374 L 43.5232,12.431 L 42.5636,11.6065 L 41.5738,10.872
 L 41.7895,10.0087 L 41.9783,9.18709 L 43.1937,8.98203 L 44.423,8.68295 L 45.6619,8.29692 L 46.9067,7.82834
 L 48.1542,7.2802 L 48.3224,6.06412 L 47.2706,5.19795 L 46.1996,4.40906 L 45.1121,3.70123 L 44.0101,3.07971
 L 42.896,2.55243 L 42.9391,1.66364 L 42.964,0.820999 L 44.1161,0.382751 L 45.2634,-0.150375 L 46.4032,-0.770691
 L 47.5327,-1.47311 L 48.6492,-2.25409 L 48.5769,-3.47961 L 47.3763,-4.12395 L 46.1721,-4.68875 L 44.9673,-5.17079
 L 43.7653,-5.56538 L 42.5697,-5.86519 L 42.4386,-6.74533 L 42.2986,-7.57661 L 43.3431,-8.2312 L 44.3643,-8.97794
 L 45.3612,-9.80869 L 46.3319,-10.718 L 47.2747,-11.7018 L 46.9647,-12.8896 L 45.6615,-13.2874 L 44.3702,-13.6064
 L 43.0945,-13.8441 L 41.8386,-13.9966 L 40.6075,-14.0574 L 40.3073,-14.8951 L 40.0077,-15.6831 L 40.9044,-16.5289
 L 41.7604,-17.4605 L 42.576,-18.4697 L 43.3507,-19.5509 L 44.0834,-20.6998 L 43.5476,-21.8043 L 42.1919,-21.9402
 L 40.8631,-22.0011 L 39.5656,-21.9854 L 38.3041,-21.89 L 37.0847,-21.7094 L 36.6269,-22.4724 L 36.1794,-23.1869
 L 36.8938,-24.1913 L 37.5516,-25.272 L 38.1546,-26.421 L 38.7035,-27.6326 L 39.198,-28.9023 L 38.4571,-29.8811
 L 37.1008,-29.7498 L 35.7858,-29.5504 L 34.5162,-29.2819 L 33.2975,-28.9422 L 32.1369,-28.5272 L 31.5389,-29.1862
 L 30.9607,-29.7996 L 31.4654,-30.9241 L 31.8997,-32.1124 L 32.267,-33.3569 L 32.569,-34.6523 L 32.8063,-35.9941
 L 31.8886,-36.8096 L 30.5841,-36.4162 L 29.3332,-35.9641 L 28.1404,-35.453 L 27.0114,-34.8821 L 25.954,-34.2486
 L 25.239,-34.7783 L 24.5522,-35.2671 L 24.8278,-36.4685 L 25.022,-37.7187 L 25.1394,-39.011 L 25.1829,-40.3404
 L 25.1538,-41.7027 L 24.0947,-42.3234 L 22.8919,-41.6831 L 21.7533,-40.9956 L 20.6831,-40.2617 L 19.6872,-39.4815
 L 18.7737,-38.6539 L 17.9691,-39.034 L 17.2001,-39.3794 L 17.2361,-40.6115 L 17.1826,-41.8755 L 17.0457,-43.1659
 L 16.829,-44.4782 L 16.5347,-45.8086 L 15.3748,-46.2108 L 14.3201,-45.3482 L 13.3374,-44.4518 L 12.431,-43.5232
 L 11.6065,-42.5636 L 10.872,-41.5738 L 10.0087,-41.7895 L 9.18709,-41.9783 L 8.98203,-43.1937 L 8.68295,-44.423
 L 8.29692,-45.6619 L 7.82834,-46.9067 L 7.2802,-48.1542 L 6.06412,-48.3224 L 5.19795,-47.2706 L 4.40906,-46.1996
 L 3.70123,-45.1121 L 3.07971,-44.0101 L 2.55243,-42.896 L 1.66364,-42.9391 L 0.820999,-42.964 L 0.382751,-44.1161
 L -0.150375,-45.2634 L -0.770691,-46.4032 L -1.47311,-47.5327 L -2.25409,-48.6492 L -3.47961,-48.5769 L -4.12395,-47.3763
 L -4.68875,-46.1721 L -5.17079,-44.9673 L -5.56538,-43.7653 L -5.86519,-42.5697 L -6.74533,-42.4386 L -7.57661,-42.2986
 L -8.2312,-43.3431 L -8.97794,-44.3643 L -9.80869,-45.3612 L -10.718,-46.3319 L -11.7018,-47.2747 L -12.8896,-46.9647
 L -13.2874,-45.6615 L -13.6064,-44.3702 L -13.8441,-43.0945 L -13.9966,-41.8386 L -14.0574,-40.6075 L -14.8951,-40.3073
 L -15.6831,-40.0077 L -16.5289,-40.9044 L -17.4605,-41.7604 L -18.4697,-42.576 L -19.5509,-43.3507 L -20.6998,-44.0834
 L -21.8043,-43.5476 L -21.9402,-42.1919 L -22.0011,-40.8631 L -21.9854,-39.5656 L -21.89,-38.3041 L -21.7094,-37.0847
 L -22.4724,-36.6269 L -23.1869,-36.1794 L -24.1913,-36.8938 L -25.272,-37.5516 L -26.421,-38.1546 L -27.6326,-38.7035
 L -28.9023,-39.198 L -29.8811,-38.4571 L -29.7498,-37.1008 L -29.5504,-35.7858 L -29.2819,-34.5162 L -28.9422,-33.2975
 L -28.5272,-32.1369 L -29.1862,-31.5389 L -29.7996,-30.9607 L -30.9241,-31.4654 L -32.1124,-31.8997 L -33.3569,-32.267
 L -34.6523,-32.569 L -35.9941,-32.8063 L -36.8096,-31.8886 L -36.4162,-30.5841 L -35.9641,-29.3332 L -35.453,-28.1404
 L -34.8821,-27.0114 L -34.2486,-25.954 L -34.7783,-25.239 L -35.2671,-24.5522 L -36.4685,-24.8278 L -37.7187,-25.022
 L -39.011,-25.1394 L -40.3404,-25.1829 L -41.7027,-25.1538 L -42.3234,-24.0947 L -41.6831,-22.8919 L -40.9956,-21.7533
 L -40.2617,-20.6831 L -39.4815,-19.6872 L -38.6539,-18.7737 L -39.034,-17.9691 L -39.3794,-17.2001 L -40.6115,-17.2361
 L -41.8755,-17.1826 L -43.1659,-17.0457 L -44.4782,-16.829 L -45.8086,-16.5347 L -46.2108,-15.3748 L -45.3482,-14.3201
 L -44.4518,-13.3374 L -43.5232,-12.431 L -42.5636,-11.6065 L -41.5738,-10.872 L -41.7895,-10.0087 L -41.9783,-9.18709
 L -43.1937,-8.98203 L -44.423,-8.68295 L -45.6619,-8.29692 L -46.9067,-7.82834 L -48.1542,-7.2802 L -48.3224,-6.06412
 L -47.2706,-5.19795 L -46.1996,-4.40906 L -45.1121,-3.70123 L -44.0101,-3.07971 L -42.896,-2.55243 L -42.9391,-1.66364
 L -42.964,-0.820999 L -44.1161,-0.382751 L -45.2634,0.150375 L -46.4032,0.770691 L -47.5327,1.47311 L -48.6492,2.25409
 L -48.5769,3.47961 L -47.3763,4.12395 L -46.1721,4.68875 L -44.9673,5.17079 L -43.7653,5.56538 L -42.5697,5.86519
 L -42.4386,6.74533 L -42.2986,7.57661 L -43.3431,8.2312 L -44.3643,8.97794 L -45.3612,9.80869 L -46.3319,10.718
 L -47.2747,11.7018 L -46.9647,12.8896 L -45.6615,13.2874 L -44.3702,13.6064 L -43.0945,13.8441 L -41.8386,13.9966
 L -40.6075,14.0574 L -40.3073,14.8951 L -40.0077,15.6831 L -40.9044,16.5289 L -41.7604,17.4605 L -42.576,18.4697
 L -43.3507,19.5509 L -44.0834,20.6998 L -43.5476,21.8043 L -42.1919,21.9402 L -40.8631,22.0011 L -39.5656,21.9854
 L -38.3041,21.89 L -37.0847,21.7094 L -36.6269,22.4724 L -36.1794,23.1869 L -36.8938,24.1913 L -37.5516,25.272
 L -38.1546,26.421 L -38.7035,27.6326 L -39.198,28.9023 L -38.4571,29.8811 L -37.1008,29.7498 L -35.7858,29.5504
 L -34.5162,29.2819 L -33.2975,28.9422 L -32.1369,28.5272 L -31.5389,29.1862 L -30.9607,29.7996 L -31.4654,30.9241
 L -31.8997,32.1124 L -32.267,33.3569 L -32.569,34.6523 L -32.8063,35.9941 L -31.8886,36.8096 L -30.5841,36.4162
 L -29.3332,35.9641 L -28.1404,35.453 L -27.0114,34.8821 L -25.954,34.2486 L -25.239,34.7783 L -24.5522,35.2671
 L -24.8278,36.4685 L -25.022,37.7187 L -25.1394,39.011 L -25.1829,40.3404 L -25.1538,41.7027 L -24.0947,42.3234
 L -22.8919,41.6831 L -21.7533,40.9956 L -20.6831,40.2617 L -19.6872,39.4815 L -18.7737,38.6539 L -17.9691,39.034
 L -17.2001,39.3794 L -17.2361,40.6115 L -17.1826,41.8755 L -17.0457,43.1659 L -16.829,44.4782 L -16.5347,45.8086
 L -15.3748,46.2108 L -14.3201,45.3482 L -13.3374,44.4518 L -12.431,43.5232 L -11.6065,42.5636 L -10.872,41.5738
 L -10.0087,41.7895 L -9.18709,41.9783 L -8.98203,43.1937 L -8.68295,44.423 L -8.29692,45.6619 L -7.82834,46.9067
 L -7.2802,48.1542 L -6.06412,48.3224 L -5.19795,47.2706 L -4.40906,46.1996 L -3.70123,45.1121 L -3.07971,44.0101
 L -2.55243,42.896 L -1.66364,42.9391 L -0.820999,42.964 L -0.382751,44.1161 L 0.150375,45.2634 L 0.770691,46.4032
 L 1.47311,47.5327 L 2.25409,48.6492 z
M -0.631226,2.41899 L -1.34784,2.10553 L -1.93253,1.58597 L -2.32803,0.911163 L -2.49565,0.147171 L -2.41899,-0.631226
 L -2.10553,-1.34784 L -1.58597,-1.93253 L -0.911163,-2.32803 L -0.147171,-2.49565 L 0.631226,-2.41899 L 1.34784,-2.10553
 L 1.93253,-1.58597 L 2.32803,-0.911163 L 2.49565,-0.147171 L 2.41899,0.631226 L 2.10553,1.34784 L 1.58597,1.93253
 L 0.911163,2.32803 L 0.147171,2.49565 z
M 61.1982,11.7359 L 61.5604,10.6566 L 61.761,9.61093 L 61.8022,8.6209 L 61.6819,7.71202 L 61.3703,6.93188
 L 60.3183,5.60776 L 61.2426,4.72351 L 61.2451,4.72556 L 61.2556,4.71106 L 61.2686,4.69867 L 61.2662,4.6965
 L 62.0184,3.6619 L 63.4718,4.52657 L 64.2867,4.73067 L 65.2034,4.7278 L 66.179,4.55412 L 67.1883,4.21501
 L 68.2092,3.71115 L 68.3651,3.1463 L 67.7471,2.19012 L 67.0546,1.38138 L 66.3062,0.731918 L 65.5207,0.259247
 L 64.7165,0.0164948 L 63.0253,0.0133514 L 62.9103,-1.26059 L 62.9134,-1.26125 L 62.9087,-1.27852 L 62.907,-1.29637
 L 62.9039,-1.29588 L 62.564,-2.52902 L 64.1461,-3.12619 L 64.8138,-3.63605 L 65.3832,-4.3546 L 65.8556,-5.2256
 L 66.2198,-6.22612 L 66.4624,-7.33847 L 66.118,-7.81253 L 64.9851,-7.92552 L 63.921,-7.88837 L 62.9466,-7.70819
 L 62.0873,-7.38873 L 61.3961,-6.91132 L 60.3392,-5.59111 L 59.2715,-6.29544 L 59.2729,-6.29831 L 59.2564,-6.30536
 L 59.2415,-6.31523 L 59.2399,-6.31244 L 58.0638,-6.81554 L 58.5834,-8.42487 L 58.6011,-9.26474 L 58.3943,-10.1579
 L 58.0079,-11.0704 L 57.4527,-11.9789 L 56.7343,-12.8621 L 56.1489,-12.8884 L 55.3542,-12.0731 L 54.7198,-11.218
 L 54.2532,-10.3439 L 53.9672,-9.47285 L 53.9095,-8.63477 L 54.2827,-6.98535 L 53.0663,-6.58971 L 53.065,-6.59262
 L 53.0492,-6.58414 L 53.0321,-6.57858 L 53.0333,-6.57561 L 51.9067,-5.96982 L 50.9725,-7.37944 L 50.3268,-7.9169
 L 49.4996,-8.3121 L 48.5453,-8.57889 L 47.4888,-8.71129 L 46.3504,-8.70029 L 45.9649,-8.259 L 46.1068,-7.12939
 L 46.3798,-6.10027 L 46.7723,-5.19043 L 47.2749,-4.42372 L 47.8942,-3.85606 L 49.4165,-3.11948 L 48.9674,-1.92177
 L 48.9643,-1.92255 L 48.9611,-1.90491 L 48.9548,-1.88812 L 48.9579,-1.88719 L 48.7291,-0.628677 L 47.0445,-0.777145
 L 46.2217,-0.607452 L 45.397,-0.207108 L 44.5934,0.372635 L 43.8312,1.11607 L 43.13,2.013 L 43.2346,2.58955
 L 44.2063,3.18289 L 45.1811,3.6111 L 46.1371,3.87154 L 47.05,3.95656 L 47.8799,3.82632 L 49.4049,3.09541
 L 50.0613,4.19328 L 50.0587,4.19524 L 50.0705,4.20874 L 50.0797,4.22412 L 50.0824,4.22231 L 50.9237,5.18584
 L 49.7573,6.41035 L 49.377,7.15939 L 49.1758,8.05385 L 49.128,9.04358 L 49.234,10.103 L 49.4981,11.2105
 L 50.0141,11.4881 L 51.0838,11.0984 L 52.0264,10.6032 L 52.826,10.0182 L 53.4617,9.35748 L 53.8773,8.62743
 L 54.2567,6.97942 L 55.5243,7.15071 L 55.5242,7.15393 L 55.5421,7.15312 L 55.5599,7.15553 L 55.5601,7.15233
 L 56.838,7.09534 L 57.0681,8.77072 L 57.4166,9.5351 L 57.9905,10.2501 L 58.7345,10.9045 L 59.6289,11.4822
 L 60.6594,11.9662 z
M 54.9849,2.34058 L 54.3047,1.95457 L 53.7769,1.37723 L 53.4535,0.665085 L 53.3659,-0.112152 L 53.5228,-0.878433
 L 53.9088,-1.55872 L 54.4861,-2.08643 L 55.1983,-2.4099 L 55.9755,-2.49748 L 56.7418,-2.34058 L 57.4221,-1.95457
 L 57.9498,-1.37723 L 58.2733,-0.665085 L 58.3609,0.112152 L 58.204,0.878433 L 57.818,1.55872 L 57.2406,2.08643
 L 56.5285,2.4099 L 55.7512,2.49748 z
" stroke="black" fill="lightgray" stroke-width="0.5"/></svg>
