<?xml version="1.0" encoding="utf-8"?>
<!-- Generator: Adobe Illustrator 15.1.0, SVG Export Plug-In . SVG Version: 6.00 Build 0)  -->
<!DOCTYPE svg PUBLIC "-//W3C//DTD SVG 1.1//EN" "http://www.w3.org/Graphics/SVG/1.1/DTD/svg11.dtd">
<svg version="1.1" id="Layer_1" xmlns="http://www.w3.org/2000/svg" xmlns:xlink="http://www.w3.org/1999/xlink" x="0px" y="0px"
	 width="2628px" height="1904px" viewBox="0 0 2628 1904" enable-background="new 0 0 2628 1904" xml:space="preserve">
<path fill="none" stroke="#1D1D1B" stroke-miterlimit="10" d="M1187.898,883.642v-15.341c0.259-1.383,1.34-2.465,2.724-2.723
	l43.086-4.195v-3.627c0.258-1.383,1.338-2.465,2.721-2.723h9.07c1.383,0.258,2.465,1.34,2.723,2.723V883.3L1187.898,883.642"/>
<circle fill="none" stroke="#1D1D1B" stroke-miterlimit="10" cx="1195.384" cy="875.104" r="2.948"/>
<path fill="none" stroke="#1D1D1B" stroke-miterlimit="10" d="M1255.933,883.642v-15.341c0.256-1.383,1.338-2.465,2.723-2.723
	l43.086-4.195v-3.627c0.259-1.383,1.338-2.465,2.722-2.723h9.069c1.383,0.258,2.465,1.34,2.724,2.723V883.3L1255.933,883.642"/>
<circle fill="none" stroke="#1D1D1B" stroke-miterlimit="10" cx="1263.415" cy="875.104" r="2.948"/>
<path fill="none" stroke="#1D1D1B" stroke-miterlimit="10" d="M1187.898,841.713v-15.341c0.259-1.383,1.34-2.465,2.724-2.723
	l43.086-4.195v-3.627c0.258-1.383,1.338-2.465,2.721-2.723h9.07c1.383,0.258,2.465,1.34,2.723,2.723v25.544L1187.898,841.713"/>
<circle fill="none" stroke="#1D1D1B" stroke-miterlimit="10" cx="1195.384" cy="833.175" r="2.948"/>
<path fill="none" stroke="#1D1D1B" stroke-miterlimit="10" d="M1255.933,841.713v-15.341c0.256-1.383,1.338-2.465,2.723-2.723
	l43.086-4.195v-3.627c0.259-1.383,1.338-2.465,2.722-2.723h9.069c1.383,0.258,2.465,1.34,2.724,2.723v25.544L1255.933,841.713"/>
<circle fill="none" stroke="#1D1D1B" stroke-miterlimit="10" cx="1263.415" cy="833.175" r="2.948"/>
<path fill="none" stroke="#1D1D1B" stroke-miterlimit="10" d="M534.788,591.118l-3.271-1.76l-3.149-1.771l-3.278-1.51v-4.531
	l3.278-1.52l3.149-1.629l3.271-1.892l3.149-1.891l3.147-2.141l-0.25-3.779l-3.397-1.641l-3.399-1.642l-3.278-1.391l-3.398-1.261
	l-3.399-1.131l-0.25-2.389l-0.379-2.15l3.021-1.891l3.029-2.01l3.021-2.271l2.898-2.27l2.891-2.512l-0.629-3.658l-3.65-1.262
	l-3.527-1.13l-3.521-1.01l-3.531-0.881l-3.52-0.762l-0.512-2.271l-0.5-2.141l2.771-2.271l2.771-2.391l2.643-2.521l2.647-2.64
	l2.521-2.781l-1.01-3.52l-3.781-0.892l-3.646-0.75l-3.65-0.631l-3.529-0.51l-3.529-0.25l-0.881-2.141l-0.75-2.142l2.521-2.52
	l4.779-5.541l2.271-2.898l2.271-3.149l-1.521-3.398l-3.771-0.381l-3.779-0.25l-3.65-0.262h-3.66l-3.52,0.133l-1.012-2.143
	l-1.129-1.89l2.262-2.899l2.02-2.898l2.01-3.149l2.021-3.142l1.76-3.279l-1.891-3.278h-3.779l-3.648,0.25l-3.779,0.26l-3.521,0.369
	l-3.529,0.51l-1.392-1.889l-1.129-1.892l1.761-3.021l1.771-3.148l1.629-3.409l1.521-3.4l1.381-3.398l-2.271-3.021l-3.648,0.5
	l-3.779,0.631l-3.521,0.629l-3.527,0.881l-3.521,0.881l-1.521-1.762l-1.379-1.639l1.379-3.271l1.392-3.399l1.26-3.408l1.011-3.65
	l1.131-3.649l-2.642-2.65l-3.659,0.881l-3.647,1.142l-3.529,1.131l-3.399,1.142l-3.271,1.379l-1.763-1.639l-1.641-1.381l1.131-3.399
	l0.879-3.529l0.892-3.649l0.621-3.66l0.641-3.777l-2.899-2.271l-3.528,1.26l-3.521,1.521l-3.278,1.511l-3.271,1.631l-3.148,1.77
	l-1.893-1.391l-1.76-1.26l0.631-3.521l0.5-3.66l0.379-3.649l0.25-3.66l0.121-3.771l-3.141-2.021l-3.4,1.762l-3.146,1.77l-3.15,2.011
	l-3.021,1.891l-2.899,2.142l-2.142-1.132l-1.892-1.129l0.25-3.53v-7.312l-0.25-3.647l-0.25-3.781l-3.396-1.64l-3.15,2.14
	l-3.029,2.143l-2.891,2.398l-2.648,2.271l-2.641,2.39l-2.271-0.88l-2.01-0.76l-0.129-3.649l-0.381-3.529l-0.5-3.65l-0.629-3.66
	l-0.762-3.779l-3.521-1.131l-2.899,2.394l-2.771,2.647l-2.521,2.521l-2.521,2.639l-2.261,2.781l-2.271-0.631l-2.141-0.629
	l-0.63-3.41l-0.763-3.65l-0.881-3.529l-1.129-3.521l-1.142-3.66l-3.649-0.75l-2.521,2.771l-2.521,2.898l-2.26,2.891l-2.14,2.9
	l-1.894,3.02l-2.397-0.368l-2.142-0.382l-1-3.397l-1.26-3.41l-1.261-3.397l-1.511-3.4l-1.641-3.52l-3.65-0.263l-2.27,3.029
	l-2.021,3.15l-1.891,3.147l-1.76,3.15l-1.642,3.149h-2.392l-2.142-0.131l-1.511-3.278l-1.51-3.271l-1.771-3.148l-1.892-3.278
	l-2.012-3.271l-3.647,0.119l-1.892,3.4l-1.642,3.278l-1.511,3.4l-1.391,3.279l-1.263,3.397l-2.389,0.25l-2.142,0.134l-1.763-3.021
	l-2.021-3.031l-2.142-3.02l-2.141-3.029l-2.392-3.021l-3.649,0.631l-1.521,3.528l-1.263,3.521l-1.13,3.408l-0.881,3.521
	l-0.879,3.529l-2.271,0.381l-2.144,0.5l-2.271-2.897l-2.26-2.771l-2.399-2.771l-2.64-2.642l-2.649-2.647l-3.649,1.01l-0.88,3.65
	l-0.881,3.657l-0.76,3.521l-0.5,3.66l-0.38,3.52l-2.271,0.76l-2.141,0.632l-2.393-2.521l-2.641-2.521l-2.779-2.392l-2.891-2.397
	l-3.021-2.392l-3.399,1.511l-0.511,3.648l-0.5,3.779l-0.25,3.66l-0.129,3.647v3.531l-2.144,1.01l-2.021,1l-2.642-2.26l-2.897-2.271
	l-3.021-2.021l-3.147-2.01l-3.271-2.021l-3.279,1.771l-0.118,3.897v3.66l0.5,7.299l0.5,3.531l-2.013,1.26l-1.891,1.129l-3.021-1.889
	l-3.15-1.762l-3.278-1.76l-3.271-1.642l-3.53-1.51l-3.021,2.141l0.381,3.779l0.5,3.65l0.629,3.647l0.631,3.531l0.88,3.529
	l-1.761,1.51l-1.76,1.391l-3.279-1.641l-3.271-1.391l-3.397-1.379l-3.528-1.132l-3.649-1.141l-2.771,2.521l0.879,3.648l0.881,3.66
	l1.011,3.531l1.131,3.397l1.26,3.398l-1.643,1.641l-1.511,1.631l-3.397-1.131l-3.521-1.129l-3.526-0.881l-3.649-0.761l-3.779-0.76
	l-2.392,2.898l1.261,3.531l1.261,3.526l1.51,3.4l1.513,3.27l1.639,3.15l-1.389,1.891l-1.392,1.771l-3.521-0.761l-3.529-0.631
	l-3.649-0.5l-3.647-0.381l-3.778-0.26l-2.142,3.029l1.629,3.529l1.771,3.271l1.761,3.147l2.021,3.15l1.88,2.9l-1.13,2.01l-1.131,1.9
	l-3.528-0.261l-3.647-0.25h-7.432l-3.779,0.25l-1.642,3.277l2.021,3.271l2.139,3.029l2.143,2.9l2.271,2.889l2.393,2.65l-1.012,2.141
	l-0.881,2.021l-3.521,0.119l-3.658,0.26l-3.649,0.371l-3.647,0.51l-3.779,0.629l-1.262,3.521l2.391,2.899l2.4,2.898l2.51,2.649
	l2.65,2.521l2.639,2.391l-0.75,2.271l-0.629,2.154l-3.529,0.5l-3.521,0.631l-3.66,0.763l-3.52,1l-3.65,1.139l-0.891,3.531
	l2.771,2.639l2.771,2.521l2.778,2.397l2.892,2.141l2.899,2.143l-0.381,2.271l-0.379,2.142l-3.521,1.01l-3.397,1.01l-3.529,1.26
	l-3.4,1.381l-3.528,1.511l-0.5,3.66l3.02,2.27l3.15,2.144l3.021,2.01l3.149,1.889l3.148,1.771l-0.13,2.26l-0.12,2.271l-3.398,1.393
	l-3.279,1.379l-3.27,1.641l-3.281,1.76l-3.27,1.892v3.779l3.27,1.891l3.281,1.771l3.27,1.642l3.279,1.51l3.398,1.26l0.12,2.393
	l0.13,2.271l-3.148,1.629l-3.149,1.898l-3.021,2.012l-3.15,2.142l-3.02,2.27l0.5,3.65l3.528,1.52l3.4,1.381l3.529,1.26l3.397,1.142
	l3.521,0.879l0.379,2.271l0.381,2.263l-2.899,2.02l-2.892,2.271l-2.778,2.26l-2.771,2.521l-2.771,2.648l0.891,3.648l3.65,1.01
	l3.52,1.012l3.66,0.75l3.521,0.76l3.529,0.5l0.75,2.271l0.629,2.02l-2.639,2.393l-2.65,2.648l-2.51,2.641l-2.4,2.771l-2.391,2.898
	l1.262,3.53l3.779,0.63l3.647,0.5l3.649,0.381l3.658,0.25l3.521,0.131l0.881,2.141l1.012,2.021l-2.393,2.77l-2.271,2.771
	l-2.143,2.896l-2.139,3.15l-2.021,3.149l1.641,3.399l3.779,0.129l3.777,0.121l3.65-0.121l3.65-0.129l3.525-0.381l1.132,2.02
	l1.13,1.893l-1.88,3.02l-2.021,3.031l-1.762,3.271l-1.771,3.278l-1.631,3.4l2.141,3.021l3.779-0.25l3.648-0.25l3.648-0.511
	l3.529-0.629l3.521-0.75l1.393,1.89l1.391,1.763l-1.641,3.146l-1.514,3.281l-1.51,3.399l-1.26,3.397l-1.26,3.65l2.391,2.778
	l3.779-0.632l3.649-0.891l3.528-0.879l3.521-1.011l3.399-1.132l1.642,1.643l1.511,1.629l-1.261,3.28l-1.131,3.528l-1.011,3.529
	l-0.881,3.521l-0.879,3.779l2.77,2.52l3.65-1.129l3.529-1.26l3.396-1.392l3.271-1.381l3.278-1.511l1.761,1.511l1.76,1.381
	l-0.879,3.397l-0.631,3.53l-0.63,3.648l-0.5,3.659l-0.381,3.779l3.021,2.271l3.529-1.64l3.27-1.642l3.279-1.642l3.148-1.891
	l3.021-1.89l2.01,1.26l1.895,1.14l-0.5,3.531l-0.5,7.299v3.78l0.117,3.779l3.279,1.771l3.271-1.89l3.147-2.021l3.021-2.142
	l2.897-2.141l2.642-2.271l2.142,1l2.021,0.892v3.647l0.129,3.53l0.25,3.779l0.5,3.646l0.511,3.779l3.399,1.392l3.021-2.271
	l2.891-2.392l2.779-2.521l2.641-2.521l2.393-2.521l2.27,0.75l2.145,0.761l0.379,3.528l0.5,3.528l0.76,3.65l0.881,3.648l0.879,3.65
	l3.65,0.889l2.649-2.648l2.64-2.641l2.399-2.78l2.261-2.771l2.27-2.899l2.271,0.511l2.141,0.5l0.879,3.409l0.881,3.521l1.13,3.529
	l1.263,3.529l1.52,3.529l3.65,0.5l2.391-2.898l2.143-3.021l2.141-3.031l2.021-3.02l1.763-3.15l2.391,0.25l2.141,0.132l1.262,3.399
	l1.391,3.397l1.511,3.278l1.642,3.4l1.892,3.27l3.647,0.132l2.012-3.271l1.893-3.16l1.77-3.27l1.511-3.279l1.51-3.271h2.271
	l2.261-0.129l1.642,3.149l1.76,3.147l1.892,3.147l2.021,3.15l2.271,3.148l3.649-0.381l1.642-3.399l1.511-3.397l1.26-3.528l1.26-3.4
	l1-3.397l2.271-0.381l2.27-0.25l1.892,2.897l2.142,2.894l2.26,2.897l2.521,2.897l2.521,2.771l3.65-0.75l1.139-3.528l1.131-3.66
	l0.879-3.521l0.764-3.527l0.631-3.53l2.26-0.629l2.148-0.632l2.26,2.771l2.521,2.649l2.521,2.641l2.771,2.521l2.898,2.521
	l3.521-1.263l0.76-3.647l0.632-3.647l0.5-3.66l0.379-3.649l0.131-3.531l2.142-0.879l2.142-0.881l2.641,2.392l2.648,2.399l2.891,2.26
	l3.029,2.142l3.149,2.147l3.397-1.52l0.25-3.771l0.25-3.776v-7.313l-0.25-3.529l2.01-1.131l2.021-1.139l2.897,2.147l3.021,2.01
	l3.146,1.892l3.15,1.891l3.398,1.763l3.143-2.013l-0.121-3.778l-0.25-3.778l-0.379-3.65l-0.5-3.528l-0.631-3.528l1.881-1.392
	l1.77-1.261l3.15,1.641l3.271,1.641l3.277,1.641l3.521,1.38l3.527,1.394l2.898-2.4l-0.639-3.77l-0.621-3.66l-0.893-3.521
	l-0.881-3.528l-1.129-3.4l1.76-1.639l1.643-1.513l3.27,1.38l3.4,1.262l3.529,1.141l3.648,1l3.66,0.892l2.639-2.649l-1.129-3.649
	l-1.01-3.528l-1.26-3.529l-1.393-3.397l-1.381-3.149l1.51-1.761l1.393-1.771l3.521,1.013l3.529,0.76l3.521,0.75l3.776,0.63
	l3.65,0.381l2.27-2.9l-1.379-3.528l-1.521-3.399l-1.631-3.271l-1.771-3.15l-1.76-3.146l1.26-1.892l1.26-1.892l3.531,0.5l3.521,0.51
	l3.777,0.25l3.65,0.119h3.777l1.893-3.139l-1.762-3.41l-2.021-3.142l-2.01-3.028l-2.021-3.021l-2.262-2.778l1.131-2.142l1.011-2.01
	l3.521,0.121h3.66l3.646-0.121l3.779-0.379l3.771-0.381l1.521-3.4l-2.271-3.021l-2.271-3.027l-2.392-2.771l-2.39-2.642l-2.521-2.649
	l0.879-2.142l0.75-2.139l3.531-0.263l3.527-0.5l3.648-0.5l3.65-0.761l3.777-0.879l1.011-3.531l-2.521-2.77l-2.648-2.771l-2.641-2.52
	l-2.77-2.271l-2.771-2.27l0.5-2.262l0.512-2.148l3.521-0.75l3.527-0.891l3.521-1l3.531-1.142l3.646-1.38l0.631-3.659l-2.891-2.392
	l-2.9-2.391l-3.02-2.15l-3.029-2.01l-3.021-1.893l0.381-2.396l0.25-2.141l3.397-1.132l3.399-1.391l3.279-1.381l3.399-1.521
	l3.397-1.761l0.25-3.778l-3.147-2.011L534.788,591.118z M331.521,588.346l-2.012,3.899l-3.148,3.15l-4.031,1.889l-4.409,0.76
	l-4.276-0.76l-4.031-2.01l-3.02-3.15l-2.021-4.028l-0.75-4.289l0.75-4.41l2.021-3.898l3.141-3.149l4.029-2.021l4.409-0.631
	l4.278,0.631l4.029,2.148l3.029,3.147l2.012,3.9l0.76,4.41L331.521,588.346z"/>
<polygon fill="none" stroke="#1D1D1B" stroke-miterlimit="10" points="332.279,583.938 331.521,588.346 329.51,592.247 
	326.359,595.397 322.329,597.288 317.92,598.045 313.641,597.288 309.609,595.278 306.59,592.125 304.568,588.096 303.818,583.807 
	304.568,579.397 306.59,575.497 309.729,572.346 313.76,570.329 318.17,569.698 322.449,570.329 326.479,572.477 329.51,575.625 
	331.521,579.528 "/>
<polygon fill="none" stroke="#1D1D1B" stroke-miterlimit="10" points="332.279,583.938 331.521,588.346 329.51,592.247 
	326.359,595.397 322.329,597.288 317.92,598.045 313.641,597.288 309.609,595.278 306.59,592.125 304.568,588.096 303.818,583.807 
	304.568,579.397 306.59,575.497 309.729,572.346 313.76,570.329 318.17,569.698 322.449,570.329 326.479,572.477 329.51,575.625 
	331.521,579.528 "/>
<polyline fill="none" stroke="#1D1D1B" stroke-miterlimit="10" points="477.111,583.686 479.503,583.559 481.771,583.052 
	484.036,582.172 486.18,581.166 488.066,579.778 489.704,578.141 491.217,576.252 492.351,574.237 493.23,571.968 493.859,569.7 
	494.114,567.307 493.986,565.038 "/>
<polyline fill="none" stroke="#1D1D1B" stroke-miterlimit="10" points="493.986,565.038 492.979,557.606 491.721,550.17 
	490.208,542.866 488.318,535.557 486.055,528.375 483.534,521.323 480.764,514.266 477.614,507.463 474.34,500.788 470.562,494.237 
	466.657,487.811 462.501,481.637 457.969,475.588 453.309,469.668 448.269,463.997 443.105,458.581 437.689,453.416 
	432.021,448.502 426.229,443.716 420.185,439.302 413.889,435.022 407.465,431.118 400.915,427.461 394.241,424.063 
	387.439,421.038 380.389,418.139 373.334,415.747 366.154,413.479 358.851,411.588 351.549,410.079 344.115,408.692 
	336.685,407.807 329.129,407.18 321.697,406.8 314.142,406.8 306.711,407.18 299.154,407.807 291.725,408.692 284.293,410.079 
	276.988,411.588 269.685,413.479 262.504,415.747 255.452,418.139 248.398,421.038 241.6,424.063 234.926,427.461 228.374,431.118 
	221.952,435.022 215.654,439.302 209.609,443.716 203.816,448.502 198.148,453.416 192.732,458.581 187.568,463.997 
	182.531,469.668 177.87,475.588 173.34,481.637 169.184,487.811 165.277,494.237 161.499,500.788 158.226,507.463 155.077,514.266 
	152.307,521.323 149.786,528.375 147.521,535.557 145.631,542.866 144.118,550.17 142.859,557.606 141.853,565.038 "/>
<polyline fill="none" stroke="#1D1D1B" stroke-miterlimit="10" points="141.728,565.038 141.601,567.307 141.853,569.7 
	142.482,571.968 143.363,574.237 144.497,576.252 146.01,578.141 147.646,579.778 149.533,581.166 151.676,582.172 153.941,583.052 
	156.209,583.559 158.603,583.686 "/>
<line fill="none" stroke="#1D1D1B" stroke-miterlimit="10" x1="158.603" y1="583.811" x2="268.299" y2="583.811"/>
<polyline fill="none" stroke="#1D1D1B" stroke-miterlimit="10" points="268.299,583.686 270.691,583.559 272.959,583.052 
	275.101,582.297 277.238,581.166 279.131,579.778 280.767,578.266 282.277,576.377 283.411,574.364 284.418,572.221 "/>
<polyline fill="none" stroke="#1D1D1B" stroke-miterlimit="10" points="351.42,572.346 350.161,569.196 348.648,566.172 
	346.762,563.401 344.745,560.627 342.353,558.237 339.834,555.968 337.063,554.079 334.165,552.313 331.144,550.925 
	327.868,549.795 324.596,549.039 321.32,548.536 317.92,548.411 314.519,548.536 311.243,549.039 307.971,549.795 304.695,550.925 
	301.674,552.313 298.775,554.079 296.006,555.968 293.486,558.237 291.094,560.627 289.077,563.401 287.189,566.172 285.68,569.196 
	284.418,572.346 "/>
<polyline fill="none" stroke="#1D1D1B" stroke-miterlimit="10" points="351.42,572.221 352.43,574.364 353.562,576.377 
	355.07,578.266 356.709,579.778 358.6,581.166 360.738,582.297 362.883,583.052 365.148,583.559 367.54,583.686 "/>
<line fill="none" stroke="#1D1D1B" stroke-miterlimit="10" x1="367.54" y1="583.811" x2="477.111" y2="583.811"/>
<path fill="none" stroke="#1D1D1B" stroke-miterlimit="10" d="M1306.702,1367.331c9.393,0,17.008-7.614,17.008-17.008
	c0-9.396-7.615-17.008-17.008-17.008h-30.613v-170.079h30.613c9.393,0,17.008-7.615,17.008-17.008c0-9.395-7.615-17.01-17.008-17.01
	h-30.613v-73.698l-240.946-139.229l-240.945,139.229v73.699h-30.612c-9.396,0-17.009,7.615-17.009,17.01
	c0,9.393,7.613,17.008,17.009,17.008h30.612v170.079h-30.612c-9.396,0-17.009,7.613-17.009,17.008
	c0,9.393,7.613,17.008,17.009,17.008h30.612v170.08h-30.612c-9.396,0-17.009,7.613-17.009,17.008s7.613,17.008,17.009,17.008h30.612
	v170.078h-30.612c-9.396,0-17.009,7.615-17.009,17.01c0,9.394,7.613,17.008,17.009,17.008h30.612v73.702h481.892v-73.702h30.613
	c9.395,0,17.008-7.614,17.008-17.008c0-9.395-7.615-17.01-17.008-17.01h-30.613v-170.08h30.613c9.395,0,17.008-7.614,17.008-17.009
	c0-9.396-7.615-17.008-17.008-17.008h-30.613v-170.08L1306.702,1367.331L1306.702,1367.331z M1286.859,1350.323v-5.67h22.679v11.34
	h-22.679V1350.323z M1286.859,1146.229v-5.671h22.679v11.341h-22.679V1146.229z M783.427,1146.229v5.669h-22.678v-11.341h22.678
	V1146.229z M783.427,1350.323v5.67h-22.678v-11.34h22.678V1350.323z M783.427,1554.418v5.668h-22.678v-11.338h22.678V1554.418z
	 M783.427,1758.511v5.671h-22.678v-11.341h22.678V1758.511z M1286.859,1758.511v-5.67h22.679v11.34h-22.679V1758.511z
	 M1286.859,1554.418v-5.67h22.679v11.338h-22.679V1554.418z"/>
<circle fill="none" stroke="#1D1D1B" stroke-miterlimit="10" cx="1035.145" cy="1390.311" r="11.338"/>
<circle fill="none" stroke="#1D1D1B" stroke-miterlimit="10" cx="848.059" cy="1294.04" r="11.339"/>
<circle fill="none" stroke="#1D1D1B" stroke-miterlimit="10" cx="1222.552" cy="1294.04" r="11.338"/>
<path fill="none" stroke="#1D1D1B" stroke-miterlimit="10" d="M1035.15,970.444c23.479,0,42.521,19.027,42.521,42.521
	c0,23.481-19.039,42.521-42.521,42.521c-23.489,0-42.521-19.039-42.521-42.521C992.63,989.475,1011.659,970.444,1035.15,970.444z
	 M1233.566,1806.64h-31.18v-36.854c0-17.222-13.961-31.183-31.185-31.183c-17.222,0-31.183,13.961-31.183,31.183v36.854h-62.358
	v-59.125c0-23.479-19.037-42.52-42.521-42.52s-42.521,19.037-42.521,42.52v59.125h-62.363v-36.854
	c0-17.222-13.961-31.183-31.18-31.183c-17.224,0-31.183,13.961-31.183,31.183v36.854H836.71l0.002-190.214v-85.22
	c0,0,0.774-122.445,198.424-122.445s198.423,122.445,198.423,122.445v275.434H1233.566z M1233.566,1264.397H836.721v-160.414
	c30.608-16.923,88.615-32.471,198.43-32.471c109.822,0,167.816,15.552,198.417,32.477L1233.566,1264.397L1233.566,1264.397z"/>
<circle fill="none" stroke="#1D1D1B" stroke-miterlimit="10" cx="899.163" cy="1769.973" r="12.756"/>
<circle fill="none" stroke="#1D1D1B" stroke-miterlimit="10" cx="1171.277" cy="1769.789" r="12.756"/>
<circle fill="none" stroke="#1D1D1B" stroke-miterlimit="10" cx="373.919" cy="1544.023" r="12.047"/>
<path fill="none" stroke="#1D1D1B" stroke-miterlimit="10" d="M373.917,1290.247c4.696,0,8.503,3.807,8.503,8.504
	c0,4.696-3.808,8.504-8.503,8.504c-4.697,0-8.504-3.808-8.504-8.504S369.22,1290.247,373.917,1290.247z M173.044,1558.198h176.275
	l-111.072,184.196l-65.205-108.219v-75.979L173.044,1558.198L173.044,1558.198z M173.044,1755.677v-66.573l40.107,66.573H173.044
	L173.044,1755.677z M237.855,1784.023c-7.828,0-14.174-6.348-14.174-14.174c0-7.828,6.348-14.174,14.174-14.174
	c7.828,0,14.174,6.346,14.174,14.174C252.029,1777.677,245.684,1784.023,237.855,1784.023z M263.339,1755.677l110.543-183.315
	l110.453,183.315H263.339z M509.979,1784.023c-7.828,0-14.174-6.348-14.174-14.174c0-7.828,6.346-14.174,14.174-14.174
	s14.174,6.346,14.174,14.174C524.152,1777.677,517.808,1784.023,509.979,1784.023z M570.663,1755.677h-34.986l34.986-58.021
	V1755.677z M570.663,1642.763l-60.658,100.589l-111.563-185.152h172.221V1642.763L570.663,1642.763z"/>
<path fill="none" stroke="#1D1D1B" stroke-miterlimit="10" d="M643.415,1367.393c9.393,0,17.008-7.611,17.008-17.008
	c0-9.393-7.615-17.008-17.008-17.008h-30.613v-170.079h30.613c9.393,0,17.008-7.615,17.008-17.008s-7.615-17.008-17.008-17.008
	h-30.613v-73.7l15.307-26.513c4.695-8.134,1.908-18.537-6.227-23.233c-8.133-4.695-18.535-1.909-23.232,6.227l-15.301,26.502
	L371.856,916.354l-211.493,122.211l-15.301-26.502c-4.697-8.136-15.1-10.924-23.233-6.228c-8.133,4.696-10.921,15.099-6.226,23.233
	l15.31,26.513v73.701h-30.614c-9.395,0-17.009,7.614-17.009,17.008c0,9.393,7.614,17.008,17.009,17.008h30.614v170.079h-30.614
	c-9.395,0-17.009,7.615-17.009,17.008c0,9.396,7.614,17.01,17.009,17.01h30.614v170.078h-30.614c-9.395,0-17.009,7.613-17.009,17.01
	c0,9.394,7.614,17.009,17.009,17.009h30.614v170.077h-30.614c-9.395,0-17.009,7.615-17.009,17.009
	c0,9.393,7.614,17.008,17.009,17.008h30.614v73.702h481.89v-73.702h30.614c9.394,0,17.009-7.614,17.009-17.008
	s-7.615-17.009-17.009-17.009h-30.614v-170.079h30.614c9.394,0,17.009-7.615,17.009-17.009c0-9.396-7.615-17.01-17.009-17.01
	h-30.614v-170.078H643.415L643.415,1367.393z M623.573,1350.385v-5.669h22.678v11.339h-22.678V1350.385z M623.573,1146.291v-5.669
	h22.678v11.339h-22.678V1146.291z M609.886,1015.276l9.82,5.669l-11.34,19.639l-4.91-2.834l-4.908-2.835L609.886,1015.276z
	 M124.005,1020.945l9.818-5.67l11.34,19.639l-4.91,2.835l-4.91,2.834L124.005,1020.945z M120.14,1146.291v5.669H97.462v-11.339
	h22.678V1146.291z M120.14,1350.385v5.67H97.462v-11.339h22.678V1350.385z M120.14,1554.48v5.669H97.462v-11.339h22.678V1554.48z
	 M120.14,1758.575v5.67H97.462v-11.34h22.678V1758.575z M623.573,1758.575v-5.67h22.678v11.34h-22.678V1758.575z M623.573,1554.48
	v-5.67h22.678v11.339h-22.678V1554.48z"/>
<circle fill="none" stroke="#1D1D1B" stroke-miterlimit="10" cx="1668.913" cy="1544.029" r="14.173"/>
<path fill="none" stroke="#1D1D1B" stroke-miterlimit="10" d="M1802.351,1782.606c-7.047,0-12.758-5.712-12.758-12.757
	s5.711-12.757,12.758-12.757c7.043,0,12.754,5.712,12.754,12.757S1809.393,1782.606,1802.351,1782.606z M1530.226,1782.606
	c-7.043,0-12.754-5.712-12.754-12.757s5.711-12.757,12.754-12.757c7.047,0,12.758,5.712,12.758,12.757
	S1537.271,1782.606,1530.226,1782.606z M1496.21,1264.397c-7.048,0-12.759-5.711-12.759-12.758c0-7.049,5.711-12.76,12.759-12.76
	c7.043,0,12.754,5.713,12.754,12.76C1508.964,1258.686,1503.253,1264.397,1496.21,1264.397z M1836.365,1264.397
	c-7.045,0-12.756-5.711-12.756-12.758c0-7.049,5.711-12.76,12.756-12.76c7.043,0,12.757,5.713,12.757,12.76
	C1849.122,1258.686,1843.409,1264.397,1836.365,1264.397z"/>
<path fill="none" stroke="#1D1D1B" stroke-miterlimit="10" d="M1937.847,1367.393c9.393,0,17.008-7.611,17.008-17.008
	c0-9.393-7.615-17.008-17.008-17.008h-30.613v-170.079h30.613c9.393,0,17.008-7.615,17.008-17.008s-7.615-17.008-17.008-17.008
	h-30.613v-73.7l15.305-26.513c4.697-8.134,1.91-18.537-6.225-23.233c-8.135-4.695-18.537-1.909-23.232,6.227l-15.301,26.502
	l-211.492-122.211l-211.491,122.212l-15.302-26.503c-4.698-8.135-15.1-10.922-23.233-6.227c-8.135,4.696-10.922,15.1-6.228,23.233
	l15.31,26.513v73.701h-30.613c-9.395,0-17.008,7.615-17.008,17.008s7.613,17.008,17.008,17.008h30.613v170.079h-30.613
	c-9.395,0-17.008,7.615-17.008,17.008c0,9.396,7.613,17.009,17.008,17.009h30.613v170.079h-30.613
	c-9.395,0-17.008,7.613-17.008,17.01c0,9.394,7.613,17.009,17.008,17.009h30.613v170.077h-30.613
	c-9.395,0-17.008,7.614-17.008,17.009c0,9.393,7.613,17.008,17.008,17.008h30.613v73.702h481.892v-73.702h30.612
	c9.396,0,17.009-7.613,17.009-17.008s-7.613-17.009-17.009-17.009h-30.612V1571.49h30.612c9.396,0,17.009-7.615,17.009-17.009
	c0-9.396-7.613-17.01-17.009-17.01h-30.612v-170.079H1937.847z M1918.005,1350.385v-5.669h22.678v11.339h-22.678V1350.385z
	 M1918.005,1146.291v-5.669h22.678v11.339h-22.678V1146.291z M1904.316,1015.276l9.82,5.669l-11.338,19.639l-4.91-2.834
	l-4.909-2.835L1904.316,1015.276z M1418.436,1020.945l9.82-5.67l11.338,19.639l-4.908,2.835l-4.91,2.834L1418.436,1020.945z
	 M1414.572,1146.291v5.669h-22.68v-11.339h22.68V1146.291z M1414.572,1350.385v5.67h-22.68v-11.339h22.68V1350.385z
	 M1414.572,1554.48v5.669h-22.68v-11.339h22.68V1554.48z M1414.572,1758.575v5.67h-22.68v-11.34h22.68V1758.575z M1918.005,1758.575
	v-5.67h22.678v11.34h-22.678V1758.575z M1918.005,1554.48v-5.67h22.678v11.339h-22.678V1554.48z"/>
<circle fill="none" stroke="#1D1D1B" stroke-miterlimit="10" cx="1668.458" cy="1543.962" r="14.173"/>
<circle fill="none" stroke="#1D1D1B" stroke-miterlimit="10" cx="2950.185" cy="1544.029" r="14.173"/>
<path fill="none" stroke="#1D1D1B" stroke-miterlimit="10" d="M3083.622,1782.606c-7.047,0-12.758-5.712-12.758-12.757
	s5.711-12.757,12.758-12.757c7.043,0,12.754,5.712,12.754,12.757S3090.664,1782.606,3083.622,1782.606z M2811.497,1782.606
	c-7.043,0-12.754-5.712-12.754-12.757s5.711-12.757,12.754-12.757c7.047,0,12.758,5.712,12.758,12.757
	S2818.543,1782.606,2811.497,1782.606z M2777.481,1264.397c-7.048,0-12.759-5.711-12.759-12.758c0-7.049,5.711-12.76,12.759-12.76
	c7.043,0,12.754,5.713,12.754,12.76C2790.235,1258.686,2784.524,1264.397,2777.481,1264.397z M3117.637,1264.397
	c-7.045,0-12.756-5.711-12.756-12.758c0-7.049,5.711-12.76,12.756-12.76c7.043,0,12.757,5.713,12.757,12.76
	C3130.394,1258.686,3124.681,1264.397,3117.637,1264.397z"/>
<path fill="none" stroke="#1D1D1B" stroke-miterlimit="10" d="M3219.118,1367.393c9.393,0,17.008-7.611,17.008-17.008
	c0-9.393-7.615-17.008-17.008-17.008h-30.613v-170.079h30.613c9.393,0,17.008-7.615,17.008-17.008s-7.615-17.008-17.008-17.008
	h-30.613v-73.7l15.305-26.513c4.697-8.134,1.91-18.537-6.225-23.233c-8.135-4.695-18.537-1.909-23.232,6.227l-15.301,26.502
	L2947.56,916.354l-211.491,122.212l-15.302-26.503c-4.698-8.135-15.1-10.922-23.233-6.227c-8.135,4.696-10.922,15.1-6.228,23.233
	l15.31,26.513v73.701h-30.613c-9.395,0-17.008,7.615-17.008,17.008s7.613,17.008,17.008,17.008h30.613v170.079h-30.613
	c-9.395,0-17.008,7.615-17.008,17.008c0,9.396,7.613,17.009,17.008,17.009h30.613v170.079h-30.613
	c-9.395,0-17.008,7.613-17.008,17.01c0,9.394,7.613,17.009,17.008,17.009h30.613v170.077h-30.613
	c-9.395,0-17.008,7.614-17.008,17.009c0,9.393,7.613,17.008,17.008,17.008h30.613v73.702h481.892v-73.702h30.612
	c9.396,0,17.009-7.613,17.009-17.008s-7.613-17.009-17.009-17.009h-30.612V1571.49h30.612c9.396,0,17.009-7.615,17.009-17.009
	c0-9.396-7.613-17.01-17.009-17.01h-30.612v-170.079H3219.118z M3199.276,1350.385v-5.669h22.678v11.339h-22.678V1350.385z
	 M3199.276,1146.291v-5.669h22.678v11.339h-22.678V1146.291z M3185.588,1015.276l9.82,5.669l-11.338,19.639l-4.91-2.834
	l-4.909-2.835L3185.588,1015.276z M2699.707,1020.945l9.82-5.67l11.338,19.639l-4.908,2.835l-4.91,2.834L2699.707,1020.945z
	 M2695.844,1146.291v5.669h-22.68v-11.339h22.68V1146.291z M2695.844,1350.385v5.67h-22.68v-11.339h22.68V1350.385z
	 M2695.844,1554.48v5.669h-22.68v-11.339h22.68V1554.48z M2695.844,1758.575v5.67h-22.68v-11.34h22.68V1758.575z M3199.276,1758.575
	v-5.67h22.678v11.34h-22.678V1758.575z M3199.276,1554.48v-5.67h22.678v11.339h-22.678V1554.48z"/>
<circle fill="none" stroke="#1D1D1B" stroke-miterlimit="10" cx="2949.729" cy="1543.962" r="14.173"/>
<circle fill="none" stroke="#1D1D1B" stroke-miterlimit="10" cx="2287.544" cy="1543.962" r="14.173"/>
<path fill="none" stroke="#1D1D1B" stroke-miterlimit="10" d="M2423.186,1782.119c-7.045,0-12.756-5.711-12.756-12.756
	s5.711-12.756,12.756-12.756c7.047,0,12.758,5.711,12.758,12.756S2430.23,1782.119,2423.186,1782.119z M2363.663,995.332
	l51.02,31.118v85.682c-15.703-10.705-32.824-19.484-51.02-26.007V995.332z M2295.63,957.54l51.021,30.021v93.218
	c-16.348-4.437-33.428-7.088-51.021-7.732V957.54z M2151.063,1782.119c-7.045,0-12.756-5.711-12.756-12.756
	s5.711-12.756,12.756-12.756c7.047,0,12.758,5.711,12.758,12.756S2158.107,1782.119,2151.063,1782.119z M2091.536,1064.645
	l51.022-29.945v90.221c-20.291,16.81-37.596,37.086-51.022,59.92V1064.645z M2119.88,1769.362v34.018h-28.351v-388.94
	c13.433,22.834,30.736,43.112,51.025,59.922v265.006C2129.472,1743.067,2119.88,1755.088,2119.88,1769.362z M2182.245,1803.378
	v-34.017c0-14.271-9.595-26.295-22.679-29.998v-252.217c15.705,10.704,32.826,19.485,51.021,26.009v290.223H2182.245z
	 M2210.589,1086.123c-18.195,6.525-35.316,15.305-51.021,26.009v-86.604l51.021-28.957V1086.123z M2227.597,986.119l51.021-30.063
	v116.985c-17.595,0.646-34.675,3.296-51.021,7.732V986.119z M2278.624,1803.378h-51.023V1518.5
	c11.15,3.023,22.646,5.197,34.412,6.492c-3.811,5.188-6.064,11.604-6.064,18.543c0,14.326,9.593,26.396,22.679,30.108
	L2278.624,1803.378z M2278.622,1298.263c0-4.694,3.808-8.504,8.505-8.504c4.695,0,8.503,3.807,8.503,8.504
	c0,4.695-3.808,8.504-8.503,8.504C2282.43,1306.766,2278.622,1302.958,2278.622,1298.263z M2346.65,1803.378h-51.02v-229.729
	c13.086-3.719,22.678-15.787,22.678-30.113c0-6.939-2.256-13.354-6.063-18.543c11.762-1.295,23.26-3.467,34.409-6.494
	L2346.65,1803.378z M2392.005,1769.362v34.018h-28.346v-290.219c18.194-6.525,35.315-15.306,51.021-26.01v252.213
	C2401.597,1743.067,2392.005,1755.088,2392.005,1769.362z M2454.368,1803.378v-34.017c0-14.271-9.595-26.295-22.679-29.998v-265.007
	c20.289-16.81,37.595-37.084,51.021-59.916l0.002,388.938H2454.368z M2482.714,1184.835c-13.432-22.831-30.734-43.108-51.023-59.92
	v-87.24l51.023,29.396V1184.835z"/>
<path fill="none" stroke="#1D1D1B" stroke-miterlimit="10" d="M2556.931,1367.393c9.395,0,17.008-7.611,17.008-17.008
	c0-9.393-7.613-17.008-17.008-17.008h-30.615v-170.079h30.615c9.395,0,17.008-7.615,17.008-17.008s-7.613-17.008-17.008-17.008
	h-30.615v-73.7l15.31-26.513c4.694-8.134,1.907-18.537-6.228-23.233c-8.135-4.695-18.537-1.909-23.229,6.227l-15.306,26.502
	l-211.489-122.211l-211.492,122.212l-15.301-26.503c-4.697-8.135-15.103-10.922-23.234-6.227c-8.133,4.696-10.92,15.1-6.225,23.233
	l15.309,26.513v73.701h-30.612c-9.396,0-17.009,7.615-17.009,17.008s7.613,17.008,17.009,17.008h30.612v170.079h-30.612
	c-9.396,0-17.009,7.615-17.009,17.008c0,9.396,7.613,17.009,17.009,17.009h30.612v170.079h-30.612
	c-9.396,0-17.009,7.613-17.009,17.01c0,9.394,7.613,17.009,17.009,17.009h30.612v170.077h-30.612
	c-9.396,0-17.009,7.614-17.009,17.009c0,9.393,7.613,17.008,17.009,17.008h30.612v73.702h481.892v-73.702h30.612
	c9.394,0,17.009-7.613,17.009-17.008s-7.615-17.009-17.009-17.009h-30.612V1571.49h30.612c9.394,0,17.009-7.615,17.009-17.009
	c0-9.396-7.615-17.01-17.009-17.01h-30.612v-170.079H2556.931z M2537.089,1350.385v-5.669h22.676v11.339h-22.676V1350.385z
	 M2537.089,1146.291v-5.669h22.676v11.339h-22.676V1146.291z M2523.4,1015.276l9.82,5.669l-11.34,19.639l-4.91-2.834l-4.908-2.835
	L2523.4,1015.276z M2037.518,1020.945l9.82-5.67l11.338,19.639l-4.908,2.835l-4.908,2.834L2037.518,1020.945z M2033.656,1146.291
	v5.669h-22.682v-11.339h22.682V1146.291z M2033.656,1350.385v5.67h-22.682v-11.339h22.682V1350.385z M2033.656,1554.48v5.669
	h-22.682v-11.339h22.682V1554.48z M2033.656,1758.575v5.67h-22.682v-11.34h22.682V1758.575z M2537.089,1758.575v-5.67h22.676v11.34
	h-22.676V1758.575z M2537.089,1554.48v-5.67h22.676v11.339h-22.676V1554.48z"/>
<polygon fill="none" stroke="#1D1D1B" stroke-miterlimit="10" points="774.15,144.431 757.143,144.431 740.134,144.431 
	740.134,130.256 774.15,130.256 "/>
<polygon fill="none" stroke="#1D1D1B" stroke-miterlimit="10" points="774.55,493.09 757.542,493.09 740.534,493.09 
	740.534,478.919 774.55,478.919 "/>
<polygon fill="none" stroke="#1D1D1B" stroke-miterlimit="10" points="1031.058,113.248 1079.247,113.248 1079.247,552.174 
	625.704,552.174 625.704,113.248 1014.051,113.248 1014.051,332.713 1031.058,332.713 "/>
<g>
	<polygon fill="none" stroke="#1D1D1B" stroke-miterlimit="10" points="1242.346,517.232 1225.34,517.232 1208.331,517.232 
		1208.331,531.405 1242.346,531.405 	"/>
	<polygon fill="none" stroke="#1D1D1B" stroke-miterlimit="10" points="1242.346,168.571 1225.34,168.571 1208.331,168.571 
		1208.331,182.744 1242.346,182.744 	"/>
	<polygon fill="none" stroke="#1D1D1B" stroke-miterlimit="10" points="1547.044,109.487 1498.856,109.487 1498.856,328.95 
		1481.848,328.95 1481.848,109.487 1093.501,109.487 1093.501,548.411 1547.044,548.411 	"/>
</g>
<rect x="1659.001" y="113.248" fill="none" stroke="#1D1D1B" stroke-miterlimit="10" width="396.852" height="782.36"/>
<path fill="none" stroke="#1D1D1B" stroke-miterlimit="10" d="M2041.678,804.9v-17.008h-14.175v34.017h14.175V804.9
	 M2041.678,600.808v-17.009h-14.175v34.017h14.175V600.808 M2041.678,396.714v-17.009h-14.175v34.017h14.175V396.714
	 M2041.678,192.618v-17.009h-14.175v34.017h14.175V192.618 M1673.174,192.618v17.008h14.173v-34.017h-14.173V192.618
	 M1673.174,396.714v17.008h14.173v-34.017h-14.173V396.714 M1673.174,600.808v17.008h14.173v-34.017h-14.173V600.808
	 M1673.174,804.9v17.009h14.173v-34.017h-14.173V804.9"/>
<polygon fill="none" stroke="#1D1D1B" stroke-miterlimit="10" points="1987.818,617.814 2001.993,617.814 2001.993,600.808 
	2001.993,583.8 1987.818,583.8 "/>
<polygon fill="none" stroke="#1D1D1B" stroke-miterlimit="10" points="2001.993,396.714 2001.993,379.704 1987.818,379.704 
	1987.818,413.721 2001.993,413.721 "/>
<polygon fill="none" stroke="#1D1D1B" stroke-miterlimit="10" points="1987.818,209.626 2001.993,209.626 2001.993,192.618 
	2001.993,175.609 1987.818,175.609 "/>
<polygon fill="none" stroke="#1D1D1B" stroke-miterlimit="10" points="1987.818,821.909 2001.993,821.909 2001.993,804.9 
	2001.993,787.895 1987.818,787.895 "/>
<polygon fill="none" stroke="#1D1D1B" stroke-miterlimit="10" points="1712.862,617.814 1727.031,617.814 1727.031,600.808 
	1727.031,583.8 1712.862,583.8 "/>
<polygon fill="none" stroke="#1D1D1B" stroke-miterlimit="10" points="1727.031,396.714 1727.031,379.704 1712.862,379.704 
	1712.862,413.721 1727.031,413.721 "/>
<polygon fill="none" stroke="#1D1D1B" stroke-miterlimit="10" points="1712.862,209.626 1727.031,209.626 1727.031,192.618 
	1727.031,175.609 1712.862,175.609 "/>
<polygon fill="none" stroke="#1D1D1B" stroke-miterlimit="10" points="1712.862,821.909 1727.031,821.909 1727.031,804.9 
	1727.031,787.895 1712.862,787.895 "/>
<circle fill="none" stroke="#1D1D1B" stroke-miterlimit="10" cx="2298.43" cy="294.303" r="4.535"/>
<circle fill="none" stroke="#1D1D1B" stroke-miterlimit="10" cx="2298.43" cy="223.437" r="4.536"/>
<path fill="none" stroke="#1D1D1B" stroke-miterlimit="10" d="M2291.219,286.344c0,0-6.791-5.332-6.791-5.166s0-44.5,0-44.5
	l6.791-5.334l15.168,2.709l6.207,5.25v39.209l-6.039,5.291L2291.219,286.344z"/>
<rect x="2103.292" y="118.918" fill="none" stroke="#1D1D1B" stroke-miterlimit="10" width="396.852" height="782.36"/>
<path fill="none" stroke="#1D1D1B" stroke-miterlimit="10" d="M2485.969,810.57v-17.008h-14.172v34.017h14.172V810.57
	 M2485.969,606.478v-17.009h-14.172v34.017h14.172V606.478 M2485.969,402.384v-17.009h-14.172v34.017h14.172V402.384
	 M2485.969,198.288v-17.009h-14.172v34.017h14.172V198.288 M2117.465,198.288v17.008h14.174v-34.017h-14.174V198.288
	 M2117.465,402.384v17.008h14.174v-34.017h-14.174V402.384 M2117.465,606.478v17.008h14.174v-34.017h-14.174V606.478
	 M2117.465,810.57v17.009h14.174v-34.017h-14.174V810.57"/>
<polygon fill="none" stroke="#1D1D1B" stroke-miterlimit="10" points="2432.112,623.484 2446.284,623.484 2446.284,606.478 
	2446.284,589.47 2432.112,589.47 "/>
<polygon fill="none" stroke="#1D1D1B" stroke-miterlimit="10" points="2446.284,402.384 2446.284,385.374 2432.112,385.374 
	2432.112,419.391 2446.284,419.391 "/>
<polygon fill="none" stroke="#1D1D1B" stroke-miterlimit="10" points="2432.112,215.296 2446.284,215.296 2446.284,198.288 
	2446.284,181.279 2432.112,181.279 "/>
<polygon fill="none" stroke="#1D1D1B" stroke-miterlimit="10" points="2432.112,827.579 2446.284,827.579 2446.284,810.57 
	2446.284,793.564 2432.112,793.564 "/>
<polygon fill="none" stroke="#1D1D1B" stroke-miterlimit="10" points="2157.153,623.484 2171.325,623.484 2171.325,606.478 
	2171.325,589.47 2157.153,589.47 "/>
<polygon fill="none" stroke="#1D1D1B" stroke-miterlimit="10" points="2171.325,402.384 2171.325,385.374 2157.153,385.374 
	2157.153,419.391 2171.325,419.391 "/>
<polygon fill="none" stroke="#1D1D1B" stroke-miterlimit="10" points="2157.153,215.296 2171.325,215.296 2171.325,198.288 
	2171.325,181.279 2157.153,181.279 "/>
<polygon fill="none" stroke="#1D1D1B" stroke-miterlimit="10" points="2157.153,827.579 2171.325,827.579 2171.325,810.57 
	2171.325,793.564 2157.153,793.564 "/>
<circle fill="none" stroke="#1D1D1B" stroke-miterlimit="10" cx="1400.767" cy="841.713" r="8.079"/>
<path fill="none" stroke="#1D1D1B" stroke-miterlimit="10" d="M1424.638,826.458l-0.441-4.063c1.104-1.104,1.104-2.904,0-4.013
	l-10.021-10.021c-1.104-1.104-1.104-2.901,0-4.012l-4.783-125.705c1.66,0.362,3.354-0.072,4.701-1.418
	c2.758-2.757,1.729-6.979-2.275-9.388l-4.229-2.535c1.074,0.076,2.146-0.165,3.015-0.805c2.032-1.492,1.272-3.779-1.687-5.082
	l-3.901-1.72v-11.418c0-1.562-1.271-2.834-2.834-2.834h-2.837c-1.561,0-2.834,1.272-2.834,2.834v11.418l-3.899,1.72
	c-2.959,1.303-3.719,3.59-1.688,5.084c0.869,0.638,1.939,0.879,3.018,0.804l-4.229,2.534c-4.014,2.406-5.037,6.632-2.28,9.388
	c1.353,1.349,3.04,1.782,4.702,1.418l-4.779,125.705c1.104,1.104,1.104,2.901,0,4.01l-10.021,10.021
	c-1.104,1.104-1.104,2.906,0,4.009l-0.439,4.063c-2.82,4.405-4.47,9.641-4.47,15.262c0,15.656,12.688,28.353,28.353,28.353
	c15.649,0,28.348-12.688,28.348-28.353C1429.104,836.1,1427.464,830.865,1424.638,826.458z"/>
<path fill="none" stroke="#1D1D1B" stroke-miterlimit="10" d="M1470.151,814.423l-3.543-172.509h-7.086l-3.543,172.509
	c-12.228,3.146-21.261,14.246-21.261,27.453c0,13.209,9.033,24.312,21.261,27.454l0.707,20.507h12.756l0.709-20.507
	c12.229-3.145,21.263-14.245,21.263-27.454S1482.378,817.57,1470.151,814.423z"/>
<circle fill="none" stroke="#1D1D1B" stroke-miterlimit="10" cx="1463.097" cy="841.713" r="8.079"/>
<circle fill="none" stroke="#1D1D1B" stroke-miterlimit="10" cx="1531.89" cy="841.713" r="8.079"/>
<path fill="none" stroke="#1D1D1B" stroke-miterlimit="10" d="M1555.761,826.458l-0.443-4.063c1.104-1.104,1.104-2.904,0-4.013
	l-10.021-10.021c-1.104-1.104-1.104-2.901,0-4.012l-4.781-125.705c1.658,0.362,3.354-0.072,4.699-1.418
	c2.76-2.757,1.73-6.979-2.273-9.388l-4.229-2.535c1.072,0.076,2.146-0.165,3.014-0.805c2.033-1.492,1.271-3.779-1.688-5.082
	l-3.9-1.72v-11.418c0-1.562-1.271-2.834-2.834-2.834h-2.836c-1.563,0-2.834,1.272-2.834,2.834v11.418l-3.9,1.72
	c-2.959,1.303-3.719,3.59-1.688,5.084c0.867,0.638,1.938,0.879,3.016,0.804l-4.228,2.534c-4.015,2.406-5.036,6.632-2.28,9.388
	c1.352,1.349,3.041,1.782,4.703,1.418l-4.781,125.705c1.104,1.104,1.104,2.901,0,4.01l-10.021,10.021
	c-1.104,1.104-1.104,2.906,0,4.009l-0.44,4.063c-2.819,4.405-4.469,9.641-4.469,15.262c0,15.656,12.688,28.353,28.353,28.353
	c15.649,0,28.348-12.688,28.348-28.353C1560.227,836.1,1558.585,830.865,1555.761,826.458z"/>
<path fill="none" stroke="#1D1D1B" stroke-miterlimit="10" d="M1601.273,814.423l-3.543-172.509h-7.086l-3.543,172.509
	c-12.227,3.146-21.26,14.246-21.26,27.453c0,13.209,9.033,24.312,21.26,27.454l0.707,20.507h12.757l0.709-20.507
	c12.229-3.145,21.262-14.245,21.262-27.454S1613.501,817.57,1601.273,814.423z"/>
<circle fill="none" stroke="#1D1D1B" stroke-miterlimit="10" cx="1594.218" cy="841.713" r="8.079"/>
<path fill="none" stroke="#1D1D1B" stroke-miterlimit="10" d="M1108.924,765.635v-15.254c0.514-1.383,2.678-2.465,5.442-2.724
	l86.172-4.194v-3.627c0.517-1.383,2.679-2.465,5.439-2.724h18.145c2.765,0.259,4.929,1.341,5.441,2.724v25.458L1108.924,765.635"/>
<circle fill="none" stroke="#1D1D1B" stroke-miterlimit="10" cx="1116.405" cy="757.184" r="2.948"/>
<path fill="none" stroke="#1D1D1B" stroke-miterlimit="10" d="M972.858,765.635v-15.254c0.514-1.383,2.678-2.465,5.443-2.724
	l86.172-4.194v-3.627c0.516-1.383,2.678-2.465,5.441-2.724h18.143c2.764,0.259,4.928,1.341,5.443,2.724v25.458L972.858,765.635"/>
<circle fill="none" stroke="#1D1D1B" stroke-miterlimit="10" cx="980.344" cy="757.184" r="2.948"/>
<path fill="none" stroke="#1D1D1B" stroke-miterlimit="10" d="M1108.924,731.142v-15.254c0.514-1.383,2.678-2.465,5.442-2.724
	l86.172-4.194v-3.627c0.517-1.383,2.679-2.465,5.439-2.724h18.145c2.765,0.259,4.929,1.341,5.441,2.724v25.458L1108.924,731.142"/>
<circle fill="none" stroke="#1D1D1B" stroke-miterlimit="10" cx="1116.405" cy="722.691" r="2.948"/>
<path fill="none" stroke="#1D1D1B" stroke-miterlimit="10" d="M972.858,731.142v-15.254c0.514-1.383,2.678-2.465,5.443-2.724
	l86.172-4.194v-3.627c0.516-1.383,2.678-2.465,5.441-2.724h18.143c2.764,0.259,4.928,1.341,5.443,2.724v25.458L972.858,731.142"/>
<circle fill="none" stroke="#1D1D1B" stroke-miterlimit="10" cx="980.344" cy="722.691" r="2.948"/>
<path fill="none" stroke="#1D1D1B" stroke-miterlimit="10" d="M1108.924,695.367v-15.254c0.514-1.383,2.678-2.465,5.442-2.724
	l86.172-4.194v-3.627c0.517-1.383,2.679-2.465,5.439-2.724h18.145c2.765,0.259,4.929,1.341,5.441,2.724v25.458L1108.924,695.367"/>
<circle fill="none" stroke="#1D1D1B" stroke-miterlimit="10" cx="1116.405" cy="686.916" r="2.948"/>
<path fill="none" stroke="#1D1D1B" stroke-miterlimit="10" d="M972.858,695.367v-15.254c0.514-1.383,2.678-2.465,5.443-2.724
	l86.172-4.194v-3.627c0.516-1.383,2.678-2.465,5.441-2.724h18.143c2.764,0.259,4.928,1.341,5.443,2.724v25.458L972.858,695.367"/>
<circle fill="none" stroke="#1D1D1B" stroke-miterlimit="10" cx="980.344" cy="686.916" r="2.948"/>
<path fill="none" stroke="#1D1D1B" stroke-miterlimit="10" d="M1108.924,657.707v-15.254c0.514-1.383,2.678-2.465,5.442-2.724
	l86.172-4.194v-3.627c0.517-1.383,2.679-2.465,5.439-2.724h18.145c2.765,0.259,4.929,1.341,5.441,2.724v25.458L1108.924,657.707"/>
<circle fill="none" stroke="#1D1D1B" stroke-miterlimit="10" cx="1116.405" cy="649.255" r="2.948"/>
<path fill="none" stroke="#1D1D1B" stroke-miterlimit="10" d="M972.858,657.707v-15.254c0.514-1.383,2.678-2.465,5.443-2.724
	l86.172-4.194v-3.627c0.516-1.383,2.678-2.465,5.441-2.724h18.143c2.764,0.259,4.928,1.341,5.443,2.724v25.458L972.858,657.707"/>
<circle fill="none" stroke="#1D1D1B" stroke-miterlimit="10" cx="980.344" cy="649.255" r="2.948"/>
<path fill="none" stroke="#1D1D1B" stroke-miterlimit="10" d="M831.794,765.635v-15.254c0.514-1.383,2.678-2.465,5.442-2.724
	l86.172-4.194v-3.627c0.517-1.383,2.679-2.465,5.439-2.724h18.145c2.765,0.259,4.929,1.341,5.441,2.724v25.458L831.794,765.635"/>
<circle fill="none" stroke="#1D1D1B" stroke-miterlimit="10" cx="839.275" cy="757.184" r="2.948"/>
<path fill="none" stroke="#1D1D1B" stroke-miterlimit="10" d="M695.729,765.635v-15.254c0.514-1.383,2.678-2.465,5.443-2.724
	l86.172-4.194v-3.627c0.516-1.383,2.678-2.465,5.441-2.724h18.143c2.764,0.259,4.928,1.341,5.443,2.724v25.458L695.729,765.635"/>
<circle fill="none" stroke="#1D1D1B" stroke-miterlimit="10" cx="703.214" cy="757.184" r="2.948"/>
<path fill="none" stroke="#1D1D1B" stroke-miterlimit="10" d="M831.794,731.142v-15.254c0.514-1.383,2.678-2.465,5.442-2.724
	l86.172-4.194v-3.627c0.517-1.383,2.679-2.465,5.439-2.724h18.145c2.765,0.259,4.929,1.341,5.441,2.724v25.458L831.794,731.142"/>
<circle fill="none" stroke="#1D1D1B" stroke-miterlimit="10" cx="839.275" cy="722.691" r="2.948"/>
<path fill="none" stroke="#1D1D1B" stroke-miterlimit="10" d="M695.729,731.142v-15.254c0.514-1.383,2.678-2.465,5.443-2.724
	l86.172-4.194v-3.627c0.516-1.383,2.678-2.465,5.441-2.724h18.143c2.764,0.259,4.928,1.341,5.443,2.724v25.458L695.729,731.142"/>
<circle fill="none" stroke="#1D1D1B" stroke-miterlimit="10" cx="703.214" cy="722.691" r="2.948"/>
<path fill="none" stroke="#1D1D1B" stroke-miterlimit="10" d="M831.794,695.367v-15.254c0.514-1.383,2.678-2.465,5.442-2.724
	l86.172-4.194v-3.627c0.517-1.383,2.679-2.465,5.439-2.724h18.145c2.765,0.259,4.929,1.341,5.441,2.724v25.458L831.794,695.367"/>
<circle fill="none" stroke="#1D1D1B" stroke-miterlimit="10" cx="839.275" cy="686.916" r="2.948"/>
<path fill="none" stroke="#1D1D1B" stroke-miterlimit="10" d="M695.729,695.367v-15.254c0.514-1.383,2.678-2.465,5.443-2.724
	l86.172-4.194v-3.627c0.516-1.383,2.678-2.465,5.441-2.724h18.143c2.764,0.259,4.928,1.341,5.443,2.724v25.458L695.729,695.367"/>
<circle fill="none" stroke="#1D1D1B" stroke-miterlimit="10" cx="703.214" cy="686.916" r="2.948"/>
<path fill="none" stroke="#1D1D1B" stroke-miterlimit="10" d="M831.794,657.707v-15.254c0.514-1.383,2.678-2.465,5.442-2.724
	l86.172-4.194v-3.627c0.517-1.383,2.679-2.465,5.439-2.724h18.145c2.765,0.259,4.929,1.341,5.441,2.724v25.458L831.794,657.707"/>
<circle fill="none" stroke="#1D1D1B" stroke-miterlimit="10" cx="839.275" cy="649.255" r="2.948"/>
<path fill="none" stroke="#1D1D1B" stroke-miterlimit="10" d="M695.729,657.707v-15.254c0.514-1.383,2.678-2.465,5.443-2.724
	l86.172-4.194v-3.627c0.516-1.383,2.678-2.465,5.441-2.724h18.143c2.764,0.259,4.928,1.341,5.443,2.724v25.458L695.729,657.707"/>
<circle fill="none" stroke="#1D1D1B" stroke-miterlimit="10" cx="703.214" cy="649.255" r="2.948"/>
</svg>
