<?xml version="1.0" encoding="utf-8"?>
<!-- Generator: Adobe Illustrator 15.1.0, SVG Export Plug-In . SVG Version: 6.00 Build 0)  -->
<!DOCTYPE svg PUBLIC "-//W3C//DTD SVG 1.1//EN" "http://www.w3.org/Graphics/SVG/1.1/DTD/svg11.dtd">
<svg version="1.1" id="Layer_1" xmlns="http://www.w3.org/2000/svg" xmlns:xlink="http://www.w3.org/1999/xlink" x="0px" y="0px"
	 width="3761.247px" height="2946.375px" viewBox="0 0 3761.247 2946.375" enable-background="new 0 0 3761.247 2946.375"
	 xml:space="preserve">
<path fill="none" stroke="#1D1D1B" stroke-miterlimit="10" d="M1541.956,2527.98v-18.141c0.258-1.383,1.34-2.465,2.723-2.723
	l43.086-4.195v-3.627c0.258-1.383,1.338-2.465,2.723-2.723h9.068c1.383,0.258,2.465,1.34,2.723,2.723v28.346L1541.956,2527.98"/>
<circle fill="none" stroke="#1D1D1B" stroke-miterlimit="10" cx="1549.44" cy="2516.642" r="2.948"/>
<path fill="none" stroke="#1D1D1B" stroke-miterlimit="10" d="M1609.987,2527.98v-18.141c0.258-1.383,1.34-2.465,2.723-2.723
	l43.086-4.195v-3.627c0.258-1.383,1.338-2.465,2.723-2.723h9.068c1.383,0.258,2.465,1.34,2.723,2.723v28.346L1609.987,2527.98"/>
<circle fill="none" stroke="#1D1D1B" stroke-miterlimit="10" cx="1617.471" cy="2516.642" r="2.948"/>
<path fill="none" stroke="#1D1D1B" stroke-miterlimit="10" d="M1678.018,2527.98v-18.141c0.258-1.383,1.34-2.465,2.723-2.723
	l43.086-4.195v-3.627c0.258-1.383,1.338-2.465,2.721-2.723h9.07c1.383,0.258,2.465,1.34,2.723,2.723v28.346L1678.018,2527.98"/>
<circle fill="none" stroke="#1D1D1B" stroke-miterlimit="10" cx="1685.502" cy="2516.642" r="2.948"/>
<path fill="none" stroke="#1D1D1B" stroke-miterlimit="10" d="M1746.051,2527.98v-18.141c0.256-1.383,1.338-2.465,2.723-2.723
	l43.086-4.195v-3.627c0.258-1.383,1.338-2.465,2.721-2.723h9.07c1.383,0.258,2.465,1.34,2.723,2.723v28.346L1746.051,2527.98"/>
<circle fill="none" stroke="#1D1D1B" stroke-miterlimit="10" cx="1753.534" cy="2516.642" r="2.948"/>
<path fill="none" stroke="#1D1D1B" stroke-miterlimit="10" d="M1814.083,2527.98v-18.141c0.258-1.383,1.338-2.465,2.721-2.723
	l43.086-4.195v-3.627c0.258-1.383,1.34-2.465,2.723-2.723h9.07c1.381,0.258,2.463,1.34,2.723,2.723v28.346L1814.083,2527.98"/>
<circle fill="none" stroke="#1D1D1B" stroke-miterlimit="10" cx="1821.565" cy="2516.642" r="2.948"/>
<path fill="none" stroke="#1D1D1B" stroke-miterlimit="10" d="M1882.114,2527.98v-18.141c0.258-1.383,1.338-2.465,2.721-2.723
	l43.086-4.195v-3.627c0.258-1.383,1.34-2.465,2.723-2.723h9.07c1.383,0.258,2.463,1.34,2.723,2.723v28.346L1882.114,2527.98"/>
<circle fill="none" stroke="#1D1D1B" stroke-miterlimit="10" cx="1889.596" cy="2516.642" r="2.948"/>
<path fill="none" stroke="#1D1D1B" stroke-miterlimit="10" d="M1950.145,2527.98v-18.141c0.258-1.383,1.338-2.465,2.721-2.723
	l43.086-4.195v-3.627c0.258-1.383,1.34-2.465,2.723-2.723h9.07c1.383,0.258,2.463,1.34,2.721,2.723v28.346L1950.145,2527.98"/>
<circle fill="none" stroke="#1D1D1B" stroke-miterlimit="10" cx="1957.629" cy="2516.642" r="2.948"/>
<path fill="none" stroke="#1D1D1B" stroke-miterlimit="10" d="M2018.176,2527.98v-18.141c0.258-1.383,1.34-2.465,2.723-2.723
	l43.086-4.195v-3.627c0.258-1.383,1.34-2.465,2.723-2.723h9.07c1.383,0.258,2.463,1.34,2.721,2.723v28.346L2018.176,2527.98"/>
<circle fill="none" stroke="#1D1D1B" stroke-miterlimit="10" cx="2025.661" cy="2516.642" r="2.948"/>
<path fill="none" stroke="#1D1D1B" stroke-miterlimit="10" d="M2086.208,2527.98v-18.141c0.258-1.383,1.34-2.465,2.721-2.723
	l43.088-4.195v-3.627c0.258-1.383,1.338-2.465,2.723-2.723h9.068c1.383,0.258,2.465,1.34,2.723,2.723v28.346L2086.208,2527.98"/>
<circle fill="none" stroke="#1D1D1B" stroke-miterlimit="10" cx="2093.692" cy="2516.642" r="2.948"/>
<path fill="none" stroke="#1D1D1B" stroke-miterlimit="10" d="M2154.239,2527.98v-18.141c0.258-1.383,1.34-2.465,2.723-2.723
	l43.086-4.195v-3.627c0.258-1.383,1.338-2.465,2.723-2.723h9.068c1.383,0.258,2.465,1.34,2.723,2.723v28.346L2154.239,2527.98"/>
<circle fill="none" stroke="#1D1D1B" stroke-miterlimit="10" cx="2161.723" cy="2516.642" r="2.948"/>
<path fill="none" stroke="#1D1D1B" stroke-miterlimit="10" d="M2222.27,2527.98v-18.141c0.258-1.383,1.34-2.465,2.723-2.723
	l43.086-4.195v-3.627c0.258-1.383,1.338-2.465,2.721-2.723h9.07c1.383,0.258,2.465,1.34,2.723,2.723v28.346L2222.27,2527.98"/>
<circle fill="none" stroke="#1D1D1B" stroke-miterlimit="10" cx="2229.754" cy="2516.642" r="2.948"/>
<path fill="none" stroke="#1D1D1B" stroke-miterlimit="10" d="M2290.303,2527.98v-18.141c0.256-1.383,1.338-2.465,2.723-2.723
	l43.086-4.195v-3.627c0.258-1.383,1.338-2.465,2.721-2.723h9.07c1.383,0.258,2.465,1.34,2.723,2.723v28.346L2290.303,2527.98"/>
<circle fill="none" stroke="#1D1D1B" stroke-miterlimit="10" cx="2297.786" cy="2516.642" r="2.948"/>
<circle fill="none" stroke="#1D1D1B" stroke-miterlimit="10" cx="1549.44" cy="2561.997" r="2.948"/>
<path fill="none" stroke="#1D1D1B" stroke-miterlimit="10" d="M1541.956,2578.113v-18.141c0.258-1.383,1.34-2.465,2.723-2.723
	l43.086-4.195v-3.627c0.258-1.383,1.338-2.465,2.723-2.723h9.068c1.383,0.258,2.465,1.34,2.723,2.723v28.346L1541.956,2578.113"/>
<circle fill="none" stroke="#1D1D1B" stroke-miterlimit="10" cx="1549.44" cy="2566.774" r="2.948"/>
<path fill="none" stroke="#1D1D1B" stroke-miterlimit="10" d="M1609.987,2578.113v-18.141c0.258-1.383,1.34-2.465,2.723-2.723
	l43.086-4.195v-3.627c0.258-1.383,1.338-2.465,2.723-2.723h9.068c1.383,0.258,2.465,1.34,2.723,2.723v28.346L1609.987,2578.113"/>
<circle fill="none" stroke="#1D1D1B" stroke-miterlimit="10" cx="1617.471" cy="2566.774" r="2.948"/>
<path fill="none" stroke="#1D1D1B" stroke-miterlimit="10" d="M1678.018,2578.113v-18.141c0.258-1.383,1.34-2.465,2.723-2.723
	l43.086-4.195v-3.627c0.258-1.383,1.338-2.465,2.721-2.723h9.07c1.383,0.258,2.465,1.34,2.723,2.723v28.346L1678.018,2578.113"/>
<circle fill="none" stroke="#1D1D1B" stroke-miterlimit="10" cx="1685.502" cy="2566.774" r="2.948"/>
<path fill="none" stroke="#1D1D1B" stroke-miterlimit="10" d="M1746.051,2578.113v-18.141c0.256-1.383,1.338-2.465,2.723-2.723
	l43.086-4.195v-3.627c0.258-1.383,1.338-2.465,2.721-2.723h9.07c1.383,0.258,2.465,1.34,2.723,2.723v28.346L1746.051,2578.113"/>
<circle fill="none" stroke="#1D1D1B" stroke-miterlimit="10" cx="1753.534" cy="2566.774" r="2.948"/>
<path fill="none" stroke="#1D1D1B" stroke-miterlimit="10" d="M1814.083,2578.113v-18.141c0.258-1.383,1.338-2.465,2.721-2.723
	l43.086-4.195v-3.627c0.258-1.383,1.34-2.465,2.723-2.723h9.07c1.381,0.258,2.463,1.34,2.723,2.723v28.346L1814.083,2578.113"/>
<circle fill="none" stroke="#1D1D1B" stroke-miterlimit="10" cx="1821.565" cy="2566.774" r="2.948"/>
<path fill="none" stroke="#1D1D1B" stroke-miterlimit="10" d="M1882.114,2578.113v-18.141c0.258-1.383,1.338-2.465,2.721-2.723
	l43.086-4.195v-3.627c0.258-1.383,1.34-2.465,2.723-2.723h9.07c1.383,0.258,2.463,1.34,2.723,2.723v28.346L1882.114,2578.113"/>
<circle fill="none" stroke="#1D1D1B" stroke-miterlimit="10" cx="1889.596" cy="2566.774" r="2.948"/>
<path fill="none" stroke="#1D1D1B" stroke-miterlimit="10" d="M1950.145,2578.113v-18.141c0.258-1.383,1.338-2.465,2.721-2.723
	l43.086-4.195v-3.627c0.258-1.383,1.34-2.465,2.723-2.723h9.07c1.383,0.258,2.463,1.34,2.721,2.723v28.346L1950.145,2578.113"/>
<circle fill="none" stroke="#1D1D1B" stroke-miterlimit="10" cx="1957.629" cy="2566.774" r="2.948"/>
<path fill="none" stroke="#1D1D1B" stroke-miterlimit="10" d="M2018.176,2578.113v-18.141c0.258-1.383,1.34-2.465,2.723-2.723
	l43.086-4.195v-3.627c0.258-1.383,1.34-2.465,2.723-2.723h9.07c1.383,0.258,2.463,1.34,2.721,2.723v28.346L2018.176,2578.113"/>
<circle fill="none" stroke="#1D1D1B" stroke-miterlimit="10" cx="2025.661" cy="2566.774" r="2.948"/>
<path fill="none" stroke="#1D1D1B" stroke-miterlimit="10" d="M2086.208,2578.113v-18.141c0.258-1.383,1.34-2.465,2.721-2.723
	l43.088-4.195v-3.627c0.258-1.383,1.338-2.465,2.723-2.723h9.068c1.383,0.258,2.465,1.34,2.723,2.723v28.346L2086.208,2578.113"/>
<circle fill="none" stroke="#1D1D1B" stroke-miterlimit="10" cx="2093.692" cy="2566.774" r="2.948"/>
<path fill="none" stroke="#1D1D1B" stroke-miterlimit="10" d="M2154.239,2578.113v-18.141c0.258-1.383,1.34-2.465,2.723-2.723
	l43.086-4.195v-3.627c0.258-1.383,1.338-2.465,2.723-2.723h9.068c1.383,0.258,2.465,1.34,2.723,2.723v28.346L2154.239,2578.113"/>
<circle fill="none" stroke="#1D1D1B" stroke-miterlimit="10" cx="2161.723" cy="2566.774" r="2.948"/>
<path fill="none" stroke="#1D1D1B" stroke-miterlimit="10" d="M2222.27,2578.113v-18.141c0.258-1.383,1.34-2.465,2.723-2.723
	l43.086-4.195v-3.627c0.258-1.383,1.338-2.465,2.721-2.723h9.07c1.383,0.258,2.465,1.34,2.723,2.723v28.346L2222.27,2578.113"/>
<circle fill="none" stroke="#1D1D1B" stroke-miterlimit="10" cx="2229.754" cy="2566.774" r="2.948"/>
<path fill="none" stroke="#1D1D1B" stroke-miterlimit="10" d="M2290.303,2578.113v-18.141c0.256-1.383,1.338-2.465,2.723-2.723
	l43.086-4.195v-3.627c0.258-1.383,1.338-2.465,2.721-2.723h9.07c1.383,0.258,2.465,1.34,2.723,2.723v28.346L2290.303,2578.113"/>
<circle fill="none" stroke="#1D1D1B" stroke-miterlimit="10" cx="2297.786" cy="2566.774" r="2.948"/>
<circle fill="none" stroke="#1D1D1B" stroke-miterlimit="10" cx="1549.44" cy="2612.13" r="2.948"/>
<g>
	<path fill="none" stroke="#1D1D1B" stroke-miterlimit="10" d="M819.809,1797.838l-3.27-1.76l-3.15-1.771l-3.279-1.51v-4.531
		l3.279-1.52l3.15-1.629l3.27-1.891l3.15-1.891l3.148-2.141l-0.25-3.779l-3.398-1.641l-3.4-1.641l-3.279-1.391l-3.398-1.26
		l-3.4-1.131l-0.25-2.389l-0.379-2.15l3.02-1.891l3.029-2.01l3.021-2.271l2.898-2.27l2.891-2.512l-0.629-3.658l-3.65-1.262
		l-3.529-1.129l-3.52-1.01l-3.531-0.881l-3.52-0.762l-0.512-2.27l-0.5-2.141l2.771-2.27l2.77-2.391l2.643-2.521l2.648-2.639
		l2.521-2.781l-1.01-3.52l-3.781-0.891l-3.648-0.75l-3.65-0.631l-3.529-0.51l-3.529-0.25l-0.881-2.141l-0.75-2.141l2.521-2.52
		l4.779-5.541l2.271-2.898l2.27-3.15l-1.52-3.398l-3.771-0.381l-3.779-0.25l-3.65-0.262h-3.66l-3.52,0.133l-1.012-2.143
		l-1.129-1.889l2.262-2.9l2.02-2.898l2.01-3.15l2.021-3.141l1.76-3.279l-1.891-3.279h-3.779l-3.65,0.25l-3.779,0.26l-3.521,0.369
		l-3.529,0.51l-1.391-1.889l-1.129-1.891l1.76-3.021l1.771-3.148l1.629-3.41l1.52-3.4l1.381-3.398l-2.27-3.021l-3.65,0.5
		l-3.779,0.631l-3.521,0.629l-3.529,0.881l-3.52,0.881l-1.521-1.762l-1.379-1.639l1.379-3.271l1.391-3.4l1.26-3.408l1.01-3.65
		l1.131-3.65l-2.641-2.65l-3.66,0.881l-3.648,1.141l-3.529,1.131l-3.4,1.141l-3.27,1.379l-1.762-1.639l-1.641-1.381l1.131-3.4
		l0.879-3.529l0.891-3.65l0.621-3.66l0.641-3.777l-2.9-2.271l-3.529,1.26l-3.521,1.521l-3.279,1.51l-3.27,1.631l-3.15,1.77
		l-1.891-1.391l-1.76-1.26l0.631-3.52l0.5-3.66l0.379-3.65l0.25-3.66l0.121-3.77l-3.141-2.021l-3.4,1.762l-3.148,1.77l-3.15,2.01
		l-3.02,1.891l-2.9,2.141l-2.141-1.131l-1.891-1.129l0.25-3.531v-7.311l-0.25-3.648l-0.25-3.781l-3.398-1.639l-3.15,2.139
		l-3.029,2.143l-2.891,2.398l-2.648,2.271l-2.641,2.389l-2.271-0.879l-2.01-0.76l-0.129-3.65l-0.381-3.529l-0.5-3.65l-0.629-3.66
		l-0.762-3.779l-3.52-1.131l-2.9,2.393l-2.77,2.648l-2.521,2.521l-2.52,2.639l-2.26,2.781l-2.271-0.631l-2.141-0.629l-0.629-3.41
		l-0.762-3.65l-0.881-3.529l-1.129-3.521l-1.141-3.66l-3.65-0.75l-2.52,2.771l-2.521,2.898l-2.26,2.891l-2.139,2.9l-1.893,3.02
		l-2.398-0.369l-2.141-0.381l-1-3.398l-1.26-3.41l-1.26-3.398l-1.51-3.4l-1.641-3.52l-3.65-0.262l-2.27,3.029l-2.021,3.15
		l-1.891,3.148l-1.76,3.15l-1.641,3.15h-2.391l-2.141-0.131l-1.51-3.279l-1.51-3.271l-1.77-3.148l-1.891-3.279l-2.012-3.271
		l-3.648,0.119l-1.891,3.4l-1.641,3.279l-1.51,3.4l-1.391,3.279l-1.262,3.398l-2.389,0.25l-2.141,0.133l-1.762-3.021l-2.02-3.031
		l-2.141-3.02l-2.141-3.029l-2.391-3.021l-3.65,0.631l-1.52,3.529l-1.262,3.521l-1.129,3.408l-0.881,3.521l-0.879,3.529l-2.27,0.381
		l-2.143,0.5l-2.27-2.898l-2.26-2.771l-2.4-2.771l-2.639-2.641l-2.65-2.648l-3.65,1.01l-0.879,3.65l-0.881,3.658l-0.76,3.521
		l-0.5,3.66l-0.379,3.52l-2.271,0.76l-2.141,0.631l-2.391-2.52l-2.641-2.521l-2.779-2.391l-2.891-2.398l-3.02-2.391l-3.4,1.51
		l-0.51,3.65l-0.5,3.779l-0.25,3.66l-0.129,3.648v3.531l-2.143,1.01l-2.02,1l-2.641-2.26l-2.898-2.271l-3.021-2.02l-3.148-2.01
		l-3.271-2.021l-3.279,1.771l-0.119,3.898v3.66l0.5,7.299l0.5,3.531l-2.012,1.26l-1.891,1.129l-3.02-1.889l-3.15-1.762l-3.279-1.76
		l-3.27-1.641l-3.531-1.51l-3.02,2.141l0.381,3.779l0.5,3.65l0.629,3.648l0.631,3.531l0.879,3.529l-1.76,1.51l-1.76,1.391
		l-3.279-1.641l-3.271-1.391l-3.398-1.379l-3.529-1.131l-3.65-1.141l-2.77,2.521l0.879,3.648l0.881,3.66l1.01,3.531l1.131,3.398
		l1.26,3.398l-1.643,1.641l-1.51,1.631l-3.398-1.131l-3.521-1.129l-3.527-0.881l-3.65-0.76l-3.779-0.76l-2.391,2.898l1.26,3.531
		l1.26,3.527l1.51,3.4l1.512,3.27l1.639,3.15l-1.389,1.891l-1.391,1.771l-3.521-0.76l-3.529-0.631l-3.65-0.5l-3.648-0.381
		l-3.779-0.26l-2.141,3.029l1.629,3.529l1.771,3.271l1.76,3.148l2.021,3.15l1.879,2.9l-1.129,2.01l-1.131,1.9l-3.529-0.26
		l-3.648-0.25h-7.432l-3.779,0.25l-1.641,3.277l2.021,3.271l2.139,3.029l2.141,2.9l2.271,2.889l2.391,2.65l-1.01,2.141l-0.881,2.021
		l-3.521,0.119l-3.658,0.26l-3.65,0.371l-3.648,0.51l-3.779,0.629l-1.262,3.521l2.391,2.9l2.4,2.898l2.51,2.65l2.65,2.52
		l2.639,2.391l-0.75,2.271l-0.629,2.139l-3.529,0.5l-3.521,0.631l-3.66,0.762l-3.52,1l-3.65,1.139l-0.891,3.531l2.771,2.639
		l2.77,2.521l2.779,2.398l2.891,2.141l2.9,2.141l-0.381,2.271l-0.379,2.141l-3.521,1.01l-3.398,1.01l-3.529,1.26l-3.4,1.381
		l-3.529,1.51l-0.5,3.66l3.02,2.27l3.15,2.143l3.02,2.01l3.15,1.889l3.148,1.771l-0.129,2.26l-0.121,2.271l-3.398,1.391
		l-3.279,1.379l-3.27,1.641l-3.281,1.76l-3.27,1.891v3.779l3.27,1.891l3.281,1.771l3.27,1.641l3.279,1.51l3.398,1.26l0.121,2.391
		l0.129,2.271l-3.148,1.629l-3.15,1.898l-3.02,2.012l-3.15,2.141l-3.02,2.27l0.5,3.65l3.529,1.52l3.4,1.381l3.529,1.26l3.398,1.141
		l3.521,0.879l0.379,2.271l0.381,2.262l-2.9,2.02l-2.891,2.27l-2.779,2.26l-2.77,2.521l-2.771,2.65l0.891,3.648l3.65,1.01
		l3.52,1.012l3.66,0.75l3.521,0.76l3.529,0.5l0.75,2.271l0.629,2.02l-2.639,2.391l-2.65,2.65l-2.51,2.639l-2.4,2.771l-2.391,2.898
		l1.262,3.531l3.779,0.629l3.648,0.5l3.65,0.381l3.658,0.25l3.521,0.131l0.881,2.141l1.01,2.02l-2.391,2.77l-2.271,2.771
		l-2.141,2.898l-2.139,3.15l-2.021,3.15l1.641,3.4l3.779,0.129l3.779,0.121l3.65-0.121l3.65-0.129l3.527-0.381l1.131,2.02
		l1.129,1.891l-1.879,3.02l-2.02,3.031l-1.762,3.27l-1.77,3.279l-1.631,3.4l2.141,3.02l3.779-0.25l3.648-0.25l3.65-0.51l3.529-0.629
		l3.521-0.75l1.391,1.889l1.391,1.762l-1.641,3.148l-1.512,3.281l-1.51,3.4l-1.26,3.398l-1.26,3.65l2.391,2.779l3.779-0.631
		l3.65-0.891l3.529-0.879l3.52-1.01l3.4-1.131l1.641,1.641l1.51,1.629l-1.26,3.281l-1.131,3.529l-1.01,3.529l-0.881,3.521
		l-0.879,3.779l2.77,2.52l3.65-1.129l3.529-1.26l3.398-1.391l3.271-1.381l3.279-1.51l1.76,1.51l1.76,1.381l-0.879,3.398
		l-0.631,3.531l-0.629,3.648l-0.5,3.66l-0.381,3.779l3.021,2.27l3.529-1.639l3.27-1.641l3.279-1.641l3.15-1.891l3.02-1.889
		l2.01,1.26l1.893,1.139l-0.5,3.531l-0.5,7.299v3.781l0.119,3.779l3.279,1.77l3.271-1.889l3.148-2.021l3.021-2.141l2.898-2.141
		l2.641-2.27l2.141,1l2.021,0.891v3.648l0.129,3.531l0.25,3.779l0.5,3.648l0.51,3.779l3.4,1.391l3.02-2.27l2.891-2.391l2.779-2.52
		l2.641-2.521l2.391-2.52l2.27,0.75l2.143,0.76l0.379,3.529l0.5,3.529l0.76,3.65l0.881,3.65l0.879,3.65l3.65,0.889l2.65-2.65
		l2.639-2.639l2.4-2.781l2.26-2.77l2.27-2.9l2.271,0.51l2.141,0.5l0.879,3.41l0.881,3.521l1.129,3.529l1.262,3.529l1.52,3.531
		l3.65,0.5l2.391-2.9l2.141-3.02l2.141-3.031l2.02-3.02l1.762-3.15l2.391,0.25l2.139,0.131l1.262,3.4l1.391,3.398l1.51,3.279
		l1.641,3.4l1.891,3.27l3.648,0.131l2.012-3.271l1.891-3.16l1.77-3.27l1.51-3.279l1.51-3.271h2.271l2.26-0.129l1.641,3.15
		l1.76,3.148l1.891,3.148l2.021,3.15l2.27,3.15l3.65-0.381l1.641-3.4l1.51-3.398l1.26-3.529l1.26-3.4l1-3.398l2.271-0.381l2.27-0.25
		l1.891,2.898l2.141,2.893l2.26,2.898l2.521,2.898l2.52,2.771l3.65-0.75l1.139-3.529l1.131-3.66l0.879-3.521l0.762-3.527
		l0.631-3.531l2.26-0.629l2.148-0.631l2.26,2.77l2.521,2.65l2.52,2.641l2.771,2.52l2.898,2.521l3.521-1.262l0.76-3.648l0.631-3.648
		l0.5-3.66l0.379-3.65l0.131-3.531l2.141-0.879l2.141-0.881l2.641,2.391l2.648,2.4l2.891,2.26l3.029,2.141l3.15,2.148l3.398-1.52
		l0.25-3.771l0.25-3.777v-7.313l-0.25-3.529l2.01-1.131l2.021-1.139l2.898,2.148l3.021,2.01l3.148,1.891l3.15,1.891l3.4,1.762
		l3.141-2.012l-0.121-3.779l-0.25-3.779l-0.379-3.65l-0.5-3.529l-0.631-3.529l1.881-1.391l1.77-1.26l3.15,1.639l3.27,1.641
		l3.279,1.641l3.521,1.379l3.529,1.393l2.898-2.4l-0.639-3.77l-0.621-3.66l-0.891-3.521l-0.881-3.529l-1.129-3.4l1.76-1.639
		l1.641-1.512l3.27,1.379l3.4,1.262l3.529,1.141l3.65,1l3.66,0.891l2.639-2.65l-1.129-3.65l-1.01-3.529l-1.26-3.529l-1.391-3.398
		l-1.381-3.15l1.51-1.76l1.391-1.771l3.521,1.012l3.529,0.76l3.521,0.75l3.777,0.629l3.65,0.381l2.27-2.9l-1.379-3.529l-1.52-3.4
		l-1.631-3.27l-1.771-3.15l-1.76-3.148l1.26-1.891l1.26-1.891l3.531,0.5l3.52,0.51l3.779,0.25l3.65,0.119h3.779l1.891-3.139
		l-1.76-3.41l-2.021-3.141l-2.01-3.029l-2.02-3.021l-2.262-2.779l1.131-2.141l1.01-2.01l3.521,0.121h3.66l3.648-0.121l3.779-0.379
		l3.771-0.381l1.52-3.4l-2.27-3.021l-2.271-3.027l-2.391-2.771l-2.389-2.641l-2.521-2.65l0.879-2.141l0.75-2.139l3.531-0.262
		l3.529-0.5l3.648-0.5l3.65-0.76l3.779-0.879l1.01-3.531l-2.521-2.77l-2.648-2.771l-2.641-2.52l-2.77-2.271l-2.771-2.27l0.5-2.262
		l0.512-2.148l3.52-0.75l3.529-0.891l3.52-1l3.531-1.141l3.648-1.379l0.631-3.66l-2.891-2.391l-2.9-2.391l-3.02-2.15l-3.029-2.01
		l-3.021-1.891l0.381-2.398l0.25-2.141l3.398-1.131l3.4-1.391l3.279-1.381l3.4-1.52l3.398-1.76l0.25-3.779l-3.148-2.01
		L819.809,1797.838z M616.542,1795.066l-2.012,3.9l-3.148,3.15l-4.031,1.889l-4.41,0.76l-4.277-0.76l-4.031-2.01l-3.02-3.15
		l-2.021-4.029l-0.75-4.289l0.75-4.41l2.021-3.898l3.141-3.15l4.029-2.02l4.41-0.631l4.279,0.631l4.029,2.148l3.029,3.148l2.012,3.9
		l0.76,4.41L616.542,1795.066z"/>
	<polygon fill="none" stroke="#1D1D1B" stroke-miterlimit="10" points="617.301,1790.658 616.542,1795.066 614.53,1798.967 
		611.381,1802.117 607.35,1804.008 602.94,1804.766 598.661,1804.008 594.631,1801.998 591.61,1798.846 589.59,1794.816 
		588.84,1790.527 589.59,1786.117 591.61,1782.217 594.75,1779.066 598.78,1777.049 603.19,1776.418 607.471,1777.049 
		611.5,1779.197 614.53,1782.346 616.542,1786.248 	"/>
	<polygon fill="none" stroke="#1D1D1B" stroke-miterlimit="10" points="617.301,1790.658 616.542,1795.066 614.53,1798.967 
		611.381,1802.117 607.35,1804.008 602.94,1804.766 598.661,1804.008 594.631,1801.998 591.61,1798.846 589.59,1794.816 
		588.84,1790.527 589.59,1786.117 591.61,1782.217 594.75,1779.066 598.78,1777.049 603.19,1776.418 607.471,1777.049 
		611.5,1779.197 614.53,1782.346 616.542,1786.248 	"/>
	<polygon fill="none" stroke="#1D1D1B" stroke-miterlimit="10" points="617.301,1847.35 616.542,1851.76 614.53,1855.662 
		611.381,1858.811 607.35,1860.701 602.94,1861.461 598.661,1860.701 594.631,1858.689 591.61,1855.541 589.59,1851.51 
		588.84,1847.221 589.59,1842.811 591.61,1838.912 594.75,1835.76 598.78,1833.742 603.19,1833.109 607.471,1833.742 
		611.5,1835.891 614.53,1839.041 616.542,1842.939 	"/>
	<polyline fill="none" stroke="#1D1D1B" stroke-miterlimit="10" points="762.133,1790.406 764.524,1790.279 766.792,1789.773 
		769.057,1788.893 771.2,1787.887 773.088,1786.498 774.725,1784.861 776.237,1782.973 777.372,1780.957 778.252,1778.688 
		778.881,1776.42 779.135,1774.027 779.008,1771.758 	"/>
	<polyline fill="none" stroke="#1D1D1B" stroke-miterlimit="10" points="779.008,1771.758 778,1764.326 776.741,1756.891 
		775.229,1749.586 773.34,1742.277 771.075,1735.096 768.555,1728.043 765.784,1720.986 762.635,1714.184 759.36,1707.508 
		755.583,1700.957 751.678,1694.531 747.522,1688.357 742.989,1682.309 738.329,1676.389 733.29,1670.717 728.127,1665.301 
		722.711,1660.137 717.043,1655.223 711.25,1650.436 705.206,1646.023 698.909,1641.742 692.485,1637.838 685.936,1634.182 
		679.262,1630.783 672.461,1627.758 665.409,1624.859 658.354,1622.467 651.176,1620.199 643.872,1618.309 636.569,1616.799 
		629.137,1615.412 621.706,1614.527 614.149,1613.9 606.719,1613.52 599.163,1613.52 591.731,1613.9 584.176,1614.527 
		576.745,1615.412 569.313,1616.799 562.01,1618.309 554.706,1620.199 547.524,1622.467 540.473,1624.859 533.42,1627.758 
		526.62,1630.783 519.946,1634.182 513.395,1637.838 506.973,1641.742 500.676,1646.023 494.631,1650.436 488.838,1655.223 
		483.17,1660.137 477.754,1665.301 472.59,1670.717 467.553,1676.389 462.891,1682.309 458.36,1688.357 454.204,1694.531 
		450.299,1700.957 446.52,1707.508 443.247,1714.184 440.098,1720.986 437.327,1728.043 434.807,1735.096 432.542,1742.277 
		430.651,1749.586 429.139,1756.891 427.881,1764.326 426.874,1771.758 	"/>
	<polyline fill="none" stroke="#1D1D1B" stroke-miterlimit="10" points="426.749,1771.758 426.622,1774.027 426.874,1776.42 
		427.504,1778.688 428.385,1780.957 429.518,1782.973 431.03,1784.861 432.667,1786.498 434.555,1787.887 436.696,1788.893 
		438.963,1789.773 441.229,1790.279 443.624,1790.406 	"/>
	<line fill="none" stroke="#1D1D1B" stroke-miterlimit="10" x1="443.624" y1="1790.531" x2="553.319" y2="1790.531"/>
	<polyline fill="none" stroke="#1D1D1B" stroke-miterlimit="10" points="553.319,1790.406 555.713,1790.279 557.979,1789.773 
		560.122,1789.018 562.26,1787.887 564.151,1786.498 565.788,1784.986 567.299,1783.098 568.432,1781.084 569.438,1778.941 	"/>
	<polyline fill="none" stroke="#1D1D1B" stroke-miterlimit="10" points="636.44,1779.066 635.182,1775.916 633.67,1772.893 
		631.782,1770.121 629.766,1767.348 627.374,1764.957 624.854,1762.689 622.084,1760.799 619.186,1759.033 616.165,1757.646 
		612.889,1756.516 609.616,1755.76 606.342,1755.256 602.94,1755.131 599.54,1755.256 596.264,1755.76 592.991,1756.516 
		589.717,1757.646 586.694,1759.033 583.797,1760.799 581.026,1762.689 578.508,1764.957 576.114,1767.348 574.098,1770.121 
		572.211,1772.893 570.7,1775.916 569.438,1779.066 	"/>
	<polyline fill="none" stroke="#1D1D1B" stroke-miterlimit="10" points="636.44,1778.941 637.45,1781.084 638.583,1783.098 
		640.092,1784.986 641.729,1786.498 643.62,1787.887 645.76,1789.018 647.903,1789.773 650.17,1790.279 652.561,1790.406 	"/>
	<line fill="none" stroke="#1D1D1B" stroke-miterlimit="10" x1="652.561" y1="1790.531" x2="762.133" y2="1790.531"/>
</g>
<g>
	<path fill="none" stroke="#1D1D1B" stroke-miterlimit="10" d="M1959.768,1046.75c9.393,0,17.008-7.614,17.008-17.008
		s-7.615-17.008-17.008-17.008h-30.613V842.655h30.613c9.393,0,17.008-7.615,17.008-17.008s-7.615-17.008-17.008-17.008h-30.613
		v-73.7L1688.209,595.71l-240.945,139.229v73.701h-30.613c-9.395,0-17.008,7.615-17.008,17.008s7.613,17.008,17.008,17.008h30.613
		v170.079h-30.613c-9.395,0-17.008,7.615-17.008,17.008s7.613,17.008,17.008,17.008h30.613v170.08h-30.613
		c-9.395,0-17.008,7.613-17.008,17.008c0,9.393,7.613,17.008,17.008,17.008h30.613v170.078h-30.613
		c-9.395,0-17.008,7.615-17.008,17.008c0,9.394,7.613,17.008,17.008,17.008h30.613v73.702h481.891v-73.702h30.613
		c9.395,0,17.008-7.614,17.008-17.008c0-9.393-7.615-17.008-17.008-17.008h-30.613v-170.081h30.613
		c9.395,0,17.008-7.615,17.008-17.008c0-9.396-7.615-17.008-17.008-17.008h-30.613v-170.08L1959.768,1046.75L1959.768,1046.75z
		 M1939.926,1029.742v-5.67h22.678v11.34h-22.678V1029.742z M1939.926,825.647v-5.669h22.678v11.339h-22.678V825.647z
		 M1436.493,825.647v5.669h-22.678v-11.339h22.678V825.647z M1436.493,1029.742v5.67h-22.678v-11.34h22.678V1029.742z
		 M1436.493,1233.837v5.668h-22.678v-11.338h22.678V1233.837z M1436.493,1437.93v5.67h-22.678v-11.34h22.678V1437.93z
		 M1939.926,1437.93v-5.67h22.678v11.34h-22.678V1437.93z M1939.926,1233.837v-5.67h22.678v11.338h-22.678V1233.837z"/>
	<g>
		<circle fill="none" stroke="#1D1D1B" stroke-miterlimit="10" cx="1688.211" cy="1069.73" r="11.338"/>
		<circle fill="none" stroke="#1D1D1B" stroke-miterlimit="10" cx="1501.125" cy="973.459" r="11.339"/>
		<circle fill="none" stroke="#1D1D1B" stroke-miterlimit="10" cx="1875.618" cy="973.459" r="11.338"/>
		<path fill="none" stroke="#1D1D1B" stroke-miterlimit="10" d="M1688.217,649.863c23.479,0,42.52,19.029,42.52,42.521
			c0,23.481-19.039,42.521-42.52,42.521c-23.49,0-42.521-19.039-42.521-42.521C1645.696,668.894,1664.725,649.863,1688.217,649.863z
			 M1886.633,1486.059h-31.18v-36.854c0-17.222-13.961-31.183-31.184-31.183c-17.221,0-31.182,13.961-31.182,31.183v36.854h-62.359
			v-59.125c0-23.481-19.037-42.52-42.52-42.52s-42.52,19.037-42.52,42.52v59.125h-62.363v-36.854
			c0-17.222-13.961-31.183-31.18-31.183c-17.223,0-31.182,13.961-31.182,31.183v36.854h-31.184l0.002-190.214v-85.22
			c0,0,0.775-122.445,198.424-122.445c197.65,0,198.422,122.445,198.422,122.445v275.434H1886.633z M1886.633,943.816h-396.846
			V783.402c30.609-16.922,88.615-32.469,198.43-32.469c109.822,0,167.816,15.55,198.416,32.475V943.816z"/>
		<circle fill="none" stroke="#1D1D1B" stroke-miterlimit="10" cx="1552.229" cy="1449.392" r="12.756"/>
		<circle fill="none" stroke="#1D1D1B" stroke-miterlimit="10" cx="1824.344" cy="1449.208" r="12.756"/>
	</g>
</g>
<g>
	<g>
		<circle fill="none" stroke="#1D1D1B" stroke-miterlimit="10" cx="1026.985" cy="1223.442" r="12.047"/>
		<path fill="none" stroke="#1D1D1B" stroke-miterlimit="10" d="M1026.983,963.997c7.826,0,14.172,6.345,14.172,14.173
			c0,7.827-6.346,14.173-14.172,14.173c-7.828,0-14.174-6.346-14.174-14.173S1019.155,963.997,1026.983,963.997z M826.11,1237.617
			h176.277l-111.074,184.196l-65.205-108.217v-75.979H826.11z M826.11,1435.096v-66.574l40.109,66.574H826.11L826.11,1435.096z
			 M890.922,1463.442c-7.828,0-14.174-6.346-14.174-14.174s6.348-14.172,14.174-14.172c7.828,0,14.174,6.344,14.174,14.172
			S898.75,1463.442,890.922,1463.442z M916.405,1435.096l110.543-183.317l110.453,183.317H916.405z M1163.045,1463.442
			c-7.828,0-14.174-6.346-14.174-14.174s6.346-14.172,14.174-14.172s14.174,6.344,14.174,14.172
			S1170.874,1463.442,1163.045,1463.442z M1223.729,1435.096h-34.986l34.986-58.021V1435.096z M1223.729,1322.182l-60.658,100.588
			l-111.561-185.153h172.219V1322.182L1223.729,1322.182z"/>
	</g>
	<path fill="none" stroke="#1D1D1B" stroke-miterlimit="10" d="M1296.481,1046.812c9.393,0,17.008-7.613,17.008-17.008
		c0-9.393-7.615-17.008-17.008-17.008h-30.613V842.717h30.613c9.393,0,17.008-7.615,17.008-17.008
		c0-9.393-7.615-17.008-17.008-17.008h-30.613v-73.7l15.307-26.513c4.695-8.134,1.908-18.537-6.227-23.233
		c-8.133-4.696-18.535-1.909-23.232,6.226l-15.301,26.501l-211.492-122.209L813.43,717.983l-15.301-26.502
		c-4.697-8.134-15.1-10.922-23.234-6.226c-8.133,4.696-10.92,15.099-6.225,23.233l15.309,26.513v73.701h-30.615
		c-9.393,0-17.008,7.615-17.008,17.008c0,9.393,7.615,17.008,17.008,17.008h30.615v170.079h-30.615
		c-9.393,0-17.008,7.615-17.008,17.008c0,9.394,7.615,17.008,17.008,17.008h30.615v170.08h-30.615
		c-9.393,0-17.008,7.613-17.008,17.008c0,9.394,7.615,17.009,17.008,17.009h30.615v170.077h-30.615
		c-9.393,0-17.008,7.615-17.008,17.009c0,9.393,7.615,17.008,17.008,17.008h30.615v73.702h481.889v-73.702h30.615
		c9.393,0,17.008-7.615,17.008-17.008c0-9.394-7.615-17.009-17.008-17.009h-30.615v-170.079h30.615
		c9.393,0,17.008-7.615,17.008-17.009c0-9.395-7.615-17.008-17.008-17.008h-30.615v-170.079H1296.481z M1276.639,1029.804v-5.669
		h22.678v11.339h-22.678V1029.804z M1276.639,825.71v-5.669h22.678v11.339h-22.678V825.71z M1262.952,694.695l9.82,5.669
		l-11.34,19.639l-4.91-2.834l-4.908-2.835L1262.952,694.695z M777.071,700.364l9.82-5.67l11.338,19.639l-4.91,2.835l-4.91,2.834
		L777.071,700.364z M773.206,825.71v5.669h-22.678v-11.339h22.678V825.71z M773.206,1029.804v5.67h-22.678v-11.339h22.678V1029.804z
		 M773.206,1233.899v5.669h-22.678v-11.339h22.678V1233.899z M773.206,1437.994v5.67h-22.678v-11.34h22.678V1437.994z
		 M1276.639,1437.994v-5.67h22.678v11.34h-22.678V1437.994z M1276.639,1233.899v-5.67h22.678v11.339h-22.678V1233.899z"/>
</g>
<circle fill="none" stroke="#1D1D1B" stroke-miterlimit="10" cx="3351.829" cy="1223.448" r="14.173"/>
<g>
	<path fill="none" stroke="#1D1D1B" stroke-miterlimit="10" d="M3485.266,1462.025c-7.047,0-12.758-5.711-12.758-12.756
		s5.711-12.756,12.758-12.756c7.043,0,12.754,5.711,12.754,12.756S3492.309,1462.025,3485.266,1462.025z M3213.141,1462.025
		c-7.043,0-12.754-5.711-12.754-12.756s5.711-12.756,12.754-12.756c7.047,0,12.758,5.711,12.758,12.756
		S3220.188,1462.025,3213.141,1462.025z M3179.125,1087.685c-7.047,0-12.758-5.711-12.758-12.758
		c0-7.048,5.711-12.759,12.758-12.759c7.043,0,12.754,5.713,12.754,12.759C3191.879,1081.972,3186.168,1087.685,3179.125,1087.685z
		 M3179.125,963.837c-7.047,0-12.758-5.711-12.758-12.758c0-7.049,5.711-12.76,12.758-12.76c7.043,0,12.754,5.713,12.754,12.76
		C3191.879,958.125,3186.168,963.837,3179.125,963.837z M3349.204,1089.1c-7.828,0-14.172-6.346-14.172-14.174
		s6.344-14.173,14.172-14.173s14.172,6.345,14.172,14.173S3357.032,1089.1,3349.204,1089.1z M3519.282,1087.685
		c-7.045,0-12.756-5.711-12.756-12.758c0-7.048,5.711-12.759,12.756-12.759c7.043,0,12.756,5.713,12.756,12.759
		C3532.038,1081.972,3526.325,1087.685,3519.282,1087.685z M3519.282,963.837c-7.045,0-12.756-5.711-12.756-12.758
		c0-7.049,5.711-12.76,12.756-12.76c7.043,0,12.756,5.713,12.756,12.76C3532.038,958.125,3526.325,963.837,3519.282,963.837z"/>
	<path fill="none" stroke="#1D1D1B" stroke-miterlimit="10" d="M3620.762,1046.812c9.393,0,17.008-7.613,17.008-17.008
		c0-9.393-7.615-17.008-17.008-17.008h-30.613V842.717h30.613c9.393,0,17.008-7.615,17.008-17.008
		c0-9.393-7.615-17.008-17.008-17.008h-30.613v-73.7l15.305-26.513c4.697-8.134,1.91-18.537-6.225-23.233
		c-8.135-4.696-18.537-1.909-23.232,6.226l-15.301,26.501l-211.492-122.209l-211.492,122.21l-15.301-26.502
		c-4.699-8.134-15.1-10.922-23.234-6.226c-8.135,4.696-10.922,15.099-6.227,23.233l15.309,26.513v73.701h-30.613
		c-9.395,0-17.008,7.615-17.008,17.008c0,9.393,7.613,17.008,17.008,17.008h30.613v170.079h-30.613
		c-9.395,0-17.008,7.615-17.008,17.008c0,9.394,7.613,17.008,17.008,17.008h30.613v170.08h-30.613
		c-9.395,0-17.008,7.613-17.008,17.008c0,9.394,7.613,17.009,17.008,17.009h30.613v170.077h-30.613
		c-9.395,0-17.008,7.615-17.008,17.009c0,9.393,7.613,17.008,17.008,17.008h30.613v73.702h481.891v-73.702h30.613
		c9.393,0,17.008-7.615,17.008-17.008c0-9.394-7.615-17.009-17.008-17.009h-30.613v-170.079h30.613
		c9.393,0,17.008-7.615,17.008-17.009c0-9.395-7.615-17.008-17.008-17.008h-30.613v-170.079H3620.762z M3600.92,1029.804v-5.669
		h22.678v11.339h-22.678V1029.804z M3600.92,825.71v-5.669h22.678v11.339h-22.678V825.71z M3587.233,694.695l9.82,5.669
		l-11.338,19.639l-4.91-2.834l-4.91-2.835L3587.233,694.695z M3101.352,700.364l9.82-5.67l11.338,19.639l-4.908,2.835l-4.91,2.834
		L3101.352,700.364z M3097.489,825.71v5.669h-22.68v-11.339h22.68V825.71z M3097.489,1029.804v5.67h-22.68v-11.339h22.68V1029.804z
		 M3097.489,1233.899v5.669h-22.68v-11.339h22.68V1233.899z M3097.489,1437.994v5.67h-22.68v-11.34h22.68V1437.994z
		 M3600.92,1437.994v-5.67h22.678v11.34h-22.678V1437.994z M3600.92,1233.899v-5.67h22.678v11.339h-22.678V1233.899z"/>
</g>
<circle fill="none" stroke="#1D1D1B" stroke-miterlimit="10" cx="3351.373" cy="1223.381" r="14.173"/>
<path fill="none" stroke="#1D1D1B" stroke-miterlimit="10" d="M3487.017,1461.538c-7.045,0-12.756-5.711-12.756-12.756
	s5.711-12.756,12.756-12.756s12.756,5.711,12.756,12.756S3494.062,1461.538,3487.017,1461.538z M3427.492,674.751l51.021,31.118
	v85.682c-15.703-10.705-32.824-19.486-51.021-26.007V674.751z M3359.46,636.959l51.021,30.021v93.216
	c-16.348-4.435-33.428-7.088-51.021-7.732V636.959z M3214.894,1461.538c-7.045,0-12.756-5.711-12.756-12.756
	s5.711-12.756,12.756-12.756s12.756,5.711,12.756,12.756S3221.939,1461.538,3214.894,1461.538z M3155.365,744.063l51.025-29.945
	v90.221c-20.291,16.808-37.596,37.086-51.025,59.92V744.063z M3183.71,1448.781v34.018h-28.35v-388.94
	c13.432,22.834,30.736,43.112,51.025,59.92v265.006C3193.302,1422.486,3183.71,1434.507,3183.71,1448.781z M3246.074,1482.797
	v-34.017c0-14.271-9.592-26.295-22.676-29.998v-252.216c15.705,10.705,32.826,19.486,51.021,26.008v290.223H3246.074z
	 M3274.419,765.542c-18.195,6.525-35.316,15.305-51.021,26.009v-86.604l51.021-28.957V765.542z M3291.427,665.538l51.021-30.063
	v116.987c-17.594,0.645-34.674,3.296-51.021,7.732V665.538z M3342.453,1482.797h-51.023v-284.878
	c11.15,3.023,22.646,5.197,34.412,6.492c-3.811,5.19-6.064,11.604-6.064,18.543c0,14.326,9.592,26.396,22.678,30.11
	L3342.453,1482.797z M3336.781,977.681c0-7.826,6.346-14.173,14.176-14.173c7.826,0,14.172,6.345,14.172,14.173
	c0,7.827-6.346,14.174-14.172,14.174C3343.128,991.854,3336.781,985.507,3336.781,977.681z M3410.482,1482.797h-51.021v-229.729
	c13.086-3.717,22.678-15.787,22.678-30.113c0-6.939-2.256-13.352-6.064-18.543c11.762-1.295,23.26-3.467,34.41-6.494
	L3410.482,1482.797z M3455.835,1448.781v34.018h-28.346V1192.58c18.195-6.525,35.316-15.305,51.021-26.01v252.213
	C3465.427,1422.486,3455.835,1434.507,3455.835,1448.781z M3518.197,1482.797v-34.017c0-14.271-9.592-26.295-22.676-29.998v-265.007
	c20.289-16.808,37.592-37.084,51.021-59.916l0.002,388.938H3518.197z M3546.544,864.254c-13.432-22.831-30.734-43.109-51.023-59.92
	v-87.24l51.023,29.395V864.254z"/>
<path fill="none" stroke="#1D1D1B" stroke-miterlimit="10" d="M3620.761,1046.812c9.393,0,17.008-7.613,17.008-17.008
	c0-9.393-7.615-17.008-17.008-17.008h-30.615V842.717h30.615c9.393,0,17.008-7.615,17.008-17.008
	c0-9.393-7.615-17.008-17.008-17.008h-30.615v-73.7l15.307-26.513c4.697-8.134,1.91-18.537-6.225-23.233
	c-8.135-4.696-18.537-1.909-23.232,6.226l-15.303,26.501l-211.492-122.209l-211.492,122.21l-15.301-26.502
	c-4.697-8.134-15.1-10.922-23.234-6.226c-8.133,4.696-10.92,15.099-6.225,23.233l15.309,26.513v73.701h-30.613
	c-9.395,0-17.008,7.615-17.008,17.008c0,9.393,7.613,17.008,17.008,17.008h30.613v170.079h-30.613
	c-9.395,0-17.008,7.615-17.008,17.008c0,9.394,7.613,17.008,17.008,17.008h30.613v170.08h-30.613
	c-9.395,0-17.008,7.613-17.008,17.008c0,9.394,7.613,17.009,17.008,17.009h30.613v170.077h-30.613
	c-9.395,0-17.008,7.615-17.008,17.009c0,9.393,7.613,17.008,17.008,17.008h30.613v73.702h481.891v-73.702h30.613
	c9.393,0,17.008-7.615,17.008-17.008c0-9.394-7.615-17.009-17.008-17.009h-30.613v-170.079h30.613
	c9.393,0,17.008-7.615,17.008-17.009c0-9.395-7.615-17.008-17.008-17.008h-30.613v-170.079H3620.761z M3600.919,1029.804v-5.669
	h22.676v11.339h-22.676V1029.804z M3600.919,825.71v-5.669h22.676v11.339h-22.676V825.71z M3587.232,694.695l9.82,5.669
	l-11.34,19.639l-4.91-2.834l-4.908-2.835L3587.232,694.695z M3101.349,700.364l9.82-5.67l11.338,19.639l-4.908,2.835l-4.91,2.834
	L3101.349,700.364z M3097.486,825.71v5.669h-22.68v-11.339h22.68V825.71z M3097.486,1029.804v5.67h-22.68v-11.339h22.68V1029.804z
	 M3097.486,1233.899v5.669h-22.68v-11.339h22.68V1233.899z M3097.486,1437.994v5.67h-22.68v-11.34h22.68V1437.994z
	 M3600.919,1437.994v-5.67h22.676v11.34h-22.676V1437.994z M3600.919,1233.899v-5.67h22.676v11.339h-22.676V1233.899z"/>
<g>
	<polygon fill="none" stroke="#1D1D1B" stroke-miterlimit="10" points="2048.694,569.375 2048.694,586.383 2048.694,603.391 
		2037.354,603.391 2037.354,569.375 	"/>
	<polygon fill="none" stroke="#1D1D1B" stroke-miterlimit="10" points="2400.188,573.629 2400.188,590.637 2400.188,607.645 
		2388.848,607.645 2388.848,573.629 	"/>
	<polygon fill="none" stroke="#1D1D1B" stroke-miterlimit="10" points="2020.346,308.165 2020.346,259.975 2459.272,259.975 
		2459.272,713.518 2020.346,713.518 2020.346,325.172 2239.811,325.172 2239.811,308.165 	"/>
</g>
<g>
	<polygon fill="none" stroke="#1D1D1B" stroke-miterlimit="10" points="2430.924,96.19 2430.924,113.197 2430.924,130.206 
		2442.264,130.206 2442.264,96.19 	"/>
	<polygon fill="none" stroke="#1D1D1B" stroke-miterlimit="10" points="2079.43,96.19 2079.43,113.197 2079.43,130.206 
		2090.768,130.206 2090.768,96.19 	"/>
	<polygon fill="none" stroke="#1D1D1B" stroke-miterlimit="10" points="2020.346,-219.846 2020.346,-171.658 2239.809,-171.658 
		2239.809,-154.65 2020.346,-154.65 2020.346,233.697 2459.27,233.697 2459.27,-219.846 	"/>
</g>
<g>
	<g>
		<rect x="2020.346" y="746.277" fill="none" stroke="#1D1D1B" stroke-miterlimit="10" width="396.852" height="782.361"/>
		<path fill="none" stroke="#1D1D1B" stroke-miterlimit="10" d="M2400.186,1437.93v-17.008h-11.338v34.016h11.338V1437.93
			 M2400.186,1233.837v-17.009h-11.338v34.017h11.338V1233.837 M2400.186,1029.743v-17.009h-11.338v34.017h11.338V1029.743
			 M2400.186,825.647v-17.008h-11.338v34.016h11.338V825.647 M2037.352,825.647v17.008h11.34v-34.016h-11.34V825.647
			 M2037.352,1029.743v17.008h11.34v-34.017h-11.34V1029.743 M2037.352,1233.837v17.008h11.34v-34.017h-11.34V1233.837
			 M2037.352,1437.93v17.008h11.34v-34.016h-11.34V1437.93"/>
	</g>
	<g>
		<polygon fill="none" stroke="#1D1D1B" stroke-miterlimit="10" points="2349.165,1250.844 2360.502,1250.844 2360.502,1233.837 
			2360.502,1216.829 2349.165,1216.829 		"/>
		<polygon fill="none" stroke="#1D1D1B" stroke-miterlimit="10" points="2360.502,1029.743 2360.502,1012.733 2349.165,1012.733 
			2349.165,1046.75 2360.502,1046.75 		"/>
		<polygon fill="none" stroke="#1D1D1B" stroke-miterlimit="10" points="2349.165,842.655 2360.502,842.655 2360.502,825.647 
			2360.502,808.639 2349.165,808.639 		"/>
		<polygon fill="none" stroke="#1D1D1B" stroke-miterlimit="10" points="2349.165,1454.938 2360.502,1454.938 2360.502,1437.93 
			2360.502,1420.923 2349.165,1420.923 		"/>
	</g>
	<g>
		<polygon fill="none" stroke="#1D1D1B" stroke-miterlimit="10" points="2077.04,1250.844 2088.377,1250.844 2088.377,1233.837 
			2088.377,1216.829 2077.04,1216.829 		"/>
		<polygon fill="none" stroke="#1D1D1B" stroke-miterlimit="10" points="2088.377,1029.743 2088.377,1012.733 2077.04,1012.733 
			2077.04,1046.75 2088.377,1046.75 		"/>
		<polygon fill="none" stroke="#1D1D1B" stroke-miterlimit="10" points="2077.04,842.655 2088.377,842.655 2088.377,825.647 
			2088.377,808.639 2077.04,808.639 		"/>
		<polygon fill="none" stroke="#1D1D1B" stroke-miterlimit="10" points="2077.04,1454.938 2088.377,1454.938 2088.377,1437.93 
			2088.377,1420.923 2077.04,1420.923 		"/>
	</g>
</g>
<g>
	<g>
		<circle fill="none" stroke="#1D1D1B" stroke-miterlimit="10" cx="2654.411" cy="921.662" r="4.535"/>
		<circle fill="none" stroke="#1D1D1B" stroke-miterlimit="10" cx="2654.411" cy="850.796" r="4.536"/>
		<path fill="none" stroke="#1D1D1B" stroke-miterlimit="10" d="M2647.2,913.703c0,0-6.791-5.332-6.791-5.166c0,0.166,0-44.5,0-44.5
			l6.791-5.334l15.168,2.709l6.207,5.25v39.209l-6.039,5.291L2647.2,913.703z"/>
	</g>
	<g>
		<g>
			<rect x="2459.272" y="746.277" fill="none" stroke="#1D1D1B" stroke-miterlimit="10" width="396.852" height="782.361"/>
			<path fill="none" stroke="#1D1D1B" stroke-miterlimit="10" d="M2839.116,1437.93v-17.008h-11.338v34.016h11.338V1437.93
				 M2839.116,1233.837v-17.009h-11.338v34.017h11.338V1233.837 M2839.116,1029.743v-17.009h-11.338v34.017h11.338V1029.743
				 M2839.116,825.647v-17.008h-11.338v34.016h11.338V825.647 M2476.282,825.647v17.008h11.338v-34.016h-11.338V825.647
				 M2476.282,1029.743v17.008h11.338v-34.017h-11.338V1029.743 M2476.282,1233.837v17.008h11.338v-34.017h-11.338V1233.837
				 M2476.282,1437.93v17.008h11.338v-34.016h-11.338V1437.93"/>
		</g>
		<g>
			<polygon fill="none" stroke="#1D1D1B" stroke-miterlimit="10" points="2788.092,1250.844 2799.43,1250.844 2799.43,1233.837 
				2799.43,1216.829 2788.092,1216.829 			"/>
			<polygon fill="none" stroke="#1D1D1B" stroke-miterlimit="10" points="2799.43,1029.743 2799.43,1012.733 2788.092,1012.733 
				2788.092,1046.75 2799.43,1046.75 			"/>
			<polygon fill="none" stroke="#1D1D1B" stroke-miterlimit="10" points="2788.092,842.655 2799.43,842.655 2799.43,825.647 
				2799.43,808.639 2788.092,808.639 			"/>
			<polygon fill="none" stroke="#1D1D1B" stroke-miterlimit="10" points="2788.092,1454.938 2799.43,1454.938 2799.43,1437.93 
				2799.43,1420.923 2788.092,1420.923 			"/>
		</g>
		<g>
			<polygon fill="none" stroke="#1D1D1B" stroke-miterlimit="10" points="2515.967,1250.844 2527.305,1250.844 2527.305,1233.837 
				2527.305,1216.829 2515.967,1216.829 			"/>
			<polygon fill="none" stroke="#1D1D1B" stroke-miterlimit="10" points="2527.305,1029.743 2527.305,1012.733 2515.967,1012.733 
				2515.967,1046.75 2527.305,1046.75 			"/>
			<polygon fill="none" stroke="#1D1D1B" stroke-miterlimit="10" points="2515.967,842.655 2527.305,842.655 2527.305,825.647 
				2527.305,808.639 2515.967,808.639 			"/>
			<polygon fill="none" stroke="#1D1D1B" stroke-miterlimit="10" points="2515.967,1454.938 2527.305,1454.938 2527.305,1437.93 
				2527.305,1420.923 2515.967,1420.923 			"/>
		</g>
	</g>
</g>
<circle fill="none" stroke="#1D1D1B" stroke-miterlimit="10" cx="162.282" cy="1186.573" r="8.079"/>
<path fill="none" stroke="#1D1D1B" stroke-miterlimit="10" d="M186.153,1171.318l-0.443-4.064c1.104-1.104,1.104-2.904,0-4.012
	l-10.021-10.021c-1.104-1.104-1.104-2.902,0-4.012l-4.783-125.705c1.66,0.363,3.355-0.072,4.701-1.418
	c2.758-2.756,1.73-6.979-2.275-9.387l-4.23-2.535c1.074,0.076,2.146-0.166,3.014-0.805c2.033-1.492,1.273-3.779-1.686-5.082
	l-3.902-1.719v-11.418c0-1.561-1.27-2.834-2.834-2.834h-2.836c-1.561,0-2.834,1.273-2.834,2.834v11.418l-3.9,1.719
	c-2.959,1.303-3.719,3.59-1.688,5.084c0.869,0.637,1.939,0.879,3.016,0.803l-4.227,2.535c-4.014,2.406-5.037,6.631-2.281,9.387
	c1.352,1.348,3.041,1.783,4.703,1.418l-4.781,125.705c1.104,1.105,1.104,2.902,0,4.01l-10.021,10.021
	c-1.104,1.104-1.104,2.906,0,4.008l-0.441,4.064c-2.82,4.406-4.469,9.641-4.469,15.262c0,15.656,12.689,28.352,28.352,28.352
	c15.65,0,28.348-12.688,28.348-28.352C190.62,1180.959,188.978,1175.725,186.153,1171.318z"/>
<path fill="none" stroke="#1D1D1B" stroke-miterlimit="10" d="M231.667,1159.283l-3.543-172.509h-7.086l-3.543,172.509
	c-12.227,3.146-21.26,14.246-21.26,27.453c0,13.209,9.033,24.311,21.26,27.455l0.707,20.506h12.756l0.709-20.506
	c12.229-3.145,21.262-14.246,21.262-27.455S243.893,1162.43,231.667,1159.283z"/>
<circle fill="none" stroke="#1D1D1B" stroke-miterlimit="10" cx="224.611" cy="1186.573" r="8.079"/>
<circle fill="none" stroke="#1D1D1B" stroke-miterlimit="10" cx="293.404" cy="1186.573" r="8.079"/>
<path fill="none" stroke="#1D1D1B" stroke-miterlimit="10" d="M317.275,1171.318l-0.443-4.064c1.104-1.104,1.104-2.904,0-4.012
	l-10.021-10.021c-1.104-1.104-1.104-2.902,0-4.012l-4.783-125.705c1.66,0.363,3.355-0.072,4.701-1.418
	c2.758-2.756,1.73-6.979-2.275-9.387l-4.23-2.535c1.074,0.076,2.146-0.166,3.014-0.805c2.033-1.492,1.273-3.779-1.686-5.082
	l-3.902-1.719v-11.418c0-1.561-1.27-2.834-2.834-2.834h-2.836c-1.561,0-2.834,1.273-2.834,2.834v11.418l-3.9,1.719
	c-2.959,1.303-3.719,3.59-1.688,5.084c0.869,0.637,1.939,0.879,3.016,0.803l-4.227,2.535c-4.014,2.406-5.037,6.631-2.281,9.387
	c1.352,1.348,3.041,1.783,4.703,1.418l-4.781,125.705c1.104,1.105,1.104,2.902,0,4.01l-10.021,10.021
	c-1.104,1.104-1.104,2.906,0,4.008l-0.441,4.064c-2.82,4.406-4.469,9.641-4.469,15.262c0,15.656,12.689,28.352,28.352,28.352
	c15.65,0,28.348-12.688,28.348-28.352C321.742,1180.959,320.1,1175.725,317.275,1171.318z"/>
<path fill="none" stroke="#1D1D1B" stroke-miterlimit="10" d="M362.789,1159.283l-3.543-172.509h-7.086l-3.543,172.509
	c-12.227,3.146-21.26,14.246-21.26,27.453c0,13.209,9.033,24.311,21.26,27.455l0.707,20.506h12.756l0.709-20.506
	c12.229-3.145,21.262-14.246,21.262-27.455S375.015,1162.43,362.789,1159.283z"/>
<circle fill="none" stroke="#1D1D1B" stroke-miterlimit="10" cx="355.733" cy="1186.573" r="8.079"/>
<line fill="none" stroke="#1D1D1B" stroke-miterlimit="10" x1="80.304" y1="976.722" x2="80.304" y2="1260.187"/>
</svg>
