<?xml version="1.0" encoding="utf-8"?>
<!-- Generator: Adobe Illustrator 15.1.0, SVG Export Plug-In . SVG Version: 6.00 Build 0)  -->
<!DOCTYPE svg PUBLIC "-//W3C//DTD SVG 1.1//EN" "http://www.w3.org/Graphics/SVG/1.1/DTD/svg11.dtd">
<svg version="1.1" id="Layer_1" xmlns="http://www.w3.org/2000/svg" xmlns:xlink="http://www.w3.org/1999/xlink" x="0px" y="0px"
	 width="2628px" height="1904px" viewBox="645.124 -274.313 2628 1904" enable-background="new 645.124 -274.313 2628 1904"
	 xml:space="preserve">
<path fill="none" stroke="#1D1D1B" stroke-miterlimit="10" d="M1160.651,515.729v-18.141c0.258-1.383,1.34-2.465,2.723-2.723
	l43.086-4.195v-3.627c0.26-1.383,1.338-2.465,2.725-2.723h9.066c1.385,0.258,2.465,1.34,2.725,2.723v28.346L1160.651,515.729"/>
<circle fill="none" stroke="#1D1D1B" stroke-miterlimit="10" cx="1168.135" cy="504.391" r="2.948"/>
<path fill="none" stroke="#1D1D1B" stroke-miterlimit="10" d="M1228.682,515.729v-18.141c0.258-1.383,1.34-2.465,2.723-2.723
	l43.086-4.195v-3.627c0.258-1.383,1.338-2.465,2.723-2.723h9.068c1.383,0.258,2.465,1.34,2.723,2.723v28.346L1228.682,515.729"/>
<circle fill="none" stroke="#1D1D1B" stroke-miterlimit="10" cx="1236.167" cy="504.391" r="2.948"/>
<path fill="none" stroke="#1D1D1B" stroke-miterlimit="10" d="M1296.713,515.729v-18.141c0.258-1.383,1.34-2.465,2.723-2.723
	l43.086-4.195v-3.627c0.258-1.383,1.338-2.465,2.721-2.723h9.07c1.383,0.258,2.465,1.34,2.723,2.723v28.346L1296.713,515.729"/>
<circle fill="none" stroke="#1D1D1B" stroke-miterlimit="10" cx="1304.198" cy="504.391" r="2.948"/>
<path fill="none" stroke="#1D1D1B" stroke-miterlimit="10" d="M1364.747,515.729v-18.141c0.256-1.383,1.338-2.465,2.723-2.723
	l43.086-4.195v-3.627c0.258-1.383,1.338-2.465,2.721-2.723h9.07c1.383,0.258,2.465,1.34,2.723,2.723v28.346L1364.747,515.729"/>
<circle fill="none" stroke="#1D1D1B" stroke-miterlimit="10" cx="1372.229" cy="504.391" r="2.948"/>
<path fill="none" stroke="#1D1D1B" stroke-miterlimit="10" d="M1432.778,515.729v-18.141c0.258-1.383,1.338-2.465,2.721-2.723
	l43.086-4.195v-3.627c0.258-1.383,1.34-2.465,2.723-2.723h9.07c1.381,0.258,2.463,1.34,2.723,2.723v28.346L1432.778,515.729"/>
<circle fill="none" stroke="#1D1D1B" stroke-miterlimit="10" cx="1440.26" cy="504.391" r="2.948"/>
<path fill="none" stroke="#1D1D1B" stroke-miterlimit="10" d="M1500.809,515.729v-18.141c0.258-1.383,1.338-2.465,2.721-2.723
	l43.086-4.195v-3.627c0.258-1.383,1.34-2.465,2.723-2.723h9.07c1.383,0.258,2.463,1.34,2.723,2.723v28.346L1500.809,515.729"/>
<circle fill="none" stroke="#1D1D1B" stroke-miterlimit="10" cx="1508.292" cy="504.391" r="2.948"/>
<path fill="none" stroke="#1D1D1B" stroke-miterlimit="10" d="M1568.84,515.729v-18.141c0.258-1.383,1.338-2.465,2.721-2.723
	l43.086-4.195v-3.627c0.258-1.383,1.34-2.465,2.723-2.723h9.07c1.383,0.258,2.463,1.34,2.721,2.723v28.346L1568.84,515.729"/>
<circle fill="none" stroke="#1D1D1B" stroke-miterlimit="10" cx="1576.325" cy="504.391" r="2.948"/>
<path fill="none" stroke="#1D1D1B" stroke-miterlimit="10" d="M1636.872,515.729v-18.141c0.258-1.383,1.34-2.465,2.723-2.723
	l43.086-4.195v-3.627c0.258-1.383,1.34-2.465,2.723-2.723h9.07c1.383,0.258,2.463,1.34,2.721,2.723v28.346L1636.872,515.729"/>
<circle fill="none" stroke="#1D1D1B" stroke-miterlimit="10" cx="1644.356" cy="504.391" r="2.948"/>
<path fill="none" stroke="#1D1D1B" stroke-miterlimit="10" d="M1704.903,515.729v-18.141c0.258-1.383,1.34-2.465,2.721-2.723
	l43.088-4.195v-3.627c0.258-1.383,1.338-2.465,2.723-2.723h9.068c1.383,0.258,2.465,1.34,2.723,2.723v28.346L1704.903,515.729"/>
<circle fill="none" stroke="#1D1D1B" stroke-miterlimit="10" cx="1712.387" cy="504.391" r="2.948"/>
<path fill="none" stroke="#1D1D1B" stroke-miterlimit="10" d="M1772.934,515.729v-18.141c0.258-1.383,1.34-2.465,2.723-2.723
	l43.086-4.195v-3.627c0.258-1.383,1.338-2.465,2.723-2.723h9.068c1.383,0.258,2.465,1.34,2.723,2.723v28.346L1772.934,515.729"/>
<circle fill="none" stroke="#1D1D1B" stroke-miterlimit="10" cx="1780.418" cy="504.391" r="2.948"/>
<path fill="none" stroke="#1D1D1B" stroke-miterlimit="10" d="M1840.965,515.729v-18.141c0.258-1.383,1.34-2.465,2.723-2.723
	l43.086-4.195v-3.627c0.258-1.383,1.338-2.465,2.721-2.723h9.07c1.383,0.258,2.465,1.34,2.723,2.723v28.346L1840.965,515.729"/>
<circle fill="none" stroke="#1D1D1B" stroke-miterlimit="10" cx="1848.45" cy="504.391" r="2.948"/>
<path fill="none" stroke="#1D1D1B" stroke-miterlimit="10" d="M1908.999,515.729v-18.141c0.256-1.383,1.338-2.465,2.723-2.723
	l43.086-4.195v-3.627c0.258-1.383,1.338-2.465,2.721-2.723h9.07c1.383,0.258,2.465,1.34,2.723,2.723v28.346L1908.999,515.729"/>
<circle fill="none" stroke="#1D1D1B" stroke-miterlimit="10" cx="1916.481" cy="504.391" r="2.948"/>
<circle fill="none" stroke="#1D1D1B" stroke-miterlimit="10" cx="1168.135" cy="549.746" r="2.948"/>
<path fill="none" stroke="#1D1D1B" stroke-miterlimit="10" d="M1160.651,565.862v-18.142c0.258-1.383,1.34-2.465,2.723-2.723
	l43.086-4.195v-3.627c0.26-1.383,1.338-2.465,2.725-2.723h9.066c1.385,0.258,2.465,1.34,2.725,2.723v28.346L1160.651,565.862"/>
<circle fill="none" stroke="#1D1D1B" stroke-miterlimit="10" cx="1168.135" cy="554.523" r="2.948"/>
<path fill="none" stroke="#1D1D1B" stroke-miterlimit="10" d="M1228.682,565.862v-18.142c0.258-1.383,1.34-2.465,2.723-2.723
	l43.086-4.195v-3.627c0.258-1.383,1.338-2.465,2.723-2.723h9.068c1.383,0.258,2.465,1.34,2.723,2.723v28.346L1228.682,565.862"/>
<circle fill="none" stroke="#1D1D1B" stroke-miterlimit="10" cx="1236.167" cy="554.523" r="2.948"/>
<path fill="none" stroke="#1D1D1B" stroke-miterlimit="10" d="M1296.713,565.862v-18.142c0.258-1.383,1.34-2.465,2.723-2.723
	l43.086-4.195v-3.627c0.258-1.383,1.338-2.465,2.721-2.723h9.07c1.383,0.258,2.465,1.34,2.723,2.723v28.346L1296.713,565.862"/>
<circle fill="none" stroke="#1D1D1B" stroke-miterlimit="10" cx="1304.198" cy="554.523" r="2.948"/>
<path fill="none" stroke="#1D1D1B" stroke-miterlimit="10" d="M1364.747,565.862v-18.142c0.256-1.383,1.338-2.465,2.723-2.723
	l43.086-4.195v-3.627c0.258-1.383,1.338-2.465,2.721-2.723h9.07c1.383,0.258,2.465,1.34,2.723,2.723v28.346L1364.747,565.862"/>
<circle fill="none" stroke="#1D1D1B" stroke-miterlimit="10" cx="1372.229" cy="554.523" r="2.948"/>
<path fill="none" stroke="#1D1D1B" stroke-miterlimit="10" d="M1432.778,565.862v-18.142c0.258-1.383,1.338-2.465,2.721-2.723
	l43.086-4.195v-3.627c0.258-1.383,1.34-2.465,2.723-2.723h9.07c1.381,0.258,2.463,1.34,2.723,2.723v28.346L1432.778,565.862"/>
<circle fill="none" stroke="#1D1D1B" stroke-miterlimit="10" cx="1440.26" cy="554.523" r="2.948"/>
<path fill="none" stroke="#1D1D1B" stroke-miterlimit="10" d="M1500.809,565.862v-18.142c0.258-1.383,1.338-2.465,2.721-2.723
	l43.086-4.195v-3.627c0.258-1.383,1.34-2.465,2.723-2.723h9.07c1.383,0.258,2.463,1.34,2.723,2.723v28.346L1500.809,565.862"/>
<circle fill="none" stroke="#1D1D1B" stroke-miterlimit="10" cx="1508.292" cy="554.523" r="2.948"/>
<path fill="none" stroke="#1D1D1B" stroke-miterlimit="10" d="M1568.84,565.862v-18.142c0.258-1.383,1.338-2.465,2.721-2.723
	l43.086-4.195v-3.627c0.258-1.383,1.34-2.465,2.723-2.723h9.07c1.383,0.258,2.463,1.34,2.721,2.723v28.346L1568.84,565.862"/>
<circle fill="none" stroke="#1D1D1B" stroke-miterlimit="10" cx="1576.325" cy="554.523" r="2.948"/>
<path fill="none" stroke="#1D1D1B" stroke-miterlimit="10" d="M1636.872,565.862v-18.142c0.258-1.383,1.34-2.465,2.723-2.723
	l43.086-4.195v-3.627c0.258-1.383,1.34-2.465,2.723-2.723h9.07c1.383,0.258,2.463,1.34,2.721,2.723v28.346L1636.872,565.862"/>
<circle fill="none" stroke="#1D1D1B" stroke-miterlimit="10" cx="1644.356" cy="554.523" r="2.948"/>
<path fill="none" stroke="#1D1D1B" stroke-miterlimit="10" d="M1704.903,565.862v-18.142c0.258-1.383,1.34-2.465,2.721-2.723
	l43.088-4.195v-3.627c0.258-1.383,1.338-2.465,2.723-2.723h9.068c1.383,0.258,2.465,1.34,2.723,2.723v28.346L1704.903,565.862"/>
<circle fill="none" stroke="#1D1D1B" stroke-miterlimit="10" cx="1712.387" cy="554.523" r="2.948"/>
<path fill="none" stroke="#1D1D1B" stroke-miterlimit="10" d="M1772.934,565.862v-18.142c0.258-1.383,1.34-2.465,2.723-2.723
	l43.086-4.195v-3.627c0.258-1.383,1.338-2.465,2.723-2.723h9.068c1.383,0.258,2.465,1.34,2.723,2.723v28.346L1772.934,565.862"/>
<circle fill="none" stroke="#1D1D1B" stroke-miterlimit="10" cx="1780.418" cy="554.523" r="2.948"/>
<path fill="none" stroke="#1D1D1B" stroke-miterlimit="10" d="M1840.965,565.862v-18.142c0.258-1.383,1.34-2.465,2.723-2.723
	l43.086-4.195v-3.627c0.258-1.383,1.338-2.465,2.721-2.723h9.07c1.383,0.258,2.465,1.34,2.723,2.723v28.346L1840.965,565.862"/>
<circle fill="none" stroke="#1D1D1B" stroke-miterlimit="10" cx="1848.45" cy="554.523" r="2.948"/>
<path fill="none" stroke="#1D1D1B" stroke-miterlimit="10" d="M1908.999,565.862v-18.142c0.256-1.383,1.338-2.465,2.723-2.723
	l43.086-4.195v-3.627c0.258-1.383,1.338-2.465,2.721-2.723h9.07c1.383,0.258,2.465,1.34,2.723,2.723v28.346L1908.999,565.862"/>
<circle fill="none" stroke="#1D1D1B" stroke-miterlimit="10" cx="1916.481" cy="554.523" r="2.948"/>
<circle fill="none" stroke="#1D1D1B" stroke-miterlimit="10" cx="1168.135" cy="599.879" r="2.948"/>
<g>
	<path fill="none" stroke="#1D1D1B" stroke-miterlimit="10" d="M1187.855,270.537l-3.271-1.76l-3.15-1.771l-3.278-1.51v-4.531
		l3.278-1.52l3.15-1.629l3.271-1.892l3.149-1.891l3.148-2.141l-0.25-3.779l-3.398-1.641l-3.399-1.642l-3.279-1.391l-3.398-1.261
		l-3.4-1.131l-0.25-2.389l-0.379-2.15l3.021-1.891l3.029-2.01l3.021-2.271l2.898-2.27l2.891-2.512l-0.629-3.658l-3.65-1.262
		l-3.528-1.13l-3.521-1.01l-3.531-0.881l-3.52-0.762l-0.512-2.271l-0.5-2.141l2.771-2.271l2.771-2.391l2.643-2.521l2.648-2.64
		l2.521-2.781l-1.01-3.52l-3.781-0.892l-3.647-0.75l-3.65-0.631l-3.529-0.51l-3.529-0.25l-0.881-2.141l-0.75-2.142l2.521-2.52
		l4.779-5.541l2.271-2.898l2.271-3.149l-1.521-3.398l-3.771-0.381l-3.779-0.25l-3.65-0.262h-3.66l-3.52,0.133l-1.012-2.143
		l-1.129-1.89l2.262-2.899l2.02-2.898l2.01-3.149l2.021-3.142l1.76-3.279l-1.891-3.278h-3.779l-3.649,0.25l-3.779,0.26l-3.521,0.369
		l-3.529,0.51l-1.392-1.889l-1.129-1.892l1.761-3.021l1.771-3.148l1.629-3.409l1.521-3.4l1.381-3.398l-2.271-3.021l-3.649,0.5
		l-3.779,0.631l-3.521,0.629l-3.528,0.881l-3.521,0.881l-1.521-1.762l-1.379-1.639l1.379-3.271l1.391-3.399l1.26-3.408l1.011-3.65
		l1.131-3.649l-2.642-2.65l-3.659,0.881l-3.648,1.142l-3.529,1.131l-3.399,1.141l-3.271,1.379l-1.762-1.639l-1.641-1.381l1.131-3.4
		l0.879-3.529l0.891-3.649l0.621-3.66l0.641-3.777l-2.899-2.271l-3.529,1.26l-3.521,1.521l-3.279,1.511l-3.271,1.631l-3.149,1.77
		l-1.892-1.391l-1.76-1.26l0.631-3.521l0.5-3.66l0.379-3.649l0.25-3.66l0.121-3.771l-3.141-2.021l-3.4,1.762l-3.147,1.77
		l-3.15,2.011l-3.02,1.891l-2.9,2.142l-2.141-1.132l-1.892-1.129l0.25-3.53v-7.312l-0.25-3.647l-0.25-3.781l-3.397-1.64l-3.15,2.14
		l-3.029,2.143l-2.891,2.398l-2.648,2.271l-2.641,2.39l-2.271-0.88l-2.01-0.76l-0.129-3.649l-0.381-3.529l-0.5-3.65l-0.629-3.66
		l-0.762-3.779l-3.521-1.131l-2.899,2.394l-2.771,2.647l-2.521,2.521l-2.521,2.639l-2.26,2.781l-2.271-0.631l-2.141-0.629
		l-0.629-3.41l-0.763-3.65l-0.881-3.529l-1.129-3.521l-1.141-3.66l-3.65-0.75l-2.52,2.771l-2.521,2.898l-2.26,2.891l-2.139,2.9
		l-1.894,3.02l-2.397-0.368l-2.142-0.382l-1-3.397l-1.26-3.41l-1.26-3.397l-1.511-3.4l-1.641-3.52l-3.65-0.263l-2.27,3.029
		l-2.021,3.15l-1.891,3.147l-1.76,3.15l-1.641,3.149h-2.392l-2.141-0.131l-1.511-3.278l-1.51-3.271l-1.77-3.148l-1.892-3.278
		l-2.012-3.271l-3.647,0.119l-1.892,3.4l-1.641,3.278l-1.511,3.4l-1.391,3.279l-1.262,3.397l-2.389,0.25l-2.142,0.134l-1.762-3.021
		l-2.021-3.031l-2.141-3.02l-2.141-3.029l-2.392-3.021l-3.649,0.631l-1.521,3.528l-1.262,3.521l-1.13,3.408l-0.881,3.521
		l-0.879,3.529l-2.27,0.381l-2.144,0.5l-2.27-2.897l-2.26-2.771l-2.4-2.771l-2.639-2.642l-2.65-2.647l-3.649,1.01l-0.88,3.65
		l-0.881,3.657l-0.76,3.521l-0.5,3.66l-0.379,3.52l-2.271,0.76l-2.141,0.632l-2.392-2.521l-2.641-2.521l-2.779-2.392l-2.891-2.397
		l-3.02-2.392l-3.4,1.511l-0.51,3.649l-0.5,3.779l-0.25,3.66l-0.129,3.647v3.531l-2.144,1.01l-2.02,1l-2.642-2.26l-2.897-2.271
		l-3.021-2.021l-3.147-2.01l-3.271-2.021l-3.279,1.771l-0.118,3.897v3.66l0.5,7.299l0.5,3.531l-2.013,1.26l-1.891,1.129l-3.02-1.889
		l-3.15-1.762l-3.279-1.76l-3.27-1.642l-3.531-1.51l-3.02,2.141l0.381,3.779l0.5,3.65l0.629,3.647l0.631,3.531l0.879,3.529
		l-1.76,1.51l-1.76,1.391l-3.279-1.641l-3.271-1.391l-3.397-1.379l-3.529-1.132l-3.649-1.141l-2.771,2.521l0.879,3.648l0.881,3.66
		l1.011,3.531l1.131,3.397l1.26,3.398l-1.643,1.641l-1.511,1.631l-3.397-1.131l-3.521-1.129l-3.526-0.881l-3.65-0.761l-3.779-0.76
		l-2.391,2.898l1.26,3.531l1.261,3.526l1.51,3.4l1.512,3.27l1.639,3.15l-1.389,1.891l-1.391,1.771l-3.521-0.761l-3.529-0.631
		l-3.649-0.5l-3.648-0.381l-3.778-0.26l-2.142,3.029l1.629,3.529l1.771,3.271l1.76,3.147l2.021,3.15l1.88,2.9l-1.13,2.01l-1.131,1.9
		l-3.528-0.261l-3.648-0.25h-7.432l-3.779,0.25l-1.641,3.277l2.021,3.271l2.139,3.029l2.142,2.9l2.271,2.889l2.392,2.65
		l-1.011,2.141l-0.881,2.021l-3.521,0.119l-3.658,0.26l-3.649,0.371l-3.648,0.51l-3.779,0.629l-1.262,3.521l2.391,2.899l2.4,2.898
		l2.51,2.649l2.65,2.521l2.639,2.391l-0.75,2.271L772.373,205l-3.529,0.5l-3.521,0.631l-3.66,0.763l-3.52,1l-3.65,1.139
		l-0.891,3.531l2.771,2.639l2.77,2.521l2.779,2.397l2.892,2.141l2.899,2.142l-0.381,2.271l-0.379,2.142l-3.521,1.01l-3.398,1.01
		l-3.529,1.26l-3.4,1.381l-3.529,1.511l-0.5,3.66l3.02,2.27l3.15,2.144l3.02,2.01l3.15,1.889l3.148,1.771l-0.129,2.26l-0.121,2.271
		l-3.398,1.392l-3.279,1.379l-3.27,1.641l-3.281,1.76l-3.27,1.892v3.779l3.27,1.891l3.281,1.771l3.27,1.642l3.279,1.51l3.398,1.26
		l0.121,2.392l0.129,2.271l-3.148,1.629l-3.15,1.898l-3.02,2.012l-3.15,2.142l-3.02,2.27l0.5,3.65l3.529,1.52l3.4,1.381l3.529,1.26
		l3.398,1.142l3.521,0.879l0.379,2.271l0.381,2.263l-2.899,2.02l-2.892,2.271l-2.779,2.26l-2.77,2.521l-2.771,2.649l0.891,3.648
		l3.65,1.01l3.52,1.012l3.66,0.75l3.521,0.76l3.529,0.5l0.75,2.271l0.629,2.02l-2.639,2.392l-2.65,2.649l-2.51,2.64l-2.4,2.771
		l-2.391,2.898l1.262,3.53l3.779,0.63l3.648,0.5l3.649,0.381l3.658,0.25l3.521,0.131l0.881,2.141l1.011,2.021l-2.392,2.77
		l-2.271,2.771l-2.142,2.897l-2.139,3.15l-2.021,3.149l1.641,3.4l3.779,0.129l3.778,0.121l3.65-0.121l3.65-0.129l3.526-0.381
		l1.132,2.02l1.129,1.892l-1.879,3.02l-2.021,3.031l-1.762,3.271l-1.771,3.278l-1.631,3.4l2.141,3.021l3.779-0.25l3.648-0.25
		l3.649-0.511l3.529-0.629l3.521-0.75l1.392,1.89l1.391,1.762l-1.641,3.147l-1.513,3.281l-1.51,3.4l-1.26,3.397l-1.26,3.65
		l2.391,2.779l3.779-0.632l3.65-0.891l3.528-0.879l3.521-1.01l3.399-1.132l1.642,1.642l1.51,1.629l-1.26,3.281l-1.131,3.528
		l-1.011,3.529l-0.881,3.521l-0.879,3.779l2.77,2.52l3.65-1.129l3.529-1.26l3.397-1.392l3.271-1.381l3.279-1.51l1.76,1.51
		l1.76,1.381l-0.879,3.398l-0.631,3.53l-0.629,3.648l-0.5,3.66l-0.381,3.779l3.021,2.27l3.529-1.639l3.27-1.642l3.279-1.641
		l3.149-1.891l3.021-1.89l2.01,1.26l1.894,1.14l-0.5,3.531l-0.5,7.299v3.78l0.118,3.779l3.279,1.771l3.271-1.89l3.148-2.021
		l3.021-2.142l2.897-2.141l2.642-2.27l2.141,1l2.021,0.891v3.648l0.129,3.53l0.25,3.779l0.5,3.647l0.51,3.779l3.4,1.392l3.02-2.271
		l2.891-2.391l2.779-2.521l2.641-2.521l2.392-2.521l2.27,0.75l2.144,0.761l0.379,3.528l0.5,3.529l0.76,3.65l0.881,3.649l0.879,3.65
		l3.65,0.889l2.65-2.649l2.639-2.64l2.4-2.781l2.26-2.77l2.27-2.9l2.271,0.511l2.141,0.5l0.879,3.409l0.881,3.521l1.129,3.529
		l1.263,3.529l1.52,3.53l3.65,0.5l2.391-2.899l2.142-3.021l2.141-3.031l2.02-3.02l1.763-3.15l2.391,0.25l2.14,0.131l1.262,3.4
		l1.391,3.397l1.51,3.279l1.642,3.4l1.891,3.27l3.648,0.131l2.012-3.271l1.892-3.16l1.77-3.27l1.51-3.279l1.51-3.271h2.271
		l2.26-0.129l1.642,3.15l1.76,3.147l1.891,3.148l2.021,3.15l2.27,3.149l3.65-0.381l1.641-3.4l1.511-3.397l1.26-3.529l1.26-3.4
		l1-3.397l2.271-0.381l2.27-0.25l1.891,2.897l2.142,2.894l2.26,2.897l2.521,2.898l2.521,2.771l3.65-0.75l1.139-3.528l1.131-3.66
		l0.879-3.521l0.763-3.527l0.631-3.53l2.26-0.629l2.148-0.632l2.26,2.771l2.521,2.65l2.521,2.641l2.771,2.521l2.898,2.521
		l3.521-1.262l0.76-3.648l0.632-3.647l0.5-3.66l0.379-3.65l0.131-3.531l2.141-0.879l2.142-0.881l2.641,2.392l2.648,2.399l2.891,2.26
		l3.029,2.142l3.149,2.147l3.398-1.52l0.25-3.771l0.25-3.776v-7.313l-0.25-3.529l2.01-1.131l2.021-1.139l2.898,2.148l3.021,2.01
		l3.147,1.891l3.15,1.891l3.399,1.763l3.142-2.013l-0.121-3.778l-0.25-3.779l-0.379-3.65l-0.5-3.528l-0.631-3.529l1.881-1.391
		l1.77-1.261l3.15,1.64l3.271,1.641l3.278,1.641l3.521,1.379l3.528,1.394l2.898-2.4l-0.639-3.77l-0.621-3.66l-0.892-3.521
		l-0.881-3.528l-1.129-3.4l1.76-1.639l1.642-1.513l3.27,1.38l3.4,1.262l3.529,1.141l3.649,1l3.66,0.891l2.639-2.649l-1.129-3.65
		l-1.01-3.528l-1.26-3.529l-1.392-3.398l-1.381-3.149l1.51-1.761l1.392-1.771l3.521,1.012l3.529,0.76l3.521,0.75l3.776,0.63
		l3.65,0.381l2.27-2.9l-1.379-3.529l-1.521-3.399l-1.631-3.271l-1.771-3.15l-1.76-3.147l1.26-1.891l1.26-1.892l3.531,0.5l3.521,0.51
		l3.778,0.25l3.65,0.119h3.778l1.892-3.139l-1.761-3.41l-2.021-3.141l-2.01-3.029l-2.021-3.021l-2.262-2.778l1.131-2.142l1.01-2.01
		l3.521,0.121h3.66l3.647-0.121l3.779-0.379l3.771-0.381l1.521-3.4l-2.271-3.021l-2.271-3.027l-2.392-2.771l-2.389-2.642
		l-2.521-2.649l0.879-2.142l0.75-2.139l3.531-0.262l3.528-0.5l3.648-0.5l3.65-0.761l3.778-0.879l1.011-3.531l-2.521-2.77
		l-2.648-2.771l-2.641-2.52l-2.77-2.271l-2.771-2.27l0.5-2.262l0.512-2.148l3.521-0.75l3.528-0.891l3.521-1l3.531-1.141l3.647-1.38
		l0.631-3.659l-2.891-2.392l-2.9-2.391l-3.02-2.15l-3.029-2.01l-3.021-1.892l0.381-2.397l0.25-2.141l3.397-1.132l3.4-1.391
		l3.279-1.381l3.399-1.52l3.398-1.761l0.25-3.778l-3.148-2.011L1187.855,270.537z M984.587,267.765l-2.012,3.899l-3.148,3.15
		l-4.031,1.889l-4.41,0.76l-4.276-0.76l-4.031-2.01l-3.02-3.15l-2.021-4.028l-0.75-4.289l0.75-4.41l2.021-3.898l3.141-3.149
		l4.029-2.021l4.409-0.631l4.279,0.631l4.029,2.148l3.029,3.147l2.012,3.9l0.76,4.41L984.587,267.765z"/>
	<polygon fill="none" stroke="#1D1D1B" stroke-miterlimit="10" points="985.346,263.357 984.587,267.765 982.576,271.666 
		979.426,274.816 975.395,276.707 970.986,277.464 966.707,276.707 962.676,274.697 959.656,271.544 957.635,267.515 
		956.885,263.226 957.635,258.816 959.656,254.916 962.795,251.765 966.826,249.748 971.236,249.117 975.516,249.748 
		979.545,251.896 982.576,255.044 984.587,258.947 	"/>
	<polygon fill="none" stroke="#1D1D1B" stroke-miterlimit="10" points="985.346,263.357 984.587,267.765 982.576,271.666 
		979.426,274.816 975.395,276.707 970.986,277.464 966.707,276.707 962.676,274.697 959.656,271.544 957.635,267.515 
		956.885,263.226 957.635,258.816 959.656,254.916 962.795,251.765 966.826,249.748 971.236,249.117 975.516,249.748 
		979.545,251.896 982.576,255.044 984.587,258.947 	"/>
	<polygon fill="none" stroke="#1D1D1B" stroke-miterlimit="10" points="985.346,320.048 984.587,324.458 982.576,328.361 
		979.426,331.51 975.395,333.4 970.986,334.16 966.707,333.4 962.676,331.387 959.656,328.24 957.635,324.208 956.885,319.919 
		957.635,315.51 959.656,311.611 962.795,308.458 966.826,306.441 971.236,305.808 975.516,306.441 979.545,308.589 982.576,311.74 
		984.587,315.637 	"/>
	<polyline fill="none" stroke="#1D1D1B" stroke-miterlimit="10" points="1130.178,263.105 1132.57,262.978 1134.837,262.471 
		1137.102,261.591 1139.246,260.585 1141.133,259.197 1142.77,257.56 1144.283,255.671 1145.417,253.656 1146.297,251.387 
		1146.926,249.119 1147.18,246.726 1147.053,244.457 	"/>
	<polyline fill="none" stroke="#1D1D1B" stroke-miterlimit="10" points="1147.053,244.457 1146.045,237.025 1144.787,229.589 
		1143.275,222.285 1141.385,214.976 1139.121,207.794 1136.6,200.742 1133.83,193.685 1130.68,186.882 1127.406,180.207 
		1123.628,173.656 1119.723,167.23 1115.568,161.056 1111.035,155.007 1106.375,149.087 1101.335,143.416 1096.172,138 
		1090.756,132.835 1085.088,127.921 1079.295,123.135 1073.251,118.721 1066.955,114.441 1060.531,110.537 1053.982,106.88 
		1047.307,103.482 1040.506,100.457 1033.455,97.558 1026.4,95.166 1019.221,92.898 1011.917,91.007 1004.615,89.498 
		997.182,88.111 989.751,87.226 982.195,86.599 974.764,86.219 967.208,86.219 959.777,86.599 952.221,87.226 944.791,88.111 
		937.359,89.498 930.055,91.007 922.751,92.898 915.57,95.166 908.518,97.558 901.465,100.457 894.666,103.482 887.992,106.88 
		881.441,110.537 875.018,114.441 868.721,118.721 862.676,123.135 856.883,127.921 851.215,132.835 845.799,138 840.635,143.416 
		835.598,149.087 830.936,155.007 826.406,161.056 822.25,167.23 818.344,173.656 814.566,180.207 811.292,186.882 808.143,193.685 
		805.373,200.742 802.852,207.794 800.587,214.976 798.697,222.285 797.184,229.589 795.926,237.025 794.919,244.457 	"/>
	<polyline fill="none" stroke="#1D1D1B" stroke-miterlimit="10" points="794.794,244.457 794.667,246.726 794.919,249.119 
		795.549,251.387 796.43,253.656 797.564,255.671 799.076,257.56 800.712,259.197 802.6,260.585 804.742,261.591 807.008,262.471 
		809.275,262.978 811.669,263.105 	"/>
	<line fill="none" stroke="#1D1D1B" stroke-miterlimit="10" x1="811.669" y1="263.23" x2="921.365" y2="263.23"/>
	<polyline fill="none" stroke="#1D1D1B" stroke-miterlimit="10" points="921.365,263.105 923.758,262.978 926.025,262.471 
		928.167,261.716 930.305,260.585 932.197,259.197 933.833,257.685 935.344,255.796 936.477,253.783 937.484,251.64 	"/>
	<polyline fill="none" stroke="#1D1D1B" stroke-miterlimit="10" points="1004.486,251.765 1003.227,248.615 1001.715,245.591 
		999.828,242.82 997.811,240.046 995.419,237.656 992.9,235.387 990.129,233.498 987.232,231.732 984.21,230.344 980.934,229.214 
		977.662,228.458 974.387,227.955 970.986,227.83 967.585,227.955 964.309,228.458 961.037,229.214 957.762,230.344 954.74,231.732 
		951.842,233.498 949.072,235.387 946.553,237.656 944.16,240.046 942.143,242.82 940.256,245.591 938.746,248.615 937.484,251.765 
			"/>
	<polyline fill="none" stroke="#1D1D1B" stroke-miterlimit="10" points="1004.486,251.64 1005.496,253.783 1006.628,255.796 
		1008.137,257.685 1009.775,259.197 1011.666,260.585 1013.805,261.716 1015.949,262.471 1018.215,262.978 1020.607,263.105 	"/>
	<line fill="none" stroke="#1D1D1B" stroke-miterlimit="10" x1="1020.607" y1="263.23" x2="1130.178" y2="263.23"/>
</g>
<g>
	<path fill="none" stroke="#1D1D1B" stroke-miterlimit="10" d="M1959.768,1046.75c9.393,0,17.008-7.614,17.008-17.008
		c0-9.395-7.615-17.008-17.008-17.008h-30.613V842.655h30.613c9.393,0,17.008-7.615,17.008-17.008
		c0-9.394-7.615-17.009-17.008-17.009h-30.613v-73.699L1688.209,595.71l-240.945,139.229v73.7h-30.612
		c-9.396,0-17.009,7.615-17.009,17.009c0,9.393,7.613,17.008,17.009,17.008h30.612v170.079h-30.612
		c-9.396,0-17.009,7.614-17.009,17.008c0,9.393,7.613,17.008,17.009,17.008h30.612v170.08h-30.612
		c-9.396,0-17.009,7.613-17.009,17.008c0,9.394,7.613,17.008,17.009,17.008h30.612v170.078h-30.612
		c-9.396,0-17.009,7.615-17.009,17.009s7.613,17.008,17.009,17.008h30.612v73.702h481.891v-73.702h30.613
		c9.395,0,17.008-7.614,17.008-17.008s-7.615-17.009-17.008-17.009h-30.613v-170.08h30.613c9.395,0,17.008-7.615,17.008-17.009
		c0-9.396-7.615-17.008-17.008-17.008h-30.613v-170.08L1959.768,1046.75L1959.768,1046.75z M1939.926,1029.742v-5.67h22.678v11.34
		h-22.678V1029.742z M1939.926,825.647v-5.67h22.678v11.34h-22.678V825.647z M1436.493,825.647v5.669h-22.678v-11.34h22.678V825.647
		z M1436.493,1029.742v5.67h-22.678v-11.34h22.678V1029.742z M1436.493,1233.837v5.668h-22.678v-11.338h22.678V1233.837z
		 M1436.493,1437.93v5.671h-22.678v-11.341h22.678V1437.93z M1939.926,1437.93v-5.67h22.678v11.34h-22.678V1437.93z
		 M1939.926,1233.837v-5.67h22.678v11.338h-22.678V1233.837z"/>
	<g>
		<circle fill="none" stroke="#1D1D1B" stroke-miterlimit="10" cx="1688.211" cy="1069.73" r="11.338"/>
		<circle fill="none" stroke="#1D1D1B" stroke-miterlimit="10" cx="1501.125" cy="973.459" r="11.339"/>
		<circle fill="none" stroke="#1D1D1B" stroke-miterlimit="10" cx="1875.618" cy="973.459" r="11.338"/>
		<path fill="none" stroke="#1D1D1B" stroke-miterlimit="10" d="M1688.217,649.863c23.479,0,42.521,19.028,42.521,42.521
			c0,23.481-19.039,42.521-42.521,42.521c-23.489,0-42.521-19.039-42.521-42.521
			C1645.696,668.894,1664.726,649.863,1688.217,649.863z M1886.633,1486.059h-31.18v-36.854c0-17.222-13.961-31.183-31.185-31.183
			c-17.221,0-31.182,13.961-31.182,31.183v36.854h-62.359v-59.125c0-23.48-19.037-42.52-42.52-42.52s-42.52,19.037-42.52,42.52
			v59.125h-62.363v-36.854c0-17.222-13.961-31.183-31.18-31.183c-17.224,0-31.183,13.961-31.183,31.183v36.854h-31.185
			l0.002-190.214v-85.22c0,0,0.775-122.445,198.425-122.445c197.649,0,198.422,122.445,198.422,122.445v275.434H1886.633z
			 M1886.633,943.816h-396.846V783.402c30.608-16.923,88.615-32.47,198.43-32.47c109.822,0,167.816,15.551,198.417,32.476V943.816z"
			/>
		<circle fill="none" stroke="#1D1D1B" stroke-miterlimit="10" cx="1552.229" cy="1449.392" r="12.756"/>
		<circle fill="none" stroke="#1D1D1B" stroke-miterlimit="10" cx="1824.344" cy="1449.208" r="12.756"/>
	</g>
</g>
<g>
	<g>
		<circle fill="none" stroke="#1D1D1B" stroke-miterlimit="10" cx="1026.985" cy="1223.442" r="12.047"/>
		<path fill="none" stroke="#1D1D1B" stroke-miterlimit="10" d="M1026.983,963.997c7.826,0,14.172,6.345,14.172,14.173
			c0,7.827-6.346,14.173-14.172,14.173c-7.828,0-14.174-6.346-14.174-14.173S1019.155,963.997,1026.983,963.997z M826.11,1237.617
			h176.276l-111.073,184.196l-65.205-108.218v-75.979H826.11z M826.11,1435.096v-66.573l40.108,66.573H826.11L826.11,1435.096z
			 M890.922,1463.442c-7.828,0-14.174-6.347-14.174-14.174c0-7.828,6.348-14.173,14.174-14.173c7.828,0,14.174,6.345,14.174,14.173
			C905.096,1457.096,898.75,1463.442,890.922,1463.442z M916.405,1435.096l110.543-183.316l110.453,183.316H916.405z
			 M1163.045,1463.442c-7.828,0-14.174-6.347-14.174-14.174c0-7.828,6.346-14.173,14.174-14.173s14.174,6.345,14.174,14.173
			C1177.219,1457.096,1170.874,1463.442,1163.045,1463.442z M1223.729,1435.096h-34.986l34.986-58.021V1435.096z M1223.729,1322.182
			l-60.658,100.589l-111.562-185.153h172.22V1322.182L1223.729,1322.182z"/>
	</g>
	<path fill="none" stroke="#1D1D1B" stroke-miterlimit="10" d="M1296.481,1046.812c9.393,0,17.008-7.612,17.008-17.008
		c0-9.393-7.615-17.008-17.008-17.008h-30.613V842.717h30.613c9.393,0,17.008-7.615,17.008-17.008s-7.615-17.008-17.008-17.008
		h-30.613v-73.7l15.307-26.513c4.695-8.134,1.908-18.537-6.227-23.233c-8.133-4.695-18.535-1.909-23.232,6.227l-15.301,26.501
		l-211.492-122.21L813.43,717.983l-15.301-26.502c-4.697-8.135-15.1-10.923-23.233-6.227s-10.921,15.099-6.226,23.233l15.31,26.513
		v73.701h-30.615c-9.394,0-17.008,7.615-17.008,17.008s7.614,17.008,17.008,17.008h30.615v170.079h-30.615
		c-9.394,0-17.008,7.615-17.008,17.008c0,9.395,7.614,17.009,17.008,17.009h30.615v170.079h-30.615
		c-9.394,0-17.008,7.613-17.008,17.009c0,9.394,7.614,17.009,17.008,17.009h30.615v170.077h-30.615
		c-9.394,0-17.008,7.615-17.008,17.009c0,9.393,7.614,17.008,17.008,17.008h30.615v73.702h481.889v-73.702h30.615
		c9.393,0,17.008-7.614,17.008-17.008s-7.615-17.009-17.008-17.009h-30.615v-170.079h30.615c9.393,0,17.008-7.615,17.008-17.009
		c0-9.396-7.615-17.009-17.008-17.009h-30.615v-170.079H1296.481z M1276.64,1029.804v-5.669h22.678v11.339h-22.678V1029.804z
		 M1276.64,825.71v-5.669h22.678v11.339h-22.678V825.71z M1262.952,694.695l9.82,5.669l-11.34,19.639l-4.91-2.834l-4.908-2.835
		L1262.952,694.695z M777.071,700.364l9.819-5.67l11.339,19.639l-4.91,2.835l-4.91,2.834L777.071,700.364z M773.206,825.71v5.669
		h-22.678V820.04h22.678V825.71z M773.206,1029.804v5.67h-22.678v-11.339h22.678V1029.804z M773.206,1233.899v5.669h-22.678v-11.339
		h22.678V1233.899z M773.206,1437.994v5.67h-22.678v-11.34h22.678V1437.994z M1276.64,1437.994v-5.67h22.678v11.34h-22.678V1437.994
		z M1276.64,1233.899v-5.67h22.678v11.339h-22.678V1233.899z"/>
</g>
<g>
	<circle fill="none" stroke="#1D1D1B" stroke-miterlimit="10" cx="2321.979" cy="1223.448" r="14.173"/>
	<g>
		<path fill="none" stroke="#1D1D1B" stroke-miterlimit="10" d="M2455.417,1462.025c-7.047,0-12.758-5.712-12.758-12.757
			s5.711-12.756,12.758-12.756c7.043,0,12.754,5.711,12.754,12.756S2462.459,1462.025,2455.417,1462.025z M2183.292,1462.025
			c-7.043,0-12.754-5.712-12.754-12.757s5.711-12.756,12.754-12.756c7.047,0,12.758,5.711,12.758,12.756
			S2190.338,1462.025,2183.292,1462.025z M2149.276,1087.685c-7.047,0-12.758-5.711-12.758-12.758
			c0-7.048,5.711-12.759,12.758-12.759c7.043,0,12.754,5.713,12.754,12.759C2162.03,1081.972,2156.319,1087.685,2149.276,1087.685z
			 M2149.276,963.837c-7.047,0-12.758-5.711-12.758-12.758c0-7.049,5.711-12.76,12.758-12.76c7.043,0,12.754,5.713,12.754,12.76
			C2162.03,958.125,2156.319,963.837,2149.276,963.837z M2319.354,1089.1c-7.828,0-14.172-6.346-14.172-14.174
			s6.344-14.173,14.172-14.173s14.172,6.345,14.172,14.173S2327.182,1089.1,2319.354,1089.1z M2489.432,1087.685
			c-7.045,0-12.756-5.711-12.756-12.758c0-7.048,5.711-12.759,12.756-12.759c7.043,0,12.756,5.713,12.756,12.759
			C2502.188,1081.972,2496.475,1087.685,2489.432,1087.685z M2489.432,963.837c-7.045,0-12.756-5.711-12.756-12.758
			c0-7.049,5.711-12.76,12.756-12.76c7.043,0,12.756,5.713,12.756,12.76C2502.188,958.125,2496.475,963.837,2489.432,963.837z"/>
		<path fill="none" stroke="#1D1D1B" stroke-miterlimit="10" d="M2590.913,1046.812c9.393,0,17.008-7.612,17.008-17.008
			c0-9.393-7.615-17.008-17.008-17.008h-30.613V842.717h30.613c9.393,0,17.008-7.615,17.008-17.008s-7.615-17.008-17.008-17.008
			h-30.613v-73.7l15.305-26.513c4.697-8.134,1.91-18.537-6.225-23.233c-8.135-4.695-18.537-1.909-23.232,6.227l-15.301,26.501
			l-211.492-122.21l-211.492,122.211l-15.301-26.502c-4.699-8.135-15.1-10.922-23.234-6.227c-8.135,4.696-10.922,15.1-6.227,23.233
			l15.309,26.513v73.701h-30.613c-9.395,0-17.008,7.615-17.008,17.008s7.613,17.008,17.008,17.008h30.613v170.079h-30.613
			c-9.395,0-17.008,7.615-17.008,17.008c0,9.395,7.613,17.009,17.008,17.009h30.613v170.079h-30.613
			c-9.395,0-17.008,7.613-17.008,17.009c0,9.394,7.613,17.009,17.008,17.009h30.613v170.077h-30.613
			c-9.395,0-17.008,7.615-17.008,17.009c0,9.393,7.613,17.008,17.008,17.008h30.613v73.702h481.891v-73.702h30.613
			c9.395,0,17.008-7.614,17.008-17.008s-7.613-17.009-17.008-17.009h-30.613v-170.079h30.613c9.395,0,17.008-7.615,17.008-17.009
			c0-9.396-7.613-17.009-17.008-17.009h-30.613v-170.079H2590.913z M2571.071,1029.804v-5.669h22.678v11.339h-22.678V1029.804z
			 M2571.071,825.71v-5.669h22.678v11.339h-22.678V825.71z M2557.383,694.695l9.82,5.669l-11.338,19.639l-4.91-2.834l-4.91-2.835
			L2557.383,694.695z M2071.502,700.364l9.82-5.67l11.338,19.639l-4.908,2.835l-4.91,2.834L2071.502,700.364z M2067.639,825.71
			v5.669h-22.68V820.04h22.68V825.71z M2067.639,1029.804v5.67h-22.68v-11.339h22.68V1029.804z M2067.639,1233.899v5.669h-22.68
			v-11.339h22.68V1233.899z M2067.639,1437.994v5.67h-22.68v-11.34h22.68V1437.994z M2571.071,1437.994v-5.67h22.678v11.34h-22.678
			V1437.994z M2571.071,1233.899v-5.67h22.678v11.339h-22.678V1233.899z"/>
	</g>
	<circle fill="none" stroke="#1D1D1B" stroke-miterlimit="10" cx="2321.524" cy="1223.381" r="14.173"/>
</g>
<g>
	<circle fill="none" stroke="#1D1D1B" stroke-miterlimit="10" cx="2940.61" cy="1223.381" r="14.173"/>
	<path fill="none" stroke="#1D1D1B" stroke-miterlimit="10" d="M3076.252,1461.538c-7.045,0-12.756-5.711-12.756-12.756
		s5.711-12.756,12.756-12.756c7.047,0,12.758,5.711,12.758,12.756S3083.297,1461.538,3076.252,1461.538z M3016.729,674.751
		l51.02,31.118v85.682c-15.703-10.705-32.824-19.485-51.02-26.007V674.751z M2948.696,636.959l51.021,30.021v93.217
		c-16.348-4.436-33.428-7.088-51.021-7.732V636.959z M2804.129,1461.538c-7.045,0-12.756-5.711-12.756-12.756
		s5.711-12.756,12.756-12.756c7.047,0,12.758,5.711,12.758,12.756S2811.174,1461.538,2804.129,1461.538z M2744.602,744.063
		l51.023-29.945v90.221c-20.291,16.809-37.596,37.086-51.023,59.92V744.063z M2772.946,1448.781v34.018h-28.35v-388.94
		c13.432,22.834,30.736,43.112,51.025,59.921v265.006C2782.538,1422.486,2772.946,1434.507,2772.946,1448.781z M2835.311,1482.797
		v-34.017c0-14.271-9.594-26.295-22.678-29.998v-252.217c15.705,10.705,32.826,19.486,51.021,26.009v290.223H2835.311z
		 M2863.655,765.542c-18.195,6.525-35.316,15.305-51.021,26.009v-86.604l51.021-28.957V765.542z M2880.663,665.538l51.021-30.063
		v116.986c-17.594,0.646-34.674,3.296-51.021,7.732V665.538z M2931.69,1482.797h-51.023v-284.878
		c11.15,3.023,22.646,5.197,34.412,6.492c-3.811,5.189-6.064,11.604-6.064,18.543c0,14.326,9.592,26.396,22.678,30.109
		L2931.69,1482.797z M2926.018,977.681c0-7.825,6.346-14.173,14.176-14.173c7.826,0,14.172,6.345,14.172,14.173
		c0,7.827-6.346,14.175-14.172,14.175C2932.364,991.854,2926.018,985.507,2926.018,977.681z M2999.717,1482.797h-51.02v-229.729
		c13.086-3.718,22.678-15.787,22.678-30.113c0-6.939-2.256-13.353-6.064-18.543c11.762-1.295,23.26-3.467,34.41-6.494
		L2999.717,1482.797z M3045.071,1448.781v34.018h-28.346V1192.58c18.195-6.525,35.316-15.306,51.021-26.01v252.213
		C3054.663,1422.486,3045.071,1434.507,3045.071,1448.781z M3107.434,1482.797v-34.017c0-14.271-9.594-26.295-22.678-29.998
		v-265.007c20.289-16.809,37.594-37.084,51.021-59.916l0.002,388.938H3107.434z M3135.78,864.254
		c-13.432-22.831-30.734-43.108-51.023-59.92v-87.24l51.023,29.396V864.254z"/>
	<path fill="none" stroke="#1D1D1B" stroke-miterlimit="10" d="M3209.997,1046.812c9.395,0,17.008-7.612,17.008-17.008
		c0-9.393-7.613-17.008-17.008-17.008h-30.615V842.717h30.615c9.395,0,17.008-7.615,17.008-17.008s-7.613-17.008-17.008-17.008
		h-30.615v-73.7l15.309-26.513c4.695-8.134,1.908-18.537-6.227-23.233c-8.135-4.695-18.537-1.909-23.23,6.227l-15.305,26.501
		l-211.49-122.21l-211.492,122.211l-15.301-26.502c-4.697-8.135-15.102-10.922-23.234-6.227c-8.133,4.696-10.92,15.1-6.225,23.233
		l15.309,26.513v73.701h-30.613c-9.395,0-17.008,7.615-17.008,17.008s7.613,17.008,17.008,17.008h30.613v170.079h-30.613
		c-9.395,0-17.008,7.615-17.008,17.008c0,9.395,7.613,17.009,17.008,17.009h30.613v170.079h-30.613
		c-9.395,0-17.008,7.613-17.008,17.009c0,9.394,7.613,17.009,17.008,17.009h30.613v170.077h-30.613
		c-9.395,0-17.008,7.615-17.008,17.009c0,9.393,7.613,17.008,17.008,17.008h30.613v73.702h481.891v-73.702h30.613
		c9.393,0,17.008-7.614,17.008-17.008s-7.615-17.009-17.008-17.009h-30.613v-170.079h30.613c9.393,0,17.008-7.615,17.008-17.009
		c0-9.396-7.615-17.009-17.008-17.009h-30.613v-170.079H3209.997z M3190.155,1029.804v-5.669h22.676v11.339h-22.676V1029.804z
		 M3190.155,825.71v-5.669h22.676v11.339h-22.676V825.71z M3176.467,694.695l9.82,5.669l-11.34,19.639l-4.91-2.834l-4.908-2.835
		L3176.467,694.695z M2690.584,700.364l9.82-5.67l11.338,19.639l-4.908,2.835l-4.908,2.834L2690.584,700.364z M2686.723,825.71
		v5.669h-22.682V820.04h22.682V825.71z M2686.723,1029.804v5.67h-22.682v-11.339h22.682V1029.804z M2686.723,1233.899v5.669h-22.682
		v-11.339h22.682V1233.899z M2686.723,1437.994v5.67h-22.682v-11.34h22.682V1437.994z M3190.155,1437.994v-5.67h22.676v11.34
		h-22.676V1437.994z M3190.155,1233.899v-5.67h22.676v11.339h-22.676V1233.899z"/>
</g>
<g>
	<polygon fill="none" stroke="#1D1D1B" stroke-miterlimit="10" points="1422.914,-178.985 1405.906,-178.985 1388.898,-178.985 
		1388.898,-190.325 1422.914,-190.325 	"/>
	<polygon fill="none" stroke="#1D1D1B" stroke-miterlimit="10" points="1418.66,172.509 1401.652,172.509 1384.643,172.509 
		1384.643,161.169 1418.66,161.169 	"/>
	<polygon fill="none" stroke="#1D1D1B" stroke-miterlimit="10" points="1684.124,-207.333 1732.314,-207.333 1732.314,231.593 
		1278.771,231.593 1278.771,-207.333 1667.117,-207.333 1667.117,12.132 1684.124,12.132 	"/>
</g>
<g>
	<polygon fill="none" stroke="#1D1D1B" stroke-miterlimit="10" points="1921.023,198.042 1904.016,198.042 1887.007,198.042 
		1887.007,209.382 1921.023,209.382 	"/>
	<polygon fill="none" stroke="#1D1D1B" stroke-miterlimit="10" points="1921.023,-153.452 1904.016,-153.452 1887.007,-153.452 
		1887.007,-142.114 1921.023,-142.114 	"/>
	<polygon fill="none" stroke="#1D1D1B" stroke-miterlimit="10" points="2237.059,-212.536 2188.872,-212.536 2188.872,6.927 
		2171.863,6.927 2171.863,-212.536 1783.516,-212.536 1783.516,226.388 2237.059,226.388 	"/>
</g>
<g>
	<g>
		<rect x="2312.067" y="-207.333" fill="none" stroke="#1D1D1B" stroke-miterlimit="10" width="396.852" height="782.36"/>
		<path fill="none" stroke="#1D1D1B" stroke-miterlimit="10" d="M2691.907,484.319v-17.008h-11.338v34.017h11.338V484.319
			 M2691.907,280.227v-17.009h-11.338v34.017h11.338V280.227 M2691.907,76.133V59.124h-11.338v34.017h11.338V76.133
			 M2691.907-127.963v-17.009h-11.338v34.017h11.338V-127.963 M2329.073-127.963v17.008h11.34v-34.017h-11.34V-127.963
			 M2329.073,76.133v17.008h11.34V59.124h-11.34V76.133 M2329.073,280.227v17.008h11.34v-34.017h-11.34V280.227 M2329.073,484.319
			v17.009h11.34v-34.017h-11.34V484.319"/>
	</g>
	<g>
		<polygon fill="none" stroke="#1D1D1B" stroke-miterlimit="10" points="2640.885,297.233 2652.223,297.233 2652.223,280.227 
			2652.223,263.219 2640.885,263.219 		"/>
		<polygon fill="none" stroke="#1D1D1B" stroke-miterlimit="10" points="2652.223,76.133 2652.223,59.123 2640.885,59.123 
			2640.885,93.14 2652.223,93.14 		"/>
		<polygon fill="none" stroke="#1D1D1B" stroke-miterlimit="10" points="2640.885,-110.955 2652.223,-110.955 2652.223,-127.963 
			2652.223,-144.972 2640.885,-144.972 		"/>
		<polygon fill="none" stroke="#1D1D1B" stroke-miterlimit="10" points="2640.885,501.328 2652.223,501.328 2652.223,484.319 
			2652.223,467.313 2640.885,467.313 		"/>
	</g>
	<g>
		<polygon fill="none" stroke="#1D1D1B" stroke-miterlimit="10" points="2368.76,297.233 2380.098,297.233 2380.098,280.227 
			2380.098,263.219 2368.76,263.219 		"/>
		<polygon fill="none" stroke="#1D1D1B" stroke-miterlimit="10" points="2380.098,76.133 2380.098,59.123 2368.76,59.123 
			2368.76,93.14 2380.098,93.14 		"/>
		<polygon fill="none" stroke="#1D1D1B" stroke-miterlimit="10" points="2368.76,-110.955 2380.098,-110.955 2380.098,-127.963 
			2380.098,-144.972 2368.76,-144.972 		"/>
		<polygon fill="none" stroke="#1D1D1B" stroke-miterlimit="10" points="2368.76,501.328 2380.098,501.328 2380.098,484.319 
			2380.098,467.313 2368.76,467.313 		"/>
	</g>
</g>
<g>
	<g>
		<circle fill="none" stroke="#1D1D1B" stroke-miterlimit="10" cx="2946.131" cy="-31.948" r="4.535"/>
		<circle fill="none" stroke="#1D1D1B" stroke-miterlimit="10" cx="2946.131" cy="-102.814" r="4.536"/>
		<path fill="none" stroke="#1D1D1B" stroke-miterlimit="10" d="M2938.92-39.907c0,0-6.791-5.332-6.791-5.166s0-44.5,0-44.5
			l6.791-5.334l15.168,2.709l6.207,5.25v39.209l-6.039,5.291L2938.92-39.907z"/>
	</g>
	<g>
		<g>
			<rect x="2750.993" y="-207.333" fill="none" stroke="#1D1D1B" stroke-miterlimit="10" width="396.852" height="782.36"/>
			<path fill="none" stroke="#1D1D1B" stroke-miterlimit="10" d="M3130.836,484.319v-17.008h-11.338v34.017h11.338V484.319
				 M3130.836,280.227v-17.009h-11.338v34.017h11.338V280.227 M3130.836,76.133V59.124h-11.338v34.017h11.338V76.133
				 M3130.836-127.963v-17.009h-11.338v34.017h11.338V-127.963 M2768.002-127.963v17.008h11.338v-34.017h-11.338V-127.963
				 M2768.002,76.133v17.008h11.338V59.124h-11.338V76.133 M2768.002,280.227v17.008h11.338v-34.017h-11.338V280.227
				 M2768.002,484.319v17.009h11.338v-34.017h-11.338V484.319"/>
		</g>
		<g>
			<polygon fill="none" stroke="#1D1D1B" stroke-miterlimit="10" points="3079.813,297.233 3091.151,297.233 3091.151,280.227 
				3091.151,263.219 3079.813,263.219 			"/>
			<polygon fill="none" stroke="#1D1D1B" stroke-miterlimit="10" points="3091.151,76.133 3091.151,59.123 3079.813,59.123 
				3079.813,93.14 3091.151,93.14 			"/>
			<polygon fill="none" stroke="#1D1D1B" stroke-miterlimit="10" points="3079.813,-110.955 3091.151,-110.955 3091.151,-127.963 
				3091.151,-144.972 3079.813,-144.972 			"/>
			<polygon fill="none" stroke="#1D1D1B" stroke-miterlimit="10" points="3079.813,501.328 3091.151,501.328 3091.151,484.319 
				3091.151,467.313 3079.813,467.313 			"/>
		</g>
		<g>
			<polygon fill="none" stroke="#1D1D1B" stroke-miterlimit="10" points="2807.688,297.233 2819.026,297.233 2819.026,280.227 
				2819.026,263.219 2807.688,263.219 			"/>
			<polygon fill="none" stroke="#1D1D1B" stroke-miterlimit="10" points="2819.026,76.133 2819.026,59.123 2807.688,59.123 
				2807.688,93.14 2819.026,93.14 			"/>
			<polygon fill="none" stroke="#1D1D1B" stroke-miterlimit="10" points="2807.688,-110.955 2819.026,-110.955 2819.026,-127.963 
				2819.026,-144.972 2807.688,-144.972 			"/>
			<polygon fill="none" stroke="#1D1D1B" stroke-miterlimit="10" points="2807.688,501.328 2819.026,501.328 2819.026,484.319 
				2819.026,467.313 2807.688,467.313 			"/>
		</g>
	</g>
</g>
<g>
	<circle fill="none" stroke="#1D1D1B" stroke-miterlimit="10" cx="2053.833" cy="521.132" r="8.079"/>
	<path fill="none" stroke="#1D1D1B" stroke-miterlimit="10" d="M2077.704,505.877l-0.442-4.064c1.104-1.104,1.104-2.904,0-4.012
		l-10.021-10.021c-1.104-1.104-1.104-2.901,0-4.012l-4.783-125.705c1.66,0.363,3.354-0.072,4.701-1.418
		c2.758-2.756,1.729-6.979-2.275-9.387l-4.23-2.535c1.074,0.076,2.146-0.166,3.015-0.805c2.032-1.492,1.272-3.779-1.687-5.082
		l-3.901-1.72v-11.418c0-1.561-1.271-2.834-2.834-2.834h-2.837c-1.561,0-2.834,1.273-2.834,2.834v11.418l-3.899,1.72
		c-2.959,1.303-3.719,3.59-1.688,5.084c0.869,0.637,1.939,0.879,3.017,0.803l-4.228,2.535c-4.014,2.406-5.037,6.631-2.28,9.387
		c1.352,1.349,3.04,1.783,4.702,1.418l-4.78,125.705c1.104,1.105,1.104,2.902,0,4.01l-10.021,10.021
		c-1.104,1.104-1.104,2.906,0,4.008l-0.44,4.064c-2.82,4.405-4.469,9.641-4.469,15.262c0,15.656,12.688,28.352,28.352,28.352
		c15.65,0,28.348-12.688,28.348-28.352C2082.171,515.518,2080.53,510.284,2077.704,505.877z"/>
	<path fill="none" stroke="#1D1D1B" stroke-miterlimit="10" d="M2123.218,493.842l-3.543-172.509h-7.086l-3.543,172.509
		c-12.228,3.146-21.261,14.246-21.261,27.453c0,13.209,9.033,24.311,21.261,27.454l0.707,20.507h12.756l0.709-20.507
		c12.229-3.145,21.262-14.245,21.262-27.454S2135.444,496.989,2123.218,493.842z"/>
	<circle fill="none" stroke="#1D1D1B" stroke-miterlimit="10" cx="2116.163" cy="521.132" r="8.079"/>
	<circle fill="none" stroke="#1D1D1B" stroke-miterlimit="10" cx="2184.956" cy="521.132" r="8.079"/>
	<path fill="none" stroke="#1D1D1B" stroke-miterlimit="10" d="M2208.827,505.877l-0.443-4.064c1.104-1.104,1.104-2.904,0-4.012
		l-10.021-10.021c-1.104-1.104-1.104-2.901,0-4.012l-4.782-125.705c1.659,0.363,3.354-0.072,4.7-1.418
		c2.759-2.756,1.73-6.979-2.274-9.387l-4.229-2.535c1.073,0.076,2.146-0.166,3.014-0.805c2.033-1.492,1.272-3.779-1.687-5.082
		l-3.901-1.72v-11.418c0-1.561-1.271-2.834-2.834-2.834h-2.836c-1.562,0-2.834,1.273-2.834,2.834v11.418l-3.9,1.72
		c-2.959,1.303-3.719,3.59-1.688,5.084c0.868,0.637,1.938,0.879,3.016,0.803l-4.228,2.535c-4.014,2.406-5.036,6.631-2.28,9.387
		c1.352,1.349,3.041,1.783,4.703,1.418l-4.781,125.705c1.104,1.105,1.104,2.902,0,4.01l-10.021,10.021
		c-1.104,1.104-1.104,2.906,0,4.008l-0.441,4.064c-2.819,4.405-4.469,9.641-4.469,15.262c0,15.656,12.689,28.352,28.353,28.352
		c15.649,0,28.348-12.688,28.348-28.352C2213.293,515.518,2211.651,510.284,2208.827,505.877z"/>
	<path fill="none" stroke="#1D1D1B" stroke-miterlimit="10" d="M2254.34,493.842l-3.543-172.509h-7.086l-3.543,172.509
		c-12.227,3.146-21.26,14.246-21.26,27.453c0,13.209,9.033,24.311,21.26,27.454l0.707,20.507h12.756l0.709-20.507
		c12.229-3.145,21.262-14.245,21.262-27.454S2266.567,496.989,2254.34,493.842z"/>
	<circle fill="none" stroke="#1D1D1B" stroke-miterlimit="10" cx="2247.284" cy="521.132" r="8.079"/>
</g>
<g>
	<g>
		<path fill="none" stroke="#1D1D1B" stroke-miterlimit="10" d="M1470.651,308.874v-18.142c0.514-1.383,2.678-2.465,5.443-2.723
			l86.172-4.195v-3.627c0.516-1.383,2.678-2.465,5.439-2.723h18.145c2.764,0.258,4.928,1.34,5.441,2.723v28.346L1470.651,308.874"/>
		<circle fill="none" stroke="#1D1D1B" stroke-miterlimit="10" cx="1478.134" cy="297.534" r="2.948"/>
	</g>
	<g>
		<path fill="none" stroke="#1D1D1B" stroke-miterlimit="10" d="M1334.587,308.874v-18.142c0.514-1.383,2.678-2.465,5.443-2.723
			l86.172-4.195v-3.627c0.516-1.383,2.678-2.465,5.441-2.723h18.143c2.764,0.258,4.928,1.34,5.443,2.723v28.346L1334.587,308.874"/>
		<circle fill="none" stroke="#1D1D1B" stroke-miterlimit="10" cx="1342.071" cy="297.534" r="2.948"/>
	</g>
	<g>
		<path fill="none" stroke="#1D1D1B" stroke-miterlimit="10" d="M1470.651,348.502v-18.142c0.514-1.383,2.678-2.465,5.443-2.723
			l86.172-4.195v-3.627c0.516-1.383,2.678-2.465,5.439-2.723h18.145c2.764,0.258,4.928,1.34,5.441,2.723v28.347L1470.651,348.502"/>
		<circle fill="none" stroke="#1D1D1B" stroke-miterlimit="10" cx="1478.134" cy="337.163" r="2.948"/>
	</g>
	<g>
		<path fill="none" stroke="#1D1D1B" stroke-miterlimit="10" d="M1334.587,348.502v-18.142c0.514-1.383,2.678-2.465,5.443-2.723
			l86.172-4.195v-3.627c0.516-1.383,2.678-2.465,5.441-2.723h18.143c2.764,0.258,4.928,1.34,5.443,2.723v28.347L1334.587,348.502"/>
		<circle fill="none" stroke="#1D1D1B" stroke-miterlimit="10" cx="1342.071" cy="337.163" r="2.948"/>
	</g>
	<g>
		<path fill="none" stroke="#1D1D1B" stroke-miterlimit="10" d="M1470.651,396.3V378.16c0.514-1.384,2.678-2.466,5.443-2.724
			l86.172-4.195v-3.627c0.516-1.383,2.678-2.465,5.439-2.723h18.145c2.764,0.258,4.928,1.34,5.441,2.723v28.347L1470.651,396.3"/>
		<circle fill="none" stroke="#1D1D1B" stroke-miterlimit="10" cx="1478.134" cy="384.961" r="2.948"/>
	</g>
	<g>
		<path fill="none" stroke="#1D1D1B" stroke-miterlimit="10" d="M1334.587,396.3V378.16c0.514-1.384,2.678-2.466,5.443-2.724
			l86.172-4.195v-3.627c0.516-1.383,2.678-2.465,5.441-2.723h18.143c2.764,0.258,4.928,1.34,5.443,2.723v28.347L1334.587,396.3"/>
		<circle fill="none" stroke="#1D1D1B" stroke-miterlimit="10" cx="1342.071" cy="384.961" r="2.948"/>
	</g>
	<g>
		<path fill="none" stroke="#1D1D1B" stroke-miterlimit="10" d="M1470.651,443.565v-18.141c0.514-1.383,2.678-2.465,5.443-2.724
			l86.172-4.194v-3.627c0.516-1.383,2.678-2.465,5.439-2.724h18.145c2.764,0.259,4.928,1.341,5.441,2.724v28.346L1470.651,443.565"
			/>
		<circle fill="none" stroke="#1D1D1B" stroke-miterlimit="10" cx="1478.134" cy="432.226" r="2.948"/>
	</g>
	<g>
		<path fill="none" stroke="#1D1D1B" stroke-miterlimit="10" d="M1334.587,443.565v-18.141c0.514-1.383,2.678-2.465,5.443-2.724
			l86.172-4.194v-3.627c0.516-1.383,2.678-2.465,5.441-2.724h18.143c2.764,0.259,4.928,1.341,5.443,2.724v28.346L1334.587,443.565"
			/>
		<circle fill="none" stroke="#1D1D1B" stroke-miterlimit="10" cx="1342.071" cy="432.226" r="2.948"/>
	</g>
</g>
<g>
	<g>
		<path fill="none" stroke="#1D1D1B" stroke-miterlimit="10" d="M1761.99,313.25v-18.142c0.514-1.383,2.678-2.465,5.443-2.723
			l86.172-4.195v-3.627c0.516-1.383,2.678-2.465,5.439-2.723h18.145c2.764,0.258,4.928,1.34,5.441,2.723v28.346L1761.99,313.25"/>
		<circle fill="none" stroke="#1D1D1B" stroke-miterlimit="10" cx="1769.472" cy="301.911" r="2.948"/>
	</g>
	<g>
		<path fill="none" stroke="#1D1D1B" stroke-miterlimit="10" d="M1625.925,313.25v-18.142c0.514-1.383,2.678-2.465,5.443-2.723
			l86.172-4.195v-3.627c0.516-1.383,2.678-2.465,5.441-2.723h18.143c2.764,0.258,4.928,1.34,5.443,2.723v28.346L1625.925,313.25"/>
		<circle fill="none" stroke="#1D1D1B" stroke-miterlimit="10" cx="1633.41" cy="301.911" r="2.948"/>
	</g>
	<g>
		<path fill="none" stroke="#1D1D1B" stroke-miterlimit="10" d="M1761.99,352.879v-18.142c0.514-1.383,2.678-2.465,5.443-2.723
			l86.172-4.195v-3.627c0.516-1.383,2.678-2.465,5.439-2.723h18.145c2.764,0.258,4.928,1.34,5.441,2.723v28.347L1761.99,352.879"/>
		<circle fill="none" stroke="#1D1D1B" stroke-miterlimit="10" cx="1769.472" cy="341.54" r="2.948"/>
	</g>
	<g>
		<path fill="none" stroke="#1D1D1B" stroke-miterlimit="10" d="M1625.925,352.879v-18.142c0.514-1.383,2.678-2.465,5.443-2.723
			l86.172-4.195v-3.627c0.516-1.383,2.678-2.465,5.441-2.723h18.143c2.764,0.258,4.928,1.34,5.443,2.723v28.347L1625.925,352.879"/>
		<circle fill="none" stroke="#1D1D1B" stroke-miterlimit="10" cx="1633.41" cy="341.54" r="2.948"/>
	</g>
	<g>
		<path fill="none" stroke="#1D1D1B" stroke-miterlimit="10" d="M1761.99,400.677v-18.141c0.514-1.384,2.678-2.466,5.443-2.724
			l86.172-4.195v-3.627c0.516-1.383,2.678-2.465,5.439-2.723h18.145c2.764,0.258,4.928,1.34,5.441,2.723v28.347L1761.99,400.677"/>
		<circle fill="none" stroke="#1D1D1B" stroke-miterlimit="10" cx="1769.472" cy="389.338" r="2.948"/>
	</g>
	<g>
		<path fill="none" stroke="#1D1D1B" stroke-miterlimit="10" d="M1625.925,400.677v-18.141c0.514-1.384,2.678-2.466,5.443-2.724
			l86.172-4.195v-3.627c0.516-1.383,2.678-2.465,5.441-2.723h18.143c2.764,0.258,4.928,1.34,5.443,2.723v28.347L1625.925,400.677"/>
		<circle fill="none" stroke="#1D1D1B" stroke-miterlimit="10" cx="1633.41" cy="389.338" r="2.948"/>
	</g>
	<g>
		<path fill="none" stroke="#1D1D1B" stroke-miterlimit="10" d="M1761.99,447.941v-18.141c0.514-1.383,2.678-2.465,5.443-2.724
			l86.172-4.194v-3.627c0.516-1.383,2.678-2.465,5.439-2.724h18.145c2.764,0.259,4.928,1.341,5.441,2.724v28.346L1761.99,447.941"/>
		<circle fill="none" stroke="#1D1D1B" stroke-miterlimit="10" cx="1769.472" cy="436.603" r="2.948"/>
	</g>
	<g>
		<path fill="none" stroke="#1D1D1B" stroke-miterlimit="10" d="M1625.925,447.941v-18.141c0.514-1.383,2.678-2.465,5.443-2.724
			l86.172-4.194v-3.627c0.516-1.383,2.678-2.465,5.441-2.724h18.143c2.764,0.259,4.928,1.341,5.443,2.724v28.346L1625.925,447.941"
			/>
		<circle fill="none" stroke="#1D1D1B" stroke-miterlimit="10" cx="1633.41" cy="436.603" r="2.948"/>
	</g>
</g>
<line fill="none" stroke="#1D1D1B" stroke-miterlimit="10" x1="707.124" y1="585.712" x2="707.124" y2="1577.838"/>
</svg>
