  0
SECTION
  2
BLOCKS
  0
ENDSEC
  0
SECTION
  2
ENTITIES
  0
LINE
  8
0
 10
43.8618
 20
39.4326
 11
45.4202
 21
40.991
  0
LINE
  8
0
 10
45.4202
 20
40.991
 11
46.9233
 21
42.6029
  0
LINE
  8
0
 10
46.9233
 20
42.6029
 11
48.3692
 21
44.2662
  0
LINE
  8
0
 10
48.3692
 20
44.2662
 11
49.7562
 21
45.979
  0
LINE
  8
0
 10
49.7562
 20
45.979
 11
51.0825
 21
47.7392
  0
LINE
  8
0
 10
51.0825
 20
47.7392
 11
52.3467
 21
49.5445
  0
LINE
  8
0
 10
52.3467
 20
49.5445
 11
53.547
 21
51.3929
  0
LINE
  8
0
 10
53.547
 20
51.3929
 11
54.6821
 21
53.2821
  0
LINE
  8
0
 10
54.6821
 20
53.2821
 11
55.7506
 21
55.2097
  0
LINE
  8
0
 10
55.7506
 20
55.2097
 11
56.7512
 21
57.1734
  0
LINE
  8
0
 10
56.7512
 20
57.1734
 11
57.5572
 21
58.9019
  0
LINE
  8
0
 10
57.5572
 20
58.9019
 11
57.6073
 21
58.8816
  0
LINE
  8
0
 10
57.6073
 20
58.8816
 11
59.4803
 21
63.5175
  0
LINE
  8
0
 10
59.4803
 20
63.5175
 11
6.96164
 21
84.7365
  0
LINE
  8
0
 10
6.96164
 20
84.7365
 11
6.96164
 21
85.5845
  0
LINE
  8
0
 10
6.96164
 20
85.5845
 11
6.65739
 21
87.0159
  0
LINE
  8
0
 10
6.65739
 20
87.0159
 11
6.06216
 21
88.3528
  0
LINE
  8
0
 10
6.06216
 20
88.3528
 11
5.20201
 21
89.5367
  0
LINE
  8
0
 10
5.20201
 20
89.5367
 11
4.11449
 21
90.5159
  0
LINE
  8
0
 10
4.11449
 20
90.5159
 11
2.84715
 21
91.2476
  0
LINE
  8
0
 10
2.84715
 20
91.2476
 11
1.45537
 21
91.6998
  0
LINE
  8
0
 10
1.45537
 20
91.6998
 11
0
 21
91.8528
  0
LINE
  8
0
 10
0
 20
91.8528
 11
-1.45537
 21
91.6998
  0
LINE
  8
0
 10
-1.45537
 20
91.6998
 11
-2.84715
 21
91.2476
  0
LINE
  8
0
 10
-2.84715
 20
91.2476
 11
-4.11449
 21
90.5159
  0
LINE
  8
0
 10
-4.11449
 20
90.5159
 11
-5.20201
 21
89.5367
  0
LINE
  8
0
 10
-5.20201
 20
89.5367
 11
-6.06216
 21
88.3528
  0
LINE
  8
0
 10
-6.06216
 20
88.3528
 11
-6.65739
 21
87.0159
  0
LINE
  8
0
 10
-6.65739
 20
87.0159
 11
-6.96164
 21
85.5845
  0
LINE
  8
0
 10
-6.96164
 20
85.5845
 11
-6.96164
 21
84.7365
  0
LINE
  8
0
 10
-6.96164
 20
84.7365
 11
-59.4803
 21
63.5175
  0
LINE
  8
0
 10
-59.4803
 20
63.5175
 11
-57.6073
 21
58.8816
  0
LINE
  8
0
 10
-57.6073
 20
58.8816
 11
-57.5572
 21
58.9019
  0
LINE
  8
0
 10
-57.5572
 20
58.9019
 11
-56.7512
 21
57.1734
  0
LINE
  8
0
 10
-56.7512
 20
57.1734
 11
-55.7506
 21
55.2097
  0
LINE
  8
0
 10
-55.7506
 20
55.2097
 11
-54.6821
 21
53.2821
  0
LINE
  8
0
 10
-54.6821
 20
53.2821
 11
-53.547
 21
51.3929
  0
LINE
  8
0
 10
-53.547
 20
51.3929
 11
-52.3467
 21
49.5445
  0
LINE
  8
0
 10
-52.3467
 20
49.5445
 11
-51.0825
 21
47.7392
  0
LINE
  8
0
 10
-51.0825
 20
47.7392
 11
-49.7562
 21
45.979
  0
LINE
  8
0
 10
-49.7562
 20
45.979
 11
-48.3692
 21
44.2662
  0
LINE
  8
0
 10
-48.3692
 20
44.2662
 11
-46.9233
 21
42.6029
  0
LINE
  8
0
 10
-46.9233
 20
42.6029
 11
-46.7587
 21
42.4264
  0
LINE
  8
0
 10
-46.7587
 20
42.4264
 11
-37.8475
 21
42.4264
  0
LINE
  8
0
 10
-37.8475
 20
42.4264
 11
-38.0458
 21
42.5987
  0
LINE
  8
0
 10
-38.0458
 20
42.5987
 11
-39.4972
 21
43.9522
  0
LINE
  8
0
 10
-39.4972
 20
43.9522
 11
-40.9006
 21
45.3556
  0
LINE
  8
0
 10
-40.9006
 20
45.3556
 11
-42.2541
 21
46.8071
  0
LINE
  8
0
 10
-42.2541
 20
46.8071
 11
-43.5561
 21
48.3049
  0
LINE
  8
0
 10
-43.5561
 20
48.3049
 11
-44.8051
 21
49.8472
  0
LINE
  8
0
 10
-44.8051
 20
49.8472
 11
-45.9995
 21
51.4322
  0
LINE
  8
0
 10
-45.9995
 20
51.4322
 11
-47.1378
 21
53.0579
  0
LINE
  8
0
 10
-47.1378
 20
53.0579
 11
-48.2187
 21
54.7224
  0
LINE
  8
0
 10
-48.2187
 20
54.7224
 11
-49.2409
 21
56.4236
  0
LINE
  8
0
 10
-49.2409
 20
56.4236
 11
-50.2031
 21
58.1594
  0
LINE
  8
0
 10
-50.2031
 20
58.1594
 11
-51.1041
 21
59.9277
  0
LINE
  8
0
 10
-51.1041
 20
59.9277
 11
-51.7246
 21
61.2584
  0
LINE
  8
0
 10
-51.7246
 20
61.2584
 11
-5.11447
 21
80.0901
  0
LINE
  8
0
 10
-5.11447
 20
80.0901
 11
-4.11449
 21
79.1897
  0
LINE
  8
0
 10
-4.11449
 20
79.1897
 11
-2.84715
 21
78.458
  0
LINE
  8
0
 10
-2.84715
 20
78.458
 11
-1.45537
 21
78.0058
  0
LINE
  8
0
 10
-1.45537
 20
78.0058
 11
0
 21
77.8528
  0
LINE
  8
0
 10
0
 20
77.8528
 11
1.45537
 21
78.0058
  0
LINE
  8
0
 10
1.45537
 20
78.0058
 11
2.84715
 21
78.458
  0
LINE
  8
0
 10
2.84715
 20
78.458
 11
4.11449
 21
79.1897
  0
LINE
  8
0
 10
4.11449
 20
79.1897
 11
5.11447
 21
80.0901
  0
LINE
  8
0
 10
5.11447
 20
80.0901
 11
51.7246
 21
61.2584
  0
LINE
  8
0
 10
51.7246
 20
61.2584
 11
51.1041
 21
59.9277
  0
LINE
  8
0
 10
51.1041
 20
59.9277
 11
50.2031
 21
58.1594
  0
LINE
  8
0
 10
50.2031
 20
58.1594
 11
49.2409
 21
56.4236
  0
LINE
  8
0
 10
49.2409
 20
56.4236
 11
48.2187
 21
54.7224
  0
LINE
  8
0
 10
48.2187
 20
54.7224
 11
47.1378
 21
53.0579
  0
LINE
  8
0
 10
47.1378
 20
53.0579
 11
45.9995
 21
51.4322
  0
LINE
  8
0
 10
45.9995
 20
51.4322
 11
44.8051
 21
49.8472
  0
LINE
  8
0
 10
44.8051
 20
49.8472
 11
43.5561
 21
48.3049
  0
LINE
  8
0
 10
43.5561
 20
48.3049
 11
42.4264
 21
47.0053
  0
LINE
  8
0
 10
42.4264
 20
47.0053
 11
42.4264
 21
38.0941
  0
LINE
  8
0
 10
42.4264
 20
38.0941
 11
43.8618
 21
39.4326
  0
LINE
  8
0
 10
-1.03955
 20
79.9621
 11
-2.03368
 21
80.2851
  0
LINE
  8
0
 10
-2.03368
 20
80.2851
 11
-2.93892
 21
80.8077
  0
LINE
  8
0
 10
-2.93892
 20
80.8077
 11
-3.71571
 21
81.5072
  0
LINE
  8
0
 10
-3.71571
 20
81.5072
 11
-4.33012
 21
82.3528
  0
LINE
  8
0
 10
-4.33012
 20
82.3528
 11
-4.75528
 21
83.3077
  0
LINE
  8
0
 10
-4.75528
 20
83.3077
 11
-4.9726
 21
84.3302
  0
LINE
  8
0
 10
-4.9726
 20
84.3302
 11
-4.9726
 21
85.3755
  0
LINE
  8
0
 10
-4.9726
 20
85.3755
 11
-4.75528
 21
86.3979
  0
LINE
  8
0
 10
-4.75528
 20
86.3979
 11
-4.33012
 21
87.3528
  0
LINE
  8
0
 10
-4.33012
 20
87.3528
 11
-3.71571
 21
88.1985
  0
LINE
  8
0
 10
-3.71571
 20
88.1985
 11
-2.93892
 21
88.8979
  0
LINE
  8
0
 10
-2.93892
 20
88.8979
 11
-2.03368
 21
89.4205
  0
LINE
  8
0
 10
-2.03368
 20
89.4205
 11
-1.03955
 21
89.7435
  0
LINE
  8
0
 10
-1.03955
 20
89.7435
 11
0
 21
89.8528
  0
LINE
  8
0
 10
0
 20
89.8528
 11
1.03955
 21
89.7435
  0
LINE
  8
0
 10
1.03955
 20
89.7435
 11
2.03368
 21
89.4205
  0
LINE
  8
0
 10
2.03368
 20
89.4205
 11
2.93892
 21
88.8979
  0
LINE
  8
0
 10
2.93892
 20
88.8979
 11
3.71571
 21
88.1985
  0
LINE
  8
0
 10
3.71571
 20
88.1985
 11
4.33012
 21
87.3528
  0
LINE
  8
0
 10
4.33012
 20
87.3528
 11
4.75528
 21
86.3979
  0
LINE
  8
0
 10
4.75528
 20
86.3979
 11
4.9726
 21
85.3755
  0
LINE
  8
0
 10
4.9726
 20
85.3755
 11
4.9726
 21
84.3302
  0
LINE
  8
0
 10
4.9726
 20
84.3302
 11
4.75528
 21
83.3077
  0
LINE
  8
0
 10
4.75528
 20
83.3077
 11
4.33012
 21
82.3528
  0
LINE
  8
0
 10
4.33012
 20
82.3528
 11
3.71571
 21
81.5072
  0
LINE
  8
0
 10
3.71571
 20
81.5072
 11
2.93892
 21
80.8077
  0
LINE
  8
0
 10
2.93892
 20
80.8077
 11
2.03368
 21
80.2851
  0
LINE
  8
0
 10
2.03368
 20
80.2851
 11
1.03955
 21
79.9621
  0
LINE
  8
0
 10
1.03955
 20
79.9621
 11
0
 21
79.8528
  0
LINE
  8
0
 10
0
 20
79.8528
 11
-1.03955
 21
79.9621
  0
LINE
  8
0
 10
4.5381
 20
-43.5485
 11
7.64052
 21
-43.3315
  0
LINE
  8
0
 10
7.64052
 20
-43.3315
 11
10.4189
 21
-42.5349
  0
LINE
  8
0
 10
10.4189
 20
-42.5349
 11
10.4189
 21
-59.0885
  0
LINE
  8
0
 10
10.4189
 20
-59.0885
 11
13.4932
 21
-41.6533
  0
LINE
  8
0
 10
13.4932
 20
-41.6533
 11
16.4827
 21
-40.7961
  0
LINE
  8
0
 10
16.4827
 20
-40.7961
 11
19.0347
 21
-39.4391
  0
LINE
  8
0
 10
19.0347
 20
-39.4391
 11
22.4764
 21
-55.631
  0
LINE
  8
0
 10
22.4764
 20
-55.631
 11
21.8585
 21
-37.9377
  0
LINE
  8
0
 10
21.8585
 20
-37.9377
 11
24.6045
 21
-36.4776
  0
LINE
  8
0
 10
24.6045
 20
-36.4776
 11
26.8186
 21
-34.6198
  0
LINE
  8
0
 10
26.8186
 20
-34.6198
 11
33.5516
 21
-49.7422
  0
LINE
  8
0
 10
33.5516
 20
-49.7422
 11
29.2686
 21
-32.564
  0
LINE
  8
0
 10
29.2686
 20
-32.564
 11
31.6509
 21
-30.565
  0
LINE
  8
0
 10
31.6509
 20
-30.565
 11
33.4304
 21
-28.2873
  0
LINE
  8
0
 10
33.4304
 20
-28.2873
 11
43.1604
 21
-41.6795
  0
LINE
  8
0
 10
43.1604
 20
-41.6795
 11
35.3994
 21
-25.7672
  0
LINE
  8
0
 10
35.3994
 20
-25.7672
 11
37.3141
 21
-23.3164
  0
LINE
  8
0
 10
37.3141
 20
-23.3164
 11
38.5811
 21
-20.7186
  0
LINE
  8
0
 10
38.5811
 20
-20.7186
 11
50.8829
 21
-31.7952
  0
LINE
  8
0
 10
50.8829
 20
-31.7952
 11
39.9831
 21
-17.8441
  0
LINE
  8
0
 10
39.9831
 20
-17.8441
 11
41.3465
 21
-15.0489
  0
LINE
  8
0
 10
41.3465
 20
-15.0489
 11
42.0457
 21
-12.2444
  0
LINE
  8
0
 10
42.0457
 20
-12.2444
 11
56.3815
 21
-20.5212
  0
LINE
  8
0
 10
56.3815
 20
-20.5212
 11
42.8194
 21
-9.14122
  0
LINE
  8
0
 10
42.8194
 20
-9.14122
 11
43.5718
 21
-6.12361
  0
LINE
  8
0
 10
43.5718
 20
-6.12361
 11
43.6727
 21
-3.23503
  0
LINE
  8
0
 10
43.6727
 20
-3.23503
 11
59.4161
 21
-8.35037
  0
LINE
  8
0
 10
59.4161
 20
-8.35037
 11
43.7843
 21
-0.0388031
  0
LINE
  8
0
 10
43.7843
 20
-0.0388031
 11
43.8928
 21
3.06927
  0
LINE
  8
0
 10
43.8928
 20
3.06927
 11
43.3909
 21
5.91571
  0
LINE
  8
0
 10
43.3909
 20
5.91571
 11
59.8538
 21
4.18538
  0
LINE
  8
0
 10
59.8538
 20
4.18538
 11
42.8356
 21
9.06529
  0
LINE
  8
0
 10
42.8356
 20
9.06529
 11
42.2955
 21
12.128
  0
LINE
  8
0
 10
42.2955
 20
12.128
 11
41.2128
 21
14.8079
  0
LINE
  8
0
 10
41.2128
 20
14.8079
 11
57.6757
 21
16.5382
  0
LINE
  8
0
 10
57.6757
 20
16.5382
 11
40.0147
 21
17.7732
  0
LINE
  8
0
 10
40.0147
 20
17.7732
 11
38.8497
 21
20.6567
  0
LINE
  8
0
 10
38.8497
 20
20.6567
 11
37.2334
 21
23.0529
  0
LINE
  8
0
 10
37.2334
 20
23.0529
 11
52.9769
 21
28.1683
  0
LINE
  8
0
 10
52.9769
 20
28.1683
 11
35.445
 21
25.7043
  0
LINE
  8
0
 10
35.445
 20
25.7043
 11
33.7059
 21
28.2827
  0
LINE
  8
0
 10
33.7059
 20
28.2827
 11
31.6268
 21
30.2905
  0
LINE
  8
0
 10
31.6268
 20
30.2905
 11
45.9627
 21
38.5672
  0
LINE
  8
0
 10
45.9627
 20
38.5672
 11
29.3262
 21
32.5121
  0
LINE
  8
0
 10
29.3262
 20
32.5121
 11
27.0891
 21
34.6725
  0
LINE
  8
0
 10
27.0891
 20
34.6725
 11
24.638
 21
36.2041
  0
LINE
  8
0
 10
24.638
 20
36.2041
 11
36.9397
 21
47.2806
  0
LINE
  8
0
 10
36.9397
 20
47.2806
 11
21.9257
 21
37.8989
  0
LINE
  8
0
 10
21.9257
 20
37.8989
 11
19.2883
 21
39.5469
  0
LINE
  8
0
 10
19.2883
 20
39.5469
 11
16.5723
 21
40.5355
  0
LINE
  8
0
 10
16.5723
 20
40.5355
 11
26.3023
 21
53.9276
  0
LINE
  8
0
 10
26.3023
 20
53.9276
 11
13.567
 21
41.6293
  0
LINE
  8
0
 10
13.567
 20
41.6293
 11
10.6446
 21
42.693
  0
LINE
  8
0
 10
10.6446
 20
42.693
 11
7.78235
 21
43.0953
  0
LINE
  8
0
 10
7.78235
 20
43.0953
 11
14.5153
 21
58.2177
  0
LINE
  8
0
 10
14.5153
 20
58.2177
 11
4.6153
 21
43.5404
  0
LINE
  8
0
 10
4.6153
 20
43.5404
 11
1.53557
 21
43.9732
  0
LINE
  8
0
 10
1.53557
 20
43.9732
 11
-1.34772
 21
43.7716
  0
LINE
  8
0
 10
-1.34772
 20
43.7716
 11
2.09396
 21
59.9634
  0
LINE
  8
0
 10
2.09396
 20
59.9634
 11
-4.5381
 21
43.5485
  0
LINE
  8
0
 10
-4.5381
 20
43.5485
 11
-7.64052
 21
43.3315
  0
LINE
  8
0
 10
-7.64052
 20
43.3315
 11
-10.4189
 21
42.5349
  0
LINE
  8
0
 10
-10.4189
 20
42.5349
 11
-10.4189
 21
59.0885
  0
LINE
  8
0
 10
-10.4189
 20
59.0885
 11
-13.4932
 21
41.6533
  0
LINE
  8
0
 10
-13.4932
 20
41.6533
 11
-16.4827
 21
40.7961
  0
LINE
  8
0
 10
-16.4827
 20
40.7961
 11
-19.0347
 21
39.4391
  0
LINE
  8
0
 10
-19.0347
 20
39.4391
 11
-22.4764
 21
55.631
  0
LINE
  8
0
 10
-22.4764
 20
55.631
 11
-21.8585
 21
37.9377
  0
LINE
  8
0
 10
-21.8585
 20
37.9377
 11
-24.6045
 21
36.4776
  0
LINE
  8
0
 10
-24.6045
 20
36.4776
 11
-26.8186
 21
34.6198
  0
LINE
  8
0
 10
-26.8186
 20
34.6198
 11
-33.5516
 21
49.7422
  0
LINE
  8
0
 10
-33.5516
 20
49.7422
 11
-29.2686
 21
32.564
  0
LINE
  8
0
 10
-29.2686
 20
32.564
 11
-31.6509
 21
30.565
  0
LINE
  8
0
 10
-31.6509
 20
30.565
 11
-33.4304
 21
28.2873
  0
LINE
  8
0
 10
-33.4304
 20
28.2873
 11
-43.1604
 21
41.6795
  0
LINE
  8
0
 10
-43.1604
 20
41.6795
 11
-35.3994
 21
25.7672
  0
LINE
  8
0
 10
-35.3994
 20
25.7672
 11
-37.3141
 21
23.3164
  0
LINE
  8
0
 10
-37.3141
 20
23.3164
 11
-38.5811
 21
20.7186
  0
LINE
  8
0
 10
-38.5811
 20
20.7186
 11
-50.8829
 21
31.7952
  0
LINE
  8
0
 10
-50.8829
 20
31.7952
 11
-39.9831
 21
17.8441
  0
LINE
  8
0
 10
-39.9831
 20
17.8441
 11
-41.3465
 21
15.0489
  0
LINE
  8
0
 10
-41.3465
 20
15.0489
 11
-42.0457
 21
12.2444
  0
LINE
  8
0
 10
-42.0457
 20
12.2444
 11
-56.3815
 21
20.5212
  0
LINE
  8
0
 10
-56.3815
 20
20.5212
 11
-42.8194
 21
9.14122
  0
LINE
  8
0
 10
-42.8194
 20
9.14122
 11
-43.5718
 21
6.12361
  0
LINE
  8
0
 10
-43.5718
 20
6.12361
 11
-43.6727
 21
3.23503
  0
LINE
  8
0
 10
-43.6727
 20
3.23503
 11
-59.4161
 21
8.35037
  0
LINE
  8
0
 10
-59.4161
 20
8.35037
 11
-43.7843
 21
0.0388031
  0
LINE
  8
0
 10
-43.7843
 20
0.0388031
 11
-43.8928
 21
-3.06927
  0
LINE
  8
0
 10
-43.8928
 20
-3.06927
 11
-43.3909
 21
-5.91571
  0
LINE
  8
0
 10
-43.3909
 20
-5.91571
 11
-59.8538
 21
-4.18538
  0
LINE
  8
0
 10
-59.8538
 20
-4.18538
 11
-42.8356
 21
-9.06529
  0
LINE
  8
0
 10
-42.8356
 20
-9.06529
 11
-42.2955
 21
-12.128
  0
LINE
  8
0
 10
-42.2955
 20
-12.128
 11
-41.2128
 21
-14.8079
  0
LINE
  8
0
 10
-41.2128
 20
-14.8079
 11
-57.6757
 21
-16.5382
  0
LINE
  8
0
 10
-57.6757
 20
-16.5382
 11
-40.0147
 21
-17.7732
  0
LINE
  8
0
 10
-40.0147
 20
-17.7732
 11
-38.8497
 21
-20.6567
  0
LINE
  8
0
 10
-38.8497
 20
-20.6567
 11
-37.2334
 21
-23.0529
  0
LINE
  8
0
 10
-37.2334
 20
-23.0529
 11
-52.9769
 21
-28.1683
  0
LINE
  8
0
 10
-52.9769
 20
-28.1683
 11
-35.445
 21
-25.7043
  0
LINE
  8
0
 10
-35.445
 20
-25.7043
 11
-33.7059
 21
-28.2827
  0
LINE
  8
0
 10
-33.7059
 20
-28.2827
 11
-31.6268
 21
-30.2905
  0
LINE
  8
0
 10
-31.6268
 20
-30.2905
 11
-45.9627
 21
-38.5672
  0
LINE
  8
0
 10
-45.9627
 20
-38.5672
 11
-29.3262
 21
-32.5121
  0
LINE
  8
0
 10
-29.3262
 20
-32.5121
 11
-27.0891
 21
-34.6725
  0
LINE
  8
0
 10
-27.0891
 20
-34.6725
 11
-24.638
 21
-36.2041
  0
LINE
  8
0
 10
-24.638
 20
-36.2041
 11
-36.9397
 21
-47.2806
  0
LINE
  8
0
 10
-36.9397
 20
-47.2806
 11
-21.9257
 21
-37.8989
  0
LINE
  8
0
 10
-21.9257
 20
-37.8989
 11
-19.2883
 21
-39.5469
  0
LINE
  8
0
 10
-19.2883
 20
-39.5469
 11
-16.5723
 21
-40.5355
  0
LINE
  8
0
 10
-16.5723
 20
-40.5355
 11
-26.3023
 21
-53.9276
  0
LINE
  8
0
 10
-26.3023
 20
-53.9276
 11
-13.567
 21
-41.6293
  0
LINE
  8
0
 10
-13.567
 20
-41.6293
 11
-10.6446
 21
-42.693
  0
LINE
  8
0
 10
-10.6446
 20
-42.693
 11
-7.78235
 21
-43.0953
  0
LINE
  8
0
 10
-7.78235
 20
-43.0953
 11
-14.5153
 21
-58.2177
  0
LINE
  8
0
 10
-14.5153
 20
-58.2177
 11
-4.6153
 21
-43.5404
  0
LINE
  8
0
 10
-4.6153
 20
-43.5404
 11
-1.53557
 21
-43.9732
  0
LINE
  8
0
 10
-1.53557
 20
-43.9732
 11
1.34772
 21
-43.7716
  0
LINE
  8
0
 10
1.34772
 20
-43.7716
 11
-2.09396
 21
-59.9634
  0
LINE
  8
0
 10
-2.09396
 20
-59.9634
 11
4.5381
 21
-43.5485
  0
LINE
  8
0
 10
3.06859
 20
6.29155
 11
1.69345
 21
6.79207
  0
LINE
  8
0
 10
1.69345
 20
6.79207
 11
0.244293
 21
6.99573
  0
LINE
  8
0
 10
0.244293
 20
6.99573
 11
-1.04747
 21
6.9054
  0
LINE
  8
0
 10
-1.04747
 20
6.9054
 11
-10.5758
 21
38.3514
  0
LINE
  8
0
 10
-10.5758
 20
38.3514
 11
-6.94592
 21
39.3923
  0
LINE
  8
0
 10
-6.94592
 20
39.3923
 11
1.39597
 21
39.9756
  0
LINE
  8
0
 10
1.39597
 20
39.9756
 11
9.67686
 21
38.8118
  0
LINE
  8
0
 10
9.67686
 20
38.8118
 11
17.5348
 21
35.9518
  0
LINE
  8
0
 10
17.5348
 20
35.9518
 11
21.7468
 21
33.3198
  0
LINE
  8
0
 10
21.7468
 20
33.3198
 11
3.10535
 21
6.26859
  0
LINE
  8
0
 10
3.10535
 20
6.26859
 11
3.06859
 21
6.29155
  0
LINE
  8
0
 10
-36.6221
 20
15.6606
 11
-33.9219
 21
21.1968
  0
LINE
  8
0
 10
-33.9219
 20
21.1968
 11
-28.7736
 21
27.7863
  0
LINE
  8
0
 10
-28.7736
 20
27.7863
 11
-22.3677
 21
33.1615
  0
LINE
  8
0
 10
-22.3677
 20
33.1615
 11
-14.9843
 21
37.0873
  0
LINE
  8
0
 10
-14.9843
 20
37.0873
 11
-12.4986
 21
37.8001
  0
LINE
  8
0
 10
-12.4986
 20
37.8001
 11
-2.95747
 21
6.31203
  0
LINE
  8
0
 10
-2.95747
 20
6.31203
 11
-3.91434
 21
5.80325
  0
LINE
  8
0
 10
-3.91434
 20
5.80325
 11
-5.03537
 21
4.86259
  0
LINE
  8
0
 10
-5.03537
 20
4.86259
 11
-5.93633
 21
3.70943
  0
LINE
  8
0
 10
-5.93633
 20
3.70943
 11
-6.04619
 21
3.48419
  0
LINE
  8
0
 10
-6.04619
 20
3.48419
 11
-36.6221
 21
15.6606
  0
LINE
  8
0
 10
6.72882
 20
1.92946
 11
6.18062
 21
3.28629
  0
LINE
  8
0
 10
6.18062
 20
3.28629
 11
5.3623
 21
4.49951
  0
LINE
  8
0
 10
5.3623
 20
4.49951
 11
4.73355
 21
5.10669
  0
LINE
  8
0
 10
4.73355
 20
5.10669
 11
23.4446
 21
32.2589
  0
LINE
  8
0
 10
23.4446
 20
32.2589
 11
24.6264
 21
31.5204
  0
LINE
  8
0
 10
24.6264
 20
31.5204
 11
30.6418
 21
25.7115
  0
LINE
  8
0
 10
30.6418
 20
25.7115
 11
35.3179
 21
18.7789
  0
LINE
  8
0
 10
35.3179
 20
18.7789
 11
38.4505
 21
11.0255
  0
LINE
  8
0
 10
38.4505
 20
11.0255
 11
39.728
 21
3.78049
  0
LINE
  8
0
 10
39.728
 20
3.78049
 11
6.80833
 21
1.47852
  0
LINE
  8
0
 10
6.80833
 20
1.47852
 11
6.72882
 21
1.92946
  0
LINE
  8
0
 10
-35.3179
 20
-18.7789
 11
-38.4505
 21
-11.0255
  0
LINE
  8
0
 10
-38.4505
 20
-11.0255
 11
-39.9026
 21
-2.79025
  0
LINE
  8
0
 10
-39.9026
 20
-2.79025
 11
-39.6107
 21
5.56691
  0
LINE
  8
0
 10
-39.6107
 20
5.56691
 11
-37.5877
 21
13.6808
  0
LINE
  8
0
 10
-37.5877
 20
13.6808
 11
-37.5013
 21
13.858
  0
LINE
  8
0
 10
-37.5013
 20
13.858
 11
-6.77084
 21
1.62003
  0
LINE
  8
0
 10
-6.77084
 20
1.62003
 11
-6.93187
 21
0.974197
  0
LINE
  8
0
 10
-6.93187
 20
0.974197
 11
-6.98294
 21
-0.488281
  0
LINE
  8
0
 10
-6.98294
 20
-0.488281
 11
-6.72882
 21
-1.92946
  0
LINE
  8
0
 10
-6.72882
 20
-1.92946
 11
-6.47949
 21
-2.54657
  0
LINE
  8
0
 10
-6.47949
 20
-2.54657
 11
-35.2076
 21
-18.9423
  0
LINE
  8
0
 10
-35.2076
 20
-18.9423
 11
-35.3179
 21
-18.7789
  0
LINE
  8
0
 10
-1.20959
 20
-4.85147
 11
-2.19185
 21
-4.49396
  0
LINE
  8
0
 10
-2.19185
 20
-4.49396
 11
-3.07829
 21
-3.94005
  0
LINE
  8
0
 10
-3.07829
 20
-3.94005
 11
-3.83022
 21
-3.21393
  0
LINE
  8
0
 10
-3.83022
 20
-3.21393
 11
-4.41473
 21
-2.34735
  0
LINE
  8
0
 10
-4.41473
 20
-2.34735
 11
-4.8063
 21
-1.37817
  0
LINE
  8
0
 10
-4.8063
 20
-1.37817
 11
-4.98781
 21
-0.34877
  0
LINE
  8
0
 10
-4.98781
 20
-0.34877
 11
-4.95134
 21
0.695862
  0
LINE
  8
0
 10
-4.95134
 20
0.695862
 11
-4.69846
 21
1.7101
  0
LINE
  8
0
 10
-4.69846
 20
1.7101
 11
-4.24023
 21
2.64958
  0
LINE
  8
0
 10
-4.24023
 20
2.64958
 11
-3.59669
 21
3.47328
  0
LINE
  8
0
 10
-3.59669
 20
3.47328
 11
-2.79596
 21
4.14519
  0
LINE
  8
0
 10
-2.79596
 20
4.14519
 11
-1.87303
 21
4.63591
  0
LINE
  8
0
 10
-1.87303
 20
4.63591
 11
-0.86824
 21
4.92403
  0
LINE
  8
0
 10
-0.86824
 20
4.92403
 11
0.174484
 21
4.99695
  0
LINE
  8
0
 10
0.174484
 20
4.99695
 11
1.20959
 21
4.85147
  0
LINE
  8
0
 10
1.20959
 20
4.85147
 11
2.19185
 21
4.49396
  0
LINE
  8
0
 10
2.19185
 20
4.49396
 11
3.07829
 21
3.94005
  0
LINE
  8
0
 10
3.07829
 20
3.94005
 11
3.83022
 21
3.21393
  0
LINE
  8
0
 10
3.83022
 20
3.21393
 11
4.41473
 21
2.34735
  0
LINE
  8
0
 10
4.41473
 20
2.34735
 11
4.8063
 21
1.37817
  0
LINE
  8
0
 10
4.8063
 20
1.37817
 11
4.98781
 21
0.34877
  0
LINE
  8
0
 10
4.98781
 20
0.34877
 11
4.95134
 21
-0.695862
  0
LINE
  8
0
 10
4.95134
 20
-0.695862
 11
4.69846
 21
-1.7101
  0
LINE
  8
0
 10
4.69846
 20
-1.7101
 11
4.24023
 21
-2.64958
  0
LINE
  8
0
 10
4.24023
 20
-2.64958
 11
3.59669
 21
-3.47328
  0
LINE
  8
0
 10
3.59669
 20
-3.47328
 11
2.79596
 21
-4.14519
  0
LINE
  8
0
 10
2.79596
 20
-4.14519
 11
1.87303
 21
-4.63591
  0
LINE
  8
0
 10
1.87303
 20
-4.63591
 11
0.86824
 21
-4.92403
  0
LINE
  8
0
 10
0.86824
 20
-4.92403
 11
-0.174484
 21
-4.99695
  0
LINE
  8
0
 10
-0.174484
 20
-4.99695
 11
-1.20959
 21
-4.85147
  0
LINE
  8
0
 10
5.39819
 20
-4.39819
 11
5.93633
 21
-3.70943
  0
LINE
  8
0
 10
5.93633
 20
-3.70943
 11
6.57784
 21
-2.39413
  0
LINE
  8
0
 10
6.57784
 20
-2.39413
 11
6.93187
 21
-0.974197
  0
LINE
  8
0
 10
6.93187
 20
-0.974197
 11
6.94785
 21
-0.516586
  0
LINE
  8
0
 10
6.94785
 20
-0.516586
 11
39.8675
 21
1.78535
  0
LINE
  8
0
 10
39.8675
 20
1.78535
 11
39.6107
 21
-5.56691
  0
LINE
  8
0
 10
39.6107
 20
-5.56691
 11
37.5877
 21
-13.6808
  0
LINE
  8
0
 10
37.5877
 20
-13.6808
 11
33.9219
 21
-21.1968
  0
LINE
  8
0
 10
33.9219
 20
-21.1968
 11
28.7736
 21
-27.7863
  0
LINE
  8
0
 10
28.7736
 20
-27.7863
 11
27.7061
 21
-28.6821
  0
LINE
  8
0
 10
27.7061
 20
-28.6821
 11
5.39819
 21
-4.39819
  0
LINE
  8
0
 10
-9.67686
 20
-38.8118
 11
-17.5348
 21
-35.9518
  0
LINE
  8
0
 10
-17.5348
 20
-35.9518
 11
-24.6264
 21
-31.5204
  0
LINE
  8
0
 10
-24.6264
 20
-31.5204
 11
-30.6418
 21
-25.7115
  0
LINE
  8
0
 10
-30.6418
 20
-25.7115
 11
-34.0861
 21
-20.605
  0
LINE
  8
0
 10
-34.0861
 20
-20.605
 11
-5.50244
 21
-4.29175
  0
LINE
  8
0
 10
-5.50244
 20
-4.29175
 11
-5.3623
 21
-4.49951
  0
LINE
  8
0
 10
-5.3623
 20
-4.49951
 11
-4.30962
 21
-5.51607
  0
LINE
  8
0
 10
-4.30962
 20
-5.51607
 11
-3.06859
 21
-6.29155
  0
LINE
  8
0
 10
-3.06859
 20
-6.29155
 11
-2.05023
 21
-6.6622
  0
LINE
  8
0
 10
-2.05023
 20
-6.6622
 11
-7.11617
 21
-39.1717
  0
LINE
  8
0
 10
-7.11617
 20
-39.1717
 11
-9.67686
 21
-38.8118
  0
LINE
  8
0
 10
-5.13541
 20
-39.4501
 11
-0.0762329
 21
-6.98398
  0
LINE
  8
0
 10
-0.0762329
 20
-6.98398
 11
1.21553
 21
-6.89365
  0
LINE
  8
0
 10
1.21553
 20
-6.89365
 11
2.62224
 21
-6.49028
  0
LINE
  8
0
 10
2.62224
 20
-6.49028
 11
3.91434
 21
-5.80325
  0
LINE
  8
0
 10
3.91434
 20
-5.80325
 11
3.94754
 21
-5.77539
  0
LINE
  8
0
 10
3.94754
 20
-5.77539
 11
26.1724
 21
-29.969
  0
LINE
  8
0
 10
26.1724
 20
-29.969
 11
22.3677
 21
-33.1615
  0
LINE
  8
0
 10
22.3677
 20
-33.1615
 11
14.9843
 21
-37.0873
  0
LINE
  8
0
 10
14.9843
 20
-37.0873
 11
6.94592
 21
-39.3923
  0
LINE
  8
0
 10
6.94592
 20
-39.3923
 11
-1.39597
 21
-39.9756
  0
LINE
  8
0
 10
-1.39597
 20
-39.9756
 11
-5.13541
 21
-39.4501
  0
ENDSEC
  0
SECTION
  2
OBJECTS
  0
DICTIONARY
  0
ENDSEC
  0
EOF
