<?xml version="1.0" encoding="utf-8"?>
<!-- Generator: Adobe Illustrator 15.1.0, SVG Export Plug-In . SVG Version: 6.00 Build 0)  -->
<!DOCTYPE svg PUBLIC "-//W3C//DTD SVG 1.1//EN" "http://www.w3.org/Graphics/SVG/1.1/DTD/svg11.dtd">
<svg version="1.1" id="Layer_1" xmlns="http://www.w3.org/2000/svg" xmlns:xlink="http://www.w3.org/1999/xlink" x="0px" y="0px"
	 width="2628px" height="1904px" viewBox="0 0 2628 1904" enable-background="new 0 0 2628 1904" xml:space="preserve">
<path fill="none" stroke="#000000" stroke-width="0.3" d="M1571.825,521.636v-18.142c0.514-1.383,2.678-2.465,5.443-2.723
	l86.172-4.195v-3.627c0.516-1.383,2.678-2.465,5.441-2.723h18.143c2.764,0.258,4.928,1.34,5.443,2.723v28.346L1571.825,521.636"/>
<circle fill="none" stroke="#8A2BE2" stroke-width="0.3" cx="1579.31" cy="510.297" r="2.948"/>
<path fill="none" stroke="#000000" stroke-width="0.3" d="M1435.761,521.636v-18.142c0.516-1.383,2.68-2.465,5.443-2.723
	l86.172-4.195v-3.627c0.516-1.383,2.678-2.465,5.441-2.723h18.143c2.764,0.258,4.928,1.34,5.443,2.723v28.346L1435.761,521.636"/>
<circle fill="none" stroke="#8A2BE2" stroke-width="0.3" cx="1443.245" cy="510.297" r="2.948"/>
<path fill="none" stroke="#000000" stroke-width="0.3" d="M1571.825,561.265v-18.142c0.514-1.383,2.678-2.465,5.443-2.723
	l86.172-4.195v-3.627c0.516-1.383,2.678-2.465,5.441-2.723h18.143c2.764,0.258,4.928,1.34,5.443,2.723v28.347L1571.825,561.265"/>
<circle fill="none" stroke="#8A2BE2" stroke-width="0.3" cx="1579.31" cy="549.926" r="2.948"/>
<path fill="none" stroke="#000000" stroke-width="0.3" d="M1435.761,561.265v-18.142c0.516-1.383,2.68-2.465,5.443-2.723
	l86.172-4.195v-3.627c0.516-1.383,2.678-2.465,5.441-2.723h18.143c2.764,0.258,4.928,1.34,5.443,2.723v28.347L1435.761,561.265"/>
<circle fill="none" stroke="#8A2BE2" stroke-width="0.3" cx="1443.245" cy="549.926" r="2.948"/>
<path fill="none" stroke="#000000" stroke-width="0.3" d="M1571.825,609.063v-18.142c0.514-1.383,2.678-2.465,5.443-2.723
	l86.172-4.195v-3.627c0.516-1.383,2.678-2.465,5.441-2.723h18.143c2.764,0.258,4.928,1.34,5.443,2.723v28.347L1571.825,609.063"/>
<circle fill="none" stroke="#8A2BE2" stroke-width="0.3" cx="1579.31" cy="597.724" r="2.948"/>
<path fill="none" stroke="#000000" stroke-width="0.3" d="M1435.761,609.063v-18.142c0.516-1.383,2.68-2.465,5.443-2.723
	l86.172-4.195v-3.627c0.516-1.383,2.678-2.465,5.441-2.723h18.143c2.764,0.258,4.928,1.34,5.443,2.723v28.347L1435.761,609.063"/>
<circle fill="none" stroke="#8A2BE2" stroke-width="0.3" cx="1443.245" cy="597.724" r="2.948"/>
<path fill="none" stroke="#000000" stroke-width="0.3" d="M1571.825,656.328v-18.141c0.514-1.383,2.678-2.465,5.443-2.724
	l86.172-4.194v-3.627c0.516-1.384,2.678-2.466,5.441-2.724h18.143c2.764,0.258,4.928,1.34,5.443,2.724v28.346L1571.825,656.328"/>
<circle fill="none" stroke="#8A2BE2" stroke-width="0.3" cx="1579.31" cy="644.989" r="2.948"/>
<path fill="none" stroke="#000000" stroke-width="0.3" d="M1435.761,656.328v-18.141c0.516-1.383,2.68-2.465,5.443-2.724
	l86.172-4.194v-3.627c0.516-1.384,2.678-2.466,5.441-2.724h18.143c2.764,0.258,4.928,1.34,5.443,2.724v28.346L1435.761,656.328"/>
<circle fill="none" stroke="#8A2BE2" stroke-width="0.3" cx="1443.245" cy="644.989" r="2.948"/>
<path fill="none" stroke="#000000" stroke-width="0.3" d="M975.841,521.636v-18.142c0.514-1.383,2.678-2.465,5.443-2.723
	l86.172-4.195v-3.627c0.516-1.383,2.678-2.465,5.441-2.723h18.143c2.764,0.258,4.928,1.34,5.443,2.723v28.346L975.841,521.636"/>
<circle fill="none" stroke="#8A2BE2" stroke-width="0.3" cx="983.325" cy="510.297" r="2.948"/>
<path fill="none" stroke="#000000" stroke-width="0.3" d="M839.776,521.636v-18.142c0.516-1.383,2.68-2.465,5.443-2.723
	l86.172-4.195v-3.627c0.516-1.383,2.678-2.465,5.441-2.723h18.143c2.764,0.258,4.928,1.34,5.443,2.723v28.346L839.776,521.636"/>
<circle fill="none" stroke="#8A2BE2" stroke-width="0.3" cx="847.261" cy="510.297" r="2.948"/>
<path fill="none" stroke="#000000" stroke-width="0.3" d="M975.841,561.265v-18.142c0.514-1.383,2.678-2.465,5.443-2.723
	l86.172-4.195v-3.627c0.516-1.383,2.678-2.465,5.441-2.723h18.143c2.764,0.258,4.928,1.34,5.443,2.723v28.347L975.841,561.265"/>
<circle fill="none" stroke="#8A2BE2" stroke-width="0.3" cx="983.325" cy="549.926" r="2.948"/>
<path fill="none" stroke="#000000" stroke-width="0.3" d="M839.776,561.265v-18.142c0.516-1.383,2.68-2.465,5.443-2.723
	l86.172-4.195v-3.627c0.516-1.383,2.678-2.465,5.441-2.723h18.143c2.764,0.258,4.928,1.34,5.443,2.723v28.347L839.776,561.265"/>
<circle fill="none" stroke="#8A2BE2" stroke-width="0.3" cx="847.261" cy="549.926" r="2.948"/>
<path fill="none" stroke="#000000" stroke-width="0.3" d="M975.841,609.063v-18.142c0.514-1.383,2.678-2.465,5.443-2.723
	l86.172-4.195v-3.627c0.516-1.383,2.678-2.465,5.441-2.723h18.143c2.764,0.258,4.928,1.34,5.443,2.723v28.347L975.841,609.063"/>
<circle fill="none" stroke="#8A2BE2" stroke-width="0.3" cx="983.325" cy="597.724" r="2.948"/>
<path fill="none" stroke="#000000" stroke-width="0.3" d="M839.776,609.063v-18.142c0.516-1.383,2.68-2.465,5.443-2.723
	l86.172-4.195v-3.627c0.516-1.383,2.678-2.465,5.441-2.723h18.143c2.764,0.258,4.928,1.34,5.443,2.723v28.347L839.776,609.063"/>
<circle fill="none" stroke="#8A2BE2" stroke-width="0.3" cx="847.261" cy="597.724" r="2.948"/>
<path fill="none" stroke="#000000" stroke-width="0.3" d="M975.841,656.328v-18.141c0.514-1.383,2.678-2.465,5.443-2.724
	l86.172-4.194v-3.627c0.516-1.384,2.678-2.466,5.441-2.724h18.143c2.764,0.258,4.928,1.34,5.443,2.724v28.346L975.841,656.328"/>
<circle fill="none" stroke="#8A2BE2" stroke-width="0.3" cx="983.325" cy="644.989" r="2.948"/>
<path fill="none" stroke="#000000" stroke-width="0.3" d="M839.776,656.328v-18.141c0.516-1.383,2.68-2.465,5.443-2.724
	l86.172-4.194v-3.627c0.516-1.384,2.678-2.466,5.441-2.724h18.143c2.764,0.258,4.928,1.34,5.443,2.724v28.346L839.776,656.328"/>
<circle fill="none" stroke="#8A2BE2" stroke-width="0.3" cx="847.261" cy="644.989" r="2.948"/>
<path fill="none" stroke="#000000" stroke-width="0.3" d="M1265.842,521.636v-18.142c0.514-1.383,2.678-2.465,5.443-2.723
	l86.172-4.195v-3.627c0.516-1.383,2.678-2.465,5.441-2.723h18.143c2.764,0.258,4.928,1.34,5.443,2.723v28.346L1265.842,521.636"/>
<circle fill="none" stroke="#8A2BE2" stroke-width="0.3" cx="1273.326" cy="510.297" r="2.948"/>
<path fill="none" stroke="#000000" stroke-width="0.3" d="M1129.777,521.636v-18.142c0.516-1.383,2.68-2.465,5.443-2.723
	l86.172-4.195v-3.627c0.516-1.383,2.678-2.465,5.441-2.723h18.143c2.764,0.258,4.928,1.34,5.443,2.723v28.346L1129.777,521.636"/>
<circle fill="none" stroke="#8A2BE2" stroke-width="0.3" cx="1137.262" cy="510.297" r="2.948"/>
<path fill="none" stroke="#000000" stroke-width="0.3" d="M1265.842,561.265v-18.142c0.514-1.383,2.678-2.465,5.443-2.723
	l86.172-4.195v-3.627c0.516-1.383,2.678-2.465,5.441-2.723h18.143c2.764,0.258,4.928,1.34,5.443,2.723v28.347L1265.842,561.265"/>
<circle fill="none" stroke="#8A2BE2" stroke-width="0.3" cx="1273.326" cy="549.926" r="2.948"/>
<path fill="none" stroke="#000000" stroke-width="0.3" d="M1129.777,561.265v-18.142c0.516-1.383,2.68-2.465,5.443-2.723
	l86.172-4.195v-3.627c0.516-1.383,2.678-2.465,5.441-2.723h18.143c2.764,0.258,4.928,1.34,5.443,2.723v28.347L1129.777,561.265"/>
<circle fill="none" stroke="#8A2BE2" stroke-width="0.3" cx="1137.262" cy="549.926" r="2.948"/>
<path fill="none" stroke="#000000" stroke-width="0.3" d="M1265.842,609.063v-18.142c0.514-1.383,2.678-2.465,5.443-2.723
	l86.172-4.195v-3.627c0.516-1.383,2.678-2.465,5.441-2.723h18.143c2.764,0.258,4.928,1.34,5.443,2.723v28.347L1265.842,609.063"/>
<circle fill="none" stroke="#8A2BE2" stroke-width="0.3" cx="1273.326" cy="597.724" r="2.948"/>
<path fill="none" stroke="#000000" stroke-width="0.3" d="M1129.777,609.063v-18.142c0.516-1.383,2.68-2.465,5.443-2.723
	l86.172-4.195v-3.627c0.516-1.383,2.678-2.465,5.441-2.723h18.143c2.764,0.258,4.928,1.34,5.443,2.723v28.347L1129.777,609.063"/>
<circle fill="none" stroke="#8A2BE2" stroke-width="0.3" cx="1137.262" cy="597.724" r="2.948"/>
<path fill="none" stroke="#000000" stroke-width="0.3" d="M1265.842,656.328v-18.141c0.514-1.383,2.678-2.465,5.443-2.724
	l86.172-4.194v-3.627c0.516-1.384,2.678-2.466,5.441-2.724h18.143c2.764,0.258,4.928,1.34,5.443,2.724v28.346L1265.842,656.328"/>
<circle fill="none" stroke="#8A2BE2" stroke-width="0.3" cx="1273.326" cy="644.989" r="2.948"/>
<path fill="none" stroke="#000000" stroke-width="0.3" d="M1129.777,656.328v-18.141c0.516-1.383,2.68-2.465,5.443-2.724
	l86.172-4.194v-3.627c0.516-1.384,2.678-2.466,5.441-2.724h18.143c2.764,0.258,4.928,1.34,5.443,2.724v28.346L1129.777,656.328"/>
<circle fill="none" stroke="#8A2BE2" stroke-width="0.3" cx="1137.262" cy="644.989" r="2.948"/>
</svg>
