  0
SECTION
  2
HEADER
  9
$ACADVER
  1
AC1018
  9
$ACADMAINTVER
 70
     0
  9
$DWGCODEPAGE
  3
ANSI_1252
  9
$INSBASE
 10
0.0
 20
0.0
 30
0.0
  9
$EXTMIN
 10
1.000000000000000E+20
 20
1.000000000000000E+20
 30
1.000000000000000E+20
  9
$EXTMAX
 10
-1.000000000000000E+20
 20
-1.000000000000000E+20
 30
-1.000000000000000E+20
  9
$LIMMIN
 10
0.0
 20
0.0
  9
$LIMMAX
 10
12.0
 20
9.0
  9
$ORTHOMODE
 70
     0
  9
$REGENMODE
 70
     1
  9
$FILLMODE
 70
     1
  9
$QTEXTMODE
 70
     0
  9
$MIRRTEXT
 70
     1
  9
$LTSCALE
 40
1.0
  9
$ATTMODE
 70
     1
  9
$TEXTSIZE
 40
0.2
  9
$TRACEWID
 40
0.05
  9
$TEXTSTYLE
  7
Standard
  9
$CLAYER
  8
0
  9
$CELTYPE
  6
ByLayer
  9
$CECOLOR
 62
   256
  9
$CELTSCALE
 40
1.0
  9
$DISPSILH
 70
     0
  9
$DIMSCALE
 40
1.0
  9
$DIMASZ
 40
0.18
  9
$DIMEXO
 40
0.0625
  9
$DIMDLI
 40
0.38
  9
$DIMRND
 40
0.0
  9
$DIMDLE
 40
0.0
  9
$DIMEXE
 40
0.18
  9
$DIMTP
 40
0.0
  9
$DIMTM
 40
0.0
  9
$DIMTXT
 40
0.18
  9
$DIMCEN
 40
0.09
  9
$DIMTSZ
 40
0.0
  9
$DIMTOL
 70
     0
  9
$DIMLIM
 70
     0
  9
$DIMTIH
 70
     1
  9
$DIMTOH
 70
     1
  9
$DIMSE1
 70
     0
  9
$DIMSE2
 70
     0
  9
$DIMTAD
 70
     0
  9
$DIMZIN
 70
     0
  9
$DIMBLK
  1

  9
$DIMASO
 70
     1
  9
$DIMSHO
 70
     1
  9
$DIMPOST
  1

  9
$DIMAPOST
  1

  9
$DIMALT
 70
     0
  9
$DIMALTD
 70
     2
  9
$DIMALTF
 40
25.4
  9
$DIMLFAC
 40
1.0
  9
$DIMTOFL
 70
     0
  9
$DIMTVP
 40
0.0
  9
$DIMTIX
 70
     0
  9
$DIMSOXD
 70
     0
  9
$DIMSAH
 70
     0
  9
$DIMBLK1
  1

  9
$DIMBLK2
  1

  9
$DIMSTYLE
  2
Standard
  9
$DIMCLRD
 70
     0
  9
$DIMCLRE
 70
     0
  9
$DIMCLRT
 70
     0
  9
$DIMTFAC
 40
1.0
  9
$DIMGAP
 40
0.09
  9
$DIMJUST
 70
     0
  9
$DIMSD1
 70
     0
  9
$DIMSD2
 70
     0
  9
$DIMTOLJ
 70
     1
  9
$DIMTZIN
 70
     0
  9
$DIMALTZ
 70
     0
  9
$DIMALTTZ
 70
     0
  9
$DIMUPT
 70
     0
  9
$DIMDEC
 70
     4
  9
$DIMTDEC
 70
     4
  9
$DIMALTU
 70
     2
  9
$DIMALTTD
 70
     2
  9
$DIMTXSTY
  7
Standard
  9
$DIMAUNIT
 70
     0
  9
$DIMADEC
 70
     0
  9
$DIMALTRND
 40
0.0
  9
$DIMAZIN
 70
     0
  9
$DIMDSEP
 70
    46
  9
$DIMATFIT
 70
     3
  9
$DIMFRAC
 70
     0
  9
$DIMLDRBLK
  1

  9
$DIMLUNIT
 70
     2
  9
$DIMLWD
 70
    -2
  9
$DIMLWE
 70
    -2
  9
$DIMTMOVE
 70
     0
  9
$LUNITS
 70
     2
  9
$LUPREC
 70
     4
  9
$SKETCHINC
 40
0.1
  9
$FILLETRAD
 40
0.5
  9
$AUNITS
 70
     0
  9
$AUPREC
 70
     0
  9
$MENU
  1
.
  9
$ELEVATION
 40
0.0
  9
$PELEVATION
 40
0.0
  9
$THICKNESS
 40
0.0
  9
$LIMCHECK
 70
     0
  9
$CHAMFERA
 40
0.5
  9
$CHAMFERB
 40
0.5
  9
$CHAMFERC
 40
1.0
  9
$CHAMFERD
 40
0.0
  9
$SKPOLY
 70
     0
  9
$TDCREATE
 40
2458543.695004143
  9
$TDUCREATE
 40
2458543.653337477
  9
$TDUPDATE
 40
2458543.695004155
  9
$TDUUPDATE
 40
2458543.653337488
  9
$TDINDWG
 40
0.0000000116
  9
$TDUSRTIMER
 40
0.0000000116
  9
$USRTIMER
 70
     1
  9
$ANGBASE
 50
0.0
  9
$ANGDIR
 70
     0
  9
$PDMODE
 70
     0
  9
$PDSIZE
 40
0.0
  9
$PLINEWID
 40
0.0
  9
$SPLFRAME
 70
     0
  9
$SPLINETYPE
 70
     6
  9
$SPLINESEGS
 70
     8
  9
$HANDSEED
  5
6D
  9
$SURFTAB1
 70
     6
  9
$SURFTAB2
 70
     6
  9
$SURFTYPE
 70
     6
  9
$SURFU
 70
     6
  9
$SURFV
 70
     6
  9
$UCSBASE
  2

  9
$UCSNAME
  2

  9
$UCSORG
 10
0.0
 20
0.0
 30
0.0
  9
$UCSXDIR
 10
1.0
 20
0.0
 30
0.0
  9
$UCSYDIR
 10
0.0
 20
1.0
 30
0.0
  9
$UCSORTHOREF
  2

  9
$UCSORTHOVIEW
 70
     0
  9
$UCSORGTOP
 10
0.0
 20
0.0
 30
0.0
  9
$UCSORGBOTTOM
 10
0.0
 20
0.0
 30
0.0
  9
$UCSORGLEFT
 10
0.0
 20
0.0
 30
0.0
  9
$UCSORGRIGHT
 10
0.0
 20
0.0
 30
0.0
  9
$UCSORGFRONT
 10
0.0
 20
0.0
 30
0.0
  9
$UCSORGBACK
 10
0.0
 20
0.0
 30
0.0
  9
$PUCSBASE
  2

  9
$PUCSNAME
  2

  9
$PUCSORG
 10
0.0
 20
0.0
 30
0.0
  9
$PUCSXDIR
 10
1.0
 20
0.0
 30
0.0
  9
$PUCSYDIR
 10
0.0
 20
1.0
 30
0.0
  9
$PUCSORTHOREF
  2

  9
$PUCSORTHOVIEW
 70
     0
  9
$PUCSORGTOP
 10
0.0
 20
0.0
 30
0.0
  9
$PUCSORGBOTTOM
 10
0.0
 20
0.0
 30
0.0
  9
$PUCSORGLEFT
 10
0.0
 20
0.0
 30
0.0
  9
$PUCSORGRIGHT
 10
0.0
 20
0.0
 30
0.0
  9
$PUCSORGFRONT
 10
0.0
 20
0.0
 30
0.0
  9
$PUCSORGBACK
 10
0.0
 20
0.0
 30
0.0
  9
$USERI1
 70
     0
  9
$USERI2
 70
     0
  9
$USERI3
 70
     0
  9
$USERI4
 70
     0
  9
$USERI5
 70
     0
  9
$USERR1
 40
0.0
  9
$USERR2
 40
0.0
  9
$USERR3
 40
0.0
  9
$USERR4
 40
0.0
  9
$USERR5
 40
0.0
  9
$WORLDVIEW
 70
     1
  9
$SHADEDGE
 70
     3
  9
$SHADEDIF
 70
    70
  9
$TILEMODE
 70
     1
  9
$MAXACTVP
 70
    64
  9
$PINSBASE
 10
0.0
 20
0.0
 30
0.0
  9
$PLIMCHECK
 70
     0
  9
$PEXTMIN
 10
1.000000000000000E+20
 20
1.000000000000000E+20
 30
1.000000000000000E+20
  9
$PEXTMAX
 10
-1.000000000000000E+20
 20
-1.000000000000000E+20
 30
-1.000000000000000E+20
  9
$PLIMMIN
 10
0.0
 20
0.0
  9
$PLIMMAX
 10
12.0
 20
9.0
  9
$UNITMODE
 70
     0
  9
$VISRETAIN
 70
     1
  9
$PLINEGEN
 70
     0
  9
$PSLTSCALE
 70
     1
  9
$TREEDEPTH
 70
  3020
  9
$CMLSTYLE
  2
Standard
  9
$CMLJUST
 70
     0
  9
$CMLSCALE
 40
1.0
  9
$PROXYGRAPHICS
 70
     1
  9
$MEASUREMENT
 70
     0
  9
$CELWEIGHT
370
    -1
  9
$ENDCAPS
280
     0
  9
$JOINSTYLE
280
     0
  9
$LWDISPLAY
290
     1
  9
$INSUNITS
 70
     1
  9
$HYPERLINKBASE
  1

  9
$STYLESHEET
  1

  9
$XEDIT
290
     1
  9
$CEPSNTYPE
380
     0
  9
$PSTYLEMODE
290
     1
  9
$FINGERPRINTGUID
  2
{62C5DBD0-6E09-406B-8DAC-D2B40B54CCCF}
  9
$VERSIONGUID
  2
{FAEB1C32-E019-11D5-929B-00C0DF256EC4}
  9
$EXTNAMES
290
     1
  9
$PSVPSCALE
 40
0.0
  9
$OLESTARTUP
290
     0
  9
$SORTENTS
280
   127
  9
$INDEXCTL
280
     0
  9
$HIDETEXT
280
     1
  9
$XCLIPFRAME
290
     0
  9
$HALOGAP
280
     0
  9
$OBSCOLOR
 70
   257
  9
$OBSLTYPE
280
     0
  9
$INTERSECTIONDISPLAY
280
     0
  9
$INTERSECTIONCOLOR
 70
   257
  9
$DIMASSOC
280
     2
  9
$PROJECTNAME
  1

  0
ENDSEC
  0
SECTION
  2
CLASSES
  0
CLASS
  1
ACDBDICTIONARYWDFLT
  2
AcDbDictionaryWithDefault
  3
ObjectDBX Classes
 90
        0
 91
        3
280
     0
281
     0
  0
CLASS
  1
VISUALSTYLE
  2
AcDbVisualStyle
  3
ObjectDBX Classes
 90
     4095
 91
        3
280
     0
281
     0
  0
ENDSEC
  0
SECTION
  2
TABLES
  0
TABLE
  2
VPORT
  5
8
330
0
100
AcDbSymbolTable
 70
     1
  0
VPORT
  5
29
330
8
100
AcDbSymbolTableRecord
100
AcDbViewportTableRecord
  2
*Active
 70
     0
 10
0.0
 20
0.0
 11
1.0
 21
1.0
 12
0.0
 22
0.0
 13
0.0
 23
0.0
 14
0.5
 24
0.5
 15
0.5
 25
0.5
 16
0.0
 26
0.0
 36
1.0
 17
5000.624998749844
 27
5000.624998749844
 37
0.0
 40
6716.888887209667
 41
1.380252100840336
 42
50.0
 43
0.0
 44
0.0
 50
0.0
 51
0.0
 71
     0
 72
   100
 73
     1
 74
     3
 75
     0
 76
     0
 77
     0
 78
     0
281
     0
 65
     1
110
0.0
120
0.0
130
0.0
111
1.0
121
0.0
131
0.0
112
0.0
122
1.0
132
0.0
 79
     0
146
0.0
  0
ENDTAB
  0
TABLE
  2
LTYPE
  5
5
330
0
100
AcDbSymbolTable
 70
     1
  0
LTYPE
  5
14
330
5
100
AcDbSymbolTableRecord
100
AcDbLinetypeTableRecord
  2
ByBlock
 70
     0
  3

 72
    65
 73
     0
 40
0.0
  0
LTYPE
  5
15
330
5
100
AcDbSymbolTableRecord
100
AcDbLinetypeTableRecord
  2
ByLayer
 70
     0
  3

 72
    65
 73
     0
 40
0.0
  0
LTYPE
  5
16
330
5
100
AcDbSymbolTableRecord
100
AcDbLinetypeTableRecord
  2
Continuous
 70
     0
  3
Solid line
 72
    65
 73
     0
 40
0.0
  0
ENDTAB
  0
TABLE
  2
LAYER
  5
2
330
0
100
AcDbSymbolTable
 70
     2
  0
LAYER
  5
10
330
2
100
AcDbSymbolTableRecord
100
AcDbLayerTableRecord
  2
0
 70
     0
 62
     7
  6
Continuous
370
    -3
390
F
  0
LAYER
  5
3B
330
2
100
AcDbSymbolTableRecord
100
AcDbLayerTableRecord
  2
Layer 1
 70
     0
 62
     7
  6
Continuous
370
    -3
390
F
  0
ENDTAB
  0
TABLE
  2
STYLE
  5
3
330
0
100
AcDbSymbolTable
 70
     1
  0
STYLE
  5
11
330
3
100
AcDbSymbolTableRecord
100
AcDbTextStyleTableRecord
  2
Standard
 70
     0
 40
0.0
 41
1.0
 50
0.0
 71
     0
 42
0.2
  3
txt
  4

  0
ENDTAB
  0
TABLE
  2
VIEW
  5
6
330
0
100
AcDbSymbolTable
 70
     0
  0
ENDTAB
  0
TABLE
  2
UCS
  5
7
330
0
100
AcDbSymbolTable
 70
     0
  0
ENDTAB
  0
TABLE
  2
APPID
  5
9
330
0
100
AcDbSymbolTable
 70
     1
  0
APPID
  5
12
330
9
100
AcDbSymbolTableRecord
100
AcDbRegAppTableRecord
  2
ACAD
 70
     0
  0
ENDTAB
  0
TABLE
  2
DIMSTYLE
  5
A
330
0
100
AcDbSymbolTable
 70
     1
100
AcDbDimStyleTable
  0
DIMSTYLE
105
27
330
A
100
AcDbSymbolTableRecord
100
AcDbDimStyleTableRecord
  2
Standard
 70
     0
340
11
  0
ENDTAB
  0
TABLE
  2
BLOCK_RECORD
  5
1
330
0
100
AcDbSymbolTable
 70
     1
  0
BLOCK_RECORD
  5
1F
330
1
100
AcDbSymbolTableRecord
100
AcDbBlockTableRecord
  2
*Model_Space
340
22
  0
BLOCK_RECORD
  5
1B
330
1
100
AcDbSymbolTableRecord
100
AcDbBlockTableRecord
  2
*Paper_Space
340
1E
  0
BLOCK_RECORD
  5
23
330
1
100
AcDbSymbolTableRecord
100
AcDbBlockTableRecord
  2
*Paper_Space0
340
26
  0
ENDTAB
  0
ENDSEC
  0
SECTION
  2
BLOCKS
  0
BLOCK
  5
20
330
1F
100
AcDbEntity
  8
0
100
AcDbBlockBegin
  2
*Model_Space
 70
     0
 71
     0
 10
0.0
 20
0.0
 30
0.0
  3
*Model_Space
  1

  0
ENDBLK
  5
21
330
1F
100
AcDbEntity
  8
0
100
AcDbBlockEnd
  0
BLOCK
  5
1C
330
1B
100
AcDbEntity
 67
     1
  8
0
100
AcDbBlockBegin
  2
*Paper_Space
 70
     0
 71
     0
 10
0.0
 20
0.0
 30
0.0
  3
*Paper_Space
  1

  0
ENDBLK
  5
1D
330
1B
100
AcDbEntity
 67
     1
  8
0
100
AcDbBlockEnd
  0
BLOCK
  5
24
330
23
100
AcDbEntity
  8
0
100
AcDbBlockBegin
  2
*Paper_Space0
 70
     0
 71
     0
 10
0.0
 20
0.0
 30
0.0
  3
*Paper_Space0
  1

  0
ENDBLK
  5
25
330
23
100
AcDbEntity
  8
0
100
AcDbBlockEnd
  0
ENDSEC
  0
SECTION
  2
ENTITIES
  0
SPLINE
  5
3C
330
1F
100
AcDbEntity
  8
Layer 1
 62
     7
420
 16777215
370
    40
100
AcDbSpline
210
0.0
220
0.0
230
1.0
 70
    11
 71
     3
 72
    32
 73
    28
 74
     0
 42
0.0000000001
 43
0.0000000001
 40
0.0
 40
0.0
 40
0.0
 40
0.0
 40
1.0
 40
1.0
 40
1.0
 40
2.0
 40
2.0
 40
2.0
 40
3.0
 40
3.0
 40
3.0
 40
4.0
 40
4.0
 40
4.0
 40
5.0
 40
5.0
 40
5.0
 40
6.0
 40
6.0
 40
6.0
 40
7.0
 40
7.0
 40
7.0
 40
8.0
 40
8.0
 40
8.0
 40
9.0
 40
9.0
 40
9.0
 40
9.0
 10
5910.174993097109
 20
6518.852740883308
 30
0.0
 10
5910.174993097109
 20
6518.852740883308
 30
0.0
 10
5910.174993097109
 20
6582.852279712794
 30
0.0
 10
5910.174993097109
 20
6582.852279712794
 30
0.0
 10
5911.987113322351
 20
6587.730534919908
 30
0.0
 10
5919.621444917664
 20
6591.547700717564
 30
0.0
 10
5929.377955331892
 20
6592.457205925671
 30
0.0
 10
5929.377955331892
 20
6592.457205925671
 30
0.0
 10
6233.373180950337
 20
6607.257336130304
 30
0.0
 10
6233.373180950337
 20
6607.257336130304
 30
0.0
 10
6233.373180950337
 20
6607.257336130304
 30
0.0
 10
6233.373180950337
 20
6620.052420762522
 30
0.0
 10
6233.373180950337
 20
6620.052420762522
 30
0.0
 10
6235.192191366549
 20
6624.930675969636
 30
0.0
 10
6242.819632770892
 20
6628.747841767292
 30
0.0
 10
6252.56925299415
 20
6629.657346975398
 30
0.0
 10
6252.56925299415
 20
6629.657346975398
 30
0.0
 10
6316.572236919121
 20
6629.657346975398
 30
0.0
 10
6316.572236919121
 20
6629.657346975398
 30
0.0
 10
6326.321857142378
 20
6628.747841767292
 30
0.0
 10
6333.956188737691
 20
6624.930675969636
 30
0.0
 10
6335.775199153903
 20
6620.052420762522
 30
0.0
 10
6335.775199153903
 20
6620.052420762522
 30
0.0
 10
6335.775199153903
 20
6520.05507920766
 30
0.0
 10
6335.775199153903
 20
6520.05507920766
 30
0.0
 10
6335.775199153903
 20
6520.05507920766
 30
0.0
 10
5910.174993097109
 20
6518.852740883308
 30
0.0
 10
5910.174993097109
 20
6518.852740883308
 30
0.0
  0
SPLINE
  5
3D
330
1F
100
AcDbEntity
  8
Layer 1
 62
   202
420
  9055202
370
    40
100
AcDbSpline
210
0.0
220
0.0
230
1.0
 70
    11
 71
     3
 72
    17
 73
    13
 74
     0
 42
0.0000000001
 43
0.0000000001
 40
0.0
 40
0.0
 40
0.0
 40
0.0
 40
1.0
 40
1.0
 40
1.0
 40
2.0
 40
2.0
 40
2.0
 40
3.0
 40
3.0
 40
3.0
 40
4.0
 40
4.0
 40
4.0
 40
4.0
 10
5936.578204896064
 20
6569.254487832512
 30
0.0
 10
5942.31773397449
 20
6569.254487832512
 30
0.0
 10
5946.975503070548
 20
6564.60016383194
 30
0.0
 10
5946.975503070548
 20
6558.857189658029
 30
0.0
 10
5946.975503070548
 20
6553.110770388632
 30
0.0
 10
5942.31773397449
 20
6548.45644638806
 30
0.0
 10
5936.578204896064
 20
6548.45644638806
 30
0.0
 10
5930.831785626667
 20
6548.45644638806
 30
0.0
 10
5926.174016530609
 20
6553.110770388632
 30
0.0
 10
5926.174016530609
 20
6558.857189658029
 30
0.0
 10
5926.174016530609
 20
6564.60016383194
 30
0.0
 10
5930.831785626667
 20
6569.254487832512
 30
0.0
 10
5936.578204896064
 20
6569.254487832512
 30
0.0
  0
SPLINE
  5
3E
330
1F
100
AcDbEntity
  8
Layer 1
 62
     7
420
 16777215
370
    40
100
AcDbSpline
210
0.0
220
0.0
230
1.0
 70
    11
 71
     3
 72
    32
 73
    28
 74
     0
 42
0.0000000001
 43
0.0000000001
 40
0.0
 40
0.0
 40
0.0
 40
0.0
 40
1.0
 40
1.0
 40
1.0
 40
2.0
 40
2.0
 40
2.0
 40
3.0
 40
3.0
 40
3.0
 40
4.0
 40
4.0
 40
4.0
 40
5.0
 40
5.0
 40
5.0
 40
6.0
 40
6.0
 40
6.0
 40
7.0
 40
7.0
 40
7.0
 40
8.0
 40
8.0
 40
8.0
 40
9.0
 40
9.0
 40
9.0
 40
9.0
 10
5430.169839137249
 20
6518.852740883308
 30
0.0
 10
5430.169839137249
 20
6518.852740883308
 30
0.0
 10
5430.169839137249
 20
6582.852279712794
 30
0.0
 10
5430.169839137249
 20
6582.852279712794
 30
0.0
 10
5431.988849553461
 20
6587.730534919908
 30
0.0
 10
5439.623181148775
 20
6591.547700717564
 30
0.0
 10
5449.372801372032
 20
6592.457205925671
 30
0.0
 10
5449.372801372032
 20
6592.457205925671
 30
0.0
 10
5753.368026990477
 20
6607.257336130304
 30
0.0
 10
5753.368026990477
 20
6607.257336130304
 30
0.0
 10
5753.368026990477
 20
6607.257336130304
 30
0.0
 10
5753.368026990477
 20
6620.052420762522
 30
0.0
 10
5753.368026990477
 20
6620.052420762522
 30
0.0
 10
5755.187037406689
 20
6624.930675969636
 30
0.0
 10
5762.814478811032
 20
6628.747841767292
 30
0.0
 10
5772.56409903429
 20
6629.657346975398
 30
0.0
 10
5772.56409903429
 20
6629.657346975398
 30
0.0
 10
5836.567082959261
 20
6629.657346975398
 30
0.0
 10
5836.567082959261
 20
6629.657346975398
 30
0.0
 10
5846.316703182518
 20
6628.747841767292
 30
0.0
 10
5853.951034777831
 20
6624.930675969636
 30
0.0
 10
5855.770045194044
 20
6620.052420762522
 30
0.0
 10
5855.770045194044
 20
6620.052420762522
 30
0.0
 10
5855.770045194044
 20
6520.05507920766
 30
0.0
 10
5855.770045194044
 20
6520.05507920766
 30
0.0
 10
5855.770045194044
 20
6520.05507920766
 30
0.0
 10
5430.169839137249
 20
6518.852740883308
 30
0.0
 10
5430.169839137249
 20
6518.852740883308
 30
0.0
  0
SPLINE
  5
3F
330
1F
100
AcDbEntity
  8
Layer 1
 62
   202
420
  9055202
370
    40
100
AcDbSpline
210
0.0
220
0.0
230
1.0
 70
    11
 71
     3
 72
    17
 73
    13
 74
     0
 42
0.0000000001
 43
0.0000000001
 40
0.0
 40
0.0
 40
0.0
 40
0.0
 40
1.0
 40
1.0
 40
1.0
 40
2.0
 40
2.0
 40
2.0
 40
3.0
 40
3.0
 40
3.0
 40
4.0
 40
4.0
 40
4.0
 40
4.0
 10
5456.573050936204
 20
6569.254487832512
 30
0.0
 10
5462.319470205601
 20
6569.254487832512
 30
0.0
 10
5466.977239301658
 20
6564.60016383194
 30
0.0
 10
5466.977239301658
 20
6558.857189658029
 30
0.0
 10
5466.977239301658
 20
6553.110770388632
 30
0.0
 10
5462.319470205601
 20
6548.45644638806
 30
0.0
 10
5456.573050936204
 20
6548.45644638806
 30
0.0
 10
5450.833521857778
 20
6548.45644638806
 30
0.0
 10
5446.17575276172
 20
6553.110770388632
 30
0.0
 10
5446.17575276172
 20
6558.857189658029
 30
0.0
 10
5446.17575276172
 20
6564.60016383194
 30
0.0
 10
5450.833521857778
 20
6569.254487832512
 30
0.0
 10
5456.573050936204
 20
6569.254487832512
 30
0.0
  0
SPLINE
  5
40
330
1F
100
AcDbEntity
  8
Layer 1
 62
     7
420
 16777215
370
    40
100
AcDbSpline
210
0.0
220
0.0
230
1.0
 70
    11
 71
     3
 72
    32
 73
    28
 74
     0
 42
0.0000000001
 43
0.0000000001
 40
0.0
 40
0.0
 40
0.0
 40
0.0
 40
1.0
 40
1.0
 40
1.0
 40
2.0
 40
2.0
 40
2.0
 40
3.0
 40
3.0
 40
3.0
 40
4.0
 40
4.0
 40
4.0
 40
5.0
 40
5.0
 40
5.0
 40
6.0
 40
6.0
 40
6.0
 40
7.0
 40
7.0
 40
7.0
 40
8.0
 40
8.0
 40
8.0
 40
9.0
 40
9.0
 40
9.0
 40
9.0
 10
5910.174993097109
 20
6379.050766091869
 30
0.0
 10
5910.174993097109
 20
6379.050766091869
 30
0.0
 10
5910.174993097109
 20
6443.050304921356
 30
0.0
 10
5910.174993097109
 20
6443.050304921356
 30
0.0
 10
5911.987113322351
 20
6447.928560128469
 30
0.0
 10
5919.621444917664
 20
6451.745725926126
 30
0.0
 10
5929.377955331892
 20
6452.655231134232
 30
0.0
 10
5929.377955331892
 20
6452.655231134232
 30
0.0
 10
6233.373180950337
 20
6467.455361338865
 30
0.0
 10
6233.373180950337
 20
6467.455361338865
 30
0.0
 10
6233.373180950337
 20
6467.455361338865
 30
0.0
 10
6233.373180950337
 20
6480.250445971084
 30
0.0
 10
6233.373180950337
 20
6480.250445971084
 30
0.0
 10
6235.192191366549
 20
6485.128701178197
 30
0.0
 10
6242.819632770892
 20
6488.945866975854
 30
0.0
 10
6252.56925299415
 20
6489.85537218396
 30
0.0
 10
6252.56925299415
 20
6489.85537218396
 30
0.0
 10
6316.572236919121
 20
6489.85537218396
 30
0.0
 10
6316.572236919121
 20
6489.85537218396
 30
0.0
 10
6326.321857142378
 20
6488.945866975854
 30
0.0
 10
6333.956188737691
 20
6485.128701178197
 30
0.0
 10
6335.775199153903
 20
6480.250445971084
 30
0.0
 10
6335.775199153903
 20
6480.250445971084
 30
0.0
 10
6335.775199153903
 20
6380.249659320736
 30
0.0
 10
6335.775199153903
 20
6380.249659320736
 30
0.0
 10
6335.775199153903
 20
6380.249659320736
 30
0.0
 10
5910.174993097109
 20
6379.050766091869
 30
0.0
 10
5910.174993097109
 20
6379.050766091869
 30
0.0
  0
SPLINE
  5
41
330
1F
100
AcDbEntity
  8
Layer 1
 62
   202
420
  9055202
370
    40
100
AcDbSpline
210
0.0
220
0.0
230
1.0
 70
    11
 71
     3
 72
    17
 73
    13
 74
     0
 42
0.0000000001
 43
0.0000000001
 40
0.0
 40
0.0
 40
0.0
 40
0.0
 40
1.0
 40
1.0
 40
1.0
 40
2.0
 40
2.0
 40
2.0
 40
3.0
 40
3.0
 40
3.0
 40
4.0
 40
4.0
 40
4.0
 40
4.0
 10
5936.578204896064
 20
6429.452513041075
 30
0.0
 10
5942.31773397449
 20
6429.452513041075
 30
0.0
 10
5946.975503070548
 20
6424.798189040502
 30
0.0
 10
5946.975503070548
 20
6419.051769771105
 30
0.0
 10
5946.975503070548
 20
6413.308795597194
 30
0.0
 10
5942.31773397449
 20
6408.654471596621
 30
0.0
 10
5936.578204896064
 20
6408.654471596621
 30
0.0
 10
5930.831785626667
 20
6408.654471596621
 30
0.0
 10
5926.174016530609
 20
6413.308795597194
 30
0.0
 10
5926.174016530609
 20
6419.051769771105
 30
0.0
 10
5926.174016530609
 20
6424.798189040502
 30
0.0
 10
5930.831785626667
 20
6429.452513041075
 30
0.0
 10
5936.578204896064
 20
6429.452513041075
 30
0.0
  0
SPLINE
  5
42
330
1F
100
AcDbEntity
  8
Layer 1
 62
     7
420
 16777215
370
    40
100
AcDbSpline
210
0.0
220
0.0
230
1.0
 70
    11
 71
     3
 72
    32
 73
    28
 74
     0
 42
0.0000000001
 43
0.0000000001
 40
0.0
 40
0.0
 40
0.0
 40
0.0
 40
1.0
 40
1.0
 40
1.0
 40
2.0
 40
2.0
 40
2.0
 40
3.0
 40
3.0
 40
3.0
 40
4.0
 40
4.0
 40
4.0
 40
5.0
 40
5.0
 40
5.0
 40
6.0
 40
6.0
 40
6.0
 40
7.0
 40
7.0
 40
7.0
 40
8.0
 40
8.0
 40
8.0
 40
9.0
 40
9.0
 40
9.0
 40
9.0
 10
5430.169839137249
 20
6379.050766091869
 30
0.0
 10
5430.169839137249
 20
6379.050766091869
 30
0.0
 10
5430.169839137249
 20
6443.050304921356
 30
0.0
 10
5430.169839137249
 20
6443.050304921356
 30
0.0
 10
5431.988849553461
 20
6447.928560128469
 30
0.0
 10
5439.623181148775
 20
6451.745725926126
 30
0.0
 10
5449.372801372032
 20
6452.655231134232
 30
0.0
 10
5449.372801372032
 20
6452.655231134232
 30
0.0
 10
5753.368026990477
 20
6467.455361338865
 30
0.0
 10
5753.368026990477
 20
6467.455361338865
 30
0.0
 10
5753.368026990477
 20
6467.455361338865
 30
0.0
 10
5753.368026990477
 20
6480.250445971084
 30
0.0
 10
5753.368026990477
 20
6480.250445971084
 30
0.0
 10
5755.187037406689
 20
6485.128701178197
 30
0.0
 10
5762.814478811032
 20
6488.945866975854
 30
0.0
 10
5772.56409903429
 20
6489.85537218396
 30
0.0
 10
5772.56409903429
 20
6489.85537218396
 30
0.0
 10
5836.567082959261
 20
6489.85537218396
 30
0.0
 10
5836.567082959261
 20
6489.85537218396
 30
0.0
 10
5846.316703182518
 20
6488.945866975854
 30
0.0
 10
5853.951034777831
 20
6485.128701178197
 30
0.0
 10
5855.770045194044
 20
6480.250445971084
 30
0.0
 10
5855.770045194044
 20
6480.250445971084
 30
0.0
 10
5855.770045194044
 20
6380.249659320736
 30
0.0
 10
5855.770045194044
 20
6380.249659320736
 30
0.0
 10
5855.770045194044
 20
6380.249659320736
 30
0.0
 10
5430.169839137249
 20
6379.050766091869
 30
0.0
 10
5430.169839137249
 20
6379.050766091869
 30
0.0
  0
SPLINE
  5
43
330
1F
100
AcDbEntity
  8
Layer 1
 62
   202
420
  9055202
370
    40
100
AcDbSpline
210
0.0
220
0.0
230
1.0
 70
    11
 71
     3
 72
    17
 73
    13
 74
     0
 42
0.0000000001
 43
0.0000000001
 40
0.0
 40
0.0
 40
0.0
 40
0.0
 40
1.0
 40
1.0
 40
1.0
 40
2.0
 40
2.0
 40
2.0
 40
3.0
 40
3.0
 40
3.0
 40
4.0
 40
4.0
 40
4.0
 40
4.0
 10
5456.573050936204
 20
6429.452513041075
 30
0.0
 10
5462.319470205601
 20
6429.452513041075
 30
0.0
 10
5466.977239301658
 20
6424.798189040502
 30
0.0
 10
5466.977239301658
 20
6419.051769771105
 30
0.0
 10
5466.977239301658
 20
6413.308795597194
 30
0.0
 10
5462.319470205601
 20
6408.654471596621
 30
0.0
 10
5456.573050936204
 20
6408.654471596621
 30
0.0
 10
5450.833521857778
 20
6408.654471596621
 30
0.0
 10
5446.17575276172
 20
6413.308795597194
 30
0.0
 10
5446.17575276172
 20
6419.051769771105
 30
0.0
 10
5446.17575276172
 20
6424.798189040502
 30
0.0
 10
5450.833521857778
 20
6429.452513041075
 30
0.0
 10
5456.573050936204
 20
6429.452513041075
 30
0.0
  0
SPLINE
  5
44
330
1F
100
AcDbEntity
  8
Layer 1
 62
     7
420
 16777215
370
    40
100
AcDbSpline
210
0.0
220
0.0
230
1.0
 70
    11
 71
     3
 72
    32
 73
    28
 74
     0
 42
0.0000000001
 43
0.0000000001
 40
0.0
 40
0.0
 40
0.0
 40
0.0
 40
1.0
 40
1.0
 40
1.0
 40
2.0
 40
2.0
 40
2.0
 40
3.0
 40
3.0
 40
3.0
 40
4.0
 40
4.0
 40
4.0
 40
5.0
 40
5.0
 40
5.0
 40
6.0
 40
6.0
 40
6.0
 40
7.0
 40
7.0
 40
7.0
 40
8.0
 40
8.0
 40
8.0
 40
9.0
 40
9.0
 40
9.0
 40
9.0
 10
5910.174993097109
 20
6210.430567566316
 30
0.0
 10
5910.174993097109
 20
6210.430567566316
 30
0.0
 10
5910.174993097109
 20
6274.430106395802
 30
0.0
 10
5910.174993097109
 20
6274.430106395802
 30
0.0
 10
5911.987113322351
 20
6279.308361602916
 30
0.0
 10
5919.621444917664
 20
6283.125527400573
 30
0.0
 10
5929.377955331892
 20
6284.035032608679
 30
0.0
 10
5929.377955331892
 20
6284.035032608679
 30
0.0
 10
6233.373180950337
 20
6298.835162813312
 30
0.0
 10
6233.373180950337
 20
6298.835162813312
 30
0.0
 10
6233.373180950337
 20
6298.835162813312
 30
0.0
 10
6233.373180950337
 20
6311.63024744553
 30
0.0
 10
6233.373180950337
 20
6311.63024744553
 30
0.0
 10
6235.192191366549
 20
6316.508502652644
 30
0.0
 10
6242.819632770892
 20
6320.3256684503
 30
0.0
 10
6252.56925299415
 20
6321.235173658407
 30
0.0
 10
6252.56925299415
 20
6321.235173658407
 30
0.0
 10
6316.572236919121
 20
6321.235173658407
 30
0.0
 10
6316.572236919121
 20
6321.235173658407
 30
0.0
 10
6326.321857142378
 20
6320.3256684503
 30
0.0
 10
6333.956188737691
 20
6316.508502652644
 30
0.0
 10
6335.775199153903
 20
6311.63024744553
 30
0.0
 10
6335.775199153903
 20
6311.63024744553
 30
0.0
 10
6335.775199153903
 20
6211.629460795183
 30
0.0
 10
6335.775199153903
 20
6211.629460795183
 30
0.0
 10
6335.775199153903
 20
6211.629460795183
 30
0.0
 10
5910.174993097109
 20
6210.430567566316
 30
0.0
 10
5910.174993097109
 20
6210.430567566316
 30
0.0
  0
SPLINE
  5
45
330
1F
100
AcDbEntity
  8
Layer 1
 62
   202
420
  9055202
370
    40
100
AcDbSpline
210
0.0
220
0.0
230
1.0
 70
    11
 71
     3
 72
    17
 73
    13
 74
     0
 42
0.0000000001
 43
0.0000000001
 40
0.0
 40
0.0
 40
0.0
 40
0.0
 40
1.0
 40
1.0
 40
1.0
 40
2.0
 40
2.0
 40
2.0
 40
3.0
 40
3.0
 40
3.0
 40
4.0
 40
4.0
 40
4.0
 40
4.0
 10
5936.578204896064
 20
6260.832314515521
 30
0.0
 10
5942.31773397449
 20
6260.832314515521
 30
0.0
 10
5946.975503070548
 20
6256.177990514949
 30
0.0
 10
5946.975503070548
 20
6250.431571245552
 30
0.0
 10
5946.975503070548
 20
6244.68859707164
 30
0.0
 10
5942.31773397449
 20
6240.034273071068
 30
0.0
 10
5936.578204896064
 20
6240.034273071068
 30
0.0
 10
5930.831785626667
 20
6240.034273071068
 30
0.0
 10
5926.174016530609
 20
6244.68859707164
 30
0.0
 10
5926.174016530609
 20
6250.431571245552
 30
0.0
 10
5926.174016530609
 20
6256.177990514949
 30
0.0
 10
5930.831785626667
 20
6260.832314515521
 30
0.0
 10
5936.578204896064
 20
6260.832314515521
 30
0.0
  0
SPLINE
  5
46
330
1F
100
AcDbEntity
  8
Layer 1
 62
     7
420
 16777215
370
    40
100
AcDbSpline
210
0.0
220
0.0
230
1.0
 70
    11
 71
     3
 72
    32
 73
    28
 74
     0
 42
0.0000000001
 43
0.0000000001
 40
0.0
 40
0.0
 40
0.0
 40
0.0
 40
1.0
 40
1.0
 40
1.0
 40
2.0
 40
2.0
 40
2.0
 40
3.0
 40
3.0
 40
3.0
 40
4.0
 40
4.0
 40
4.0
 40
5.0
 40
5.0
 40
5.0
 40
6.0
 40
6.0
 40
6.0
 40
7.0
 40
7.0
 40
7.0
 40
8.0
 40
8.0
 40
8.0
 40
9.0
 40
9.0
 40
9.0
 40
9.0
 10
5430.169839137249
 20
6210.430567566316
 30
0.0
 10
5430.169839137249
 20
6210.430567566316
 30
0.0
 10
5430.169839137249
 20
6274.430106395802
 30
0.0
 10
5430.169839137249
 20
6274.430106395802
 30
0.0
 10
5431.988849553461
 20
6279.308361602916
 30
0.0
 10
5439.623181148775
 20
6283.125527400573
 30
0.0
 10
5449.372801372032
 20
6284.035032608679
 30
0.0
 10
5449.372801372032
 20
6284.035032608679
 30
0.0
 10
5753.368026990477
 20
6298.835162813312
 30
0.0
 10
5753.368026990477
 20
6298.835162813312
 30
0.0
 10
5753.368026990477
 20
6298.835162813312
 30
0.0
 10
5753.368026990477
 20
6311.63024744553
 30
0.0
 10
5753.368026990477
 20
6311.63024744553
 30
0.0
 10
5755.187037406689
 20
6316.508502652644
 30
0.0
 10
5762.814478811032
 20
6320.3256684503
 30
0.0
 10
5772.56409903429
 20
6321.235173658407
 30
0.0
 10
5772.56409903429
 20
6321.235173658407
 30
0.0
 10
5836.567082959261
 20
6321.235173658407
 30
0.0
 10
5836.567082959261
 20
6321.235173658407
 30
0.0
 10
5846.316703182518
 20
6320.3256684503
 30
0.0
 10
5853.951034777831
 20
6316.508502652644
 30
0.0
 10
5855.770045194044
 20
6311.63024744553
 30
0.0
 10
5855.770045194044
 20
6311.63024744553
 30
0.0
 10
5855.770045194044
 20
6211.629460795183
 30
0.0
 10
5855.770045194044
 20
6211.629460795183
 30
0.0
 10
5855.770045194044
 20
6211.629460795183
 30
0.0
 10
5430.169839137249
 20
6210.430567566316
 30
0.0
 10
5430.169839137249
 20
6210.430567566316
 30
0.0
  0
SPLINE
  5
47
330
1F
100
AcDbEntity
  8
Layer 1
 62
   202
420
  9055202
370
    40
100
AcDbSpline
210
0.0
220
0.0
230
1.0
 70
    11
 71
     3
 72
    17
 73
    13
 74
     0
 42
0.0000000001
 43
0.0000000001
 40
0.0
 40
0.0
 40
0.0
 40
0.0
 40
1.0
 40
1.0
 40
1.0
 40
2.0
 40
2.0
 40
2.0
 40
3.0
 40
3.0
 40
3.0
 40
4.0
 40
4.0
 40
4.0
 40
4.0
 10
5456.573050936204
 20
6260.832314515521
 30
0.0
 10
5462.319470205601
 20
6260.832314515521
 30
0.0
 10
5466.977239301658
 20
6256.177990514949
 30
0.0
 10
5466.977239301658
 20
6250.431571245552
 30
0.0
 10
5466.977239301658
 20
6244.68859707164
 30
0.0
 10
5462.319470205601
 20
6240.034273071068
 30
0.0
 10
5456.573050936204
 20
6240.034273071068
 30
0.0
 10
5450.833521857778
 20
6240.034273071068
 30
0.0
 10
5446.17575276172
 20
6244.68859707164
 30
0.0
 10
5446.17575276172
 20
6250.431571245552
 30
0.0
 10
5446.17575276172
 20
6256.177990514949
 30
0.0
 10
5450.833521857778
 20
6260.832314515521
 30
0.0
 10
5456.573050936204
 20
6260.832314515521
 30
0.0
  0
SPLINE
  5
48
330
1F
100
AcDbEntity
  8
Layer 1
 62
     7
420
 16777215
370
    40
100
AcDbSpline
210
0.0
220
0.0
230
1.0
 70
    11
 71
     3
 72
    32
 73
    28
 74
     0
 42
0.0000000001
 43
0.0000000001
 40
0.0
 40
0.0
 40
0.0
 40
0.0
 40
1.0
 40
1.0
 40
1.0
 40
2.0
 40
2.0
 40
2.0
 40
3.0
 40
3.0
 40
3.0
 40
4.0
 40
4.0
 40
4.0
 40
5.0
 40
5.0
 40
5.0
 40
6.0
 40
6.0
 40
6.0
 40
7.0
 40
7.0
 40
7.0
 40
8.0
 40
8.0
 40
8.0
 40
9.0
 40
9.0
 40
9.0
 40
9.0
 10
5910.174993097109
 20
6043.691391175709
 30
0.0
 10
5910.174993097109
 20
6043.691391175709
 30
0.0
 10
5910.174993097109
 20
6107.68748490971
 30
0.0
 10
5910.174993097109
 20
6107.68748490971
 30
0.0
 10
5911.987113322351
 20
6112.565740116824
 30
0.0
 10
5919.621444917664
 20
6116.382905914481
 30
0.0
 10
5929.377955331892
 20
6117.295856218072
 30
0.0
 10
5929.377955331892
 20
6117.295856218072
 30
0.0
 10
6233.373180950337
 20
6132.09254132722
 30
0.0
 10
6233.373180950337
 20
6132.09254132722
 30
0.0
 10
6233.373180950337
 20
6132.09254132722
 30
0.0
 10
6233.373180950337
 20
6144.887625959438
 30
0.0
 10
6233.373180950337
 20
6144.887625959438
 30
0.0
 10
6235.192191366549
 20
6149.769326262037
 30
0.0
 10
6242.819632770892
 20
6153.586492059694
 30
0.0
 10
6252.56925299415
 20
6154.4959972678
 30
0.0
 10
6252.56925299415
 20
6154.4959972678
 30
0.0
 10
6316.572236919121
 20
6154.4959972678
 30
0.0
 10
6316.572236919121
 20
6154.4959972678
 30
0.0
 10
6326.321857142378
 20
6153.586492059694
 30
0.0
 10
6333.956188737691
 20
6149.769326262037
 30
0.0
 10
6335.775199153903
 20
6144.887625959438
 30
0.0
 10
6335.775199153903
 20
6144.887625959438
 30
0.0
 10
6335.775199153903
 20
6044.890284404576
 30
0.0
 10
6335.775199153903
 20
6044.890284404576
 30
0.0
 10
6335.775199153903
 20
6044.890284404576
 30
0.0
 10
5910.174993097109
 20
6043.691391175709
 30
0.0
 10
5910.174993097109
 20
6043.691391175709
 30
0.0
  0
SPLINE
  5
49
330
1F
100
AcDbEntity
  8
Layer 1
 62
   202
420
  9055202
370
    40
100
AcDbSpline
210
0.0
220
0.0
230
1.0
 70
    11
 71
     3
 72
    17
 73
    13
 74
     0
 42
0.0000000001
 43
0.0000000001
 40
0.0
 40
0.0
 40
0.0
 40
0.0
 40
1.0
 40
1.0
 40
1.0
 40
2.0
 40
2.0
 40
2.0
 40
3.0
 40
3.0
 40
3.0
 40
4.0
 40
4.0
 40
4.0
 40
4.0
 10
5936.578204896064
 20
6094.093138124915
 30
0.0
 10
5942.31773397449
 20
6094.093138124915
 30
0.0
 10
5946.975503070548
 20
6089.435369028856
 30
0.0
 10
5946.975503070548
 20
6083.692394854945
 30
0.0
 10
5946.975503070548
 20
6077.949420681033
 30
0.0
 10
5942.31773397449
 20
6073.291651584976
 30
0.0
 10
5936.578204896064
 20
6073.291651584976
 30
0.0
 10
5930.831785626667
 20
6073.291651584976
 30
0.0
 10
5926.174016530609
 20
6077.949420681033
 30
0.0
 10
5926.174016530609
 20
6083.692394854945
 30
0.0
 10
5926.174016530609
 20
6089.435369028856
 30
0.0
 10
5930.831785626667
 20
6094.093138124915
 30
0.0
 10
5936.578204896064
 20
6094.093138124915
 30
0.0
  0
SPLINE
  5
4A
330
1F
100
AcDbEntity
  8
Layer 1
 62
     7
420
 16777215
370
    40
100
AcDbSpline
210
0.0
220
0.0
230
1.0
 70
    11
 71
     3
 72
    32
 73
    28
 74
     0
 42
0.0000000001
 43
0.0000000001
 40
0.0
 40
0.0
 40
0.0
 40
0.0
 40
1.0
 40
1.0
 40
1.0
 40
2.0
 40
2.0
 40
2.0
 40
3.0
 40
3.0
 40
3.0
 40
4.0
 40
4.0
 40
4.0
 40
5.0
 40
5.0
 40
5.0
 40
6.0
 40
6.0
 40
6.0
 40
7.0
 40
7.0
 40
7.0
 40
8.0
 40
8.0
 40
8.0
 40
9.0
 40
9.0
 40
9.0
 40
9.0
 10
5430.169839137249
 20
6043.691391175709
 30
0.0
 10
5430.169839137249
 20
6043.691391175709
 30
0.0
 10
5430.169839137249
 20
6107.68748490971
 30
0.0
 10
5430.169839137249
 20
6107.68748490971
 30
0.0
 10
5431.988849553461
 20
6112.565740116824
 30
0.0
 10
5439.623181148775
 20
6116.382905914481
 30
0.0
 10
5449.372801372032
 20
6117.295856218072
 30
0.0
 10
5449.372801372032
 20
6117.295856218072
 30
0.0
 10
5753.368026990477
 20
6132.09254132722
 30
0.0
 10
5753.368026990477
 20
6132.09254132722
 30
0.0
 10
5753.368026990477
 20
6132.09254132722
 30
0.0
 10
5753.368026990477
 20
6144.887625959438
 30
0.0
 10
5753.368026990477
 20
6144.887625959438
 30
0.0
 10
5755.187037406689
 20
6149.769326262037
 30
0.0
 10
5762.814478811032
 20
6153.586492059694
 30
0.0
 10
5772.56409903429
 20
6154.4959972678
 30
0.0
 10
5772.56409903429
 20
6154.4959972678
 30
0.0
 10
5836.567082959261
 20
6154.4959972678
 30
0.0
 10
5836.567082959261
 20
6154.4959972678
 30
0.0
 10
5846.316703182518
 20
6153.586492059694
 30
0.0
 10
5853.951034777831
 20
6149.769326262037
 30
0.0
 10
5855.770045194044
 20
6144.887625959438
 30
0.0
 10
5855.770045194044
 20
6144.887625959438
 30
0.0
 10
5855.770045194044
 20
6044.890284404576
 30
0.0
 10
5855.770045194044
 20
6044.890284404576
 30
0.0
 10
5855.770045194044
 20
6044.890284404576
 30
0.0
 10
5430.169839137249
 20
6043.691391175709
 30
0.0
 10
5430.169839137249
 20
6043.691391175709
 30
0.0
  0
SPLINE
  5
4B
330
1F
100
AcDbEntity
  8
Layer 1
 62
   202
420
  9055202
370
    40
100
AcDbSpline
210
0.0
220
0.0
230
1.0
 70
    11
 71
     3
 72
    17
 73
    13
 74
     0
 42
0.0000000001
 43
0.0000000001
 40
0.0
 40
0.0
 40
0.0
 40
0.0
 40
1.0
 40
1.0
 40
1.0
 40
2.0
 40
2.0
 40
2.0
 40
3.0
 40
3.0
 40
3.0
 40
4.0
 40
4.0
 40
4.0
 40
4.0
 10
5456.573050936204
 20
6094.093138124915
 30
0.0
 10
5462.319470205601
 20
6094.093138124915
 30
0.0
 10
5466.977239301658
 20
6089.435369028856
 30
0.0
 10
5466.977239301658
 20
6083.692394854945
 30
0.0
 10
5466.977239301658
 20
6077.949420681033
 30
0.0
 10
5462.319470205601
 20
6073.291651584976
 30
0.0
 10
5456.573050936204
 20
6073.291651584976
 30
0.0
 10
5450.833521857778
 20
6073.291651584976
 30
0.0
 10
5446.17575276172
 20
6077.949420681033
 30
0.0
 10
5446.17575276172
 20
6083.692394854945
 30
0.0
 10
5446.17575276172
 20
6089.435369028856
 30
0.0
 10
5450.833521857778
 20
6094.093138124915
 30
0.0
 10
5456.573050936204
 20
6094.093138124915
 30
0.0
  0
SPLINE
  5
4C
330
1F
100
AcDbEntity
  8
Layer 1
 62
     7
420
 16777215
370
    40
100
AcDbSpline
210
0.0
220
0.0
230
1.0
 70
    11
 71
     3
 72
    32
 73
    28
 74
     0
 42
0.0000000001
 43
0.0000000001
 40
0.0
 40
0.0
 40
0.0
 40
0.0
 40
1.0
 40
1.0
 40
1.0
 40
2.0
 40
2.0
 40
2.0
 40
3.0
 40
3.0
 40
3.0
 40
4.0
 40
4.0
 40
4.0
 40
5.0
 40
5.0
 40
5.0
 40
6.0
 40
6.0
 40
6.0
 40
7.0
 40
7.0
 40
7.0
 40
8.0
 40
8.0
 40
8.0
 40
9.0
 40
9.0
 40
9.0
 40
9.0
 10
3807.674559594956
 20
6518.852740883308
 30
0.0
 10
3807.674559594956
 20
6518.852740883308
 30
0.0
 10
3807.674559594956
 20
6582.852279712794
 30
0.0
 10
3807.674559594956
 20
6582.852279712794
 30
0.0
 10
3809.486679820198
 20
6587.730534919908
 30
0.0
 10
3817.121011415511
 20
6591.547700717564
 30
0.0
 10
3826.877521829739
 20
6592.457205925671
 30
0.0
 10
3826.877521829739
 20
6592.457205925671
 30
0.0
 10
4130.872747448185
 20
6607.257336130304
 30
0.0
 10
4130.872747448185
 20
6607.257336130304
 30
0.0
 10
4130.872747448185
 20
6607.257336130304
 30
0.0
 10
4130.872747448185
 20
6620.052420762522
 30
0.0
 10
4130.872747448185
 20
6620.052420762522
 30
0.0
 10
4132.691757864397
 20
6624.930675969636
 30
0.0
 10
4140.31919926874
 20
6628.747841767292
 30
0.0
 10
4150.068819491997
 20
6629.657346975398
 30
0.0
 10
4150.068819491997
 20
6629.657346975398
 30
0.0
 10
4214.071803416969
 20
6629.657346975398
 30
0.0
 10
4214.071803416969
 20
6629.657346975398
 30
0.0
 10
4223.821423640225
 20
6628.747841767292
 30
0.0
 10
4231.455755235539
 20
6624.930675969636
 30
0.0
 10
4233.27476565175
 20
6620.052420762522
 30
0.0
 10
4233.27476565175
 20
6620.052420762522
 30
0.0
 10
4233.27476565175
 20
6520.05507920766
 30
0.0
 10
4233.27476565175
 20
6520.05507920766
 30
0.0
 10
4233.27476565175
 20
6520.05507920766
 30
0.0
 10
3807.674559594956
 20
6518.852740883308
 30
0.0
 10
3807.674559594956
 20
6518.852740883308
 30
0.0
  0
SPLINE
  5
4D
330
1F
100
AcDbEntity
  8
Layer 1
 62
   202
420
  9055202
370
    40
100
AcDbSpline
210
0.0
220
0.0
230
1.0
 70
    11
 71
     3
 72
    17
 73
    13
 74
     0
 42
0.0000000001
 43
0.0000000001
 40
0.0
 40
0.0
 40
0.0
 40
0.0
 40
1.0
 40
1.0
 40
1.0
 40
2.0
 40
2.0
 40
2.0
 40
3.0
 40
3.0
 40
3.0
 40
4.0
 40
4.0
 40
4.0
 40
4.0
 10
3834.077771393911
 20
6569.254487832512
 30
0.0
 10
3839.817300472338
 20
6569.254487832512
 30
0.0
 10
3844.475069568395
 20
6564.60016383194
 30
0.0
 10
3844.475069568395
 20
6558.857189658029
 30
0.0
 10
3844.475069568395
 20
6553.110770388632
 30
0.0
 10
3839.817300472338
 20
6548.45644638806
 30
0.0
 10
3834.077771393911
 20
6548.45644638806
 30
0.0
 10
3828.331352124515
 20
6548.45644638806
 30
0.0
 10
3823.673583028457
 20
6553.110770388632
 30
0.0
 10
3823.673583028457
 20
6558.857189658029
 30
0.0
 10
3823.673583028457
 20
6564.60016383194
 30
0.0
 10
3828.331352124515
 20
6569.254487832512
 30
0.0
 10
3834.077771393911
 20
6569.254487832512
 30
0.0
  0
SPLINE
  5
4E
330
1F
100
AcDbEntity
  8
Layer 1
 62
     7
420
 16777215
370
    40
100
AcDbSpline
210
0.0
220
0.0
230
1.0
 70
    11
 71
     3
 72
    32
 73
    28
 74
     0
 42
0.0000000001
 43
0.0000000001
 40
0.0
 40
0.0
 40
0.0
 40
0.0
 40
1.0
 40
1.0
 40
1.0
 40
2.0
 40
2.0
 40
2.0
 40
3.0
 40
3.0
 40
3.0
 40
4.0
 40
4.0
 40
4.0
 40
5.0
 40
5.0
 40
5.0
 40
6.0
 40
6.0
 40
6.0
 40
7.0
 40
7.0
 40
7.0
 40
8.0
 40
8.0
 40
8.0
 40
9.0
 40
9.0
 40
9.0
 40
9.0
 10
3327.669405635097
 20
6518.852740883308
 30
0.0
 10
3327.669405635097
 20
6518.852740883308
 30
0.0
 10
3327.669405635097
 20
6582.852279712794
 30
0.0
 10
3327.669405635097
 20
6582.852279712794
 30
0.0
 10
3329.488416051308
 20
6587.730534919908
 30
0.0
 10
3337.122747646622
 20
6591.547700717564
 30
0.0
 10
3346.872367869879
 20
6592.457205925671
 30
0.0
 10
3346.872367869879
 20
6592.457205925671
 30
0.0
 10
3650.867593488325
 20
6607.257336130304
 30
0.0
 10
3650.867593488325
 20
6607.257336130304
 30
0.0
 10
3650.867593488325
 20
6607.257336130304
 30
0.0
 10
3650.867593488325
 20
6620.052420762522
 30
0.0
 10
3650.867593488325
 20
6620.052420762522
 30
0.0
 10
3652.686603904537
 20
6624.930675969636
 30
0.0
 10
3660.31404530888
 20
6628.747841767292
 30
0.0
 10
3670.063665532137
 20
6629.657346975398
 30
0.0
 10
3670.063665532137
 20
6629.657346975398
 30
0.0
 10
3734.066649457108
 20
6629.657346975398
 30
0.0
 10
3734.066649457108
 20
6629.657346975398
 30
0.0
 10
3743.816269680366
 20
6628.747841767292
 30
0.0
 10
3751.450601275679
 20
6624.930675969636
 30
0.0
 10
3753.269611691891
 20
6620.052420762522
 30
0.0
 10
3753.269611691891
 20
6620.052420762522
 30
0.0
 10
3753.269611691891
 20
6520.05507920766
 30
0.0
 10
3753.269611691891
 20
6520.05507920766
 30
0.0
 10
3753.269611691891
 20
6520.05507920766
 30
0.0
 10
3327.669405635097
 20
6518.852740883308
 30
0.0
 10
3327.669405635097
 20
6518.852740883308
 30
0.0
  0
SPLINE
  5
4F
330
1F
100
AcDbEntity
  8
Layer 1
 62
   202
420
  9055202
370
    40
100
AcDbSpline
210
0.0
220
0.0
230
1.0
 70
    11
 71
     3
 72
    17
 73
    13
 74
     0
 42
0.0000000001
 43
0.0000000001
 40
0.0
 40
0.0
 40
0.0
 40
0.0
 40
1.0
 40
1.0
 40
1.0
 40
2.0
 40
2.0
 40
2.0
 40
3.0
 40
3.0
 40
3.0
 40
4.0
 40
4.0
 40
4.0
 40
4.0
 10
3354.072617434051
 20
6569.254487832512
 30
0.0
 10
3359.819036703448
 20
6569.254487832512
 30
0.0
 10
3364.476805799506
 20
6564.60016383194
 30
0.0
 10
3364.476805799506
 20
6558.857189658029
 30
0.0
 10
3364.476805799506
 20
6553.110770388632
 30
0.0
 10
3359.819036703448
 20
6548.45644638806
 30
0.0
 10
3354.072617434051
 20
6548.45644638806
 30
0.0
 10
3348.333088355625
 20
6548.45644638806
 30
0.0
 10
3343.675319259567
 20
6553.110770388632
 30
0.0
 10
3343.675319259567
 20
6558.857189658029
 30
0.0
 10
3343.675319259567
 20
6564.60016383194
 30
0.0
 10
3348.333088355625
 20
6569.254487832512
 30
0.0
 10
3354.072617434051
 20
6569.254487832512
 30
0.0
  0
SPLINE
  5
50
330
1F
100
AcDbEntity
  8
Layer 1
 62
     7
420
 16777215
370
    40
100
AcDbSpline
210
0.0
220
0.0
230
1.0
 70
    11
 71
     3
 72
    32
 73
    28
 74
     0
 42
0.0000000001
 43
0.0000000001
 40
0.0
 40
0.0
 40
0.0
 40
0.0
 40
1.0
 40
1.0
 40
1.0
 40
2.0
 40
2.0
 40
2.0
 40
3.0
 40
3.0
 40
3.0
 40
4.0
 40
4.0
 40
4.0
 40
5.0
 40
5.0
 40
5.0
 40
6.0
 40
6.0
 40
6.0
 40
7.0
 40
7.0
 40
7.0
 40
8.0
 40
8.0
 40
8.0
 40
9.0
 40
9.0
 40
9.0
 40
9.0
 10
3807.674559594956
 20
6379.050766091869
 30
0.0
 10
3807.674559594956
 20
6379.050766091869
 30
0.0
 10
3807.674559594956
 20
6443.050304921356
 30
0.0
 10
3807.674559594956
 20
6443.050304921356
 30
0.0
 10
3809.486679820198
 20
6447.928560128469
 30
0.0
 10
3817.121011415511
 20
6451.745725926126
 30
0.0
 10
3826.877521829739
 20
6452.655231134232
 30
0.0
 10
3826.877521829739
 20
6452.655231134232
 30
0.0
 10
4130.872747448185
 20
6467.455361338865
 30
0.0
 10
4130.872747448185
 20
6467.455361338865
 30
0.0
 10
4130.872747448185
 20
6467.455361338865
 30
0.0
 10
4130.872747448185
 20
6480.250445971084
 30
0.0
 10
4130.872747448185
 20
6480.250445971084
 30
0.0
 10
4132.691757864397
 20
6485.128701178197
 30
0.0
 10
4140.31919926874
 20
6488.945866975854
 30
0.0
 10
4150.068819491997
 20
6489.85537218396
 30
0.0
 10
4150.068819491997
 20
6489.85537218396
 30
0.0
 10
4214.071803416969
 20
6489.85537218396
 30
0.0
 10
4214.071803416969
 20
6489.85537218396
 30
0.0
 10
4223.821423640225
 20
6488.945866975854
 30
0.0
 10
4231.455755235539
 20
6485.128701178197
 30
0.0
 10
4233.27476565175
 20
6480.250445971084
 30
0.0
 10
4233.27476565175
 20
6480.250445971084
 30
0.0
 10
4233.27476565175
 20
6380.249659320736
 30
0.0
 10
4233.27476565175
 20
6380.249659320736
 30
0.0
 10
4233.27476565175
 20
6380.249659320736
 30
0.0
 10
3807.674559594956
 20
6379.050766091869
 30
0.0
 10
3807.674559594956
 20
6379.050766091869
 30
0.0
  0
SPLINE
  5
51
330
1F
100
AcDbEntity
  8
Layer 1
 62
   202
420
  9055202
370
    40
100
AcDbSpline
210
0.0
220
0.0
230
1.0
 70
    11
 71
     3
 72
    17
 73
    13
 74
     0
 42
0.0000000001
 43
0.0000000001
 40
0.0
 40
0.0
 40
0.0
 40
0.0
 40
1.0
 40
1.0
 40
1.0
 40
2.0
 40
2.0
 40
2.0
 40
3.0
 40
3.0
 40
3.0
 40
4.0
 40
4.0
 40
4.0
 40
4.0
 10
3834.077771393911
 20
6429.452513041075
 30
0.0
 10
3839.817300472338
 20
6429.452513041075
 30
0.0
 10
3844.475069568395
 20
6424.798189040502
 30
0.0
 10
3844.475069568395
 20
6419.051769771105
 30
0.0
 10
3844.475069568395
 20
6413.308795597194
 30
0.0
 10
3839.817300472338
 20
6408.654471596621
 30
0.0
 10
3834.077771393911
 20
6408.654471596621
 30
0.0
 10
3828.331352124515
 20
6408.654471596621
 30
0.0
 10
3823.673583028457
 20
6413.308795597194
 30
0.0
 10
3823.673583028457
 20
6419.051769771105
 30
0.0
 10
3823.673583028457
 20
6424.798189040502
 30
0.0
 10
3828.331352124515
 20
6429.452513041075
 30
0.0
 10
3834.077771393911
 20
6429.452513041075
 30
0.0
  0
SPLINE
  5
52
330
1F
100
AcDbEntity
  8
Layer 1
 62
     7
420
 16777215
370
    40
100
AcDbSpline
210
0.0
220
0.0
230
1.0
 70
    11
 71
     3
 72
    32
 73
    28
 74
     0
 42
0.0000000001
 43
0.0000000001
 40
0.0
 40
0.0
 40
0.0
 40
0.0
 40
1.0
 40
1.0
 40
1.0
 40
2.0
 40
2.0
 40
2.0
 40
3.0
 40
3.0
 40
3.0
 40
4.0
 40
4.0
 40
4.0
 40
5.0
 40
5.0
 40
5.0
 40
6.0
 40
6.0
 40
6.0
 40
7.0
 40
7.0
 40
7.0
 40
8.0
 40
8.0
 40
8.0
 40
9.0
 40
9.0
 40
9.0
 40
9.0
 10
3327.669405635097
 20
6379.050766091869
 30
0.0
 10
3327.669405635097
 20
6379.050766091869
 30
0.0
 10
3327.669405635097
 20
6443.050304921356
 30
0.0
 10
3327.669405635097
 20
6443.050304921356
 30
0.0
 10
3329.488416051308
 20
6447.928560128469
 30
0.0
 10
3337.122747646622
 20
6451.745725926126
 30
0.0
 10
3346.872367869879
 20
6452.655231134232
 30
0.0
 10
3346.872367869879
 20
6452.655231134232
 30
0.0
 10
3650.867593488325
 20
6467.455361338865
 30
0.0
 10
3650.867593488325
 20
6467.455361338865
 30
0.0
 10
3650.867593488325
 20
6467.455361338865
 30
0.0
 10
3650.867593488325
 20
6480.250445971084
 30
0.0
 10
3650.867593488325
 20
6480.250445971084
 30
0.0
 10
3652.686603904537
 20
6485.128701178197
 30
0.0
 10
3660.31404530888
 20
6488.945866975854
 30
0.0
 10
3670.063665532137
 20
6489.85537218396
 30
0.0
 10
3670.063665532137
 20
6489.85537218396
 30
0.0
 10
3734.066649457108
 20
6489.85537218396
 30
0.0
 10
3734.066649457108
 20
6489.85537218396
 30
0.0
 10
3743.816269680366
 20
6488.945866975854
 30
0.0
 10
3751.450601275679
 20
6485.128701178197
 30
0.0
 10
3753.269611691891
 20
6480.250445971084
 30
0.0
 10
3753.269611691891
 20
6480.250445971084
 30
0.0
 10
3753.269611691891
 20
6380.249659320736
 30
0.0
 10
3753.269611691891
 20
6380.249659320736
 30
0.0
 10
3753.269611691891
 20
6380.249659320736
 30
0.0
 10
3327.669405635097
 20
6379.050766091869
 30
0.0
 10
3327.669405635097
 20
6379.050766091869
 30
0.0
  0
SPLINE
  5
53
330
1F
100
AcDbEntity
  8
Layer 1
 62
   202
420
  9055202
370
    40
100
AcDbSpline
210
0.0
220
0.0
230
1.0
 70
    11
 71
     3
 72
    17
 73
    13
 74
     0
 42
0.0000000001
 43
0.0000000001
 40
0.0
 40
0.0
 40
0.0
 40
0.0
 40
1.0
 40
1.0
 40
1.0
 40
2.0
 40
2.0
 40
2.0
 40
3.0
 40
3.0
 40
3.0
 40
4.0
 40
4.0
 40
4.0
 40
4.0
 10
3354.072617434051
 20
6429.452513041075
 30
0.0
 10
3359.819036703448
 20
6429.452513041075
 30
0.0
 10
3364.476805799506
 20
6424.798189040502
 30
0.0
 10
3364.476805799506
 20
6419.051769771105
 30
0.0
 10
3364.476805799506
 20
6413.308795597194
 30
0.0
 10
3359.819036703448
 20
6408.654471596621
 30
0.0
 10
3354.072617434051
 20
6408.654471596621
 30
0.0
 10
3348.333088355625
 20
6408.654471596621
 30
0.0
 10
3343.675319259567
 20
6413.308795597194
 30
0.0
 10
3343.675319259567
 20
6419.051769771105
 30
0.0
 10
3343.675319259567
 20
6424.798189040502
 30
0.0
 10
3348.333088355625
 20
6429.452513041075
 30
0.0
 10
3354.072617434051
 20
6429.452513041075
 30
0.0
  0
SPLINE
  5
54
330
1F
100
AcDbEntity
  8
Layer 1
 62
     7
420
 16777215
370
    40
100
AcDbSpline
210
0.0
220
0.0
230
1.0
 70
    11
 71
     3
 72
    32
 73
    28
 74
     0
 42
0.0000000001
 43
0.0000000001
 40
0.0
 40
0.0
 40
0.0
 40
0.0
 40
1.0
 40
1.0
 40
1.0
 40
2.0
 40
2.0
 40
2.0
 40
3.0
 40
3.0
 40
3.0
 40
4.0
 40
4.0
 40
4.0
 40
5.0
 40
5.0
 40
5.0
 40
6.0
 40
6.0
 40
6.0
 40
7.0
 40
7.0
 40
7.0
 40
8.0
 40
8.0
 40
8.0
 40
9.0
 40
9.0
 40
9.0
 40
9.0
 10
3807.674559594956
 20
6210.430567566316
 30
0.0
 10
3807.674559594956
 20
6210.430567566316
 30
0.0
 10
3807.674559594956
 20
6274.430106395802
 30
0.0
 10
3807.674559594956
 20
6274.430106395802
 30
0.0
 10
3809.486679820198
 20
6279.308361602916
 30
0.0
 10
3817.121011415511
 20
6283.125527400573
 30
0.0
 10
3826.877521829739
 20
6284.035032608679
 30
0.0
 10
3826.877521829739
 20
6284.035032608679
 30
0.0
 10
4130.872747448185
 20
6298.835162813312
 30
0.0
 10
4130.872747448185
 20
6298.835162813312
 30
0.0
 10
4130.872747448185
 20
6298.835162813312
 30
0.0
 10
4130.872747448185
 20
6311.63024744553
 30
0.0
 10
4130.872747448185
 20
6311.63024744553
 30
0.0
 10
4132.691757864397
 20
6316.508502652644
 30
0.0
 10
4140.31919926874
 20
6320.3256684503
 30
0.0
 10
4150.068819491997
 20
6321.235173658407
 30
0.0
 10
4150.068819491997
 20
6321.235173658407
 30
0.0
 10
4214.071803416969
 20
6321.235173658407
 30
0.0
 10
4214.071803416969
 20
6321.235173658407
 30
0.0
 10
4223.821423640225
 20
6320.3256684503
 30
0.0
 10
4231.455755235539
 20
6316.508502652644
 30
0.0
 10
4233.27476565175
 20
6311.63024744553
 30
0.0
 10
4233.27476565175
 20
6311.63024744553
 30
0.0
 10
4233.27476565175
 20
6211.629460795183
 30
0.0
 10
4233.27476565175
 20
6211.629460795183
 30
0.0
 10
4233.27476565175
 20
6211.629460795183
 30
0.0
 10
3807.674559594956
 20
6210.430567566316
 30
0.0
 10
3807.674559594956
 20
6210.430567566316
 30
0.0
  0
SPLINE
  5
55
330
1F
100
AcDbEntity
  8
Layer 1
 62
   202
420
  9055202
370
    40
100
AcDbSpline
210
0.0
220
0.0
230
1.0
 70
    11
 71
     3
 72
    17
 73
    13
 74
     0
 42
0.0000000001
 43
0.0000000001
 40
0.0
 40
0.0
 40
0.0
 40
0.0
 40
1.0
 40
1.0
 40
1.0
 40
2.0
 40
2.0
 40
2.0
 40
3.0
 40
3.0
 40
3.0
 40
4.0
 40
4.0
 40
4.0
 40
4.0
 10
3834.077771393911
 20
6260.832314515521
 30
0.0
 10
3839.817300472338
 20
6260.832314515521
 30
0.0
 10
3844.475069568395
 20
6256.177990514949
 30
0.0
 10
3844.475069568395
 20
6250.431571245552
 30
0.0
 10
3844.475069568395
 20
6244.68859707164
 30
0.0
 10
3839.817300472338
 20
6240.034273071068
 30
0.0
 10
3834.077771393911
 20
6240.034273071068
 30
0.0
 10
3828.331352124515
 20
6240.034273071068
 30
0.0
 10
3823.673583028457
 20
6244.68859707164
 30
0.0
 10
3823.673583028457
 20
6250.431571245552
 30
0.0
 10
3823.673583028457
 20
6256.177990514949
 30
0.0
 10
3828.331352124515
 20
6260.832314515521
 30
0.0
 10
3834.077771393911
 20
6260.832314515521
 30
0.0
  0
SPLINE
  5
56
330
1F
100
AcDbEntity
  8
Layer 1
 62
     7
420
 16777215
370
    40
100
AcDbSpline
210
0.0
220
0.0
230
1.0
 70
    11
 71
     3
 72
    32
 73
    28
 74
     0
 42
0.0000000001
 43
0.0000000001
 40
0.0
 40
0.0
 40
0.0
 40
0.0
 40
1.0
 40
1.0
 40
1.0
 40
2.0
 40
2.0
 40
2.0
 40
3.0
 40
3.0
 40
3.0
 40
4.0
 40
4.0
 40
4.0
 40
5.0
 40
5.0
 40
5.0
 40
6.0
 40
6.0
 40
6.0
 40
7.0
 40
7.0
 40
7.0
 40
8.0
 40
8.0
 40
8.0
 40
9.0
 40
9.0
 40
9.0
 40
9.0
 10
3327.669405635097
 20
6210.430567566316
 30
0.0
 10
3327.669405635097
 20
6210.430567566316
 30
0.0
 10
3327.669405635097
 20
6274.430106395802
 30
0.0
 10
3327.669405635097
 20
6274.430106395802
 30
0.0
 10
3329.488416051308
 20
6279.308361602916
 30
0.0
 10
3337.122747646622
 20
6283.125527400573
 30
0.0
 10
3346.872367869879
 20
6284.035032608679
 30
0.0
 10
3346.872367869879
 20
6284.035032608679
 30
0.0
 10
3650.867593488325
 20
6298.835162813312
 30
0.0
 10
3650.867593488325
 20
6298.835162813312
 30
0.0
 10
3650.867593488325
 20
6298.835162813312
 30
0.0
 10
3650.867593488325
 20
6311.63024744553
 30
0.0
 10
3650.867593488325
 20
6311.63024744553
 30
0.0
 10
3652.686603904537
 20
6316.508502652644
 30
0.0
 10
3660.31404530888
 20
6320.3256684503
 30
0.0
 10
3670.063665532137
 20
6321.235173658407
 30
0.0
 10
3670.063665532137
 20
6321.235173658407
 30
0.0
 10
3734.066649457108
 20
6321.235173658407
 30
0.0
 10
3734.066649457108
 20
6321.235173658407
 30
0.0
 10
3743.816269680366
 20
6320.3256684503
 30
0.0
 10
3751.450601275679
 20
6316.508502652644
 30
0.0
 10
3753.269611691891
 20
6311.63024744553
 30
0.0
 10
3753.269611691891
 20
6311.63024744553
 30
0.0
 10
3753.269611691891
 20
6211.629460795183
 30
0.0
 10
3753.269611691891
 20
6211.629460795183
 30
0.0
 10
3753.269611691891
 20
6211.629460795183
 30
0.0
 10
3327.669405635097
 20
6210.430567566316
 30
0.0
 10
3327.669405635097
 20
6210.430567566316
 30
0.0
  0
SPLINE
  5
57
330
1F
100
AcDbEntity
  8
Layer 1
 62
   202
420
  9055202
370
    40
100
AcDbSpline
210
0.0
220
0.0
230
1.0
 70
    11
 71
     3
 72
    17
 73
    13
 74
     0
 42
0.0000000001
 43
0.0000000001
 40
0.0
 40
0.0
 40
0.0
 40
0.0
 40
1.0
 40
1.0
 40
1.0
 40
2.0
 40
2.0
 40
2.0
 40
3.0
 40
3.0
 40
3.0
 40
4.0
 40
4.0
 40
4.0
 40
4.0
 10
3354.072617434051
 20
6260.832314515521
 30
0.0
 10
3359.819036703448
 20
6260.832314515521
 30
0.0
 10
3364.476805799506
 20
6256.177990514949
 30
0.0
 10
3364.476805799506
 20
6250.431571245552
 30
0.0
 10
3364.476805799506
 20
6244.68859707164
 30
0.0
 10
3359.819036703448
 20
6240.034273071068
 30
0.0
 10
3354.072617434051
 20
6240.034273071068
 30
0.0
 10
3348.333088355625
 20
6240.034273071068
 30
0.0
 10
3343.675319259567
 20
6244.68859707164
 30
0.0
 10
3343.675319259567
 20
6250.431571245552
 30
0.0
 10
3343.675319259567
 20
6256.177990514949
 30
0.0
 10
3348.333088355625
 20
6260.832314515521
 30
0.0
 10
3354.072617434051
 20
6260.832314515521
 30
0.0
  0
SPLINE
  5
58
330
1F
100
AcDbEntity
  8
Layer 1
 62
     7
420
 16777215
370
    40
100
AcDbSpline
210
0.0
220
0.0
230
1.0
 70
    11
 71
     3
 72
    32
 73
    28
 74
     0
 42
0.0000000001
 43
0.0000000001
 40
0.0
 40
0.0
 40
0.0
 40
0.0
 40
1.0
 40
1.0
 40
1.0
 40
2.0
 40
2.0
 40
2.0
 40
3.0
 40
3.0
 40
3.0
 40
4.0
 40
4.0
 40
4.0
 40
5.0
 40
5.0
 40
5.0
 40
6.0
 40
6.0
 40
6.0
 40
7.0
 40
7.0
 40
7.0
 40
8.0
 40
8.0
 40
8.0
 40
9.0
 40
9.0
 40
9.0
 40
9.0
 10
3807.674559594956
 20
6043.691391175709
 30
0.0
 10
3807.674559594956
 20
6043.691391175709
 30
0.0
 10
3807.674559594956
 20
6107.68748490971
 30
0.0
 10
3807.674559594956
 20
6107.68748490971
 30
0.0
 10
3809.486679820198
 20
6112.565740116824
 30
0.0
 10
3817.121011415511
 20
6116.382905914481
 30
0.0
 10
3826.877521829739
 20
6117.295856218072
 30
0.0
 10
3826.877521829739
 20
6117.295856218072
 30
0.0
 10
4130.872747448185
 20
6132.09254132722
 30
0.0
 10
4130.872747448185
 20
6132.09254132722
 30
0.0
 10
4130.872747448185
 20
6132.09254132722
 30
0.0
 10
4130.872747448185
 20
6144.887625959438
 30
0.0
 10
4130.872747448185
 20
6144.887625959438
 30
0.0
 10
4132.691757864397
 20
6149.769326262037
 30
0.0
 10
4140.31919926874
 20
6153.586492059694
 30
0.0
 10
4150.068819491997
 20
6154.4959972678
 30
0.0
 10
4150.068819491997
 20
6154.4959972678
 30
0.0
 10
4214.071803416969
 20
6154.4959972678
 30
0.0
 10
4214.071803416969
 20
6154.4959972678
 30
0.0
 10
4223.821423640225
 20
6153.586492059694
 30
0.0
 10
4231.455755235539
 20
6149.769326262037
 30
0.0
 10
4233.27476565175
 20
6144.887625959438
 30
0.0
 10
4233.27476565175
 20
6144.887625959438
 30
0.0
 10
4233.27476565175
 20
6044.890284404576
 30
0.0
 10
4233.27476565175
 20
6044.890284404576
 30
0.0
 10
4233.27476565175
 20
6044.890284404576
 30
0.0
 10
3807.674559594956
 20
6043.691391175709
 30
0.0
 10
3807.674559594956
 20
6043.691391175709
 30
0.0
  0
SPLINE
  5
59
330
1F
100
AcDbEntity
  8
Layer 1
 62
   202
420
  9055202
370
    40
100
AcDbSpline
210
0.0
220
0.0
230
1.0
 70
    11
 71
     3
 72
    17
 73
    13
 74
     0
 42
0.0000000001
 43
0.0000000001
 40
0.0
 40
0.0
 40
0.0
 40
0.0
 40
1.0
 40
1.0
 40
1.0
 40
2.0
 40
2.0
 40
2.0
 40
3.0
 40
3.0
 40
3.0
 40
4.0
 40
4.0
 40
4.0
 40
4.0
 10
3834.077771393911
 20
6094.093138124915
 30
0.0
 10
3839.817300472338
 20
6094.093138124915
 30
0.0
 10
3844.475069568395
 20
6089.435369028856
 30
0.0
 10
3844.475069568395
 20
6083.692394854945
 30
0.0
 10
3844.475069568395
 20
6077.949420681033
 30
0.0
 10
3839.817300472338
 20
6073.291651584976
 30
0.0
 10
3834.077771393911
 20
6073.291651584976
 30
0.0
 10
3828.331352124515
 20
6073.291651584976
 30
0.0
 10
3823.673583028457
 20
6077.949420681033
 30
0.0
 10
3823.673583028457
 20
6083.692394854945
 30
0.0
 10
3823.673583028457
 20
6089.435369028856
 30
0.0
 10
3828.331352124515
 20
6094.093138124915
 30
0.0
 10
3834.077771393911
 20
6094.093138124915
 30
0.0
  0
SPLINE
  5
5A
330
1F
100
AcDbEntity
  8
Layer 1
 62
     7
420
 16777215
370
    40
100
AcDbSpline
210
0.0
220
0.0
230
1.0
 70
    11
 71
     3
 72
    32
 73
    28
 74
     0
 42
0.0000000001
 43
0.0000000001
 40
0.0
 40
0.0
 40
0.0
 40
0.0
 40
1.0
 40
1.0
 40
1.0
 40
2.0
 40
2.0
 40
2.0
 40
3.0
 40
3.0
 40
3.0
 40
4.0
 40
4.0
 40
4.0
 40
5.0
 40
5.0
 40
5.0
 40
6.0
 40
6.0
 40
6.0
 40
7.0
 40
7.0
 40
7.0
 40
8.0
 40
8.0
 40
8.0
 40
9.0
 40
9.0
 40
9.0
 40
9.0
 10
3327.669405635097
 20
6043.691391175709
 30
0.0
 10
3327.669405635097
 20
6043.691391175709
 30
0.0
 10
3327.669405635097
 20
6107.68748490971
 30
0.0
 10
3327.669405635097
 20
6107.68748490971
 30
0.0
 10
3329.488416051308
 20
6112.565740116824
 30
0.0
 10
3337.122747646622
 20
6116.382905914481
 30
0.0
 10
3346.872367869879
 20
6117.295856218072
 30
0.0
 10
3346.872367869879
 20
6117.295856218072
 30
0.0
 10
3650.867593488325
 20
6132.09254132722
 30
0.0
 10
3650.867593488325
 20
6132.09254132722
 30
0.0
 10
3650.867593488325
 20
6132.09254132722
 30
0.0
 10
3650.867593488325
 20
6144.887625959438
 30
0.0
 10
3650.867593488325
 20
6144.887625959438
 30
0.0
 10
3652.686603904537
 20
6149.769326262037
 30
0.0
 10
3660.31404530888
 20
6153.586492059694
 30
0.0
 10
3670.063665532137
 20
6154.4959972678
 30
0.0
 10
3670.063665532137
 20
6154.4959972678
 30
0.0
 10
3734.066649457108
 20
6154.4959972678
 30
0.0
 10
3734.066649457108
 20
6154.4959972678
 30
0.0
 10
3743.816269680366
 20
6153.586492059694
 30
0.0
 10
3751.450601275679
 20
6149.769326262037
 30
0.0
 10
3753.269611691891
 20
6144.887625959438
 30
0.0
 10
3753.269611691891
 20
6144.887625959438
 30
0.0
 10
3753.269611691891
 20
6044.890284404576
 30
0.0
 10
3753.269611691891
 20
6044.890284404576
 30
0.0
 10
3753.269611691891
 20
6044.890284404576
 30
0.0
 10
3327.669405635097
 20
6043.691391175709
 30
0.0
 10
3327.669405635097
 20
6043.691391175709
 30
0.0
  0
SPLINE
  5
5B
330
1F
100
AcDbEntity
  8
Layer 1
 62
   202
420
  9055202
370
    40
100
AcDbSpline
210
0.0
220
0.0
230
1.0
 70
    11
 71
     3
 72
    17
 73
    13
 74
     0
 42
0.0000000001
 43
0.0000000001
 40
0.0
 40
0.0
 40
0.0
 40
0.0
 40
1.0
 40
1.0
 40
1.0
 40
2.0
 40
2.0
 40
2.0
 40
3.0
 40
3.0
 40
3.0
 40
4.0
 40
4.0
 40
4.0
 40
4.0
 10
3354.072617434051
 20
6094.093138124915
 30
0.0
 10
3359.819036703448
 20
6094.093138124915
 30
0.0
 10
3364.476805799506
 20
6089.435369028856
 30
0.0
 10
3364.476805799506
 20
6083.692394854945
 30
0.0
 10
3364.476805799506
 20
6077.949420681033
 30
0.0
 10
3359.819036703448
 20
6073.291651584976
 30
0.0
 10
3354.072617434051
 20
6073.291651584976
 30
0.0
 10
3348.333088355625
 20
6073.291651584976
 30
0.0
 10
3343.675319259567
 20
6077.949420681033
 30
0.0
 10
3343.675319259567
 20
6083.692394854945
 30
0.0
 10
3343.675319259567
 20
6089.435369028856
 30
0.0
 10
3348.333088355625
 20
6094.093138124915
 30
0.0
 10
3354.072617434051
 20
6094.093138124915
 30
0.0
  0
SPLINE
  5
5C
330
1F
100
AcDbEntity
  8
Layer 1
 62
     7
420
 16777215
370
    40
100
AcDbSpline
210
0.0
220
0.0
230
1.0
 70
    11
 71
     3
 72
    32
 73
    28
 74
     0
 42
0.0000000001
 43
0.0000000001
 40
0.0
 40
0.0
 40
0.0
 40
0.0
 40
1.0
 40
1.0
 40
1.0
 40
2.0
 40
2.0
 40
2.0
 40
3.0
 40
3.0
 40
3.0
 40
4.0
 40
4.0
 40
4.0
 40
5.0
 40
5.0
 40
5.0
 40
6.0
 40
6.0
 40
6.0
 40
7.0
 40
7.0
 40
7.0
 40
8.0
 40
8.0
 40
8.0
 40
9.0
 40
9.0
 40
9.0
 40
9.0
 10
4830.733559990234
 20
6518.852740883308
 30
0.0
 10
4830.733559990234
 20
6518.852740883308
 30
0.0
 10
4830.733559990234
 20
6582.852279712794
 30
0.0
 10
4830.733559990234
 20
6582.852279712794
 30
0.0
 10
4832.545680215475
 20
6587.730534919908
 30
0.0
 10
4840.180011810789
 20
6591.547700717564
 30
0.0
 10
4849.936522225016
 20
6592.457205925671
 30
0.0
 10
4849.936522225016
 20
6592.457205925671
 30
0.0
 10
5153.931747843461
 20
6607.257336130304
 30
0.0
 10
5153.931747843461
 20
6607.257336130304
 30
0.0
 10
5153.931747843461
 20
6607.257336130304
 30
0.0
 10
5153.931747843461
 20
6620.052420762522
 30
0.0
 10
5153.931747843461
 20
6620.052420762522
 30
0.0
 10
5155.750758259674
 20
6624.930675969636
 30
0.0
 10
5163.378199664016
 20
6628.747841767292
 30
0.0
 10
5173.127819887273
 20
6629.657346975398
 30
0.0
 10
5173.127819887273
 20
6629.657346975398
 30
0.0
 10
5237.130803812245
 20
6629.657346975398
 30
0.0
 10
5237.130803812245
 20
6629.657346975398
 30
0.0
 10
5246.880424035502
 20
6628.747841767292
 30
0.0
 10
5254.514755630816
 20
6624.930675969636
 30
0.0
 10
5256.333766047028
 20
6620.052420762522
 30
0.0
 10
5256.333766047028
 20
6620.052420762522
 30
0.0
 10
5256.333766047028
 20
6520.05507920766
 30
0.0
 10
5256.333766047028
 20
6520.05507920766
 30
0.0
 10
5256.333766047028
 20
6520.05507920766
 30
0.0
 10
4830.733559990234
 20
6518.852740883308
 30
0.0
 10
4830.733559990234
 20
6518.852740883308
 30
0.0
  0
SPLINE
  5
5D
330
1F
100
AcDbEntity
  8
Layer 1
 62
   202
420
  9055202
370
    40
100
AcDbSpline
210
0.0
220
0.0
230
1.0
 70
    11
 71
     3
 72
    17
 73
    13
 74
     0
 42
0.0000000001
 43
0.0000000001
 40
0.0
 40
0.0
 40
0.0
 40
0.0
 40
1.0
 40
1.0
 40
1.0
 40
2.0
 40
2.0
 40
2.0
 40
3.0
 40
3.0
 40
3.0
 40
4.0
 40
4.0
 40
4.0
 40
4.0
 10
4857.136771789188
 20
6569.254487832512
 30
0.0
 10
4862.876300867614
 20
6569.254487832512
 30
0.0
 10
4867.534069963672
 20
6564.60016383194
 30
0.0
 10
4867.534069963672
 20
6558.857189658029
 30
0.0
 10
4867.534069963672
 20
6553.110770388632
 30
0.0
 10
4862.876300867614
 20
6548.45644638806
 30
0.0
 10
4857.136771789188
 20
6548.45644638806
 30
0.0
 10
4851.390352519791
 20
6548.45644638806
 30
0.0
 10
4846.732583423734
 20
6553.110770388632
 30
0.0
 10
4846.732583423734
 20
6558.857189658029
 30
0.0
 10
4846.732583423734
 20
6564.60016383194
 30
0.0
 10
4851.390352519791
 20
6569.254487832512
 30
0.0
 10
4857.136771789188
 20
6569.254487832512
 30
0.0
  0
SPLINE
  5
5E
330
1F
100
AcDbEntity
  8
Layer 1
 62
     7
420
 16777215
370
    40
100
AcDbSpline
210
0.0
220
0.0
230
1.0
 70
    11
 71
     3
 72
    32
 73
    28
 74
     0
 42
0.0000000001
 43
0.0000000001
 40
0.0
 40
0.0
 40
0.0
 40
0.0
 40
1.0
 40
1.0
 40
1.0
 40
2.0
 40
2.0
 40
2.0
 40
3.0
 40
3.0
 40
3.0
 40
4.0
 40
4.0
 40
4.0
 40
5.0
 40
5.0
 40
5.0
 40
6.0
 40
6.0
 40
6.0
 40
7.0
 40
7.0
 40
7.0
 40
8.0
 40
8.0
 40
8.0
 40
9.0
 40
9.0
 40
9.0
 40
9.0
 10
4350.728406030374
 20
6518.852740883308
 30
0.0
 10
4350.728406030374
 20
6518.852740883308
 30
0.0
 10
4350.728406030374
 20
6582.852279712794
 30
0.0
 10
4350.728406030374
 20
6582.852279712794
 30
0.0
 10
4352.547416446585
 20
6587.730534919908
 30
0.0
 10
4360.181748041899
 20
6591.547700717564
 30
0.0
 10
4369.931368265156
 20
6592.457205925671
 30
0.0
 10
4369.931368265156
 20
6592.457205925671
 30
0.0
 10
4673.926593883602
 20
6607.257336130304
 30
0.0
 10
4673.926593883602
 20
6607.257336130304
 30
0.0
 10
4673.926593883602
 20
6607.257336130304
 30
0.0
 10
4673.926593883602
 20
6620.052420762522
 30
0.0
 10
4673.926593883602
 20
6620.052420762522
 30
0.0
 10
4675.745604299814
 20
6624.930675969636
 30
0.0
 10
4683.373045704157
 20
6628.747841767292
 30
0.0
 10
4693.122665927413
 20
6629.657346975398
 30
0.0
 10
4693.122665927413
 20
6629.657346975398
 30
0.0
 10
4757.125649852385
 20
6629.657346975398
 30
0.0
 10
4757.125649852385
 20
6629.657346975398
 30
0.0
 10
4766.875270075642
 20
6628.747841767292
 30
0.0
 10
4774.509601670956
 20
6624.930675969636
 30
0.0
 10
4776.328612087168
 20
6620.052420762522
 30
0.0
 10
4776.328612087168
 20
6620.052420762522
 30
0.0
 10
4776.328612087168
 20
6520.05507920766
 30
0.0
 10
4776.328612087168
 20
6520.05507920766
 30
0.0
 10
4776.328612087168
 20
6520.05507920766
 30
0.0
 10
4350.728406030374
 20
6518.852740883308
 30
0.0
 10
4350.728406030374
 20
6518.852740883308
 30
0.0
  0
SPLINE
  5
5F
330
1F
100
AcDbEntity
  8
Layer 1
 62
   202
420
  9055202
370
    40
100
AcDbSpline
210
0.0
220
0.0
230
1.0
 70
    11
 71
     3
 72
    17
 73
    13
 74
     0
 42
0.0000000001
 43
0.0000000001
 40
0.0
 40
0.0
 40
0.0
 40
0.0
 40
1.0
 40
1.0
 40
1.0
 40
2.0
 40
2.0
 40
2.0
 40
3.0
 40
3.0
 40
3.0
 40
4.0
 40
4.0
 40
4.0
 40
4.0
 10
4377.131617829328
 20
6569.254487832512
 30
0.0
 10
4382.878037098725
 20
6569.254487832512
 30
0.0
 10
4387.535806194783
 20
6564.60016383194
 30
0.0
 10
4387.535806194783
 20
6558.857189658029
 30
0.0
 10
4387.535806194783
 20
6553.110770388632
 30
0.0
 10
4382.878037098725
 20
6548.45644638806
 30
0.0
 10
4377.131617829328
 20
6548.45644638806
 30
0.0
 10
4371.392088750902
 20
6548.45644638806
 30
0.0
 10
4366.734319654845
 20
6553.110770388632
 30
0.0
 10
4366.734319654845
 20
6558.857189658029
 30
0.0
 10
4366.734319654845
 20
6564.60016383194
 30
0.0
 10
4371.392088750902
 20
6569.254487832512
 30
0.0
 10
4377.131617829328
 20
6569.254487832512
 30
0.0
  0
SPLINE
  5
60
330
1F
100
AcDbEntity
  8
Layer 1
 62
     7
420
 16777215
370
    40
100
AcDbSpline
210
0.0
220
0.0
230
1.0
 70
    11
 71
     3
 72
    32
 73
    28
 74
     0
 42
0.0000000001
 43
0.0000000001
 40
0.0
 40
0.0
 40
0.0
 40
0.0
 40
1.0
 40
1.0
 40
1.0
 40
2.0
 40
2.0
 40
2.0
 40
3.0
 40
3.0
 40
3.0
 40
4.0
 40
4.0
 40
4.0
 40
5.0
 40
5.0
 40
5.0
 40
6.0
 40
6.0
 40
6.0
 40
7.0
 40
7.0
 40
7.0
 40
8.0
 40
8.0
 40
8.0
 40
9.0
 40
9.0
 40
9.0
 40
9.0
 10
4830.733559990234
 20
6379.050766091869
 30
0.0
 10
4830.733559990234
 20
6379.050766091869
 30
0.0
 10
4830.733559990234
 20
6443.050304921356
 30
0.0
 10
4830.733559990234
 20
6443.050304921356
 30
0.0
 10
4832.545680215475
 20
6447.928560128469
 30
0.0
 10
4840.180011810789
 20
6451.745725926126
 30
0.0
 10
4849.936522225016
 20
6452.655231134232
 30
0.0
 10
4849.936522225016
 20
6452.655231134232
 30
0.0
 10
5153.931747843461
 20
6467.455361338865
 30
0.0
 10
5153.931747843461
 20
6467.455361338865
 30
0.0
 10
5153.931747843461
 20
6467.455361338865
 30
0.0
 10
5153.931747843461
 20
6480.250445971084
 30
0.0
 10
5153.931747843461
 20
6480.250445971084
 30
0.0
 10
5155.750758259674
 20
6485.128701178197
 30
0.0
 10
5163.378199664016
 20
6488.945866975854
 30
0.0
 10
5173.127819887273
 20
6489.85537218396
 30
0.0
 10
5173.127819887273
 20
6489.85537218396
 30
0.0
 10
5237.130803812245
 20
6489.85537218396
 30
0.0
 10
5237.130803812245
 20
6489.85537218396
 30
0.0
 10
5246.880424035502
 20
6488.945866975854
 30
0.0
 10
5254.514755630816
 20
6485.128701178197
 30
0.0
 10
5256.333766047028
 20
6480.250445971084
 30
0.0
 10
5256.333766047028
 20
6480.250445971084
 30
0.0
 10
5256.333766047028
 20
6380.249659320736
 30
0.0
 10
5256.333766047028
 20
6380.249659320736
 30
0.0
 10
5256.333766047028
 20
6380.249659320736
 30
0.0
 10
4830.733559990234
 20
6379.050766091869
 30
0.0
 10
4830.733559990234
 20
6379.050766091869
 30
0.0
  0
SPLINE
  5
61
330
1F
100
AcDbEntity
  8
Layer 1
 62
   202
420
  9055202
370
    40
100
AcDbSpline
210
0.0
220
0.0
230
1.0
 70
    11
 71
     3
 72
    17
 73
    13
 74
     0
 42
0.0000000001
 43
0.0000000001
 40
0.0
 40
0.0
 40
0.0
 40
0.0
 40
1.0
 40
1.0
 40
1.0
 40
2.0
 40
2.0
 40
2.0
 40
3.0
 40
3.0
 40
3.0
 40
4.0
 40
4.0
 40
4.0
 40
4.0
 10
4857.136771789188
 20
6429.452513041075
 30
0.0
 10
4862.876300867614
 20
6429.452513041075
 30
0.0
 10
4867.534069963672
 20
6424.798189040502
 30
0.0
 10
4867.534069963672
 20
6419.051769771105
 30
0.0
 10
4867.534069963672
 20
6413.308795597194
 30
0.0
 10
4862.876300867614
 20
6408.654471596621
 30
0.0
 10
4857.136771789188
 20
6408.654471596621
 30
0.0
 10
4851.390352519791
 20
6408.654471596621
 30
0.0
 10
4846.732583423734
 20
6413.308795597194
 30
0.0
 10
4846.732583423734
 20
6419.051769771105
 30
0.0
 10
4846.732583423734
 20
6424.798189040502
 30
0.0
 10
4851.390352519791
 20
6429.452513041075
 30
0.0
 10
4857.136771789188
 20
6429.452513041075
 30
0.0
  0
SPLINE
  5
62
330
1F
100
AcDbEntity
  8
Layer 1
 62
     7
420
 16777215
370
    40
100
AcDbSpline
210
0.0
220
0.0
230
1.0
 70
    11
 71
     3
 72
    32
 73
    28
 74
     0
 42
0.0000000001
 43
0.0000000001
 40
0.0
 40
0.0
 40
0.0
 40
0.0
 40
1.0
 40
1.0
 40
1.0
 40
2.0
 40
2.0
 40
2.0
 40
3.0
 40
3.0
 40
3.0
 40
4.0
 40
4.0
 40
4.0
 40
5.0
 40
5.0
 40
5.0
 40
6.0
 40
6.0
 40
6.0
 40
7.0
 40
7.0
 40
7.0
 40
8.0
 40
8.0
 40
8.0
 40
9.0
 40
9.0
 40
9.0
 40
9.0
 10
4350.728406030374
 20
6379.050766091869
 30
0.0
 10
4350.728406030374
 20
6379.050766091869
 30
0.0
 10
4350.728406030374
 20
6443.050304921356
 30
0.0
 10
4350.728406030374
 20
6443.050304921356
 30
0.0
 10
4352.547416446585
 20
6447.928560128469
 30
0.0
 10
4360.181748041899
 20
6451.745725926126
 30
0.0
 10
4369.931368265156
 20
6452.655231134232
 30
0.0
 10
4369.931368265156
 20
6452.655231134232
 30
0.0
 10
4673.926593883602
 20
6467.455361338865
 30
0.0
 10
4673.926593883602
 20
6467.455361338865
 30
0.0
 10
4673.926593883602
 20
6467.455361338865
 30
0.0
 10
4673.926593883602
 20
6480.250445971084
 30
0.0
 10
4673.926593883602
 20
6480.250445971084
 30
0.0
 10
4675.745604299814
 20
6485.128701178197
 30
0.0
 10
4683.373045704157
 20
6488.945866975854
 30
0.0
 10
4693.122665927413
 20
6489.85537218396
 30
0.0
 10
4693.122665927413
 20
6489.85537218396
 30
0.0
 10
4757.125649852385
 20
6489.85537218396
 30
0.0
 10
4757.125649852385
 20
6489.85537218396
 30
0.0
 10
4766.875270075642
 20
6488.945866975854
 30
0.0
 10
4774.509601670956
 20
6485.128701178197
 30
0.0
 10
4776.328612087168
 20
6480.250445971084
 30
0.0
 10
4776.328612087168
 20
6480.250445971084
 30
0.0
 10
4776.328612087168
 20
6380.249659320736
 30
0.0
 10
4776.328612087168
 20
6380.249659320736
 30
0.0
 10
4776.328612087168
 20
6380.249659320736
 30
0.0
 10
4350.728406030374
 20
6379.050766091869
 30
0.0
 10
4350.728406030374
 20
6379.050766091869
 30
0.0
  0
SPLINE
  5
63
330
1F
100
AcDbEntity
  8
Layer 1
 62
   202
420
  9055202
370
    40
100
AcDbSpline
210
0.0
220
0.0
230
1.0
 70
    11
 71
     3
 72
    17
 73
    13
 74
     0
 42
0.0000000001
 43
0.0000000001
 40
0.0
 40
0.0
 40
0.0
 40
0.0
 40
1.0
 40
1.0
 40
1.0
 40
2.0
 40
2.0
 40
2.0
 40
3.0
 40
3.0
 40
3.0
 40
4.0
 40
4.0
 40
4.0
 40
4.0
 10
4377.131617829328
 20
6429.452513041075
 30
0.0
 10
4382.878037098725
 20
6429.452513041075
 30
0.0
 10
4387.535806194783
 20
6424.798189040502
 30
0.0
 10
4387.535806194783
 20
6419.051769771105
 30
0.0
 10
4387.535806194783
 20
6413.308795597194
 30
0.0
 10
4382.878037098725
 20
6408.654471596621
 30
0.0
 10
4377.131617829328
 20
6408.654471596621
 30
0.0
 10
4371.392088750902
 20
6408.654471596621
 30
0.0
 10
4366.734319654845
 20
6413.308795597194
 30
0.0
 10
4366.734319654845
 20
6419.051769771105
 30
0.0
 10
4366.734319654845
 20
6424.798189040502
 30
0.0
 10
4371.392088750902
 20
6429.452513041075
 30
0.0
 10
4377.131617829328
 20
6429.452513041075
 30
0.0
  0
SPLINE
  5
64
330
1F
100
AcDbEntity
  8
Layer 1
 62
     7
420
 16777215
370
    40
100
AcDbSpline
210
0.0
220
0.0
230
1.0
 70
    11
 71
     3
 72
    32
 73
    28
 74
     0
 42
0.0000000001
 43
0.0000000001
 40
0.0
 40
0.0
 40
0.0
 40
0.0
 40
1.0
 40
1.0
 40
1.0
 40
2.0
 40
2.0
 40
2.0
 40
3.0
 40
3.0
 40
3.0
 40
4.0
 40
4.0
 40
4.0
 40
5.0
 40
5.0
 40
5.0
 40
6.0
 40
6.0
 40
6.0
 40
7.0
 40
7.0
 40
7.0
 40
8.0
 40
8.0
 40
8.0
 40
9.0
 40
9.0
 40
9.0
 40
9.0
 10
4830.733559990234
 20
6210.430567566316
 30
0.0
 10
4830.733559990234
 20
6210.430567566316
 30
0.0
 10
4830.733559990234
 20
6274.430106395802
 30
0.0
 10
4830.733559990234
 20
6274.430106395802
 30
0.0
 10
4832.545680215475
 20
6279.308361602916
 30
0.0
 10
4840.180011810789
 20
6283.125527400573
 30
0.0
 10
4849.936522225016
 20
6284.035032608679
 30
0.0
 10
4849.936522225016
 20
6284.035032608679
 30
0.0
 10
5153.931747843461
 20
6298.835162813312
 30
0.0
 10
5153.931747843461
 20
6298.835162813312
 30
0.0
 10
5153.931747843461
 20
6298.835162813312
 30
0.0
 10
5153.931747843461
 20
6311.63024744553
 30
0.0
 10
5153.931747843461
 20
6311.63024744553
 30
0.0
 10
5155.750758259674
 20
6316.508502652644
 30
0.0
 10
5163.378199664016
 20
6320.3256684503
 30
0.0
 10
5173.127819887273
 20
6321.235173658407
 30
0.0
 10
5173.127819887273
 20
6321.235173658407
 30
0.0
 10
5237.130803812245
 20
6321.235173658407
 30
0.0
 10
5237.130803812245
 20
6321.235173658407
 30
0.0
 10
5246.880424035502
 20
6320.3256684503
 30
0.0
 10
5254.514755630816
 20
6316.508502652644
 30
0.0
 10
5256.333766047028
 20
6311.63024744553
 30
0.0
 10
5256.333766047028
 20
6311.63024744553
 30
0.0
 10
5256.333766047028
 20
6211.629460795183
 30
0.0
 10
5256.333766047028
 20
6211.629460795183
 30
0.0
 10
5256.333766047028
 20
6211.629460795183
 30
0.0
 10
4830.733559990234
 20
6210.430567566316
 30
0.0
 10
4830.733559990234
 20
6210.430567566316
 30
0.0
  0
SPLINE
  5
65
330
1F
100
AcDbEntity
  8
Layer 1
 62
   202
420
  9055202
370
    40
100
AcDbSpline
210
0.0
220
0.0
230
1.0
 70
    11
 71
     3
 72
    17
 73
    13
 74
     0
 42
0.0000000001
 43
0.0000000001
 40
0.0
 40
0.0
 40
0.0
 40
0.0
 40
1.0
 40
1.0
 40
1.0
 40
2.0
 40
2.0
 40
2.0
 40
3.0
 40
3.0
 40
3.0
 40
4.0
 40
4.0
 40
4.0
 40
4.0
 10
4857.136771789188
 20
6260.832314515521
 30
0.0
 10
4862.876300867614
 20
6260.832314515521
 30
0.0
 10
4867.534069963672
 20
6256.177990514949
 30
0.0
 10
4867.534069963672
 20
6250.431571245552
 30
0.0
 10
4867.534069963672
 20
6244.68859707164
 30
0.0
 10
4862.876300867614
 20
6240.034273071068
 30
0.0
 10
4857.136771789188
 20
6240.034273071068
 30
0.0
 10
4851.390352519791
 20
6240.034273071068
 30
0.0
 10
4846.732583423734
 20
6244.68859707164
 30
0.0
 10
4846.732583423734
 20
6250.431571245552
 30
0.0
 10
4846.732583423734
 20
6256.177990514949
 30
0.0
 10
4851.390352519791
 20
6260.832314515521
 30
0.0
 10
4857.136771789188
 20
6260.832314515521
 30
0.0
  0
SPLINE
  5
66
330
1F
100
AcDbEntity
  8
Layer 1
 62
     7
420
 16777215
370
    40
100
AcDbSpline
210
0.0
220
0.0
230
1.0
 70
    11
 71
     3
 72
    32
 73
    28
 74
     0
 42
0.0000000001
 43
0.0000000001
 40
0.0
 40
0.0
 40
0.0
 40
0.0
 40
1.0
 40
1.0
 40
1.0
 40
2.0
 40
2.0
 40
2.0
 40
3.0
 40
3.0
 40
3.0
 40
4.0
 40
4.0
 40
4.0
 40
5.0
 40
5.0
 40
5.0
 40
6.0
 40
6.0
 40
6.0
 40
7.0
 40
7.0
 40
7.0
 40
8.0
 40
8.0
 40
8.0
 40
9.0
 40
9.0
 40
9.0
 40
9.0
 10
4350.728406030374
 20
6210.430567566316
 30
0.0
 10
4350.728406030374
 20
6210.430567566316
 30
0.0
 10
4350.728406030374
 20
6274.430106395802
 30
0.0
 10
4350.728406030374
 20
6274.430106395802
 30
0.0
 10
4352.547416446585
 20
6279.308361602916
 30
0.0
 10
4360.181748041899
 20
6283.125527400573
 30
0.0
 10
4369.931368265156
 20
6284.035032608679
 30
0.0
 10
4369.931368265156
 20
6284.035032608679
 30
0.0
 10
4673.926593883602
 20
6298.835162813312
 30
0.0
 10
4673.926593883602
 20
6298.835162813312
 30
0.0
 10
4673.926593883602
 20
6298.835162813312
 30
0.0
 10
4673.926593883602
 20
6311.63024744553
 30
0.0
 10
4673.926593883602
 20
6311.63024744553
 30
0.0
 10
4675.745604299814
 20
6316.508502652644
 30
0.0
 10
4683.373045704157
 20
6320.3256684503
 30
0.0
 10
4693.122665927413
 20
6321.235173658407
 30
0.0
 10
4693.122665927413
 20
6321.235173658407
 30
0.0
 10
4757.125649852385
 20
6321.235173658407
 30
0.0
 10
4757.125649852385
 20
6321.235173658407
 30
0.0
 10
4766.875270075642
 20
6320.3256684503
 30
0.0
 10
4774.509601670956
 20
6316.508502652644
 30
0.0
 10
4776.328612087168
 20
6311.63024744553
 30
0.0
 10
4776.328612087168
 20
6311.63024744553
 30
0.0
 10
4776.328612087168
 20
6211.629460795183
 30
0.0
 10
4776.328612087168
 20
6211.629460795183
 30
0.0
 10
4776.328612087168
 20
6211.629460795183
 30
0.0
 10
4350.728406030374
 20
6210.430567566316
 30
0.0
 10
4350.728406030374
 20
6210.430567566316
 30
0.0
  0
SPLINE
  5
67
330
1F
100
AcDbEntity
  8
Layer 1
 62
   202
420
  9055202
370
    40
100
AcDbSpline
210
0.0
220
0.0
230
1.0
 70
    11
 71
     3
 72
    17
 73
    13
 74
     0
 42
0.0000000001
 43
0.0000000001
 40
0.0
 40
0.0
 40
0.0
 40
0.0
 40
1.0
 40
1.0
 40
1.0
 40
2.0
 40
2.0
 40
2.0
 40
3.0
 40
3.0
 40
3.0
 40
4.0
 40
4.0
 40
4.0
 40
4.0
 10
4377.131617829328
 20
6260.832314515521
 30
0.0
 10
4382.878037098725
 20
6260.832314515521
 30
0.0
 10
4387.535806194783
 20
6256.177990514949
 30
0.0
 10
4387.535806194783
 20
6250.431571245552
 30
0.0
 10
4387.535806194783
 20
6244.68859707164
 30
0.0
 10
4382.878037098725
 20
6240.034273071068
 30
0.0
 10
4377.131617829328
 20
6240.034273071068
 30
0.0
 10
4371.392088750902
 20
6240.034273071068
 30
0.0
 10
4366.734319654845
 20
6244.68859707164
 30
0.0
 10
4366.734319654845
 20
6250.431571245552
 30
0.0
 10
4366.734319654845
 20
6256.177990514949
 30
0.0
 10
4371.392088750902
 20
6260.832314515521
 30
0.0
 10
4377.131617829328
 20
6260.832314515521
 30
0.0
  0
SPLINE
  5
68
330
1F
100
AcDbEntity
  8
Layer 1
 62
     7
420
 16777215
370
    40
100
AcDbSpline
210
0.0
220
0.0
230
1.0
 70
    11
 71
     3
 72
    32
 73
    28
 74
     0
 42
0.0000000001
 43
0.0000000001
 40
0.0
 40
0.0
 40
0.0
 40
0.0
 40
1.0
 40
1.0
 40
1.0
 40
2.0
 40
2.0
 40
2.0
 40
3.0
 40
3.0
 40
3.0
 40
4.0
 40
4.0
 40
4.0
 40
5.0
 40
5.0
 40
5.0
 40
6.0
 40
6.0
 40
6.0
 40
7.0
 40
7.0
 40
7.0
 40
8.0
 40
8.0
 40
8.0
 40
9.0
 40
9.0
 40
9.0
 40
9.0
 10
4830.733559990234
 20
6043.691391175709
 30
0.0
 10
4830.733559990234
 20
6043.691391175709
 30
0.0
 10
4830.733559990234
 20
6107.68748490971
 30
0.0
 10
4830.733559990234
 20
6107.68748490971
 30
0.0
 10
4832.545680215475
 20
6112.565740116824
 30
0.0
 10
4840.180011810789
 20
6116.382905914481
 30
0.0
 10
4849.936522225016
 20
6117.295856218072
 30
0.0
 10
4849.936522225016
 20
6117.295856218072
 30
0.0
 10
5153.931747843461
 20
6132.09254132722
 30
0.0
 10
5153.931747843461
 20
6132.09254132722
 30
0.0
 10
5153.931747843461
 20
6132.09254132722
 30
0.0
 10
5153.931747843461
 20
6144.887625959438
 30
0.0
 10
5153.931747843461
 20
6144.887625959438
 30
0.0
 10
5155.750758259674
 20
6149.769326262037
 30
0.0
 10
5163.378199664016
 20
6153.586492059694
 30
0.0
 10
5173.127819887273
 20
6154.4959972678
 30
0.0
 10
5173.127819887273
 20
6154.4959972678
 30
0.0
 10
5237.130803812245
 20
6154.4959972678
 30
0.0
 10
5237.130803812245
 20
6154.4959972678
 30
0.0
 10
5246.880424035502
 20
6153.586492059694
 30
0.0
 10
5254.514755630816
 20
6149.769326262037
 30
0.0
 10
5256.333766047028
 20
6144.887625959438
 30
0.0
 10
5256.333766047028
 20
6144.887625959438
 30
0.0
 10
5256.333766047028
 20
6044.890284404576
 30
0.0
 10
5256.333766047028
 20
6044.890284404576
 30
0.0
 10
5256.333766047028
 20
6044.890284404576
 30
0.0
 10
4830.733559990234
 20
6043.691391175709
 30
0.0
 10
4830.733559990234
 20
6043.691391175709
 30
0.0
  0
SPLINE
  5
69
330
1F
100
AcDbEntity
  8
Layer 1
 62
   202
420
  9055202
370
    40
100
AcDbSpline
210
0.0
220
0.0
230
1.0
 70
    11
 71
     3
 72
    17
 73
    13
 74
     0
 42
0.0000000001
 43
0.0000000001
 40
0.0
 40
0.0
 40
0.0
 40
0.0
 40
1.0
 40
1.0
 40
1.0
 40
2.0
 40
2.0
 40
2.0
 40
3.0
 40
3.0
 40
3.0
 40
4.0
 40
4.0
 40
4.0
 40
4.0
 10
4857.136771789188
 20
6094.093138124915
 30
0.0
 10
4862.876300867614
 20
6094.093138124915
 30
0.0
 10
4867.534069963672
 20
6089.435369028856
 30
0.0
 10
4867.534069963672
 20
6083.692394854945
 30
0.0
 10
4867.534069963672
 20
6077.949420681033
 30
0.0
 10
4862.876300867614
 20
6073.291651584976
 30
0.0
 10
4857.136771789188
 20
6073.291651584976
 30
0.0
 10
4851.390352519791
 20
6073.291651584976
 30
0.0
 10
4846.732583423734
 20
6077.949420681033
 30
0.0
 10
4846.732583423734
 20
6083.692394854945
 30
0.0
 10
4846.732583423734
 20
6089.435369028856
 30
0.0
 10
4851.390352519791
 20
6094.093138124915
 30
0.0
 10
4857.136771789188
 20
6094.093138124915
 30
0.0
  0
SPLINE
  5
6A
330
1F
100
AcDbEntity
  8
Layer 1
 62
     7
420
 16777215
370
    40
100
AcDbSpline
210
0.0
220
0.0
230
1.0
 70
    11
 71
     3
 72
    32
 73
    28
 74
     0
 42
0.0000000001
 43
0.0000000001
 40
0.0
 40
0.0
 40
0.0
 40
0.0
 40
1.0
 40
1.0
 40
1.0
 40
2.0
 40
2.0
 40
2.0
 40
3.0
 40
3.0
 40
3.0
 40
4.0
 40
4.0
 40
4.0
 40
5.0
 40
5.0
 40
5.0
 40
6.0
 40
6.0
 40
6.0
 40
7.0
 40
7.0
 40
7.0
 40
8.0
 40
8.0
 40
8.0
 40
9.0
 40
9.0
 40
9.0
 40
9.0
 10
4350.728406030374
 20
6043.691391175709
 30
0.0
 10
4350.728406030374
 20
6043.691391175709
 30
0.0
 10
4350.728406030374
 20
6107.68748490971
 30
0.0
 10
4350.728406030374
 20
6107.68748490971
 30
0.0
 10
4352.547416446585
 20
6112.565740116824
 30
0.0
 10
4360.181748041899
 20
6116.382905914481
 30
0.0
 10
4369.931368265156
 20
6117.295856218072
 30
0.0
 10
4369.931368265156
 20
6117.295856218072
 30
0.0
 10
4673.926593883602
 20
6132.09254132722
 30
0.0
 10
4673.926593883602
 20
6132.09254132722
 30
0.0
 10
4673.926593883602
 20
6132.09254132722
 30
0.0
 10
4673.926593883602
 20
6144.887625959438
 30
0.0
 10
4673.926593883602
 20
6144.887625959438
 30
0.0
 10
4675.745604299814
 20
6149.769326262037
 30
0.0
 10
4683.373045704157
 20
6153.586492059694
 30
0.0
 10
4693.122665927413
 20
6154.4959972678
 30
0.0
 10
4693.122665927413
 20
6154.4959972678
 30
0.0
 10
4757.125649852385
 20
6154.4959972678
 30
0.0
 10
4757.125649852385
 20
6154.4959972678
 30
0.0
 10
4766.875270075642
 20
6153.586492059694
 30
0.0
 10
4774.509601670956
 20
6149.769326262037
 30
0.0
 10
4776.328612087168
 20
6144.887625959438
 30
0.0
 10
4776.328612087168
 20
6144.887625959438
 30
0.0
 10
4776.328612087168
 20
6044.890284404576
 30
0.0
 10
4776.328612087168
 20
6044.890284404576
 30
0.0
 10
4776.328612087168
 20
6044.890284404576
 30
0.0
 10
4350.728406030374
 20
6043.691391175709
 30
0.0
 10
4350.728406030374
 20
6043.691391175709
 30
0.0
  0
SPLINE
  5
6B
330
1F
100
AcDbEntity
  8
Layer 1
 62
   202
420
  9055202
370
    40
100
AcDbSpline
210
0.0
220
0.0
230
1.0
 70
    11
 71
     3
 72
    17
 73
    13
 74
     0
 42
0.0000000001
 43
0.0000000001
 40
0.0
 40
0.0
 40
0.0
 40
0.0
 40
1.0
 40
1.0
 40
1.0
 40
2.0
 40
2.0
 40
2.0
 40
3.0
 40
3.0
 40
3.0
 40
4.0
 40
4.0
 40
4.0
 40
4.0
 10
4377.131617829328
 20
6094.093138124915
 30
0.0
 10
4382.878037098725
 20
6094.093138124915
 30
0.0
 10
4387.535806194783
 20
6089.435369028856
 30
0.0
 10
4387.535806194783
 20
6083.692394854945
 30
0.0
 10
4387.535806194783
 20
6077.949420681033
 30
0.0
 10
4382.878037098725
 20
6073.291651584976
 30
0.0
 10
4377.131617829328
 20
6073.291651584976
 30
0.0
 10
4371.392088750902
 20
6073.291651584976
 30
0.0
 10
4366.734319654845
 20
6077.949420681033
 30
0.0
 10
4366.734319654845
 20
6083.692394854945
 30
0.0
 10
4366.734319654845
 20
6089.435369028856
 30
0.0
 10
4371.392088750902
 20
6094.093138124915
 30
0.0
 10
4377.131617829328
 20
6094.093138124915
 30
0.0
  0
ENDSEC
  0
SECTION
  2
OBJECTS
  0
DICTIONARY
  5
C
330
0
100
AcDbDictionary
281
     1
  3
ACAD_GROUP
350
D
  3
ACAD_LAYOUT
350
1A
  3
ACAD_MLINESTYLE
350
17
  3
ACAD_PLOTSETTINGS
350
19
  3
ACAD_PLOTSTYLENAME
350
E
  3
ACAD_TABLESTYLE
350
6C
  3
ACAD_VISUALSTYLE
350
2A
  0
DICTIONARY
  5
D
102
{ACAD_REACTORS
330
C
102
}
330
C
100
AcDbDictionary
281
     1
  0
DICTIONARY
  5
1A
102
{ACAD_REACTORS
330
C
102
}
330
C
100
AcDbDictionary
281
     1
  3
Layout1
350
1E
  3
Layout2
350
26
  3
Model
350
22
  0
DICTIONARY
  5
17
102
{ACAD_REACTORS
330
C
102
}
330
C
100
AcDbDictionary
281
     1
  3
Standard
350
18
  0
DICTIONARY
  5
19
102
{ACAD_REACTORS
330
C
102
}
330
C
100
AcDbDictionary
281
     1
  0
ACDBDICTIONARYWDFLT
  5
E
102
{ACAD_REACTORS
330
C
102
}
330
C
100
AcDbDictionary
281
     1
  3
Normal
350
F
100
AcDbDictionaryWithDefault
340
F
  0
DICTIONARY
  5
6C
102
{ACAD_REACTORS
330
C
102
}
330
C
100
AcDbDictionary
281
     1
  0
DICTIONARY
  5
2A
102
{ACAD_REACTORS
330
C
102
}
330
C
100
AcDbDictionary
281
     1
  3
2dWireframe
350
2F
  3
3D Hidden
350
31
  3
3dWireframe
350
30
  3
Basic
350
32
  3
Brighten
350
36
  3
ColorChange
350
3A
  3
Conceptual
350
34
  3
Dim
350
35
  3
Facepattern
350
39
  3
Flat
350
2B
  3
FlatWithEdges
350
2C
  3
Gouraud
350
2D
  3
GouraudWithEdges
350
2E
  3
Linepattern
350
38
  3
Realistic
350
33
  3
Thicken
350
37
  0
LAYOUT
  5
1E
102
{ACAD_REACTORS
330
1A
102
}
330
1A
100
AcDbPlotSettings
  1

  2
none_device
  4

  6

 40
0.0
 41
0.0
 42
0.0
 43
0.0
 44
0.0
 45
0.0
 46
0.0
 47
0.0
 48
0.0
 49
0.0
140
0.0
141
0.0
142
1.0
143
1.0
 70
   688
 72
     0
 73
     0
 74
     5
  7

 75
    16
 76
     0
 77
     2
 78
   300
147
1.0
148
0.0
149
0.0
100
AcDbLayout
  1
Layout1
 70
     1
 71
     1
 10
0.0
 20
0.0
 11
12.0
 21
9.0
 12
0.0
 22
0.0
 32
0.0
 14
1.000000000000000E+20
 24
1.000000000000000E+20
 34
1.000000000000000E+20
 15
-1.000000000000000E+20
 25
-1.000000000000000E+20
 35
-1.000000000000000E+20
146
0.0
 13
0.0
 23
0.0
 33
0.0
 16
1.0
 26
0.0
 36
0.0
 17
0.0
 27
1.0
 37
0.0
 76
     0
330
1B
  0
LAYOUT
  5
26
102
{ACAD_REACTORS
330
1A
102
}
330
1A
100
AcDbPlotSettings
  1

  2
none_device
  4

  6

 40
0.0
 41
0.0
 42
0.0
 43
0.0
 44
0.0
 45
0.0
 46
0.0
 47
0.0
 48
0.0
 49
0.0
140
0.0
141
0.0
142
1.0
143
1.0
 70
   688
 72
     0
 73
     0
 74
     5
  7

 75
    16
 76
     0
 77
     2
 78
   300
147
1.0
148
0.0
149
0.0
100
AcDbLayout
  1
Layout2
 70
     1
 71
     2
 10
0.0
 20
0.0
 11
0.0
 21
0.0
 12
0.0
 22
0.0
 32
0.0
 14
0.0
 24
0.0
 34
0.0
 15
0.0
 25
0.0
 35
0.0
146
0.0
 13
0.0
 23
0.0
 33
0.0
 16
1.0
 26
0.0
 36
0.0
 17
0.0
 27
1.0
 37
0.0
 76
     0
330
23
  0
LAYOUT
  5
22
102
{ACAD_REACTORS
330
1A
102
}
330
1A
100
AcDbPlotSettings
  1

  2
none_device
  4

  6

 40
0.0
 41
0.0
 42
0.0
 43
0.0
 44
0.0
 45
0.0
 46
0.0
 47
0.0
 48
0.0
 49
0.0
140
0.0
141
0.0
142
1.0
143
1.0
 70
  1712
 72
     0
 73
     0
 74
     0
  7

 75
     0
 76
     0
 77
     2
 78
   300
147
1.0
148
0.0
149
0.0
100
AcDbLayout
  1
Model
 70
     1
 71
     0
 10
0.0
 20
0.0
 11
12.0
 21
9.0
 12
0.0
 22
0.0
 32
0.0
 14
1.000000000000000E+20
 24
1.000000000000000E+20
 34
1.000000000000000E+20
 15
-1.000000000000000E+20
 25
-1.000000000000000E+20
 35
-1.000000000000000E+20
146
0.0
 13
0.0
 23
0.0
 33
0.0
 16
1.0
 26
0.0
 36
0.0
 17
0.0
 27
1.0
 37
0.0
 76
     0
330
1F
331
29
  0
MLINESTYLE
  5
18
102
{ACAD_REACTORS
330
17
102
}
330
17
100
AcDbMlineStyle
  2
Standard
 70
     0
  3

 62
   256
 51
90.0
 52
90.0
 71
     2
 49
0.5
 62
   256
  6
BYLAYER
 49
-0.5
 62
   256
  6
BYLAYER
  0
ACDBPLACEHOLDER
  5
F
102
{ACAD_REACTORS
330
E
102
}
330
E
  0
VISUALSTYLE
  5
2F
102
{ACAD_REACTORS
330
2A
102
}
330
2A
100
AcDbVisualStyle
  2
2dWireframe
 70
     4
 71
     0
 72
     2
 73
     0
 90
        0
 40
-0.6
 41
-30.0
 62
     5
 63
     7
421
 16777215
 74
     1
 91
        4
 64
     7
 65
   257
 75
     1
175
     1
 42
1.0
 92
        0
 66
   257
 43
1.0
 76
     1
 77
     6
 78
     2
 67
     7
 79
     5
170
     0
171
     0
290
     0
174
     0
 93
        1
 44
0.0
173
     0
291
     0
 45
0.0
1001
ACAD
1000
AcDbSavedByObjectVersion
1070
     0
  0
VISUALSTYLE
  5
31
102
{ACAD_REACTORS
330
2A
102
}
330
2A
100
AcDbVisualStyle
  2
3D Hidden
 70
     6
 71
     1
 72
     2
 73
     2
 90
        0
 40
-0.6
 41
-30.0
 62
     5
 63
     7
421
 16777215
 74
     2
 91
        2
 64
     7
 65
   257
 75
     2
175
     1
 42
40.0
 92
        0
 66
   257
 43
1.0
 76
     1
 77
     6
 78
     2
 67
     7
 79
     3
170
     0
171
     0
290
     0
174
     0
 93
        1
 44
0.0
173
     0
291
     0
 45
0.0
1001
ACAD
1000
AcDbSavedByObjectVersion
1070
     0
  0
VISUALSTYLE
  5
30
102
{ACAD_REACTORS
330
2A
102
}
330
2A
100
AcDbVisualStyle
  2
3dWireframe
 70
     5
 71
     0
 72
     2
 73
     0
 90
        0
 40
-0.6
 41
-30.0
 62
     5
 63
     7
421
 16777215
 74
     1
 91
        4
 64
     7
 65
   257
 75
     1
175
     1
 42
1.0
 92
        0
 66
   257
 43
1.0
 76
     1
 77
     6
 78
     2
 67
     7
 79
     5
170
     0
171
     0
290
     0
174
     0
 93
        1
 44
0.0
173
     0
291
     0
 45
0.0
1001
ACAD
1000
AcDbSavedByObjectVersion
1070
     0
  0
VISUALSTYLE
  5
32
102
{ACAD_REACTORS
330
2A
102
}
330
2A
100
AcDbVisualStyle
  2
Basic
 70
     7
 71
     1
 72
     0
 73
     1
 90
        0
 40
-0.6
 41
-30.0
 62
     5
 63
     7
421
 16777215
 74
     0
 91
        4
 64
     7
 65
   257
 75
     1
175
     1
 42
1.0
 92
        8
 66
     7
 43
1.0
 76
     1
 77
     6
 78
     2
 67
     7
 79
     5
170
     0
171
     0
290
     0
174
     0
 93
        1
 44
0.0
173
     0
291
     1
 45
0.0
1001
ACAD
1000
AcDbSavedByObjectVersion
1070
     0
  0
VISUALSTYLE
  5
36
102
{ACAD_REACTORS
330
2A
102
}
330
2A
100
AcDbVisualStyle
  2
Brighten
 70
    12
 71
     2
 72
     2
 73
     0
 90
        0
 40
-0.6
 41
-30.0
 62
     5
 63
     7
421
 16777215
 74
     1
 91
        4
 64
     7
 65
   257
 75
     1
175
     1
 42
1.0
 92
        8
 66
     7
 43
1.0
 76
     1
 77
     6
 78
     2
 67
     7
 79
     5
170
     0
171
     0
290
     0
174
     0
 93
        1
 44
50.0
173
     0
291
     1
 45
0.0
1001
ACAD
1000
AcDbSavedByObjectVersion
1070
     0
  0
VISUALSTYLE
  5
3A
102
{ACAD_REACTORS
330
2A
102
}
330
2A
100
AcDbVisualStyle
  2
ColorChange
 70
    16
 71
     2
 72
     2
 73
     3
 90
        0
 40
-0.6
 41
-30.0
 62
     5
 63
     8
421
  8421504
 74
     1
 91
        4
 64
     7
 65
   257
 75
     1
175
     1
 42
1.0
 92
        8
 66
     8
424
  8421504
 43
1.0
 76
     1
 77
     6
 78
     2
 67
     7
 79
     5
170
     0
171
     0
290
     0
174
     0
 93
        1
 44
0.0
173
     0
291
     1
 45
0.0
1001
ACAD
1000
AcDbSavedByObjectVersion
1070
     0
  0
VISUALSTYLE
  5
34
102
{ACAD_REACTORS
330
2A
102
}
330
2A
100
AcDbVisualStyle
  2
Conceptual
 70
     9
 71
     3
 72
     2
 73
     0
 90
        0
 40
-0.6
 41
-30.0
 62
     5
 63
     7
421
 16777215
 74
     2
 91
        2
 64
     7
 65
   257
 75
     1
175
     1
 42
40.0
 92
        8
 66
     7
 43
1.0
 76
     1
 77
     6
 78
     2
 67
     7
 79
     3
170
     0
171
     0
290
     0
174
     0
 93
        1
 44
0.0
173
     0
291
     0
 45
0.0
1001
ACAD
1000
AcDbSavedByObjectVersion
1070
     0
  0
VISUALSTYLE
  5
35
102
{ACAD_REACTORS
330
2A
102
}
330
2A
100
AcDbVisualStyle
  2
Dim
 70
    11
 71
     2
 72
     2
 73
     0
 90
        0
 40
-0.6
 41
-30.0
 62
     5
 63
     7
421
 16777215
 74
     1
 91
        4
 64
     7
 65
   257
 75
     1
175
     1
 42
1.0
 92
        8
 66
     7
 43
1.0
 76
     1
 77
     6
 78
     2
 67
     7
 79
     5
170
     0
171
     0
290
     0
174
     0
 93
        1
 44
-50.0
173
     0
291
     1
 45
0.0
1001
ACAD
1000
AcDbSavedByObjectVersion
1070
     0
  0
VISUALSTYLE
  5
39
102
{ACAD_REACTORS
330
2A
102
}
330
2A
100
AcDbVisualStyle
  2
Facepattern
 70
    15
 71
     2
 72
     2
 73
     0
 90
        0
 40
-0.6
 41
-30.0
 62
     5
 63
     7
421
 16777215
 74
     1
 91
        4
 64
     7
 65
   257
 75
     1
175
     1
 42
1.0
 92
        8
 66
     7
 43
1.0
 76
     1
 77
     6
 78
     2
 67
     7
 79
     5
170
     0
171
     0
290
     0
174
     0
 93
        1
 44
0.0
173
     0
291
     1
 45
0.0
1001
ACAD
1000
AcDbSavedByObjectVersion
1070
     0
  0
VISUALSTYLE
  5
2B
102
{ACAD_REACTORS
330
2A
102
}
330
2A
100
AcDbVisualStyle
  2
Flat
 70
     0
 71
     2
 72
     1
 73
     1
 90
        2
 40
-0.6
 41
30.0
 62
     5
 63
     7
421
 16777215
 74
     0
 91
        4
 64
     7
 65
   257
 75
     1
175
     1
 42
1.0
 92
        8
 66
     7
 43
1.0
 76
     1
 77
     6
 78
     2
 67
     7
 79
     5
170
     0
171
     0
290
     0
174
     0
 93
       13
 44
0.0
173
     0
291
     1
 45
0.0
1001
ACAD
1000
AcDbSavedByObjectVersion
1070
     0
  0
VISUALSTYLE
  5
2C
102
{ACAD_REACTORS
330
2A
102
}
330
2A
100
AcDbVisualStyle
  2
FlatWithEdges
 70
     1
 71
     2
 72
     1
 73
     1
 90
        2
 40
-0.6
 41
30.0
 62
     5
 63
     7
421
 16777215
 74
     1
 91
        4
 64
     7
 65
   257
 75
     1
175
     1
 42
1.0
 92
        0
 66
   257
 43
1.0
 76
     1
 77
     6
 78
     2
 67
     7
 79
     5
170
     0
171
     0
290
     0
174
     0
 93
       13
 44
0.0
173
     0
291
     1
 45
0.0
1001
ACAD
1000
AcDbSavedByObjectVersion
1070
     0
  0
VISUALSTYLE
  5
2D
102
{ACAD_REACTORS
330
2A
102
}
330
2A
100
AcDbVisualStyle
  2
Gouraud
 70
     2
 71
     2
 72
     2
 73
     1
 90
        2
 40
-0.6
 41
30.0
 62
     5
 63
     7
421
 16777215
 74
     0
 91
        4
 64
     7
 65
   257
 75
     1
175
     1
 42
1.0
 92
        0
 66
     7
 43
1.0
 76
     1
 77
     6
 78
     2
 67
     7
 79
     5
170
     0
171
     0
290
     0
174
     0
 93
       13
 44
0.0
173
     0
291
     1
 45
0.0
1001
ACAD
1000
AcDbSavedByObjectVersion
1070
     0
  0
VISUALSTYLE
  5
2E
102
{ACAD_REACTORS
330
2A
102
}
330
2A
100
AcDbVisualStyle
  2
GouraudWithEdges
 70
     3
 71
     2
 72
     2
 73
     1
 90
        2
 40
-0.6
 41
30.0
 62
     5
 63
     7
421
 16777215
 74
     1
 91
        4
 64
     7
 65
   257
 75
     1
175
     1
 42
1.0
 92
        0
 66
   257
 43
1.0
 76
     1
 77
     6
 78
     2
 67
     7
 79
     5
170
     0
171
     0
290
     0
174
     0
 93
       13
 44
0.0
173
     0
291
     1
 45
0.0
1001
ACAD
1000
AcDbSavedByObjectVersion
1070
     0
  0
VISUALSTYLE
  5
38
102
{ACAD_REACTORS
330
2A
102
}
330
2A
100
AcDbVisualStyle
  2
Linepattern
 70
    14
 71
     2
 72
     2
 73
     0
 90
        0
 40
-0.6
 41
-30.0
 62
     5
 63
     7
421
 16777215
 74
     1
 91
        4
 64
     7
 65
   257
 75
     7
175
     7
 42
1.0
 92
        8
 66
     7
 43
1.0
 76
     1
 77
     6
 78
     2
 67
     7
 79
     5
170
     0
171
     0
290
     0
174
     0
 93
        1
 44
0.0
173
     0
291
     1
 45
0.0
1001
ACAD
1000
AcDbSavedByObjectVersion
1070
     0
  0
VISUALSTYLE
  5
33
102
{ACAD_REACTORS
330
2A
102
}
330
2A
100
AcDbVisualStyle
  2
Realistic
 70
     8
 71
     2
 72
     2
 73
     0
 90
        0
 40
-0.6
 41
-30.0
 62
     5
 63
     7
421
 16777215
 74
     1
 91
        0
 64
     7
 65
   257
 75
     1
175
     1
 42
1.0
 92
        8
 66
     8
424
  7895160
 43
1.0
 76
     1
 77
     6
 78
     2
 67
     7
 79
     5
170
     0
171
     0
290
     0
174
     0
 93
       13
 44
0.0
173
     0
291
     0
 45
0.0
1001
ACAD
1000
AcDbSavedByObjectVersion
1070
     0
  0
VISUALSTYLE
  5
37
102
{ACAD_REACTORS
330
2A
102
}
330
2A
100
AcDbVisualStyle
  2
Thicken
 70
    13
 71
     2
 72
     2
 73
     0
 90
        0
 40
-0.6
 41
-30.0
 62
     5
 63
     7
421
 16777215
 74
     1
 91
        4
 64
     7
 65
   257
 75
     1
175
     1
 42
1.0
 92
       12
 66
     7
 43
1.0
 76
     1
 77
     6
 78
     2
 67
     7
 79
     5
170
     0
171
     0
290
     0
174
     0
 93
        1
 44
0.0
173
     0
291
     1
 45
0.0
1001
ACAD
1000
AcDbSavedByObjectVersion
1070
     0
  0
ENDSEC
  0
EOF
