  0
SECTION
  2
BLOCKS
  0
ENDSEC
  0
SECTION
  2
ENTITIES
  0
LINE
  8
0
 10
3.47961
 20
-48.5769
 11
4.12395
 21
-47.3763
  0
LINE
  8
0
 10
4.12395
 20
-47.3763
 11
4.68875
 21
-46.1721
  0
LINE
  8
0
 10
4.68875
 20
-46.1721
 11
5.17079
 21
-44.9673
  0
LINE
  8
0
 10
5.17079
 20
-44.9673
 11
5.56538
 21
-43.7653
  0
LINE
  8
0
 10
5.56538
 20
-43.7653
 11
5.86519
 21
-42.5697
  0
LINE
  8
0
 10
5.86519
 20
-42.5697
 11
6.74533
 21
-42.4386
  0
LINE
  8
0
 10
6.74533
 20
-42.4386
 11
7.57661
 21
-42.2986
  0
LINE
  8
0
 10
7.57661
 20
-42.2986
 11
8.2312
 21
-43.3431
  0
LINE
  8
0
 10
8.2312
 20
-43.3431
 11
8.97794
 21
-44.3643
  0
LINE
  8
0
 10
8.97794
 20
-44.3643
 11
9.80869
 21
-45.3612
  0
LINE
  8
0
 10
9.80869
 20
-45.3612
 11
10.718
 21
-46.3319
  0
LINE
  8
0
 10
10.718
 20
-46.3319
 11
11.7018
 21
-47.2747
  0
LINE
  8
0
 10
11.7018
 20
-47.2747
 11
12.8896
 21
-46.9647
  0
LINE
  8
0
 10
12.8896
 20
-46.9647
 11
13.2874
 21
-45.6615
  0
LINE
  8
0
 10
13.2874
 20
-45.6615
 11
13.6064
 21
-44.3702
  0
LINE
  8
0
 10
13.6064
 20
-44.3702
 11
13.8441
 21
-43.0945
  0
LINE
  8
0
 10
13.8441
 20
-43.0945
 11
13.9966
 21
-41.8386
  0
LINE
  8
0
 10
13.9966
 20
-41.8386
 11
14.0574
 21
-40.6075
  0
LINE
  8
0
 10
14.0574
 20
-40.6075
 11
14.8951
 21
-40.3073
  0
LINE
  8
0
 10
14.8951
 20
-40.3073
 11
15.6831
 21
-40.0077
  0
LINE
  8
0
 10
15.6831
 20
-40.0077
 11
16.5289
 21
-40.9044
  0
LINE
  8
0
 10
16.5289
 20
-40.9044
 11
17.4605
 21
-41.7604
  0
LINE
  8
0
 10
17.4605
 20
-41.7604
 11
18.4697
 21
-42.576
  0
LINE
  8
0
 10
18.4697
 20
-42.576
 11
19.5509
 21
-43.3507
  0
LINE
  8
0
 10
19.5509
 20
-43.3507
 11
20.6998
 21
-44.0834
  0
LINE
  8
0
 10
20.6998
 20
-44.0834
 11
21.8043
 21
-43.5476
  0
LINE
  8
0
 10
21.8043
 20
-43.5476
 11
21.9402
 21
-42.1919
  0
LINE
  8
0
 10
21.9402
 20
-42.1919
 11
22.0011
 21
-40.8631
  0
LINE
  8
0
 10
22.0011
 20
-40.8631
 11
21.9854
 21
-39.5656
  0
LINE
  8
0
 10
21.9854
 20
-39.5656
 11
21.89
 21
-38.3041
  0
LINE
  8
0
 10
21.89
 20
-38.3041
 11
21.7094
 21
-37.0847
  0
LINE
  8
0
 10
21.7094
 20
-37.0847
 11
22.4724
 21
-36.6269
  0
LINE
  8
0
 10
22.4724
 20
-36.6269
 11
23.1869
 21
-36.1794
  0
LINE
  8
0
 10
23.1869
 20
-36.1794
 11
24.1913
 21
-36.8938
  0
LINE
  8
0
 10
24.1913
 20
-36.8938
 11
25.272
 21
-37.5516
  0
LINE
  8
0
 10
25.272
 20
-37.5516
 11
26.421
 21
-38.1546
  0
LINE
  8
0
 10
26.421
 20
-38.1546
 11
27.6326
 21
-38.7035
  0
LINE
  8
0
 10
27.6326
 20
-38.7035
 11
28.9023
 21
-39.198
  0
LINE
  8
0
 10
28.9023
 20
-39.198
 11
29.8811
 21
-38.4571
  0
LINE
  8
0
 10
29.8811
 20
-38.4571
 11
29.7498
 21
-37.1008
  0
LINE
  8
0
 10
29.7498
 20
-37.1008
 11
29.5504
 21
-35.7858
  0
LINE
  8
0
 10
29.5504
 20
-35.7858
 11
29.2819
 21
-34.5162
  0
LINE
  8
0
 10
29.2819
 20
-34.5162
 11
28.9422
 21
-33.2975
  0
LINE
  8
0
 10
28.9422
 20
-33.2975
 11
28.5272
 21
-32.1369
  0
LINE
  8
0
 10
28.5272
 20
-32.1369
 11
29.1862
 21
-31.5389
  0
LINE
  8
0
 10
29.1862
 20
-31.5389
 11
29.7996
 21
-30.9607
  0
LINE
  8
0
 10
29.7996
 20
-30.9607
 11
30.9241
 21
-31.4654
  0
LINE
  8
0
 10
30.9241
 20
-31.4654
 11
32.1124
 21
-31.8997
  0
LINE
  8
0
 10
32.1124
 20
-31.8997
 11
33.3569
 21
-32.267
  0
LINE
  8
0
 10
33.3569
 20
-32.267
 11
34.6523
 21
-32.569
  0
LINE
  8
0
 10
34.6523
 20
-32.569
 11
35.9941
 21
-32.8063
  0
LINE
  8
0
 10
35.9941
 20
-32.8063
 11
36.8096
 21
-31.8886
  0
LINE
  8
0
 10
36.8096
 20
-31.8886
 11
36.4162
 21
-30.5841
  0
LINE
  8
0
 10
36.4162
 20
-30.5841
 11
35.9641
 21
-29.3332
  0
LINE
  8
0
 10
35.9641
 20
-29.3332
 11
35.453
 21
-28.1404
  0
LINE
  8
0
 10
35.453
 20
-28.1404
 11
34.8821
 21
-27.0114
  0
LINE
  8
0
 10
34.8821
 20
-27.0114
 11
34.2486
 21
-25.954
  0
LINE
  8
0
 10
34.2486
 20
-25.954
 11
34.7783
 21
-25.239
  0
LINE
  8
0
 10
34.7783
 20
-25.239
 11
35.2671
 21
-24.5522
  0
LINE
  8
0
 10
35.2671
 20
-24.5522
 11
36.4685
 21
-24.8278
  0
LINE
  8
0
 10
36.4685
 20
-24.8278
 11
37.7187
 21
-25.022
  0
LINE
  8
0
 10
37.7187
 20
-25.022
 11
39.011
 21
-25.1394
  0
LINE
  8
0
 10
39.011
 20
-25.1394
 11
40.3404
 21
-25.1829
  0
LINE
  8
0
 10
40.3404
 20
-25.1829
 11
41.7027
 21
-25.1538
  0
LINE
  8
0
 10
41.7027
 20
-25.1538
 11
42.3234
 21
-24.0947
  0
LINE
  8
0
 10
42.3234
 20
-24.0947
 11
41.6831
 21
-22.8919
  0
LINE
  8
0
 10
41.6831
 20
-22.8919
 11
40.9956
 21
-21.7533
  0
LINE
  8
0
 10
40.9956
 20
-21.7533
 11
40.2617
 21
-20.6831
  0
LINE
  8
0
 10
40.2617
 20
-20.6831
 11
39.4815
 21
-19.6872
  0
LINE
  8
0
 10
39.4815
 20
-19.6872
 11
38.6539
 21
-18.7737
  0
LINE
  8
0
 10
38.6539
 20
-18.7737
 11
39.034
 21
-17.9691
  0
LINE
  8
0
 10
39.034
 20
-17.9691
 11
39.3794
 21
-17.2001
  0
LINE
  8
0
 10
39.3794
 20
-17.2001
 11
40.6115
 21
-17.2361
  0
LINE
  8
0
 10
40.6115
 20
-17.2361
 11
41.8755
 21
-17.1826
  0
LINE
  8
0
 10
41.8755
 20
-17.1826
 11
43.1659
 21
-17.0457
  0
LINE
  8
0
 10
43.1659
 20
-17.0457
 11
44.4782
 21
-16.829
  0
LINE
  8
0
 10
44.4782
 20
-16.829
 11
45.8086
 21
-16.5347
  0
LINE
  8
0
 10
45.8086
 20
-16.5347
 11
46.2108
 21
-15.3748
  0
LINE
  8
0
 10
46.2108
 20
-15.3748
 11
45.3482
 21
-14.3201
  0
LINE
  8
0
 10
45.3482
 20
-14.3201
 11
44.4518
 21
-13.3374
  0
LINE
  8
0
 10
44.4518
 20
-13.3374
 11
43.5232
 21
-12.431
  0
LINE
  8
0
 10
43.5232
 20
-12.431
 11
42.5636
 21
-11.6065
  0
LINE
  8
0
 10
42.5636
 20
-11.6065
 11
41.5738
 21
-10.872
  0
LINE
  8
0
 10
41.5738
 20
-10.872
 11
41.7895
 21
-10.0087
  0
LINE
  8
0
 10
41.7895
 20
-10.0087
 11
41.9783
 21
-9.18709
  0
LINE
  8
0
 10
41.9783
 20
-9.18709
 11
43.1937
 21
-8.98203
  0
LINE
  8
0
 10
43.1937
 20
-8.98203
 11
44.423
 21
-8.68295
  0
LINE
  8
0
 10
44.423
 20
-8.68295
 11
45.6619
 21
-8.29692
  0
LINE
  8
0
 10
45.6619
 20
-8.29692
 11
46.9067
 21
-7.82834
  0
LINE
  8
0
 10
46.9067
 20
-7.82834
 11
48.1542
 21
-7.2802
  0
LINE
  8
0
 10
48.1542
 20
-7.2802
 11
48.3224
 21
-6.06412
  0
LINE
  8
0
 10
48.3224
 20
-6.06412
 11
47.2706
 21
-5.19795
  0
LINE
  8
0
 10
47.2706
 20
-5.19795
 11
46.1996
 21
-4.40906
  0
LINE
  8
0
 10
46.1996
 20
-4.40906
 11
45.1121
 21
-3.70123
  0
LINE
  8
0
 10
45.1121
 20
-3.70123
 11
44.0101
 21
-3.07971
  0
LINE
  8
0
 10
44.0101
 20
-3.07971
 11
42.896
 21
-2.55243
  0
LINE
  8
0
 10
42.896
 20
-2.55243
 11
42.9391
 21
-1.66364
  0
LINE
  8
0
 10
42.9391
 20
-1.66364
 11
42.964
 21
-0.820999
  0
LINE
  8
0
 10
42.964
 20
-0.820999
 11
44.1161
 21
-0.382751
  0
LINE
  8
0
 10
44.1161
 20
-0.382751
 11
45.2634
 21
0.150375
  0
LINE
  8
0
 10
45.2634
 20
0.150375
 11
46.4032
 21
0.770691
  0
LINE
  8
0
 10
46.4032
 20
0.770691
 11
47.5327
 21
1.47311
  0
LINE
  8
0
 10
47.5327
 20
1.47311
 11
48.6492
 21
2.25409
  0
LINE
  8
0
 10
48.6492
 20
2.25409
 11
48.5769
 21
3.47961
  0
LINE
  8
0
 10
48.5769
 20
3.47961
 11
47.3763
 21
4.12395
  0
LINE
  8
0
 10
47.3763
 20
4.12395
 11
46.1721
 21
4.68875
  0
LINE
  8
0
 10
46.1721
 20
4.68875
 11
44.9673
 21
5.17079
  0
LINE
  8
0
 10
44.9673
 20
5.17079
 11
43.7653
 21
5.56538
  0
LINE
  8
0
 10
43.7653
 20
5.56538
 11
42.5697
 21
5.86519
  0
LINE
  8
0
 10
42.5697
 20
5.86519
 11
42.4386
 21
6.74533
  0
LINE
  8
0
 10
42.4386
 20
6.74533
 11
42.2986
 21
7.57661
  0
LINE
  8
0
 10
42.2986
 20
7.57661
 11
43.3431
 21
8.2312
  0
LINE
  8
0
 10
43.3431
 20
8.2312
 11
44.3643
 21
8.97794
  0
LINE
  8
0
 10
44.3643
 20
8.97794
 11
45.3612
 21
9.80869
  0
LINE
  8
0
 10
45.3612
 20
9.80869
 11
46.3319
 21
10.718
  0
LINE
  8
0
 10
46.3319
 20
10.718
 11
47.2747
 21
11.7018
  0
LINE
  8
0
 10
47.2747
 20
11.7018
 11
46.9647
 21
12.8896
  0
LINE
  8
0
 10
46.9647
 20
12.8896
 11
45.6615
 21
13.2874
  0
LINE
  8
0
 10
45.6615
 20
13.2874
 11
44.3702
 21
13.6064
  0
LINE
  8
0
 10
44.3702
 20
13.6064
 11
43.0945
 21
13.8441
  0
LINE
  8
0
 10
43.0945
 20
13.8441
 11
41.8386
 21
13.9966
  0
LINE
  8
0
 10
41.8386
 20
13.9966
 11
40.6075
 21
14.0574
  0
LINE
  8
0
 10
40.6075
 20
14.0574
 11
40.3073
 21
14.8951
  0
LINE
  8
0
 10
40.3073
 20
14.8951
 11
40.0077
 21
15.6831
  0
LINE
  8
0
 10
40.0077
 20
15.6831
 11
40.9044
 21
16.5289
  0
LINE
  8
0
 10
40.9044
 20
16.5289
 11
41.7604
 21
17.4605
  0
LINE
  8
0
 10
41.7604
 20
17.4605
 11
42.576
 21
18.4697
  0
LINE
  8
0
 10
42.576
 20
18.4697
 11
43.3507
 21
19.5509
  0
LINE
  8
0
 10
43.3507
 20
19.5509
 11
44.0834
 21
20.6998
  0
LINE
  8
0
 10
44.0834
 20
20.6998
 11
43.5476
 21
21.8043
  0
LINE
  8
0
 10
43.5476
 20
21.8043
 11
42.1919
 21
21.9402
  0
LINE
  8
0
 10
42.1919
 20
21.9402
 11
40.8631
 21
22.0011
  0
LINE
  8
0
 10
40.8631
 20
22.0011
 11
39.5656
 21
21.9854
  0
LINE
  8
0
 10
39.5656
 20
21.9854
 11
38.3041
 21
21.89
  0
LINE
  8
0
 10
38.3041
 20
21.89
 11
37.0847
 21
21.7094
  0
LINE
  8
0
 10
37.0847
 20
21.7094
 11
36.6269
 21
22.4724
  0
LINE
  8
0
 10
36.6269
 20
22.4724
 11
36.1794
 21
23.1869
  0
LINE
  8
0
 10
36.1794
 20
23.1869
 11
36.8938
 21
24.1913
  0
LINE
  8
0
 10
36.8938
 20
24.1913
 11
37.5516
 21
25.272
  0
LINE
  8
0
 10
37.5516
 20
25.272
 11
38.1546
 21
26.421
  0
LINE
  8
0
 10
38.1546
 20
26.421
 11
38.7035
 21
27.6326
  0
LINE
  8
0
 10
38.7035
 20
27.6326
 11
39.198
 21
28.9023
  0
LINE
  8
0
 10
39.198
 20
28.9023
 11
38.4571
 21
29.8811
  0
LINE
  8
0
 10
38.4571
 20
29.8811
 11
37.1008
 21
29.7498
  0
LINE
  8
0
 10
37.1008
 20
29.7498
 11
35.7858
 21
29.5504
  0
LINE
  8
0
 10
35.7858
 20
29.5504
 11
34.5162
 21
29.2819
  0
LINE
  8
0
 10
34.5162
 20
29.2819
 11
33.2975
 21
28.9422
  0
LINE
  8
0
 10
33.2975
 20
28.9422
 11
32.1369
 21
28.5272
  0
LINE
  8
0
 10
32.1369
 20
28.5272
 11
31.5389
 21
29.1862
  0
LINE
  8
0
 10
31.5389
 20
29.1862
 11
30.9607
 21
29.7996
  0
LINE
  8
0
 10
30.9607
 20
29.7996
 11
31.4654
 21
30.9241
  0
LINE
  8
0
 10
31.4654
 20
30.9241
 11
31.8997
 21
32.1124
  0
LINE
  8
0
 10
31.8997
 20
32.1124
 11
32.267
 21
33.3569
  0
LINE
  8
0
 10
32.267
 20
33.3569
 11
32.569
 21
34.6523
  0
LINE
  8
0
 10
32.569
 20
34.6523
 11
32.8063
 21
35.9941
  0
LINE
  8
0
 10
32.8063
 20
35.9941
 11
31.8886
 21
36.8096
  0
LINE
  8
0
 10
31.8886
 20
36.8096
 11
30.5841
 21
36.4162
  0
LINE
  8
0
 10
30.5841
 20
36.4162
 11
29.3332
 21
35.9641
  0
LINE
  8
0
 10
29.3332
 20
35.9641
 11
28.1404
 21
35.453
  0
LINE
  8
0
 10
28.1404
 20
35.453
 11
27.0114
 21
34.8821
  0
LINE
  8
0
 10
27.0114
 20
34.8821
 11
25.954
 21
34.2486
  0
LINE
  8
0
 10
25.954
 20
34.2486
 11
25.239
 21
34.7783
  0
LINE
  8
0
 10
25.239
 20
34.7783
 11
24.5522
 21
35.2671
  0
LINE
  8
0
 10
24.5522
 20
35.2671
 11
24.8278
 21
36.4685
  0
LINE
  8
0
 10
24.8278
 20
36.4685
 11
25.022
 21
37.7187
  0
LINE
  8
0
 10
25.022
 20
37.7187
 11
25.1394
 21
39.011
  0
LINE
  8
0
 10
25.1394
 20
39.011
 11
25.1829
 21
40.3404
  0
LINE
  8
0
 10
25.1829
 20
40.3404
 11
25.1538
 21
41.7027
  0
LINE
  8
0
 10
25.1538
 20
41.7027
 11
24.0947
 21
42.3234
  0
LINE
  8
0
 10
24.0947
 20
42.3234
 11
22.8919
 21
41.6831
  0
LINE
  8
0
 10
22.8919
 20
41.6831
 11
21.7533
 21
40.9956
  0
LINE
  8
0
 10
21.7533
 20
40.9956
 11
20.6831
 21
40.2617
  0
LINE
  8
0
 10
20.6831
 20
40.2617
 11
19.6872
 21
39.4815
  0
LINE
  8
0
 10
19.6872
 20
39.4815
 11
18.7737
 21
38.6539
  0
LINE
  8
0
 10
18.7737
 20
38.6539
 11
17.9691
 21
39.034
  0
LINE
  8
0
 10
17.9691
 20
39.034
 11
17.2001
 21
39.3794
  0
LINE
  8
0
 10
17.2001
 20
39.3794
 11
17.2361
 21
40.6115
  0
LINE
  8
0
 10
17.2361
 20
40.6115
 11
17.1826
 21
41.8755
  0
LINE
  8
0
 10
17.1826
 20
41.8755
 11
17.0457
 21
43.1659
  0
LINE
  8
0
 10
17.0457
 20
43.1659
 11
16.829
 21
44.4782
  0
LINE
  8
0
 10
16.829
 20
44.4782
 11
16.5347
 21
45.8086
  0
LINE
  8
0
 10
16.5347
 20
45.8086
 11
15.3748
 21
46.2108
  0
LINE
  8
0
 10
15.3748
 20
46.2108
 11
14.3201
 21
45.3482
  0
LINE
  8
0
 10
14.3201
 20
45.3482
 11
13.3374
 21
44.4518
  0
LINE
  8
0
 10
13.3374
 20
44.4518
 11
12.431
 21
43.5232
  0
LINE
  8
0
 10
12.431
 20
43.5232
 11
11.6065
 21
42.5636
  0
LINE
  8
0
 10
11.6065
 20
42.5636
 11
10.872
 21
41.5738
  0
LINE
  8
0
 10
10.872
 20
41.5738
 11
10.0087
 21
41.7895
  0
LINE
  8
0
 10
10.0087
 20
41.7895
 11
9.18709
 21
41.9783
  0
LINE
  8
0
 10
9.18709
 20
41.9783
 11
8.98203
 21
43.1937
  0
LINE
  8
0
 10
8.98203
 20
43.1937
 11
8.68295
 21
44.423
  0
LINE
  8
0
 10
8.68295
 20
44.423
 11
8.29692
 21
45.6619
  0
LINE
  8
0
 10
8.29692
 20
45.6619
 11
7.82834
 21
46.9067
  0
LINE
  8
0
 10
7.82834
 20
46.9067
 11
7.2802
 21
48.1542
  0
LINE
  8
0
 10
7.2802
 20
48.1542
 11
6.06412
 21
48.3224
  0
LINE
  8
0
 10
6.06412
 20
48.3224
 11
5.19795
 21
47.2706
  0
LINE
  8
0
 10
5.19795
 20
47.2706
 11
4.40906
 21
46.1996
  0
LINE
  8
0
 10
4.40906
 20
46.1996
 11
3.70123
 21
45.1121
  0
LINE
  8
0
 10
3.70123
 20
45.1121
 11
3.07971
 21
44.0101
  0
LINE
  8
0
 10
3.07971
 20
44.0101
 11
2.55243
 21
42.896
  0
LINE
  8
0
 10
2.55243
 20
42.896
 11
1.66364
 21
42.9391
  0
LINE
  8
0
 10
1.66364
 20
42.9391
 11
0.820999
 21
42.964
  0
LINE
  8
0
 10
0.820999
 20
42.964
 11
0.382751
 21
44.1161
  0
LINE
  8
0
 10
0.382751
 20
44.1161
 11
-0.150375
 21
45.2634
  0
LINE
  8
0
 10
-0.150375
 20
45.2634
 11
-0.770691
 21
46.4032
  0
LINE
  8
0
 10
-0.770691
 20
46.4032
 11
-1.47311
 21
47.5327
  0
LINE
  8
0
 10
-1.47311
 20
47.5327
 11
-2.25409
 21
48.6492
  0
LINE
  8
0
 10
-2.25409
 20
48.6492
 11
-3.47961
 21
48.5769
  0
LINE
  8
0
 10
-3.47961
 20
48.5769
 11
-4.12395
 21
47.3763
  0
LINE
  8
0
 10
-4.12395
 20
47.3763
 11
-4.68875
 21
46.1721
  0
LINE
  8
0
 10
-4.68875
 20
46.1721
 11
-5.17079
 21
44.9673
  0
LINE
  8
0
 10
-5.17079
 20
44.9673
 11
-5.56538
 21
43.7653
  0
LINE
  8
0
 10
-5.56538
 20
43.7653
 11
-5.86519
 21
42.5697
  0
LINE
  8
0
 10
-5.86519
 20
42.5697
 11
-6.74533
 21
42.4386
  0
LINE
  8
0
 10
-6.74533
 20
42.4386
 11
-7.57661
 21
42.2986
  0
LINE
  8
0
 10
-7.57661
 20
42.2986
 11
-8.2312
 21
43.3431
  0
LINE
  8
0
 10
-8.2312
 20
43.3431
 11
-8.97794
 21
44.3643
  0
LINE
  8
0
 10
-8.97794
 20
44.3643
 11
-9.80869
 21
45.3612
  0
LINE
  8
0
 10
-9.80869
 20
45.3612
 11
-10.718
 21
46.3319
  0
LINE
  8
0
 10
-10.718
 20
46.3319
 11
-11.7018
 21
47.2747
  0
LINE
  8
0
 10
-11.7018
 20
47.2747
 11
-12.8896
 21
46.9647
  0
LINE
  8
0
 10
-12.8896
 20
46.9647
 11
-13.2874
 21
45.6615
  0
LINE
  8
0
 10
-13.2874
 20
45.6615
 11
-13.6064
 21
44.3702
  0
LINE
  8
0
 10
-13.6064
 20
44.3702
 11
-13.8441
 21
43.0945
  0
LINE
  8
0
 10
-13.8441
 20
43.0945
 11
-13.9966
 21
41.8386
  0
LINE
  8
0
 10
-13.9966
 20
41.8386
 11
-14.0574
 21
40.6075
  0
LINE
  8
0
 10
-14.0574
 20
40.6075
 11
-14.8951
 21
40.3073
  0
LINE
  8
0
 10
-14.8951
 20
40.3073
 11
-15.6831
 21
40.0077
  0
LINE
  8
0
 10
-15.6831
 20
40.0077
 11
-16.5289
 21
40.9044
  0
LINE
  8
0
 10
-16.5289
 20
40.9044
 11
-17.4605
 21
41.7604
  0
LINE
  8
0
 10
-17.4605
 20
41.7604
 11
-18.4697
 21
42.576
  0
LINE
  8
0
 10
-18.4697
 20
42.576
 11
-19.5509
 21
43.3507
  0
LINE
  8
0
 10
-19.5509
 20
43.3507
 11
-20.6998
 21
44.0834
  0
LINE
  8
0
 10
-20.6998
 20
44.0834
 11
-21.8043
 21
43.5476
  0
LINE
  8
0
 10
-21.8043
 20
43.5476
 11
-21.9402
 21
42.1919
  0
LINE
  8
0
 10
-21.9402
 20
42.1919
 11
-22.0011
 21
40.8631
  0
LINE
  8
0
 10
-22.0011
 20
40.8631
 11
-21.9854
 21
39.5656
  0
LINE
  8
0
 10
-21.9854
 20
39.5656
 11
-21.89
 21
38.3041
  0
LINE
  8
0
 10
-21.89
 20
38.3041
 11
-21.7094
 21
37.0847
  0
LINE
  8
0
 10
-21.7094
 20
37.0847
 11
-22.4724
 21
36.6269
  0
LINE
  8
0
 10
-22.4724
 20
36.6269
 11
-23.1869
 21
36.1794
  0
LINE
  8
0
 10
-23.1869
 20
36.1794
 11
-24.1913
 21
36.8938
  0
LINE
  8
0
 10
-24.1913
 20
36.8938
 11
-25.272
 21
37.5516
  0
LINE
  8
0
 10
-25.272
 20
37.5516
 11
-26.421
 21
38.1546
  0
LINE
  8
0
 10
-26.421
 20
38.1546
 11
-27.6326
 21
38.7035
  0
LINE
  8
0
 10
-27.6326
 20
38.7035
 11
-28.9023
 21
39.198
  0
LINE
  8
0
 10
-28.9023
 20
39.198
 11
-29.8811
 21
38.4571
  0
LINE
  8
0
 10
-29.8811
 20
38.4571
 11
-29.7498
 21
37.1008
  0
LINE
  8
0
 10
-29.7498
 20
37.1008
 11
-29.5504
 21
35.7858
  0
LINE
  8
0
 10
-29.5504
 20
35.7858
 11
-29.2819
 21
34.5162
  0
LINE
  8
0
 10
-29.2819
 20
34.5162
 11
-28.9422
 21
33.2975
  0
LINE
  8
0
 10
-28.9422
 20
33.2975
 11
-28.5272
 21
32.1369
  0
LINE
  8
0
 10
-28.5272
 20
32.1369
 11
-29.1862
 21
31.5389
  0
LINE
  8
0
 10
-29.1862
 20
31.5389
 11
-29.7996
 21
30.9607
  0
LINE
  8
0
 10
-29.7996
 20
30.9607
 11
-30.9241
 21
31.4654
  0
LINE
  8
0
 10
-30.9241
 20
31.4654
 11
-32.1124
 21
31.8997
  0
LINE
  8
0
 10
-32.1124
 20
31.8997
 11
-33.3569
 21
32.267
  0
LINE
  8
0
 10
-33.3569
 20
32.267
 11
-34.6523
 21
32.569
  0
LINE
  8
0
 10
-34.6523
 20
32.569
 11
-35.9941
 21
32.8063
  0
LINE
  8
0
 10
-35.9941
 20
32.8063
 11
-36.8096
 21
31.8886
  0
LINE
  8
0
 10
-36.8096
 20
31.8886
 11
-36.4162
 21
30.5841
  0
LINE
  8
0
 10
-36.4162
 20
30.5841
 11
-35.9641
 21
29.3332
  0
LINE
  8
0
 10
-35.9641
 20
29.3332
 11
-35.453
 21
28.1404
  0
LINE
  8
0
 10
-35.453
 20
28.1404
 11
-34.8821
 21
27.0114
  0
LINE
  8
0
 10
-34.8821
 20
27.0114
 11
-34.2486
 21
25.954
  0
LINE
  8
0
 10
-34.2486
 20
25.954
 11
-34.7783
 21
25.239
  0
LINE
  8
0
 10
-34.7783
 20
25.239
 11
-35.2671
 21
24.5522
  0
LINE
  8
0
 10
-35.2671
 20
24.5522
 11
-36.4685
 21
24.8278
  0
LINE
  8
0
 10
-36.4685
 20
24.8278
 11
-37.7187
 21
25.022
  0
LINE
  8
0
 10
-37.7187
 20
25.022
 11
-39.011
 21
25.1394
  0
LINE
  8
0
 10
-39.011
 20
25.1394
 11
-40.3404
 21
25.1829
  0
LINE
  8
0
 10
-40.3404
 20
25.1829
 11
-41.7027
 21
25.1538
  0
LINE
  8
0
 10
-41.7027
 20
25.1538
 11
-42.3234
 21
24.0947
  0
LINE
  8
0
 10
-42.3234
 20
24.0947
 11
-41.6831
 21
22.8919
  0
LINE
  8
0
 10
-41.6831
 20
22.8919
 11
-40.9956
 21
21.7533
  0
LINE
  8
0
 10
-40.9956
 20
21.7533
 11
-40.2617
 21
20.6831
  0
LINE
  8
0
 10
-40.2617
 20
20.6831
 11
-39.4815
 21
19.6872
  0
LINE
  8
0
 10
-39.4815
 20
19.6872
 11
-38.6539
 21
18.7737
  0
LINE
  8
0
 10
-38.6539
 20
18.7737
 11
-39.034
 21
17.9691
  0
LINE
  8
0
 10
-39.034
 20
17.9691
 11
-39.3794
 21
17.2001
  0
LINE
  8
0
 10
-39.3794
 20
17.2001
 11
-40.6115
 21
17.2361
  0
LINE
  8
0
 10
-40.6115
 20
17.2361
 11
-41.8755
 21
17.1826
  0
LINE
  8
0
 10
-41.8755
 20
17.1826
 11
-43.1659
 21
17.0457
  0
LINE
  8
0
 10
-43.1659
 20
17.0457
 11
-44.4782
 21
16.829
  0
LINE
  8
0
 10
-44.4782
 20
16.829
 11
-45.8086
 21
16.5347
  0
LINE
  8
0
 10
-45.8086
 20
16.5347
 11
-46.2108
 21
15.3748
  0
LINE
  8
0
 10
-46.2108
 20
15.3748
 11
-45.3482
 21
14.3201
  0
LINE
  8
0
 10
-45.3482
 20
14.3201
 11
-44.4518
 21
13.3374
  0
LINE
  8
0
 10
-44.4518
 20
13.3374
 11
-43.5232
 21
12.431
  0
LINE
  8
0
 10
-43.5232
 20
12.431
 11
-42.5636
 21
11.6065
  0
LINE
  8
0
 10
-42.5636
 20
11.6065
 11
-41.5738
 21
10.872
  0
LINE
  8
0
 10
-41.5738
 20
10.872
 11
-41.7895
 21
10.0087
  0
LINE
  8
0
 10
-41.7895
 20
10.0087
 11
-41.9783
 21
9.18709
  0
LINE
  8
0
 10
-41.9783
 20
9.18709
 11
-43.1937
 21
8.98203
  0
LINE
  8
0
 10
-43.1937
 20
8.98203
 11
-44.423
 21
8.68295
  0
LINE
  8
0
 10
-44.423
 20
8.68295
 11
-45.6619
 21
8.29692
  0
LINE
  8
0
 10
-45.6619
 20
8.29692
 11
-46.9067
 21
7.82834
  0
LINE
  8
0
 10
-46.9067
 20
7.82834
 11
-48.1542
 21
7.2802
  0
LINE
  8
0
 10
-48.1542
 20
7.2802
 11
-48.3224
 21
6.06412
  0
LINE
  8
0
 10
-48.3224
 20
6.06412
 11
-47.2706
 21
5.19795
  0
LINE
  8
0
 10
-47.2706
 20
5.19795
 11
-46.1996
 21
4.40906
  0
LINE
  8
0
 10
-46.1996
 20
4.40906
 11
-45.1121
 21
3.70123
  0
LINE
  8
0
 10
-45.1121
 20
3.70123
 11
-44.0101
 21
3.07971
  0
LINE
  8
0
 10
-44.0101
 20
3.07971
 11
-42.896
 21
2.55243
  0
LINE
  8
0
 10
-42.896
 20
2.55243
 11
-42.9391
 21
1.66364
  0
LINE
  8
0
 10
-42.9391
 20
1.66364
 11
-42.964
 21
0.820999
  0
LINE
  8
0
 10
-42.964
 20
0.820999
 11
-44.1161
 21
0.382751
  0
LINE
  8
0
 10
-44.1161
 20
0.382751
 11
-45.2634
 21
-0.150375
  0
LINE
  8
0
 10
-45.2634
 20
-0.150375
 11
-46.4032
 21
-0.770691
  0
LINE
  8
0
 10
-46.4032
 20
-0.770691
 11
-47.5327
 21
-1.47311
  0
LINE
  8
0
 10
-47.5327
 20
-1.47311
 11
-48.6492
 21
-2.25409
  0
LINE
  8
0
 10
-48.6492
 20
-2.25409
 11
-48.5769
 21
-3.47961
  0
LINE
  8
0
 10
-48.5769
 20
-3.47961
 11
-47.3763
 21
-4.12395
  0
LINE
  8
0
 10
-47.3763
 20
-4.12395
 11
-46.1721
 21
-4.68875
  0
LINE
  8
0
 10
-46.1721
 20
-4.68875
 11
-44.9673
 21
-5.17079
  0
LINE
  8
0
 10
-44.9673
 20
-5.17079
 11
-43.7653
 21
-5.56538
  0
LINE
  8
0
 10
-43.7653
 20
-5.56538
 11
-42.5697
 21
-5.86519
  0
LINE
  8
0
 10
-42.5697
 20
-5.86519
 11
-42.4386
 21
-6.74533
  0
LINE
  8
0
 10
-42.4386
 20
-6.74533
 11
-42.2986
 21
-7.57661
  0
LINE
  8
0
 10
-42.2986
 20
-7.57661
 11
-43.3431
 21
-8.2312
  0
LINE
  8
0
 10
-43.3431
 20
-8.2312
 11
-44.3643
 21
-8.97794
  0
LINE
  8
0
 10
-44.3643
 20
-8.97794
 11
-45.3612
 21
-9.80869
  0
LINE
  8
0
 10
-45.3612
 20
-9.80869
 11
-46.3319
 21
-10.718
  0
LINE
  8
0
 10
-46.3319
 20
-10.718
 11
-47.2747
 21
-11.7018
  0
LINE
  8
0
 10
-47.2747
 20
-11.7018
 11
-46.9647
 21
-12.8896
  0
LINE
  8
0
 10
-46.9647
 20
-12.8896
 11
-45.6615
 21
-13.2874
  0
LINE
  8
0
 10
-45.6615
 20
-13.2874
 11
-44.3702
 21
-13.6064
  0
LINE
  8
0
 10
-44.3702
 20
-13.6064
 11
-43.0945
 21
-13.8441
  0
LINE
  8
0
 10
-43.0945
 20
-13.8441
 11
-41.8386
 21
-13.9966
  0
LINE
  8
0
 10
-41.8386
 20
-13.9966
 11
-40.6075
 21
-14.0574
  0
LINE
  8
0
 10
-40.6075
 20
-14.0574
 11
-40.3073
 21
-14.8951
  0
LINE
  8
0
 10
-40.3073
 20
-14.8951
 11
-40.0077
 21
-15.6831
  0
LINE
  8
0
 10
-40.0077
 20
-15.6831
 11
-40.9044
 21
-16.5289
  0
LINE
  8
0
 10
-40.9044
 20
-16.5289
 11
-41.7604
 21
-17.4605
  0
LINE
  8
0
 10
-41.7604
 20
-17.4605
 11
-42.576
 21
-18.4697
  0
LINE
  8
0
 10
-42.576
 20
-18.4697
 11
-43.3507
 21
-19.5509
  0
LINE
  8
0
 10
-43.3507
 20
-19.5509
 11
-44.0834
 21
-20.6998
  0
LINE
  8
0
 10
-44.0834
 20
-20.6998
 11
-43.5476
 21
-21.8043
  0
LINE
  8
0
 10
-43.5476
 20
-21.8043
 11
-42.1919
 21
-21.9402
  0
LINE
  8
0
 10
-42.1919
 20
-21.9402
 11
-40.8631
 21
-22.0011
  0
LINE
  8
0
 10
-40.8631
 20
-22.0011
 11
-39.5656
 21
-21.9854
  0
LINE
  8
0
 10
-39.5656
 20
-21.9854
 11
-38.3041
 21
-21.89
  0
LINE
  8
0
 10
-38.3041
 20
-21.89
 11
-37.0847
 21
-21.7094
  0
LINE
  8
0
 10
-37.0847
 20
-21.7094
 11
-36.6269
 21
-22.4724
  0
LINE
  8
0
 10
-36.6269
 20
-22.4724
 11
-36.1794
 21
-23.1869
  0
LINE
  8
0
 10
-36.1794
 20
-23.1869
 11
-36.8938
 21
-24.1913
  0
LINE
  8
0
 10
-36.8938
 20
-24.1913
 11
-37.5516
 21
-25.272
  0
LINE
  8
0
 10
-37.5516
 20
-25.272
 11
-38.1546
 21
-26.421
  0
LINE
  8
0
 10
-38.1546
 20
-26.421
 11
-38.7035
 21
-27.6326
  0
LINE
  8
0
 10
-38.7035
 20
-27.6326
 11
-39.198
 21
-28.9023
  0
LINE
  8
0
 10
-39.198
 20
-28.9023
 11
-38.4571
 21
-29.8811
  0
LINE
  8
0
 10
-38.4571
 20
-29.8811
 11
-37.1008
 21
-29.7498
  0
LINE
  8
0
 10
-37.1008
 20
-29.7498
 11
-35.7858
 21
-29.5504
  0
LINE
  8
0
 10
-35.7858
 20
-29.5504
 11
-34.5162
 21
-29.2819
  0
LINE
  8
0
 10
-34.5162
 20
-29.2819
 11
-33.2975
 21
-28.9422
  0
LINE
  8
0
 10
-33.2975
 20
-28.9422
 11
-32.1369
 21
-28.5272
  0
LINE
  8
0
 10
-32.1369
 20
-28.5272
 11
-31.5389
 21
-29.1862
  0
LINE
  8
0
 10
-31.5389
 20
-29.1862
 11
-30.9607
 21
-29.7996
  0
LINE
  8
0
 10
-30.9607
 20
-29.7996
 11
-31.4654
 21
-30.9241
  0
LINE
  8
0
 10
-31.4654
 20
-30.9241
 11
-31.8997
 21
-32.1124
  0
LINE
  8
0
 10
-31.8997
 20
-32.1124
 11
-32.267
 21
-33.3569
  0
LINE
  8
0
 10
-32.267
 20
-33.3569
 11
-32.569
 21
-34.6523
  0
LINE
  8
0
 10
-32.569
 20
-34.6523
 11
-32.8063
 21
-35.9941
  0
LINE
  8
0
 10
-32.8063
 20
-35.9941
 11
-31.8886
 21
-36.8096
  0
LINE
  8
0
 10
-31.8886
 20
-36.8096
 11
-30.5841
 21
-36.4162
  0
LINE
  8
0
 10
-30.5841
 20
-36.4162
 11
-29.3332
 21
-35.9641
  0
LINE
  8
0
 10
-29.3332
 20
-35.9641
 11
-28.1404
 21
-35.453
  0
LINE
  8
0
 10
-28.1404
 20
-35.453
 11
-27.0114
 21
-34.8821
  0
LINE
  8
0
 10
-27.0114
 20
-34.8821
 11
-25.954
 21
-34.2486
  0
LINE
  8
0
 10
-25.954
 20
-34.2486
 11
-25.239
 21
-34.7783
  0
LINE
  8
0
 10
-25.239
 20
-34.7783
 11
-24.5522
 21
-35.2671
  0
LINE
  8
0
 10
-24.5522
 20
-35.2671
 11
-24.8278
 21
-36.4685
  0
LINE
  8
0
 10
-24.8278
 20
-36.4685
 11
-25.022
 21
-37.7187
  0
LINE
  8
0
 10
-25.022
 20
-37.7187
 11
-25.1394
 21
-39.011
  0
LINE
  8
0
 10
-25.1394
 20
-39.011
 11
-25.1829
 21
-40.3404
  0
LINE
  8
0
 10
-25.1829
 20
-40.3404
 11
-25.1538
 21
-41.7027
  0
LINE
  8
0
 10
-25.1538
 20
-41.7027
 11
-24.0947
 21
-42.3234
  0
LINE
  8
0
 10
-24.0947
 20
-42.3234
 11
-22.8919
 21
-41.6831
  0
LINE
  8
0
 10
-22.8919
 20
-41.6831
 11
-21.7533
 21
-40.9956
  0
LINE
  8
0
 10
-21.7533
 20
-40.9956
 11
-20.6831
 21
-40.2617
  0
LINE
  8
0
 10
-20.6831
 20
-40.2617
 11
-19.6872
 21
-39.4815
  0
LINE
  8
0
 10
-19.6872
 20
-39.4815
 11
-18.7737
 21
-38.6539
  0
LINE
  8
0
 10
-18.7737
 20
-38.6539
 11
-17.9691
 21
-39.034
  0
LINE
  8
0
 10
-17.9691
 20
-39.034
 11
-17.2001
 21
-39.3794
  0
LINE
  8
0
 10
-17.2001
 20
-39.3794
 11
-17.2361
 21
-40.6115
  0
LINE
  8
0
 10
-17.2361
 20
-40.6115
 11
-17.1826
 21
-41.8755
  0
LINE
  8
0
 10
-17.1826
 20
-41.8755
 11
-17.0457
 21
-43.1659
  0
LINE
  8
0
 10
-17.0457
 20
-43.1659
 11
-16.829
 21
-44.4782
  0
LINE
  8
0
 10
-16.829
 20
-44.4782
 11
-16.5347
 21
-45.8086
  0
LINE
  8
0
 10
-16.5347
 20
-45.8086
 11
-15.3748
 21
-46.2108
  0
LINE
  8
0
 10
-15.3748
 20
-46.2108
 11
-14.3201
 21
-45.3482
  0
LINE
  8
0
 10
-14.3201
 20
-45.3482
 11
-13.3374
 21
-44.4518
  0
LINE
  8
0
 10
-13.3374
 20
-44.4518
 11
-12.431
 21
-43.5232
  0
LINE
  8
0
 10
-12.431
 20
-43.5232
 11
-11.6065
 21
-42.5636
  0
LINE
  8
0
 10
-11.6065
 20
-42.5636
 11
-10.872
 21
-41.5738
  0
LINE
  8
0
 10
-10.872
 20
-41.5738
 11
-10.0087
 21
-41.7895
  0
LINE
  8
0
 10
-10.0087
 20
-41.7895
 11
-9.18709
 21
-41.9783
  0
LINE
  8
0
 10
-9.18709
 20
-41.9783
 11
-8.98203
 21
-43.1937
  0
LINE
  8
0
 10
-8.98203
 20
-43.1937
 11
-8.68295
 21
-44.423
  0
LINE
  8
0
 10
-8.68295
 20
-44.423
 11
-8.29692
 21
-45.6619
  0
LINE
  8
0
 10
-8.29692
 20
-45.6619
 11
-7.82834
 21
-46.9067
  0
LINE
  8
0
 10
-7.82834
 20
-46.9067
 11
-7.2802
 21
-48.1542
  0
LINE
  8
0
 10
-7.2802
 20
-48.1542
 11
-6.06412
 21
-48.3224
  0
LINE
  8
0
 10
-6.06412
 20
-48.3224
 11
-5.19795
 21
-47.2706
  0
LINE
  8
0
 10
-5.19795
 20
-47.2706
 11
-4.40906
 21
-46.1996
  0
LINE
  8
0
 10
-4.40906
 20
-46.1996
 11
-3.70123
 21
-45.1121
  0
LINE
  8
0
 10
-3.70123
 20
-45.1121
 11
-3.07971
 21
-44.0101
  0
LINE
  8
0
 10
-3.07971
 20
-44.0101
 11
-2.55243
 21
-42.896
  0
LINE
  8
0
 10
-2.55243
 20
-42.896
 11
-1.66364
 21
-42.9391
  0
LINE
  8
0
 10
-1.66364
 20
-42.9391
 11
-0.820999
 21
-42.964
  0
LINE
  8
0
 10
-0.820999
 20
-42.964
 11
-0.382751
 21
-44.1161
  0
LINE
  8
0
 10
-0.382751
 20
-44.1161
 11
0.150375
 21
-45.2634
  0
LINE
  8
0
 10
0.150375
 20
-45.2634
 11
0.770691
 21
-46.4032
  0
LINE
  8
0
 10
0.770691
 20
-46.4032
 11
1.47311
 21
-47.5327
  0
LINE
  8
0
 10
1.47311
 20
-47.5327
 11
2.25409
 21
-48.6492
  0
LINE
  8
0
 10
2.25409
 20
-48.6492
 11
3.47961
 21
-48.5769
  0
LINE
  8
0
 10
-1.26245
 20
-4.83798
 11
-2.69568
 21
-4.21107
  0
LINE
  8
0
 10
-2.69568
 20
-4.21107
 11
-3.86505
 21
-3.17195
  0
LINE
  8
0
 10
-3.86505
 20
-3.17195
 11
-4.65607
 21
-1.82234
  0
LINE
  8
0
 10
-4.65607
 20
-1.82234
 11
-4.99132
 21
-0.294342
  0
LINE
  8
0
 10
-4.99132
 20
-0.294342
 11
-4.83798
 21
1.26245
  0
LINE
  8
0
 10
-4.83798
 20
1.26245
 11
-4.21107
 21
2.69568
  0
LINE
  8
0
 10
-4.21107
 20
2.69568
 11
-3.17195
 21
3.86505
  0
LINE
  8
0
 10
-3.17195
 20
3.86505
 11
-1.82234
 21
4.65607
  0
LINE
  8
0
 10
-1.82234
 20
4.65607
 11
-0.294342
 21
4.99132
  0
LINE
  8
0
 10
-0.294342
 20
4.99132
 11
1.26245
 21
4.83798
  0
LINE
  8
0
 10
1.26245
 20
4.83798
 11
2.69568
 21
4.21107
  0
LINE
  8
0
 10
2.69568
 20
4.21107
 11
3.86505
 21
3.17195
  0
LINE
  8
0
 10
3.86505
 20
3.17195
 11
4.65607
 21
1.82234
  0
LINE
  8
0
 10
4.65607
 20
1.82234
 11
4.99132
 21
0.294342
  0
LINE
  8
0
 10
4.99132
 20
0.294342
 11
4.83798
 21
-1.26245
  0
LINE
  8
0
 10
4.83798
 20
-1.26245
 11
4.21107
 21
-2.69568
  0
LINE
  8
0
 10
4.21107
 20
-2.69568
 11
3.17195
 21
-3.86505
  0
LINE
  8
0
 10
3.17195
 20
-3.86505
 11
1.82234
 21
-4.65607
  0
LINE
  8
0
 10
1.82234
 20
-4.65607
 11
0.294342
 21
-4.99132
  0
LINE
  8
0
 10
0.294342
 20
-4.99132
 11
-1.26245
 21
-4.83798
  0
LINE
  8
0
 10
61.1982
 20
-11.7359
 11
61.5604
 21
-10.6566
  0
LINE
  8
0
 10
61.5604
 20
-10.6566
 11
61.761
 21
-9.61093
  0
LINE
  8
0
 10
61.761
 20
-9.61093
 11
61.8022
 21
-8.6209
  0
LINE
  8
0
 10
61.8022
 20
-8.6209
 11
61.6819
 21
-7.71202
  0
LINE
  8
0
 10
61.6819
 20
-7.71202
 11
61.3703
 21
-6.93188
  0
LINE
  8
0
 10
61.3703
 20
-6.93188
 11
60.3183
 21
-5.60776
  0
LINE
  8
0
 10
60.3183
 20
-5.60776
 11
61.2426
 21
-4.72357
  0
LINE
  8
0
 10
61.2426
 20
-4.72357
 11
61.2451
 21
-4.72556
  0
LINE
  8
0
 10
61.2451
 20
-4.72556
 11
61.2556
 21
-4.71106
  0
LINE
  8
0
 10
61.2556
 20
-4.71106
 11
61.2686
 21
-4.69867
  0
LINE
  8
0
 10
61.2686
 20
-4.69867
 11
61.2663
 21
-4.69643
  0
LINE
  8
0
 10
61.2663
 20
-4.69643
 11
62.0184
 21
-3.6619
  0
LINE
  8
0
 10
62.0184
 20
-3.6619
 11
63.4718
 21
-4.52657
  0
LINE
  8
0
 10
63.4718
 20
-4.52657
 11
64.2867
 21
-4.73067
  0
LINE
  8
0
 10
64.2867
 20
-4.73067
 11
65.2034
 21
-4.7278
  0
LINE
  8
0
 10
65.2034
 20
-4.7278
 11
66.179
 21
-4.55412
  0
LINE
  8
0
 10
66.179
 20
-4.55412
 11
67.1883
 21
-4.21501
  0
LINE
  8
0
 10
67.1883
 20
-4.21501
 11
68.2092
 21
-3.71115
  0
LINE
  8
0
 10
68.2092
 20
-3.71115
 11
68.3651
 21
-3.1463
  0
LINE
  8
0
 10
68.3651
 20
-3.1463
 11
67.7471
 21
-2.19012
  0
LINE
  8
0
 10
67.7471
 20
-2.19012
 11
67.0546
 21
-1.38138
  0
LINE
  8
0
 10
67.0546
 20
-1.38138
 11
66.3062
 21
-0.731918
  0
LINE
  8
0
 10
66.3062
 20
-0.731918
 11
65.5207
 21
-0.259247
  0
LINE
  8
0
 10
65.5207
 20
-0.259247
 11
64.7165
 21
-0.0164948
  0
LINE
  8
0
 10
64.7165
 20
-0.0164948
 11
63.0253
 21
-0.0133514
  0
LINE
  8
0
 10
63.0253
 20
-0.0133514
 11
62.9103
 21
1.2605
  0
LINE
  8
0
 10
62.9103
 20
1.2605
 11
62.9134
 21
1.26125
  0
LINE
  8
0
 10
62.9134
 20
1.26125
 11
62.9087
 21
1.27852
  0
LINE
  8
0
 10
62.9087
 20
1.27852
 11
62.907
 21
1.29637
  0
LINE
  8
0
 10
62.907
 20
1.29637
 11
62.9039
 21
1.29596
  0
LINE
  8
0
 10
62.9039
 20
1.29596
 11
62.564
 21
2.52902
  0
LINE
  8
0
 10
62.564
 20
2.52902
 11
64.1461
 21
3.12619
  0
LINE
  8
0
 10
64.1461
 20
3.12619
 11
64.8138
 21
3.63605
  0
LINE
  8
0
 10
64.8138
 20
3.63605
 11
65.3832
 21
4.3546
  0
LINE
  8
0
 10
65.3832
 20
4.3546
 11
65.8556
 21
5.2256
  0
LINE
  8
0
 10
65.8556
 20
5.2256
 11
66.2198
 21
6.22612
  0
LINE
  8
0
 10
66.2198
 20
6.22612
 11
66.4624
 21
7.33847
  0
LINE
  8
0
 10
66.4624
 20
7.33847
 11
66.118
 21
7.81253
  0
LINE
  8
0
 10
66.118
 20
7.81253
 11
64.9851
 21
7.92552
  0
LINE
  8
0
 10
64.9851
 20
7.92552
 11
63.921
 21
7.88837
  0
LINE
  8
0
 10
63.921
 20
7.88837
 11
62.9466
 21
7.70819
  0
LINE
  8
0
 10
62.9466
 20
7.70819
 11
62.0873
 21
7.38873
  0
LINE
  8
0
 10
62.0873
 20
7.38873
 11
61.3961
 21
6.91132
  0
LINE
  8
0
 10
61.3961
 20
6.91132
 11
60.3392
 21
5.59111
  0
LINE
  8
0
 10
60.3392
 20
5.59111
 11
59.2715
 21
6.29539
  0
LINE
  8
0
 10
59.2715
 20
6.29539
 11
59.2729
 21
6.29831
  0
LINE
  8
0
 10
59.2729
 20
6.29831
 11
59.2564
 21
6.30536
  0
LINE
  8
0
 10
59.2564
 20
6.30536
 11
59.2415
 21
6.31523
  0
LINE
  8
0
 10
59.2415
 20
6.31523
 11
59.2398
 21
6.31247
  0
LINE
  8
0
 10
59.2398
 20
6.31247
 11
58.0638
 21
6.81554
  0
LINE
  8
0
 10
58.0638
 20
6.81554
 11
58.5834
 21
8.42487
  0
LINE
  8
0
 10
58.5834
 20
8.42487
 11
58.6011
 21
9.26474
  0
LINE
  8
0
 10
58.6011
 20
9.26474
 11
58.3943
 21
10.1579
  0
LINE
  8
0
 10
58.3943
 20
10.1579
 11
58.0079
 21
11.0704
  0
LINE
  8
0
 10
58.0079
 20
11.0704
 11
57.4527
 21
11.9789
  0
LINE
  8
0
 10
57.4527
 20
11.9789
 11
56.7343
 21
12.8621
  0
LINE
  8
0
 10
56.7343
 20
12.8621
 11
56.1489
 21
12.8884
  0
LINE
  8
0
 10
56.1489
 20
12.8884
 11
55.3542
 21
12.0731
  0
LINE
  8
0
 10
55.3542
 20
12.0731
 11
54.7198
 21
11.218
  0
LINE
  8
0
 10
54.7198
 20
11.218
 11
54.2532
 21
10.3439
  0
LINE
  8
0
 10
54.2532
 20
10.3439
 11
53.9672
 21
9.47285
  0
LINE
  8
0
 10
53.9672
 20
9.47285
 11
53.9095
 21
8.63477
  0
LINE
  8
0
 10
53.9095
 20
8.63477
 11
54.2827
 21
6.98535
  0
LINE
  8
0
 10
54.2827
 20
6.98535
 11
53.0664
 21
6.58972
  0
LINE
  8
0
 10
53.0664
 20
6.58972
 11
53.065
 21
6.59262
  0
LINE
  8
0
 10
53.065
 20
6.59262
 11
53.0492
 21
6.58414
  0
LINE
  8
0
 10
53.0492
 20
6.58414
 11
53.0321
 21
6.57858
  0
LINE
  8
0
 10
53.0321
 20
6.57858
 11
53.0332
 21
6.57556
  0
LINE
  8
0
 10
53.0332
 20
6.57556
 11
51.9067
 21
5.96982
  0
LINE
  8
0
 10
51.9067
 20
5.96982
 11
50.9725
 21
7.37944
  0
LINE
  8
0
 10
50.9725
 20
7.37944
 11
50.3268
 21
7.9169
  0
LINE
  8
0
 10
50.3268
 20
7.9169
 11
49.4996
 21
8.3121
  0
LINE
  8
0
 10
49.4996
 20
8.3121
 11
48.5453
 21
8.57889
  0
LINE
  8
0
 10
48.5453
 20
8.57889
 11
47.4888
 21
8.71129
  0
LINE
  8
0
 10
47.4888
 20
8.71129
 11
46.3504
 21
8.70029
  0
LINE
  8
0
 10
46.3504
 20
8.70029
 11
45.9649
 21
8.259
  0
LINE
  8
0
 10
45.9649
 20
8.259
 11
46.1068
 21
7.12939
  0
LINE
  8
0
 10
46.1068
 20
7.12939
 11
46.3798
 21
6.10027
  0
LINE
  8
0
 10
46.3798
 20
6.10027
 11
46.7723
 21
5.19043
  0
LINE
  8
0
 10
46.7723
 20
5.19043
 11
47.2749
 21
4.42372
  0
LINE
  8
0
 10
47.2749
 20
4.42372
 11
47.8942
 21
3.85606
  0
LINE
  8
0
 10
47.8942
 20
3.85606
 11
49.4165
 21
3.11948
  0
LINE
  8
0
 10
49.4165
 20
3.11948
 11
48.9674
 21
1.92184
  0
LINE
  8
0
 10
48.9674
 20
1.92184
 11
48.9643
 21
1.92255
  0
LINE
  8
0
 10
48.9643
 20
1.92255
 11
48.9611
 21
1.90491
  0
LINE
  8
0
 10
48.9611
 20
1.90491
 11
48.9548
 21
1.88812
  0
LINE
  8
0
 10
48.9548
 20
1.88812
 11
48.9578
 21
1.88712
  0
LINE
  8
0
 10
48.9578
 20
1.88712
 11
48.7291
 21
0.628677
  0
LINE
  8
0
 10
48.7291
 20
0.628677
 11
47.0445
 21
0.777145
  0
LINE
  8
0
 10
47.0445
 20
0.777145
 11
46.2217
 21
0.607452
  0
LINE
  8
0
 10
46.2217
 20
0.607452
 11
45.397
 21
0.207108
  0
LINE
  8
0
 10
45.397
 20
0.207108
 11
44.5934
 21
-0.372635
  0
LINE
  8
0
 10
44.5934
 20
-0.372635
 11
43.8312
 21
-1.11607
  0
LINE
  8
0
 10
43.8312
 20
-1.11607
 11
43.13
 21
-2.013
  0
LINE
  8
0
 10
43.13
 20
-2.013
 11
43.2346
 21
-2.58955
  0
LINE
  8
0
 10
43.2346
 20
-2.58955
 11
44.2063
 21
-3.18289
  0
LINE
  8
0
 10
44.2063
 20
-3.18289
 11
45.1811
 21
-3.6111
  0
LINE
  8
0
 10
45.1811
 20
-3.6111
 11
46.1371
 21
-3.87154
  0
LINE
  8
0
 10
46.1371
 20
-3.87154
 11
47.05
 21
-3.95656
  0
LINE
  8
0
 10
47.05
 20
-3.95656
 11
47.8799
 21
-3.82632
  0
LINE
  8
0
 10
47.8799
 20
-3.82632
 11
49.4049
 21
-3.09541
  0
LINE
  8
0
 10
49.4049
 20
-3.09541
 11
50.0613
 21
-4.19321
  0
LINE
  8
0
 10
50.0613
 20
-4.19321
 11
50.0587
 21
-4.19524
  0
LINE
  8
0
 10
50.0587
 20
-4.19524
 11
50.0705
 21
-4.20874
  0
LINE
  8
0
 10
50.0705
 20
-4.20874
 11
50.0797
 21
-4.22412
  0
LINE
  8
0
 10
50.0797
 20
-4.22412
 11
50.0824
 21
-4.22237
  0
LINE
  8
0
 10
50.0824
 20
-4.22237
 11
50.9237
 21
-5.18584
  0
LINE
  8
0
 10
50.9237
 20
-5.18584
 11
49.7573
 21
-6.41035
  0
LINE
  8
0
 10
49.7573
 20
-6.41035
 11
49.377
 21
-7.15939
  0
LINE
  8
0
 10
49.377
 20
-7.15939
 11
49.1758
 21
-8.05385
  0
LINE
  8
0
 10
49.1758
 20
-8.05385
 11
49.128
 21
-9.04358
  0
LINE
  8
0
 10
49.128
 20
-9.04358
 11
49.234
 21
-10.103
  0
LINE
  8
0
 10
49.234
 20
-10.103
 11
49.4981
 21
-11.2105
  0
LINE
  8
0
 10
49.4981
 20
-11.2105
 11
50.0141
 21
-11.4881
  0
LINE
  8
0
 10
50.0141
 20
-11.4881
 11
51.0838
 21
-11.0984
  0
LINE
  8
0
 10
51.0838
 20
-11.0984
 11
52.0264
 21
-10.6032
  0
LINE
  8
0
 10
52.0264
 20
-10.6032
 11
52.826
 21
-10.0182
  0
LINE
  8
0
 10
52.826
 20
-10.0182
 11
53.4617
 21
-9.35748
  0
LINE
  8
0
 10
53.4617
 20
-9.35748
 11
53.8773
 21
-8.62743
  0
LINE
  8
0
 10
53.8773
 20
-8.62743
 11
54.2567
 21
-6.97942
  0
LINE
  8
0
 10
54.2567
 20
-6.97942
 11
55.5242
 21
-7.15071
  0
LINE
  8
0
 10
55.5242
 20
-7.15071
 11
55.5242
 21
-7.15393
  0
LINE
  8
0
 10
55.5242
 20
-7.15393
 11
55.5421
 21
-7.15312
  0
LINE
  8
0
 10
55.5421
 20
-7.15312
 11
55.5599
 21
-7.15553
  0
LINE
  8
0
 10
55.5599
 20
-7.15553
 11
55.5602
 21
-7.15233
  0
LINE
  8
0
 10
55.5602
 20
-7.15233
 11
56.838
 21
-7.09534
  0
LINE
  8
0
 10
56.838
 20
-7.09534
 11
57.0681
 21
-8.77072
  0
LINE
  8
0
 10
57.0681
 20
-8.77072
 11
57.4166
 21
-9.5351
  0
LINE
  8
0
 10
57.4166
 20
-9.5351
 11
57.9905
 21
-10.2501
  0
LINE
  8
0
 10
57.9905
 20
-10.2501
 11
58.7345
 21
-10.9045
  0
LINE
  8
0
 10
58.7345
 20
-10.9045
 11
59.6289
 21
-11.4822
  0
LINE
  8
0
 10
59.6289
 20
-11.4822
 11
60.6594
 21
-11.9662
  0
LINE
  8
0
 10
60.6594
 20
-11.9662
 11
61.1982
 21
-11.7359
  0
LINE
  8
0
 10
54.1065
 20
-4.68117
 11
52.7459
 21
-3.90915
  0
LINE
  8
0
 10
52.7459
 20
-3.90915
 11
51.6905
 21
-2.75447
  0
LINE
  8
0
 10
51.6905
 20
-2.75447
 11
51.0436
 21
-1.33017
  0
LINE
  8
0
 10
51.0436
 20
-1.33017
 11
50.8684
 21
0.224319
  0
LINE
  8
0
 10
50.8684
 20
0.224319
 11
51.1822
 21
1.75687
  0
LINE
  8
0
 10
51.1822
 20
1.75687
 11
51.9542
 21
3.11745
  0
LINE
  8
0
 10
51.9542
 20
3.11745
 11
53.1089
 21
4.17285
  0
LINE
  8
0
 10
53.1089
 20
4.17285
 11
54.5332
 21
4.81981
  0
LINE
  8
0
 10
54.5332
 20
4.81981
 11
56.0877
 21
4.99496
  0
LINE
  8
0
 10
56.0877
 20
4.99496
 11
57.6203
 21
4.68117
  0
LINE
  8
0
 10
57.6203
 20
4.68117
 11
58.9808
 21
3.90915
  0
LINE
  8
0
 10
58.9808
 20
3.90915
 11
60.0362
 21
2.75447
  0
LINE
  8
0
 10
60.0362
 20
2.75447
 11
60.6832
 21
1.33017
  0
LINE
  8
0
 10
60.6832
 20
1.33017
 11
60.8584
 21
-0.224319
  0
LINE
  8
0
 10
60.8584
 20
-0.224319
 11
60.5446
 21
-1.75687
  0
LINE
  8
0
 10
60.5446
 20
-1.75687
 11
59.7725
 21
-3.11745
  0
LINE
  8
0
 10
59.7725
 20
-3.11745
 11
58.6179
 21
-4.17285
  0
LINE
  8
0
 10
58.6179
 20
-4.17285
 11
57.1936
 21
-4.81981
  0
LINE
  8
0
 10
57.1936
 20
-4.81981
 11
55.6391
 21
-4.99496
  0
LINE
  8
0
 10
55.6391
 20
-4.99496
 11
54.1065
 21
-4.68117
  0
ENDSEC
  0
SECTION
  2
OBJECTS
  0
DICTIONARY
  0
ENDSEC
  0
EOF
