  0
SECTION
  2
BLOCKS
  0
ENDSEC
  0
SECTION
  2
ENTITIES
  0
LINE
  8
0
 10
85.95
 20
-48.7014
 11
82.9794
 21
-48.7014
  0
LINE
  8
0
 10
82.9794
 20
-48.7014
 11
79.9205
 21
-42.9718
  0
LINE
  8
0
 10
79.9205
 20
-42.9718
 11
78.4795
 21
-42.9718
  0
LINE
  8
0
 10
78.4795
 20
-42.9718
 11
75.4205
 21
-48.7014
  0
LINE
  8
0
 10
75.4205
 20
-48.7014
 11
73.9794
 21
-48.7014
  0
LINE
  8
0
 10
73.9794
 20
-48.7014
 11
70.9205
 21
-42.9718
  0
LINE
  8
0
 10
70.9205
 20
-42.9718
 11
69.4795
 21
-42.9718
  0
LINE
  8
0
 10
69.4795
 20
-42.9718
 11
66.4205
 21
-48.7014
  0
LINE
  8
0
 10
66.4205
 20
-48.7014
 11
64.9794
 21
-48.7014
  0
LINE
  8
0
 10
64.9794
 20
-48.7014
 11
61.9205
 21
-42.9718
  0
LINE
  8
0
 10
61.9205
 20
-42.9718
 11
60.4795
 21
-42.9718
  0
LINE
  8
0
 10
60.4795
 20
-42.9718
 11
57.4205
 21
-48.7014
  0
LINE
  8
0
 10
57.4205
 20
-48.7014
 11
55.9794
 21
-48.7014
  0
LINE
  8
0
 10
55.9794
 20
-48.7014
 11
52.9205
 21
-42.9718
  0
LINE
  8
0
 10
52.9205
 20
-42.9718
 11
51.4795
 21
-42.9718
  0
LINE
  8
0
 10
51.4795
 20
-42.9718
 11
48.4205
 21
-48.7014
  0
LINE
  8
0
 10
48.4205
 20
-48.7014
 11
46.9794
 21
-48.7014
  0
LINE
  8
0
 10
46.9794
 20
-48.7014
 11
43.9205
 21
-42.9718
  0
LINE
  8
0
 10
43.9205
 20
-42.9718
 11
42.4795
 21
-42.9718
  0
LINE
  8
0
 10
42.4795
 20
-42.9718
 11
39.4205
 21
-48.7014
  0
LINE
  8
0
 10
39.4205
 20
-48.7014
 11
37.9794
 21
-48.7014
  0
LINE
  8
0
 10
37.9794
 20
-48.7014
 11
34.9205
 21
-42.9718
  0
LINE
  8
0
 10
34.9205
 20
-42.9718
 11
33.4795
 21
-42.9718
  0
LINE
  8
0
 10
33.4795
 20
-42.9718
 11
30.4205
 21
-48.7014
  0
LINE
  8
0
 10
30.4205
 20
-48.7014
 11
28.9794
 21
-48.7014
  0
LINE
  8
0
 10
28.9794
 20
-48.7014
 11
25.9205
 21
-42.9718
  0
LINE
  8
0
 10
25.9205
 20
-42.9718
 11
24.4795
 21
-42.9718
  0
LINE
  8
0
 10
24.4795
 20
-42.9718
 11
21.4205
 21
-48.7014
  0
LINE
  8
0
 10
21.4205
 20
-48.7014
 11
19.9794
 21
-48.7014
  0
LINE
  8
0
 10
19.9794
 20
-48.7014
 11
16.9205
 21
-42.9718
  0
LINE
  8
0
 10
16.9205
 20
-42.9718
 11
15.4795
 21
-42.9718
  0
LINE
  8
0
 10
15.4795
 20
-42.9718
 11
12.4205
 21
-48.7014
  0
LINE
  8
0
 10
12.4205
 20
-48.7014
 11
10.9794
 21
-48.7014
  0
LINE
  8
0
 10
10.9794
 20
-48.7014
 11
7.92053
 21
-42.9718
  0
LINE
  8
0
 10
7.92053
 20
-42.9718
 11
6.47946
 21
-42.9718
  0
LINE
  8
0
 10
6.47946
 20
-42.9718
 11
3.42055
 21
-48.7014
  0
LINE
  8
0
 10
3.42055
 20
-48.7014
 11
1.97945
 21
-48.7014
  0
LINE
  8
0
 10
1.97945
 20
-48.7014
 11
-1.07945
 21
-42.9718
  0
LINE
  8
0
 10
-1.07945
 20
-42.9718
 11
-2.52052
 21
-42.9718
  0
LINE
  8
0
 10
-2.52052
 20
-42.9718
 11
-5.57944
 21
-48.7014
  0
LINE
  8
0
 10
-5.57944
 20
-48.7014
 11
-7.02054
 21
-48.7014
  0
LINE
  8
0
 10
-7.02054
 20
-48.7014
 11
-10.0795
 21
-42.9718
  0
LINE
  8
0
 10
-10.0795
 20
-42.9718
 11
-11.5205
 21
-42.9718
  0
LINE
  8
0
 10
-11.5205
 20
-42.9718
 11
-14.5794
 21
-48.7014
  0
LINE
  8
0
 10
-14.5794
 20
-48.7014
 11
-16.0205
 21
-48.7014
  0
LINE
  8
0
 10
-16.0205
 20
-48.7014
 11
-19.0795
 21
-42.9718
  0
LINE
  8
0
 10
-19.0795
 20
-42.9718
 11
-20.5205
 21
-42.9718
  0
LINE
  8
0
 10
-20.5205
 20
-42.9718
 11
-23.5794
 21
-48.7014
  0
LINE
  8
0
 10
-23.5794
 20
-48.7014
 11
-25.0205
 21
-48.7014
  0
LINE
  8
0
 10
-25.0205
 20
-48.7014
 11
-28.0795
 21
-42.9718
  0
LINE
  8
0
 10
-28.0795
 20
-42.9718
 11
-29.5205
 21
-42.9718
  0
LINE
  8
0
 10
-29.5205
 20
-42.9718
 11
-32.5794
 21
-48.7014
  0
LINE
  8
0
 10
-32.5794
 20
-48.7014
 11
-34.0205
 21
-48.7014
  0
LINE
  8
0
 10
-34.0205
 20
-48.7014
 11
-37.0795
 21
-42.9718
  0
LINE
  8
0
 10
-37.0795
 20
-42.9718
 11
-38.5205
 21
-42.9718
  0
LINE
  8
0
 10
-38.5205
 20
-42.9718
 11
-41.5794
 21
-48.7014
  0
LINE
  8
0
 10
-41.5794
 20
-48.7014
 11
-43.0205
 21
-48.7014
  0
LINE
  8
0
 10
-43.0205
 20
-48.7014
 11
-46.0795
 21
-42.9718
  0
LINE
  8
0
 10
-46.0795
 20
-42.9718
 11
-47.5205
 21
-42.9718
  0
LINE
  8
0
 10
-47.5205
 20
-42.9718
 11
-50.5794
 21
-48.7014
  0
LINE
  8
0
 10
-50.5794
 20
-48.7014
 11
-52.0205
 21
-48.7014
  0
LINE
  8
0
 10
-52.0205
 20
-48.7014
 11
-55.0795
 21
-42.9718
  0
LINE
  8
0
 10
-55.0795
 20
-42.9718
 11
-56.5205
 21
-42.9718
  0
LINE
  8
0
 10
-56.5205
 20
-42.9718
 11
-59.5794
 21
-48.7014
  0
LINE
  8
0
 10
-59.5794
 20
-48.7014
 11
-61.0205
 21
-48.7014
  0
LINE
  8
0
 10
-61.0205
 20
-48.7014
 11
-64.0795
 21
-42.9718
  0
LINE
  8
0
 10
-64.0795
 20
-42.9718
 11
-65.5205
 21
-42.9718
  0
LINE
  8
0
 10
-65.5205
 20
-42.9718
 11
-68.5795
 21
-48.7014
  0
LINE
  8
0
 10
-68.5795
 20
-48.7014
 11
-70.0206
 21
-48.7014
  0
LINE
  8
0
 10
-70.0206
 20
-48.7014
 11
-73.0795
 21
-42.9718
  0
LINE
  8
0
 10
-73.0795
 20
-42.9718
 11
-74.5205
 21
-42.9718
  0
LINE
  8
0
 10
-74.5205
 20
-42.9718
 11
-77.5795
 21
-48.7014
  0
LINE
  8
0
 10
-77.5795
 20
-48.7014
 11
-79.0206
 21
-48.7014
  0
LINE
  8
0
 10
-79.0206
 20
-48.7014
 11
-82.0795
 21
-42.9718
  0
LINE
  8
0
 10
-82.0795
 20
-42.9718
 11
-83.5205
 21
-42.9718
  0
LINE
  8
0
 10
-83.5205
 20
-42.9718
 11
-86.5795
 21
-48.7014
  0
LINE
  8
0
 10
-86.5795
 20
-48.7014
 11
-89.55
 21
-48.7014
  0
LINE
  8
0
 10
-89.55
 20
-48.7014
 11
-89.55
 21
-54.9718
  0
LINE
  8
0
 10
-89.55
 20
-54.9718
 11
85.95
 21
-54.9718
  0
LINE
  8
0
 10
85.95
 20
-54.9718
 11
85.95
 21
-48.7014
  0
ENDSEC
  0
SECTION
  2
OBJECTS
  0
DICTIONARY
  0
ENDSEC
  0
EOF
