  0
SECTION
  2
HEADER
  9
$ACADVER
  1
AC1018
  9
$ACADMAINTVER
 70
     0
  9
$DWGCODEPAGE
  3
ANSI_1252
  9
$INSBASE
 10
0.0
 20
0.0
 30
0.0
  9
$EXTMIN
 10
1.000000000000000E+20
 20
1.000000000000000E+20
 30
1.000000000000000E+20
  9
$EXTMAX
 10
-1.000000000000000E+20
 20
-1.000000000000000E+20
 30
-1.000000000000000E+20
  9
$LIMMIN
 10
0.0
 20
0.0
  9
$LIMMAX
 10
12.0
 20
9.0
  9
$ORTHOMODE
 70
     0
  9
$REGENMODE
 70
     1
  9
$FILLMODE
 70
     1
  9
$QTEXTMODE
 70
     0
  9
$MIRRTEXT
 70
     1
  9
$LTSCALE
 40
1.0
  9
$ATTMODE
 70
     1
  9
$TEXTSIZE
 40
0.2
  9
$TRACEWID
 40
0.05
  9
$TEXTSTYLE
  7
Standard
  9
$CLAYER
  8
0
  9
$CELTYPE
  6
ByLayer
  9
$CECOLOR
 62
   256
  9
$CELTSCALE
 40
1.0
  9
$DISPSILH
 70
     0
  9
$DIMSCALE
 40
1.0
  9
$DIMASZ
 40
0.18
  9
$DIMEXO
 40
0.0625
  9
$DIMDLI
 40
0.38
  9
$DIMRND
 40
0.0
  9
$DIMDLE
 40
0.0
  9
$DIMEXE
 40
0.18
  9
$DIMTP
 40
0.0
  9
$DIMTM
 40
0.0
  9
$DIMTXT
 40
0.18
  9
$DIMCEN
 40
0.09
  9
$DIMTSZ
 40
0.0
  9
$DIMTOL
 70
     0
  9
$DIMLIM
 70
     0
  9
$DIMTIH
 70
     1
  9
$DIMTOH
 70
     1
  9
$DIMSE1
 70
     0
  9
$DIMSE2
 70
     0
  9
$DIMTAD
 70
     0
  9
$DIMZIN
 70
     0
  9
$DIMBLK
  1

  9
$DIMASO
 70
     1
  9
$DIMSHO
 70
     1
  9
$DIMPOST
  1

  9
$DIMAPOST
  1

  9
$DIMALT
 70
     0
  9
$DIMALTD
 70
     2
  9
$DIMALTF
 40
25.4
  9
$DIMLFAC
 40
1.0
  9
$DIMTOFL
 70
     0
  9
$DIMTVP
 40
0.0
  9
$DIMTIX
 70
     0
  9
$DIMSOXD
 70
     0
  9
$DIMSAH
 70
     0
  9
$DIMBLK1
  1

  9
$DIMBLK2
  1

  9
$DIMSTYLE
  2
Standard
  9
$DIMCLRD
 70
     0
  9
$DIMCLRE
 70
     0
  9
$DIMCLRT
 70
     0
  9
$DIMTFAC
 40
1.0
  9
$DIMGAP
 40
0.09
  9
$DIMJUST
 70
     0
  9
$DIMSD1
 70
     0
  9
$DIMSD2
 70
     0
  9
$DIMTOLJ
 70
     1
  9
$DIMTZIN
 70
     0
  9
$DIMALTZ
 70
     0
  9
$DIMALTTZ
 70
     0
  9
$DIMUPT
 70
     0
  9
$DIMDEC
 70
     4
  9
$DIMTDEC
 70
     4
  9
$DIMALTU
 70
     2
  9
$DIMALTTD
 70
     2
  9
$DIMTXSTY
  7
Standard
  9
$DIMAUNIT
 70
     0
  9
$DIMADEC
 70
     0
  9
$DIMALTRND
 40
0.0
  9
$DIMAZIN
 70
     0
  9
$DIMDSEP
 70
    46
  9
$DIMATFIT
 70
     3
  9
$DIMFRAC
 70
     0
  9
$DIMLDRBLK
  1

  9
$DIMLUNIT
 70
     2
  9
$DIMLWD
 70
    -2
  9
$DIMLWE
 70
    -2
  9
$DIMTMOVE
 70
     0
  9
$LUNITS
 70
     2
  9
$LUPREC
 70
     4
  9
$SKETCHINC
 40
0.1
  9
$FILLETRAD
 40
0.5
  9
$AUNITS
 70
     0
  9
$AUPREC
 70
     0
  9
$MENU
  1
.
  9
$ELEVATION
 40
0.0
  9
$PELEVATION
 40
0.0
  9
$THICKNESS
 40
0.0
  9
$LIMCHECK
 70
     0
  9
$CHAMFERA
 40
0.5
  9
$CHAMFERB
 40
0.5
  9
$CHAMFERC
 40
1.0
  9
$CHAMFERD
 40
0.0
  9
$SKPOLY
 70
     0
  9
$TDCREATE
 40
2458523.499059097
  9
$TDUCREATE
 40
2458523.45739243
  9
$TDUPDATE
 40
2458523.499059109
  9
$TDUUPDATE
 40
2458523.457392442
  9
$TDINDWG
 40
0.0000000116
  9
$TDUSRTIMER
 40
0.0000000116
  9
$USRTIMER
 70
     1
  9
$ANGBASE
 50
0.0
  9
$ANGDIR
 70
     0
  9
$PDMODE
 70
     0
  9
$PDSIZE
 40
0.0
  9
$PLINEWID
 40
0.0
  9
$SPLFRAME
 70
     0
  9
$SPLINETYPE
 70
     6
  9
$SPLINESEGS
 70
     8
  9
$HANDSEED
  5
189
  9
$SURFTAB1
 70
     6
  9
$SURFTAB2
 70
     6
  9
$SURFTYPE
 70
     6
  9
$SURFU
 70
     6
  9
$SURFV
 70
     6
  9
$UCSBASE
  2

  9
$UCSNAME
  2

  9
$UCSORG
 10
0.0
 20
0.0
 30
0.0
  9
$UCSXDIR
 10
1.0
 20
0.0
 30
0.0
  9
$UCSYDIR
 10
0.0
 20
1.0
 30
0.0
  9
$UCSORTHOREF
  2

  9
$UCSORTHOVIEW
 70
     0
  9
$UCSORGTOP
 10
0.0
 20
0.0
 30
0.0
  9
$UCSORGBOTTOM
 10
0.0
 20
0.0
 30
0.0
  9
$UCSORGLEFT
 10
0.0
 20
0.0
 30
0.0
  9
$UCSORGRIGHT
 10
0.0
 20
0.0
 30
0.0
  9
$UCSORGFRONT
 10
0.0
 20
0.0
 30
0.0
  9
$UCSORGBACK
 10
0.0
 20
0.0
 30
0.0
  9
$PUCSBASE
  2

  9
$PUCSNAME
  2

  9
$PUCSORG
 10
0.0
 20
0.0
 30
0.0
  9
$PUCSXDIR
 10
1.0
 20
0.0
 30
0.0
  9
$PUCSYDIR
 10
0.0
 20
1.0
 30
0.0
  9
$PUCSORTHOREF
  2

  9
$PUCSORTHOVIEW
 70
     0
  9
$PUCSORGTOP
 10
0.0
 20
0.0
 30
0.0
  9
$PUCSORGBOTTOM
 10
0.0
 20
0.0
 30
0.0
  9
$PUCSORGLEFT
 10
0.0
 20
0.0
 30
0.0
  9
$PUCSORGRIGHT
 10
0.0
 20
0.0
 30
0.0
  9
$PUCSORGFRONT
 10
0.0
 20
0.0
 30
0.0
  9
$PUCSORGBACK
 10
0.0
 20
0.0
 30
0.0
  9
$USERI1
 70
     0
  9
$USERI2
 70
     0
  9
$USERI3
 70
     0
  9
$USERI4
 70
     0
  9
$USERI5
 70
     0
  9
$USERR1
 40
0.0
  9
$USERR2
 40
0.0
  9
$USERR3
 40
0.0
  9
$USERR4
 40
0.0
  9
$USERR5
 40
0.0
  9
$WORLDVIEW
 70
     1
  9
$SHADEDGE
 70
     3
  9
$SHADEDIF
 70
    70
  9
$TILEMODE
 70
     1
  9
$MAXACTVP
 70
    64
  9
$PINSBASE
 10
0.0
 20
0.0
 30
0.0
  9
$PLIMCHECK
 70
     0
  9
$PEXTMIN
 10
1.000000000000000E+20
 20
1.000000000000000E+20
 30
1.000000000000000E+20
  9
$PEXTMAX
 10
-1.000000000000000E+20
 20
-1.000000000000000E+20
 30
-1.000000000000000E+20
  9
$PLIMMIN
 10
0.0
 20
0.0
  9
$PLIMMAX
 10
12.0
 20
9.0
  9
$UNITMODE
 70
     0
  9
$VISRETAIN
 70
     1
  9
$PLINEGEN
 70
     0
  9
$PSLTSCALE
 70
     1
  9
$TREEDEPTH
 70
  3020
  9
$CMLSTYLE
  2
Standard
  9
$CMLJUST
 70
     0
  9
$CMLSCALE
 40
1.0
  9
$PROXYGRAPHICS
 70
     1
  9
$MEASUREMENT
 70
     0
  9
$CELWEIGHT
370
    -1
  9
$ENDCAPS
280
     0
  9
$JOINSTYLE
280
     0
  9
$LWDISPLAY
290
     1
  9
$INSUNITS
 70
     1
  9
$HYPERLINKBASE
  1

  9
$STYLESHEET
  1

  9
$XEDIT
290
     1
  9
$CEPSNTYPE
380
     0
  9
$PSTYLEMODE
290
     1
  9
$FINGERPRINTGUID
  2
{20928934-2C51-479B-BE36-EDF2525A6041}
  9
$VERSIONGUID
  2
{FAEB1C32-E019-11D5-929B-00C0DF256EC4}
  9
$EXTNAMES
290
     1
  9
$PSVPSCALE
 40
0.0
  9
$OLESTARTUP
290
     0
  9
$SORTENTS
280
   127
  9
$INDEXCTL
280
     0
  9
$HIDETEXT
280
     1
  9
$XCLIPFRAME
290
     0
  9
$HALOGAP
280
     0
  9
$OBSCOLOR
 70
   257
  9
$OBSLTYPE
280
     0
  9
$INTERSECTIONDISPLAY
280
     0
  9
$INTERSECTIONCOLOR
 70
   257
  9
$DIMASSOC
280
     2
  9
$PROJECTNAME
  1

  0
ENDSEC
  0
SECTION
  2
CLASSES
  0
CLASS
  1
ACDBDICTIONARYWDFLT
  2
AcDbDictionaryWithDefault
  3
ObjectDBX Classes
 90
        0
 91
        3
280
     0
281
     0
  0
CLASS
  1
VISUALSTYLE
  2
AcDbVisualStyle
  3
ObjectDBX Classes
 90
     4095
 91
        3
280
     0
281
     0
  0
ENDSEC
  0
SECTION
  2
TABLES
  0
TABLE
  2
VPORT
  5
8
330
0
100
AcDbSymbolTable
 70
     1
  0
VPORT
  5
29
330
8
100
AcDbSymbolTableRecord
100
AcDbViewportTableRecord
  2
*Active
 70
     0
 10
0.0
 20
0.0
 11
1.0
 21
1.0
 12
0.0
 22
0.0
 13
0.0
 23
0.0
 14
0.5
 24
0.5
 15
0.5
 25
0.5
 16
0.0
 26
0.0
 36
1.0
 17
500.0625860023715
 27
500.0624998749843
 37
0.0
 40
289.9998697191667
 41
3.068967872688221
 42
50.0
 43
0.0
 44
0.0
 50
0.0
 51
0.0
 71
     0
 72
   100
 73
     1
 74
     3
 75
     0
 76
     0
 77
     0
 78
     0
281
     0
 65
     1
110
0.0
120
0.0
130
0.0
111
1.0
121
0.0
131
0.0
112
0.0
122
1.0
132
0.0
 79
     0
146
0.0
  0
ENDTAB
  0
TABLE
  2
LTYPE
  5
5
330
0
100
AcDbSymbolTable
 70
     1
  0
LTYPE
  5
14
330
5
100
AcDbSymbolTableRecord
100
AcDbLinetypeTableRecord
  2
ByBlock
 70
     0
  3

 72
    65
 73
     0
 40
0.0
  0
LTYPE
  5
15
330
5
100
AcDbSymbolTableRecord
100
AcDbLinetypeTableRecord
  2
ByLayer
 70
     0
  3

 72
    65
 73
     0
 40
0.0
  0
LTYPE
  5
16
330
5
100
AcDbSymbolTableRecord
100
AcDbLinetypeTableRecord
  2
Continuous
 70
     0
  3
Solid line
 72
    65
 73
     0
 40
0.0
  0
ENDTAB
  0
TABLE
  2
LAYER
  5
2
330
0
100
AcDbSymbolTable
 70
     2
  0
LAYER
  5
10
330
2
100
AcDbSymbolTableRecord
100
AcDbLayerTableRecord
  2
0
 70
     0
 62
     7
  6
Continuous
370
    -3
390
F
  0
LAYER
  5
3B
330
2
100
AcDbSymbolTableRecord
100
AcDbLayerTableRecord
  2
Layer 1
 70
     0
 62
     7
  6
Continuous
370
    -3
390
F
  0
ENDTAB
  0
TABLE
  2
STYLE
  5
3
330
0
100
AcDbSymbolTable
 70
     1
  0
STYLE
  5
11
330
3
100
AcDbSymbolTableRecord
100
AcDbTextStyleTableRecord
  2
Standard
 70
     0
 40
0.0
 41
1.0
 50
0.0
 71
     0
 42
0.2
  3
txt
  4

  0
ENDTAB
  0
TABLE
  2
VIEW
  5
6
330
0
100
AcDbSymbolTable
 70
     0
  0
ENDTAB
  0
TABLE
  2
UCS
  5
7
330
0
100
AcDbSymbolTable
 70
     0
  0
ENDTAB
  0
TABLE
  2
APPID
  5
9
330
0
100
AcDbSymbolTable
 70
     1
  0
APPID
  5
12
330
9
100
AcDbSymbolTableRecord
100
AcDbRegAppTableRecord
  2
ACAD
 70
     0
  0
ENDTAB
  0
TABLE
  2
DIMSTYLE
  5
A
330
0
100
AcDbSymbolTable
 70
     1
100
AcDbDimStyleTable
  0
DIMSTYLE
105
27
330
A
100
AcDbSymbolTableRecord
100
AcDbDimStyleTableRecord
  2
Standard
 70
     0
340
11
  0
ENDTAB
  0
TABLE
  2
BLOCK_RECORD
  5
1
330
0
100
AcDbSymbolTable
 70
     1
  0
BLOCK_RECORD
  5
1F
330
1
100
AcDbSymbolTableRecord
100
AcDbBlockTableRecord
  2
*Model_Space
340
22
  0
BLOCK_RECORD
  5
1B
330
1
100
AcDbSymbolTableRecord
100
AcDbBlockTableRecord
  2
*Paper_Space
340
1E
  0
BLOCK_RECORD
  5
23
330
1
100
AcDbSymbolTableRecord
100
AcDbBlockTableRecord
  2
*Paper_Space0
340
26
  0
ENDTAB
  0
ENDSEC
  0
SECTION
  2
BLOCKS
  0
BLOCK
  5
20
330
1F
100
AcDbEntity
  8
0
100
AcDbBlockBegin
  2
*Model_Space
 70
     0
 71
     0
 10
0.0
 20
0.0
 30
0.0
  3
*Model_Space
  1

  0
ENDBLK
  5
21
330
1F
100
AcDbEntity
  8
0
100
AcDbBlockEnd
  0
BLOCK
  5
1C
330
1B
100
AcDbEntity
 67
     1
  8
0
100
AcDbBlockBegin
  2
*Paper_Space
 70
     0
 71
     0
 10
0.0
 20
0.0
 30
0.0
  3
*Paper_Space
  1

  0
ENDBLK
  5
1D
330
1B
100
AcDbEntity
 67
     1
  8
0
100
AcDbBlockEnd
  0
BLOCK
  5
24
330
23
100
AcDbEntity
  8
0
100
AcDbBlockBegin
  2
*Paper_Space0
 70
     0
 71
     0
 10
0.0
 20
0.0
 30
0.0
  3
*Paper_Space0
  1

  0
ENDBLK
  5
25
330
23
100
AcDbEntity
  8
0
100
AcDbBlockEnd
  0
ENDSEC
  0
SECTION
  2
ENTITIES
  0
SPLINE
  5
3C
330
1F
100
AcDbEntity
  8
Layer 1
 62
     7
420
 16777215
370
     5
100
AcDbSpline
210
0.0
220
0.0
230
1.0
 70
    11
 71
     3
 72
    32
 73
    28
 74
     0
 42
0.0000000001
 43
0.0000000001
 40
0.0
 40
0.0
 40
0.0
 40
0.0
 40
1.0
 40
1.0
 40
1.0
 40
2.0
 40
2.0
 40
2.0
 40
3.0
 40
3.0
 40
3.0
 40
4.0
 40
4.0
 40
4.0
 40
5.0
 40
5.0
 40
5.0
 40
6.0
 40
6.0
 40
6.0
 40
7.0
 40
7.0
 40
7.0
 40
8.0
 40
8.0
 40
8.0
 40
9.0
 40
9.0
 40
9.0
 40
9.0
 10
88.01564396671135
 20
429.2168672972096
 30
0.0
 10
88.01564396671135
 20
429.2168672972096
 30
0.0
 10
88.01564396671135
 20
436.4171168613818
 30
0.0
 10
88.01564396671135
 20
436.4171168613818
 30
0.0
 10
88.11761879307475
 20
436.9655760626335
 30
0.0
 10
88.54687769053689
 20
437.3948349600957
 30
0.0
 10
89.09533689178866
 20
437.4968097864591
 30
0.0
 10
89.09533689178866
 20
437.4968097864591
 30
0.0
 10
106.1954128423748
 20
439.1618244344803
 30
0.0
 10
106.1954128423748
 20
439.1618244344803
 30
0.0
 10
106.1954128423748
 20
439.1618244344803
 30
0.0
 10
106.1954128423748
 20
440.6018743473148
 30
0.0
 10
106.1954128423748
 20
440.6018743473148
 30
0.0
 10
106.2980766878352
 20
441.150678058115
 30
0.0
 10
106.7266465662003
 20
441.5799369555772
 30
0.0
 10
107.2757947865491
 20
441.6819117819406
 30
0.0
 10
107.2757947865491
 20
441.6819117819406
 30
0.0
 10
110.8752305495381
 20
441.6819117819406
 30
0.0
 10
110.8752305495381
 20
441.6819117819406
 30
0.0
 10
111.4243787698869
 20
441.5799369555772
 30
0.0
 10
111.8536376673491
 20
441.150678058115
 30
0.0
 10
111.9556124937125
 20
440.6018743473148
 30
0.0
 10
111.9556124937125
 20
440.6018743473148
 30
0.0
 10
111.9556124937125
 20
429.3519150402314
 30
0.0
 10
111.9556124937125
 20
429.3519150402314
 30
0.0
 10
111.9556124937125
 20
429.3519150402314
 30
0.0
 10
88.01564396671135
 20
429.2168672972096
 30
0.0
 10
88.01564396671135
 20
429.2168672972096
 30
0.0
  0
SPLINE
  5
3D
330
1F
100
AcDbEntity
  8
Layer 1
 62
     7
420
 16777215
370
     5
100
AcDbSpline
210
0.0
220
0.0
230
1.0
 70
    11
 71
     3
 72
    17
 73
    13
 74
     0
 42
0.0000000001
 43
0.0000000001
 40
0.0
 40
0.0
 40
0.0
 40
0.0
 40
1.0
 40
1.0
 40
1.0
 40
2.0
 40
2.0
 40
2.0
 40
3.0
 40
3.0
 40
3.0
 40
4.0
 40
4.0
 40
4.0
 40
4.0
 10
90.98531627499672
 20
434.8868054468338
 30
0.0
 10
91.63161618802958
 20
434.8868054468338
 30
0.0
 10
92.15527070178756
 20
434.3631509330758
 30
0.0
 10
92.15527070178756
 20
433.716851020043
 30
0.0
 10
92.15527070178756
 20
433.0708956165586
 30
0.0
 10
91.63161618802958
 20
432.5468965932521
 30
0.0
 10
90.98531627499672
 20
432.5468965932521
 30
0.0
 10
90.3397053810609
 20
432.5468965932521
 30
0.0
 10
89.81536184820587
 20
433.0708956165586
 30
0.0
 10
89.81536184820587
 20
433.716851020043
 30
0.0
 10
89.81536184820587
 20
434.3631509330758
 30
0.0
 10
90.3397053810609
 20
434.8868054468338
 30
0.0
 10
90.98531627499672
 20
434.8868054468338
 30
0.0
  0
SPLINE
  5
3E
330
1F
100
AcDbEntity
  8
Layer 1
 62
     7
420
 16777215
370
     5
100
AcDbSpline
210
0.0
220
0.0
230
1.0
 70
    11
 71
     3
 72
    32
 73
    28
 74
     0
 42
0.0000000001
 43
0.0000000001
 40
0.0
 40
0.0
 40
0.0
 40
0.0
 40
1.0
 40
1.0
 40
1.0
 40
2.0
 40
2.0
 40
2.0
 40
3.0
 40
3.0
 40
3.0
 40
4.0
 40
4.0
 40
4.0
 40
5.0
 40
5.0
 40
5.0
 40
6.0
 40
6.0
 40
6.0
 40
7.0
 40
7.0
 40
7.0
 40
8.0
 40
8.0
 40
8.0
 40
9.0
 40
9.0
 40
9.0
 40
9.0
 10
115.0155463037114
 20
429.2168672972096
 30
0.0
 10
115.0155463037114
 20
429.2168672972096
 30
0.0
 10
115.0155463037114
 20
436.4171168613818
 30
0.0
 10
115.0155463037114
 20
436.4171168613818
 30
0.0
 10
115.1175211300748
 20
436.9655760626335
 30
0.0
 10
115.5467800275369
 20
437.3948349600957
 30
0.0
 10
116.0952392287887
 20
437.4968097864591
 30
0.0
 10
116.0952392287887
 20
437.4968097864591
 30
0.0
 10
133.1953151793748
 20
439.1618244344803
 30
0.0
 10
133.1953151793748
 20
439.1618244344803
 30
0.0
 10
133.1953151793748
 20
439.1618244344803
 30
0.0
 10
133.1953151793748
 20
440.6018743473148
 30
0.0
 10
133.1953151793748
 20
440.6018743473148
 30
0.0
 10
133.2979790248352
 20
441.150678058115
 30
0.0
 10
133.7272379222973
 20
441.5799369555772
 30
0.0
 10
134.2756971235491
 20
441.6819117819406
 30
0.0
 10
134.2756971235491
 20
441.6819117819406
 30
0.0
 10
137.8758219056352
 20
441.6819117819406
 30
0.0
 10
137.8758219056352
 20
441.6819117819406
 30
0.0
 10
138.424281106887
 20
441.5799369555772
 30
0.0
 10
138.8535400043491
 20
441.150678058115
 30
0.0
 10
138.9555148307125
 20
440.6018743473148
 30
0.0
 10
138.9555148307125
 20
440.6018743473148
 30
0.0
 10
138.9555148307125
 20
429.3519150402314
 30
0.0
 10
138.9555148307125
 20
429.3519150402314
 30
0.0
 10
138.9555148307125
 20
429.3519150402314
 30
0.0
 10
115.0155463037114
 20
429.2168672972096
 30
0.0
 10
115.0155463037114
 20
429.2168672972096
 30
0.0
  0
SPLINE
  5
3F
330
1F
100
AcDbEntity
  8
Layer 1
 62
     7
420
 16777215
370
     5
100
AcDbSpline
210
0.0
220
0.0
230
1.0
 70
    11
 71
     3
 72
    17
 73
    13
 74
     0
 42
0.0000000001
 43
0.0000000001
 40
0.0
 40
0.0
 40
0.0
 40
0.0
 40
1.0
 40
1.0
 40
1.0
 40
2.0
 40
2.0
 40
2.0
 40
3.0
 40
3.0
 40
3.0
 40
4.0
 40
4.0
 40
4.0
 40
4.0
 10
117.9859076310938
 20
434.8868054468338
 30
0.0
 10
118.6315185250296
 20
434.8868054468338
 30
0.0
 10
119.1558620578846
 20
434.3631509330758
 30
0.0
 10
119.1558620578846
 20
433.716851020043
 30
0.0
 10
119.1558620578846
 20
433.0708956165586
 30
0.0
 10
118.6315185250296
 20
432.5468965932521
 30
0.0
 10
117.9859076310938
 20
432.5468965932521
 30
0.0
 10
117.3396077180609
 20
432.5468965932521
 30
0.0
 10
116.8152641852059
 20
433.0708956165586
 30
0.0
 10
116.8152641852059
 20
433.716851020043
 30
0.0
 10
116.8152641852059
 20
434.3631509330758
 30
0.0
 10
117.3396077180609
 20
434.8868054468338
 30
0.0
 10
117.9859076310938
 20
434.8868054468338
 30
0.0
  0
SPLINE
  5
40
330
1F
100
AcDbEntity
  8
Layer 1
 62
     7
420
 16777215
370
     5
100
AcDbSpline
210
0.0
220
0.0
230
1.0
 70
    11
 71
     3
 72
    32
 73
    28
 74
     0
 42
0.0000000001
 43
0.0000000001
 40
0.0
 40
0.0
 40
0.0
 40
0.0
 40
1.0
 40
1.0
 40
1.0
 40
2.0
 40
2.0
 40
2.0
 40
3.0
 40
3.0
 40
3.0
 40
4.0
 40
4.0
 40
4.0
 40
5.0
 40
5.0
 40
5.0
 40
6.0
 40
6.0
 40
6.0
 40
7.0
 40
7.0
 40
7.0
 40
8.0
 40
8.0
 40
8.0
 40
9.0
 40
9.0
 40
9.0
 40
9.0
 10
142.0154486407114
 20
429.2168672972096
 30
0.0
 10
142.0154486407114
 20
429.2168672972096
 30
0.0
 10
142.0154486407114
 20
436.4171168613818
 30
0.0
 10
142.0154486407114
 20
436.4171168613818
 30
0.0
 10
142.1174234670748
 20
436.9655760626335
 30
0.0
 10
142.5466823645369
 20
437.3948349600957
 30
0.0
 10
143.0958305848858
 20
437.4968097864591
 30
0.0
 10
143.0958305848858
 20
437.4968097864591
 30
0.0
 10
160.1960787902461
 20
439.1618244344803
 30
0.0
 10
160.1960787902461
 20
439.1618244344803
 30
0.0
 10
160.1960787902461
 20
439.1618244344803
 30
0.0
 10
160.1960787902461
 20
440.6018743473148
 30
0.0
 10
160.1960787902461
 20
440.6018743473148
 30
0.0
 10
160.2980536166095
 20
441.150678058115
 30
0.0
 10
160.7273125140716
 20
441.5799369555772
 30
0.0
 10
161.2757717153234
 20
441.6819117819406
 30
0.0
 10
161.2757717153234
 20
441.6819117819406
 30
0.0
 10
164.8758964974095
 20
441.6819117819406
 30
0.0
 10
164.8758964974095
 20
441.6819117819406
 30
0.0
 10
165.4243556986613
 20
441.5799369555772
 30
0.0
 10
165.8536145961234
 20
441.150678058115
 30
0.0
 10
165.9555894224868
 20
440.6018743473148
 30
0.0
 10
165.9555894224868
 20
440.6018743473148
 30
0.0
 10
165.9555894224868
 20
429.3519150402314
 30
0.0
 10
165.9555894224868
 20
429.3519150402314
 30
0.0
 10
165.9555894224868
 20
429.3519150402314
 30
0.0
 10
142.0154486407114
 20
429.2168672972096
 30
0.0
 10
142.0154486407114
 20
429.2168672972096
 30
0.0
  0
SPLINE
  5
41
330
1F
100
AcDbEntity
  8
Layer 1
 62
     7
420
 16777215
370
     5
100
AcDbSpline
210
0.0
220
0.0
230
1.0
 70
    11
 71
     3
 72
    17
 73
    13
 74
     0
 42
0.0000000001
 43
0.0000000001
 40
0.0
 40
0.0
 40
0.0
 40
0.0
 40
1.0
 40
1.0
 40
1.0
 40
2.0
 40
2.0
 40
2.0
 40
3.0
 40
3.0
 40
3.0
 40
4.0
 40
4.0
 40
4.0
 40
4.0
 10
144.9858099680938
 20
434.8868054468338
 30
0.0
 10
145.6314208620296
 20
434.8868054468338
 30
0.0
 10
146.1557643948846
 20
434.3631509330758
 30
0.0
 10
146.1557643948846
 20
433.716851020043
 30
0.0
 10
146.1557643948846
 20
433.0708956165586
 30
0.0
 10
145.6314208620296
 20
432.5468965932521
 30
0.0
 10
144.9858099680938
 20
432.5468965932521
 30
0.0
 10
144.3395100550609
 20
432.5468965932521
 30
0.0
 10
143.815855541303
 20
433.0708956165586
 30
0.0
 10
143.815855541303
 20
433.716851020043
 30
0.0
 10
143.815855541303
 20
434.3631509330758
 30
0.0
 10
144.3395100550609
 20
434.8868054468338
 30
0.0
 10
144.9858099680938
 20
434.8868054468338
 30
0.0
  0
SPLINE
  5
42
330
1F
100
AcDbEntity
  8
Layer 1
 62
     7
420
 16777215
370
     5
100
AcDbSpline
210
0.0
220
0.0
230
1.0
 70
    11
 71
     3
 72
    32
 73
    28
 74
     0
 42
0.0000000001
 43
0.0000000001
 40
0.0
 40
0.0
 40
0.0
 40
0.0
 40
1.0
 40
1.0
 40
1.0
 40
2.0
 40
2.0
 40
2.0
 40
3.0
 40
3.0
 40
3.0
 40
4.0
 40
4.0
 40
4.0
 40
5.0
 40
5.0
 40
5.0
 40
6.0
 40
6.0
 40
6.0
 40
7.0
 40
7.0
 40
7.0
 40
8.0
 40
8.0
 40
8.0
 40
9.0
 40
9.0
 40
9.0
 40
9.0
 10
169.0155232324857
 20
429.2168672972096
 30
0.0
 10
169.0155232324857
 20
429.2168672972096
 30
0.0
 10
169.0155232324857
 20
436.4171168613818
 30
0.0
 10
169.0155232324857
 20
436.4171168613818
 30
0.0
 10
169.1181870779461
 20
436.9655760626335
 30
0.0
 10
169.5474459754083
 20
437.3948349600957
 30
0.0
 10
170.09590517666
 20
437.4968097864591
 30
0.0
 10
170.09590517666
 20
437.4968097864591
 30
0.0
 10
187.1959811272461
 20
439.1618244344803
 30
0.0
 10
187.1959811272461
 20
439.1618244344803
 30
0.0
 10
187.1959811272461
 20
439.1618244344803
 30
0.0
 10
187.1959811272461
 20
440.6018743473148
 30
0.0
 10
187.1959811272461
 20
440.6018743473148
 30
0.0
 10
187.2979559536095
 20
441.150678058115
 30
0.0
 10
187.7272148510716
 20
441.5799369555772
 30
0.0
 10
188.2756740523234
 20
441.6819117819406
 30
0.0
 10
188.2756740523234
 20
441.6819117819406
 30
0.0
 10
191.8757988344095
 20
441.6819117819406
 30
0.0
 10
191.8757988344095
 20
441.6819117819406
 30
0.0
 10
192.4242580356613
 20
441.5799369555772
 30
0.0
 10
192.8535169331234
 20
441.150678058115
 30
0.0
 10
192.9554917594868
 20
440.6018743473148
 30
0.0
 10
192.9554917594868
 20
440.6018743473148
 30
0.0
 10
192.9554917594868
 20
429.3519150402314
 30
0.0
 10
192.9554917594868
 20
429.3519150402314
 30
0.0
 10
192.9554917594868
 20
429.3519150402314
 30
0.0
 10
169.0155232324857
 20
429.2168672972096
 30
0.0
 10
169.0155232324857
 20
429.2168672972096
 30
0.0
  0
SPLINE
  5
43
330
1F
100
AcDbEntity
  8
Layer 1
 62
     7
420
 16777215
370
     5
100
AcDbSpline
210
0.0
220
0.0
230
1.0
 70
    11
 71
     3
 72
    17
 73
    13
 74
     0
 42
0.0000000001
 43
0.0000000001
 40
0.0
 40
0.0
 40
0.0
 40
0.0
 40
1.0
 40
1.0
 40
1.0
 40
2.0
 40
2.0
 40
2.0
 40
3.0
 40
3.0
 40
3.0
 40
4.0
 40
4.0
 40
4.0
 40
4.0
 10
171.9858845598681
 20
434.8868054468338
 30
0.0
 10
172.632184472901
 20
434.8868054468338
 30
0.0
 10
173.1558389866589
 20
434.3631509330758
 30
0.0
 10
173.1558389866589
 20
433.716851020043
 30
0.0
 10
173.1558389866589
 20
433.0708956165586
 30
0.0
 10
172.632184472901
 20
432.5468965932521
 30
0.0
 10
171.9858845598681
 20
432.5468965932521
 30
0.0
 10
171.3395846468352
 20
432.5468965932521
 30
0.0
 10
170.8159301330772
 20
433.0708956165586
 30
0.0
 10
170.8159301330772
 20
433.716851020043
 30
0.0
 10
170.8159301330772
 20
434.3631509330758
 30
0.0
 10
171.3395846468352
 20
434.8868054468338
 30
0.0
 10
171.9858845598681
 20
434.8868054468338
 30
0.0
  0
SPLINE
  5
44
330
1F
100
AcDbEntity
  8
Layer 1
 62
     7
420
 16777215
370
     5
100
AcDbSpline
210
0.0
220
0.0
230
1.0
 70
    11
 71
     3
 72
    32
 73
    28
 74
     0
 42
0.0000000001
 43
0.0000000001
 40
0.0
 40
0.0
 40
0.0
 40
0.0
 40
1.0
 40
1.0
 40
1.0
 40
2.0
 40
2.0
 40
2.0
 40
3.0
 40
3.0
 40
3.0
 40
4.0
 40
4.0
 40
4.0
 40
5.0
 40
5.0
 40
5.0
 40
6.0
 40
6.0
 40
6.0
 40
7.0
 40
7.0
 40
7.0
 40
8.0
 40
8.0
 40
8.0
 40
9.0
 40
9.0
 40
9.0
 40
9.0
 10
196.0154255694857
 20
429.2168672972096
 30
0.0
 10
196.0154255694857
 20
429.2168672972096
 30
0.0
 10
196.0154255694857
 20
436.4171168613818
 30
0.0
 10
196.0154255694857
 20
436.4171168613818
 30
0.0
 10
196.1180894149462
 20
436.9655760626335
 30
0.0
 10
196.5473483124083
 20
437.3948349600957
 30
0.0
 10
197.09580751366
 20
437.4968097864591
 30
0.0
 10
197.09580751366
 20
437.4968097864591
 30
0.0
 10
214.1958834642462
 20
439.1618244344803
 30
0.0
 10
214.1958834642462
 20
439.1618244344803
 30
0.0
 10
214.1958834642462
 20
439.1618244344803
 30
0.0
 10
214.1958834642462
 20
440.6018743473148
 30
0.0
 10
214.1958834642462
 20
440.6018743473148
 30
0.0
 10
214.2978582906095
 20
441.150678058115
 30
0.0
 10
214.7271171880717
 20
441.5799369555772
 30
0.0
 10
215.2755763893234
 20
441.6819117819406
 30
0.0
 10
215.2755763893234
 20
441.6819117819406
 30
0.0
 10
218.8757011714095
 20
441.6819117819406
 30
0.0
 10
218.8757011714095
 20
441.6819117819406
 30
0.0
 10
219.4241603726613
 20
441.5799369555772
 30
0.0
 10
219.8534192701234
 20
441.150678058115
 30
0.0
 10
219.9553940964868
 20
440.6018743473148
 30
0.0
 10
219.9553940964868
 20
440.6018743473148
 30
0.0
 10
219.9553940964868
 20
429.3519150402314
 30
0.0
 10
219.9553940964868
 20
429.3519150402314
 30
0.0
 10
219.9553940964868
 20
429.3519150402314
 30
0.0
 10
196.0154255694857
 20
429.2168672972096
 30
0.0
 10
196.0154255694857
 20
429.2168672972096
 30
0.0
  0
SPLINE
  5
45
330
1F
100
AcDbEntity
  8
Layer 1
 62
     7
420
 16777215
370
     5
100
AcDbSpline
210
0.0
220
0.0
230
1.0
 70
    11
 71
     3
 72
    17
 73
    13
 74
     0
 42
0.0000000001
 43
0.0000000001
 40
0.0
 40
0.0
 40
0.0
 40
0.0
 40
1.0
 40
1.0
 40
1.0
 40
2.0
 40
2.0
 40
2.0
 40
3.0
 40
3.0
 40
3.0
 40
4.0
 40
4.0
 40
4.0
 40
4.0
 10
198.9857868968681
 20
434.8868054468338
 30
0.0
 10
199.632086809901
 20
434.8868054468338
 30
0.0
 10
200.155741323659
 20
434.3631509330758
 30
0.0
 10
200.155741323659
 20
433.716851020043
 30
0.0
 10
200.155741323659
 20
433.0708956165586
 30
0.0
 10
199.632086809901
 20
432.5468965932521
 30
0.0
 10
198.9857868968681
 20
432.5468965932521
 30
0.0
 10
198.3394869838353
 20
432.5468965932521
 30
0.0
 10
197.8158324700773
 20
433.0708956165586
 30
0.0
 10
197.8158324700773
 20
433.716851020043
 30
0.0
 10
197.8158324700773
 20
434.3631509330758
 30
0.0
 10
198.3394869838353
 20
434.8868054468338
 30
0.0
 10
198.9857868968681
 20
434.8868054468338
 30
0.0
  0
SPLINE
  5
46
330
1F
100
AcDbEntity
  8
Layer 1
 62
     7
420
 16777215
370
     5
100
AcDbSpline
210
0.0
220
0.0
230
1.0
 70
    11
 71
     3
 72
    32
 73
    28
 74
     0
 42
0.0000000001
 43
0.0000000001
 40
0.0
 40
0.0
 40
0.0
 40
0.0
 40
1.0
 40
1.0
 40
1.0
 40
2.0
 40
2.0
 40
2.0
 40
3.0
 40
3.0
 40
3.0
 40
4.0
 40
4.0
 40
4.0
 40
5.0
 40
5.0
 40
5.0
 40
6.0
 40
6.0
 40
6.0
 40
7.0
 40
7.0
 40
7.0
 40
8.0
 40
8.0
 40
8.0
 40
9.0
 40
9.0
 40
9.0
 40
9.0
 10
223.0160169255828
 20
429.2168672972096
 30
0.0
 10
223.0160169255828
 20
429.2168672972096
 30
0.0
 10
223.0160169255828
 20
436.4171168613818
 30
0.0
 10
223.0160169255828
 20
436.4171168613818
 30
0.0
 10
223.1179917519462
 20
436.9655760626335
 30
0.0
 10
223.5472506494083
 20
437.3948349600957
 30
0.0
 10
224.0957098506601
 20
437.4968097864591
 30
0.0
 10
224.0957098506601
 20
437.4968097864591
 30
0.0
 10
241.1957858012462
 20
439.1618244344803
 30
0.0
 10
241.1957858012462
 20
439.1618244344803
 30
0.0
 10
241.1957858012462
 20
439.1618244344803
 30
0.0
 10
241.1957858012462
 20
440.6018743473148
 30
0.0
 10
241.1957858012462
 20
440.6018743473148
 30
0.0
 10
241.2977606276096
 20
441.150678058115
 30
0.0
 10
241.7270195250717
 20
441.5799369555772
 30
0.0
 10
242.2754787263235
 20
441.6819117819406
 30
0.0
 10
242.2754787263235
 20
441.6819117819406
 30
0.0
 10
245.8756035084095
 20
441.6819117819406
 30
0.0
 10
245.8756035084095
 20
441.6819117819406
 30
0.0
 10
246.4240627096613
 20
441.5799369555772
 30
0.0
 10
246.8533216071234
 20
441.150678058115
 30
0.0
 10
246.9559854525839
 20
440.6018743473148
 30
0.0
 10
246.9559854525839
 20
440.6018743473148
 30
0.0
 10
246.9559854525839
 20
429.3519150402314
 30
0.0
 10
246.9559854525839
 20
429.3519150402314
 30
0.0
 10
246.9559854525839
 20
429.3519150402314
 30
0.0
 10
223.0160169255828
 20
429.2168672972096
 30
0.0
 10
223.0160169255828
 20
429.2168672972096
 30
0.0
  0
SPLINE
  5
47
330
1F
100
AcDbEntity
  8
Layer 1
 62
     7
420
 16777215
370
     5
100
AcDbSpline
210
0.0
220
0.0
230
1.0
 70
    11
 71
     3
 72
    17
 73
    13
 74
     0
 42
0.0000000001
 43
0.0000000001
 40
0.0
 40
0.0
 40
0.0
 40
0.0
 40
1.0
 40
1.0
 40
1.0
 40
2.0
 40
2.0
 40
2.0
 40
3.0
 40
3.0
 40
3.0
 40
4.0
 40
4.0
 40
4.0
 40
4.0
 10
225.9856892338681
 20
434.8868054468338
 30
0.0
 10
226.631989146901
 20
434.8868054468338
 30
0.0
 10
227.155643660659
 20
434.3631509330758
 30
0.0
 10
227.155643660659
 20
433.716851020043
 30
0.0
 10
227.155643660659
 20
433.0708956165586
 30
0.0
 10
226.631989146901
 20
432.5468965932521
 30
0.0
 10
225.9856892338681
 20
432.5468965932521
 30
0.0
 10
225.3393893208353
 20
432.5468965932521
 30
0.0
 10
224.8157348070773
 20
433.0708956165586
 30
0.0
 10
224.8157348070773
 20
433.716851020043
 30
0.0
 10
224.8157348070773
 20
434.3631509330758
 30
0.0
 10
225.3393893208353
 20
434.8868054468338
 30
0.0
 10
225.9856892338681
 20
434.8868054468338
 30
0.0
  0
SPLINE
  5
48
330
1F
100
AcDbEntity
  8
Layer 1
 62
     7
420
 16777215
370
     5
100
AcDbSpline
210
0.0
220
0.0
230
1.0
 70
    11
 71
     3
 72
    32
 73
    28
 74
     0
 42
0.0000000001
 43
0.0000000001
 40
0.0
 40
0.0
 40
0.0
 40
0.0
 40
1.0
 40
1.0
 40
1.0
 40
2.0
 40
2.0
 40
2.0
 40
3.0
 40
3.0
 40
3.0
 40
4.0
 40
4.0
 40
4.0
 40
5.0
 40
5.0
 40
5.0
 40
6.0
 40
6.0
 40
6.0
 40
7.0
 40
7.0
 40
7.0
 40
8.0
 40
8.0
 40
8.0
 40
9.0
 40
9.0
 40
9.0
 40
9.0
 10
250.0159192625828
 20
429.2168672972096
 30
0.0
 10
250.0159192625828
 20
429.2168672972096
 30
0.0
 10
250.0159192625828
 20
436.4171168613818
 30
0.0
 10
250.0159192625828
 20
436.4171168613818
 30
0.0
 10
250.1178940889462
 20
436.9655760626335
 30
0.0
 10
250.5471529864083
 20
437.3948349600957
 30
0.0
 10
251.0956121876601
 20
437.4968097864591
 30
0.0
 10
251.0956121876601
 20
437.4968097864591
 30
0.0
 10
268.1956881382462
 20
439.1618244344803
 30
0.0
 10
268.1956881382462
 20
439.1618244344803
 30
0.0
 10
268.1956881382462
 20
439.1618244344803
 30
0.0
 10
268.1956881382462
 20
440.6018743473148
 30
0.0
 10
268.1956881382462
 20
440.6018743473148
 30
0.0
 10
268.2976629646096
 20
441.150678058115
 30
0.0
 10
268.7269218620717
 20
441.5799369555772
 30
0.0
 10
269.2760700824205
 20
441.6819117819406
 30
0.0
 10
269.2760700824205
 20
441.6819117819406
 30
0.0
 10
272.8755058454096
 20
441.6819117819406
 30
0.0
 10
272.8755058454096
 20
441.6819117819406
 30
0.0
 10
273.4246540657584
 20
441.5799369555772
 30
0.0
 10
273.8539129632205
 20
441.150678058115
 30
0.0
 10
273.9558877895839
 20
440.6018743473148
 30
0.0
 10
273.9558877895839
 20
440.6018743473148
 30
0.0
 10
273.9558877895839
 20
429.3519150402314
 30
0.0
 10
273.9558877895839
 20
429.3519150402314
 30
0.0
 10
273.9558877895839
 20
429.3519150402314
 30
0.0
 10
250.0159192625828
 20
429.2168672972096
 30
0.0
 10
250.0159192625828
 20
429.2168672972096
 30
0.0
  0
SPLINE
  5
49
330
1F
100
AcDbEntity
  8
Layer 1
 62
     7
420
 16777215
370
     5
100
AcDbSpline
210
0.0
220
0.0
230
1.0
 70
    11
 71
     3
 72
    17
 73
    13
 74
     0
 42
0.0000000001
 43
0.0000000001
 40
0.0
 40
0.0
 40
0.0
 40
0.0
 40
1.0
 40
1.0
 40
1.0
 40
2.0
 40
2.0
 40
2.0
 40
3.0
 40
3.0
 40
3.0
 40
4.0
 40
4.0
 40
4.0
 40
4.0
 10
252.9855915708682
 20
434.8868054468338
 30
0.0
 10
253.631891483901
 20
434.8868054468338
 30
0.0
 10
254.155545997659
 20
434.3631509330758
 30
0.0
 10
254.155545997659
 20
433.716851020043
 30
0.0
 10
254.155545997659
 20
433.0708956165586
 30
0.0
 10
253.631891483901
 20
432.5468965932521
 30
0.0
 10
252.9855915708682
 20
432.5468965932521
 30
0.0
 10
252.3392916578353
 20
432.5468965932521
 30
0.0
 10
251.8156371440773
 20
433.0708956165586
 30
0.0
 10
251.8156371440773
 20
433.716851020043
 30
0.0
 10
251.8156371440773
 20
434.3631509330758
 30
0.0
 10
252.3392916578353
 20
434.8868054468338
 30
0.0
 10
252.9855915708682
 20
434.8868054468338
 30
0.0
  0
SPLINE
  5
4A
330
1F
100
AcDbEntity
  8
Layer 1
 62
     7
420
 16777215
370
     5
100
AcDbSpline
210
0.0
220
0.0
230
1.0
 70
    11
 71
     3
 72
    32
 73
    28
 74
     0
 42
0.0000000001
 43
0.0000000001
 40
0.0
 40
0.0
 40
0.0
 40
0.0
 40
1.0
 40
1.0
 40
1.0
 40
2.0
 40
2.0
 40
2.0
 40
3.0
 40
3.0
 40
3.0
 40
4.0
 40
4.0
 40
4.0
 40
5.0
 40
5.0
 40
5.0
 40
6.0
 40
6.0
 40
6.0
 40
7.0
 40
7.0
 40
7.0
 40
8.0
 40
8.0
 40
8.0
 40
9.0
 40
9.0
 40
9.0
 40
9.0
 10
88.01564396671135
 20
411.2169324058763
 30
0.0
 10
88.01564396671135
 20
411.2169324058763
 30
0.0
 10
88.01564396671135
 20
418.4168374604999
 30
0.0
 10
88.01564396671135
 20
418.4168374604999
 30
0.0
 10
88.11761879307475
 20
418.9656411713002
 30
0.0
 10
88.54687769053689
 20
419.3945555592138
 30
0.0
 10
89.09533689178866
 20
419.4968748951258
 30
0.0
 10
89.09533689178866
 20
419.4968748951258
 30
0.0
 10
106.1954128423748
 20
421.161889543147
 30
0.0
 10
106.1954128423748
 20
421.161889543147
 30
0.0
 10
106.1954128423748
 20
421.161889543147
 30
0.0
 10
106.1954128423748
 20
422.6019394559814
 30
0.0
 10
106.1954128423748
 20
422.6019394559814
 30
0.0
 10
106.2980766878352
 20
423.1503986572332
 30
0.0
 10
106.7266465662003
 20
423.5796575546953
 30
0.0
 10
107.2757947865491
 20
423.6819768906072
 30
0.0
 10
107.2757947865491
 20
423.6819768906072
 30
0.0
 10
110.8752305495381
 20
423.6819768906072
 30
0.0
 10
110.8752305495381
 20
423.6819768906072
 30
0.0
 10
111.4243787698869
 20
423.5796575546953
 30
0.0
 10
111.8536376673491
 20
423.1503986572332
 30
0.0
 10
111.9556124937125
 20
422.6019394559814
 30
0.0
 10
111.9556124937125
 20
422.6019394559814
 30
0.0
 10
111.9556124937125
 20
411.3519801488981
 30
0.0
 10
111.9556124937125
 20
411.3519801488981
 30
0.0
 10
111.9556124937125
 20
411.3519801488981
 30
0.0
 10
88.01564396671135
 20
411.2169324058763
 30
0.0
 10
88.01564396671135
 20
411.2169324058763
 30
0.0
  0
SPLINE
  5
4B
330
1F
100
AcDbEntity
  8
Layer 1
 62
     7
420
 16777215
370
     5
100
AcDbSpline
210
0.0
220
0.0
230
1.0
 70
    11
 71
     3
 72
    17
 73
    13
 74
     0
 42
0.0000000001
 43
0.0000000001
 40
0.0
 40
0.0
 40
0.0
 40
0.0
 40
1.0
 40
1.0
 40
1.0
 40
2.0
 40
2.0
 40
2.0
 40
3.0
 40
3.0
 40
3.0
 40
4.0
 40
4.0
 40
4.0
 40
4.0
 10
90.98531627499672
 20
416.8868705555005
 30
0.0
 10
91.63161618802958
 20
416.8868705555005
 30
0.0
 10
92.15527070178756
 20
416.3632160417425
 30
0.0
 10
92.15527070178756
 20
415.7169161287096
 30
0.0
 10
92.15527070178756
 20
415.0706162156768
 30
0.0
 10
91.63161618802958
 20
414.5469617019187
 30
0.0
 10
90.98531627499672
 20
414.5469617019187
 30
0.0
 10
90.3397053810609
 20
414.5469617019187
 30
0.0
 10
89.81536184820587
 20
415.0706162156768
 30
0.0
 10
89.81536184820587
 20
415.7169161287096
 30
0.0
 10
89.81536184820587
 20
416.3632160417425
 30
0.0
 10
90.3397053810609
 20
416.8868705555005
 30
0.0
 10
90.98531627499672
 20
416.8868705555005
 30
0.0
  0
SPLINE
  5
4C
330
1F
100
AcDbEntity
  8
Layer 1
 62
     7
420
 16777215
370
     5
100
AcDbSpline
210
0.0
220
0.0
230
1.0
 70
    11
 71
     3
 72
    32
 73
    28
 74
     0
 42
0.0000000001
 43
0.0000000001
 40
0.0
 40
0.0
 40
0.0
 40
0.0
 40
1.0
 40
1.0
 40
1.0
 40
2.0
 40
2.0
 40
2.0
 40
3.0
 40
3.0
 40
3.0
 40
4.0
 40
4.0
 40
4.0
 40
5.0
 40
5.0
 40
5.0
 40
6.0
 40
6.0
 40
6.0
 40
7.0
 40
7.0
 40
7.0
 40
8.0
 40
8.0
 40
8.0
 40
9.0
 40
9.0
 40
9.0
 40
9.0
 10
115.0155463037114
 20
411.2169324058763
 30
0.0
 10
115.0155463037114
 20
411.2169324058763
 30
0.0
 10
115.0155463037114
 20
418.4168374604999
 30
0.0
 10
115.0155463037114
 20
418.4168374604999
 30
0.0
 10
115.1175211300748
 20
418.9656411713002
 30
0.0
 10
115.5467800275369
 20
419.3945555592138
 30
0.0
 10
116.0952392287887
 20
419.4968748951258
 30
0.0
 10
116.0952392287887
 20
419.4968748951258
 30
0.0
 10
133.1953151793748
 20
421.161889543147
 30
0.0
 10
133.1953151793748
 20
421.161889543147
 30
0.0
 10
133.1953151793748
 20
421.161889543147
 30
0.0
 10
133.1953151793748
 20
422.6019394559814
 30
0.0
 10
133.1953151793748
 20
422.6019394559814
 30
0.0
 10
133.2979790248352
 20
423.1503986572332
 30
0.0
 10
133.7272379222973
 20
423.5796575546953
 30
0.0
 10
134.2756971235491
 20
423.6819768906072
 30
0.0
 10
134.2756971235491
 20
423.6819768906072
 30
0.0
 10
137.8758219056352
 20
423.6819768906072
 30
0.0
 10
137.8758219056352
 20
423.6819768906072
 30
0.0
 10
138.424281106887
 20
423.5796575546953
 30
0.0
 10
138.8535400043491
 20
423.1503986572332
 30
0.0
 10
138.9555148307125
 20
422.6019394559814
 30
0.0
 10
138.9555148307125
 20
422.6019394559814
 30
0.0
 10
138.9555148307125
 20
411.3519801488981
 30
0.0
 10
138.9555148307125
 20
411.3519801488981
 30
0.0
 10
138.9555148307125
 20
411.3519801488981
 30
0.0
 10
115.0155463037114
 20
411.2169324058763
 30
0.0
 10
115.0155463037114
 20
411.2169324058763
 30
0.0
  0
SPLINE
  5
4D
330
1F
100
AcDbEntity
  8
Layer 1
 62
     7
420
 16777215
370
     5
100
AcDbSpline
210
0.0
220
0.0
230
1.0
 70
    11
 71
     3
 72
    17
 73
    13
 74
     0
 42
0.0000000001
 43
0.0000000001
 40
0.0
 40
0.0
 40
0.0
 40
0.0
 40
1.0
 40
1.0
 40
1.0
 40
2.0
 40
2.0
 40
2.0
 40
3.0
 40
3.0
 40
3.0
 40
4.0
 40
4.0
 40
4.0
 40
4.0
 10
117.9859076310938
 20
416.8868705555005
 30
0.0
 10
118.6315185250296
 20
416.8868705555005
 30
0.0
 10
119.1558620578846
 20
416.3632160417425
 30
0.0
 10
119.1558620578846
 20
415.7169161287096
 30
0.0
 10
119.1558620578846
 20
415.0706162156768
 30
0.0
 10
118.6315185250296
 20
414.5469617019187
 30
0.0
 10
117.9859076310938
 20
414.5469617019187
 30
0.0
 10
117.3396077180609
 20
414.5469617019187
 30
0.0
 10
116.8152641852059
 20
415.0706162156768
 30
0.0
 10
116.8152641852059
 20
415.7169161287096
 30
0.0
 10
116.8152641852059
 20
416.3632160417425
 30
0.0
 10
117.3396077180609
 20
416.8868705555005
 30
0.0
 10
117.9859076310938
 20
416.8868705555005
 30
0.0
  0
SPLINE
  5
4E
330
1F
100
AcDbEntity
  8
Layer 1
 62
     7
420
 16777215
370
     5
100
AcDbSpline
210
0.0
220
0.0
230
1.0
 70
    11
 71
     3
 72
    32
 73
    28
 74
     0
 42
0.0000000001
 43
0.0000000001
 40
0.0
 40
0.0
 40
0.0
 40
0.0
 40
1.0
 40
1.0
 40
1.0
 40
2.0
 40
2.0
 40
2.0
 40
3.0
 40
3.0
 40
3.0
 40
4.0
 40
4.0
 40
4.0
 40
5.0
 40
5.0
 40
5.0
 40
6.0
 40
6.0
 40
6.0
 40
7.0
 40
7.0
 40
7.0
 40
8.0
 40
8.0
 40
8.0
 40
9.0
 40
9.0
 40
9.0
 40
9.0
 10
142.0154486407114
 20
411.2169324058763
 30
0.0
 10
142.0154486407114
 20
411.2169324058763
 30
0.0
 10
142.0154486407114
 20
418.4168374604999
 30
0.0
 10
142.0154486407114
 20
418.4168374604999
 30
0.0
 10
142.1174234670748
 20
418.9656411713002
 30
0.0
 10
142.5466823645369
 20
419.3945555592138
 30
0.0
 10
143.0958305848858
 20
419.4968748951258
 30
0.0
 10
143.0958305848858
 20
419.4968748951258
 30
0.0
 10
160.1960787902461
 20
421.161889543147
 30
0.0
 10
160.1960787902461
 20
421.161889543147
 30
0.0
 10
160.1960787902461
 20
421.161889543147
 30
0.0
 10
160.1960787902461
 20
422.6019394559814
 30
0.0
 10
160.1960787902461
 20
422.6019394559814
 30
0.0
 10
160.2980536166095
 20
423.1503986572332
 30
0.0
 10
160.7273125140716
 20
423.5796575546953
 30
0.0
 10
161.2757717153234
 20
423.6819768906072
 30
0.0
 10
161.2757717153234
 20
423.6819768906072
 30
0.0
 10
164.8758964974095
 20
423.6819768906072
 30
0.0
 10
164.8758964974095
 20
423.6819768906072
 30
0.0
 10
165.4243556986613
 20
423.5796575546953
 30
0.0
 10
165.8536145961234
 20
423.1503986572332
 30
0.0
 10
165.9555894224868
 20
422.6019394559814
 30
0.0
 10
165.9555894224868
 20
422.6019394559814
 30
0.0
 10
165.9555894224868
 20
411.3519801488981
 30
0.0
 10
165.9555894224868
 20
411.3519801488981
 30
0.0
 10
165.9555894224868
 20
411.3519801488981
 30
0.0
 10
142.0154486407114
 20
411.2169324058763
 30
0.0
 10
142.0154486407114
 20
411.2169324058763
 30
0.0
  0
SPLINE
  5
4F
330
1F
100
AcDbEntity
  8
Layer 1
 62
     7
420
 16777215
370
     5
100
AcDbSpline
210
0.0
220
0.0
230
1.0
 70
    11
 71
     3
 72
    17
 73
    13
 74
     0
 42
0.0000000001
 43
0.0000000001
 40
0.0
 40
0.0
 40
0.0
 40
0.0
 40
1.0
 40
1.0
 40
1.0
 40
2.0
 40
2.0
 40
2.0
 40
3.0
 40
3.0
 40
3.0
 40
4.0
 40
4.0
 40
4.0
 40
4.0
 10
144.9858099680938
 20
416.8868705555005
 30
0.0
 10
145.6314208620296
 20
416.8868705555005
 30
0.0
 10
146.1557643948846
 20
416.3632160417425
 30
0.0
 10
146.1557643948846
 20
415.7169161287096
 30
0.0
 10
146.1557643948846
 20
415.0706162156768
 30
0.0
 10
145.6314208620296
 20
414.5469617019187
 30
0.0
 10
144.9858099680938
 20
414.5469617019187
 30
0.0
 10
144.3395100550609
 20
414.5469617019187
 30
0.0
 10
143.815855541303
 20
415.0706162156768
 30
0.0
 10
143.815855541303
 20
415.7169161287096
 30
0.0
 10
143.815855541303
 20
416.3632160417425
 30
0.0
 10
144.3395100550609
 20
416.8868705555005
 30
0.0
 10
144.9858099680938
 20
416.8868705555005
 30
0.0
  0
POLYLINE
  5
50
330
1F
100
AcDbEntity
  8
Layer 1
 62
     7
420
 16777215
370
     5
100
AcDb2dPolyline
 66
     1
 10
0.0
 20
0.0
 30
0.0
  0
VERTEX
  5
51
330
50
100
AcDbEntity
  8
Layer 1
 62
     7
420
 16777215
370
     5
100
AcDbVertex
100
AcDb2dVertex
 10
73.06668563711527
 20
629.519197433766
 30
0.0
  0
VERTEX
  5
52
330
50
100
AcDbEntity
  8
Layer 1
 62
     7
420
 16777215
370
     5
100
AcDbVertex
100
AcDb2dVertex
 10
145.5666530669069
 20
629.519197433766
 30
0.0
  0
VERTEX
  5
53
330
50
100
AcDbEntity
  8
Layer 1
 62
     7
420
 16777215
370
     5
100
AcDbVertex
100
AcDb2dVertex
 10
145.5666530669069
 20
557.0192300039743
 30
0.0
  0
VERTEX
  5
54
330
50
100
AcDbEntity
  8
Layer 1
 62
     7
420
 16777215
370
     5
100
AcDbVertex
100
AcDb2dVertex
 10
73.06668563711527
 20
557.0192300039743
 30
0.0
  0
VERTEX
  5
55
330
50
100
AcDbEntity
  8
Layer 1
 62
     7
420
 16777215
370
     5
100
AcDbVertex
100
AcDb2dVertex
 10
73.06668563711527
 20
629.519197433766
 30
0.0
  0
SEQEND
  5
56
330
50
100
AcDbEntity
  8
Layer 1
370
     5
  0
POLYLINE
  5
57
330
1F
100
AcDbEntity
  8
Layer 1
 62
     7
420
 16777215
370
     5
100
AcDb2dPolyline
 66
     1
 10
0.0
 20
0.0
 30
0.0
  0
VERTEX
  5
58
330
57
100
AcDbEntity
  8
Layer 1
 62
     7
420
 16777215
370
     5
100
AcDbVertex
100
AcDb2dVertex
 10
79.81666122136527
 20
593.2692137188701
 30
0.0
  0
VERTEX
  5
59
330
57
100
AcDbEntity
  8
Layer 1
 62
     7
420
 16777215
370
     5
100
AcDbVertex
100
AcDb2dVertex
 10
79.81666122136527
 20
586.5192381346201
 30
0.0
  0
VERTEX
  5
5A
330
57
100
AcDbEntity
  8
Layer 1
 62
     7
420
 16777215
370
     5
100
AcDbVertex
100
AcDb2dVertex
 10
84.3166449441986
 20
586.5192381346201
 30
0.0
  0
VERTEX
  5
5B
330
57
100
AcDbEntity
  8
Layer 1
 62
     7
420
 16777215
370
     5
100
AcDbVertex
100
AcDb2dVertex
 10
84.3166449441986
 20
600.0191893031201
 30
0.0
  0
VERTEX
  5
5C
330
57
100
AcDbEntity
  8
Layer 1
 62
     7
420
 16777215
370
     5
100
AcDbVertex
100
AcDb2dVertex
 10
79.81666122136527
 20
600.0191893031201
 30
0.0
  0
VERTEX
  5
5D
330
57
100
AcDbEntity
  8
Layer 1
 62
     7
420
 16777215
370
     5
100
AcDbVertex
100
AcDb2dVertex
 10
79.81666122136527
 20
593.2692137188701
 30
0.0
  0
SEQEND
  5
5E
330
57
100
AcDbEntity
  8
Layer 1
370
     5
  0
POLYLINE
  5
5F
330
1F
100
AcDbEntity
  8
Layer 1
 62
     7
420
 16777215
370
     5
100
AcDb2dPolyline
 66
     1
 10
0.0
 20
0.0
 30
0.0
  0
VERTEX
  5
60
330
5F
100
AcDbEntity
  8
Layer 1
 62
     7
420
 16777215
370
     5
100
AcDbVertex
100
AcDb2dVertex
 10
109.3166693520111
 20
563.7692055882243
 30
0.0
  0
VERTEX
  5
61
330
5F
100
AcDbEntity
  8
Layer 1
 62
     7
420
 16777215
370
     5
100
AcDbVertex
100
AcDb2dVertex
 10
116.0666449362611
 20
563.7692055882243
 30
0.0
  0
VERTEX
  5
62
330
5F
100
AcDbEntity
  8
Layer 1
 62
     7
420
 16777215
370
     5
100
AcDbVertex
100
AcDb2dVertex
 10
116.0666449362611
 20
568.2691893110576
 30
0.0
  0
VERTEX
  5
63
330
5F
100
AcDbEntity
  8
Layer 1
 62
     7
420
 16777215
370
     5
100
AcDbVertex
100
AcDb2dVertex
 10
102.5666937677611
 20
568.2691893110576
 30
0.0
  0
VERTEX
  5
64
330
5F
100
AcDbEntity
  8
Layer 1
 62
     7
420
 16777215
370
     5
100
AcDbVertex
100
AcDb2dVertex
 10
102.5666937677611
 20
563.7692055882243
 30
0.0
  0
VERTEX
  5
65
330
5F
100
AcDbEntity
  8
Layer 1
 62
     7
420
 16777215
370
     5
100
AcDbVertex
100
AcDb2dVertex
 10
109.3166693520111
 20
563.7692055882243
 30
0.0
  0
SEQEND
  5
66
330
5F
100
AcDbEntity
  8
Layer 1
370
     5
  0
POLYLINE
  5
67
330
1F
100
AcDbEntity
  8
Layer 1
 62
     7
420
 16777215
370
     5
100
AcDb2dPolyline
 66
     1
 10
0.0
 20
0.0
 30
0.0
  0
VERTEX
  5
68
330
67
100
AcDbEntity
  8
Layer 1
 62
     7
420
 16777215
370
     5
100
AcDbVertex
100
AcDb2dVertex
 10
138.8166774826569
 20
593.2692137188701
 30
0.0
  0
VERTEX
  5
69
330
67
100
AcDbEntity
  8
Layer 1
 62
     7
420
 16777215
370
     5
100
AcDbVertex
100
AcDb2dVertex
 10
138.8166774826569
 20
600.0191893031201
 30
0.0
  0
VERTEX
  5
6A
330
67
100
AcDbEntity
  8
Layer 1
 62
     7
420
 16777215
370
     5
100
AcDbVertex
100
AcDb2dVertex
 10
134.3166937598236
 20
600.0191893031201
 30
0.0
  0
VERTEX
  5
6B
330
67
100
AcDbEntity
  8
Layer 1
 62
     7
420
 16777215
370
     5
100
AcDbVertex
100
AcDb2dVertex
 10
134.3166937598236
 20
586.5192381346201
 30
0.0
  0
VERTEX
  5
6C
330
67
100
AcDbEntity
  8
Layer 1
 62
     7
420
 16777215
370
     5
100
AcDbVertex
100
AcDb2dVertex
 10
138.8166774826569
 20
586.5192381346201
 30
0.0
  0
VERTEX
  5
6D
330
67
100
AcDbEntity
  8
Layer 1
 62
     7
420
 16777215
370
     5
100
AcDbVertex
100
AcDb2dVertex
 10
138.8166774826569
 20
593.2692137188701
 30
0.0
  0
SEQEND
  5
6E
330
67
100
AcDbEntity
  8
Layer 1
370
     5
  0
POLYLINE
  5
6F
330
1F
100
AcDbEntity
  8
Layer 1
 62
     7
420
 16777215
370
     5
100
AcDb2dPolyline
 66
     1
 10
0.0
 20
0.0
 30
0.0
  0
VERTEX
  5
70
330
6F
100
AcDbEntity
  8
Layer 1
 62
     7
420
 16777215
370
     5
100
AcDbVertex
100
AcDb2dVertex
 10
109.3166693520111
 20
622.7692218495159
 30
0.0
  0
VERTEX
  5
71
330
6F
100
AcDbEntity
  8
Layer 1
 62
     7
420
 16777215
370
     5
100
AcDbVertex
100
AcDb2dVertex
 10
102.5666937677611
 20
622.7692218495159
 30
0.0
  0
VERTEX
  5
72
330
6F
100
AcDbEntity
  8
Layer 1
 62
     7
420
 16777215
370
     5
100
AcDbVertex
100
AcDb2dVertex
 10
102.5666937677611
 20
618.2692381266826
 30
0.0
  0
VERTEX
  5
73
330
6F
100
AcDbEntity
  8
Layer 1
 62
     7
420
 16777215
370
     5
100
AcDbVertex
100
AcDb2dVertex
 10
116.0666449362611
 20
618.2692381266826
 30
0.0
  0
VERTEX
  5
74
330
6F
100
AcDbEntity
  8
Layer 1
 62
     7
420
 16777215
370
     5
100
AcDbVertex
100
AcDb2dVertex
 10
116.0666449362611
 20
622.7692218495159
 30
0.0
  0
VERTEX
  5
75
330
6F
100
AcDbEntity
  8
Layer 1
 62
     7
420
 16777215
370
     5
100
AcDbVertex
100
AcDb2dVertex
 10
109.3166693520111
 20
622.7692218495159
 30
0.0
  0
SEQEND
  5
76
330
6F
100
AcDbEntity
  8
Layer 1
370
     5
  0
POLYLINE
  5
77
330
1F
100
AcDbEntity
  8
Layer 1
 62
     7
420
 16777215
370
     5
100
AcDb2dPolyline
 66
     1
 10
0.0
 20
0.0
 30
0.0
  0
VERTEX
  5
78
330
77
100
AcDbEntity
  8
Layer 1
 62
     7
420
 16777215
370
     5
100
AcDbVertex
100
AcDb2dVertex
 10
155.5665594771674
 20
629.519197433766
 30
0.0
  0
VERTEX
  5
79
330
77
100
AcDbEntity
  8
Layer 1
 62
     7
420
 16777215
370
     5
100
AcDbVertex
100
AcDb2dVertex
 10
228.0666991617333
 20
629.519197433766
 30
0.0
  0
VERTEX
  5
7A
330
77
100
AcDbEntity
  8
Layer 1
 62
     7
420
 16777215
370
     5
100
AcDbVertex
100
AcDb2dVertex
 10
228.0666991617333
 20
557.0192300039743
 30
0.0
  0
VERTEX
  5
7B
330
77
100
AcDbEntity
  8
Layer 1
 62
     7
420
 16777215
370
     5
100
AcDbVertex
100
AcDb2dVertex
 10
155.5665594771674
 20
557.0192300039743
 30
0.0
  0
VERTEX
  5
7C
330
77
100
AcDbEntity
  8
Layer 1
 62
     7
420
 16777215
370
     5
100
AcDbVertex
100
AcDb2dVertex
 10
155.5665594771674
 20
629.519197433766
 30
0.0
  0
SEQEND
  5
7D
330
77
100
AcDbEntity
  8
Layer 1
370
     5
  0
POLYLINE
  5
7E
330
1F
100
AcDbEntity
  8
Layer 1
 62
     7
420
 16777215
370
     5
100
AcDb2dPolyline
 66
     1
 10
0.0
 20
0.0
 30
0.0
  0
VERTEX
  5
7F
330
7E
100
AcDbEntity
  8
Layer 1
 62
     7
420
 16777215
370
     5
100
AcDbVertex
100
AcDb2dVertex
 10
162.3167073161916
 20
593.2692137188701
 30
0.0
  0
VERTEX
  5
80
330
7E
100
AcDbEntity
  8
Layer 1
 62
     7
420
 16777215
370
     5
100
AcDbVertex
100
AcDb2dVertex
 10
162.3167073161916
 20
586.5192381346201
 30
0.0
  0
VERTEX
  5
81
330
7E
100
AcDbEntity
  8
Layer 1
 62
     7
420
 16777215
370
     5
100
AcDbVertex
100
AcDb2dVertex
 10
166.816691039025
 20
586.5192381346201
 30
0.0
  0
VERTEX
  5
82
330
7E
100
AcDbEntity
  8
Layer 1
 62
     7
420
 16777215
370
     5
100
AcDbVertex
100
AcDb2dVertex
 10
166.816691039025
 20
600.0191893031201
 30
0.0
  0
VERTEX
  5
83
330
7E
100
AcDbEntity
  8
Layer 1
 62
     7
420
 16777215
370
     5
100
AcDbVertex
100
AcDb2dVertex
 10
162.3167073161916
 20
600.0191893031201
 30
0.0
  0
VERTEX
  5
84
330
7E
100
AcDbEntity
  8
Layer 1
 62
     7
420
 16777215
370
     5
100
AcDbVertex
100
AcDb2dVertex
 10
162.3167073161916
 20
593.2692137188701
 30
0.0
  0
SEQEND
  5
85
330
7E
100
AcDbEntity
  8
Layer 1
370
     5
  0
POLYLINE
  5
86
330
1F
100
AcDbEntity
  8
Layer 1
 62
     7
420
 16777215
370
     5
100
AcDb2dPolyline
 66
     1
 10
0.0
 20
0.0
 30
0.0
  0
VERTEX
  5
87
330
86
100
AcDbEntity
  8
Layer 1
 62
     7
420
 16777215
370
     5
100
AcDbVertex
100
AcDb2dVertex
 10
191.8167154468375
 20
563.7692055882243
 30
0.0
  0
VERTEX
  5
88
330
86
100
AcDbEntity
  8
Layer 1
 62
     7
420
 16777215
370
     5
100
AcDbVertex
100
AcDb2dVertex
 10
198.5666910310875
 20
563.7692055882243
 30
0.0
  0
VERTEX
  5
89
330
86
100
AcDbEntity
  8
Layer 1
 62
     7
420
 16777215
370
     5
100
AcDbVertex
100
AcDb2dVertex
 10
198.5666910310875
 20
568.2691893110576
 30
0.0
  0
VERTEX
  5
8A
330
86
100
AcDbEntity
  8
Layer 1
 62
     7
420
 16777215
370
     5
100
AcDbVertex
100
AcDb2dVertex
 10
185.0665676078132
 20
568.2691893110576
 30
0.0
  0
VERTEX
  5
8B
330
86
100
AcDbEntity
  8
Layer 1
 62
     7
420
 16777215
370
     5
100
AcDbVertex
100
AcDb2dVertex
 10
185.0665676078132
 20
563.7692055882243
 30
0.0
  0
VERTEX
  5
8C
330
86
100
AcDbEntity
  8
Layer 1
 62
     7
420
 16777215
370
     5
100
AcDbVertex
100
AcDb2dVertex
 10
191.8167154468375
 20
563.7692055882243
 30
0.0
  0
SEQEND
  5
8D
330
86
100
AcDbEntity
  8
Layer 1
370
     5
  0
POLYLINE
  5
8E
330
1F
100
AcDbEntity
  8
Layer 1
 62
     7
420
 16777215
370
     5
100
AcDb2dPolyline
 66
     1
 10
0.0
 20
0.0
 30
0.0
  0
VERTEX
  5
8F
330
8E
100
AcDbEntity
  8
Layer 1
 62
     7
420
 16777215
370
     5
100
AcDbVertex
100
AcDb2dVertex
 10
221.3167235774833
 20
593.2692137188701
 30
0.0
  0
VERTEX
  5
90
330
8E
100
AcDbEntity
  8
Layer 1
 62
     7
420
 16777215
370
     5
100
AcDbVertex
100
AcDb2dVertex
 10
221.3167235774833
 20
600.0191893031201
 30
0.0
  0
VERTEX
  5
91
330
8E
100
AcDbEntity
  8
Layer 1
 62
     7
420
 16777215
370
     5
100
AcDbVertex
100
AcDb2dVertex
 10
216.81673985465
 20
600.0191893031201
 30
0.0
  0
VERTEX
  5
92
330
8E
100
AcDbEntity
  8
Layer 1
 62
     7
420
 16777215
370
     5
100
AcDbVertex
100
AcDb2dVertex
 10
216.81673985465
 20
586.5192381346201
 30
0.0
  0
VERTEX
  5
93
330
8E
100
AcDbEntity
  8
Layer 1
 62
     7
420
 16777215
370
     5
100
AcDbVertex
100
AcDb2dVertex
 10
221.3167235774833
 20
586.5192381346201
 30
0.0
  0
VERTEX
  5
94
330
8E
100
AcDbEntity
  8
Layer 1
 62
     7
420
 16777215
370
     5
100
AcDbVertex
100
AcDb2dVertex
 10
221.3167235774833
 20
593.2692137188701
 30
0.0
  0
SEQEND
  5
95
330
8E
100
AcDbEntity
  8
Layer 1
370
     5
  0
POLYLINE
  5
96
330
1F
100
AcDbEntity
  8
Layer 1
 62
     7
420
 16777215
370
     5
100
AcDb2dPolyline
 66
     1
 10
0.0
 20
0.0
 30
0.0
  0
VERTEX
  5
97
330
96
100
AcDbEntity
  8
Layer 1
 62
     7
420
 16777215
370
     5
100
AcDbVertex
100
AcDb2dVertex
 10
191.8167154468375
 20
622.7692218495159
 30
0.0
  0
VERTEX
  5
98
330
96
100
AcDbEntity
  8
Layer 1
 62
     7
420
 16777215
370
     5
100
AcDbVertex
100
AcDb2dVertex
 10
185.0665676078132
 20
622.7692218495159
 30
0.0
  0
VERTEX
  5
99
330
96
100
AcDbEntity
  8
Layer 1
 62
     7
420
 16777215
370
     5
100
AcDbVertex
100
AcDb2dVertex
 10
185.0665676078132
 20
618.2692381266826
 30
0.0
  0
VERTEX
  5
9A
330
96
100
AcDbEntity
  8
Layer 1
 62
     7
420
 16777215
370
     5
100
AcDbVertex
100
AcDb2dVertex
 10
198.5666910310875
 20
618.2692381266826
 30
0.0
  0
VERTEX
  5
9B
330
96
100
AcDbEntity
  8
Layer 1
 62
     7
420
 16777215
370
     5
100
AcDbVertex
100
AcDb2dVertex
 10
198.5666910310875
 20
622.7692218495159
 30
0.0
  0
VERTEX
  5
9C
330
96
100
AcDbEntity
  8
Layer 1
 62
     7
420
 16777215
370
     5
100
AcDbVertex
100
AcDb2dVertex
 10
191.8167154468375
 20
622.7692218495159
 30
0.0
  0
SEQEND
  5
9D
330
96
100
AcDbEntity
  8
Layer 1
370
     5
  0
SPLINE
  5
9E
330
1F
100
AcDbEntity
  8
Layer 1
 62
     7
420
 16777215
370
     5
100
AcDbSpline
210
0.0
220
0.0
230
1.0
 70
    11
 71
     3
 72
    89
 73
    85
 74
     0
 42
0.0000000001
 43
0.0000000001
 40
0.0
 40
0.0
 40
0.0
 40
0.0
 40
1.0
 40
1.0
 40
1.0
 40
2.0
 40
2.0
 40
2.0
 40
3.0
 40
3.0
 40
3.0
 40
4.0
 40
4.0
 40
4.0
 40
5.0
 40
5.0
 40
5.0
 40
6.0
 40
6.0
 40
6.0
 40
7.0
 40
7.0
 40
7.0
 40
8.0
 40
8.0
 40
8.0
 40
9.0
 40
9.0
 40
9.0
 40
10.0
 40
10.0
 40
10.0
 40
11.0
 40
11.0
 40
11.0
 40
12.0
 40
12.0
 40
12.0
 40
13.0
 40
13.0
 40
13.0
 40
14.0
 40
14.0
 40
14.0
 40
15.0
 40
15.0
 40
15.0
 40
16.0
 40
16.0
 40
16.0
 40
17.0
 40
17.0
 40
17.0
 40
18.0
 40
18.0
 40
18.0
 40
19.0
 40
19.0
 40
19.0
 40
20.0
 40
20.0
 40
20.0
 40
21.0
 40
21.0
 40
21.0
 40
22.0
 40
22.0
 40
22.0
 40
23.0
 40
23.0
 40
23.0
 40
24.0
 40
24.0
 40
24.0
 40
25.0
 40
25.0
 40
25.0
 40
26.0
 40
26.0
 40
26.0
 40
27.0
 40
27.0
 40
27.0
 40
28.0
 40
28.0
 40
28.0
 40
28.0
 10
252.6167940991722
 20
629.519197433766
 30
0.0
 10
252.6167940991722
 20
629.519197433766
 30
0.0
 10
252.6167940991722
 20
622.7692218495159
 30
0.0
 10
252.6167940991722
 20
622.7692218495159
 30
0.0
 10
252.6167940991722
 20
622.7692218495159
 30
0.0
 10
277.6164739974361
 20
622.7692218495159
 30
0.0
 10
277.6164739974361
 20
622.7692218495159
 30
0.0
 10
277.6164739974361
 20
622.7692218495159
 30
0.0
 10
277.6164739974361
 20
618.2692381266826
 30
0.0
 10
277.6164739974361
 20
618.2692381266826
 30
0.0
 10
277.6164739974361
 20
618.2692381266826
 30
0.0
 10
252.6167940991722
 20
618.2692381266826
 30
0.0
 10
252.6167940991722
 20
618.2692381266826
 30
0.0
 10
252.6167940991722
 20
618.2692381266826
 30
0.0
 10
252.6167940991722
 20
600.0191893031201
 30
0.0
 10
252.6167940991722
 20
600.0191893031201
 30
0.0
 10
252.6167940991722
 20
600.0191893031201
 30
0.0
 10
239.8165418237264
 20
600.0191893031201
 30
0.0
 10
239.8165418237264
 20
600.0191893031201
 30
0.0
 10
236.0886039991375
 20
600.0191893031201
 30
0.0
 10
233.0665662394764
 20
596.9971515434589
 30
0.0
 10
233.0665662394764
 20
593.2692137188701
 30
0.0
 10
233.0665662394764
 20
589.5412758942813
 30
0.0
 10
236.0886039991375
 20
586.5192381346201
 30
0.0
 10
239.8165418237264
 20
586.5192381346201
 30
0.0
 10
239.8165418237264
 20
586.5192381346201
 30
0.0
 10
252.6167940991722
 20
586.5192381346201
 30
0.0
 10
252.6167940991722
 20
586.5192381346201
 30
0.0
 10
252.6167940991722
 20
586.5192381346201
 30
0.0
 10
252.6167940991722
 20
586.269124202391
 30
0.0
 10
252.6167940991722
 20
586.269124202391
 30
0.0
 10
252.6167940991722
 20
586.269124202391
 30
0.0
 10
252.6167940991722
 20
570.2694117497937
 30
0.0
 10
252.6167940991722
 20
570.2694117497937
 30
0.0
 10
252.6167940991722
 20
570.2694117497937
 30
0.0
 10
277.6164739974361
 20
570.2694117497937
 30
0.0
 10
277.6164739974361
 20
570.2694117497937
 30
0.0
 10
277.6164739974361
 20
570.2694117497937
 30
0.0
 10
277.6164739974361
 20
565.7694280269603
 30
0.0
 10
277.6164739974361
 20
565.7694280269603
 30
0.0
 10
277.6164739974361
 20
565.7694280269603
 30
0.0
 10
252.6167940991722
 20
565.7694280269603
 30
0.0
 10
252.6167940991722
 20
565.7694280269603
 30
0.0
 10
252.6167940991722
 20
565.7694280269603
 30
0.0
 10
252.6167940991722
 20
559.0191079331619
 30
0.0
 10
252.6167940991722
 20
559.0191079331619
 30
0.0
 10
252.6167940991722
 20
559.0191079331619
 30
0.0
 10
302.6164984052486
 20
559.0191079331619
 30
0.0
 10
302.6164984052486
 20
559.0191079331619
 30
0.0
 10
302.6164984052486
 20
559.0191079331619
 30
0.0
 10
302.6164984052486
 20
565.7694280269603
 30
0.0
 10
302.6164984052486
 20
565.7694280269603
 30
0.0
 10
302.6164984052486
 20
565.7694280269603
 30
0.0
 10
302.6164984052486
 20
570.2694117497937
 30
0.0
 10
302.6164984052486
 20
570.2694117497937
 30
0.0
 10
302.6164984052486
 20
570.2694117497937
 30
0.0
 10
302.6164984052486
 20
588.5194605733561
 30
0.0
 10
302.6164984052486
 20
588.5194605733561
 30
0.0
 10
302.6164984052486
 20
588.5194605733561
 30
0.0
 10
315.4167506806944
 20
588.5194605733561
 30
0.0
 10
315.4167506806944
 20
588.5194605733561
 30
0.0
 10
319.1446885052832
 20
588.5194605733561
 30
0.0
 10
322.1667262649444
 20
591.5414983330173
 30
0.0
 10
322.1667262649444
 20
595.2690916480576
 30
0.0
 10
322.1667262649444
 20
598.9973739821951
 30
0.0
 10
319.1446885052832
 20
602.0194117418562
 30
0.0
 10
315.4167506806944
 20
602.0194117418562
 30
0.0
 10
315.4167506806944
 20
602.0194117418562
 30
0.0
 10
302.6164984052486
 20
602.0194117418562
 30
0.0
 10
302.6164984052486
 20
602.0194117418562
 30
0.0
 10
302.6164984052486
 20
602.0194117418562
 30
0.0
 10
302.6164984052486
 20
602.2691811645368
 30
0.0
 10
302.6164984052486
 20
602.2691811645368
 30
0.0
 10
302.6164984052486
 20
602.2691811645368
 30
0.0
 10
302.6164984052486
 20
618.2692381266826
 30
0.0
 10
302.6164984052486
 20
618.2692381266826
 30
0.0
 10
302.6164984052486
 20
618.2692381266826
 30
0.0
 10
302.6164984052486
 20
625.0192137109326
 30
0.0
 10
302.6164984052486
 20
625.0192137109326
 30
0.0
 10
302.6164984052486
 20
625.0192137109326
 30
0.0
 10
302.6164984052486
 20
629.519197433766
 30
0.0
 10
302.6164984052486
 20
629.519197433766
 30
0.0
 10
302.6164984052486
 20
629.519197433766
 30
0.0
 10
252.6167940991722
 20
629.519197433766
 30
0.0
 10
252.6167940991722
 20
629.519197433766
 30
0.0
  0
POLYLINE
  5
9F
330
1F
100
AcDbEntity
  8
Layer 1
 62
     7
420
 16777215
370
     5
100
AcDb2dPolyline
 66
     1
 10
0.0
 20
0.0
 30
0.0
  0
VERTEX
  5
A0
330
9F
100
AcDbEntity
  8
Layer 1
 62
     7
420
 16777215
370
     5
100
AcDbVertex
100
AcDb2dVertex
 10
248.3166259144833
 20
593.2692137188701
 30
0.0
  0
VERTEX
  5
A1
330
9F
100
AcDbEntity
  8
Layer 1
 62
     7
420
 16777215
370
     5
100
AcDbVertex
100
AcDb2dVertex
 10
248.3166259144833
 20
595.5192055802868
 30
0.0
  0
VERTEX
  5
A2
330
9F
100
AcDbEntity
  8
Layer 1
 62
     7
420
 16777215
370
     5
100
AcDbVertex
100
AcDb2dVertex
 10
239.3166584688167
 20
595.5192055802868
 30
0.0
  0
VERTEX
  5
A3
330
9F
100
AcDbEntity
  8
Layer 1
 62
     7
420
 16777215
370
     5
100
AcDbVertex
100
AcDb2dVertex
 10
239.3166584688167
 20
591.0192218574534
 30
0.0
  0
VERTEX
  5
A4
330
9F
100
AcDbEntity
  8
Layer 1
 62
     7
420
 16777215
370
     5
100
AcDbVertex
100
AcDb2dVertex
 10
248.3166259144833
 20
591.0192218574534
 30
0.0
  0
VERTEX
  5
A5
330
9F
100
AcDbEntity
  8
Layer 1
 62
     7
420
 16777215
370
     5
100
AcDbVertex
100
AcDb2dVertex
 10
248.3166259144833
 20
593.2692137188701
 30
0.0
  0
SEQEND
  5
A6
330
9F
100
AcDbEntity
  8
Layer 1
370
     5
  0
POLYLINE
  5
A7
330
1F
100
AcDbEntity
  8
Layer 1
 62
     7
420
 16777215
370
     5
100
AcDb2dPolyline
 66
     1
 10
0.0
 20
0.0
 30
0.0
  0
VERTEX
  5
A8
330
A7
100
AcDbEntity
  8
Layer 1
 62
     7
420
 16777215
370
     5
100
AcDbVertex
100
AcDb2dVertex
 10
306.9166665899374
 20
595.2690916480576
 30
0.0
  0
VERTEX
  5
A9
330
A7
100
AcDbEntity
  8
Layer 1
 62
     7
420
 16777215
370
     5
100
AcDbVertex
100
AcDb2dVertex
 10
306.9166665899374
 20
597.5194280190228
 30
0.0
  0
VERTEX
  5
AA
330
A7
100
AcDbEntity
  8
Layer 1
 62
     7
420
 16777215
370
     5
100
AcDbVertex
100
AcDb2dVertex
 10
315.9166340356041
 20
597.5194280190228
 30
0.0
  0
VERTEX
  5
AB
330
A7
100
AcDbEntity
  8
Layer 1
 62
     7
420
 16777215
370
     5
100
AcDbVertex
100
AcDb2dVertex
 10
315.9166340356041
 20
593.0194442961895
 30
0.0
  0
VERTEX
  5
AC
330
A7
100
AcDbEntity
  8
Layer 1
 62
     7
420
 16777215
370
     5
100
AcDbVertex
100
AcDb2dVertex
 10
306.9166665899374
 20
593.0194442961895
 30
0.0
  0
VERTEX
  5
AD
330
A7
100
AcDbEntity
  8
Layer 1
 62
     7
420
 16777215
370
     5
100
AcDbVertex
100
AcDb2dVertex
 10
306.9166665899374
 20
595.2690916480576
 30
0.0
  0
SEQEND
  5
AE
330
A7
100
AcDbEntity
  8
Layer 1
370
     5
  0
SPLINE
  5
AF
330
1F
100
AcDbEntity
  8
Layer 1
 62
     7
420
 16777215
370
     5
100
AcDbSpline
210
0.0
220
0.0
230
1.0
 70
    11
 71
     3
 72
    89
 73
    85
 74
     0
 42
0.0000000001
 43
0.0000000001
 40
0.0
 40
0.0
 40
0.0
 40
0.0
 40
1.0
 40
1.0
 40
1.0
 40
2.0
 40
2.0
 40
2.0
 40
3.0
 40
3.0
 40
3.0
 40
4.0
 40
4.0
 40
4.0
 40
5.0
 40
5.0
 40
5.0
 40
6.0
 40
6.0
 40
6.0
 40
7.0
 40
7.0
 40
7.0
 40
8.0
 40
8.0
 40
8.0
 40
9.0
 40
9.0
 40
9.0
 40
10.0
 40
10.0
 40
10.0
 40
11.0
 40
11.0
 40
11.0
 40
12.0
 40
12.0
 40
12.0
 40
13.0
 40
13.0
 40
13.0
 40
14.0
 40
14.0
 40
14.0
 40
15.0
 40
15.0
 40
15.0
 40
16.0
 40
16.0
 40
16.0
 40
17.0
 40
17.0
 40
17.0
 40
18.0
 40
18.0
 40
18.0
 40
19.0
 40
19.0
 40
19.0
 40
20.0
 40
20.0
 40
20.0
 40
21.0
 40
21.0
 40
21.0
 40
22.0
 40
22.0
 40
22.0
 40
23.0
 40
23.0
 40
23.0
 40
24.0
 40
24.0
 40
24.0
 40
25.0
 40
25.0
 40
25.0
 40
26.0
 40
26.0
 40
26.0
 40
27.0
 40
27.0
 40
27.0
 40
28.0
 40
28.0
 40
28.0
 40
28.0
 10
89.05554603893403
 20
536.9842772095038
 30
0.0
 10
89.05554603893403
 20
536.9842772095038
 30
0.0
 10
89.05554603893403
 20
530.2343016252539
 30
0.0
 10
89.05554603893403
 20
530.2343016252539
 30
0.0
 10
89.05554603893403
 20
530.2343016252539
 30
0.0
 10
89.05554603893403
 20
525.7343179024206
 30
0.0
 10
89.05554603893403
 20
525.7343179024206
 30
0.0
 10
89.05554603893403
 20
525.7343179024206
 30
0.0
 10
89.05554603893403
 20
507.4842690788581
 30
0.0
 10
89.05554603893403
 20
507.4842690788581
 30
0.0
 10
89.05554603893403
 20
507.4842690788581
 30
0.0
 10
76.25563827303678
 20
507.4842690788581
 30
0.0
 10
76.25563827303678
 20
507.4842690788581
 30
0.0
 10
72.52804495799646
 20
507.4842690788581
 30
0.0
 10
69.5060071983353
 20
504.4622313191969
 30
0.0
 10
69.5060071983353
 20
500.734293494608
 30
0.0
 10
69.5060071983353
 20
497.0063556700192
 30
0.0
 10
72.52804495799646
 20
493.984317910358
 30
0.0
 10
76.25563827303678
 20
493.984317910358
 30
0.0
 10
76.25563827303678
 20
493.984317910358
 30
0.0
 10
89.05554603893403
 20
493.984317910358
 30
0.0
 10
89.05554603893403
 20
493.984317910358
 30
0.0
 10
89.05554603893403
 20
493.984317910358
 30
0.0
 10
89.05554603893403
 20
493.7342039781289
 30
0.0
 10
89.05554603893403
 20
493.7342039781289
 30
0.0
 10
89.05554603893403
 20
493.7342039781289
 30
0.0
 10
89.05554603893403
 20
477.7344915255316
 30
0.0
 10
89.05554603893403
 20
477.7344915255316
 30
0.0
 10
89.05554603893403
 20
477.7344915255316
 30
0.0
 10
89.05554603893403
 20
473.2345078026983
 30
0.0
 10
89.05554603893403
 20
473.2345078026983
 30
0.0
 10
89.05554603893403
 20
473.2345078026983
 30
0.0
 10
89.05554603893403
 20
466.4841877088998
 30
0.0
 10
89.05554603893403
 20
466.4841877088998
 30
0.0
 10
89.05554603893403
 20
466.4841877088998
 30
0.0
 10
139.055594854559
 20
466.4841877088998
 30
0.0
 10
139.055594854559
 20
466.4841877088998
 30
0.0
 10
139.055594854559
 20
466.4841877088998
 30
0.0
 10
139.055594854559
 20
473.2345078026983
 30
0.0
 10
139.055594854559
 20
473.2345078026983
 30
0.0
 10
139.055594854559
 20
473.2345078026983
 30
0.0
 10
114.055914956295
 20
473.2345078026983
 30
0.0
 10
114.055914956295
 20
473.2345078026983
 30
0.0
 10
114.055914956295
 20
473.2345078026983
 30
0.0
 10
114.055914956295
 20
477.7344915255316
 30
0.0
 10
114.055914956295
 20
477.7344915255316
 30
0.0
 10
114.055914956295
 20
477.7344915255316
 30
0.0
 10
139.055594854559
 20
477.7344915255316
 30
0.0
 10
139.055594854559
 20
477.7344915255316
 30
0.0
 10
139.055594854559
 20
477.7344915255316
 30
0.0
 10
139.055594854559
 20
495.9845403490941
 30
0.0
 10
139.055594854559
 20
495.9845403490941
 30
0.0
 10
139.055594854559
 20
495.9845403490941
 30
0.0
 10
151.8555026204562
 20
495.9845403490941
 30
0.0
 10
151.8555026204562
 20
495.9845403490941
 30
0.0
 10
155.5837849545936
 20
495.9845403490941
 30
0.0
 10
158.6058227142548
 20
499.0065781087553
 30
0.0
 10
158.6058227142548
 20
502.7341714237955
 30
0.0
 10
158.6058227142548
 20
506.462453757933
 30
0.0
 10
155.5837849545936
 20
509.4844915175941
 30
0.0
 10
151.8555026204562
 20
509.4844915175941
 30
0.0
 10
151.8555026204562
 20
509.4844915175941
 30
0.0
 10
139.055594854559
 20
509.4844915175941
 30
0.0
 10
139.055594854559
 20
509.4844915175941
 30
0.0
 10
139.055594854559
 20
509.4844915175941
 30
0.0
 10
139.055594854559
 20
509.7342609402747
 30
0.0
 10
139.055594854559
 20
509.7342609402747
 30
0.0
 10
139.055594854559
 20
509.7342609402747
 30
0.0
 10
139.055594854559
 20
525.7343179024206
 30
0.0
 10
139.055594854559
 20
525.7343179024206
 30
0.0
 10
139.055594854559
 20
525.7343179024206
 30
0.0
 10
114.055914956295
 20
525.7343179024206
 30
0.0
 10
114.055914956295
 20
525.7343179024206
 30
0.0
 10
114.055914956295
 20
525.7343179024206
 30
0.0
 10
114.055914956295
 20
530.2343016252539
 30
0.0
 10
114.055914956295
 20
530.2343016252539
 30
0.0
 10
114.055914956295
 20
530.2343016252539
 30
0.0
 10
139.055594854559
 20
530.2343016252539
 30
0.0
 10
139.055594854559
 20
530.2343016252539
 30
0.0
 10
139.055594854559
 20
530.2343016252539
 30
0.0
 10
139.055594854559
 20
536.9842772095038
 30
0.0
 10
139.055594854559
 20
536.9842772095038
 30
0.0
 10
139.055594854559
 20
536.9842772095038
 30
0.0
 10
89.05554603893403
 20
536.9842772095038
 30
0.0
 10
89.05554603893403
 20
536.9842772095038
 30
0.0
  0
POLYLINE
  5
B0
330
1F
100
AcDbEntity
  8
Layer 1
 62
     7
420
 16777215
370
     5
100
AcDb2dPolyline
 66
     1
 10
0.0
 20
0.0
 30
0.0
  0
VERTEX
  5
B1
330
B0
100
AcDbEntity
  8
Layer 1
 62
     7
420
 16777215
370
     5
100
AcDbVertex
100
AcDb2dVertex
 10
84.75537785424517
 20
500.734293494608
 30
0.0
  0
VERTEX
  5
B2
330
B0
100
AcDbEntity
  8
Layer 1
 62
     7
420
 16777215
370
     5
100
AcDbVertex
100
AcDb2dVertex
 10
84.75537785424517
 20
502.9842853560247
 30
0.0
  0
VERTEX
  5
B3
330
B0
100
AcDbEntity
  8
Layer 1
 62
     7
420
 16777215
370
     5
100
AcDbVertex
100
AcDb2dVertex
 10
75.7554104085785
 20
502.9842853560247
 30
0.0
  0
VERTEX
  5
B4
330
B0
100
AcDbEntity
  8
Layer 1
 62
     7
420
 16777215
370
     5
100
AcDbVertex
100
AcDb2dVertex
 10
75.7554104085785
 20
498.4843016331914
 30
0.0
  0
VERTEX
  5
B5
330
B0
100
AcDbEntity
  8
Layer 1
 62
     7
420
 16777215
370
     5
100
AcDbVertex
100
AcDb2dVertex
 10
84.75537785424517
 20
498.4843016331914
 30
0.0
  0
VERTEX
  5
B6
330
B0
100
AcDbEntity
  8
Layer 1
 62
     7
420
 16777215
370
     5
100
AcDbVertex
100
AcDb2dVertex
 10
84.75537785424517
 20
500.734293494608
 30
0.0
  0
SEQEND
  5
B7
330
B0
100
AcDbEntity
  8
Layer 1
370
     5
  0
POLYLINE
  5
B8
330
1F
100
AcDbEntity
  8
Layer 1
 62
     7
420
 16777215
370
     5
100
AcDb2dPolyline
 66
     1
 10
0.0
 20
0.0
 30
0.0
  0
VERTEX
  5
B9
330
B8
100
AcDbEntity
  8
Layer 1
 62
     7
420
 16777215
370
     5
100
AcDbVertex
100
AcDb2dVertex
 10
143.3557630392478
 20
502.7341714237955
 30
0.0
  0
VERTEX
  5
BA
330
B8
100
AcDbEntity
  8
Layer 1
 62
     7
420
 16777215
370
     5
100
AcDbVertex
100
AcDb2dVertex
 10
143.3557630392478
 20
504.9845077947608
 30
0.0
  0
VERTEX
  5
BB
330
B8
100
AcDbEntity
  8
Layer 1
 62
     7
420
 16777215
370
     5
100
AcDbVertex
100
AcDb2dVertex
 10
152.3557304849145
 20
504.9845077947608
 30
0.0
  0
VERTEX
  5
BC
330
B8
100
AcDbEntity
  8
Layer 1
 62
     7
420
 16777215
370
     5
100
AcDbVertex
100
AcDb2dVertex
 10
152.3557304849145
 20
500.4845240719274
 30
0.0
  0
VERTEX
  5
BD
330
B8
100
AcDbEntity
  8
Layer 1
 62
     7
420
 16777215
370
     5
100
AcDbVertex
100
AcDb2dVertex
 10
143.3557630392478
 20
500.4845240719274
 30
0.0
  0
VERTEX
  5
BE
330
B8
100
AcDbEntity
  8
Layer 1
 62
     7
420
 16777215
370
     5
100
AcDbVertex
100
AcDb2dVertex
 10
143.3557630392478
 20
502.7341714237955
 30
0.0
  0
SEQEND
  5
BF
330
B8
100
AcDbEntity
  8
Layer 1
370
     5
  0
SPLINE
  5
C0
330
1F
100
AcDbEntity
  8
Layer 1
 62
     7
420
 16777215
370
     5
100
AcDbSpline
210
0.0
220
0.0
230
1.0
 70
    11
 71
     3
 72
    89
 73
    85
 74
     0
 42
0.0000000001
 43
0.0000000001
 40
0.0
 40
0.0
 40
0.0
 40
0.0
 40
1.0
 40
1.0
 40
1.0
 40
2.0
 40
2.0
 40
2.0
 40
3.0
 40
3.0
 40
3.0
 40
4.0
 40
4.0
 40
4.0
 40
5.0
 40
5.0
 40
5.0
 40
6.0
 40
6.0
 40
6.0
 40
7.0
 40
7.0
 40
7.0
 40
8.0
 40
8.0
 40
8.0
 40
9.0
 40
9.0
 40
9.0
 40
10.0
 40
10.0
 40
10.0
 40
11.0
 40
11.0
 40
11.0
 40
12.0
 40
12.0
 40
12.0
 40
13.0
 40
13.0
 40
13.0
 40
14.0
 40
14.0
 40
14.0
 40
15.0
 40
15.0
 40
15.0
 40
16.0
 40
16.0
 40
16.0
 40
17.0
 40
17.0
 40
17.0
 40
18.0
 40
18.0
 40
18.0
 40
19.0
 40
19.0
 40
19.0
 40
20.0
 40
20.0
 40
20.0
 40
21.0
 40
21.0
 40
21.0
 40
22.0
 40
22.0
 40
22.0
 40
23.0
 40
23.0
 40
23.0
 40
24.0
 40
24.0
 40
24.0
 40
25.0
 40
25.0
 40
25.0
 40
26.0
 40
26.0
 40
26.0
 40
27.0
 40
27.0
 40
27.0
 40
28.0
 40
28.0
 40
28.0
 40
28.0
 10
188.1557847294367
 20
536.9842772095038
 30
0.0
 10
188.1557847294367
 20
536.9842772095038
 30
0.0
 10
188.1557847294367
 20
530.2343016252539
 30
0.0
 10
188.1557847294367
 20
530.2343016252539
 30
0.0
 10
188.1557847294367
 20
530.2343016252539
 30
0.0
 10
188.1557847294367
 20
525.7343179024206
 30
0.0
 10
188.1557847294367
 20
525.7343179024206
 30
0.0
 10
188.1557847294367
 20
525.7343179024206
 30
0.0
 10
188.1557847294367
 20
507.4842690788581
 30
0.0
 10
188.1557847294367
 20
507.4842690788581
 30
0.0
 10
188.1557847294367
 20
507.4842690788581
 30
0.0
 10
175.3558769635395
 20
507.4842690788581
 30
0.0
 10
175.3558769635395
 20
507.4842690788581
 30
0.0
 10
171.6275946294021
 20
507.4842690788581
 30
0.0
 10
168.605556869741
 20
504.4622313191969
 30
0.0
 10
168.605556869741
 20
500.734293494608
 30
0.0
 10
168.605556869741
 20
497.0063556700192
 30
0.0
 10
171.6275946294021
 20
493.984317910358
 30
0.0
 10
175.3558769635395
 20
493.984317910358
 30
0.0
 10
175.3558769635395
 20
493.984317910358
 30
0.0
 10
188.1557847294367
 20
493.984317910358
 30
0.0
 10
188.1557847294367
 20
493.984317910358
 30
0.0
 10
188.1557847294367
 20
493.984317910358
 30
0.0
 10
188.1557847294367
 20
493.7342039781289
 30
0.0
 10
188.1557847294367
 20
493.7342039781289
 30
0.0
 10
188.1557847294367
 20
493.7342039781289
 30
0.0
 10
188.1557847294367
 20
477.7344915255316
 30
0.0
 10
188.1557847294367
 20
477.7344915255316
 30
0.0
 10
188.1557847294367
 20
477.7344915255316
 30
0.0
 10
188.1557847294367
 20
473.2345078026983
 30
0.0
 10
188.1557847294367
 20
473.2345078026983
 30
0.0
 10
188.1557847294367
 20
473.2345078026983
 30
0.0
 10
188.1557847294367
 20
466.4841877088998
 30
0.0
 10
188.1557847294367
 20
466.4841877088998
 30
0.0
 10
188.1557847294367
 20
466.4841877088998
 30
0.0
 10
238.156005799836
 20
466.4841877088998
 30
0.0
 10
238.156005799836
 20
466.4841877088998
 30
0.0
 10
238.156005799836
 20
466.4841877088998
 30
0.0
 10
238.156005799836
 20
473.2345078026983
 30
0.0
 10
238.156005799836
 20
473.2345078026983
 30
0.0
 10
238.156005799836
 20
473.2345078026983
 30
0.0
 10
213.1554646277007
 20
473.2345078026983
 30
0.0
 10
213.1554646277007
 20
473.2345078026983
 30
0.0
 10
213.1554646277007
 20
473.2345078026983
 30
0.0
 10
213.1554646277007
 20
477.7344915255316
 30
0.0
 10
213.1554646277007
 20
477.7344915255316
 30
0.0
 10
213.1554646277007
 20
477.7344915255316
 30
0.0
 10
238.156005799836
 20
477.7344915255316
 30
0.0
 10
238.156005799836
 20
477.7344915255316
 30
0.0
 10
238.156005799836
 20
477.7344915255316
 30
0.0
 10
238.156005799836
 20
495.9845403490941
 30
0.0
 10
238.156005799836
 20
495.9845403490941
 30
0.0
 10
238.156005799836
 20
495.9845403490941
 30
0.0
 10
250.9559135657332
 20
495.9845403490941
 30
0.0
 10
250.9559135657332
 20
495.9845403490941
 30
0.0
 10
254.6835068807735
 20
495.9845403490941
 30
0.0
 10
257.7055446404347
 20
499.0065781087553
 30
0.0
 10
257.7055446404347
 20
502.7341714237955
 30
0.0
 10
257.7055446404347
 20
506.462453757933
 30
0.0
 10
254.6835068807735
 20
509.4844915175941
 30
0.0
 10
250.9559135657332
 20
509.4844915175941
 30
0.0
 10
250.9559135657332
 20
509.4844915175941
 30
0.0
 10
238.156005799836
 20
509.4844915175941
 30
0.0
 10
238.156005799836
 20
509.4844915175941
 30
0.0
 10
238.156005799836
 20
509.4844915175941
 30
0.0
 10
238.156005799836
 20
509.7342609402747
 30
0.0
 10
238.156005799836
 20
509.7342609402747
 30
0.0
 10
238.156005799836
 20
509.7342609402747
 30
0.0
 10
238.156005799836
 20
525.7343179024206
 30
0.0
 10
238.156005799836
 20
525.7343179024206
 30
0.0
 10
238.156005799836
 20
525.7343179024206
 30
0.0
 10
213.1554646277007
 20
525.7343179024206
 30
0.0
 10
213.1554646277007
 20
525.7343179024206
 30
0.0
 10
213.1554646277007
 20
525.7343179024206
 30
0.0
 10
213.1554646277007
 20
530.2343016252539
 30
0.0
 10
213.1554646277007
 20
530.2343016252539
 30
0.0
 10
213.1554646277007
 20
530.2343016252539
 30
0.0
 10
238.156005799836
 20
530.2343016252539
 30
0.0
 10
238.156005799836
 20
530.2343016252539
 30
0.0
 10
238.156005799836
 20
530.2343016252539
 30
0.0
 10
238.156005799836
 20
536.9842772095038
 30
0.0
 10
238.156005799836
 20
536.9842772095038
 30
0.0
 10
238.156005799836
 20
536.9842772095038
 30
0.0
 10
188.1557847294367
 20
536.9842772095038
 30
0.0
 10
188.1557847294367
 20
536.9842772095038
 30
0.0
  0
POLYLINE
  5
C1
330
1F
100
AcDbEntity
  8
Layer 1
 62
     7
420
 16777215
370
     5
100
AcDb2dPolyline
 66
     1
 10
0.0
 20
0.0
 30
0.0
  0
VERTEX
  5
C2
330
C1
100
AcDbEntity
  8
Layer 1
 62
     7
420
 16777215
370
     5
100
AcDbVertex
100
AcDb2dVertex
 10
183.8556165447479
 20
500.734293494608
 30
0.0
  0
VERTEX
  5
C3
330
C1
100
AcDbEntity
  8
Layer 1
 62
     7
420
 16777215
370
     5
100
AcDbVertex
100
AcDb2dVertex
 10
183.8556165447479
 20
502.9842853560247
 30
0.0
  0
VERTEX
  5
C4
330
C1
100
AcDbEntity
  8
Layer 1
 62
     7
420
 16777215
370
     5
100
AcDbVertex
100
AcDb2dVertex
 10
174.8556490990812
 20
502.9842853560247
 30
0.0
  0
VERTEX
  5
C5
330
C1
100
AcDbEntity
  8
Layer 1
 62
     7
420
 16777215
370
     5
100
AcDbVertex
100
AcDb2dVertex
 10
174.8556490990812
 20
498.4843016331914
 30
0.0
  0
VERTEX
  5
C6
330
C1
100
AcDbEntity
  8
Layer 1
 62
     7
420
 16777215
370
     5
100
AcDbVertex
100
AcDb2dVertex
 10
183.8556165447479
 20
498.4843016331914
 30
0.0
  0
VERTEX
  5
C7
330
C1
100
AcDbEntity
  8
Layer 1
 62
     7
420
 16777215
370
     5
100
AcDbVertex
100
AcDb2dVertex
 10
183.8556165447479
 20
500.734293494608
 30
0.0
  0
SEQEND
  5
C8
330
C1
100
AcDbEntity
  8
Layer 1
370
     5
  0
POLYLINE
  5
C9
330
1F
100
AcDbEntity
  8
Layer 1
 62
     7
420
 16777215
370
     5
100
AcDb2dPolyline
 66
     1
 10
0.0
 20
0.0
 30
0.0
  0
VERTEX
  5
CA
330
C9
100
AcDbEntity
  8
Layer 1
 62
     7
420
 16777215
370
     5
100
AcDbVertex
100
AcDb2dVertex
 10
242.4561739845248
 20
502.7341714237955
 30
0.0
  0
VERTEX
  5
CB
330
C9
100
AcDbEntity
  8
Layer 1
 62
     7
420
 16777215
370
     5
100
AcDbVertex
100
AcDb2dVertex
 10
242.4561739845248
 20
504.9845077947608
 30
0.0
  0
VERTEX
  5
CC
330
C9
100
AcDbEntity
  8
Layer 1
 62
     7
420
 16777215
370
     5
100
AcDbVertex
100
AcDb2dVertex
 10
251.4561414301915
 20
504.9845077947608
 30
0.0
  0
VERTEX
  5
CD
330
C9
100
AcDbEntity
  8
Layer 1
 62
     7
420
 16777215
370
     5
100
AcDbVertex
100
AcDb2dVertex
 10
251.4561414301915
 20
500.4845240719274
 30
0.0
  0
VERTEX
  5
CE
330
C9
100
AcDbEntity
  8
Layer 1
 62
     7
420
 16777215
370
     5
100
AcDbVertex
100
AcDb2dVertex
 10
242.4561739845248
 20
500.4845240719274
 30
0.0
  0
VERTEX
  5
CF
330
C9
100
AcDbEntity
  8
Layer 1
 62
     7
420
 16777215
370
     5
100
AcDbVertex
100
AcDb2dVertex
 10
242.4561739845248
 20
502.7341714237955
 30
0.0
  0
SEQEND
  5
D0
330
C9
100
AcDbEntity
  8
Layer 1
370
     5
  0
SPLINE
  5
D1
330
1F
100
AcDbEntity
  8
Layer 1
 62
     7
420
 16777215
370
     5
100
AcDbSpline
210
0.0
220
0.0
230
1.0
 70
     8
 71
     3
 72
    89
 73
    85
 74
     0
 42
0.0000000001
 43
0.0000000001
 40
0.0
 40
0.0
 40
0.0
 40
0.0
 40
1.0
 40
1.0
 40
1.0
 40
2.0
 40
2.0
 40
2.0
 40
3.0
 40
3.0
 40
3.0
 40
4.0
 40
4.0
 40
4.0
 40
5.0
 40
5.0
 40
5.0
 40
6.0
 40
6.0
 40
6.0
 40
7.0
 40
7.0
 40
7.0
 40
8.0
 40
8.0
 40
8.0
 40
9.0
 40
9.0
 40
9.0
 40
10.0
 40
10.0
 40
10.0
 40
11.0
 40
11.0
 40
11.0
 40
12.0
 40
12.0
 40
12.0
 40
13.0
 40
13.0
 40
13.0
 40
14.0
 40
14.0
 40
14.0
 40
15.0
 40
15.0
 40
15.0
 40
16.0
 40
16.0
 40
16.0
 40
17.0
 40
17.0
 40
17.0
 40
18.0
 40
18.0
 40
18.0
 40
19.0
 40
19.0
 40
19.0
 40
20.0
 40
20.0
 40
20.0
 40
21.0
 40
21.0
 40
21.0
 40
22.0
 40
22.0
 40
22.0
 40
23.0
 40
23.0
 40
23.0
 40
24.0
 40
24.0
 40
24.0
 40
25.0
 40
25.0
 40
25.0
 40
26.0
 40
26.0
 40
26.0
 40
27.0
 40
27.0
 40
27.0
 40
28.0
 40
28.0
 40
28.0
 40
28.0
 10
287.2561956747137
 20
536.9842772095038
 30
0.0
 10
287.2561956747137
 20
536.9842772095038
 30
0.0
 10
287.2561956747137
 20
530.2343016252539
 30
0.0
 10
287.2561956747137
 20
530.2343016252539
 30
0.0
 10
287.2561956747137
 20
530.2343016252539
 30
0.0
 10
312.2558755729777
 20
530.2343016252539
 30
0.0
 10
312.2558755729777
 20
530.2343016252539
 30
0.0
 10
312.2558755729777
 20
530.2343016252539
 30
0.0
 10
312.2558755729777
 20
525.7343179024206
 30
0.0
 10
312.2558755729777
 20
525.7343179024206
 30
0.0
 10
312.2558755729777
 20
525.7343179024206
 30
0.0
 10
287.2561956747137
 20
525.7343179024206
 30
0.0
 10
287.2561956747137
 20
525.7343179024206
 30
0.0
 10
287.2561956747137
 20
525.7343179024206
 30
0.0
 10
287.2561956747137
 20
507.4842690788581
 30
0.0
 10
287.2561956747137
 20
507.4842690788581
 30
0.0
 10
287.2561956747137
 20
507.4842690788581
 30
0.0
 10
274.4555988897194
 20
507.4842690788581
 30
0.0
 10
274.4555988897194
 20
507.4842690788581
 30
0.0
 10
270.7280055746791
 20
507.4842690788581
 30
0.0
 10
267.7059678150179
 20
504.4622313191969
 30
0.0
 10
267.7059678150179
 20
500.734293494608
 30
0.0
 10
267.7059678150179
 20
497.0063556700192
 30
0.0
 10
270.7280055746791
 20
493.984317910358
 30
0.0
 10
274.4555988897194
 20
493.984317910358
 30
0.0
 10
274.4555988897194
 20
493.984317910358
 30
0.0
 10
287.2561956747137
 20
493.984317910358
 30
0.0
 10
287.2561956747137
 20
493.984317910358
 30
0.0
 10
287.2561956747137
 20
493.984317910358
 30
0.0
 10
287.2561956747137
 20
493.7342039781289
 30
0.0
 10
287.2561956747137
 20
493.7342039781289
 30
0.0
 10
287.2561956747137
 20
493.7342039781289
 30
0.0
 10
287.2561956747137
 20
477.7344915255316
 30
0.0
 10
287.2561956747137
 20
477.7344915255316
 30
0.0
 10
287.2561956747137
 20
477.7344915255316
 30
0.0
 10
312.2558755729777
 20
477.7344915255316
 30
0.0
 10
312.2558755729777
 20
477.7344915255316
 30
0.0
 10
312.2558755729777
 20
477.7344915255316
 30
0.0
 10
312.2558755729777
 20
473.2345078026983
 30
0.0
 10
312.2558755729777
 20
473.2345078026983
 30
0.0
 10
312.2558755729777
 20
473.2345078026983
 30
0.0
 10
287.2561956747137
 20
473.2345078026983
 30
0.0
 10
287.2561956747137
 20
473.2345078026983
 30
0.0
 10
287.2561956747137
 20
473.2345078026983
 30
0.0
 10
287.2561956747137
 20
466.4841877088998
 30
0.0
 10
287.2561956747137
 20
466.4841877088998
 30
0.0
 10
287.2561956747137
 20
466.4841877088998
 30
0.0
 10
337.2555554712416
 20
466.4841877088998
 30
0.0
 10
337.2555554712416
 20
466.4841877088998
 30
0.0
 10
337.2555554712416
 20
466.4841877088998
 30
0.0
 10
337.2555554712416
 20
473.2345078026983
 30
0.0
 10
337.2555554712416
 20
473.2345078026983
 30
0.0
 10
337.2555554712416
 20
473.2345078026983
 30
0.0
 10
337.2555554712416
 20
477.7344915255316
 30
0.0
 10
337.2555554712416
 20
477.7344915255316
 30
0.0
 10
337.2555554712416
 20
477.7344915255316
 30
0.0
 10
337.2555554712416
 20
495.9845403490941
 30
0.0
 10
337.2555554712416
 20
495.9845403490941
 30
0.0
 10
337.2555554712416
 20
495.9845403490941
 30
0.0
 10
350.0561522562359
 20
495.9845403490941
 30
0.0
 10
350.0561522562359
 20
495.9845403490941
 30
0.0
 10
353.7837455712763
 20
495.9845403490941
 30
0.0
 10
356.8057833309374
 20
499.0065781087553
 30
0.0
 10
356.8057833309374
 20
502.7341714237955
 30
0.0
 10
356.8057833309374
 20
506.462453757933
 30
0.0
 10
353.7837455712763
 20
509.4844915175941
 30
0.0
 10
350.0561522562359
 20
509.4844915175941
 30
0.0
 10
350.0561522562359
 20
509.4844915175941
 30
0.0
 10
337.2555554712416
 20
509.4844915175941
 30
0.0
 10
337.2555554712416
 20
509.4844915175941
 30
0.0
 10
337.2555554712416
 20
509.4844915175941
 30
0.0
 10
337.2555554712416
 20
509.7342609402747
 30
0.0
 10
337.2555554712416
 20
509.7342609402747
 30
0.0
 10
337.2555554712416
 20
509.7342609402747
 30
0.0
 10
337.2555554712416
 20
525.7343179024206
 30
0.0
 10
337.2555554712416
 20
525.7343179024206
 30
0.0
 10
337.2555554712416
 20
525.7343179024206
 30
0.0
 10
337.2555554712416
 20
530.2343016252539
 30
0.0
 10
337.2555554712416
 20
530.2343016252539
 30
0.0
 10
337.2555554712416
 20
530.2343016252539
 30
0.0
 10
337.2555554712416
 20
536.9842772095038
 30
0.0
 10
337.2555554712416
 20
536.9842772095038
 30
0.0
 10
337.2555554712416
 20
536.9842772095038
 30
0.0
 10
287.2555066556167
 20
536.9842772095038
 30
0.0
 10
287.2555066556167
 20
536.9842772095038
 30
0.0
  0
POLYLINE
  5
D2
330
1F
100
AcDbEntity
  8
Layer 1
 62
     7
420
 16777215
370
     5
100
AcDb2dPolyline
 66
     1
 10
0.0
 20
0.0
 30
0.0
  0
VERTEX
  5
D3
330
D2
100
AcDbEntity
  8
Layer 1
 62
     7
420
 16777215
370
     5
100
AcDbVertex
100
AcDb2dVertex
 10
282.9560274900248
 20
500.734293494608
 30
0.0
  0
VERTEX
  5
D4
330
D2
100
AcDbEntity
  8
Layer 1
 62
     7
420
 16777215
370
     5
100
AcDbVertex
100
AcDb2dVertex
 10
282.9560274900248
 20
502.9842853560247
 30
0.0
  0
VERTEX
  5
D5
330
D2
100
AcDbEntity
  8
Layer 1
 62
     7
420
 16777215
370
     5
100
AcDbVertex
100
AcDb2dVertex
 10
273.9560600443582
 20
502.9842853560247
 30
0.0
  0
VERTEX
  5
D6
330
D2
100
AcDbEntity
  8
Layer 1
 62
     7
420
 16777215
370
     5
100
AcDbVertex
100
AcDb2dVertex
 10
273.9560600443582
 20
498.4843016331914
 30
0.0
  0
VERTEX
  5
D7
330
D2
100
AcDbEntity
  8
Layer 1
 62
     7
420
 16777215
370
     5
100
AcDbVertex
100
AcDb2dVertex
 10
282.9560274900248
 20
498.4843016331914
 30
0.0
  0
VERTEX
  5
D8
330
D2
100
AcDbEntity
  8
Layer 1
 62
     7
420
 16777215
370
     5
100
AcDbVertex
100
AcDb2dVertex
 10
282.9560274900248
 20
500.734293494608
 30
0.0
  0
SEQEND
  5
D9
330
D2
100
AcDbEntity
  8
Layer 1
370
     5
  0
POLYLINE
  5
DA
330
1F
100
AcDbEntity
  8
Layer 1
 62
     7
420
 16777215
370
     5
100
AcDb2dPolyline
 66
     1
 10
0.0
 20
0.0
 30
0.0
  0
VERTEX
  5
DB
330
DA
100
AcDbEntity
  8
Layer 1
 62
     7
420
 16777215
370
     5
100
AcDbVertex
100
AcDb2dVertex
 10
341.5557236559305
 20
502.7341714237955
 30
0.0
  0
VERTEX
  5
DC
330
DA
100
AcDbEntity
  8
Layer 1
 62
     7
420
 16777215
370
     5
100
AcDbVertex
100
AcDb2dVertex
 10
341.5557236559305
 20
504.9845077947608
 30
0.0
  0
VERTEX
  5
DD
330
DA
100
AcDbEntity
  8
Layer 1
 62
     7
420
 16777215
370
     5
100
AcDbVertex
100
AcDb2dVertex
 10
350.5556911015972
 20
504.9845077947608
 30
0.0
  0
VERTEX
  5
DE
330
DA
100
AcDbEntity
  8
Layer 1
 62
     7
420
 16777215
370
     5
100
AcDbVertex
100
AcDb2dVertex
 10
350.5556911015972
 20
500.4845240719274
 30
0.0
  0
VERTEX
  5
DF
330
DA
100
AcDbEntity
  8
Layer 1
 62
     7
420
 16777215
370
     5
100
AcDbVertex
100
AcDb2dVertex
 10
341.5557236559305
 20
500.4845240719274
 30
0.0
  0
VERTEX
  5
E0
330
DA
100
AcDbEntity
  8
Layer 1
 62
     7
420
 16777215
370
     5
100
AcDbVertex
100
AcDb2dVertex
 10
341.5557236559305
 20
502.7341714237955
 30
0.0
  0
SEQEND
  5
E1
330
DA
100
AcDbEntity
  8
Layer 1
370
     5
  0
SPLINE
  5
E2
330
1F
100
AcDbEntity
  8
Layer 1
 62
     7
420
 16777215
370
     5
100
AcDbSpline
210
0.0
220
0.0
230
1.0
 70
    11
 71
     3
 72
    32
 73
    28
 74
     0
 42
0.0000000001
 43
0.0000000001
 40
0.0
 40
0.0
 40
0.0
 40
0.0
 40
1.0
 40
1.0
 40
1.0
 40
2.0
 40
2.0
 40
2.0
 40
3.0
 40
3.0
 40
3.0
 40
4.0
 40
4.0
 40
4.0
 40
5.0
 40
5.0
 40
5.0
 40
6.0
 40
6.0
 40
6.0
 40
7.0
 40
7.0
 40
7.0
 40
8.0
 40
8.0
 40
8.0
 40
9.0
 40
9.0
 40
9.0
 40
9.0
 10
344.0871798184921
 20
401.8941595132417
 30
0.0
 10
344.0871798184921
 20
401.8941595132417
 30
0.0
 10
344.0871798184921
 20
409.8943602490889
 30
0.0
 10
344.0871798184921
 20
409.8943602490889
 30
0.0
 10
344.2008679695053
 20
410.5041421499781
 30
0.0
 10
344.6776691846639
 20
410.9809433651367
 30
0.0
 10
345.2874510855531
 20
411.0946315161499
 30
0.0
 10
345.2874510855531
 20
411.0946315161499
 30
0.0
 10
364.2874971962545
 20
412.9446477917291
 30
0.0
 10
364.2874971962545
 20
412.9446477917291
 30
0.0
 10
364.2874971962545
 20
412.9446477917291
 30
0.0
 10
364.2874971962545
 20
414.5445501350791
 30
0.0
 10
364.2874971962545
 20
414.5445501350791
 30
0.0
 10
364.4008408377192
 20
415.1543320359683
 30
0.0
 10
364.8776420528778
 20
415.6311332511269
 30
0.0
 10
365.487423953767
 20
415.7441323830431
 30
0.0
 10
365.487423953767
 20
415.7441323830431
 30
0.0
 10
369.4875243216906
 20
415.7441323830431
 30
0.0
 10
369.4875243216906
 20
415.7441323830431
 30
0.0
 10
370.0969617130312
 20
415.6311332511269
 30
0.0
 10
370.5737629281899
 20
415.1543320359683
 30
0.0
 10
370.6874510792031
 20
414.5445501350791
 30
0.0
 10
370.6874510792031
 20
414.5445501350791
 30
0.0
 10
370.6874510792031
 20
402.0443656763986
 30
0.0
 10
370.6874510792031
 20
402.0443656763986
 30
0.0
 10
370.6874510792031
 20
402.0443656763986
 30
0.0
 10
344.0871798184921
 20
401.8941595132417
 30
0.0
 10
344.0871798184921
 20
401.8941595132417
 30
0.0
  0
SPLINE
  5
E3
330
1F
100
AcDbEntity
  8
Layer 1
 62
     7
420
 16777215
370
     5
100
AcDbSpline
210
0.0
220
0.0
230
1.0
 70
    11
 71
     3
 72
    17
 73
    13
 74
     0
 42
0.0000000001
 43
0.0000000001
 40
0.0
 40
0.0
 40
0.0
 40
0.0
 40
1.0
 40
1.0
 40
1.0
 40
2.0
 40
2.0
 40
2.0
 40
3.0
 40
3.0
 40
3.0
 40
4.0
 40
4.0
 40
4.0
 40
4.0
 10
347.3872367838129
 20
408.1945501366666
 30
0.0
 10
348.1051946829389
 20
408.1945501366666
 30
0.0
 10
348.6874158199462
 20
407.6123289996594
 30
0.0
 10
348.6874158199462
 20
406.8943711005333
 30
0.0
 10
348.6874158199462
 20
406.1764132014072
 30
0.0
 10
348.1051946829389
 20
405.5941920644
 30
0.0
 10
347.3872367838129
 20
405.5941920644
 30
0.0
 10
346.6692788846868
 20
405.5941920644
 30
0.0
 10
346.0874022572281
 20
406.1764132014072
 30
0.0
 10
346.0874022572281
 20
406.8943711005333
 30
0.0
 10
346.0874022572281
 20
407.6123289996594
 30
0.0
 10
346.6692788846868
 20
408.1945501366666
 30
0.0
 10
347.3872367838129
 20
408.1945501366666
 30
0.0
  0
SPLINE
  5
E4
330
1F
100
AcDbEntity
  8
Layer 1
 62
     7
420
 16777215
370
     5
100
AcDbSpline
210
0.0
220
0.0
230
1.0
 70
    11
 71
     3
 72
    32
 73
    28
 74
     0
 42
0.0000000001
 43
0.0000000001
 40
0.0
 40
0.0
 40
0.0
 40
0.0
 40
1.0
 40
1.0
 40
1.0
 40
2.0
 40
2.0
 40
2.0
 40
3.0
 40
3.0
 40
3.0
 40
4.0
 40
4.0
 40
4.0
 40
5.0
 40
5.0
 40
5.0
 40
6.0
 40
6.0
 40
6.0
 40
7.0
 40
7.0
 40
7.0
 40
8.0
 40
8.0
 40
8.0
 40
9.0
 40
9.0
 40
9.0
 40
9.0
 10
374.0874158135962
 20
401.8941595132417
 30
0.0
 10
374.0874158135962
 20
401.8941595132417
 30
0.0
 10
374.0874158135962
 20
409.8943602490889
 30
0.0
 10
374.0874158135962
 20
409.8943602490889
 30
0.0
 10
374.2007594550609
 20
410.5041421499781
 30
0.0
 10
374.677905179768
 20
410.9809433651367
 30
0.0
 10
375.2873425711087
 20
411.0946315161499
 30
0.0
 10
375.2873425711087
 20
411.0946315161499
 30
0.0
 10
394.2873886818101
 20
412.9446477917291
 30
0.0
 10
394.2873886818101
 20
412.9446477917291
 30
0.0
 10
394.2873886818101
 20
412.9446477917291
 30
0.0
 10
394.2873886818101
 20
414.5445501350791
 30
0.0
 10
394.2873886818101
 20
414.5445501350791
 30
0.0
 10
394.4007323232748
 20
415.1543320359683
 30
0.0
 10
394.8778780479819
 20
415.6311332511269
 30
0.0
 10
395.4873154393226
 20
415.7441323830431
 30
0.0
 10
395.4873154393226
 20
415.7441323830431
 30
0.0
 10
399.4874158072462
 20
415.7441323830431
 30
0.0
 10
399.4874158072462
 20
415.7441323830431
 30
0.0
 10
400.0968531985869
 20
415.6311332511269
 30
0.0
 10
400.573998923294
 20
415.1543320359683
 30
0.0
 10
400.6873425647587
 20
414.5445501350791
 30
0.0
 10
400.6873425647587
 20
414.5445501350791
 30
0.0
 10
400.6873425647587
 20
402.0443656763986
 30
0.0
 10
400.6873425647587
 20
402.0443656763986
 30
0.0
 10
400.6873425647587
 20
402.0443656763986
 30
0.0
 10
374.0874158135962
 20
401.8941595132417
 30
0.0
 10
374.0874158135962
 20
401.8941595132417
 30
0.0
  0
SPLINE
  5
E5
330
1F
100
AcDbEntity
  8
Layer 1
 62
     7
420
 16777215
370
     5
100
AcDbSpline
210
0.0
220
0.0
230
1.0
 70
    11
 71
     3
 72
    17
 73
    13
 74
     0
 42
0.0000000001
 43
0.0000000001
 40
0.0
 40
0.0
 40
0.0
 40
0.0
 40
1.0
 40
1.0
 40
1.0
 40
2.0
 40
2.0
 40
2.0
 40
3.0
 40
3.0
 40
3.0
 40
4.0
 40
4.0
 40
4.0
 40
4.0
 10
377.387472778917
 20
408.1945501366666
 30
0.0
 10
378.105430678043
 20
408.1945501366666
 30
0.0
 10
378.6873073055017
 20
407.6123289996594
 30
0.0
 10
378.6873073055017
 20
406.8943711005333
 30
0.0
 10
378.6873073055017
 20
406.1764132014072
 30
0.0
 10
378.105430678043
 20
405.5941920644
 30
0.0
 10
377.387472778917
 20
405.5941920644
 30
0.0
 10
376.6695148797909
 20
405.5941920644
 30
0.0
 10
376.0872937427837
 20
406.1764132014072
 30
0.0
 10
376.0872937427837
 20
406.8943711005333
 30
0.0
 10
376.0872937427837
 20
407.6123289996594
 30
0.0
 10
376.6695148797909
 20
408.1945501366666
 30
0.0
 10
377.387472778917
 20
408.1945501366666
 30
0.0
  0
SPLINE
  5
E6
330
1F
100
AcDbEntity
  8
Layer 1
 62
     7
420
 16777215
370
     5
100
AcDbSpline
210
0.0
220
0.0
230
1.0
 70
    11
 71
     3
 72
    32
 73
    28
 74
     0
 42
0.0000000001
 43
0.0000000001
 40
0.0
 40
0.0
 40
0.0
 40
0.0
 40
1.0
 40
1.0
 40
1.0
 40
2.0
 40
2.0
 40
2.0
 40
3.0
 40
3.0
 40
3.0
 40
4.0
 40
4.0
 40
4.0
 40
5.0
 40
5.0
 40
5.0
 40
6.0
 40
6.0
 40
6.0
 40
7.0
 40
7.0
 40
7.0
 40
8.0
 40
8.0
 40
8.0
 40
9.0
 40
9.0
 40
9.0
 40
9.0
 10
404.0873072991517
 20
401.8941595132417
 30
0.0
 10
404.0873072991517
 20
401.8941595132417
 30
0.0
 10
404.0873072991517
 20
409.8943602490889
 30
0.0
 10
404.0873072991517
 20
409.8943602490889
 30
0.0
 10
404.200995450165
 20
410.5041421499781
 30
0.0
 10
404.6777966653236
 20
410.9809433651367
 30
0.0
 10
405.2872340566643
 20
411.0946315161499
 30
0.0
 10
405.2872340566643
 20
411.0946315161499
 30
0.0
 10
424.2872801673656
 20
412.9446477917291
 30
0.0
 10
424.2872801673656
 20
412.9446477917291
 30
0.0
 10
424.2872801673656
 20
412.9446477917291
 30
0.0
 10
424.2872801673656
 20
414.5445501350791
 30
0.0
 10
424.2872801673656
 20
414.5445501350791
 30
0.0
 10
424.4009683183789
 20
415.1543320359683
 30
0.0
 10
424.8777695335374
 20
415.6311332511269
 30
0.0
 10
425.4872069248781
 20
415.7441323830431
 30
0.0
 10
425.4872069248781
 20
415.7441323830431
 30
0.0
 10
429.4873072928017
 20
415.7441323830431
 30
0.0
 10
429.4873072928017
 20
415.7441323830431
 30
0.0
 10
430.097089193691
 20
415.6311332511269
 30
0.0
 10
430.5738904088495
 20
415.1543320359683
 30
0.0
 10
430.6872340503143
 20
414.5445501350791
 30
0.0
 10
430.6872340503143
 20
414.5445501350791
 30
0.0
 10
430.6872340503143
 20
402.0443656763986
 30
0.0
 10
430.6872340503143
 20
402.0443656763986
 30
0.0
 10
430.6872340503143
 20
402.0443656763986
 30
0.0
 10
404.0873072991517
 20
401.8941595132417
 30
0.0
 10
404.0873072991517
 20
401.8941595132417
 30
0.0
  0
SPLINE
  5
E7
330
1F
100
AcDbEntity
  8
Layer 1
 62
     7
420
 16777215
370
     5
100
AcDbSpline
210
0.0
220
0.0
230
1.0
 70
    11
 71
     3
 72
    17
 73
    13
 74
     0
 42
0.0000000001
 43
0.0000000001
 40
0.0
 40
0.0
 40
0.0
 40
0.0
 40
1.0
 40
1.0
 40
1.0
 40
2.0
 40
2.0
 40
2.0
 40
3.0
 40
3.0
 40
3.0
 40
4.0
 40
4.0
 40
4.0
 40
4.0
 10
407.3873642644726
 20
408.1945501366666
 30
0.0
 10
408.1053221635986
 20
408.1945501366666
 30
0.0
 10
408.6875433006059
 20
407.6123289996594
 30
0.0
 10
408.6875433006059
 20
406.8943711005333
 30
0.0
 10
408.6875433006059
 20
406.1764132014072
 30
0.0
 10
408.1053221635986
 20
405.5941920644
 30
0.0
 10
407.3873642644726
 20
405.5941920644
 30
0.0
 10
406.6694063653465
 20
405.5941920644
 30
0.0
 10
406.0871852283393
 20
406.1764132014072
 30
0.0
 10
406.0871852283393
 20
406.8943711005333
 30
0.0
 10
406.0871852283393
 20
407.6123289996594
 30
0.0
 10
406.6694063653465
 20
408.1945501366666
 30
0.0
 10
407.3873642644726
 20
408.1945501366666
 30
0.0
  0
SPLINE
  5
E8
330
1F
100
AcDbEntity
  8
Layer 1
 62
     7
420
 16777215
370
     5
100
AcDbSpline
210
0.0
220
0.0
230
1.0
 70
    11
 71
     3
 72
    32
 73
    28
 74
     0
 42
0.0000000001
 43
0.0000000001
 40
0.0
 40
0.0
 40
0.0
 40
0.0
 40
1.0
 40
1.0
 40
1.0
 40
2.0
 40
2.0
 40
2.0
 40
3.0
 40
3.0
 40
3.0
 40
4.0
 40
4.0
 40
4.0
 40
5.0
 40
5.0
 40
5.0
 40
6.0
 40
6.0
 40
6.0
 40
7.0
 40
7.0
 40
7.0
 40
8.0
 40
8.0
 40
8.0
 40
9.0
 40
9.0
 40
9.0
 40
9.0
 10
434.0875432942559
 20
401.8941595132417
 30
0.0
 10
434.0875432942559
 20
401.8941595132417
 30
0.0
 10
434.0875432942559
 20
409.8943602490889
 30
0.0
 10
434.0875432942559
 20
409.8943602490889
 30
0.0
 10
434.2008869357206
 20
410.5041421499781
 30
0.0
 10
434.6776881508791
 20
410.9809433651367
 30
0.0
 10
435.2874700517684
 20
411.0946315161499
 30
0.0
 10
435.2874700517684
 20
411.0946315161499
 30
0.0
 10
454.2875161624697
 20
412.9446477917291
 30
0.0
 10
454.2875161624697
 20
412.9446477917291
 30
0.0
 10
454.2875161624697
 20
412.9446477917291
 30
0.0
 10
454.2875161624697
 20
414.5445501350791
 30
0.0
 10
454.2875161624697
 20
414.5445501350791
 30
0.0
 10
454.4008598039345
 20
415.1543320359683
 30
0.0
 10
454.8780055286416
 20
415.6311332511269
 30
0.0
 10
455.4874429199822
 20
415.7441323830431
 30
0.0
 10
455.4874429199822
 20
415.7441323830431
 30
0.0
 10
459.4875432879059
 20
415.7441323830431
 30
0.0
 10
459.4875432879059
 20
415.7441323830431
 30
0.0
 10
460.0969806792465
 20
415.6311332511269
 30
0.0
 10
460.5737818944051
 20
415.1543320359683
 30
0.0
 10
460.6874700454184
 20
414.5445501350791
 30
0.0
 10
460.6874700454184
 20
414.5445501350791
 30
0.0
 10
460.6874700454184
 20
402.0443656763986
 30
0.0
 10
460.6874700454184
 20
402.0443656763986
 30
0.0
 10
460.6874700454184
 20
402.0443656763986
 30
0.0
 10
434.0875432942559
 20
401.8941595132417
 30
0.0
 10
434.0875432942559
 20
401.8941595132417
 30
0.0
  0
SPLINE
  5
E9
330
1F
100
AcDbEntity
  8
Layer 1
 62
     7
420
 16777215
370
     5
100
AcDbSpline
210
0.0
220
0.0
230
1.0
 70
    11
 71
     3
 72
    17
 73
    13
 74
     0
 42
0.0000000001
 43
0.0000000001
 40
0.0
 40
0.0
 40
0.0
 40
0.0
 40
1.0
 40
1.0
 40
1.0
 40
2.0
 40
2.0
 40
2.0
 40
3.0
 40
3.0
 40
3.0
 40
4.0
 40
4.0
 40
4.0
 40
4.0
 10
437.3872557500281
 20
408.1945501366666
 30
0.0
 10
438.1052136491542
 20
408.1945501366666
 30
0.0
 10
438.6874347861614
 20
407.6123289996594
 30
0.0
 10
438.6874347861614
 20
406.8943711005333
 30
0.0
 10
438.6874347861614
 20
406.1764132014072
 30
0.0
 10
438.1052136491542
 20
405.5941920644
 30
0.0
 10
437.3872557500281
 20
405.5941920644
 30
0.0
 10
436.6692978509021
 20
405.5941920644
 30
0.0
 10
436.0874212234434
 20
406.1764132014072
 30
0.0
 10
436.0874212234434
 20
406.8943711005333
 30
0.0
 10
436.0874212234434
 20
407.6123289996594
 30
0.0
 10
436.6692978509021
 20
408.1945501366666
 30
0.0
 10
437.3872557500281
 20
408.1945501366666
 30
0.0
  0
SPLINE
  5
EA
330
1F
100
AcDbEntity
  8
Layer 1
 62
     7
420
 16777215
370
     5
100
AcDbSpline
210
0.0
220
0.0
230
1.0
 70
    11
 71
     3
 72
    32
 73
    28
 74
     0
 42
0.0000000001
 43
0.0000000001
 40
0.0
 40
0.0
 40
0.0
 40
0.0
 40
1.0
 40
1.0
 40
1.0
 40
2.0
 40
2.0
 40
2.0
 40
3.0
 40
3.0
 40
3.0
 40
4.0
 40
4.0
 40
4.0
 40
5.0
 40
5.0
 40
5.0
 40
6.0
 40
6.0
 40
6.0
 40
7.0
 40
7.0
 40
7.0
 40
8.0
 40
8.0
 40
8.0
 40
9.0
 40
9.0
 40
9.0
 40
9.0
 10
464.0874347798114
 20
401.8941595132417
 30
0.0
 10
464.0874347798114
 20
401.8941595132417
 30
0.0
 10
464.0874347798114
 20
409.8943602490889
 30
0.0
 10
464.0874347798114
 20
409.8943602490889
 30
0.0
 10
464.2007784212761
 20
410.5041421499781
 30
0.0
 10
464.6779241459832
 20
410.9809433651367
 30
0.0
 10
465.2873615373239
 20
411.0946315161499
 30
0.0
 10
465.2873615373239
 20
411.0946315161499
 30
0.0
 10
484.2874076480253
 20
412.9446477917291
 30
0.0
 10
484.2874076480253
 20
412.9446477917291
 30
0.0
 10
484.2874076480253
 20
412.9446477917291
 30
0.0
 10
484.2874076480253
 20
414.5445501350791
 30
0.0
 10
484.2874076480253
 20
414.5445501350791
 30
0.0
 10
484.4010957990386
 20
415.1543320359683
 30
0.0
 10
484.8778970141971
 20
415.6311332511269
 30
0.0
 10
485.4873344055378
 20
415.7441323830431
 30
0.0
 10
485.4873344055378
 20
415.7441323830431
 30
0.0
 10
489.4874347734614
 20
415.7441323830431
 30
0.0
 10
489.4874347734614
 20
415.7441323830431
 30
0.0
 10
490.0968721648021
 20
415.6311332511269
 30
0.0
 10
490.5740178895092
 20
415.1543320359683
 30
0.0
 10
490.6873615309739
 20
414.5445501350791
 30
0.0
 10
490.6873615309739
 20
414.5445501350791
 30
0.0
 10
490.6873615309739
 20
402.0443656763986
 30
0.0
 10
490.6873615309739
 20
402.0443656763986
 30
0.0
 10
490.6873615309739
 20
402.0443656763986
 30
0.0
 10
464.0874347798114
 20
401.8941595132417
 30
0.0
 10
464.0874347798114
 20
401.8941595132417
 30
0.0
  0
SPLINE
  5
EB
330
1F
100
AcDbEntity
  8
Layer 1
 62
     7
420
 16777215
370
     5
100
AcDbSpline
210
0.0
220
0.0
230
1.0
 70
    11
 71
     3
 72
    17
 73
    13
 74
     0
 42
0.0000000001
 43
0.0000000001
 40
0.0
 40
0.0
 40
0.0
 40
0.0
 40
1.0
 40
1.0
 40
1.0
 40
2.0
 40
2.0
 40
2.0
 40
3.0
 40
3.0
 40
3.0
 40
4.0
 40
4.0
 40
4.0
 40
4.0
 10
467.3874917451323
 20
408.1945501366666
 30
0.0
 10
468.1054496442583
 20
408.1945501366666
 30
0.0
 10
468.687326271717
 20
407.6123289996594
 30
0.0
 10
468.687326271717
 20
406.8943711005333
 30
0.0
 10
468.687326271717
 20
406.1764132014072
 30
0.0
 10
468.1054496442583
 20
405.5941920644
 30
0.0
 10
467.3874917451323
 20
405.5941920644
 30
0.0
 10
466.6695338460062
 20
405.5941920644
 30
0.0
 10
466.087312708999
 20
406.1764132014072
 30
0.0
 10
466.087312708999
 20
406.8943711005333
 30
0.0
 10
466.087312708999
 20
407.6123289996594
 30
0.0
 10
466.6695338460062
 20
408.1945501366666
 30
0.0
 10
467.3874917451323
 20
408.1945501366666
 30
0.0
  0
SPLINE
  5
EC
330
1F
100
AcDbEntity
  8
Layer 1
 62
     7
420
 16777215
370
     5
100
AcDbSpline
210
0.0
220
0.0
230
1.0
 70
    11
 71
     3
 72
    32
 73
    28
 74
     0
 42
0.0000000001
 43
0.0000000001
 40
0.0
 40
0.0
 40
0.0
 40
0.0
 40
1.0
 40
1.0
 40
1.0
 40
2.0
 40
2.0
 40
2.0
 40
3.0
 40
3.0
 40
3.0
 40
4.0
 40
4.0
 40
4.0
 40
5.0
 40
5.0
 40
5.0
 40
6.0
 40
6.0
 40
6.0
 40
7.0
 40
7.0
 40
7.0
 40
8.0
 40
8.0
 40
8.0
 40
9.0
 40
9.0
 40
9.0
 40
9.0
 10
494.087326265367
 20
401.8941595132417
 30
0.0
 10
494.087326265367
 20
401.8941595132417
 30
0.0
 10
494.087326265367
 20
409.8943602490889
 30
0.0
 10
494.087326265367
 20
409.8943602490889
 30
0.0
 10
494.2010144163802
 20
410.5041421499781
 30
0.0
 10
494.6778156315388
 20
410.9809433651367
 30
0.0
 10
495.287597532428
 20
411.0946315161499
 30
0.0
 10
495.287597532428
 20
411.0946315161499
 30
0.0
 10
514.2872991335809
 20
412.9446477917291
 30
0.0
 10
514.2872991335809
 20
412.9446477917291
 30
0.0
 10
514.2872991335809
 20
412.9446477917291
 30
0.0
 10
514.2872991335809
 20
414.5445501350791
 30
0.0
 10
514.2872991335809
 20
414.5445501350791
 30
0.0
 10
514.4009872845942
 20
415.1543320359683
 30
0.0
 10
514.8777884997527
 20
415.6311332511269
 30
0.0
 10
515.487570400642
 20
415.7441323830431
 30
0.0
 10
515.487570400642
 20
415.7441323830431
 30
0.0
 10
519.487326259017
 20
415.7441323830431
 30
0.0
 10
519.487326259017
 20
415.7441323830431
 30
0.0
 10
520.0971081599063
 20
415.6311332511269
 30
0.0
 10
520.5739093750648
 20
415.1543320359683
 30
0.0
 10
520.6875975260781
 20
414.5445501350791
 30
0.0
 10
520.6875975260781
 20
414.5445501350791
 30
0.0
 10
520.6875975260781
 20
402.0443656763986
 30
0.0
 10
520.6875975260781
 20
402.0443656763986
 30
0.0
 10
520.6875975260781
 20
402.0443656763986
 30
0.0
 10
494.087326265367
 20
401.8941595132417
 30
0.0
 10
494.087326265367
 20
401.8941595132417
 30
0.0
  0
SPLINE
  5
ED
330
1F
100
AcDbEntity
  8
Layer 1
 62
     7
420
 16777215
370
     5
100
AcDbSpline
210
0.0
220
0.0
230
1.0
 70
    11
 71
     3
 72
    17
 73
    13
 74
     0
 42
0.0000000001
 43
0.0000000001
 40
0.0
 40
0.0
 40
0.0
 40
0.0
 40
1.0
 40
1.0
 40
1.0
 40
2.0
 40
2.0
 40
2.0
 40
3.0
 40
3.0
 40
3.0
 40
4.0
 40
4.0
 40
4.0
 40
4.0
 10
497.3873832306878
 20
408.1945501366666
 30
0.0
 10
498.1053411298139
 20
408.1945501366666
 30
0.0
 10
498.6872177572726
 20
407.6123289996594
 30
0.0
 10
498.6872177572726
 20
406.8943711005333
 30
0.0
 10
498.6872177572726
 20
406.1764132014072
 30
0.0
 10
498.1053411298139
 20
405.5941920644
 30
0.0
 10
497.3873832306878
 20
405.5941920644
 30
0.0
 10
496.6694253315617
 20
405.5941920644
 30
0.0
 10
496.0875487041031
 20
406.1764132014072
 30
0.0
 10
496.0875487041031
 20
406.8943711005333
 30
0.0
 10
496.0875487041031
 20
407.6123289996594
 30
0.0
 10
496.6694253315617
 20
408.1945501366666
 30
0.0
 10
497.3873832306878
 20
408.1945501366666
 30
0.0
  0
SPLINE
  5
EE
330
1F
100
AcDbEntity
  8
Layer 1
 62
     7
420
 16777215
370
     5
100
AcDbSpline
210
0.0
220
0.0
230
1.0
 70
    11
 71
     3
 72
    32
 73
    28
 74
     0
 42
0.0000000001
 43
0.0000000001
 40
0.0
 40
0.0
 40
0.0
 40
0.0
 40
1.0
 40
1.0
 40
1.0
 40
2.0
 40
2.0
 40
2.0
 40
3.0
 40
3.0
 40
3.0
 40
4.0
 40
4.0
 40
4.0
 40
5.0
 40
5.0
 40
5.0
 40
6.0
 40
6.0
 40
6.0
 40
7.0
 40
7.0
 40
7.0
 40
8.0
 40
8.0
 40
8.0
 40
9.0
 40
9.0
 40
9.0
 40
9.0
 10
524.0872177509226
 20
401.8941595132417
 30
0.0
 10
524.0872177509226
 20
401.8941595132417
 30
0.0
 10
524.0872177509226
 20
409.8943602490889
 30
0.0
 10
524.0872177509226
 20
409.8943602490889
 30
0.0
 10
524.2009059019358
 20
410.5041421499781
 30
0.0
 10
524.6777071170944
 20
410.9809433651367
 30
0.0
 10
525.2874890179836
 20
411.0946315161499
 30
0.0
 10
525.2874890179836
 20
411.0946315161499
 30
0.0
 10
544.2871906191365
 20
412.9446477917291
 30
0.0
 10
544.2871906191365
 20
412.9446477917291
 30
0.0
 10
544.2871906191365
 20
412.9446477917291
 30
0.0
 10
544.2871906191365
 20
414.5445501350791
 30
0.0
 10
544.2871906191365
 20
414.5445501350791
 30
0.0
 10
544.4008787701497
 20
415.1543320359683
 30
0.0
 10
544.8776799853083
 20
415.6311332511269
 30
0.0
 10
545.4874618861975
 20
415.7441323830431
 30
0.0
 10
545.4874618861975
 20
415.7441323830431
 30
0.0
 10
549.4872177445726
 20
415.7441323830431
 30
0.0
 10
549.4872177445726
 20
415.7441323830431
 30
0.0
 10
550.0969996454618
 20
415.6311332511269
 30
0.0
 10
550.5738008606204
 20
415.1543320359683
 30
0.0
 10
550.6874890116336
 20
414.5445501350791
 30
0.0
 10
550.6874890116336
 20
414.5445501350791
 30
0.0
 10
550.6874890116336
 20
402.0443656763986
 30
0.0
 10
550.6874890116336
 20
402.0443656763986
 30
0.0
 10
550.6874890116336
 20
402.0443656763986
 30
0.0
 10
524.0872177509226
 20
401.8941595132417
 30
0.0
 10
524.0872177509226
 20
401.8941595132417
 30
0.0
  0
SPLINE
  5
EF
330
1F
100
AcDbEntity
  8
Layer 1
 62
     7
420
 16777215
370
     5
100
AcDbSpline
210
0.0
220
0.0
230
1.0
 70
    11
 71
     3
 72
    17
 73
    13
 74
     0
 42
0.0000000001
 43
0.0000000001
 40
0.0
 40
0.0
 40
0.0
 40
0.0
 40
1.0
 40
1.0
 40
1.0
 40
2.0
 40
2.0
 40
2.0
 40
3.0
 40
3.0
 40
3.0
 40
4.0
 40
4.0
 40
4.0
 40
4.0
 10
527.3872747162434
 20
408.1945501366666
 30
0.0
 10
528.1052326153695
 20
408.1945501366666
 30
0.0
 10
528.6874537523767
 20
407.6123289996594
 30
0.0
 10
528.6874537523767
 20
406.8943711005333
 30
0.0
 10
528.6874537523767
 20
406.1764132014072
 30
0.0
 10
528.1052326153695
 20
405.5941920644
 30
0.0
 10
527.3872747162434
 20
405.5941920644
 30
0.0
 10
526.6693168171173
 20
405.5941920644
 30
0.0
 10
526.0874401896587
 20
406.1764132014072
 30
0.0
 10
526.0874401896587
 20
406.8943711005333
 30
0.0
 10
526.0874401896587
 20
407.6123289996594
 30
0.0
 10
526.6693168171173
 20
408.1945501366666
 30
0.0
 10
527.3872747162434
 20
408.1945501366666
 30
0.0
  0
SPLINE
  5
F0
330
1F
100
AcDbEntity
  8
Layer 1
 62
     7
420
 16777215
370
     5
100
AcDbSpline
210
0.0
220
0.0
230
1.0
 70
    11
 71
     3
 72
    32
 73
    28
 74
     0
 42
0.0000000001
 43
0.0000000001
 40
0.0
 40
0.0
 40
0.0
 40
0.0
 40
1.0
 40
1.0
 40
1.0
 40
2.0
 40
2.0
 40
2.0
 40
3.0
 40
3.0
 40
3.0
 40
4.0
 40
4.0
 40
4.0
 40
5.0
 40
5.0
 40
5.0
 40
6.0
 40
6.0
 40
6.0
 40
7.0
 40
7.0
 40
7.0
 40
8.0
 40
8.0
 40
8.0
 40
9.0
 40
9.0
 40
9.0
 40
9.0
 10
344.0871798184921
 20
381.8946912022693
 30
0.0
 10
344.0871798184921
 20
381.8946912022693
 30
0.0
 10
344.0871798184921
 20
389.8942029190194
 30
0.0
 10
344.0871798184921
 20
389.8942029190194
 30
0.0
 10
344.2008679695053
 20
390.5039848199087
 30
0.0
 10
344.6776691846639
 20
390.9807860350672
 30
0.0
 10
345.2874510855531
 20
391.0944741860805
 30
0.0
 10
345.2874510855531
 20
391.0944741860805
 30
0.0
 10
364.2874971962545
 20
392.9444904616597
 30
0.0
 10
364.2874971962545
 20
392.9444904616597
 30
0.0
 10
364.2874971962545
 20
392.9444904616597
 30
0.0
 10
364.2874971962545
 20
394.5443928050097
 30
0.0
 10
364.2874971962545
 20
394.5443928050097
 30
0.0
 10
364.4008408377192
 20
395.1541747058989
 30
0.0
 10
364.8776420528778
 20
395.6309759210575
 30
0.0
 10
365.487423953767
 20
395.7446640720707
 30
0.0
 10
365.487423953767
 20
395.7446640720707
 30
0.0
 10
369.4875243216906
 20
395.7446640720707
 30
0.0
 10
369.4875243216906
 20
395.7446640720707
 30
0.0
 10
370.0969617130312
 20
395.6309759210575
 30
0.0
 10
370.5737629281899
 20
395.1541747058989
 30
0.0
 10
370.6874510792031
 20
394.5443928050097
 30
0.0
 10
370.6874510792031
 20
394.5443928050097
 30
0.0
 10
370.6874510792031
 20
382.0442083463292
 30
0.0
 10
370.6874510792031
 20
382.0442083463292
 30
0.0
 10
370.6874510792031
 20
382.0442083463292
 30
0.0
 10
344.0871798184921
 20
381.8946912022693
 30
0.0
 10
344.0871798184921
 20
381.8946912022693
 30
0.0
  0
SPLINE
  5
F1
330
1F
100
AcDbEntity
  8
Layer 1
 62
     7
420
 16777215
370
     5
100
AcDbSpline
210
0.0
220
0.0
230
1.0
 70
    11
 71
     3
 72
    17
 73
    13
 74
     0
 42
0.0000000001
 43
0.0000000001
 40
0.0
 40
0.0
 40
0.0
 40
0.0
 40
1.0
 40
1.0
 40
1.0
 40
2.0
 40
2.0
 40
2.0
 40
3.0
 40
3.0
 40
3.0
 40
4.0
 40
4.0
 40
4.0
 40
4.0
 10
347.3872367838129
 20
388.1943928065972
 30
0.0
 10
348.1051946829389
 20
388.1943928065972
 30
0.0
 10
348.6874158199462
 20
387.61217166959
 30
0.0
 10
348.6874158199462
 20
386.8942137704639
 30
0.0
 10
348.6874158199462
 20
386.1762558713378
 30
0.0
 10
348.1051946829389
 20
385.5947237534277
 30
0.0
 10
347.3872367838129
 20
385.5947237534277
 30
0.0
 10
346.6692788846868
 20
385.5947237534277
 30
0.0
 10
346.0874022572281
 20
386.1762558713378
 30
0.0
 10
346.0874022572281
 20
386.8942137704639
 30
0.0
 10
346.0874022572281
 20
387.61217166959
 30
0.0
 10
346.6692788846868
 20
388.1943928065972
 30
0.0
 10
347.3872367838129
 20
388.1943928065972
 30
0.0
  0
SPLINE
  5
F2
330
1F
100
AcDbEntity
  8
Layer 1
 62
     7
420
 16777215
370
     5
100
AcDbSpline
210
0.0
220
0.0
230
1.0
 70
    11
 71
     3
 72
    32
 73
    28
 74
     0
 42
0.0000000001
 43
0.0000000001
 40
0.0
 40
0.0
 40
0.0
 40
0.0
 40
1.0
 40
1.0
 40
1.0
 40
2.0
 40
2.0
 40
2.0
 40
3.0
 40
3.0
 40
3.0
 40
4.0
 40
4.0
 40
4.0
 40
5.0
 40
5.0
 40
5.0
 40
6.0
 40
6.0
 40
6.0
 40
7.0
 40
7.0
 40
7.0
 40
8.0
 40
8.0
 40
8.0
 40
9.0
 40
9.0
 40
9.0
 40
9.0
 10
374.0874158135962
 20
381.8946912022693
 30
0.0
 10
374.0874158135962
 20
381.8946912022693
 30
0.0
 10
374.0874158135962
 20
389.8942029190194
 30
0.0
 10
374.0874158135962
 20
389.8942029190194
 30
0.0
 10
374.2007594550609
 20
390.5039848199087
 30
0.0
 10
374.677905179768
 20
390.9807860350672
 30
0.0
 10
375.2873425711087
 20
391.0944741860805
 30
0.0
 10
375.2873425711087
 20
391.0944741860805
 30
0.0
 10
394.2873886818101
 20
392.9444904616597
 30
0.0
 10
394.2873886818101
 20
392.9444904616597
 30
0.0
 10
394.2873886818101
 20
392.9444904616597
 30
0.0
 10
394.2873886818101
 20
394.5443928050097
 30
0.0
 10
394.2873886818101
 20
394.5443928050097
 30
0.0
 10
394.4007323232748
 20
395.1541747058989
 30
0.0
 10
394.8778780479819
 20
395.6309759210575
 30
0.0
 10
395.4873154393226
 20
395.7446640720707
 30
0.0
 10
395.4873154393226
 20
395.7446640720707
 30
0.0
 10
399.4874158072462
 20
395.7446640720707
 30
0.0
 10
399.4874158072462
 20
395.7446640720707
 30
0.0
 10
400.0968531985869
 20
395.6309759210575
 30
0.0
 10
400.573998923294
 20
395.1541747058989
 30
0.0
 10
400.6873425647587
 20
394.5443928050097
 30
0.0
 10
400.6873425647587
 20
394.5443928050097
 30
0.0
 10
400.6873425647587
 20
382.0442083463292
 30
0.0
 10
400.6873425647587
 20
382.0442083463292
 30
0.0
 10
400.6873425647587
 20
382.0442083463292
 30
0.0
 10
374.0874158135962
 20
381.8946912022693
 30
0.0
 10
374.0874158135962
 20
381.8946912022693
 30
0.0
  0
SPLINE
  5
F3
330
1F
100
AcDbEntity
  8
Layer 1
 62
     7
420
 16777215
370
     5
100
AcDbSpline
210
0.0
220
0.0
230
1.0
 70
    11
 71
     3
 72
    17
 73
    13
 74
     0
 42
0.0000000001
 43
0.0000000001
 40
0.0
 40
0.0
 40
0.0
 40
0.0
 40
1.0
 40
1.0
 40
1.0
 40
2.0
 40
2.0
 40
2.0
 40
3.0
 40
3.0
 40
3.0
 40
4.0
 40
4.0
 40
4.0
 40
4.0
 10
377.387472778917
 20
388.1943928065972
 30
0.0
 10
378.105430678043
 20
388.1943928065972
 30
0.0
 10
378.6873073055017
 20
387.61217166959
 30
0.0
 10
378.6873073055017
 20
386.8942137704639
 30
0.0
 10
378.6873073055017
 20
386.1762558713378
 30
0.0
 10
378.105430678043
 20
385.5947237534277
 30
0.0
 10
377.387472778917
 20
385.5947237534277
 30
0.0
 10
376.6695148797909
 20
385.5947237534277
 30
0.0
 10
376.0872937427837
 20
386.1762558713378
 30
0.0
 10
376.0872937427837
 20
386.8942137704639
 30
0.0
 10
376.0872937427837
 20
387.61217166959
 30
0.0
 10
376.6695148797909
 20
388.1943928065972
 30
0.0
 10
377.387472778917
 20
388.1943928065972
 30
0.0
  0
SPLINE
  5
F4
330
1F
100
AcDbEntity
  8
Layer 1
 62
     7
420
 16777215
370
     5
100
AcDbSpline
210
0.0
220
0.0
230
1.0
 70
    11
 71
     3
 72
    32
 73
    28
 74
     0
 42
0.0000000001
 43
0.0000000001
 40
0.0
 40
0.0
 40
0.0
 40
0.0
 40
1.0
 40
1.0
 40
1.0
 40
2.0
 40
2.0
 40
2.0
 40
3.0
 40
3.0
 40
3.0
 40
4.0
 40
4.0
 40
4.0
 40
5.0
 40
5.0
 40
5.0
 40
6.0
 40
6.0
 40
6.0
 40
7.0
 40
7.0
 40
7.0
 40
8.0
 40
8.0
 40
8.0
 40
9.0
 40
9.0
 40
9.0
 40
9.0
 10
404.0873072991517
 20
381.8946912022693
 30
0.0
 10
404.0873072991517
 20
381.8946912022693
 30
0.0
 10
404.0873072991517
 20
389.8942029190194
 30
0.0
 10
404.0873072991517
 20
389.8942029190194
 30
0.0
 10
404.200995450165
 20
390.5039848199087
 30
0.0
 10
404.6777966653236
 20
390.9807860350672
 30
0.0
 10
405.2872340566643
 20
391.0944741860805
 30
0.0
 10
405.2872340566643
 20
391.0944741860805
 30
0.0
 10
424.2872801673656
 20
392.9444904616597
 30
0.0
 10
424.2872801673656
 20
392.9444904616597
 30
0.0
 10
424.2872801673656
 20
392.9444904616597
 30
0.0
 10
424.2872801673656
 20
394.5443928050097
 30
0.0
 10
424.2872801673656
 20
394.5443928050097
 30
0.0
 10
424.4009683183789
 20
395.1541747058989
 30
0.0
 10
424.8777695335374
 20
395.6309759210575
 30
0.0
 10
425.4872069248781
 20
395.7446640720707
 30
0.0
 10
425.4872069248781
 20
395.7446640720707
 30
0.0
 10
429.4873072928017
 20
395.7446640720707
 30
0.0
 10
429.4873072928017
 20
395.7446640720707
 30
0.0
 10
430.097089193691
 20
395.6309759210575
 30
0.0
 10
430.5738904088495
 20
395.1541747058989
 30
0.0
 10
430.6872340503143
 20
394.5443928050097
 30
0.0
 10
430.6872340503143
 20
394.5443928050097
 30
0.0
 10
430.6872340503143
 20
382.0442083463292
 30
0.0
 10
430.6872340503143
 20
382.0442083463292
 30
0.0
 10
430.6872340503143
 20
382.0442083463292
 30
0.0
 10
404.0873072991517
 20
381.8946912022693
 30
0.0
 10
404.0873072991517
 20
381.8946912022693
 30
0.0
  0
SPLINE
  5
F5
330
1F
100
AcDbEntity
  8
Layer 1
 62
     7
420
 16777215
370
     5
100
AcDbSpline
210
0.0
220
0.0
230
1.0
 70
    11
 71
     3
 72
    17
 73
    13
 74
     0
 42
0.0000000001
 43
0.0000000001
 40
0.0
 40
0.0
 40
0.0
 40
0.0
 40
1.0
 40
1.0
 40
1.0
 40
2.0
 40
2.0
 40
2.0
 40
3.0
 40
3.0
 40
3.0
 40
4.0
 40
4.0
 40
4.0
 40
4.0
 10
407.3873642644726
 20
388.1943928065972
 30
0.0
 10
408.1053221635986
 20
388.1943928065972
 30
0.0
 10
408.6875433006059
 20
387.61217166959
 30
0.0
 10
408.6875433006059
 20
386.8942137704639
 30
0.0
 10
408.6875433006059
 20
386.1762558713378
 30
0.0
 10
408.1053221635986
 20
385.5947237534277
 30
0.0
 10
407.3873642644726
 20
385.5947237534277
 30
0.0
 10
406.6694063653465
 20
385.5947237534277
 30
0.0
 10
406.0871852283393
 20
386.1762558713378
 30
0.0
 10
406.0871852283393
 20
386.8942137704639
 30
0.0
 10
406.0871852283393
 20
387.61217166959
 30
0.0
 10
406.6694063653465
 20
388.1943928065972
 30
0.0
 10
407.3873642644726
 20
388.1943928065972
 30
0.0
  0
POLYLINE
  5
F6
330
1F
100
AcDbEntity
  8
Layer 1
 62
     7
420
 16777215
370
     5
100
AcDb2dPolyline
 66
     1
 10
0.0
 20
0.0
 30
0.0
  0
VERTEX
  5
F7
330
F6
100
AcDbEntity
  8
Layer 1
 62
     7
420
 16777215
370
     5
100
AcDbVertex
100
AcDb2dVertex
 10
349.8873425774587
 20
631.2689614307244
 30
0.0
  0
VERTEX
  5
F8
330
F6
100
AcDbEntity
  8
Layer 1
 62
     7
420
 16777215
370
     5
100
AcDbVertex
100
AcDb2dVertex
 10
429.8872828786393
 20
631.2689614307244
 30
0.0
  0
VERTEX
  5
F9
330
F6
100
AcDbEntity
  8
Layer 1
 62
     7
420
 16777215
370
     5
100
AcDbVertex
100
AcDb2dVertex
 10
429.8872828786393
 20
551.2690211295438
 30
0.0
  0
VERTEX
  5
FA
330
F6
100
AcDbEntity
  8
Layer 1
 62
     7
420
 16777215
370
     5
100
AcDbVertex
100
AcDb2dVertex
 10
349.8873425774587
 20
551.2690211295438
 30
0.0
  0
VERTEX
  5
FB
330
F6
100
AcDbEntity
  8
Layer 1
 62
     7
420
 16777215
370
     5
100
AcDbVertex
100
AcDb2dVertex
 10
349.8873425774587
 20
631.2689614307244
 30
0.0
  0
SEQEND
  5
FC
330
F6
100
AcDbEntity
  8
Layer 1
370
     5
  0
POLYLINE
  5
FD
330
1F
100
AcDbEntity
  8
Layer 1
 62
     7
420
 16777215
370
     5
100
AcDb2dPolyline
 66
     1
 10
0.0
 20
0.0
 30
0.0
  0
VERTEX
  5
FE
330
FD
100
AcDbEntity
  8
Layer 1
 62
     7
420
 16777215
370
     5
100
AcDbVertex
100
AcDb2dVertex
 10
357.3873154488476
 20
591.2693357896826
 30
0.0
  0
VERTEX
  5
FF
330
FD
100
AcDbEntity
  8
Layer 1
 62
     7
420
 16777215
370
     5
100
AcDbVertex
100
AcDb2dVertex
 10
357.3873154488476
 20
583.7693629182937
 30
0.0
  0
VERTEX
  5
100
330
FD
100
AcDbEntity
  8
Layer 1
 62
     7
420
 16777215
370
     5
100
AcDbVertex
100
AcDb2dVertex
 10
362.3871825265907
 20
583.7693629182937
 30
0.0
  0
VERTEX
  5
101
330
FD
100
AcDbEntity
  8
Layer 1
 62
     7
420
 16777215
370
     5
100
AcDbVertex
100
AcDb2dVertex
 10
362.3871825265907
 20
598.7693086610715
 30
0.0
  0
VERTEX
  5
102
330
FD
100
AcDbEntity
  8
Layer 1
 62
     7
420
 16777215
370
     5
100
AcDbVertex
100
AcDb2dVertex
 10
357.3873154488476
 20
598.7693086610715
 30
0.0
  0
VERTEX
  5
103
330
FD
100
AcDbEntity
  8
Layer 1
 62
     7
420
 16777215
370
     5
100
AcDbVertex
100
AcDb2dVertex
 10
357.3873154488476
 20
591.2693357896826
 30
0.0
  0
SEQEND
  5
104
330
FD
100
AcDbEntity
  8
Layer 1
370
     5
  0
POLYLINE
  5
105
330
1F
100
AcDbEntity
  8
Layer 1
 62
     7
420
 16777215
370
     5
100
AcDb2dPolyline
 66
     1
 10
0.0
 20
0.0
 30
0.0
  0
VERTEX
  5
106
330
105
100
AcDbEntity
  8
Layer 1
 62
     7
420
 16777215
370
     5
100
AcDbVertex
100
AcDb2dVertex
 10
389.887312728049
 20
558.7689940009327
 30
0.0
  0
VERTEX
  5
107
330
105
100
AcDbEntity
  8
Layer 1
 62
     7
420
 16777215
370
     5
100
AcDbVertex
100
AcDb2dVertex
 10
397.3872855994379
 20
558.7689940009327
 30
0.0
  0
VERTEX
  5
108
330
105
100
AcDbEntity
  8
Layer 1
 62
     7
420
 16777215
370
     5
100
AcDbVertex
100
AcDb2dVertex
 10
397.3872855994379
 20
563.7692055882243
 30
0.0
  0
VERTEX
  5
109
330
105
100
AcDbEntity
  8
Layer 1
 62
     7
420
 16777215
370
     5
100
AcDbVertex
100
AcDb2dVertex
 10
382.38733985666
 20
563.7692055882243
 30
0.0
  0
VERTEX
  5
10A
330
105
100
AcDbEntity
  8
Layer 1
 62
     7
420
 16777215
370
     5
100
AcDbVertex
100
AcDb2dVertex
 10
382.38733985666
 20
558.7689940009327
 30
0.0
  0
VERTEX
  5
10B
330
105
100
AcDbEntity
  8
Layer 1
 62
     7
420
 16777215
370
     5
100
AcDbVertex
100
AcDb2dVertex
 10
389.887312728049
 20
558.7689940009327
 30
0.0
  0
SEQEND
  5
10C
330
105
100
AcDbEntity
  8
Layer 1
370
     5
  0
POLYLINE
  5
10D
330
1F
100
AcDbEntity
  8
Layer 1
 62
     7
420
 16777215
370
     5
100
AcDb2dPolyline
 66
     1
 10
0.0
 20
0.0
 30
0.0
  0
VERTEX
  5
10E
330
10D
100
AcDbEntity
  8
Layer 1
 62
     7
420
 16777215
370
     5
100
AcDbVertex
100
AcDb2dVertex
 10
422.3873100072503
 20
591.2693357896826
 30
0.0
  0
VERTEX
  5
10F
330
10D
100
AcDbEntity
  8
Layer 1
 62
     7
420
 16777215
370
     5
100
AcDbVertex
100
AcDb2dVertex
 10
422.3873100072503
 20
598.7693086610715
 30
0.0
  0
VERTEX
  5
110
330
10D
100
AcDbEntity
  8
Layer 1
 62
     7
420
 16777215
370
     5
100
AcDbVertex
100
AcDb2dVertex
 10
417.387270674733
 20
598.7693086610715
 30
0.0
  0
VERTEX
  5
111
330
10D
100
AcDbEntity
  8
Layer 1
 62
     7
420
 16777215
370
     5
100
AcDbVertex
100
AcDb2dVertex
 10
417.387270674733
 20
583.7693629182937
 30
0.0
  0
VERTEX
  5
112
330
10D
100
AcDbEntity
  8
Layer 1
 62
     7
420
 16777215
370
     5
100
AcDbVertex
100
AcDb2dVertex
 10
422.3873100072503
 20
583.7693629182937
 30
0.0
  0
VERTEX
  5
113
330
10D
100
AcDbEntity
  8
Layer 1
 62
     7
420
 16777215
370
     5
100
AcDbVertex
100
AcDb2dVertex
 10
422.3873100072503
 20
591.2693357896826
 30
0.0
  0
SEQEND
  5
114
330
10D
100
AcDbEntity
  8
Layer 1
370
     5
  0
POLYLINE
  5
115
330
1F
100
AcDbEntity
  8
Layer 1
 62
     7
420
 16777215
370
     5
100
AcDb2dPolyline
 66
     1
 10
0.0
 20
0.0
 30
0.0
  0
VERTEX
  5
116
330
115
100
AcDbEntity
  8
Layer 1
 62
     7
420
 16777215
370
     5
100
AcDbVertex
100
AcDb2dVertex
 10
389.887312728049
 20
623.7689885593354
 30
0.0
  0
VERTEX
  5
117
330
115
100
AcDbEntity
  8
Layer 1
 62
     7
420
 16777215
370
     5
100
AcDbVertex
100
AcDb2dVertex
 10
382.38733985666
 20
623.7689885593354
 30
0.0
  0
VERTEX
  5
118
330
115
100
AcDbEntity
  8
Layer 1
 62
     7
420
 16777215
370
     5
100
AcDbVertex
100
AcDb2dVertex
 10
382.38733985666
 20
618.7694659911409
 30
0.0
  0
VERTEX
  5
119
330
115
100
AcDbEntity
  8
Layer 1
 62
     7
420
 16777215
370
     5
100
AcDbVertex
100
AcDb2dVertex
 10
397.3872855994379
 20
618.7694659911409
 30
0.0
  0
VERTEX
  5
11A
330
115
100
AcDbEntity
  8
Layer 1
 62
     7
420
 16777215
370
     5
100
AcDbVertex
100
AcDb2dVertex
 10
397.3872855994379
 20
623.7689885593354
 30
0.0
  0
VERTEX
  5
11B
330
115
100
AcDbEntity
  8
Layer 1
 62
     7
420
 16777215
370
     5
100
AcDbVertex
100
AcDb2dVertex
 10
389.887312728049
 20
623.7689885593354
 30
0.0
  0
SEQEND
  5
11C
330
115
100
AcDbEntity
  8
Layer 1
370
     5
  0
POLYLINE
  5
11D
330
1F
100
AcDbEntity
  8
Layer 1
 62
     7
420
 16777215
370
     5
100
AcDb2dPolyline
 66
     1
 10
0.0
 20
0.0
 30
0.0
  0
VERTEX
  5
11E
330
11D
100
AcDbEntity
  8
Layer 1
 62
     7
420
 16777215
370
     5
100
AcDbVertex
100
AcDb2dVertex
 10
439.8873615436739
 20
631.2689614307244
 30
0.0
  0
VERTEX
  5
11F
330
11D
100
AcDbEntity
  8
Layer 1
 62
     7
420
 16777215
370
     5
100
AcDbVertex
100
AcDb2dVertex
 10
519.8873018448545
 20
631.2689614307244
 30
0.0
  0
VERTEX
  5
120
330
11D
100
AcDbEntity
  8
Layer 1
 62
     7
420
 16777215
370
     5
100
AcDbVertex
100
AcDb2dVertex
 10
519.8873018448545
 20
551.2690211295438
 30
0.0
  0
VERTEX
  5
121
330
11D
100
AcDbEntity
  8
Layer 1
 62
     7
420
 16777215
370
     5
100
AcDbVertex
100
AcDb2dVertex
 10
439.8873615436739
 20
551.2690211295438
 30
0.0
  0
VERTEX
  5
122
330
11D
100
AcDbEntity
  8
Layer 1
 62
     7
420
 16777215
370
     5
100
AcDbVertex
100
AcDb2dVertex
 10
439.8873615436739
 20
631.2689614307244
 30
0.0
  0
SEQEND
  5
123
330
11D
100
AcDbEntity
  8
Layer 1
370
     5
  0
POLYLINE
  5
124
330
1F
100
AcDbEntity
  8
Layer 1
 62
     7
420
 16777215
370
     5
100
AcDb2dPolyline
 66
     1
 10
0.0
 20
0.0
 30
0.0
  0
VERTEX
  5
125
330
124
100
AcDbEntity
  8
Layer 1
 62
     7
420
 16777215
370
     5
100
AcDbVertex
100
AcDb2dVertex
 10
447.3873344150629
 20
591.2693357896826
 30
0.0
  0
VERTEX
  5
126
330
124
100
AcDbEntity
  8
Layer 1
 62
     7
420
 16777215
370
     5
100
AcDbVertex
100
AcDb2dVertex
 10
447.3873344150629
 20
583.7693629182937
 30
0.0
  0
VERTEX
  5
127
330
124
100
AcDbEntity
  8
Layer 1
 62
     7
420
 16777215
370
     5
100
AcDbVertex
100
AcDb2dVertex
 10
452.3872014928059
 20
583.7693629182937
 30
0.0
  0
VERTEX
  5
128
330
124
100
AcDbEntity
  8
Layer 1
 62
     7
420
 16777215
370
     5
100
AcDbVertex
100
AcDb2dVertex
 10
452.3872014928059
 20
598.7693086610715
 30
0.0
  0
VERTEX
  5
129
330
124
100
AcDbEntity
  8
Layer 1
 62
     7
420
 16777215
370
     5
100
AcDbVertex
100
AcDb2dVertex
 10
447.3873344150629
 20
598.7693086610715
 30
0.0
  0
VERTEX
  5
12A
330
124
100
AcDbEntity
  8
Layer 1
 62
     7
420
 16777215
370
     5
100
AcDbVertex
100
AcDb2dVertex
 10
447.3873344150629
 20
591.2693357896826
 30
0.0
  0
SEQEND
  5
12B
330
124
100
AcDbEntity
  8
Layer 1
370
     5
  0
POLYLINE
  5
12C
330
1F
100
AcDbEntity
  8
Layer 1
 62
     7
420
 16777215
370
     5
100
AcDb2dPolyline
 66
     1
 10
0.0
 20
0.0
 30
0.0
  0
VERTEX
  5
12D
330
12C
100
AcDbEntity
  8
Layer 1
 62
     7
420
 16777215
370
     5
100
AcDbVertex
100
AcDb2dVertex
 10
479.8873316942642
 20
558.7689940009327
 30
0.0
  0
VERTEX
  5
12E
330
12C
100
AcDbEntity
  8
Layer 1
 62
     7
420
 16777215
370
     5
100
AcDbVertex
100
AcDb2dVertex
 10
487.3873045656531
 20
558.7689940009327
 30
0.0
  0
VERTEX
  5
12F
330
12C
100
AcDbEntity
  8
Layer 1
 62
     7
420
 16777215
370
     5
100
AcDbVertex
100
AcDb2dVertex
 10
487.3873045656531
 20
563.7692055882243
 30
0.0
  0
VERTEX
  5
130
330
12C
100
AcDbEntity
  8
Layer 1
 62
     7
420
 16777215
370
     5
100
AcDbVertex
100
AcDb2dVertex
 10
472.3873588228753
 20
563.7692055882243
 30
0.0
  0
VERTEX
  5
131
330
12C
100
AcDbEntity
  8
Layer 1
 62
     7
420
 16777215
370
     5
100
AcDbVertex
100
AcDb2dVertex
 10
472.3873588228753
 20
558.7689940009327
 30
0.0
  0
VERTEX
  5
132
330
12C
100
AcDbEntity
  8
Layer 1
 62
     7
420
 16777215
370
     5
100
AcDbVertex
100
AcDb2dVertex
 10
479.8873316942642
 20
558.7689940009327
 30
0.0
  0
SEQEND
  5
133
330
12C
100
AcDbEntity
  8
Layer 1
370
     5
  0
POLYLINE
  5
134
330
1F
100
AcDbEntity
  8
Layer 1
 62
     7
420
 16777215
370
     5
100
AcDb2dPolyline
 66
     1
 10
0.0
 20
0.0
 30
0.0
  0
VERTEX
  5
135
330
134
100
AcDbEntity
  8
Layer 1
 62
     7
420
 16777215
370
     5
100
AcDbVertex
100
AcDb2dVertex
 10
512.3873289734656
 20
591.2693357896826
 30
0.0
  0
VERTEX
  5
136
330
134
100
AcDbEntity
  8
Layer 1
 62
     7
420
 16777215
370
     5
100
AcDbVertex
100
AcDb2dVertex
 10
512.3873289734656
 20
598.7693086610715
 30
0.0
  0
VERTEX
  5
137
330
134
100
AcDbEntity
  8
Layer 1
 62
     7
420
 16777215
370
     5
100
AcDbVertex
100
AcDb2dVertex
 10
507.3874618957225
 20
598.7693086610715
 30
0.0
  0
VERTEX
  5
138
330
134
100
AcDbEntity
  8
Layer 1
 62
     7
420
 16777215
370
     5
100
AcDbVertex
100
AcDb2dVertex
 10
507.3874618957225
 20
583.7693629182937
 30
0.0
  0
VERTEX
  5
139
330
134
100
AcDbEntity
  8
Layer 1
 62
     7
420
 16777215
370
     5
100
AcDbVertex
100
AcDb2dVertex
 10
512.3873289734656
 20
583.7693629182937
 30
0.0
  0
VERTEX
  5
13A
330
134
100
AcDbEntity
  8
Layer 1
 62
     7
420
 16777215
370
     5
100
AcDbVertex
100
AcDb2dVertex
 10
512.3873289734656
 20
591.2693357896826
 30
0.0
  0
SEQEND
  5
13B
330
134
100
AcDbEntity
  8
Layer 1
370
     5
  0
POLYLINE
  5
13C
330
1F
100
AcDbEntity
  8
Layer 1
 62
     7
420
 16777215
370
     5
100
AcDb2dPolyline
 66
     1
 10
0.0
 20
0.0
 30
0.0
  0
VERTEX
  5
13D
330
13C
100
AcDbEntity
  8
Layer 1
 62
     7
420
 16777215
370
     5
100
AcDbVertex
100
AcDb2dVertex
 10
479.8873316942642
 20
623.7689885593354
 30
0.0
  0
VERTEX
  5
13E
330
13C
100
AcDbEntity
  8
Layer 1
 62
     7
420
 16777215
370
     5
100
AcDbVertex
100
AcDb2dVertex
 10
472.3873588228753
 20
623.7689885593354
 30
0.0
  0
VERTEX
  5
13F
330
13C
100
AcDbEntity
  8
Layer 1
 62
     7
420
 16777215
370
     5
100
AcDbVertex
100
AcDb2dVertex
 10
472.3873588228753
 20
618.7694659911409
 30
0.0
  0
VERTEX
  5
140
330
13C
100
AcDbEntity
  8
Layer 1
 62
     7
420
 16777215
370
     5
100
AcDbVertex
100
AcDb2dVertex
 10
487.3873045656531
 20
618.7694659911409
 30
0.0
  0
VERTEX
  5
141
330
13C
100
AcDbEntity
  8
Layer 1
 62
     7
420
 16777215
370
     5
100
AcDbVertex
100
AcDb2dVertex
 10
487.3873045656531
 20
623.7689885593354
 30
0.0
  0
VERTEX
  5
142
330
13C
100
AcDbEntity
  8
Layer 1
 62
     7
420
 16777215
370
     5
100
AcDbVertex
100
AcDb2dVertex
 10
479.8873316942642
 20
623.7689885593354
 30
0.0
  0
SEQEND
  5
143
330
13C
100
AcDbEntity
  8
Layer 1
370
     5
  0
SPLINE
  5
144
330
1F
100
AcDbEntity
  8
Layer 1
 62
     7
420
 16777215
370
     5
100
AcDbSpline
210
0.0
220
0.0
230
1.0
 70
    11
 71
     3
 72
    89
 73
    85
 74
     0
 42
0.0000000001
 43
0.0000000001
 40
0.0
 40
0.0
 40
0.0
 40
0.0
 40
1.0
 40
1.0
 40
1.0
 40
2.0
 40
2.0
 40
2.0
 40
3.0
 40
3.0
 40
3.0
 40
4.0
 40
4.0
 40
4.0
 40
5.0
 40
5.0
 40
5.0
 40
6.0
 40
6.0
 40
6.0
 40
7.0
 40
7.0
 40
7.0
 40
8.0
 40
8.0
 40
8.0
 40
9.0
 40
9.0
 40
9.0
 40
10.0
 40
10.0
 40
10.0
 40
11.0
 40
11.0
 40
11.0
 40
12.0
 40
12.0
 40
12.0
 40
13.0
 40
13.0
 40
13.0
 40
14.0
 40
14.0
 40
14.0
 40
15.0
 40
15.0
 40
15.0
 40
16.0
 40
16.0
 40
16.0
 40
17.0
 40
17.0
 40
17.0
 40
18.0
 40
18.0
 40
18.0
 40
19.0
 40
19.0
 40
19.0
 40
20.0
 40
20.0
 40
20.0
 40
21.0
 40
21.0
 40
21.0
 40
22.0
 40
22.0
 40
22.0
 40
23.0
 40
23.0
 40
23.0
 40
24.0
 40
24.0
 40
24.0
 40
25.0
 40
25.0
 40
25.0
 40
26.0
 40
26.0
 40
26.0
 40
27.0
 40
27.0
 40
27.0
 40
28.0
 40
28.0
 40
28.0
 40
28.0
 10
547.1872719986197
 20
631.2689614307244
 30
0.0
 10
547.1872719986197
 20
631.2689614307244
 30
0.0
 10
547.1872719986197
 20
623.7689885593354
 30
0.0
 10
547.1872719986197
 20
623.7689885593354
 30
0.0
 10
547.1872719986197
 20
623.7689885593354
 30
0.0
 10
574.687402200078
 20
623.7689885593354
 30
0.0
 10
574.687402200078
 20
623.7689885593354
 30
0.0
 10
574.687402200078
 20
623.7689885593354
 30
0.0
 10
574.687402200078
 20
618.7694659911409
 30
0.0
 10
574.687402200078
 20
618.7694659911409
 30
0.0
 10
574.687402200078
 20
618.7694659911409
 30
0.0
 10
547.1872719986197
 20
618.7694659911409
 30
0.0
 10
547.1872719986197
 20
618.7694659911409
 30
0.0
 10
547.1872719986197
 20
618.7694659911409
 30
0.0
 10
547.1872719986197
 20
598.7693086610715
 30
0.0
 10
547.1872719986197
 20
598.7693086610715
 30
0.0
 10
547.1872719986197
 20
598.7693086610715
 30
0.0
 10
532.3871417939865
 20
598.7693086610715
 30
0.0
 10
532.3871417939865
 20
598.7693086610715
 30
0.0
 10
528.2451034920706
 20
598.7693086610715
 30
0.0
 10
524.8871689225975
 20
595.4113740915985
 30
0.0
 10
524.8871689225975
 20
591.2693357896826
 30
0.0
 10
524.8871689225975
 20
587.1269529782182
 30
0.0
 10
528.2451034920706
 20
583.7693629182937
 30
0.0
 10
532.3871417939865
 20
583.7693629182937
 30
0.0
 10
532.3871417939865
 20
583.7693629182937
 30
0.0
 10
547.1872719986197
 20
583.7693629182937
 30
0.0
 10
547.1872719986197
 20
583.7693629182937
 30
0.0
 10
547.1872719986197
 20
583.7693629182937
 30
0.0
 10
547.1872719986197
 20
583.7693629182937
 30
0.0
 10
547.1872719986197
 20
583.7693629182937
 30
0.0
 10
547.1872719986197
 20
583.7693629182937
 30
0.0
 10
547.1872719986197
 20
567.7689614465994
 30
0.0
 10
547.1872719986197
 20
567.7689614465994
 30
0.0
 10
547.1872719986197
 20
567.7689614465994
 30
0.0
 10
574.687402200078
 20
567.7689614465994
 30
0.0
 10
574.687402200078
 20
567.7689614465994
 30
0.0
 10
574.687402200078
 20
567.7689614465994
 30
0.0
 10
574.687402200078
 20
562.7694388784048
 30
0.0
 10
574.687402200078
 20
562.7694388784048
 30
0.0
 10
574.687402200078
 20
562.7694388784048
 30
0.0
 10
547.1872719986197
 20
562.7694388784048
 30
0.0
 10
547.1872719986197
 20
562.7694388784048
 30
0.0
 10
547.1872719986197
 20
562.7694388784048
 30
0.0
 10
547.1872719986197
 20
555.2694660070159
 30
0.0
 10
547.1872719986197
 20
555.2694660070159
 30
0.0
 10
547.1872719986197
 20
555.2694660070159
 30
0.0
 10
602.1871878919878
 20
555.2694660070159
 30
0.0
 10
602.1871878919878
 20
555.2694660070159
 30
0.0
 10
602.1871878919878
 20
555.2694660070159
 30
0.0
 10
602.1871878919878
 20
562.7694388784048
 30
0.0
 10
602.1871878919878
 20
562.7694388784048
 30
0.0
 10
602.1871878919878
 20
562.7694388784048
 30
0.0
 10
602.1871878919878
 20
567.7689614465994
 30
0.0
 10
602.1871878919878
 20
567.7689614465994
 30
0.0
 10
602.1871878919878
 20
567.7689614465994
 30
0.0
 10
602.1871878919878
 20
587.7691187766687
 30
0.0
 10
602.1871878919878
 20
587.7691187766687
 30
0.0
 10
602.1871878919878
 20
587.7691187766687
 30
0.0
 10
616.9873180966212
 20
587.7691187766687
 30
0.0
 10
616.9873180966212
 20
587.7691187766687
 30
0.0
 10
621.1293563985371
 20
587.7691187766687
 30
0.0
 10
624.48729096801
 20
591.1270533461418
 30
0.0
 10
624.48729096801
 20
595.2690916480576
 30
0.0
 10
624.48729096801
 20
599.4114744595221
 30
0.0
 10
621.1293563985371
 20
602.7690645194466
 30
0.0
 10
616.9873180966212
 20
602.7690645194466
 30
0.0
 10
616.9873180966212
 20
602.7690645194466
 30
0.0
 10
602.1871878919878
 20
602.7690645194466
 30
0.0
 10
602.1871878919878
 20
602.7690645194466
 30
0.0
 10
602.1871878919878
 20
602.7690645194466
 30
0.0
 10
602.1871878919878
 20
602.7690645194466
 30
0.0
 10
602.1871878919878
 20
602.7690645194466
 30
0.0
 10
602.1871878919878
 20
602.7690645194466
 30
0.0
 10
602.1871878919878
 20
618.7694659911409
 30
0.0
 10
602.1871878919878
 20
618.7694659911409
 30
0.0
 10
602.1871878919878
 20
618.7694659911409
 30
0.0
 10
602.1871878919878
 20
626.2694388625298
 30
0.0
 10
602.1871878919878
 20
626.2694388625298
 30
0.0
 10
602.1871878919878
 20
626.2694388625298
 30
0.0
 10
602.1871878919878
 20
631.2689614307244
 30
0.0
 10
602.1871878919878
 20
631.2689614307244
 30
0.0
 10
602.1871878919878
 20
631.2689614307244
 30
0.0
 10
547.1872719986197
 20
631.2689614307244
 30
0.0
 10
547.1872719986197
 20
631.2689614307244
 30
0.0
  0
POLYLINE
  5
145
330
1F
100
AcDbEntity
  8
Layer 1
 62
     7
420
 16777215
370
     5
100
AcDb2dPolyline
 66
     1
 10
0.0
 20
0.0
 30
0.0
  0
VERTEX
  5
146
330
145
100
AcDbEntity
  8
Layer 1
 62
     7
420
 16777215
370
     5
100
AcDbVertex
100
AcDb2dVertex
 10
542.3872204590211
 20
591.2693357896826
 30
0.0
  0
VERTEX
  5
147
330
145
100
AcDbEntity
  8
Layer 1
 62
     7
420
 16777215
370
     5
100
AcDbVertex
100
AcDb2dVertex
 10
542.3872204590211
 20
593.7690970737799
 30
0.0
  0
VERTEX
  5
148
330
145
100
AcDbEntity
  8
Layer 1
 62
     7
420
 16777215
370
     5
100
AcDbVertex
100
AcDb2dVertex
 10
532.3871417939865
 20
593.7690970737799
 30
0.0
  0
VERTEX
  5
149
330
145
100
AcDbEntity
  8
Layer 1
 62
     7
420
 16777215
370
     5
100
AcDbVertex
100
AcDb2dVertex
 10
532.3871417939865
 20
588.7692299960368
 30
0.0
  0
VERTEX
  5
14A
330
145
100
AcDbEntity
  8
Layer 1
 62
     7
420
 16777215
370
     5
100
AcDbVertex
100
AcDb2dVertex
 10
542.3872204590211
 20
588.7692299960368
 30
0.0
  0
VERTEX
  5
14B
330
145
100
AcDbEntity
  8
Layer 1
 62
     7
420
 16777215
370
     5
100
AcDbVertex
100
AcDb2dVertex
 10
542.3872204590211
 20
591.2693357896826
 30
0.0
  0
SEQEND
  5
14C
330
145
100
AcDbEntity
  8
Layer 1
370
     5
  0
POLYLINE
  5
14D
330
1F
100
AcDbEntity
  8
Layer 1
 62
     7
420
 16777215
370
     5
100
AcDb2dPolyline
 66
     1
 10
0.0
 20
0.0
 30
0.0
  0
VERTEX
  5
14E
330
14D
100
AcDbEntity
  8
Layer 1
 62
     7
420
 16777215
370
     5
100
AcDbVertex
100
AcDb2dVertex
 10
606.9872394315864
 20
595.2690916480576
 30
0.0
  0
VERTEX
  5
14F
330
14D
100
AcDbEntity
  8
Layer 1
 62
     7
420
 16777215
370
     5
100
AcDbVertex
100
AcDb2dVertex
 10
606.9872394315864
 20
597.7691974417035
 30
0.0
  0
VERTEX
  5
150
330
14D
100
AcDbEntity
  8
Layer 1
 62
     7
420
 16777215
370
     5
100
AcDbVertex
100
AcDb2dVertex
 10
616.9873180966212
 20
597.7691974417035
 30
0.0
  0
VERTEX
  5
151
330
14D
100
AcDbEntity
  8
Layer 1
 62
     7
420
 16777215
370
     5
100
AcDbVertex
100
AcDb2dVertex
 10
616.9873180966212
 20
592.7693303639604
 30
0.0
  0
VERTEX
  5
152
330
14D
100
AcDbEntity
  8
Layer 1
 62
     7
420
 16777215
370
     5
100
AcDbVertex
100
AcDb2dVertex
 10
606.9872394315864
 20
592.7693303639604
 30
0.0
  0
VERTEX
  5
153
330
14D
100
AcDbEntity
  8
Layer 1
 62
     7
420
 16777215
370
     5
100
AcDbVertex
100
AcDb2dVertex
 10
606.9872394315864
 20
595.2690916480576
 30
0.0
  0
SEQEND
  5
154
330
14D
100
AcDbEntity
  8
Layer 1
370
     5
  0
SPLINE
  5
155
330
1F
100
AcDbEntity
  8
Layer 1
 62
     7
420
 16777215
370
     5
100
AcDbSpline
210
0.0
220
0.0
230
1.0
 70
    11
 71
     3
 72
    89
 73
    85
 74
     0
 42
0.0000000001
 43
0.0000000001
 40
0.0
 40
0.0
 40
0.0
 40
0.0
 40
1.0
 40
1.0
 40
1.0
 40
2.0
 40
2.0
 40
2.0
 40
3.0
 40
3.0
 40
3.0
 40
4.0
 40
4.0
 40
4.0
 40
5.0
 40
5.0
 40
5.0
 40
6.0
 40
6.0
 40
6.0
 40
7.0
 40
7.0
 40
7.0
 40
8.0
 40
8.0
 40
8.0
 40
9.0
 40
9.0
 40
9.0
 40
10.0
 40
10.0
 40
10.0
 40
11.0
 40
11.0
 40
11.0
 40
12.0
 40
12.0
 40
12.0
 40
13.0
 40
13.0
 40
13.0
 40
14.0
 40
14.0
 40
14.0
 40
15.0
 40
15.0
 40
15.0
 40
16.0
 40
16.0
 40
16.0
 40
17.0
 40
17.0
 40
17.0
 40
18.0
 40
18.0
 40
18.0
 40
19.0
 40
19.0
 40
19.0
 40
20.0
 40
20.0
 40
20.0
 40
21.0
 40
21.0
 40
21.0
 40
22.0
 40
22.0
 40
22.0
 40
23.0
 40
23.0
 40
23.0
 40
24.0
 40
24.0
 40
24.0
 40
25.0
 40
25.0
 40
25.0
 40
26.0
 40
26.0
 40
26.0
 40
27.0
 40
27.0
 40
27.0
 40
28.0
 40
28.0
 40
28.0
 40
28.0
 10
365.7385714146417
 20
519.9689506078549
 30
0.0
 10
365.7385714146417
 20
519.9689506078549
 30
0.0
 10
365.7385714146417
 20
512.4689777364661
 30
0.0
 10
365.7385714146417
 20
512.4689777364661
 30
0.0
 10
365.7385714146417
 20
512.4689777364661
 30
0.0
 10
365.7385714146417
 20
507.4694551682715
 30
0.0
 10
365.7385714146417
 20
507.4694551682715
 30
0.0
 10
365.7385714146417
 20
507.4694551682715
 30
0.0
 10
365.7385714146417
 20
487.4692978382021
 30
0.0
 10
365.7385714146417
 20
487.4692978382021
 30
0.0
 10
365.7385714146417
 20
487.4692978382021
 30
0.0
 10
350.9387857195569
 20
487.4692978382021
 30
0.0
 10
350.9387857195569
 20
487.4692978382021
 30
0.0
 10
346.7964029080925
 20
487.4692978382021
 30
0.0
 10
343.438812848168
 20
484.1113632687291
 30
0.0
 10
343.438812848168
 20
479.9693249668132
 30
0.0
 10
343.438812848168
 20
475.8269421553488
 30
0.0
 10
346.7964029080925
 20
472.4693520954243
 30
0.0
 10
350.9387857195569
 20
472.4693520954243
 30
0.0
 10
350.9387857195569
 20
472.4693520954243
 30
0.0
 10
365.7385714146417
 20
472.4693520954243
 30
0.0
 10
365.7385714146417
 20
472.4693520954243
 30
0.0
 10
365.7385714146417
 20
472.4693520954243
 30
0.0
 10
365.7385714146417
 20
472.4693520954243
 30
0.0
 10
365.7385714146417
 20
472.4693520954243
 30
0.0
 10
365.7385714146417
 20
472.4693520954243
 30
0.0
 10
365.7385714146417
 20
456.4689506237299
 30
0.0
 10
365.7385714146417
 20
456.4689506237299
 30
0.0
 10
365.7385714146417
 20
456.4689506237299
 30
0.0
 10
365.7385714146417
 20
451.4694280555354
 30
0.0
 10
365.7385714146417
 20
451.4694280555354
 30
0.0
 10
365.7385714146417
 20
451.4694280555354
 30
0.0
 10
365.7385714146417
 20
443.9694551841465
 30
0.0
 10
365.7385714146417
 20
443.9694551841465
 30
0.0
 10
365.7385714146417
 20
443.9694551841465
 30
0.0
 10
420.7388318175583
 20
443.9694551841465
 30
0.0
 10
420.7388318175583
 20
443.9694551841465
 30
0.0
 10
420.7388318175583
 20
443.9694551841465
 30
0.0
 10
420.7388318175583
 20
451.4694280555354
 30
0.0
 10
420.7388318175583
 20
451.4694280555354
 30
0.0
 10
420.7388318175583
 20
451.4694280555354
 30
0.0
 10
393.2387016161
 20
451.4694280555354
 30
0.0
 10
393.2387016161
 20
451.4694280555354
 30
0.0
 10
393.2387016161
 20
451.4694280555354
 30
0.0
 10
393.2387016161
 20
456.4689506237299
 30
0.0
 10
393.2387016161
 20
456.4689506237299
 30
0.0
 10
393.2387016161
 20
456.4689506237299
 30
0.0
 10
420.7388318175583
 20
456.4689506237299
 30
0.0
 10
420.7388318175583
 20
456.4689506237299
 30
0.0
 10
420.7388318175583
 20
456.4689506237299
 30
0.0
 10
420.7388318175583
 20
476.4691079537993
 30
0.0
 10
420.7388318175583
 20
476.4691079537993
 30
0.0
 10
420.7388318175583
 20
476.4691079537993
 30
0.0
 10
435.5386175126431
 20
476.4691079537993
 30
0.0
 10
435.5386175126431
 20
476.4691079537993
 30
0.0
 10
439.6810003241075
 20
476.4691079537993
 30
0.0
 10
443.038590384032
 20
479.8270425232723
 30
0.0
 10
443.038590384032
 20
483.9690808251883
 30
0.0
 10
443.038590384032
 20
488.1114636366526
 30
0.0
 10
439.6810003241075
 20
491.4690536965771
 30
0.0
 10
435.5386175126431
 20
491.4690536965771
 30
0.0
 10
435.5386175126431
 20
491.4690536965771
 30
0.0
 10
420.7388318175583
 20
491.4690536965771
 30
0.0
 10
420.7388318175583
 20
491.4690536965771
 30
0.0
 10
420.7388318175583
 20
491.4690536965771
 30
0.0
 10
420.7388318175583
 20
491.4690536965771
 30
0.0
 10
420.7388318175583
 20
491.4690536965771
 30
0.0
 10
420.7388318175583
 20
491.4690536965771
 30
0.0
 10
420.7388318175583
 20
507.4694551682715
 30
0.0
 10
420.7388318175583
 20
507.4694551682715
 30
0.0
 10
420.7388318175583
 20
507.4694551682715
 30
0.0
 10
393.2387016161
 20
507.4694551682715
 30
0.0
 10
393.2387016161
 20
507.4694551682715
 30
0.0
 10
393.2387016161
 20
507.4694551682715
 30
0.0
 10
393.2387016161
 20
512.4689777364661
 30
0.0
 10
393.2387016161
 20
512.4689777364661
 30
0.0
 10
393.2387016161
 20
512.4689777364661
 30
0.0
 10
420.7388318175583
 20
512.4689777364661
 30
0.0
 10
420.7388318175583
 20
512.4689777364661
 30
0.0
 10
420.7388318175583
 20
512.4689777364661
 30
0.0
 10
420.7388318175583
 20
519.9689506078549
 30
0.0
 10
420.7388318175583
 20
519.9689506078549
 30
0.0
 10
420.7388318175583
 20
519.9689506078549
 30
0.0
 10
365.7385714146417
 20
519.9689506078549
 30
0.0
 10
365.7385714146417
 20
519.9689506078549
 30
0.0
  0
POLYLINE
  5
156
330
1F
100
AcDbEntity
  8
Layer 1
 62
     7
420
 16777215
370
     5
100
AcDb2dPolyline
 66
     1
 10
0.0
 20
0.0
 30
0.0
  0
VERTEX
  5
157
330
156
100
AcDbEntity
  8
Layer 1
 62
     7
420
 16777215
370
     5
100
AcDbVertex
100
AcDb2dVertex
 10
360.9388643845916
 20
479.9693249668132
 30
0.0
  0
VERTEX
  5
158
330
156
100
AcDbEntity
  8
Layer 1
 62
     7
420
 16777215
370
     5
100
AcDbVertex
100
AcDb2dVertex
 10
360.9388643845916
 20
482.4690862509104
 30
0.0
  0
VERTEX
  5
159
330
156
100
AcDbEntity
  8
Layer 1
 62
     7
420
 16777215
370
     5
100
AcDbVertex
100
AcDb2dVertex
 10
350.9387857195569
 20
482.4690862509104
 30
0.0
  0
VERTEX
  5
15A
330
156
100
AcDbEntity
  8
Layer 1
 62
     7
420
 16777215
370
     5
100
AcDbVertex
100
AcDb2dVertex
 10
350.9387857195569
 20
477.4692191731673
 30
0.0
  0
VERTEX
  5
15B
330
156
100
AcDbEntity
  8
Layer 1
 62
     7
420
 16777215
370
     5
100
AcDbVertex
100
AcDb2dVertex
 10
360.9388643845916
 20
477.4692191731673
 30
0.0
  0
VERTEX
  5
15C
330
156
100
AcDbEntity
  8
Layer 1
 62
     7
420
 16777215
370
     5
100
AcDbVertex
100
AcDb2dVertex
 10
360.9388643845916
 20
479.9693249668132
 30
0.0
  0
SEQEND
  5
15D
330
156
100
AcDbEntity
  8
Layer 1
370
     5
  0
POLYLINE
  5
15E
330
1F
100
AcDbEntity
  8
Layer 1
 62
     7
420
 16777215
370
     5
100
AcDb2dPolyline
 66
     1
 10
0.0
 20
0.0
 30
0.0
  0
VERTEX
  5
15F
330
15E
100
AcDbEntity
  8
Layer 1
 62
     7
420
 16777215
370
     5
100
AcDbVertex
100
AcDb2dVertex
 10
425.5388833571569
 20
483.9690808251883
 30
0.0
  0
VERTEX
  5
160
330
15E
100
AcDbEntity
  8
Layer 1
 62
     7
420
 16777215
370
     5
100
AcDbVertex
100
AcDb2dVertex
 10
425.5388833571569
 20
486.469186618834
 30
0.0
  0
VERTEX
  5
161
330
15E
100
AcDbEntity
  8
Layer 1
 62
     7
420
 16777215
370
     5
100
AcDbVertex
100
AcDb2dVertex
 10
435.5386175126431
 20
486.469186618834
 30
0.0
  0
VERTEX
  5
162
330
15E
100
AcDbEntity
  8
Layer 1
 62
     7
420
 16777215
370
     5
100
AcDbVertex
100
AcDb2dVertex
 10
435.5386175126431
 20
481.469319541091
 30
0.0
  0
VERTEX
  5
163
330
15E
100
AcDbEntity
  8
Layer 1
 62
     7
420
 16777215
370
     5
100
AcDbVertex
100
AcDb2dVertex
 10
425.5388833571569
 20
481.469319541091
 30
0.0
  0
VERTEX
  5
164
330
15E
100
AcDbEntity
  8
Layer 1
 62
     7
420
 16777215
370
     5
100
AcDbVertex
100
AcDb2dVertex
 10
425.5388833571569
 20
483.9690808251883
 30
0.0
  0
SEQEND
  5
165
330
15E
100
AcDbEntity
  8
Layer 1
370
     5
  0
SPLINE
  5
166
330
1F
100
AcDbEntity
  8
Layer 1
 62
     7
420
 16777215
370
     5
100
AcDbSpline
210
0.0
220
0.0
230
1.0
 70
    11
 71
     3
 72
    89
 73
    85
 74
     0
 42
0.0000000001
 43
0.0000000001
 40
0.0
 40
0.0
 40
0.0
 40
0.0
 40
1.0
 40
1.0
 40
1.0
 40
2.0
 40
2.0
 40
2.0
 40
3.0
 40
3.0
 40
3.0
 40
4.0
 40
4.0
 40
4.0
 40
5.0
 40
5.0
 40
5.0
 40
6.0
 40
6.0
 40
6.0
 40
7.0
 40
7.0
 40
7.0
 40
8.0
 40
8.0
 40
8.0
 40
9.0
 40
9.0
 40
9.0
 40
10.0
 40
10.0
 40
10.0
 40
11.0
 40
11.0
 40
11.0
 40
12.0
 40
12.0
 40
12.0
 40
13.0
 40
13.0
 40
13.0
 40
14.0
 40
14.0
 40
14.0
 40
15.0
 40
15.0
 40
15.0
 40
16.0
 40
16.0
 40
16.0
 40
17.0
 40
17.0
 40
17.0
 40
18.0
 40
18.0
 40
18.0
 40
19.0
 40
19.0
 40
19.0
 40
20.0
 40
20.0
 40
20.0
 40
21.0
 40
21.0
 40
21.0
 40
22.0
 40
22.0
 40
22.0
 40
23.0
 40
23.0
 40
23.0
 40
24.0
 40
24.0
 40
24.0
 40
25.0
 40
25.0
 40
25.0
 40
26.0
 40
26.0
 40
26.0
 40
27.0
 40
27.0
 40
27.0
 40
28.0
 40
28.0
 40
28.0
 40
28.0
 10
449.8874402087087
 20
542.9840832518407
 30
0.0
 10
449.8874402087087
 20
542.9840832518407
 30
0.0
 10
449.8874402087087
 20
535.4841103804519
 30
0.0
 10
449.8874402087087
 20
535.4841103804519
 30
0.0
 10
449.8874402087087
 20
535.4841103804519
 30
0.0
 10
449.8874402087087
 20
530.4845878122572
 30
0.0
 10
449.8874402087087
 20
530.4845878122572
 30
0.0
 10
449.8874402087087
 20
530.4845878122572
 30
0.0
 10
449.8874402087087
 20
510.4844304821879
 30
0.0
 10
449.8874402087087
 20
510.4844304821879
 30
0.0
 10
449.8874402087087
 20
510.4844304821879
 30
0.0
 10
435.0873100040753
 20
510.4844304821879
 30
0.0
 10
435.0873100040753
 20
510.4844304821879
 30
0.0
 10
430.9452717021595
 20
510.4844304821879
 30
0.0
 10
427.5873371326865
 20
507.1264959127149
 30
0.0
 10
427.5873371326865
 20
502.984457610799
 30
0.0
 10
427.5873371326865
 20
498.8422470541088
 30
0.0
 10
430.9452717021595
 20
495.4846569941843
 30
0.0
 10
435.0873100040753
 20
495.4846569941843
 30
0.0
 10
435.0873100040753
 20
495.4846569941843
 30
0.0
 10
449.8874402087087
 20
495.4846569941843
 30
0.0
 10
449.8874402087087
 20
495.4846569941843
 30
0.0
 10
449.8874402087087
 20
495.4846569941843
 30
0.0
 10
449.8874402087087
 20
495.4846569941843
 30
0.0
 10
449.8874402087087
 20
495.4846569941843
 30
0.0
 10
449.8874402087087
 20
495.4846569941843
 30
0.0
 10
449.8874402087087
 20
479.48425552249
 30
0.0
 10
449.8874402087087
 20
479.48425552249
 30
0.0
 10
449.8874402087087
 20
479.48425552249
 30
0.0
 10
449.8874402087087
 20
474.4847329542955
 30
0.0
 10
449.8874402087087
 20
474.4847329542955
 30
0.0
 10
449.8874402087087
 20
474.4847329542955
 30
0.0
 10
449.8874402087087
 20
466.9847600829065
 30
0.0
 10
449.8874402087087
 20
466.9847600829065
 30
0.0
 10
449.8874402087087
 20
466.9847600829065
 30
0.0
 10
504.8873561020767
 20
466.9847600829065
 30
0.0
 10
504.8873561020767
 20
466.9847600829065
 30
0.0
 10
504.8873561020767
 20
466.9847600829065
 30
0.0
 10
504.8873561020767
 20
474.4847329542955
 30
0.0
 10
504.8873561020767
 20
474.4847329542955
 30
0.0
 10
504.8873561020767
 20
474.4847329542955
 30
0.0
 10
477.3872259006184
 20
474.4847329542955
 30
0.0
 10
477.3872259006184
 20
474.4847329542955
 30
0.0
 10
477.3872259006184
 20
474.4847329542955
 30
0.0
 10
477.3872259006184
 20
479.48425552249
 30
0.0
 10
477.3872259006184
 20
479.48425552249
 30
0.0
 10
477.3872259006184
 20
479.48425552249
 30
0.0
 10
504.8873561020767
 20
479.48425552249
 30
0.0
 10
504.8873561020767
 20
479.48425552249
 30
0.0
 10
504.8873561020767
 20
479.48425552249
 30
0.0
 10
504.8873561020767
 20
499.4844128525594
 30
0.0
 10
504.8873561020767
 20
499.4844128525594
 30
0.0
 10
504.8873561020767
 20
499.4844128525594
 30
0.0
 10
519.6874863067101
 20
499.4844128525594
 30
0.0
 10
519.6874863067101
 20
499.4844128525594
 30
0.0
 10
523.8295246086259
 20
499.4844128525594
 30
0.0
 10
527.187459178099
 20
502.8421751672582
 30
0.0
 10
527.187459178099
 20
506.9842134691741
 30
0.0
 10
527.187459178099
 20
511.1265962806384
 30
0.0
 10
523.8295246086259
 20
514.4841863405629
 30
0.0
 10
519.6874863067101
 20
514.4841863405629
 30
0.0
 10
519.6874863067101
 20
514.4841863405629
 30
0.0
 10
504.8873561020767
 20
514.4841863405629
 30
0.0
 10
504.8873561020767
 20
514.4841863405629
 30
0.0
 10
504.8873561020767
 20
514.4841863405629
 30
0.0
 10
504.8873561020767
 20
514.4841863405629
 30
0.0
 10
504.8873561020767
 20
514.4841863405629
 30
0.0
 10
504.8873561020767
 20
514.4841863405629
 30
0.0
 10
504.8873561020767
 20
530.4845878122572
 30
0.0
 10
504.8873561020767
 20
530.4845878122572
 30
0.0
 10
504.8873561020767
 20
530.4845878122572
 30
0.0
 10
477.3872259006184
 20
530.4845878122572
 30
0.0
 10
477.3872259006184
 20
530.4845878122572
 30
0.0
 10
477.3872259006184
 20
530.4845878122572
 30
0.0
 10
477.3872259006184
 20
535.4841103804519
 30
0.0
 10
477.3872259006184
 20
535.4841103804519
 30
0.0
 10
477.3872259006184
 20
535.4841103804519
 30
0.0
 10
504.8873561020767
 20
535.4841103804519
 30
0.0
 10
504.8873561020767
 20
535.4841103804519
 30
0.0
 10
504.8873561020767
 20
535.4841103804519
 30
0.0
 10
504.8873561020767
 20
542.9840832518407
 30
0.0
 10
504.8873561020767
 20
542.9840832518407
 30
0.0
 10
504.8873561020767
 20
542.9840832518407
 30
0.0
 10
449.8874402087087
 20
542.9840832518407
 30
0.0
 10
449.8874402087087
 20
542.9840832518407
 30
0.0
  0
POLYLINE
  5
167
330
1F
100
AcDbEntity
  8
Layer 1
 62
     7
420
 16777215
370
     5
100
AcDb2dPolyline
 66
     1
 10
0.0
 20
0.0
 30
0.0
  0
VERTEX
  5
168
330
167
100
AcDbEntity
  8
Layer 1
 62
     7
420
 16777215
370
     5
100
AcDbVertex
100
AcDb2dVertex
 10
445.0873886691101
 20
502.984457610799
 30
0.0
  0
VERTEX
  5
169
330
167
100
AcDbEntity
  8
Layer 1
 62
     7
420
 16777215
370
     5
100
AcDbVertex
100
AcDb2dVertex
 10
445.0873886691101
 20
505.4842188948962
 30
0.0
  0
VERTEX
  5
16A
330
167
100
AcDbEntity
  8
Layer 1
 62
     7
420
 16777215
370
     5
100
AcDbVertex
100
AcDb2dVertex
 10
435.0873100040753
 20
505.4842188948962
 30
0.0
  0
VERTEX
  5
16B
330
167
100
AcDbEntity
  8
Layer 1
 62
     7
420
 16777215
370
     5
100
AcDbVertex
100
AcDb2dVertex
 10
435.0873100040753
 20
500.4843518171531
 30
0.0
  0
VERTEX
  5
16C
330
167
100
AcDbEntity
  8
Layer 1
 62
     7
420
 16777215
370
     5
100
AcDbVertex
100
AcDb2dVertex
 10
445.0873886691101
 20
500.4843518171531
 30
0.0
  0
VERTEX
  5
16D
330
167
100
AcDbEntity
  8
Layer 1
 62
     7
420
 16777215
370
     5
100
AcDbVertex
100
AcDb2dVertex
 10
445.0873886691101
 20
502.984457610799
 30
0.0
  0
SEQEND
  5
16E
330
167
100
AcDbEntity
  8
Layer 1
370
     5
  0
POLYLINE
  5
16F
330
1F
100
AcDbEntity
  8
Layer 1
 62
     7
420
 16777215
370
     5
100
AcDb2dPolyline
 66
     1
 10
0.0
 20
0.0
 30
0.0
  0
VERTEX
  5
170
330
16F
100
AcDbEntity
  8
Layer 1
 62
     7
420
 16777215
370
     5
100
AcDbVertex
100
AcDb2dVertex
 10
509.6874076416753
 20
506.9842134691741
 30
0.0
  0
VERTEX
  5
171
330
16F
100
AcDbEntity
  8
Layer 1
 62
     7
420
 16777215
370
     5
100
AcDbVertex
100
AcDb2dVertex
 10
509.6874076416753
 20
509.4843192628198
 30
0.0
  0
VERTEX
  5
172
330
16F
100
AcDbEntity
  8
Layer 1
 62
     7
420
 16777215
370
     5
100
AcDbVertex
100
AcDb2dVertex
 10
519.6874863067101
 20
509.4843192628198
 30
0.0
  0
VERTEX
  5
173
330
16F
100
AcDbEntity
  8
Layer 1
 62
     7
420
 16777215
370
     5
100
AcDbVertex
100
AcDb2dVertex
 10
519.6874863067101
 20
504.4844521850767
 30
0.0
  0
VERTEX
  5
174
330
16F
100
AcDbEntity
  8
Layer 1
 62
     7
420
 16777215
370
     5
100
AcDbVertex
100
AcDb2dVertex
 10
509.6874076416753
 20
504.4844521850767
 30
0.0
  0
VERTEX
  5
175
330
16F
100
AcDbEntity
  8
Layer 1
 62
     7
420
 16777215
370
     5
100
AcDbVertex
100
AcDb2dVertex
 10
509.6874076416753
 20
506.9842134691741
 30
0.0
  0
SEQEND
  5
176
330
16F
100
AcDbEntity
  8
Layer 1
370
     5
  0
SPLINE
  5
177
330
1F
100
AcDbEntity
  8
Layer 1
 62
     7
420
 16777215
370
     5
100
AcDbSpline
210
0.0
220
0.0
230
1.0
 70
    11
 71
     3
 72
    89
 73
    85
 74
     0
 42
0.0000000001
 43
0.0000000001
 40
0.0
 40
0.0
 40
0.0
 40
0.0
 40
1.0
 40
1.0
 40
1.0
 40
2.0
 40
2.0
 40
2.0
 40
3.0
 40
3.0
 40
3.0
 40
4.0
 40
4.0
 40
4.0
 40
5.0
 40
5.0
 40
5.0
 40
6.0
 40
6.0
 40
6.0
 40
7.0
 40
7.0
 40
7.0
 40
8.0
 40
8.0
 40
8.0
 40
9.0
 40
9.0
 40
9.0
 40
10.0
 40
10.0
 40
10.0
 40
11.0
 40
11.0
 40
11.0
 40
12.0
 40
12.0
 40
12.0
 40
13.0
 40
13.0
 40
13.0
 40
14.0
 40
14.0
 40
14.0
 40
15.0
 40
15.0
 40
15.0
 40
16.0
 40
16.0
 40
16.0
 40
17.0
 40
17.0
 40
17.0
 40
18.0
 40
18.0
 40
18.0
 40
19.0
 40
19.0
 40
19.0
 40
20.0
 40
20.0
 40
20.0
 40
21.0
 40
21.0
 40
21.0
 40
22.0
 40
22.0
 40
22.0
 40
23.0
 40
23.0
 40
23.0
 40
24.0
 40
24.0
 40
24.0
 40
25.0
 40
25.0
 40
25.0
 40
26.0
 40
26.0
 40
26.0
 40
27.0
 40
27.0
 40
27.0
 40
28.0
 40
28.0
 40
28.0
 40
28.0
 10
535.138395048507
 20
524.4689343306883
 30
0.0
 10
535.138395048507
 20
524.4689343306883
 30
0.0
 10
535.138395048507
 20
516.9689614592994
 30
0.0
 10
535.138395048507
 20
516.9689614592994
 30
0.0
 10
535.138395048507
 20
516.9689614592994
 30
0.0
 10
562.6385252499653
 20
516.9689614592994
 30
0.0
 10
562.6385252499653
 20
516.9689614592994
 30
0.0
 10
562.6385252499653
 20
516.9689614592994
 30
0.0
 10
562.6385252499653
 20
511.9694388911048
 30
0.0
 10
562.6385252499653
 20
511.9694388911048
 30
0.0
 10
562.6385252499653
 20
511.9694388911048
 30
0.0
 10
535.138395048507
 20
511.9694388911048
 30
0.0
 10
535.138395048507
 20
511.9694388911048
 30
0.0
 10
535.138395048507
 20
511.9694388911048
 30
0.0
 10
535.138395048507
 20
491.9692815610354
 30
0.0
 10
535.138395048507
 20
491.9692815610354
 30
0.0
 10
535.138395048507
 20
491.9692815610354
 30
0.0
 10
520.3382648438737
 20
491.9692815610354
 30
0.0
 10
520.3382648438737
 20
491.9692815610354
 30
0.0
 10
516.1962265419578
 20
491.9692815610354
 30
0.0
 10
512.8382919724849
 20
488.6113469915624
 30
0.0
 10
512.8382919724849
 20
484.4693086896465
 30
0.0
 10
512.8382919724849
 20
480.3269258781821
 30
0.0
 10
516.1962265419578
 20
476.9693358182576
 30
0.0
 10
520.3382648438737
 20
476.9693358182576
 30
0.0
 10
520.3382648438737
 20
476.9693358182576
 30
0.0
 10
535.138395048507
 20
476.9693358182576
 30
0.0
 10
535.138395048507
 20
476.9693358182576
 30
0.0
 10
535.138395048507
 20
476.9693358182576
 30
0.0
 10
535.138395048507
 20
476.9693358182576
 30
0.0
 10
535.138395048507
 20
476.9693358182576
 30
0.0
 10
535.138395048507
 20
476.9693358182576
 30
0.0
 10
535.138395048507
 20
460.9689343465633
 30
0.0
 10
535.138395048507
 20
460.9689343465633
 30
0.0
 10
535.138395048507
 20
460.9689343465633
 30
0.0
 10
562.6385252499653
 20
460.9689343465633
 30
0.0
 10
562.6385252499653
 20
460.9689343465633
 30
0.0
 10
562.6385252499653
 20
460.9689343465633
 30
0.0
 10
562.6385252499653
 20
455.9694117783687
 30
0.0
 10
562.6385252499653
 20
455.9694117783687
 30
0.0
 10
562.6385252499653
 20
455.9694117783687
 30
0.0
 10
535.138395048507
 20
455.9694117783687
 30
0.0
 10
535.138395048507
 20
455.9694117783687
 30
0.0
 10
535.138395048507
 20
455.9694117783687
 30
0.0
 10
535.138395048507
 20
448.4694389069798
 30
0.0
 10
535.138395048507
 20
448.4694389069798
 30
0.0
 10
535.138395048507
 20
448.4694389069798
 30
0.0
 10
590.1386554514236
 20
448.4694389069798
 30
0.0
 10
590.1386554514236
 20
448.4694389069798
 30
0.0
 10
590.1386554514236
 20
448.4694389069798
 30
0.0
 10
590.1386554514236
 20
455.9694117783687
 30
0.0
 10
590.1386554514236
 20
455.9694117783687
 30
0.0
 10
590.1386554514236
 20
455.9694117783687
 30
0.0
 10
590.1386554514236
 20
460.9689343465633
 30
0.0
 10
590.1386554514236
 20
460.9689343465633
 30
0.0
 10
590.1386554514236
 20
460.9689343465633
 30
0.0
 10
590.1386554514236
 20
480.9690916766327
 30
0.0
 10
590.1386554514236
 20
480.9690916766327
 30
0.0
 10
590.1386554514236
 20
480.9690916766327
 30
0.0
 10
604.9384411465084
 20
480.9690916766327
 30
0.0
 10
604.9384411465084
 20
480.9690916766327
 30
0.0
 10
609.0804794484243
 20
480.9690916766327
 30
0.0
 10
612.4384140178972
 20
484.3270262461057
 30
0.0
 10
612.4384140178972
 20
488.4690645480215
 30
0.0
 10
612.4384140178972
 20
492.611447359486
 30
0.0
 10
609.0804794484243
 20
495.9690374194105
 30
0.0
 10
604.9384411465084
 20
495.9690374194105
 30
0.0
 10
604.9384411465084
 20
495.9690374194105
 30
0.0
 10
590.1386554514236
 20
495.9690374194105
 30
0.0
 10
590.1386554514236
 20
495.9690374194105
 30
0.0
 10
590.1386554514236
 20
495.9690374194105
 30
0.0
 10
590.1386554514236
 20
495.9690374194105
 30
0.0
 10
590.1386554514236
 20
495.9690374194105
 30
0.0
 10
590.1386554514236
 20
495.9690374194105
 30
0.0
 10
590.1386554514236
 20
511.9694388911048
 30
0.0
 10
590.1386554514236
 20
511.9694388911048
 30
0.0
 10
590.1386554514236
 20
511.9694388911048
 30
0.0
 10
590.1386554514236
 20
516.9689614592994
 30
0.0
 10
590.1386554514236
 20
516.9689614592994
 30
0.0
 10
590.1386554514236
 20
516.9689614592994
 30
0.0
 10
590.1386554514236
 20
524.4689343306883
 30
0.0
 10
590.1386554514236
 20
524.4689343306883
 30
0.0
 10
590.1386554514236
 20
524.4689343306883
 30
0.0
 10
535.138395048507
 20
524.4689343306883
 30
0.0
 10
535.138395048507
 20
524.4689343306883
 30
0.0
  0
POLYLINE
  5
178
330
1F
100
AcDbEntity
  8
Layer 1
 62
     7
420
 16777215
370
     5
100
AcDb2dPolyline
 66
     1
 10
0.0
 20
0.0
 30
0.0
  0
VERTEX
  5
179
330
178
100
AcDbEntity
  8
Layer 1
 62
     7
420
 16777215
370
     5
100
AcDbVertex
100
AcDb2dVertex
 10
530.338688018457
 20
484.4693086896465
 30
0.0
  0
VERTEX
  5
17A
330
178
100
AcDbEntity
  8
Layer 1
 62
     7
420
 16777215
370
     5
100
AcDbVertex
100
AcDb2dVertex
 10
530.338688018457
 20
486.9690699737438
 30
0.0
  0
VERTEX
  5
17B
330
178
100
AcDbEntity
  8
Layer 1
 62
     7
420
 16777215
370
     5
100
AcDbVertex
100
AcDb2dVertex
 10
520.3382648438737
 20
486.9690699737438
 30
0.0
  0
VERTEX
  5
17C
330
178
100
AcDbEntity
  8
Layer 1
 62
     7
420
 16777215
370
     5
100
AcDbVertex
100
AcDb2dVertex
 10
520.3382648438737
 20
481.9692028960007
 30
0.0
  0
VERTEX
  5
17D
330
178
100
AcDbEntity
  8
Layer 1
 62
     7
420
 16777215
370
     5
100
AcDbVertex
100
AcDb2dVertex
 10
530.338688018457
 20
481.9692028960007
 30
0.0
  0
VERTEX
  5
17E
330
178
100
AcDbEntity
  8
Layer 1
 62
     7
420
 16777215
370
     5
100
AcDbVertex
100
AcDb2dVertex
 10
530.338688018457
 20
484.4693086896465
 30
0.0
  0
SEQEND
  5
17F
330
178
100
AcDbEntity
  8
Layer 1
370
     5
  0
POLYLINE
  5
180
330
1F
100
AcDbEntity
  8
Layer 1
 62
     7
420
 16777215
370
     5
100
AcDb2dPolyline
 66
     1
 10
0.0
 20
0.0
 30
0.0
  0
VERTEX
  5
181
330
180
100
AcDbEntity
  8
Layer 1
 62
     7
420
 16777215
370
     5
100
AcDbVertex
100
AcDb2dVertex
 10
594.9383624814736
 20
488.4690645480215
 30
0.0
  0
VERTEX
  5
182
330
180
100
AcDbEntity
  8
Layer 1
 62
     7
420
 16777215
370
     5
100
AcDbVertex
100
AcDb2dVertex
 10
594.9383624814736
 20
490.9691703416674
 30
0.0
  0
VERTEX
  5
183
330
180
100
AcDbEntity
  8
Layer 1
 62
     7
420
 16777215
370
     5
100
AcDbVertex
100
AcDb2dVertex
 10
604.9384411465084
 20
490.9691703416674
 30
0.0
  0
VERTEX
  5
184
330
180
100
AcDbEntity
  8
Layer 1
 62
     7
420
 16777215
370
     5
100
AcDbVertex
100
AcDb2dVertex
 10
604.9384411465084
 20
485.9693032639243
 30
0.0
  0
VERTEX
  5
185
330
180
100
AcDbEntity
  8
Layer 1
 62
     7
420
 16777215
370
     5
100
AcDbVertex
100
AcDb2dVertex
 10
594.9383624814736
 20
485.9693032639243
 30
0.0
  0
VERTEX
  5
186
330
180
100
AcDbEntity
  8
Layer 1
 62
     7
420
 16777215
370
     5
100
AcDbVertex
100
AcDb2dVertex
 10
594.9383624814736
 20
488.4690645480215
 30
0.0
  0
SEQEND
  5
187
330
180
100
AcDbEntity
  8
Layer 1
370
     5
  0
ENDSEC
  0
SECTION
  2
OBJECTS
  0
DICTIONARY
  5
C
330
0
100
AcDbDictionary
281
     1
  3
ACAD_GROUP
350
D
  3
ACAD_LAYOUT
350
1A
  3
ACAD_MLINESTYLE
350
17
  3
ACAD_PLOTSETTINGS
350
19
  3
ACAD_PLOTSTYLENAME
350
E
  3
ACAD_TABLESTYLE
350
188
  3
ACAD_VISUALSTYLE
350
2A
  0
DICTIONARY
  5
D
102
{ACAD_REACTORS
330
C
102
}
330
C
100
AcDbDictionary
281
     1
  0
DICTIONARY
  5
1A
102
{ACAD_REACTORS
330
C
102
}
330
C
100
AcDbDictionary
281
     1
  3
Layout1
350
1E
  3
Layout2
350
26
  3
Model
350
22
  0
DICTIONARY
  5
17
102
{ACAD_REACTORS
330
C
102
}
330
C
100
AcDbDictionary
281
     1
  3
Standard
350
18
  0
DICTIONARY
  5
19
102
{ACAD_REACTORS
330
C
102
}
330
C
100
AcDbDictionary
281
     1
  0
ACDBDICTIONARYWDFLT
  5
E
102
{ACAD_REACTORS
330
C
102
}
330
C
100
AcDbDictionary
281
     1
  3
Normal
350
F
100
AcDbDictionaryWithDefault
340
F
  0
DICTIONARY
  5
188
102
{ACAD_REACTORS
330
C
102
}
330
C
100
AcDbDictionary
281
     1
  0
DICTIONARY
  5
2A
102
{ACAD_REACTORS
330
C
102
}
330
C
100
AcDbDictionary
281
     1
  3
2dWireframe
350
2F
  3
3D Hidden
350
31
  3
3dWireframe
350
30
  3
Basic
350
32
  3
Brighten
350
36
  3
ColorChange
350
3A
  3
Conceptual
350
34
  3
Dim
350
35
  3
Facepattern
350
39
  3
Flat
350
2B
  3
FlatWithEdges
350
2C
  3
Gouraud
350
2D
  3
GouraudWithEdges
350
2E
  3
Linepattern
350
38
  3
Realistic
350
33
  3
Thicken
350
37
  0
LAYOUT
  5
1E
102
{ACAD_REACTORS
330
1A
102
}
330
1A
100
AcDbPlotSettings
  1

  2
none_device
  4

  6

 40
0.0
 41
0.0
 42
0.0
 43
0.0
 44
0.0
 45
0.0
 46
0.0
 47
0.0
 48
0.0
 49
0.0
140
0.0
141
0.0
142
1.0
143
1.0
 70
   688
 72
     0
 73
     0
 74
     5
  7

 75
    16
 76
     0
 77
     2
 78
   300
147
1.0
148
0.0
149
0.0
100
AcDbLayout
  1
Layout1
 70
     1
 71
     1
 10
0.0
 20
0.0
 11
12.0
 21
9.0
 12
0.0
 22
0.0
 32
0.0
 14
1.000000000000000E+20
 24
1.000000000000000E+20
 34
1.000000000000000E+20
 15
-1.000000000000000E+20
 25
-1.000000000000000E+20
 35
-1.000000000000000E+20
146
0.0
 13
0.0
 23
0.0
 33
0.0
 16
1.0
 26
0.0
 36
0.0
 17
0.0
 27
1.0
 37
0.0
 76
     0
330
1B
  0
LAYOUT
  5
26
102
{ACAD_REACTORS
330
1A
102
}
330
1A
100
AcDbPlotSettings
  1

  2
none_device
  4

  6

 40
0.0
 41
0.0
 42
0.0
 43
0.0
 44
0.0
 45
0.0
 46
0.0
 47
0.0
 48
0.0
 49
0.0
140
0.0
141
0.0
142
1.0
143
1.0
 70
   688
 72
     0
 73
     0
 74
     5
  7

 75
    16
 76
     0
 77
     2
 78
   300
147
1.0
148
0.0
149
0.0
100
AcDbLayout
  1
Layout2
 70
     1
 71
     2
 10
0.0
 20
0.0
 11
0.0
 21
0.0
 12
0.0
 22
0.0
 32
0.0
 14
0.0
 24
0.0
 34
0.0
 15
0.0
 25
0.0
 35
0.0
146
0.0
 13
0.0
 23
0.0
 33
0.0
 16
1.0
 26
0.0
 36
0.0
 17
0.0
 27
1.0
 37
0.0
 76
     0
330
23
  0
LAYOUT
  5
22
102
{ACAD_REACTORS
330
1A
102
}
330
1A
100
AcDbPlotSettings
  1

  2
none_device
  4

  6

 40
0.0
 41
0.0
 42
0.0
 43
0.0
 44
0.0
 45
0.0
 46
0.0
 47
0.0
 48
0.0
 49
0.0
140
0.0
141
0.0
142
1.0
143
1.0
 70
  1712
 72
     0
 73
     0
 74
     0
  7

 75
     0
 76
     0
 77
     2
 78
   300
147
1.0
148
0.0
149
0.0
100
AcDbLayout
  1
Model
 70
     1
 71
     0
 10
0.0
 20
0.0
 11
12.0
 21
9.0
 12
0.0
 22
0.0
 32
0.0
 14
1.000000000000000E+20
 24
1.000000000000000E+20
 34
1.000000000000000E+20
 15
-1.000000000000000E+20
 25
-1.000000000000000E+20
 35
-1.000000000000000E+20
146
0.0
 13
0.0
 23
0.0
 33
0.0
 16
1.0
 26
0.0
 36
0.0
 17
0.0
 27
1.0
 37
0.0
 76
     0
330
1F
331
29
  0
MLINESTYLE
  5
18
102
{ACAD_REACTORS
330
17
102
}
330
17
100
AcDbMlineStyle
  2
Standard
 70
     0
  3

 62
   256
 51
90.0
 52
90.0
 71
     2
 49
0.5
 62
   256
  6
BYLAYER
 49
-0.5
 62
   256
  6
BYLAYER
  0
ACDBPLACEHOLDER
  5
F
102
{ACAD_REACTORS
330
E
102
}
330
E
  0
VISUALSTYLE
  5
2F
102
{ACAD_REACTORS
330
2A
102
}
330
2A
100
AcDbVisualStyle
  2
2dWireframe
 70
     4
 71
     0
 72
     2
 73
     0
 90
        0
 40
-0.6
 41
-30.0
 62
     5
 63
     7
421
 16777215
 74
     1
 91
        4
 64
     7
 65
   257
 75
     1
175
     1
 42
1.0
 92
        0
 66
   257
 43
1.0
 76
     1
 77
     6
 78
     2
 67
     7
 79
     5
170
     0
171
     0
290
     0
174
     0
 93
        1
 44
0.0
173
     0
291
     0
 45
0.0
1001
ACAD
1000
AcDbSavedByObjectVersion
1070
     0
  0
VISUALSTYLE
  5
31
102
{ACAD_REACTORS
330
2A
102
}
330
2A
100
AcDbVisualStyle
  2
3D Hidden
 70
     6
 71
     1
 72
     2
 73
     2
 90
        0
 40
-0.6
 41
-30.0
 62
     5
 63
     7
421
 16777215
 74
     2
 91
        2
 64
     7
 65
   257
 75
     2
175
     1
 42
40.0
 92
        0
 66
   257
 43
1.0
 76
     1
 77
     6
 78
     2
 67
     7
 79
     3
170
     0
171
     0
290
     0
174
     0
 93
        1
 44
0.0
173
     0
291
     0
 45
0.0
1001
ACAD
1000
AcDbSavedByObjectVersion
1070
     0
  0
VISUALSTYLE
  5
30
102
{ACAD_REACTORS
330
2A
102
}
330
2A
100
AcDbVisualStyle
  2
3dWireframe
 70
     5
 71
     0
 72
     2
 73
     0
 90
        0
 40
-0.6
 41
-30.0
 62
     5
 63
     7
421
 16777215
 74
     1
 91
        4
 64
     7
 65
   257
 75
     1
175
     1
 42
1.0
 92
        0
 66
   257
 43
1.0
 76
     1
 77
     6
 78
     2
 67
     7
 79
     5
170
     0
171
     0
290
     0
174
     0
 93
        1
 44
0.0
173
     0
291
     0
 45
0.0
1001
ACAD
1000
AcDbSavedByObjectVersion
1070
     0
  0
VISUALSTYLE
  5
32
102
{ACAD_REACTORS
330
2A
102
}
330
2A
100
AcDbVisualStyle
  2
Basic
 70
     7
 71
     1
 72
     0
 73
     1
 90
        0
 40
-0.6
 41
-30.0
 62
     5
 63
     7
421
 16777215
 74
     0
 91
        4
 64
     7
 65
   257
 75
     1
175
     1
 42
1.0
 92
        8
 66
     7
 43
1.0
 76
     1
 77
     6
 78
     2
 67
     7
 79
     5
170
     0
171
     0
290
     0
174
     0
 93
        1
 44
0.0
173
     0
291
     1
 45
0.0
1001
ACAD
1000
AcDbSavedByObjectVersion
1070
     0
  0
VISUALSTYLE
  5
36
102
{ACAD_REACTORS
330
2A
102
}
330
2A
100
AcDbVisualStyle
  2
Brighten
 70
    12
 71
     2
 72
     2
 73
     0
 90
        0
 40
-0.6
 41
-30.0
 62
     5
 63
     7
421
 16777215
 74
     1
 91
        4
 64
     7
 65
   257
 75
     1
175
     1
 42
1.0
 92
        8
 66
     7
 43
1.0
 76
     1
 77
     6
 78
     2
 67
     7
 79
     5
170
     0
171
     0
290
     0
174
     0
 93
        1
 44
50.0
173
     0
291
     1
 45
0.0
1001
ACAD
1000
AcDbSavedByObjectVersion
1070
     0
  0
VISUALSTYLE
  5
3A
102
{ACAD_REACTORS
330
2A
102
}
330
2A
100
AcDbVisualStyle
  2
ColorChange
 70
    16
 71
     2
 72
     2
 73
     3
 90
        0
 40
-0.6
 41
-30.0
 62
     5
 63
     8
421
  8421504
 74
     1
 91
        4
 64
     7
 65
   257
 75
     1
175
     1
 42
1.0
 92
        8
 66
     8
424
  8421504
 43
1.0
 76
     1
 77
     6
 78
     2
 67
     7
 79
     5
170
     0
171
     0
290
     0
174
     0
 93
        1
 44
0.0
173
     0
291
     1
 45
0.0
1001
ACAD
1000
AcDbSavedByObjectVersion
1070
     0
  0
VISUALSTYLE
  5
34
102
{ACAD_REACTORS
330
2A
102
}
330
2A
100
AcDbVisualStyle
  2
Conceptual
 70
     9
 71
     3
 72
     2
 73
     0
 90
        0
 40
-0.6
 41
-30.0
 62
     5
 63
     7
421
 16777215
 74
     2
 91
        2
 64
     7
 65
   257
 75
     1
175
     1
 42
40.0
 92
        8
 66
     7
 43
1.0
 76
     1
 77
     6
 78
     2
 67
     7
 79
     3
170
     0
171
     0
290
     0
174
     0
 93
        1
 44
0.0
173
     0
291
     0
 45
0.0
1001
ACAD
1000
AcDbSavedByObjectVersion
1070
     0
  0
VISUALSTYLE
  5
35
102
{ACAD_REACTORS
330
2A
102
}
330
2A
100
AcDbVisualStyle
  2
Dim
 70
    11
 71
     2
 72
     2
 73
     0
 90
        0
 40
-0.6
 41
-30.0
 62
     5
 63
     7
421
 16777215
 74
     1
 91
        4
 64
     7
 65
   257
 75
     1
175
     1
 42
1.0
 92
        8
 66
     7
 43
1.0
 76
     1
 77
     6
 78
     2
 67
     7
 79
     5
170
     0
171
     0
290
     0
174
     0
 93
        1
 44
-50.0
173
     0
291
     1
 45
0.0
1001
ACAD
1000
AcDbSavedByObjectVersion
1070
     0
  0
VISUALSTYLE
  5
39
102
{ACAD_REACTORS
330
2A
102
}
330
2A
100
AcDbVisualStyle
  2
Facepattern
 70
    15
 71
     2
 72
     2
 73
     0
 90
        0
 40
-0.6
 41
-30.0
 62
     5
 63
     7
421
 16777215
 74
     1
 91
        4
 64
     7
 65
   257
 75
     1
175
     1
 42
1.0
 92
        8
 66
     7
 43
1.0
 76
     1
 77
     6
 78
     2
 67
     7
 79
     5
170
     0
171
     0
290
     0
174
     0
 93
        1
 44
0.0
173
     0
291
     1
 45
0.0
1001
ACAD
1000
AcDbSavedByObjectVersion
1070
     0
  0
VISUALSTYLE
  5
2B
102
{ACAD_REACTORS
330
2A
102
}
330
2A
100
AcDbVisualStyle
  2
Flat
 70
     0
 71
     2
 72
     1
 73
     1
 90
        2
 40
-0.6
 41
30.0
 62
     5
 63
     7
421
 16777215
 74
     0
 91
        4
 64
     7
 65
   257
 75
     1
175
     1
 42
1.0
 92
        8
 66
     7
 43
1.0
 76
     1
 77
     6
 78
     2
 67
     7
 79
     5
170
     0
171
     0
290
     0
174
     0
 93
       13
 44
0.0
173
     0
291
     1
 45
0.0
1001
ACAD
1000
AcDbSavedByObjectVersion
1070
     0
  0
VISUALSTYLE
  5
2C
102
{ACAD_REACTORS
330
2A
102
}
330
2A
100
AcDbVisualStyle
  2
FlatWithEdges
 70
     1
 71
     2
 72
     1
 73
     1
 90
        2
 40
-0.6
 41
30.0
 62
     5
 63
     7
421
 16777215
 74
     1
 91
        4
 64
     7
 65
   257
 75
     1
175
     1
 42
1.0
 92
        0
 66
   257
 43
1.0
 76
     1
 77
     6
 78
     2
 67
     7
 79
     5
170
     0
171
     0
290
     0
174
     0
 93
       13
 44
0.0
173
     0
291
     1
 45
0.0
1001
ACAD
1000
AcDbSavedByObjectVersion
1070
     0
  0
VISUALSTYLE
  5
2D
102
{ACAD_REACTORS
330
2A
102
}
330
2A
100
AcDbVisualStyle
  2
Gouraud
 70
     2
 71
     2
 72
     2
 73
     1
 90
        2
 40
-0.6
 41
30.0
 62
     5
 63
     7
421
 16777215
 74
     0
 91
        4
 64
     7
 65
   257
 75
     1
175
     1
 42
1.0
 92
        0
 66
     7
 43
1.0
 76
     1
 77
     6
 78
     2
 67
     7
 79
     5
170
     0
171
     0
290
     0
174
     0
 93
       13
 44
0.0
173
     0
291
     1
 45
0.0
1001
ACAD
1000
AcDbSavedByObjectVersion
1070
     0
  0
VISUALSTYLE
  5
2E
102
{ACAD_REACTORS
330
2A
102
}
330
2A
100
AcDbVisualStyle
  2
GouraudWithEdges
 70
     3
 71
     2
 72
     2
 73
     1
 90
        2
 40
-0.6
 41
30.0
 62
     5
 63
     7
421
 16777215
 74
     1
 91
        4
 64
     7
 65
   257
 75
     1
175
     1
 42
1.0
 92
        0
 66
   257
 43
1.0
 76
     1
 77
     6
 78
     2
 67
     7
 79
     5
170
     0
171
     0
290
     0
174
     0
 93
       13
 44
0.0
173
     0
291
     1
 45
0.0
1001
ACAD
1000
AcDbSavedByObjectVersion
1070
     0
  0
VISUALSTYLE
  5
38
102
{ACAD_REACTORS
330
2A
102
}
330
2A
100
AcDbVisualStyle
  2
Linepattern
 70
    14
 71
     2
 72
     2
 73
     0
 90
        0
 40
-0.6
 41
-30.0
 62
     5
 63
     7
421
 16777215
 74
     1
 91
        4
 64
     7
 65
   257
 75
     7
175
     7
 42
1.0
 92
        8
 66
     7
 43
1.0
 76
     1
 77
     6
 78
     2
 67
     7
 79
     5
170
     0
171
     0
290
     0
174
     0
 93
        1
 44
0.0
173
     0
291
     1
 45
0.0
1001
ACAD
1000
AcDbSavedByObjectVersion
1070
     0
  0
VISUALSTYLE
  5
33
102
{ACAD_REACTORS
330
2A
102
}
330
2A
100
AcDbVisualStyle
  2
Realistic
 70
     8
 71
     2
 72
     2
 73
     0
 90
        0
 40
-0.6
 41
-30.0
 62
     5
 63
     7
421
 16777215
 74
     1
 91
        0
 64
     7
 65
   257
 75
     1
175
     1
 42
1.0
 92
        8
 66
     8
424
  7895160
 43
1.0
 76
     1
 77
     6
 78
     2
 67
     7
 79
     5
170
     0
171
     0
290
     0
174
     0
 93
       13
 44
0.0
173
     0
291
     0
 45
0.0
1001
ACAD
1000
AcDbSavedByObjectVersion
1070
     0
  0
VISUALSTYLE
  5
37
102
{ACAD_REACTORS
330
2A
102
}
330
2A
100
AcDbVisualStyle
  2
Thicken
 70
    13
 71
     2
 72
     2
 73
     0
 90
        0
 40
-0.6
 41
-30.0
 62
     5
 63
     7
421
 16777215
 74
     1
 91
        4
 64
     7
 65
   257
 75
     1
175
     1
 42
1.0
 92
       12
 66
     7
 43
1.0
 76
     1
 77
     6
 78
     2
 67
     7
 79
     5
170
     0
171
     0
290
     0
174
     0
 93
        1
 44
0.0
173
     0
291
     1
 45
0.0
1001
ACAD
1000
AcDbSavedByObjectVersion
1070
     0
  0
ENDSEC
  0
EOF
