<?xml version="1.0" encoding="utf-8"?>
<!-- Generator: Adobe Illustrator 15.1.0, SVG Export Plug-In . SVG Version: 6.00 Build 0)  -->
<!DOCTYPE svg PUBLIC "-//W3C//DTD SVG 1.1//EN" "http://www.w3.org/Graphics/SVG/1.1/DTD/svg11.dtd">
<svg version="1.1" id="Layer_1" xmlns="http://www.w3.org/2000/svg" xmlns:xlink="http://www.w3.org/1999/xlink" x="0px" y="0px"
	 width="2522.835px" height="822.047px" viewBox="-294.236 -205.512 2522.835 822.047"
	 enable-background="new -294.236 -205.512 2522.835 822.047" xml:space="preserve">
<path fill="none" stroke="#000000" stroke-width="0.3" d="M-200.826,406.334v-20.41c0.289-1.555,1.506-2.771,3.061-3.061
	l48.473-4.72v-4.082c0.291-1.556,1.506-2.772,3.063-3.062h10.203c1.557,0.289,2.773,1.506,3.063,3.062v31.89L-200.826,406.334"/>
<circle fill="none" stroke="#000000" stroke-width="0.3" cx="-192.408" cy="393.578" r="3.316"/>
<path fill="none" stroke="#000000" stroke-width="0.3" d="M-124.291,406.334v-20.41c0.289-1.555,1.506-2.771,3.061-3.061
	l48.473-4.72v-4.082c0.291-1.556,1.508-2.772,3.063-3.062h10.205c1.555,0.289,2.771,1.506,3.061,3.062v31.89L-124.291,406.334"/>
<circle fill="none" stroke="#000000" stroke-width="0.3" cx="-115.871" cy="393.578" r="3.316"/>
<path fill="none" stroke="#000000" stroke-width="0.3" d="M-47.755,406.334v-20.41c0.289-1.555,1.506-2.771,3.063-3.061l48.473-4.72
	v-4.082c0.289-1.556,1.506-2.772,3.061-3.062h10.205c1.555,0.289,2.771,1.506,3.061,3.062v31.89L-47.755,406.334"/>
<circle fill="none" stroke="#000000" stroke-width="0.3" cx="-39.335" cy="393.578" r="3.316"/>
<path fill="none" stroke="#000000" stroke-width="0.3" d="M28.78,406.334v-20.41c0.291-1.555,1.508-2.771,3.063-3.061l48.473-4.72
	v-4.082c0.289-1.556,1.506-2.772,3.061-3.062h10.205c1.555,0.289,2.771,1.506,3.061,3.062v31.89L28.78,406.334"/>
<circle fill="none" stroke="#000000" stroke-width="0.3" cx="37.2" cy="393.578" r="3.316"/>
<path fill="none" stroke="#000000" stroke-width="0.3" d="M105.315,406.334v-20.41c0.291-1.555,1.508-2.771,3.063-3.061l48.473-4.72
	v-4.082c0.289-1.556,1.506-2.772,3.061-3.062h10.205c1.555,0.289,2.771,1.506,3.061,3.062v31.89L105.315,406.334"/>
<circle fill="none" stroke="#000000" stroke-width="0.3" cx="113.735" cy="393.578" r="3.316"/>
<path fill="none" stroke="#000000" stroke-width="0.3" d="M181.853,406.334v-20.41c0.289-1.555,1.506-2.771,3.061-3.061l48.473-4.72
	v-4.082c0.289-1.556,1.506-2.772,3.061-3.062h10.205c1.555,0.289,2.771,1.506,3.063,3.062v31.89L181.853,406.334"/>
<circle fill="none" stroke="#000000" stroke-width="0.3" cx="190.271" cy="393.578" r="3.316"/>
<path fill="none" stroke="#000000" stroke-width="0.3" d="M258.388,406.334v-20.41c0.289-1.555,1.506-2.771,3.061-3.061l48.473-4.72
	v-4.082c0.289-1.556,1.506-2.772,3.063-3.062h10.203c1.557,0.289,2.773,1.506,3.063,3.062v31.89L258.388,406.334"/>
<circle fill="none" stroke="#000000" stroke-width="0.3" cx="266.806" cy="393.578" r="3.316"/>
<path fill="none" stroke="#000000" stroke-width="0.3" d="M-200.826,457.357v-20.409c0.289-1.556,1.506-2.771,3.061-3.062
	l48.473-4.72v-4.082c0.291-1.555,1.506-2.771,3.063-3.062h10.203c1.557,0.29,2.773,1.507,3.063,3.062v31.89L-200.826,457.357"/>
<circle fill="none" stroke="#000000" stroke-width="0.3" cx="-192.408" cy="444.602" r="3.316"/>
<path fill="none" stroke="#000000" stroke-width="0.3" d="M-124.291,457.357v-20.409c0.289-1.556,1.506-2.771,3.061-3.062
	l48.473-4.72v-4.082c0.291-1.555,1.508-2.771,3.063-3.062h10.205c1.555,0.29,2.771,1.507,3.061,3.062v31.89L-124.291,457.357"/>
<circle fill="none" stroke="#000000" stroke-width="0.3" cx="-115.871" cy="444.602" r="3.316"/>
<path fill="none" stroke="#000000" stroke-width="0.3" d="M-47.755,457.357v-20.409c0.289-1.556,1.506-2.771,3.063-3.062
	l48.473-4.72v-4.082c0.289-1.555,1.506-2.771,3.061-3.062h10.205c1.555,0.29,2.771,1.507,3.061,3.062v31.89L-47.755,457.357"/>
<circle fill="none" stroke="#000000" stroke-width="0.3" cx="-39.335" cy="444.602" r="3.316"/>
<rect x="-243.201" y="-161.452" fill="none" stroke="#000000" stroke-width="0.3" width="205.512" height="205.512"/>
<path fill="none" stroke="#000000" stroke-width="0.3" d="M-224.067-58.696v19.134h12.756V-77.83h-12.756V-58.696 M-140.445,24.926
	h19.134V12.17h-38.268v12.756H-140.445 M-56.823-58.696V-77.83h-12.756v38.268h12.756V-58.696 M-140.445-142.318h-19.134v12.756
	h38.268v-12.756H-140.445"/>
<rect x="-9.343" y="-161.452" fill="none" stroke="#000000" stroke-width="0.3" width="205.512" height="205.512"/>
<path fill="none" stroke="#000000" stroke-width="0.3" d="M9.792-58.696v19.134h12.756V-77.83H9.792V-58.696 M93.414,24.926h19.134
	V12.17H74.279v12.756H93.414 M177.036-58.696V-77.83H164.28v38.268h12.756V-58.696 M93.414-142.318H74.279v12.756h38.268v-12.756
	H93.414"/>
<path fill="none" stroke="#000000" stroke-width="0.3" d="M265.76-161.452v19.134h70.865v12.756H265.76v51.732h-36.284
	c-10.567,0-19.134,8.566-19.134,19.134s8.566,19.134,19.134,19.134h36.284v0.709V6.5h70.865v12.756H265.76v19.135h141.731V19.256
	V6.5v-51.732h36.284c10.567,0,19.134-8.566,19.134-19.133c0-10.568-8.566-19.135-19.134-19.135h-36.284v-0.708v-45.354v-19.134
	v-12.756H265.76"/>
<path fill="none" stroke="#000000" stroke-width="0.3" d="M253.571-58.696v-6.378h-25.512v12.756h25.512V-58.696 M419.681-64.365
	v-6.379h25.512v12.756h-25.512V-64.365"/>
<path fill="none" stroke="#000000" stroke-width="0.3" d="M-197.878,100.852v19.134v12.756v51.732h-36.283
	c-10.566,0-19.133,8.566-19.133,19.134s8.566,19.134,19.133,19.134h36.283v0.709v45.354v12.756v19.135h141.732V281.56h-70.865
	v-12.756h70.865v-51.732h36.283c10.568,0,19.135-8.566,19.135-19.133c0-10.568-8.566-19.135-19.135-19.135h-36.283v-0.708v-45.354
	h-70.865v-12.756h70.865v-19.134H-197.878"/>
<path fill="none" stroke="#000000" stroke-width="0.3" d="M-210.067,203.607v-6.378h-25.512v12.756h25.512V203.607 M-43.956,197.938
	v-6.379h25.512v12.756h-25.512V197.938"/>
<path fill="none" stroke="#000000" stroke-width="0.3" d="M83.036,100.852v19.134v12.756v51.732H46.753
	c-10.568,0-19.135,8.566-19.135,19.134s8.566,19.134,19.135,19.134h36.283v0.709v45.354v12.756v19.135h141.733V281.56h-70.868
	v-12.756h70.868v-51.732h36.283c10.566,0,19.133-8.566,19.133-19.133c0-10.568-8.566-19.135-19.133-19.135h-36.283v-0.708v-45.354
	h-70.868v-12.756h70.868v-19.134H83.036"/>
<path fill="none" stroke="#000000" stroke-width="0.3" d="M70.847,203.607v-6.378H45.335v12.756h25.512V203.607 M236.958,197.938
	v-6.379h25.512v12.756h-25.512V197.938"/>
<path fill="none" stroke="#000000" stroke-width="0.3" d="M363.951,100.852v19.134h70.865v12.756h-70.865v51.732h-36.285
	c-10.566,0-19.133,8.566-19.133,19.134s8.566,19.134,19.133,19.134h36.285v0.709v45.354h70.865v12.756h-70.865v19.135h141.73V281.56
	v-12.756v-51.732h36.285c10.566,0,19.133-8.566,19.133-19.133c0-10.568-8.566-19.135-19.133-19.135h-36.285v-0.708v-45.354v-12.756
	v-19.134H363.949"/>
<path fill="none" stroke="#000000" stroke-width="0.3" d="M351.761,203.607v-6.378H326.25v12.756h25.512V203.607 M517.871,197.938
	v-6.379h25.512v12.756h-25.512V197.938"/>
<path fill="none" stroke="#000000" stroke-width="0.3" d="M525.046,483.784v-22.678c0.322-1.729,1.674-3.08,3.402-3.402
	l53.858-5.244v-4.535c0.321-1.729,1.673-3.08,3.401-3.4h11.339c1.728,0.32,3.079,1.672,3.401,3.4v35.434L525.046,483.784"/>
<circle fill="none" stroke="#000000" stroke-width="0.3" cx="534.401" cy="469.61" r="3.686"/>
<path fill="none" stroke="#000000" stroke-width="0.3" d="M610.086,483.784v-22.678c0.321-1.729,1.674-3.08,3.401-3.402
	l53.858-5.244v-4.535c0.321-1.729,1.674-3.08,3.401-3.4h11.339c1.728,0.32,3.08,1.672,3.401,3.4v35.434L610.086,483.784"/>
<circle fill="none" stroke="#000000" stroke-width="0.3" cx="619.441" cy="469.61" r="3.686"/>
<path fill="none" stroke="#000000" stroke-width="0.3" d="M695.125,483.784v-22.678c0.322-1.729,1.674-3.08,3.401-3.402
	l53.858-5.244v-4.535c0.322-1.729,1.674-3.08,3.401-3.4h11.339c1.729,0.32,3.08,1.672,3.401,3.4v35.434L695.125,483.784"/>
<circle fill="none" stroke="#000000" stroke-width="0.3" cx="704.48" cy="469.61" r="3.686"/>
<path fill="none" stroke="#000000" stroke-width="0.3" d="M780.166,483.784v-22.678c0.321-1.729,1.673-3.08,3.401-3.402
	l53.858-5.244v-4.535c0.321-1.729,1.674-3.08,3.401-3.4h11.339c1.728,0.32,3.079,1.672,3.401,3.4v35.434L780.166,483.784"/>
<circle fill="none" stroke="#000000" stroke-width="0.3" cx="789.519" cy="469.61" r="3.686"/>
<path fill="none" stroke="#000000" stroke-width="0.3" d="M865.205,483.784v-22.678c0.321-1.729,1.674-3.08,3.401-3.402
	l53.858-5.244v-4.535c0.322-1.729,1.674-3.08,3.401-3.4h11.339c1.728,0.32,3.08,1.672,3.401,3.4v35.434L865.205,483.784"/>
<circle fill="none" stroke="#000000" stroke-width="0.3" cx="874.559" cy="469.61" r="3.686"/>
<path fill="none" stroke="#000000" stroke-width="0.3" d="M950.244,483.784v-22.678c0.322-1.729,1.674-3.08,3.402-3.402
	l53.857-5.244v-4.535c0.322-1.729,1.674-3.08,3.402-3.4h11.338c1.729,0.32,3.08,1.672,3.402,3.4v35.434L950.244,483.784"/>
<circle fill="none" stroke="#000000" stroke-width="0.3" cx="959.598" cy="469.61" r="3.686"/>
<path fill="none" stroke="#000000" stroke-width="0.3" d="M1035.283,483.784v-22.678c0.322-1.729,1.674-3.08,3.402-3.402
	l53.857-5.244v-4.535c0.322-1.729,1.674-3.08,3.402-3.4h11.338c1.729,0.32,3.08,1.672,3.402,3.4v35.434L1035.283,483.784"/>
<circle fill="none" stroke="#000000" stroke-width="0.3" cx="1044.637" cy="469.61" r="3.686"/>
<path fill="none" stroke="#000000" stroke-width="0.3" d="M525.046,540.476V517.8c0.322-1.729,1.674-3.08,3.402-3.402l53.858-5.244
	v-4.535c0.321-1.729,1.673-3.08,3.401-3.402h11.339c1.728,0.322,3.079,1.674,3.401,3.402v35.434L525.046,540.476"/>
<circle fill="none" stroke="#000000" stroke-width="0.3" cx="534.401" cy="526.303" r="3.685"/>
<path fill="none" stroke="#000000" stroke-width="0.3" d="M610.086,540.476V517.8c0.321-1.729,1.674-3.08,3.401-3.402l53.858-5.244
	v-4.535c0.321-1.729,1.674-3.08,3.401-3.402h11.339c1.728,0.322,3.08,1.674,3.401,3.402v35.434L610.086,540.476"/>
<circle fill="none" stroke="#000000" stroke-width="0.3" cx="619.441" cy="526.303" r="3.685"/>
<path fill="none" stroke="#000000" stroke-width="0.3" d="M695.125,540.476V517.8c0.322-1.729,1.674-3.08,3.401-3.402l53.858-5.244
	v-4.535c0.322-1.729,1.674-3.08,3.401-3.402h11.339c1.729,0.322,3.08,1.674,3.401,3.402v35.434L695.125,540.476"/>
<circle fill="none" stroke="#000000" stroke-width="0.3" cx="704.48" cy="526.303" r="3.685"/>
<rect x="541.488" y="-166.412" fill="none" stroke="#000000" stroke-width="0.3" width="226.771" height="226.771"/>
<path fill="none" stroke="#000000" stroke-width="0.3" d="M562.748-53.027v21.26h14.173v-42.52h-14.173V-53.027 M654.874,39.1h21.26
	V24.926h-42.52V39.1H654.874 M747-53.027v-21.26h-14.173v42.52H747V-53.027 M654.874-145.152h-21.26v14.172h42.52v-14.172H654.874"
	/>
<rect x="796.606" y="-166.412" fill="none" stroke="#000000" stroke-width="0.3" width="226.771" height="226.771"/>
<path fill="none" stroke="#000000" stroke-width="0.3" d="M817.866-53.027v21.26h14.173v-42.52h-14.173V-53.027 M909.992,39.1h21.26
	V24.926h-42.52V39.1H909.992 M1002.118-53.027v-21.26h-14.173v42.52h14.173V-53.027 M909.992-145.152h-21.26v14.172h42.52v-14.172
	H909.992"/>
<path fill="none" stroke="#000000" stroke-width="0.3" d="M1100.763-166.412v21.26h77.953v14.172h-77.953v56.693h-41.953
	c-11.741,0-21.26,9.519-21.26,21.26c0,11.742,9.519,21.26,21.26,21.26h41.953l0,0v45.355h77.953V27.76h-77.953v21.26h155.905V27.76
	V13.588v-56.693h41.953c11.741,0,21.26-9.519,21.26-21.26c0-11.742-9.519-21.26-21.26-21.26h-41.953l0,0v-45.355v-21.26v-14.172
	H1100.763"/>
<path fill="none" stroke="#000000" stroke-width="0.3" d="M1087.157-53.027v-7.086h-28.347v14.173h28.347V-53.027 M1270.275-64.365
	v-7.087h28.347v14.173h-28.347V-64.365"/>
<path fill="none" stroke="#000000" stroke-width="0.3" d="M586.42,149.084v21.26v14.172v56.693h-41.952
	c-11.742,0-21.26,9.519-21.26,21.26c0,11.742,9.518,21.26,21.26,21.26h41.952l0,0v45.355v14.172v21.26h155.906v-21.26h-77.953
	v-14.172h77.953v-56.693h41.952c11.742,0,21.26-9.519,21.26-21.26c0-11.742-9.518-21.26-21.26-21.26h-41.952l0,0v-45.355h-77.953
	v-14.172h77.953v-21.26H586.42"/>
<path fill="none" stroke="#000000" stroke-width="0.3" d="M572.815,262.469v-7.086h-28.347v14.173h28.347V262.469 M755.933,251.131
	v-7.087h28.346v14.173h-28.346V251.131"/>
<path fill="none" stroke="#000000" stroke-width="0.3" d="M824.953,83.844v21.26v14.172v56.693H783
	c-11.741,0-21.26,9.519-21.26,21.26c0,11.742,9.519,21.259,21.26,21.259h41.953l0,0v45.355v14.172v21.26h155.905v-21.26h-77.953
	v-14.172h77.953V207.15h41.953c11.741,0,21.26-9.518,21.26-21.259c0-11.742-9.519-21.26-21.26-21.26h-41.953l0,0v-45.355h-77.953
	v-14.172h77.953v-21.26H824.953"/>
<path fill="none" stroke="#000000" stroke-width="0.3" d="M811.346,197.229v-7.086H783v14.173h28.347V197.229 M994.464,185.891
	v-7.087h28.347v14.173h-28.347V185.891"/>
<path fill="none" stroke="#000000" stroke-width="0.3" d="M1066.609,136.328v21.26h77.953v14.172h-77.953v56.693h-41.953
	c-11.741,0-21.26,9.519-21.26,21.26c0,11.742,9.519,21.26,21.26,21.26h41.953l0,0v45.355h77.953V330.5h-77.953v21.26h155.906V330.5
	v-14.172v-56.693h41.952c11.741,0,21.26-9.519,21.26-21.26c0-11.742-9.519-21.26-21.26-21.26h-41.952l0,0V171.76v-14.172v-21.26
	H1066.609"/>
<path fill="none" stroke="#000000" stroke-width="0.3" d="M1053.003,249.713v-7.086h-28.348V256.8h28.348V249.713 M1236.121,238.375
	v-7.087h28.347v14.173h-28.347V238.375"/>
</svg>
