  0
SECTION
  2
HEADER
  9
$ACADVER
  1
AC1027
  9
$ACADMAINTVER
 70
   125
  9
$DWGCODEPAGE
  3
ANSI_1252
  9
$LASTSAVEDBY
  1
Jasper
  9
$REQUIREDVERSIONS
160
                 0
  9
$INSBASE
 10
0.0
 20
0.0
 30
0.0
  9
$EXTMIN
 10
22.86251491398923
 20
364.1178045435416
 30
0.0
  9
$EXTMAX
 10
187.862607103642
 20
486.6712631691083
 30
0.0
  9
$LIMMIN
 10
0.0
 20
0.0
  9
$LIMMAX
 10
12.0
 20
9.0
  9
$ORTHOMODE
 70
     0
  9
$REGENMODE
 70
     1
  9
$FILLMODE
 70
     1
  9
$QTEXTMODE
 70
     0
  9
$MIRRTEXT
 70
     1
  9
$LTSCALE
 40
1.0
  9
$ATTMODE
 70
     1
  9
$TEXTSIZE
 40
0.2
  9
$TRACEWID
 40
0.05
  9
$TEXTSTYLE
  7
Standard
  9
$CLAYER
  8
0
  9
$CELTYPE
  6
ByLayer
  9
$CECOLOR
 62
   256
  9
$CELTSCALE
 40
1.0
  9
$DISPSILH
 70
     0
  9
$DIMSCALE
 40
1.0
  9
$DIMASZ
 40
0.18
  9
$DIMEXO
 40
0.0625
  9
$DIMDLI
 40
0.38
  9
$DIMRND
 40
0.0
  9
$DIMDLE
 40
0.0
  9
$DIMEXE
 40
0.18
  9
$DIMTP
 40
0.0
  9
$DIMTM
 40
0.0
  9
$DIMTXT
 40
0.18
  9
$DIMCEN
 40
0.09
  9
$DIMTSZ
 40
0.0
  9
$DIMTOL
 70
     0
  9
$DIMLIM
 70
     0
  9
$DIMTIH
 70
     1
  9
$DIMTOH
 70
     1
  9
$DIMSE1
 70
     0
  9
$DIMSE2
 70
     0
  9
$DIMTAD
 70
     0
  9
$DIMZIN
 70
     0
  9
$DIMBLK
  1

  9
$DIMASO
 70
     1
  9
$DIMSHO
 70
     1
  9
$DIMPOST
  1

  9
$DIMAPOST
  1

  9
$DIMALT
 70
     0
  9
$DIMALTD
 70
     2
  9
$DIMALTF
 40
25.4
  9
$DIMLFAC
 40
1.0
  9
$DIMTOFL
 70
     0
  9
$DIMTVP
 40
0.0
  9
$DIMTIX
 70
     0
  9
$DIMSOXD
 70
     0
  9
$DIMSAH
 70
     0
  9
$DIMBLK1
  1

  9
$DIMBLK2
  1

  9
$DIMSTYLE
  2
Standard
  9
$DIMCLRD
 70
     0
  9
$DIMCLRE
 70
     0
  9
$DIMCLRT
 70
     0
  9
$DIMTFAC
 40
1.0
  9
$DIMGAP
 40
0.09
  9
$DIMJUST
 70
     0
  9
$DIMSD1
 70
     0
  9
$DIMSD2
 70
     0
  9
$DIMTOLJ
 70
     1
  9
$DIMTZIN
 70
     0
  9
$DIMALTZ
 70
     0
  9
$DIMALTTZ
 70
     0
  9
$DIMUPT
 70
     0
  9
$DIMDEC
 70
     4
  9
$DIMTDEC
 70
     4
  9
$DIMALTU
 70
     2
  9
$DIMALTTD
 70
     2
  9
$DIMTXSTY
  7
Standard
  9
$DIMAUNIT
 70
     0
  9
$DIMADEC
 70
     0
  9
$DIMALTRND
 40
0.0
  9
$DIMAZIN
 70
     0
  9
$DIMDSEP
 70
    46
  9
$DIMATFIT
 70
     3
  9
$DIMFRAC
 70
     0
  9
$DIMLDRBLK
  1

  9
$DIMLUNIT
 70
     2
  9
$DIMLWD
 70
    -2
  9
$DIMLWE
 70
    -2
  9
$DIMTMOVE
 70
     0
  9
$DIMFXL
 40
1.0
  9
$DIMFXLON
 70
     0
  9
$DIMJOGANG
 40
0.7853981633974483
  9
$DIMTFILL
 70
     0
  9
$DIMTFILLCLR
 70
     0
  9
$DIMARCSYM
 70
     0
  9
$DIMLTYPE
  6

  9
$DIMLTEX1
  6

  9
$DIMLTEX2
  6

  9
$DIMTXTDIRECTION
 70
     0
  9
$LUNITS
 70
     2
  9
$LUPREC
 70
     4
  9
$SKETCHINC
 40
0.1
  9
$FILLETRAD
 40
0.5
  9
$AUNITS
 70
     0
  9
$AUPREC
 70
     0
  9
$MENU
  1
.
  9
$ELEVATION
 40
0.0
  9
$PELEVATION
 40
0.0
  9
$THICKNESS
 40
0.0
  9
$LIMCHECK
 70
     0
  9
$CHAMFERA
 40
0.5
  9
$CHAMFERB
 40
0.5
  9
$CHAMFERC
 40
1.0
  9
$CHAMFERD
 40
0.0
  9
$SKPOLY
 70
     0
  9
$TDCREATE
 40
2458519.503784722
  9
$TDUCREATE
 40
2458519.462127257
  9
$TDUPDATE
 40
2458520.639918982
  9
$TDUUPDATE
 40
2458520.598252315
  9
$TDINDWG
 40
0.0137615856
  9
$TDUSRTIMER
 40
0.0137500116
  9
$USRTIMER
 70
     1
  9
$ANGBASE
 50
0.0
  9
$ANGDIR
 70
     0
  9
$PDMODE
 70
     0
  9
$PDSIZE
 40
0.0
  9
$PLINEWID
 40
0.0
  9
$SPLFRAME
 70
     0
  9
$SPLINETYPE
 70
     6
  9
$SPLINESEGS
 70
     8
  9
$HANDSEED
  5
2CB
  9
$SURFTAB1
 70
     6
  9
$SURFTAB2
 70
     6
  9
$SURFTYPE
 70
     6
  9
$SURFU
 70
     6
  9
$SURFV
 70
     6
  9
$UCSBASE
  2

  9
$UCSNAME
  2

  9
$UCSORG
 10
0.0
 20
0.0
 30
0.0
  9
$UCSXDIR
 10
1.0
 20
0.0
 30
0.0
  9
$UCSYDIR
 10
0.0
 20
1.0
 30
0.0
  9
$UCSORTHOREF
  2

  9
$UCSORTHOVIEW
 70
     0
  9
$UCSORGTOP
 10
0.0
 20
0.0
 30
0.0
  9
$UCSORGBOTTOM
 10
0.0
 20
0.0
 30
0.0
  9
$UCSORGLEFT
 10
0.0
 20
0.0
 30
0.0
  9
$UCSORGRIGHT
 10
0.0
 20
0.0
 30
0.0
  9
$UCSORGFRONT
 10
0.0
 20
0.0
 30
0.0
  9
$UCSORGBACK
 10
0.0
 20
0.0
 30
0.0
  9
$PUCSBASE
  2

  9
$PUCSNAME
  2

  9
$PUCSORG
 10
0.0
 20
0.0
 30
0.0
  9
$PUCSXDIR
 10
1.0
 20
0.0
 30
0.0
  9
$PUCSYDIR
 10
0.0
 20
1.0
 30
0.0
  9
$PUCSORTHOREF
  2

  9
$PUCSORTHOVIEW
 70
     0
  9
$PUCSORGTOP
 10
0.0
 20
0.0
 30
0.0
  9
$PUCSORGBOTTOM
 10
0.0
 20
0.0
 30
0.0
  9
$PUCSORGLEFT
 10
0.0
 20
0.0
 30
0.0
  9
$PUCSORGRIGHT
 10
0.0
 20
0.0
 30
0.0
  9
$PUCSORGFRONT
 10
0.0
 20
0.0
 30
0.0
  9
$PUCSORGBACK
 10
0.0
 20
0.0
 30
0.0
  9
$USERI1
 70
     0
  9
$USERI2
 70
     0
  9
$USERI3
 70
     0
  9
$USERI4
 70
     0
  9
$USERI5
 70
     0
  9
$USERR1
 40
0.0
  9
$USERR2
 40
0.0
  9
$USERR3
 40
0.0
  9
$USERR4
 40
0.0
  9
$USERR5
 40
0.0
  9
$WORLDVIEW
 70
     1
  9
$SHADEDGE
 70
     3
  9
$SHADEDIF
 70
    70
  9
$TILEMODE
 70
     1
  9
$MAXACTVP
 70
    64
  9
$PINSBASE
 10
0.0
 20
0.0
 30
0.0
  9
$PLIMCHECK
 70
     0
  9
$PEXTMIN
 10
1.000000000000000E+20
 20
1.000000000000000E+20
 30
1.000000000000000E+20
  9
$PEXTMAX
 10
-1.000000000000000E+20
 20
-1.000000000000000E+20
 30
-1.000000000000000E+20
  9
$PLIMMIN
 10
0.0
 20
0.0
  9
$PLIMMAX
 10
12.0
 20
9.0
  9
$UNITMODE
 70
     0
  9
$VISRETAIN
 70
     1
  9
$PLINEGEN
 70
     0
  9
$PSLTSCALE
 70
     1
  9
$TREEDEPTH
 70
  3020
  9
$CMLSTYLE
  2
Standard
  9
$CMLJUST
 70
     0
  9
$CMLSCALE
 40
1.0
  9
$PROXYGRAPHICS
 70
     1
  9
$MEASUREMENT
 70
     0
  9
$CELWEIGHT
370
    -1
  9
$ENDCAPS
280
     0
  9
$JOINSTYLE
280
     0
  9
$LWDISPLAY
290
     1
  9
$INSUNITS
 70
     1
  9
$HYPERLINKBASE
  1

  9
$STYLESHEET
  1

  9
$XEDIT
290
     1
  9
$CEPSNTYPE
380
     0
  9
$PSTYLEMODE
290
     1
  9
$FINGERPRINTGUID
  2
{1AB1EB69-E6DD-4B2E-813C-F38CB4E63DB0}
  9
$VERSIONGUID
  2
{6677D18C-B8CF-CE45-8FE4-B4ED60BE9D9D}
  9
$EXTNAMES
290
     1
  9
$PSVPSCALE
 40
0.0
  9
$OLESTARTUP
290
     0
  9
$SORTENTS
280
   127
  9
$INDEXCTL
280
     0
  9
$HIDETEXT
280
     1
  9
$XCLIPFRAME
280
     0
  9
$HALOGAP
280
     0
  9
$OBSCOLOR
 70
   257
  9
$OBSLTYPE
280
     0
  9
$INTERSECTIONDISPLAY
280
     0
  9
$INTERSECTIONCOLOR
 70
   257
  9
$DIMASSOC
280
     2
  9
$PROJECTNAME
  1

  9
$CAMERADISPLAY
290
     0
  9
$LENSLENGTH
 40
50.0
  9
$CAMERAHEIGHT
 40
0.0
  9
$STEPSPERSEC
 40
2.0
  9
$STEPSIZE
 40
6.0
  9
$3DDWFPREC
 40
2.0
  9
$PSOLWIDTH
 40
0.25
  9
$PSOLHEIGHT
 40
4.0
  9
$LOFTANG1
 40
1.570796326794896
  9
$LOFTANG2
 40
1.570796326794896
  9
$LOFTMAG1
 40
0.0
  9
$LOFTMAG2
 40
0.0
  9
$LOFTPARAM
 70
     7
  9
$LOFTNORMALS
280
     1
  9
$LATITUDE
 40
37.795
  9
$LONGITUDE
 40
-122.394
  9
$NORTHDIRECTION
 40
0.0
  9
$TIMEZONE
 70
 -8000
  9
$LIGHTGLYPHDISPLAY
280
     1
  9
$TILEMODELIGHTSYNCH
280
     1
  9
$CMATERIAL
347
1B2
  9
$SOLIDHIST
280
     0
  9
$SHOWHIST
280
     1
  9
$DWFFRAME
280
     2
  9
$DGNFRAME
280
     0
  9
$REALWORLDSCALE
290
     1
  9
$INTERFERECOLOR
 62
     1
  9
$INTERFEREOBJVS
345
33
  9
$INTERFEREVPVS
346
1CA
  9
$CSHADOW
280
     0
  9
$SHADOWPLANELOCATION
 40
0.0
  0
ENDSEC
  0
SECTION
  2
CLASSES
  0
CLASS
  1
ACDBDICTIONARYWDFLT
  2
AcDbDictionaryWithDefault
  3
ObjectDBX Classes
 90
        0
 91
        1
280
     0
281
     0
  0
CLASS
  1
VISUALSTYLE
  2
AcDbVisualStyle
  3
ObjectDBX Classes
 90
     4095
 91
       26
280
     0
281
     0
  0
CLASS
  1
MATERIAL
  2
AcDbMaterial
  3
ObjectDBX Classes
 90
     1153
 91
        3
280
     0
281
     0
  0
CLASS
  1
TABLESTYLE
  2
AcDbTableStyle
  3
ObjectDBX Classes
 90
     4095
 91
        1
280
     0
281
     0
  0
CLASS
  1
SCALE
  2
AcDbScale
  3
ObjectDBX Classes
 90
     1153
 91
       17
280
     0
281
     0
  0
CLASS
  1
MLEADERSTYLE
  2
AcDbMLeaderStyle
  3
ACDB_MLEADERSTYLE_CLASS
 90
     4095
 91
        1
280
     0
281
     0
  0
CLASS
  1
ACDBSECTIONVIEWSTYLE
  2
AcDbSectionViewStyle
  3
ObjectDBX Classes
 90
     1025
 91
        1
280
     0
281
     0
  0
CLASS
  1
ACDBDETAILVIEWSTYLE
  2
AcDbDetailViewStyle
  3
ObjectDBX Classes
 90
     1025
 91
        1
280
     0
281
     0
  0
CLASS
  1
DICTIONARYVAR
  2
AcDbDictionaryVar
  3
ObjectDBX Classes
 90
        0
 91
       14
280
     0
281
     0
  0
CLASS
  1
CELLSTYLEMAP
  2
AcDbCellStyleMap
  3
ObjectDBX Classes
 90
     1152
 91
        2
280
     0
281
     0
  0
CLASS
  1
SORTENTSTABLE
  2
AcDbSortentsTable
  3
ObjectDBX Classes
 90
        0
 91
        1
280
     0
281
     0
  0
ENDSEC
  0
SECTION
  2
TABLES
  0
TABLE
  2
VPORT
  5
8
330
0
100
AcDbSymbolTable
 70
     1
1001
ACAD
1000
DbSaveVer
1071
      105
  0
VPORT
  5
29
330
8
100
AcDbSymbolTableRecord
100
AcDbViewportTableRecord
  2
*Active
 70
     0
 10
0.0
 20
0.0
 11
1.0
 21
1.0
 12
-435.1291920733717
 22
-36.19717839768214
 13
0.0
 23
0.0
 14
0.5
 24
0.5
 15
0.5
 25
0.5
 16
0.0
 26
0.0
 36
1.0
 17
500.0624137475973
 27
482.3326604696945
 37
0.0
 40
169.5250193042898
 41
2.287951807228915
 42
50.0
 43
0.0
 44
0.0
 50
0.0
 51
0.0
 71
     0
 72
   100
 73
     1
 74
     3
 75
     0
 76
     0
 77
     0
 78
     0
281
     0
 65
     1
110
0.0
120
0.0
130
0.0
111
1.0
121
0.0
131
0.0
112
0.0
122
1.0
132
0.0
 79
     0
146
0.0
348
2F
 60
     3
 61
     5
292
     1
282
     1
141
0.0
142
0.0
 63
   250
421
  3355443
1001
ACAD_NAV_VCDISPLAY
1070
     3
  0
ENDTAB
  0
TABLE
  2
LTYPE
  5
5
330
0
100
AcDbSymbolTable
 70
     1
  0
LTYPE
  5
14
330
5
100
AcDbSymbolTableRecord
100
AcDbLinetypeTableRecord
  2
ByBlock
 70
     0
  3

 72
    65
 73
     0
 40
0.0
  0
LTYPE
  5
15
330
5
100
AcDbSymbolTableRecord
100
AcDbLinetypeTableRecord
  2
ByLayer
 70
     0
  3

 72
    65
 73
     0
 40
0.0
  0
LTYPE
  5
16
330
5
100
AcDbSymbolTableRecord
100
AcDbLinetypeTableRecord
  2
Continuous
 70
     0
  3
Solid line
 72
    65
 73
     0
 40
0.0
  0
ENDTAB
  0
TABLE
  2
LAYER
  5
2
102
{ACAD_XDICTIONARY
360
1F9
102
}
330
0
100
AcDbSymbolTable
 70
     2
  0
LAYER
  5
10
102
{ACAD_XDICTIONARY
360
1F2
102
}
330
2
100
AcDbSymbolTableRecord
100
AcDbLayerTableRecord
  2
0
 70
     0
 62
     7
  6
Continuous
370
    -3
390
F
347
1C2
348
0
  0
LAYER
  5
3B
102
{ACAD_XDICTIONARY
360
1F4
102
}
330
2
100
AcDbSymbolTableRecord
100
AcDbLayerTableRecord
  2
Layer 1
 70
     0
 62
     7
  6
Continuous
370
    -3
390
F
347
1C2
348
0
  0
ENDTAB
  0
TABLE
  2
STYLE
  5
3
330
0
100
AcDbSymbolTable
 70
     1
  0
STYLE
  5
11
330
3
100
AcDbSymbolTableRecord
100
AcDbTextStyleTableRecord
  2
Standard
 70
     0
 40
0.0
 41
1.0
 50
0.0
 71
     0
 42
0.2
  3
txt
  4

  0
ENDTAB
  0
TABLE
  2
VIEW
  5
6
330
0
100
AcDbSymbolTable
 70
     0
  0
ENDTAB
  0
TABLE
  2
UCS
  5
7
330
0
100
AcDbSymbolTable
 70
     0
  0
ENDTAB
  0
TABLE
  2
APPID
  5
9
330
0
100
AcDbSymbolTable
 70
     3
  0
APPID
  5
12
330
9
100
AcDbSymbolTableRecord
100
AcDbRegAppTableRecord
  2
ACAD
 70
     0
  0
APPID
  5
1FF
330
9
100
AcDbSymbolTableRecord
100
AcDbRegAppTableRecord
  2
ACAD_NAV_VCDISPLAY
 70
     0
  0
APPID
  5
20A
330
9
100
AcDbSymbolTableRecord
100
AcDbRegAppTableRecord
  2
ACAD_EXEMPT_FROM_CAD_STANDARDS
 70
     0
  0
ENDTAB
  0
TABLE
  2
DIMSTYLE
  5
A
330
0
100
AcDbSymbolTable
 70
     1
100
AcDbDimStyleTable
 71
     1
340
27
  0
DIMSTYLE
105
27
330
A
100
AcDbSymbolTableRecord
100
AcDbDimStyleTableRecord
  2
Standard
 70
     0
340
11
  0
ENDTAB
  0
TABLE
  2
BLOCK_RECORD
  5
1
330
0
100
AcDbSymbolTable
 70
    10
  0
BLOCK_RECORD
  5
1F
102
{ACAD_XDICTIONARY
360
2A9
102
}
330
1
100
AcDbSymbolTableRecord
100
AcDbBlockTableRecord
  2
*Model_Space
340
22
 70
     0
280
     1
281
     0
  0
BLOCK_RECORD
  5
1B
330
1
100
AcDbSymbolTableRecord
100
AcDbBlockTableRecord
  2
*Paper_Space
340
1E
 70
     0
280
     1
281
     0
  0
BLOCK_RECORD
  5
23
330
1
100
AcDbSymbolTableRecord
100
AcDbBlockTableRecord
  2
*Paper_Space0
340
26
 70
     0
280
     1
281
     0
  0
BLOCK_RECORD
  5
130
330
1
100
AcDbSymbolTableRecord
100
AcDbBlockTableRecord
  2
block 2
340
0
102
{BLKREFS
331
131
102
}
 70
     0
280
     1
281
     0
  0
BLOCK_RECORD
  5
155
330
1
100
AcDbSymbolTableRecord
100
AcDbBlockTableRecord
  2
block 3
340
0
 70
     0
280
     1
281
     0
  0
BLOCK_RECORD
  5
17A
330
1
100
AcDbSymbolTableRecord
100
AcDbBlockTableRecord
  2
block 4
340
0
 70
     0
280
     1
281
     0
  0
BLOCK_RECORD
  5
17E
330
1
100
AcDbSymbolTableRecord
100
AcDbBlockTableRecord
  2
block 5
340
0
102
{BLKREFS
331
17F
102
}
 70
     0
280
     1
281
     0
  0
BLOCK_RECORD
  5
185
330
1
100
AcDbSymbolTableRecord
100
AcDbBlockTableRecord
  2
block 6
340
0
102
{BLKREFS
331
186
102
}
 70
     0
280
     1
281
     0
  0
BLOCK_RECORD
  5
18C
330
1
100
AcDbSymbolTableRecord
100
AcDbBlockTableRecord
  2
block 7
340
0
102
{BLKREFS
331
18D
102
}
 70
     0
280
     1
281
     0
  0
BLOCK_RECORD
  5
193
330
1
100
AcDbSymbolTableRecord
100
AcDbBlockTableRecord
  2
block 8
340
0
102
{BLKREFS
331
194
102
}
 70
     0
280
     1
281
     0
  0
BLOCK_RECORD
  5
19A
330
1
100
AcDbSymbolTableRecord
100
AcDbBlockTableRecord
  2
block 9
340
0
102
{BLKREFS
331
19B
102
}
 70
     0
280
     1
281
     0
  0
BLOCK_RECORD
  5
1A1
330
1
100
AcDbSymbolTableRecord
100
AcDbBlockTableRecord
  2
block 10
340
0
102
{BLKREFS
331
1A2
102
}
 70
     0
280
     1
281
     0
  0
ENDTAB
  0
ENDSEC
  0
SECTION
  2
BLOCKS
  0
BLOCK
  5
20
330
1F
100
AcDbEntity
  8
0
100
AcDbBlockBegin
  2
*Model_Space
 70
     0
 10
0.0
 20
0.0
 30
0.0
  3
*Model_Space
  1

  0
ENDBLK
  5
21
330
1F
100
AcDbEntity
  8
0
100
AcDbBlockEnd
  0
BLOCK
  5
1C
330
1B
100
AcDbEntity
 67
     1
  8
0
100
AcDbBlockBegin
  2
*Paper_Space
 70
     0
 10
0.0
 20
0.0
 30
0.0
  3
*Paper_Space
  1

  0
ENDBLK
  5
1D
330
1B
100
AcDbEntity
 67
     1
  8
0
100
AcDbBlockEnd
  0
BLOCK
  5
24
330
23
100
AcDbEntity
 67
     1
  8
0
100
AcDbBlockBegin
  2
*Paper_Space0
 70
     0
 10
0.0
 20
0.0
 30
0.0
  3
*Paper_Space0
  1

  0
ENDBLK
  5
25
330
23
100
AcDbEntity
 67
     1
  8
0
100
AcDbBlockEnd
  0
BLOCK
  5
132
330
130
100
AcDbEntity
  8
0
100
AcDbBlockBegin
  2
block 2
 70
     0
 10
0.0
 20
0.0
 30
0.0
  3
block 2
  1

  0
SPLINE
  5
134
330
130
100
AcDbEntity
  8
Layer 1
 62
     7
420
 16777215
370
    13
100
AcDbSpline
210
0.0
220
0.0
230
1.0
 70
    11
 71
     3
 72
   113
 73
   109
 74
     0
 42
0.000000001
 43
0.0000000001
 40
0.0
 40
0.0
 40
0.0
 40
0.0
 40
1.0
 40
1.0
 40
1.0
 40
2.0
 40
2.0
 40
2.0
 40
3.0
 40
3.0
 40
3.0
 40
4.0
 40
4.0
 40
4.0
 40
5.0
 40
5.0
 40
5.0
 40
6.0
 40
6.0
 40
6.0
 40
7.0
 40
7.0
 40
7.0
 40
8.0
 40
8.0
 40
8.0
 40
9.0
 40
9.0
 40
9.0
 40
10.0
 40
10.0
 40
10.0
 40
11.0
 40
11.0
 40
11.0
 40
12.0
 40
12.0
 40
12.0
 40
13.0
 40
13.0
 40
13.0
 40
14.0
 40
14.0
 40
14.0
 40
15.0
 40
15.0
 40
15.0
 40
16.0
 40
16.0
 40
16.0
 40
17.0
 40
17.0
 40
17.0
 40
18.0
 40
18.0
 40
18.0
 40
19.0
 40
19.0
 40
19.0
 40
20.0
 40
20.0
 40
20.0
 40
21.0
 40
21.0
 40
21.0
 40
22.0
 40
22.0
 40
22.0
 40
23.0
 40
23.0
 40
23.0
 40
24.0
 40
24.0
 40
24.0
 40
25.0
 40
25.0
 40
25.0
 40
26.0
 40
26.0
 40
26.0
 40
27.0
 40
27.0
 40
27.0
 40
28.0
 40
28.0
 40
28.0
 40
29.0
 40
29.0
 40
29.0
 40
30.0
 40
30.0
 40
30.0
 40
31.0
 40
31.0
 40
31.0
 40
32.0
 40
32.0
 40
32.0
 40
33.0
 40
33.0
 40
33.0
 40
34.0
 40
34.0
 40
34.0
 40
35.0
 40
35.0
 40
35.0
 40
36.0
 40
36.0
 40
36.0
 40
36.0
 10
187.862607103642
 20
475.3945826719498
 30
0.0
 10
187.862607103642
 20
475.3945826719498
 30
0.0
 10
183.3626233808086
 20
475.3945826719498
 30
0.0
 10
183.3626233808086
 20
475.3945826719498
 30
0.0
 10
183.3626233808086
 20
475.3945826719498
 30
0.0
 10
180.3626342322531
 20
475.3945826719498
 30
0.0
 10
180.3626342322531
 20
475.3945826719498
 30
0.0
 10
180.3626342322531
 20
475.3945826719498
 30
0.0
 10
164.3625772701073
 20
475.3945826719498
 30
0.0
 10
164.3625772701073
 20
475.3945826719498
 30
0.0
 10
164.3625772701073
 20
475.3945826719498
 30
0.0
 10
164.3625772701073
 20
482.194512140736
 30
0.0
 10
164.3625772701073
 20
482.194512140736
 30
0.0
 10
164.3625772701073
 20
484.6798040237953
 30
0.0
 10
162.3478854303332
 20
486.6944958635693
 30
0.0
 10
159.8625935472739
 20
486.6944958635693
 30
0.0
 10
157.3773016642147
 20
486.6944958635693
 30
0.0
 10
155.3626098244406
 20
484.6798040237953
 30
0.0
 10
155.3626098244406
 20
482.194512140736
 30
0.0
 10
155.3626098244406
 20
482.194512140736
 30
0.0
 10
155.3626098244406
 20
475.3945826719498
 30
0.0
 10
155.3626098244406
 20
475.3945826719498
 30
0.0
 10
155.3626098244406
 20
475.3945826719498
 30
0.0
 10
55.36285670273915
 20
475.3945826719498
 30
0.0
 10
55.36285670273915
 20
475.3945826719498
 30
0.0
 10
55.36285670273915
 20
475.3945826719498
 30
0.0
 10
55.36285670273915
 20
482.194512140736
 30
0.0
 10
55.36285670273915
 20
482.194512140736
 30
0.0
 10
55.36285670273915
 20
484.6798040237953
 30
0.0
 10
53.34782035341651
 20
486.6944958635693
 30
0.0
 10
50.86287297990581
 20
486.6944958635693
 30
0.0
 10
48.37758109684656
 20
486.6944958635693
 30
0.0
 10
46.36254474752393
 20
484.6798040237953
 30
0.0
 10
46.36254474752393
 20
482.194512140736
 30
0.0
 10
46.36254474752393
 20
482.194512140736
 30
0.0
 10
46.36254474752393
 20
475.3945826719498
 30
0.0
 10
46.36254474752393
 20
475.3945826719498
 30
0.0
 10
46.36254474752393
 20
475.3945826719498
 30
0.0
 10
30.36248778537813
 20
475.3945826719498
 30
0.0
 10
30.36248778537813
 20
475.3945826719498
 30
0.0
 10
30.36248778537813
 20
475.3945826719498
 30
0.0
 10
27.36249863682257
 20
475.3945826719498
 30
0.0
 10
27.36249863682257
 20
475.3945826719498
 30
0.0
 10
27.36249863682257
 20
475.3945826719498
 30
0.0
 10
22.86251491398923
 20
475.3945826719498
 30
0.0
 10
22.86251491398923
 20
475.3945826719498
 30
0.0
 10
22.86251491398923
 20
475.3945826719498
 30
0.0
 10
22.86251491398923
 20
375.3944850407
 30
0.0
 10
22.86251491398923
 20
375.3944850407
 30
0.0
 10
22.86251491398923
 20
375.3944850407
 30
0.0
 10
27.36249863682257
 20
375.3944850407
 30
0.0
 10
27.36249863682257
 20
375.3944850407
 30
0.0
 10
27.36249863682257
 20
375.3944850407
 30
0.0
 10
27.36249863682257
 20
425.394533856325
 30
0.0
 10
27.36249863682257
 20
425.394533856325
 30
0.0
 10
27.36249863682257
 20
425.394533856325
 30
0.0
 10
30.36248778537813
 20
425.394533856325
 30
0.0
 10
30.36248778537813
 20
425.394533856325
 30
0.0
 10
30.36248778537813
 20
425.394533856325
 30
0.0
 10
30.36248778537813
 20
375.3944850407
 30
0.0
 10
30.36248778537813
 20
375.3944850407
 30
0.0
 10
30.36248778537813
 20
375.3944850407
 30
0.0
 10
46.36254474752393
 20
375.3944850407
 30
0.0
 10
46.36254474752393
 20
375.3944850407
 30
0.0
 10
46.36254474752393
 20
375.3944850407
 30
0.0
 10
46.36254474752393
 20
368.5945555719139
 30
0.0
 10
46.36254474752393
 20
368.5945555719139
 30
0.0
 10
46.36254474752393
 20
366.1092636888546
 30
0.0
 10
48.37758109684656
 20
364.0945718490805
 30
0.0
 10
50.86287297990581
 20
364.0945718490805
 30
0.0
 10
53.34782035341651
 20
364.0945718490805
 30
0.0
 10
55.36285670273915
 20
366.1092636888546
 30
0.0
 10
55.36285670273915
 20
368.5945555719139
 30
0.0
 10
55.36285670273915
 20
368.5945555719139
 30
0.0
 10
55.36285670273915
 20
375.3944850407
 30
0.0
 10
55.36285670273915
 20
375.3944850407
 30
0.0
 10
55.36285670273915
 20
375.3944850407
 30
0.0
 10
155.3626098244406
 20
375.3944850407
 30
0.0
 10
155.3626098244406
 20
375.3944850407
 30
0.0
 10
155.3626098244406
 20
375.3944850407
 30
0.0
 10
155.3626098244406
 20
368.5945555719139
 30
0.0
 10
155.3626098244406
 20
368.5945555719139
 30
0.0
 10
155.3626098244406
 20
366.1092636888546
 30
0.0
 10
157.3773016642147
 20
364.0945718490805
 30
0.0
 10
159.8625935472739
 20
364.0945718490805
 30
0.0
 10
162.3478854303332
 20
364.0945718490805
 30
0.0
 10
164.3625772701073
 20
366.1092636888546
 30
0.0
 10
164.3625772701073
 20
368.5945555719139
 30
0.0
 10
164.3625772701073
 20
368.5945555719139
 30
0.0
 10
164.3625772701073
 20
375.3944850407
 30
0.0
 10
164.3625772701073
 20
375.3944850407
 30
0.0
 10
164.3625772701073
 20
375.3944850407
 30
0.0
 10
180.3626342322531
 20
375.3944850407
 30
0.0
 10
180.3626342322531
 20
375.3944850407
 30
0.0
 10
180.3626342322531
 20
375.3944850407
 30
0.0
 10
180.3626342322531
 20
425.394533856325
 30
0.0
 10
180.3626342322531
 20
425.394533856325
 30
0.0
 10
180.3626342322531
 20
425.394533856325
 30
0.0
 10
183.3626233808086
 20
425.394533856325
 30
0.0
 10
183.3626233808086
 20
425.394533856325
 30
0.0
 10
183.3626233808086
 20
425.394533856325
 30
0.0
 10
183.3626233808086
 20
375.3944850407
 30
0.0
 10
183.3626233808086
 20
375.3944850407
 30
0.0
 10
183.3626233808086
 20
375.3944850407
 30
0.0
 10
187.862607103642
 20
375.3944850407
 30
0.0
 10
187.862607103642
 20
375.3944850407
 30
0.0
 10
187.862607103642
 20
375.3944850407
 30
0.0
 10
187.862607103642
 20
475.3945826719498
 30
0.0
 10
187.862607103642
 20
475.3945826719498
 30
0.0
  0
POLYLINE
  5
135
330
130
100
AcDbEntity
  8
Layer 1
 62
     7
420
 16777215
370
    13
100
AcDb2dPolyline
 66
     1
 10
0.0
 20
0.0
 30
0.0
  0
VERTEX
  5
136
330
135
100
AcDbEntity
  8
Layer 1
 62
     7
420
 16777215
370
    13
100
AcDbVertex
100
AcDb2dVertex
 10
159.8625935472739
 20
478.1947562823609
 30
0.0
  0
VERTEX
  5
137
330
135
100
AcDbEntity
  8
Layer 1
 62
     7
420
 16777215
370
    13
100
AcDbVertex
100
AcDb2dVertex
 10
161.3625881215517
 20
478.1947562823609
 30
0.0
  0
VERTEX
  5
138
330
135
100
AcDbEntity
  8
Layer 1
 62
     7
420
 16777215
370
    13
100
AcDbVertex
100
AcDb2dVertex
 10
161.3625881215517
 20
484.1947345794721
 30
0.0
  0
VERTEX
  5
139
330
135
100
AcDbEntity
  8
Layer 1
 62
     7
420
 16777215
370
    13
100
AcDbVertex
100
AcDb2dVertex
 10
158.3625989729961
 20
484.1947345794721
 30
0.0
  0
VERTEX
  5
13A
330
135
100
AcDbEntity
  8
Layer 1
 62
     7
420
 16777215
370
    13
100
AcDbVertex
100
AcDb2dVertex
 10
158.3625989729961
 20
478.1947562823609
 30
0.0
  0
VERTEX
  5
13B
330
135
100
AcDbEntity
  8
Layer 1
 62
     7
420
 16777215
370
    13
100
AcDbVertex
100
AcDb2dVertex
 10
159.8625935472739
 20
478.1947562823609
 30
0.0
  0
SEQEND
  5
13C
330
135
100
AcDbEntity
  8
Layer 1
370
    13
  0
POLYLINE
  5
13D
330
130
100
AcDbEntity
  8
Layer 1
 62
     7
420
 16777215
370
    13
100
AcDb2dPolyline
 66
     1
 10
0.0
 20
0.0
 30
0.0
  0
VERTEX
  5
13E
330
13D
100
AcDbEntity
  8
Layer 1
 62
     7
420
 16777215
370
    13
100
AcDbVertex
100
AcDb2dVertex
 10
50.86287297990581
 20
478.1947562823609
 30
0.0
  0
VERTEX
  5
13F
330
13D
100
AcDbEntity
  8
Layer 1
 62
     7
420
 16777215
370
    13
100
AcDbVertex
100
AcDb2dVertex
 10
52.36286755418358
 20
478.1947562823609
 30
0.0
  0
VERTEX
  5
140
330
13D
100
AcDbEntity
  8
Layer 1
 62
     7
420
 16777215
370
    13
100
AcDbVertex
100
AcDb2dVertex
 10
52.36286755418358
 20
484.1947345794721
 30
0.0
  0
VERTEX
  5
141
330
13D
100
AcDbEntity
  8
Layer 1
 62
     7
420
 16777215
370
    13
100
AcDbVertex
100
AcDb2dVertex
 10
49.36253389607951
 20
484.1947345794721
 30
0.0
  0
VERTEX
  5
142
330
13D
100
AcDbEntity
  8
Layer 1
 62
     7
420
 16777215
370
    13
100
AcDbVertex
100
AcDb2dVertex
 10
49.36253389607951
 20
478.1947562823609
 30
0.0
  0
VERTEX
  5
143
330
13D
100
AcDbEntity
  8
Layer 1
 62
     7
420
 16777215
370
    13
100
AcDbVertex
100
AcDb2dVertex
 10
50.86287297990581
 20
478.1947562823609
 30
0.0
  0
SEQEND
  5
144
330
13D
100
AcDbEntity
  8
Layer 1
370
    13
  0
POLYLINE
  5
145
330
130
100
AcDbEntity
  8
Layer 1
 62
     7
420
 16777215
370
    13
100
AcDb2dPolyline
 66
     1
 10
0.0
 20
0.0
 30
0.0
  0
VERTEX
  5
146
330
145
100
AcDbEntity
  8
Layer 1
 62
     7
420
 16777215
370
    13
100
AcDbVertex
100
AcDb2dVertex
 10
50.86287297990581
 20
372.5943114302888
 30
0.0
  0
VERTEX
  5
147
330
145
100
AcDbEntity
  8
Layer 1
 62
     7
420
 16777215
370
    13
100
AcDbVertex
100
AcDb2dVertex
 10
52.36286755418358
 20
372.5943114302888
 30
0.0
  0
VERTEX
  5
148
330
145
100
AcDbEntity
  8
Layer 1
 62
     7
420
 16777215
370
    13
100
AcDbVertex
100
AcDb2dVertex
 10
52.36286755418358
 20
366.5943331331778
 30
0.0
  0
VERTEX
  5
149
330
145
100
AcDbEntity
  8
Layer 1
 62
     7
420
 16777215
370
    13
100
AcDbVertex
100
AcDb2dVertex
 10
49.36253389607951
 20
366.5943331331778
 30
0.0
  0
VERTEX
  5
14A
330
145
100
AcDbEntity
  8
Layer 1
 62
     7
420
 16777215
370
    13
100
AcDbVertex
100
AcDb2dVertex
 10
49.36253389607951
 20
372.5943114302888
 30
0.0
  0
VERTEX
  5
14B
330
145
100
AcDbEntity
  8
Layer 1
 62
     7
420
 16777215
370
    13
100
AcDbVertex
100
AcDb2dVertex
 10
50.86287297990581
 20
372.5943114302888
 30
0.0
  0
SEQEND
  5
14C
330
145
100
AcDbEntity
  8
Layer 1
370
    13
  0
POLYLINE
  5
14D
330
130
100
AcDbEntity
  8
Layer 1
 62
     7
420
 16777215
370
    13
100
AcDb2dPolyline
 66
     1
 10
0.0
 20
0.0
 30
0.0
  0
VERTEX
  5
14E
330
14D
100
AcDbEntity
  8
Layer 1
 62
     7
420
 16777215
370
    13
100
AcDbVertex
100
AcDb2dVertex
 10
159.8625935472739
 20
372.5943114302888
 30
0.0
  0
VERTEX
  5
14F
330
14D
100
AcDbEntity
  8
Layer 1
 62
     7
420
 16777215
370
    13
100
AcDbVertex
100
AcDb2dVertex
 10
161.3625881215517
 20
372.5943114302888
 30
0.0
  0
VERTEX
  5
150
330
14D
100
AcDbEntity
  8
Layer 1
 62
     7
420
 16777215
370
    13
100
AcDbVertex
100
AcDb2dVertex
 10
161.3625881215517
 20
366.5943331331778
 30
0.0
  0
VERTEX
  5
151
330
14D
100
AcDbEntity
  8
Layer 1
 62
     7
420
 16777215
370
    13
100
AcDbVertex
100
AcDb2dVertex
 10
158.3625989729961
 20
366.5943331331778
 30
0.0
  0
VERTEX
  5
152
330
14D
100
AcDbEntity
  8
Layer 1
 62
     7
420
 16777215
370
    13
100
AcDbVertex
100
AcDb2dVertex
 10
158.3625989729961
 20
372.5943114302888
 30
0.0
  0
VERTEX
  5
153
330
14D
100
AcDbEntity
  8
Layer 1
 62
     7
420
 16777215
370
    13
100
AcDbVertex
100
AcDb2dVertex
 10
159.8625935472739
 20
372.5943114302888
 30
0.0
  0
SEQEND
  5
154
330
14D
100
AcDbEntity
  8
Layer 1
370
    13
  0
ENDBLK
  5
133
330
130
100
AcDbEntity
  8
0
100
AcDbBlockEnd
  0
BLOCK
  5
157
330
155
100
AcDbEntity
  8
0
100
AcDbBlockBegin
  2
block 3
 70
     0
 10
0.0
 20
0.0
 30
0.0
  3
block 3
  1

  0
SPLINE
  5
159
330
155
100
AcDbEntity
  8
Layer 1
 62
     7
420
 16777215
370
    13
100
AcDbSpline
210
0.0
220
0.0
230
1.0
 70
    11
 71
     3
 72
   113
 73
   109
 74
     0
 42
0.000000001
 43
0.0000000001
 40
0.0
 40
0.0
 40
0.0
 40
0.0
 40
1.0
 40
1.0
 40
1.0
 40
2.0
 40
2.0
 40
2.0
 40
3.0
 40
3.0
 40
3.0
 40
4.0
 40
4.0
 40
4.0
 40
5.0
 40
5.0
 40
5.0
 40
6.0
 40
6.0
 40
6.0
 40
7.0
 40
7.0
 40
7.0
 40
8.0
 40
8.0
 40
8.0
 40
9.0
 40
9.0
 40
9.0
 40
10.0
 40
10.0
 40
10.0
 40
11.0
 40
11.0
 40
11.0
 40
12.0
 40
12.0
 40
12.0
 40
13.0
 40
13.0
 40
13.0
 40
14.0
 40
14.0
 40
14.0
 40
15.0
 40
15.0
 40
15.0
 40
16.0
 40
16.0
 40
16.0
 40
17.0
 40
17.0
 40
17.0
 40
18.0
 40
18.0
 40
18.0
 40
19.0
 40
19.0
 40
19.0
 40
20.0
 40
20.0
 40
20.0
 40
21.0
 40
21.0
 40
21.0
 40
22.0
 40
22.0
 40
22.0
 40
23.0
 40
23.0
 40
23.0
 40
24.0
 40
24.0
 40
24.0
 40
25.0
 40
25.0
 40
25.0
 40
26.0
 40
26.0
 40
26.0
 40
27.0
 40
27.0
 40
27.0
 40
28.0
 40
28.0
 40
28.0
 40
29.0
 40
29.0
 40
29.0
 40
30.0
 40
30.0
 40
30.0
 40
31.0
 40
31.0
 40
31.0
 40
32.0
 40
32.0
 40
32.0
 40
33.0
 40
33.0
 40
33.0
 40
34.0
 40
34.0
 40
34.0
 40
35.0
 40
35.0
 40
35.0
 40
36.0
 40
36.0
 40
36.0
 40
36.0
 10
193.3623575362948
 20
375.3944850407
 30
0.0
 10
193.3623575362948
 20
375.3944850407
 30
0.0
 10
197.8623412591282
 20
375.3944850407
 30
0.0
 10
197.8623412591282
 20
375.3944850407
 30
0.0
 10
197.8623412591282
 20
375.3944850407
 30
0.0
 10
197.8623412591282
 20
425.394533856325
 30
0.0
 10
197.8623412591282
 20
425.394533856325
 30
0.0
 10
197.8623412591282
 20
425.394533856325
 30
0.0
 10
200.8623304076837
 20
425.394533856325
 30
0.0
 10
200.8623304076837
 20
425.394533856325
 30
0.0
 10
200.8623304076837
 20
425.394533856325
 30
0.0
 10
200.8623304076837
 20
375.3944850407
 30
0.0
 10
200.8623304076837
 20
375.3944850407
 30
0.0
 10
200.8623304076837
 20
375.3944850407
 30
0.0
 10
216.8623873698296
 20
375.3944850407
 30
0.0
 10
216.8623873698296
 20
375.3944850407
 30
0.0
 10
216.8623873698296
 20
375.3944850407
 30
0.0
 10
216.8623873698296
 20
368.5945555719139
 30
0.0
 10
216.8623873698296
 20
368.5945555719139
 30
0.0
 10
216.8623873698296
 20
366.1092636888546
 30
0.0
 10
218.8770792096037
 20
364.0945718490805
 30
0.0
 10
221.3623710926629
 20
364.0945718490805
 30
0.0
 10
223.8476629757221
 20
364.0945718490805
 30
0.0
 10
225.8623548154962
 20
366.1092636888546
 30
0.0
 10
225.8623548154962
 20
368.5945555719139
 30
0.0
 10
225.8623548154962
 20
368.5945555719139
 30
0.0
 10
225.8623548154962
 20
375.3944850407
 30
0.0
 10
225.8623548154962
 20
375.3944850407
 30
0.0
 10
225.8623548154962
 20
375.3944850407
 30
0.0
 10
325.8621079371977
 20
375.3944850407
 30
0.0
 10
325.8621079371977
 20
375.3944850407
 30
0.0
 10
325.8621079371977
 20
375.3944850407
 30
0.0
 10
325.8621079371977
 20
368.5945555719139
 30
0.0
 10
325.8621079371977
 20
368.5945555719139
 30
0.0
 10
325.8621079371977
 20
366.1092636888546
 30
0.0
 10
327.8771442865203
 20
364.0945718490805
 30
0.0
 10
330.362091660031
 20
364.0945718490805
 30
0.0
 10
332.8473835430902
 20
364.0945718490805
 30
0.0
 10
334.8624198924128
 20
366.1092636888546
 30
0.0
 10
334.8624198924128
 20
368.5945555719139
 30
0.0
 10
334.8624198924128
 20
368.5945555719139
 30
0.0
 10
334.8624198924128
 20
375.3944850407
 30
0.0
 10
334.8624198924128
 20
375.3944850407
 30
0.0
 10
334.8624198924128
 20
375.3944850407
 30
0.0
 10
350.8624768545587
 20
375.3944850407
 30
0.0
 10
350.8624768545587
 20
375.3944850407
 30
0.0
 10
350.8624768545587
 20
375.3944850407
 30
0.0
 10
350.8624768545587
 20
425.394533856325
 30
0.0
 10
350.8624768545587
 20
425.394533856325
 30
0.0
 10
350.8624768545587
 20
425.394533856325
 30
0.0
 10
353.8624660031143
 20
425.394533856325
 30
0.0
 10
353.8624660031143
 20
425.394533856325
 30
0.0
 10
353.8624660031143
 20
425.394533856325
 30
0.0
 10
353.8624660031143
 20
375.3944850407
 30
0.0
 10
353.8624660031143
 20
375.3944850407
 30
0.0
 10
353.8624660031143
 20
375.3944850407
 30
0.0
 10
358.3624497259477
 20
375.3944850407
 30
0.0
 10
358.3624497259477
 20
375.3944850407
 30
0.0
 10
358.3624497259477
 20
375.3944850407
 30
0.0
 10
358.3624497259477
 20
475.3945826719498
 30
0.0
 10
358.3624497259477
 20
475.3945826719498
 30
0.0
 10
358.3624497259477
 20
475.3945826719498
 30
0.0
 10
353.8624660031143
 20
475.3945826719498
 30
0.0
 10
353.8624660031143
 20
475.3945826719498
 30
0.0
 10
353.8624660031143
 20
475.3945826719498
 30
0.0
 10
350.8624768545587
 20
475.3945826719498
 30
0.0
 10
350.8624768545587
 20
475.3945826719498
 30
0.0
 10
350.8624768545587
 20
475.3945826719498
 30
0.0
 10
334.8624198924128
 20
475.3945826719498
 30
0.0
 10
334.8624198924128
 20
475.3945826719498
 30
0.0
 10
334.8624198924128
 20
475.3945826719498
 30
0.0
 10
334.8624198924128
 20
482.194512140736
 30
0.0
 10
334.8624198924128
 20
482.194512140736
 30
0.0
 10
334.8624198924128
 20
484.6798040237953
 30
0.0
 10
332.8473835430902
 20
486.6944958635693
 30
0.0
 10
330.362091660031
 20
486.6944958635693
 30
0.0
 10
327.8771442865203
 20
486.6944958635693
 30
0.0
 10
325.8621079371977
 20
484.6798040237953
 30
0.0
 10
325.8621079371977
 20
482.194512140736
 30
0.0
 10
325.8621079371977
 20
482.194512140736
 30
0.0
 10
325.8621079371977
 20
475.3945826719498
 30
0.0
 10
325.8621079371977
 20
475.3945826719498
 30
0.0
 10
325.8621079371977
 20
475.3945826719498
 30
0.0
 10
225.8623548154962
 20
475.3945826719498
 30
0.0
 10
225.8623548154962
 20
475.3945826719498
 30
0.0
 10
225.8623548154962
 20
475.3945826719498
 30
0.0
 10
225.8623548154962
 20
482.194512140736
 30
0.0
 10
225.8623548154962
 20
482.194512140736
 30
0.0
 10
225.8623548154962
 20
484.6798040237953
 30
0.0
 10
223.8476629757221
 20
486.6944958635693
 30
0.0
 10
221.3623710926629
 20
486.6944958635693
 30
0.0
 10
218.8770792096037
 20
486.6944958635693
 30
0.0
 10
216.8623873698296
 20
484.6798040237953
 30
0.0
 10
216.8623873698296
 20
482.194512140736
 30
0.0
 10
216.8623873698296
 20
482.194512140736
 30
0.0
 10
216.8623873698296
 20
475.3945826719498
 30
0.0
 10
216.8623873698296
 20
475.3945826719498
 30
0.0
 10
216.8623873698296
 20
475.3945826719498
 30
0.0
 10
200.8623304076837
 20
475.3945826719498
 30
0.0
 10
200.8623304076837
 20
475.3945826719498
 30
0.0
 10
200.8623304076837
 20
475.3945826719498
 30
0.0
 10
197.8623412591282
 20
475.3945826719498
 30
0.0
 10
197.8623412591282
 20
475.3945826719498
 30
0.0
 10
197.8623412591282
 20
475.3945826719498
 30
0.0
 10
193.3623575362948
 20
475.3945826719498
 30
0.0
 10
193.3623575362948
 20
475.3945826719498
 30
0.0
 10
193.3623575362948
 20
475.3945826719498
 30
0.0
 10
193.3623575362948
 20
375.3944850407
 30
0.0
 10
193.3623575362948
 20
375.3944850407
 30
0.0
  0
POLYLINE
  5
15A
330
155
100
AcDbEntity
  8
Layer 1
 62
     7
420
 16777215
370
    13
100
AcDb2dPolyline
 66
     1
 10
0.0
 20
0.0
 30
0.0
  0
VERTEX
  5
15B
330
15A
100
AcDbEntity
  8
Layer 1
 62
     7
420
 16777215
370
    13
100
AcDbVertex
100
AcDb2dVertex
 10
221.3623710926629
 20
372.595000449386
 30
0.0
  0
VERTEX
  5
15C
330
15A
100
AcDbEntity
  8
Layer 1
 62
     7
420
 16777215
370
    13
100
AcDbVertex
100
AcDb2dVertex
 10
219.8623765183851
 20
372.595000449386
 30
0.0
  0
VERTEX
  5
15D
330
15A
100
AcDbEntity
  8
Layer 1
 62
     7
420
 16777215
370
    13
100
AcDbVertex
100
AcDb2dVertex
 10
219.8623765183851
 20
366.5950221522749
 30
0.0
  0
VERTEX
  5
15E
330
15A
100
AcDbEntity
  8
Layer 1
 62
     7
420
 16777215
370
    13
100
AcDbVertex
100
AcDb2dVertex
 10
222.8623656669407
 20
366.5950221522749
 30
0.0
  0
VERTEX
  5
15F
330
15A
100
AcDbEntity
  8
Layer 1
 62
     7
420
 16777215
370
    13
100
AcDbVertex
100
AcDb2dVertex
 10
222.8623656669407
 20
372.595000449386
 30
0.0
  0
VERTEX
  5
160
330
15A
100
AcDbEntity
  8
Layer 1
 62
     7
420
 16777215
370
    13
100
AcDbVertex
100
AcDb2dVertex
 10
221.3623710926629
 20
372.595000449386
 30
0.0
  0
SEQEND
  5
161
330
15A
100
AcDbEntity
  8
Layer 1
370
    13
  0
POLYLINE
  5
162
330
155
100
AcDbEntity
  8
Layer 1
 62
     7
420
 16777215
370
    13
100
AcDb2dPolyline
 66
     1
 10
0.0
 20
0.0
 30
0.0
  0
VERTEX
  5
163
330
162
100
AcDbEntity
  8
Layer 1
 62
     7
420
 16777215
370
    13
100
AcDbVertex
100
AcDb2dVertex
 10
330.362091660031
 20
372.595000449386
 30
0.0
  0
VERTEX
  5
164
330
162
100
AcDbEntity
  8
Layer 1
 62
     7
420
 16777215
370
    13
100
AcDbVertex
100
AcDb2dVertex
 10
328.8620970857532
 20
372.595000449386
 30
0.0
  0
VERTEX
  5
165
330
162
100
AcDbEntity
  8
Layer 1
 62
     7
420
 16777215
370
    13
100
AcDbVertex
100
AcDb2dVertex
 10
328.8620970857532
 20
366.5950221522749
 30
0.0
  0
VERTEX
  5
166
330
162
100
AcDbEntity
  8
Layer 1
 62
     7
420
 16777215
370
    13
100
AcDbVertex
100
AcDb2dVertex
 10
331.8624307438573
 20
366.5950221522749
 30
0.0
  0
VERTEX
  5
167
330
162
100
AcDbEntity
  8
Layer 1
 62
     7
420
 16777215
370
    13
100
AcDbVertex
100
AcDb2dVertex
 10
331.8624307438573
 20
372.595000449386
 30
0.0
  0
VERTEX
  5
168
330
162
100
AcDbEntity
  8
Layer 1
 62
     7
420
 16777215
370
    13
100
AcDbVertex
100
AcDb2dVertex
 10
330.362091660031
 20
372.595000449386
 30
0.0
  0
SEQEND
  5
169
330
162
100
AcDbEntity
  8
Layer 1
370
    13
  0
POLYLINE
  5
16A
330
155
100
AcDbEntity
  8
Layer 1
 62
     7
420
 16777215
370
    13
100
AcDb2dPolyline
 66
     1
 10
0.0
 20
0.0
 30
0.0
  0
VERTEX
  5
16B
330
16A
100
AcDbEntity
  8
Layer 1
 62
     7
420
 16777215
370
    13
100
AcDbVertex
100
AcDb2dVertex
 10
330.362091660031
 20
478.1947562823609
 30
0.0
  0
VERTEX
  5
16C
330
16A
100
AcDbEntity
  8
Layer 1
 62
     7
420
 16777215
370
    13
100
AcDbVertex
100
AcDb2dVertex
 10
328.8620970857532
 20
478.1947562823609
 30
0.0
  0
VERTEX
  5
16D
330
16A
100
AcDbEntity
  8
Layer 1
 62
     7
420
 16777215
370
    13
100
AcDbVertex
100
AcDb2dVertex
 10
328.8620970857532
 20
484.1947345794721
 30
0.0
  0
VERTEX
  5
16E
330
16A
100
AcDbEntity
  8
Layer 1
 62
     7
420
 16777215
370
    13
100
AcDbVertex
100
AcDb2dVertex
 10
331.8624307438573
 20
484.1947345794721
 30
0.0
  0
VERTEX
  5
16F
330
16A
100
AcDbEntity
  8
Layer 1
 62
     7
420
 16777215
370
    13
100
AcDbVertex
100
AcDb2dVertex
 10
331.8624307438573
 20
478.1947562823609
 30
0.0
  0
VERTEX
  5
170
330
16A
100
AcDbEntity
  8
Layer 1
 62
     7
420
 16777215
370
    13
100
AcDbVertex
100
AcDb2dVertex
 10
330.362091660031
 20
478.1947562823609
 30
0.0
  0
SEQEND
  5
171
330
16A
100
AcDbEntity
  8
Layer 1
370
    13
  0
POLYLINE
  5
172
330
155
100
AcDbEntity
  8
Layer 1
 62
     7
420
 16777215
370
    13
100
AcDb2dPolyline
 66
     1
 10
0.0
 20
0.0
 30
0.0
  0
VERTEX
  5
173
330
172
100
AcDbEntity
  8
Layer 1
 62
     7
420
 16777215
370
    13
100
AcDbVertex
100
AcDb2dVertex
 10
221.3623710926629
 20
478.1947562823609
 30
0.0
  0
VERTEX
  5
174
330
172
100
AcDbEntity
  8
Layer 1
 62
     7
420
 16777215
370
    13
100
AcDbVertex
100
AcDb2dVertex
 10
219.8623765183851
 20
478.1947562823609
 30
0.0
  0
VERTEX
  5
175
330
172
100
AcDbEntity
  8
Layer 1
 62
     7
420
 16777215
370
    13
100
AcDbVertex
100
AcDb2dVertex
 10
219.8623765183851
 20
484.1947345794721
 30
0.0
  0
VERTEX
  5
176
330
172
100
AcDbEntity
  8
Layer 1
 62
     7
420
 16777215
370
    13
100
AcDbVertex
100
AcDb2dVertex
 10
222.8623656669407
 20
484.1947345794721
 30
0.0
  0
VERTEX
  5
177
330
172
100
AcDbEntity
  8
Layer 1
 62
     7
420
 16777215
370
    13
100
AcDbVertex
100
AcDb2dVertex
 10
222.8623656669407
 20
478.1947562823609
 30
0.0
  0
VERTEX
  5
178
330
172
100
AcDbEntity
  8
Layer 1
 62
     7
420
 16777215
370
    13
100
AcDbVertex
100
AcDb2dVertex
 10
221.3623710926629
 20
478.1947562823609
 30
0.0
  0
SEQEND
  5
179
330
172
100
AcDbEntity
  8
Layer 1
370
    13
  0
ENDBLK
  5
158
330
155
100
AcDbEntity
  8
0
100
AcDbBlockEnd
  0
BLOCK
  5
17C
330
17A
100
AcDbEntity
  8
0
100
AcDbBlockBegin
  2
block 4
 70
     0
 10
0.0
 20
0.0
 30
0.0
  3
block 4
  1

  0
INSERT
  5
17F
330
17A
100
AcDbEntity
  8
Layer 1
100
AcDbBlockReference
  2
block 5
 10
0.0
 20
0.0
 30
0.0
  0
INSERT
  5
186
330
17A
100
AcDbEntity
  8
Layer 1
100
AcDbBlockReference
  2
block 6
 10
0.0
 20
0.0
 30
0.0
  0
INSERT
  5
18D
330
17A
100
AcDbEntity
  8
Layer 1
100
AcDbBlockReference
  2
block 7
 10
0.0
 20
0.0
 30
0.0
  0
INSERT
  5
194
330
17A
100
AcDbEntity
  8
Layer 1
100
AcDbBlockReference
  2
block 8
 10
0.0
 20
0.0
 30
0.0
  0
INSERT
  5
19B
330
17A
100
AcDbEntity
  8
Layer 1
100
AcDbBlockReference
  2
block 9
 10
0.0
 20
0.0
 30
0.0
  0
INSERT
  5
1A2
330
17A
100
AcDbEntity
  8
Layer 1
100
AcDbBlockReference
  2
block 10
 10
0.0
 20
0.0
 30
0.0
  0
ENDBLK
  5
17D
330
17A
100
AcDbEntity
  8
0
100
AcDbBlockEnd
  0
BLOCK
  5
180
330
17E
100
AcDbEntity
  8
0
100
AcDbBlockBegin
  2
block 5
 70
     0
 10
0.0
 20
0.0
 30
0.0
  3
block 5
  1

  0
SPLINE
  5
182
330
17E
100
AcDbEntity
  8
Layer 1
 62
     7
420
 16777215
370
    13
100
AcDbSpline
210
0.0
220
0.0
230
1.0
 70
    11
 71
     3
 72
    17
 73
    13
 74
     0
 42
0.000000001
 43
0.0000000001
 40
0.0
 40
0.0
 40
0.0
 40
0.0
 40
1.0
 40
1.0
 40
1.0
 40
2.0
 40
2.0
 40
2.0
 40
3.0
 40
3.0
 40
3.0
 40
4.0
 40
4.0
 40
4.0
 40
4.0
 10
54.46265325244336
 20
438.8703693564282
 30
0.0
 10
54.46265325244336
 20
439.7540363483948
 30
0.0
 10
53.74641790105993
 20
440.4702716997782
 30
0.0
 10
52.86257865431908
 20
440.4702716997782
 30
0.0
 10
51.97891166235249
 20
440.4702716997782
 30
0.0
 10
51.26250405619479
 20
439.7540363483948
 30
0.0
 10
51.26250405619479
 20
438.8703693564282
 30
0.0
 10
51.26250405619479
 20
437.9867023644615
 30
0.0
 10
51.97891166235249
 20
437.2704670130781
 30
0.0
 10
52.86257865431908
 20
437.2704670130781
 30
0.0
 10
53.74641790105993
 20
437.2704670130781
 30
0.0
 10
54.46265325244336
 20
437.9867023644615
 30
0.0
 10
54.46265325244336
 20
438.8703693564282
 30
0.0
  0
SPLINE
  5
183
330
17E
100
AcDbEntity
  8
Layer 1
 62
     7
420
 16777215
370
    13
100
AcDbSpline
210
0.0
220
0.0
230
1.0
 70
    11
 71
     3
 72
    17
 73
    13
 74
     0
 42
0.000000001
 43
0.0000000001
 40
0.0
 40
0.0
 40
0.0
 40
0.0
 40
1.0
 40
1.0
 40
1.0
 40
2.0
 40
2.0
 40
2.0
 40
3.0
 40
3.0
 40
3.0
 40
4.0
 40
4.0
 40
4.0
 40
4.0
 10
79.46284991503012
 20
438.8703693564282
 30
0.0
 10
79.46284991503012
 20
439.7540363483948
 30
0.0
 10
78.74627005409816
 20
440.4702716997782
 30
0.0
 10
77.86260306213157
 20
440.4702716997782
 30
0.0
 10
76.97893607016499
 20
440.4702716997782
 30
0.0
 10
76.26235620923302
 20
439.7540363483948
 30
0.0
 10
76.26235620923302
 20
438.8703693564282
 30
0.0
 10
76.26235620923302
 20
437.9867023644615
 30
0.0
 10
76.97893607016499
 20
437.2704670130781
 30
0.0
 10
77.86260306213157
 20
437.2704670130781
 30
0.0
 10
78.74627005409816
 20
437.2704670130781
 30
0.0
 10
79.46284991503012
 20
437.9867023644615
 30
0.0
 10
79.46284991503012
 20
438.8703693564282
 30
0.0
  0
SPLINE
  5
184
330
17E
100
AcDbEntity
  8
Layer 1
 62
     7
420
 16777215
370
    13
100
AcDbSpline
210
0.0
220
0.0
230
1.0
 70
    11
 71
     3
 72
    29
 73
    25
 74
     0
 42
0.000000001
 43
0.0000000001
 40
0.0
 40
0.0
 40
0.0
 40
0.0
 40
1.0
 40
1.0
 40
1.0
 40
2.0
 40
2.0
 40
2.0
 40
3.0
 40
3.0
 40
3.0
 40
4.0
 40
4.0
 40
4.0
 40
5.0
 40
5.0
 40
5.0
 40
6.0
 40
6.0
 40
6.0
 40
7.0
 40
7.0
 40
7.0
 40
8.0
 40
8.0
 40
8.0
 40
8.0
 10
55.67015922002344
 20
441.4135388436396
 30
0.0
 10
55.67015922002344
 20
441.4135388436396
 30
0.0
 10
57.55152586451837
 20
443.8092582440823
 30
0.0
 10
57.49278698649487
 20
443.8092582440823
 30
0.0
 10
57.43404810847136
 20
443.8092582440823
 30
0.0
 10
73.19139809368131
 20
443.8092582440823
 30
0.0
 10
73.19139809368131
 20
443.8092582440823
 30
0.0
 10
73.19139809368131
 20
443.8092582440823
 30
0.0
 10
75.0731092477248
 20
441.4135388436396
 30
0.0
 10
75.0731092477248
 20
441.4135388436396
 30
0.0
 10
75.0731092477248
 20
441.4135388436396
 30
0.0
 10
74.11743976011648
 20
436.0629610454981
 30
0.0
 10
74.11743976011648
 20
436.0629610454981
 30
0.0
 10
74.11743976011648
 20
436.0629610454981
 30
0.0
 10
72.26535642724616
 20
433.8729138455247
 30
0.0
 10
72.26535642724616
 20
433.8729138455247
 30
0.0
 10
72.26535642724616
 20
433.8729138455247
 30
0.0
 10
58.43329805396806
 20
433.8729138455247
 30
0.0
 10
58.43329805396806
 20
433.8729138455247
 30
0.0
 10
58.43329805396806
 20
433.8729138455247
 30
0.0
 10
56.5667453200597
 20
436.0040499127003
 30
0.0
 10
56.5667453200597
 20
436.0040499127003
 30
0.0
 10
56.5667453200597
 20
436.0040499127003
 30
0.0
 10
55.67015922002344
 20
441.4135388436396
 30
0.0
 10
55.67015922002344
 20
441.4135388436396
 30
0.0
  0
ENDBLK
  5
181
330
17E
100
AcDbEntity
  8
0
100
AcDbBlockEnd
  0
BLOCK
  5
187
330
185
100
AcDbEntity
  8
0
100
AcDbBlockBegin
  2
block 6
 70
     0
 10
0.0
 20
0.0
 30
0.0
  3
block 6
  1

  0
SPLINE
  5
189
330
185
100
AcDbEntity
  8
Layer 1
 62
     7
420
 16777215
370
    13
100
AcDbSpline
210
0.0
220
0.0
230
1.0
 70
    11
 71
     3
 72
    17
 73
    13
 74
     0
 42
0.000000001
 43
0.0000000001
 40
0.0
 40
0.0
 40
0.0
 40
0.0
 40
1.0
 40
1.0
 40
1.0
 40
2.0
 40
2.0
 40
2.0
 40
3.0
 40
3.0
 40
3.0
 40
4.0
 40
4.0
 40
4.0
 40
4.0
 10
94.46262340303366
 20
438.8703693564282
 30
0.0
 10
94.46262340303366
 20
439.7540363483948
 30
0.0
 10
93.7463880516502
 20
440.4702716997782
 30
0.0
 10
92.86254880490936
 20
440.4702716997782
 30
0.0
 10
91.97888181294279
 20
440.4702716997782
 30
0.0
 10
91.26247420678508
 20
439.7540363483948
 30
0.0
 10
91.26247420678508
 20
438.8703693564282
 30
0.0
 10
91.26247420678508
 20
437.9867023644615
 30
0.0
 10
91.97888181294279
 20
437.2704670130781
 30
0.0
 10
92.86254880490936
 20
437.2704670130781
 30
0.0
 10
93.7463880516502
 20
437.2704670130781
 30
0.0
 10
94.46262340303366
 20
437.9867023644615
 30
0.0
 10
94.46262340303366
 20
438.8703693564282
 30
0.0
  0
SPLINE
  5
18A
330
185
100
AcDbEntity
  8
Layer 1
 62
     7
420
 16777215
370
    13
100
AcDbSpline
210
0.0
220
0.0
230
1.0
 70
    11
 71
     3
 72
    17
 73
    13
 74
     0
 42
0.000000001
 43
0.0000000001
 40
0.0
 40
0.0
 40
0.0
 40
0.0
 40
1.0
 40
1.0
 40
1.0
 40
2.0
 40
2.0
 40
2.0
 40
3.0
 40
3.0
 40
3.0
 40
4.0
 40
4.0
 40
4.0
 40
4.0
 10
119.4628200656204
 20
438.8703693564282
 30
0.0
 10
119.4628200656204
 20
439.7540363483948
 30
0.0
 10
118.7462402046884
 20
440.4702716997782
 30
0.0
 10
117.8625732127218
 20
440.4702716997782
 30
0.0
 10
116.9789062207553
 20
440.4702716997782
 30
0.0
 10
116.2623263598233
 20
439.7540363483948
 30
0.0
 10
116.2623263598233
 20
438.8703693564282
 30
0.0
 10
116.2623263598233
 20
437.9867023644615
 30
0.0
 10
116.9789062207553
 20
437.2704670130781
 30
0.0
 10
117.8625732127218
 20
437.2704670130781
 30
0.0
 10
118.7462402046884
 20
437.2704670130781
 30
0.0
 10
119.4628200656204
 20
437.9867023644615
 30
0.0
 10
119.4628200656204
 20
438.8703693564282
 30
0.0
  0
SPLINE
  5
18B
330
185
100
AcDbEntity
  8
Layer 1
 62
     7
420
 16777215
370
    13
100
AcDbSpline
210
0.0
220
0.0
230
1.0
 70
    11
 71
     3
 72
    29
 73
    25
 74
     0
 42
0.000000001
 43
0.0000000001
 40
0.0
 40
0.0
 40
0.0
 40
0.0
 40
1.0
 40
1.0
 40
1.0
 40
2.0
 40
2.0
 40
2.0
 40
3.0
 40
3.0
 40
3.0
 40
4.0
 40
4.0
 40
4.0
 40
5.0
 40
5.0
 40
5.0
 40
6.0
 40
6.0
 40
6.0
 40
7.0
 40
7.0
 40
7.0
 40
8.0
 40
8.0
 40
8.0
 40
8.0
 10
95.67012937061372
 20
441.4135388436396
 30
0.0
 10
95.67012937061372
 20
441.4135388436396
 30
0.0
 10
97.55149601510865
 20
443.8092582440823
 30
0.0
 10
97.49275713708515
 20
443.8092582440823
 30
0.0
 10
97.43401825906165
 20
443.8092582440823
 30
0.0
 10
113.1913682442716
 20
443.8092582440823
 30
0.0
 10
113.1913682442716
 20
443.8092582440823
 30
0.0
 10
113.1913682442716
 20
443.8092582440823
 30
0.0
 10
115.0730793983151
 20
441.4135388436396
 30
0.0
 10
115.0730793983151
 20
441.4135388436396
 30
0.0
 10
115.0730793983151
 20
441.4135388436396
 30
0.0
 10
114.1174099107068
 20
436.0629610454981
 30
0.0
 10
114.1174099107068
 20
436.0629610454981
 30
0.0
 10
114.1174099107068
 20
436.0629610454981
 30
0.0
 10
112.2653265778364
 20
433.8729138455247
 30
0.0
 10
112.2653265778364
 20
433.8729138455247
 30
0.0
 10
112.2653265778364
 20
433.8729138455247
 30
0.0
 10
98.43326820455835
 20
433.8729138455247
 30
0.0
 10
98.43326820455835
 20
433.8729138455247
 30
0.0
 10
98.43326820455835
 20
433.8729138455247
 30
0.0
 10
96.56671547065002
 20
436.0040499127003
 30
0.0
 10
96.56671547065002
 20
436.0040499127003
 30
0.0
 10
96.56671547065002
 20
436.0040499127003
 30
0.0
 10
95.67012937061372
 20
441.4135388436396
 30
0.0
 10
95.67012937061372
 20
441.4135388436396
 30
0.0
  0
ENDBLK
  5
188
330
185
100
AcDbEntity
  8
0
100
AcDbBlockEnd
  0
BLOCK
  5
18E
330
18C
100
AcDbEntity
  8
0
100
AcDbBlockBegin
  2
block 7
 70
     0
 10
0.0
 20
0.0
 30
0.0
  3
block 7
  1

  0
SPLINE
  5
190
330
18C
100
AcDbEntity
  8
Layer 1
 62
     7
420
 16777215
370
    13
100
AcDbSpline
210
0.0
220
0.0
230
1.0
 70
    11
 71
     3
 72
    17
 73
    13
 74
     0
 42
0.000000001
 43
0.0000000001
 40
0.0
 40
0.0
 40
0.0
 40
0.0
 40
1.0
 40
1.0
 40
1.0
 40
2.0
 40
2.0
 40
2.0
 40
3.0
 40
3.0
 40
3.0
 40
4.0
 40
4.0
 40
4.0
 40
4.0
 10
134.4625935536239
 20
438.8703693564282
 30
0.0
 10
134.4625935536239
 20
439.7540363483948
 30
0.0
 10
133.7463582022405
 20
440.4702716997782
 30
0.0
 10
132.8625189554996
 20
440.4702716997782
 30
0.0
 10
131.978851963533
 20
440.4702716997782
 30
0.0
 10
131.2624443573753
 20
439.7540363483948
 30
0.0
 10
131.2624443573753
 20
438.8703693564282
 30
0.0
 10
131.2624443573753
 20
437.9867023644615
 30
0.0
 10
131.978851963533
 20
437.2704670130781
 30
0.0
 10
132.8625189554996
 20
437.2704670130781
 30
0.0
 10
133.7463582022405
 20
437.2704670130781
 30
0.0
 10
134.4625935536239
 20
437.9867023644615
 30
0.0
 10
134.4625935536239
 20
438.8703693564282
 30
0.0
  0
SPLINE
  5
191
330
18C
100
AcDbEntity
  8
Layer 1
 62
     7
420
 16777215
370
    13
100
AcDbSpline
210
0.0
220
0.0
230
1.0
 70
    11
 71
     3
 72
    17
 73
    13
 74
     0
 42
0.000000001
 43
0.0000000001
 40
0.0
 40
0.0
 40
0.0
 40
0.0
 40
1.0
 40
1.0
 40
1.0
 40
2.0
 40
2.0
 40
2.0
 40
3.0
 40
3.0
 40
3.0
 40
4.0
 40
4.0
 40
4.0
 40
4.0
 10
159.4627902162107
 20
438.8703693564282
 30
0.0
 10
159.4627902162107
 20
439.7540363483948
 30
0.0
 10
158.7462103552787
 20
440.4702716997782
 30
0.0
 10
157.8625433633121
 20
440.4702716997782
 30
0.0
 10
156.9788763713455
 20
440.4702716997782
 30
0.0
 10
156.2622965104136
 20
439.7540363483948
 30
0.0
 10
156.2622965104136
 20
438.8703693564282
 30
0.0
 10
156.2622965104136
 20
437.9867023644615
 30
0.0
 10
156.9788763713455
 20
437.2704670130781
 30
0.0
 10
157.8625433633121
 20
437.2704670130781
 30
0.0
 10
158.7462103552787
 20
437.2704670130781
 30
0.0
 10
159.4627902162107
 20
437.9867023644615
 30
0.0
 10
159.4627902162107
 20
438.8703693564282
 30
0.0
  0
SPLINE
  5
192
330
18C
100
AcDbEntity
  8
Layer 1
 62
     7
420
 16777215
370
    13
100
AcDbSpline
210
0.0
220
0.0
230
1.0
 70
    11
 71
     3
 72
    29
 73
    25
 74
     0
 42
0.000000001
 43
0.0000000001
 40
0.0
 40
0.0
 40
0.0
 40
0.0
 40
1.0
 40
1.0
 40
1.0
 40
2.0
 40
2.0
 40
2.0
 40
3.0
 40
3.0
 40
3.0
 40
4.0
 40
4.0
 40
4.0
 40
5.0
 40
5.0
 40
5.0
 40
6.0
 40
6.0
 40
6.0
 40
7.0
 40
7.0
 40
7.0
 40
8.0
 40
8.0
 40
8.0
 40
8.0
 10
135.670099521204
 20
441.4135388436396
 30
0.0
 10
135.670099521204
 20
441.4135388436396
 30
0.0
 10
137.5514661656989
 20
443.8092582440823
 30
0.0
 10
137.4927272876754
 20
443.8092582440823
 30
0.0
 10
137.4339884096519
 20
443.8092582440823
 30
0.0
 10
153.1913383948619
 20
443.8092582440823
 30
0.0
 10
153.1913383948619
 20
443.8092582440823
 30
0.0
 10
153.1913383948619
 20
443.8092582440823
 30
0.0
 10
155.0730495489053
 20
441.4135388436396
 30
0.0
 10
155.0730495489053
 20
441.4135388436396
 30
0.0
 10
155.0730495489053
 20
441.4135388436396
 30
0.0
 10
154.117380061297
 20
436.0629610454981
 30
0.0
 10
154.117380061297
 20
436.0629610454981
 30
0.0
 10
154.117380061297
 20
436.0629610454981
 30
0.0
 10
152.2652967284266
 20
433.8729138455247
 30
0.0
 10
152.2652967284266
 20
433.8729138455247
 30
0.0
 10
152.2652967284266
 20
433.8729138455247
 30
0.0
 10
138.4332383551486
 20
433.8729138455247
 30
0.0
 10
138.4332383551486
 20
433.8729138455247
 30
0.0
 10
138.4332383551486
 20
433.8729138455247
 30
0.0
 10
136.5666856212403
 20
436.0040499127003
 30
0.0
 10
136.5666856212403
 20
436.0040499127003
 30
0.0
 10
136.5666856212403
 20
436.0040499127003
 30
0.0
 10
135.670099521204
 20
441.4135388436396
 30
0.0
 10
135.670099521204
 20
441.4135388436396
 30
0.0
  0
ENDBLK
  5
18F
330
18C
100
AcDbEntity
  8
0
100
AcDbBlockEnd
  0
BLOCK
  5
195
330
193
100
AcDbEntity
  8
0
100
AcDbBlockBegin
  2
block 8
 70
     0
 10
0.0
 20
0.0
 30
0.0
  3
block 8
  1

  0
SPLINE
  5
197
330
193
100
AcDbEntity
  8
Layer 1
 62
     7
420
 16777215
370
    13
100
AcDbSpline
210
0.0
220
0.0
230
1.0
 70
    11
 71
     3
 72
    17
 73
    13
 74
     0
 42
0.000000001
 43
0.0000000001
 40
0.0
 40
0.0
 40
0.0
 40
0.0
 40
1.0
 40
1.0
 40
1.0
 40
2.0
 40
2.0
 40
2.0
 40
3.0
 40
3.0
 40
3.0
 40
4.0
 40
4.0
 40
4.0
 40
4.0
 10
94.46262340303366
 20
411.9772649794708
 30
0.0
 10
94.46262340303366
 20
412.8609319714375
 30
0.0
 10
93.7463880516502
 20
413.577167322821
 30
0.0
 10
92.86254880490936
 20
413.577167322821
 30
0.0
 10
91.97888181294279
 20
413.577167322821
 30
0.0
 10
91.26247420678508
 20
412.8609319714375
 30
0.0
 10
91.26247420678508
 20
411.9772649794708
 30
0.0
 10
91.26247420678508
 20
411.0935979875042
 30
0.0
 10
91.97888181294279
 20
410.3773626361208
 30
0.0
 10
92.86254880490936
 20
410.3773626361208
 30
0.0
 10
93.7463880516502
 20
410.3773626361208
 30
0.0
 10
94.46262340303366
 20
411.0935979875042
 30
0.0
 10
94.46262340303366
 20
411.9772649794708
 30
0.0
  0
SPLINE
  5
198
330
193
100
AcDbEntity
  8
Layer 1
 62
     7
420
 16777215
370
    13
100
AcDbSpline
210
0.0
220
0.0
230
1.0
 70
    11
 71
     3
 72
    17
 73
    13
 74
     0
 42
0.000000001
 43
0.0000000001
 40
0.0
 40
0.0
 40
0.0
 40
0.0
 40
1.0
 40
1.0
 40
1.0
 40
2.0
 40
2.0
 40
2.0
 40
3.0
 40
3.0
 40
3.0
 40
4.0
 40
4.0
 40
4.0
 40
4.0
 10
119.4628200656204
 20
411.9772649794708
 30
0.0
 10
119.4628200656204
 20
412.8609319714375
 30
0.0
 10
118.7462402046884
 20
413.577167322821
 30
0.0
 10
117.8625732127218
 20
413.577167322821
 30
0.0
 10
116.9789062207553
 20
413.577167322821
 30
0.0
 10
116.2623263598233
 20
412.8609319714375
 30
0.0
 10
116.2623263598233
 20
411.9772649794708
 30
0.0
 10
116.2623263598233
 20
411.0935979875042
 30
0.0
 10
116.9789062207553
 20
410.3773626361208
 30
0.0
 10
117.8625732127218
 20
410.3773626361208
 30
0.0
 10
118.7462402046884
 20
410.3773626361208
 30
0.0
 10
119.4628200656204
 20
411.0935979875042
 30
0.0
 10
119.4628200656204
 20
411.9772649794708
 30
0.0
  0
SPLINE
  5
199
330
193
100
AcDbEntity
  8
Layer 1
 62
     7
420
 16777215
370
    13
100
AcDbSpline
210
0.0
220
0.0
230
1.0
 70
    11
 71
     3
 72
    29
 73
    25
 74
     0
 42
0.000000001
 43
0.0000000001
 40
0.0
 40
0.0
 40
0.0
 40
0.0
 40
1.0
 40
1.0
 40
1.0
 40
2.0
 40
2.0
 40
2.0
 40
3.0
 40
3.0
 40
3.0
 40
4.0
 40
4.0
 40
4.0
 40
5.0
 40
5.0
 40
5.0
 40
6.0
 40
6.0
 40
6.0
 40
7.0
 40
7.0
 40
7.0
 40
8.0
 40
8.0
 40
8.0
 40
8.0
 10
95.67012937061372
 20
414.5204344666822
 30
0.0
 10
95.67012937061372
 20
414.5204344666822
 30
0.0
 10
97.55149601510865
 20
416.9161538671251
 30
0.0
 10
97.49275713708515
 20
416.9161538671251
 30
0.0
 10
97.43401825906165
 20
416.9161538671251
 30
0.0
 10
113.1913682442716
 20
416.9161538671251
 30
0.0
 10
113.1913682442716
 20
416.9161538671251
 30
0.0
 10
113.1913682442716
 20
416.9161538671251
 30
0.0
 10
115.0730793983151
 20
414.5204344666822
 30
0.0
 10
115.0730793983151
 20
414.5204344666822
 30
0.0
 10
115.0730793983151
 20
414.5204344666822
 30
0.0
 10
114.1174099107068
 20
409.1698566685407
 30
0.0
 10
114.1174099107068
 20
409.1698566685407
 30
0.0
 10
114.1174099107068
 20
409.1698566685407
 30
0.0
 10
112.2653265778364
 20
406.9798094685674
 30
0.0
 10
112.2653265778364
 20
406.9798094685674
 30
0.0
 10
112.2653265778364
 20
406.9798094685674
 30
0.0
 10
98.43326820455835
 20
406.9798094685674
 30
0.0
 10
98.43326820455835
 20
406.9798094685674
 30
0.0
 10
98.43326820455835
 20
406.9798094685674
 30
0.0
 10
96.56671547065002
 20
409.1109455357431
 30
0.0
 10
96.56671547065002
 20
409.1109455357431
 30
0.0
 10
96.56671547065002
 20
409.1109455357431
 30
0.0
 10
95.67012937061372
 20
414.5204344666822
 30
0.0
 10
95.67012937061372
 20
414.5204344666822
 30
0.0
  0
ENDBLK
  5
196
330
193
100
AcDbEntity
  8
0
100
AcDbBlockEnd
  0
BLOCK
  5
19C
330
19A
100
AcDbEntity
  8
0
100
AcDbBlockBegin
  2
block 9
 70
     0
 10
0.0
 20
0.0
 30
0.0
  3
block 9
  1

  0
SPLINE
  5
19E
330
19A
100
AcDbEntity
  8
Layer 1
 62
     7
420
 16777215
370
    13
100
AcDbSpline
210
0.0
220
0.0
230
1.0
 70
    11
 71
     3
 72
    17
 73
    13
 74
     0
 42
0.000000001
 43
0.0000000001
 40
0.0
 40
0.0
 40
0.0
 40
0.0
 40
1.0
 40
1.0
 40
1.0
 40
2.0
 40
2.0
 40
2.0
 40
3.0
 40
3.0
 40
3.0
 40
4.0
 40
4.0
 40
4.0
 40
4.0
 10
134.4625935536239
 20
411.9772649794708
 30
0.0
 10
134.4625935536239
 20
412.8609319714375
 30
0.0
 10
133.7463582022405
 20
413.577167322821
 30
0.0
 10
132.8625189554996
 20
413.577167322821
 30
0.0
 10
131.978851963533
 20
413.577167322821
 30
0.0
 10
131.2624443573753
 20
412.8609319714375
 30
0.0
 10
131.2624443573753
 20
411.9772649794708
 30
0.0
 10
131.2624443573753
 20
411.0935979875042
 30
0.0
 10
131.978851963533
 20
410.3773626361208
 30
0.0
 10
132.8625189554996
 20
410.3773626361208
 30
0.0
 10
133.7463582022405
 20
410.3773626361208
 30
0.0
 10
134.4625935536239
 20
411.0935979875042
 30
0.0
 10
134.4625935536239
 20
411.9772649794708
 30
0.0
  0
SPLINE
  5
19F
330
19A
100
AcDbEntity
  8
Layer 1
 62
     7
420
 16777215
370
    13
100
AcDbSpline
210
0.0
220
0.0
230
1.0
 70
    11
 71
     3
 72
    17
 73
    13
 74
     0
 42
0.000000001
 43
0.0000000001
 40
0.0
 40
0.0
 40
0.0
 40
0.0
 40
1.0
 40
1.0
 40
1.0
 40
2.0
 40
2.0
 40
2.0
 40
3.0
 40
3.0
 40
3.0
 40
4.0
 40
4.0
 40
4.0
 40
4.0
 10
159.4627902162107
 20
411.9772649794708
 30
0.0
 10
159.4627902162107
 20
412.8609319714375
 30
0.0
 10
158.7462103552787
 20
413.577167322821
 30
0.0
 10
157.8625433633121
 20
413.577167322821
 30
0.0
 10
156.9788763713455
 20
413.577167322821
 30
0.0
 10
156.2622965104136
 20
412.8609319714375
 30
0.0
 10
156.2622965104136
 20
411.9772649794708
 30
0.0
 10
156.2622965104136
 20
411.0935979875042
 30
0.0
 10
156.9788763713455
 20
410.3773626361208
 30
0.0
 10
157.8625433633121
 20
410.3773626361208
 30
0.0
 10
158.7462103552787
 20
410.3773626361208
 30
0.0
 10
159.4627902162107
 20
411.0935979875042
 30
0.0
 10
159.4627902162107
 20
411.9772649794708
 30
0.0
  0
SPLINE
  5
1A0
330
19A
100
AcDbEntity
  8
Layer 1
 62
     7
420
 16777215
370
    13
100
AcDbSpline
210
0.0
220
0.0
230
1.0
 70
    11
 71
     3
 72
    29
 73
    25
 74
     0
 42
0.000000001
 43
0.0000000001
 40
0.0
 40
0.0
 40
0.0
 40
0.0
 40
1.0
 40
1.0
 40
1.0
 40
2.0
 40
2.0
 40
2.0
 40
3.0
 40
3.0
 40
3.0
 40
4.0
 40
4.0
 40
4.0
 40
5.0
 40
5.0
 40
5.0
 40
6.0
 40
6.0
 40
6.0
 40
7.0
 40
7.0
 40
7.0
 40
8.0
 40
8.0
 40
8.0
 40
8.0
 10
135.670099521204
 20
414.5204344666822
 30
0.0
 10
135.670099521204
 20
414.5204344666822
 30
0.0
 10
137.5514661656989
 20
416.9161538671251
 30
0.0
 10
137.4927272876754
 20
416.9161538671251
 30
0.0
 10
137.4339884096519
 20
416.9161538671251
 30
0.0
 10
153.1913383948619
 20
416.9161538671251
 30
0.0
 10
153.1913383948619
 20
416.9161538671251
 30
0.0
 10
153.1913383948619
 20
416.9161538671251
 30
0.0
 10
155.0730495489053
 20
414.5204344666822
 30
0.0
 10
155.0730495489053
 20
414.5204344666822
 30
0.0
 10
155.0730495489053
 20
414.5204344666822
 30
0.0
 10
154.117380061297
 20
409.1698566685407
 30
0.0
 10
154.117380061297
 20
409.1698566685407
 30
0.0
 10
154.117380061297
 20
409.1698566685407
 30
0.0
 10
152.2652967284266
 20
406.9798094685674
 30
0.0
 10
152.2652967284266
 20
406.9798094685674
 30
0.0
 10
152.2652967284266
 20
406.9798094685674
 30
0.0
 10
138.4332383551486
 20
406.9798094685674
 30
0.0
 10
138.4332383551486
 20
406.9798094685674
 30
0.0
 10
138.4332383551486
 20
406.9798094685674
 30
0.0
 10
136.5666856212403
 20
409.1109455357431
 30
0.0
 10
136.5666856212403
 20
409.1109455357431
 30
0.0
 10
136.5666856212403
 20
409.1109455357431
 30
0.0
 10
135.670099521204
 20
414.5204344666822
 30
0.0
 10
135.670099521204
 20
414.5204344666822
 30
0.0
  0
ENDBLK
  5
19D
330
19A
100
AcDbEntity
  8
0
100
AcDbBlockEnd
  0
BLOCK
  5
1A3
330
1A1
100
AcDbEntity
  8
0
100
AcDbBlockBegin
  2
block 10
 70
     0
 10
0.0
 20
0.0
 30
0.0
  3
block 10
  1

  0
SPLINE
  5
1A5
330
1A1
100
AcDbEntity
  8
Layer 1
 62
     7
420
 16777215
370
    13
100
AcDbSpline
210
0.0
220
0.0
230
1.0
 70
    11
 71
     3
 72
    17
 73
    13
 74
     0
 42
0.000000001
 43
0.0000000001
 40
0.0
 40
0.0
 40
0.0
 40
0.0
 40
1.0
 40
1.0
 40
1.0
 40
2.0
 40
2.0
 40
2.0
 40
3.0
 40
3.0
 40
3.0
 40
4.0
 40
4.0
 40
4.0
 40
4.0
 10
54.46265325244336
 20
411.9772649794708
 30
0.0
 10
54.46265325244336
 20
412.8609319714375
 30
0.0
 10
53.74641790105993
 20
413.577167322821
 30
0.0
 10
52.86257865431908
 20
413.577167322821
 30
0.0
 10
51.97891166235249
 20
413.577167322821
 30
0.0
 10
51.26250405619479
 20
412.8609319714375
 30
0.0
 10
51.26250405619479
 20
411.9772649794708
 30
0.0
 10
51.26250405619479
 20
411.0935979875042
 30
0.0
 10
51.97891166235249
 20
410.3773626361208
 30
0.0
 10
52.86257865431908
 20
410.3773626361208
 30
0.0
 10
53.74641790105993
 20
410.3773626361208
 30
0.0
 10
54.46265325244336
 20
411.0935979875042
 30
0.0
 10
54.46265325244336
 20
411.9772649794708
 30
0.0
  0
SPLINE
  5
1A6
330
1A1
100
AcDbEntity
  8
Layer 1
 62
     7
420
 16777215
370
    13
100
AcDbSpline
210
0.0
220
0.0
230
1.0
 70
    11
 71
     3
 72
    17
 73
    13
 74
     0
 42
0.000000001
 43
0.0000000001
 40
0.0
 40
0.0
 40
0.0
 40
0.0
 40
1.0
 40
1.0
 40
1.0
 40
2.0
 40
2.0
 40
2.0
 40
3.0
 40
3.0
 40
3.0
 40
4.0
 40
4.0
 40
4.0
 40
4.0
 10
79.46284991503012
 20
411.9772649794708
 30
0.0
 10
79.46284991503012
 20
412.8609319714375
 30
0.0
 10
78.74627005409816
 20
413.577167322821
 30
0.0
 10
77.86260306213157
 20
413.577167322821
 30
0.0
 10
76.97893607016499
 20
413.577167322821
 30
0.0
 10
76.26235620923302
 20
412.8609319714375
 30
0.0
 10
76.26235620923302
 20
411.9772649794708
 30
0.0
 10
76.26235620923302
 20
411.0935979875042
 30
0.0
 10
76.97893607016499
 20
410.3773626361208
 30
0.0
 10
77.86260306213157
 20
410.3773626361208
 30
0.0
 10
78.74627005409816
 20
410.3773626361208
 30
0.0
 10
79.46284991503012
 20
411.0935979875042
 30
0.0
 10
79.46284991503012
 20
411.9772649794708
 30
0.0
  0
SPLINE
  5
1A7
330
1A1
100
AcDbEntity
  8
Layer 1
 62
     7
420
 16777215
370
    13
100
AcDbSpline
210
0.0
220
0.0
230
1.0
 70
    11
 71
     3
 72
    29
 73
    25
 74
     0
 42
0.000000001
 43
0.0000000001
 40
0.0
 40
0.0
 40
0.0
 40
0.0
 40
1.0
 40
1.0
 40
1.0
 40
2.0
 40
2.0
 40
2.0
 40
3.0
 40
3.0
 40
3.0
 40
4.0
 40
4.0
 40
4.0
 40
5.0
 40
5.0
 40
5.0
 40
6.0
 40
6.0
 40
6.0
 40
7.0
 40
7.0
 40
7.0
 40
8.0
 40
8.0
 40
8.0
 40
8.0
 10
55.67015922002344
 20
414.5204344666822
 30
0.0
 10
55.67015922002344
 20
414.5204344666822
 30
0.0
 10
57.55152586451837
 20
416.9161538671251
 30
0.0
 10
57.49278698649487
 20
416.9161538671251
 30
0.0
 10
57.43404810847136
 20
416.9161538671251
 30
0.0
 10
73.19139809368131
 20
416.9161538671251
 30
0.0
 10
73.19139809368131
 20
416.9161538671251
 30
0.0
 10
73.19139809368131
 20
416.9161538671251
 30
0.0
 10
75.0731092477248
 20
414.5204344666822
 30
0.0
 10
75.0731092477248
 20
414.5204344666822
 30
0.0
 10
75.0731092477248
 20
414.5204344666822
 30
0.0
 10
74.11743976011648
 20
409.1698566685407
 30
0.0
 10
74.11743976011648
 20
409.1698566685407
 30
0.0
 10
74.11743976011648
 20
409.1698566685407
 30
0.0
 10
72.26535642724616
 20
406.9798094685674
 30
0.0
 10
72.26535642724616
 20
406.9798094685674
 30
0.0
 10
72.26535642724616
 20
406.9798094685674
 30
0.0
 10
58.43329805396806
 20
406.9798094685674
 30
0.0
 10
58.43329805396806
 20
406.9798094685674
 30
0.0
 10
58.43329805396806
 20
406.9798094685674
 30
0.0
 10
56.5667453200597
 20
409.1109455357431
 30
0.0
 10
56.5667453200597
 20
409.1109455357431
 30
0.0
 10
56.5667453200597
 20
409.1109455357431
 30
0.0
 10
55.67015922002344
 20
414.5204344666822
 30
0.0
 10
55.67015922002344
 20
414.5204344666822
 30
0.0
  0
ENDBLK
  5
1A4
330
1A1
100
AcDbEntity
  8
0
100
AcDbBlockEnd
  0
ENDSEC
  0
SECTION
  2
ENTITIES
  0
INSERT
  5
131
330
1F
100
AcDbEntity
  8
Layer 1
100
AcDbBlockReference
  2
block 2
 10
0.0
 20
0.0
 30
0.0
  0
SPLINE
  5
2AB
330
1F
100
AcDbEntity
  8
Layer 1
 62
     7
420
 16777215
370
    13
100
AcDbSpline
210
0.0
220
0.0
230
1.0
 70
    11
 71
     3
 72
    17
 73
    13
 74
     0
 42
0.000000001
 43
0.0000000001
 40
0.0
 40
0.0
 40
0.0
 40
0.0
 40
1.0
 40
1.0
 40
1.0
 40
2.0
 40
2.0
 40
2.0
 40
3.0
 40
3.0
 40
3.0
 40
4.0
 40
4.0
 40
4.0
 40
4.0
 10
54.46265325244336
 20
438.8703693564282
 30
0.0
 10
54.46265325244336
 20
439.7540363483948
 30
0.0
 10
53.74641790105993
 20
440.4702716997782
 30
0.0
 10
52.86257865431908
 20
440.4702716997782
 30
0.0
 10
51.97891166235249
 20
440.4702716997782
 30
0.0
 10
51.26250405619479
 20
439.7540363483948
 30
0.0
 10
51.26250405619479
 20
438.8703693564282
 30
0.0
 10
51.26250405619479
 20
437.9867023644615
 30
0.0
 10
51.97891166235249
 20
437.2704670130781
 30
0.0
 10
52.86257865431908
 20
437.2704670130781
 30
0.0
 10
53.74641790105993
 20
437.2704670130781
 30
0.0
 10
54.46265325244336
 20
437.9867023644615
 30
0.0
 10
54.46265325244336
 20
438.8703693564282
 30
0.0
  0
SPLINE
  5
2AC
330
1F
100
AcDbEntity
  8
Layer 1
 62
     7
420
 16777215
370
    13
100
AcDbSpline
210
0.0
220
0.0
230
1.0
 70
    11
 71
     3
 72
    17
 73
    13
 74
     0
 42
0.000000001
 43
0.0000000001
 40
0.0
 40
0.0
 40
0.0
 40
0.0
 40
1.0
 40
1.0
 40
1.0
 40
2.0
 40
2.0
 40
2.0
 40
3.0
 40
3.0
 40
3.0
 40
4.0
 40
4.0
 40
4.0
 40
4.0
 10
79.46284991503012
 20
438.8703693564282
 30
0.0
 10
79.46284991503012
 20
439.7540363483948
 30
0.0
 10
78.74627005409816
 20
440.4702716997782
 30
0.0
 10
77.86260306213157
 20
440.4702716997782
 30
0.0
 10
76.97893607016499
 20
440.4702716997782
 30
0.0
 10
76.26235620923302
 20
439.7540363483948
 30
0.0
 10
76.26235620923302
 20
438.8703693564282
 30
0.0
 10
76.26235620923302
 20
437.9867023644615
 30
0.0
 10
76.97893607016499
 20
437.2704670130781
 30
0.0
 10
77.86260306213157
 20
437.2704670130781
 30
0.0
 10
78.74627005409816
 20
437.2704670130781
 30
0.0
 10
79.46284991503012
 20
437.9867023644615
 30
0.0
 10
79.46284991503012
 20
438.8703693564282
 30
0.0
  0
SPLINE
  5
2AD
330
1F
100
AcDbEntity
  8
Layer 1
 62
     7
420
 16777215
370
    13
100
AcDbSpline
210
0.0
220
0.0
230
1.0
 70
    11
 71
     3
 72
    29
 73
    25
 74
     0
 42
0.000000001
 43
0.0000000001
 40
0.0
 40
0.0
 40
0.0
 40
0.0
 40
1.0
 40
1.0
 40
1.0
 40
2.0
 40
2.0
 40
2.0
 40
3.0
 40
3.0
 40
3.0
 40
4.0
 40
4.0
 40
4.0
 40
5.0
 40
5.0
 40
5.0
 40
6.0
 40
6.0
 40
6.0
 40
7.0
 40
7.0
 40
7.0
 40
8.0
 40
8.0
 40
8.0
 40
8.0
 10
55.67015922002344
 20
441.4135388436396
 30
0.0
 10
55.67015922002344
 20
441.4135388436396
 30
0.0
 10
57.55152586451837
 20
443.8092582440823
 30
0.0
 10
57.49278698649487
 20
443.8092582440823
 30
0.0
 10
57.43404810847136
 20
443.8092582440823
 30
0.0
 10
73.19139809368131
 20
443.8092582440823
 30
0.0
 10
73.19139809368131
 20
443.8092582440823
 30
0.0
 10
73.19139809368131
 20
443.8092582440823
 30
0.0
 10
75.0731092477248
 20
441.4135388436396
 30
0.0
 10
75.0731092477248
 20
441.4135388436396
 30
0.0
 10
75.0731092477248
 20
441.4135388436396
 30
0.0
 10
74.11743976011648
 20
436.0629610454981
 30
0.0
 10
74.11743976011648
 20
436.0629610454981
 30
0.0
 10
74.11743976011648
 20
436.0629610454981
 30
0.0
 10
72.26535642724616
 20
433.8729138455247
 30
0.0
 10
72.26535642724616
 20
433.8729138455247
 30
0.0
 10
72.26535642724616
 20
433.8729138455247
 30
0.0
 10
58.43329805396806
 20
433.8729138455247
 30
0.0
 10
58.43329805396806
 20
433.8729138455247
 30
0.0
 10
58.43329805396806
 20
433.8729138455247
 30
0.0
 10
56.5667453200597
 20
436.0040499127003
 30
0.0
 10
56.5667453200597
 20
436.0040499127003
 30
0.0
 10
56.5667453200597
 20
436.0040499127003
 30
0.0
 10
55.67015922002344
 20
441.4135388436396
 30
0.0
 10
55.67015922002344
 20
441.4135388436396
 30
0.0
  0
SPLINE
  5
2AE
330
1F
100
AcDbEntity
  8
Layer 1
 62
     7
420
 16777215
370
    13
100
AcDbSpline
210
0.0
220
0.0
230
1.0
 70
    11
 71
     3
 72
    17
 73
    13
 74
     0
 42
0.000000001
 43
0.0000000001
 40
0.0
 40
0.0
 40
0.0
 40
0.0
 40
1.0
 40
1.0
 40
1.0
 40
2.0
 40
2.0
 40
2.0
 40
3.0
 40
3.0
 40
3.0
 40
4.0
 40
4.0
 40
4.0
 40
4.0
 10
94.46262340303366
 20
438.8703693564282
 30
0.0
 10
94.46262340303366
 20
439.7540363483948
 30
0.0
 10
93.7463880516502
 20
440.4702716997782
 30
0.0
 10
92.86254880490936
 20
440.4702716997782
 30
0.0
 10
91.97888181294279
 20
440.4702716997782
 30
0.0
 10
91.26247420678508
 20
439.7540363483948
 30
0.0
 10
91.26247420678508
 20
438.8703693564282
 30
0.0
 10
91.26247420678508
 20
437.9867023644615
 30
0.0
 10
91.97888181294279
 20
437.2704670130781
 30
0.0
 10
92.86254880490936
 20
437.2704670130781
 30
0.0
 10
93.7463880516502
 20
437.2704670130781
 30
0.0
 10
94.46262340303366
 20
437.9867023644615
 30
0.0
 10
94.46262340303366
 20
438.8703693564282
 30
0.0
  0
SPLINE
  5
2AF
330
1F
100
AcDbEntity
  8
Layer 1
 62
     7
420
 16777215
370
    13
100
AcDbSpline
210
0.0
220
0.0
230
1.0
 70
    11
 71
     3
 72
    17
 73
    13
 74
     0
 42
0.000000001
 43
0.0000000001
 40
0.0
 40
0.0
 40
0.0
 40
0.0
 40
1.0
 40
1.0
 40
1.0
 40
2.0
 40
2.0
 40
2.0
 40
3.0
 40
3.0
 40
3.0
 40
4.0
 40
4.0
 40
4.0
 40
4.0
 10
119.4628200656204
 20
438.8703693564282
 30
0.0
 10
119.4628200656204
 20
439.7540363483948
 30
0.0
 10
118.7462402046884
 20
440.4702716997782
 30
0.0
 10
117.8625732127218
 20
440.4702716997782
 30
0.0
 10
116.9789062207553
 20
440.4702716997782
 30
0.0
 10
116.2623263598233
 20
439.7540363483948
 30
0.0
 10
116.2623263598233
 20
438.8703693564282
 30
0.0
 10
116.2623263598233
 20
437.9867023644615
 30
0.0
 10
116.9789062207553
 20
437.2704670130781
 30
0.0
 10
117.8625732127218
 20
437.2704670130781
 30
0.0
 10
118.7462402046884
 20
437.2704670130781
 30
0.0
 10
119.4628200656204
 20
437.9867023644615
 30
0.0
 10
119.4628200656204
 20
438.8703693564282
 30
0.0
  0
SPLINE
  5
2B0
330
1F
100
AcDbEntity
  8
Layer 1
 62
     7
420
 16777215
370
    13
100
AcDbSpline
210
0.0
220
0.0
230
1.0
 70
    11
 71
     3
 72
    29
 73
    25
 74
     0
 42
0.000000001
 43
0.0000000001
 40
0.0
 40
0.0
 40
0.0
 40
0.0
 40
1.0
 40
1.0
 40
1.0
 40
2.0
 40
2.0
 40
2.0
 40
3.0
 40
3.0
 40
3.0
 40
4.0
 40
4.0
 40
4.0
 40
5.0
 40
5.0
 40
5.0
 40
6.0
 40
6.0
 40
6.0
 40
7.0
 40
7.0
 40
7.0
 40
8.0
 40
8.0
 40
8.0
 40
8.0
 10
95.67012937061372
 20
441.4135388436396
 30
0.0
 10
95.67012937061372
 20
441.4135388436396
 30
0.0
 10
97.55149601510865
 20
443.8092582440823
 30
0.0
 10
97.49275713708515
 20
443.8092582440823
 30
0.0
 10
97.43401825906165
 20
443.8092582440823
 30
0.0
 10
113.1913682442716
 20
443.8092582440823
 30
0.0
 10
113.1913682442716
 20
443.8092582440823
 30
0.0
 10
113.1913682442716
 20
443.8092582440823
 30
0.0
 10
115.0730793983151
 20
441.4135388436396
 30
0.0
 10
115.0730793983151
 20
441.4135388436396
 30
0.0
 10
115.0730793983151
 20
441.4135388436396
 30
0.0
 10
114.1174099107068
 20
436.0629610454981
 30
0.0
 10
114.1174099107068
 20
436.0629610454981
 30
0.0
 10
114.1174099107068
 20
436.0629610454981
 30
0.0
 10
112.2653265778364
 20
433.8729138455247
 30
0.0
 10
112.2653265778364
 20
433.8729138455247
 30
0.0
 10
112.2653265778364
 20
433.8729138455247
 30
0.0
 10
98.43326820455835
 20
433.8729138455247
 30
0.0
 10
98.43326820455835
 20
433.8729138455247
 30
0.0
 10
98.43326820455835
 20
433.8729138455247
 30
0.0
 10
96.56671547065002
 20
436.0040499127003
 30
0.0
 10
96.56671547065002
 20
436.0040499127003
 30
0.0
 10
96.56671547065002
 20
436.0040499127003
 30
0.0
 10
95.67012937061372
 20
441.4135388436396
 30
0.0
 10
95.67012937061372
 20
441.4135388436396
 30
0.0
  0
SPLINE
  5
2B1
330
1F
100
AcDbEntity
  8
Layer 1
 62
     7
420
 16777215
370
    13
100
AcDbSpline
210
0.0
220
0.0
230
1.0
 70
    11
 71
     3
 72
    17
 73
    13
 74
     0
 42
0.000000001
 43
0.0000000001
 40
0.0
 40
0.0
 40
0.0
 40
0.0
 40
1.0
 40
1.0
 40
1.0
 40
2.0
 40
2.0
 40
2.0
 40
3.0
 40
3.0
 40
3.0
 40
4.0
 40
4.0
 40
4.0
 40
4.0
 10
134.4625935536239
 20
438.8703693564282
 30
0.0
 10
134.4625935536239
 20
439.7540363483948
 30
0.0
 10
133.7463582022405
 20
440.4702716997782
 30
0.0
 10
132.8625189554996
 20
440.4702716997782
 30
0.0
 10
131.978851963533
 20
440.4702716997782
 30
0.0
 10
131.2624443573753
 20
439.7540363483948
 30
0.0
 10
131.2624443573753
 20
438.8703693564282
 30
0.0
 10
131.2624443573753
 20
437.9867023644615
 30
0.0
 10
131.978851963533
 20
437.2704670130781
 30
0.0
 10
132.8625189554996
 20
437.2704670130781
 30
0.0
 10
133.7463582022405
 20
437.2704670130781
 30
0.0
 10
134.4625935536239
 20
437.9867023644615
 30
0.0
 10
134.4625935536239
 20
438.8703693564282
 30
0.0
  0
SPLINE
  5
2B2
330
1F
100
AcDbEntity
  8
Layer 1
 62
     7
420
 16777215
370
    13
100
AcDbSpline
210
0.0
220
0.0
230
1.0
 70
    11
 71
     3
 72
    17
 73
    13
 74
     0
 42
0.000000001
 43
0.0000000001
 40
0.0
 40
0.0
 40
0.0
 40
0.0
 40
1.0
 40
1.0
 40
1.0
 40
2.0
 40
2.0
 40
2.0
 40
3.0
 40
3.0
 40
3.0
 40
4.0
 40
4.0
 40
4.0
 40
4.0
 10
159.4627902162107
 20
438.8703693564282
 30
0.0
 10
159.4627902162107
 20
439.7540363483948
 30
0.0
 10
158.7462103552787
 20
440.4702716997782
 30
0.0
 10
157.8625433633121
 20
440.4702716997782
 30
0.0
 10
156.9788763713455
 20
440.4702716997782
 30
0.0
 10
156.2622965104136
 20
439.7540363483948
 30
0.0
 10
156.2622965104136
 20
438.8703693564282
 30
0.0
 10
156.2622965104136
 20
437.9867023644615
 30
0.0
 10
156.9788763713455
 20
437.2704670130781
 30
0.0
 10
157.8625433633121
 20
437.2704670130781
 30
0.0
 10
158.7462103552787
 20
437.2704670130781
 30
0.0
 10
159.4627902162107
 20
437.9867023644615
 30
0.0
 10
159.4627902162107
 20
438.8703693564282
 30
0.0
  0
SPLINE
  5
2B3
330
1F
100
AcDbEntity
  8
Layer 1
 62
     7
420
 16777215
370
    13
100
AcDbSpline
210
0.0
220
0.0
230
1.0
 70
    11
 71
     3
 72
    29
 73
    25
 74
     0
 42
0.000000001
 43
0.0000000001
 40
0.0
 40
0.0
 40
0.0
 40
0.0
 40
1.0
 40
1.0
 40
1.0
 40
2.0
 40
2.0
 40
2.0
 40
3.0
 40
3.0
 40
3.0
 40
4.0
 40
4.0
 40
4.0
 40
5.0
 40
5.0
 40
5.0
 40
6.0
 40
6.0
 40
6.0
 40
7.0
 40
7.0
 40
7.0
 40
8.0
 40
8.0
 40
8.0
 40
8.0
 10
135.670099521204
 20
441.4135388436396
 30
0.0
 10
135.670099521204
 20
441.4135388436396
 30
0.0
 10
137.5514661656989
 20
443.8092582440823
 30
0.0
 10
137.4927272876754
 20
443.8092582440823
 30
0.0
 10
137.4339884096519
 20
443.8092582440823
 30
0.0
 10
153.1913383948619
 20
443.8092582440823
 30
0.0
 10
153.1913383948619
 20
443.8092582440823
 30
0.0
 10
153.1913383948619
 20
443.8092582440823
 30
0.0
 10
155.0730495489053
 20
441.4135388436396
 30
0.0
 10
155.0730495489053
 20
441.4135388436396
 30
0.0
 10
155.0730495489053
 20
441.4135388436396
 30
0.0
 10
154.117380061297
 20
436.0629610454981
 30
0.0
 10
154.117380061297
 20
436.0629610454981
 30
0.0
 10
154.117380061297
 20
436.0629610454981
 30
0.0
 10
152.2652967284266
 20
433.8729138455247
 30
0.0
 10
152.2652967284266
 20
433.8729138455247
 30
0.0
 10
152.2652967284266
 20
433.8729138455247
 30
0.0
 10
138.4332383551486
 20
433.8729138455247
 30
0.0
 10
138.4332383551486
 20
433.8729138455247
 30
0.0
 10
138.4332383551486
 20
433.8729138455247
 30
0.0
 10
136.5666856212403
 20
436.0040499127003
 30
0.0
 10
136.5666856212403
 20
436.0040499127003
 30
0.0
 10
136.5666856212403
 20
436.0040499127003
 30
0.0
 10
135.670099521204
 20
441.4135388436396
 30
0.0
 10
135.670099521204
 20
441.4135388436396
 30
0.0
  0
SPLINE
  5
2B4
330
1F
100
AcDbEntity
  8
Layer 1
 62
     7
420
 16777215
370
    13
100
AcDbSpline
210
0.0
220
0.0
230
1.0
 70
    11
 71
     3
 72
    17
 73
    13
 74
     0
 42
0.000000001
 43
0.0000000001
 40
0.0
 40
0.0
 40
0.0
 40
0.0
 40
1.0
 40
1.0
 40
1.0
 40
2.0
 40
2.0
 40
2.0
 40
3.0
 40
3.0
 40
3.0
 40
4.0
 40
4.0
 40
4.0
 40
4.0
 10
94.46262340303366
 20
411.9772649794708
 30
0.0
 10
94.46262340303366
 20
412.8609319714375
 30
0.0
 10
93.7463880516502
 20
413.577167322821
 30
0.0
 10
92.86254880490936
 20
413.577167322821
 30
0.0
 10
91.97888181294279
 20
413.577167322821
 30
0.0
 10
91.26247420678508
 20
412.8609319714375
 30
0.0
 10
91.26247420678508
 20
411.9772649794708
 30
0.0
 10
91.26247420678508
 20
411.0935979875042
 30
0.0
 10
91.97888181294279
 20
410.3773626361208
 30
0.0
 10
92.86254880490936
 20
410.3773626361208
 30
0.0
 10
93.7463880516502
 20
410.3773626361208
 30
0.0
 10
94.46262340303366
 20
411.0935979875042
 30
0.0
 10
94.46262340303366
 20
411.9772649794708
 30
0.0
  0
SPLINE
  5
2B5
330
1F
100
AcDbEntity
  8
Layer 1
 62
     7
420
 16777215
370
    13
100
AcDbSpline
210
0.0
220
0.0
230
1.0
 70
    11
 71
     3
 72
    17
 73
    13
 74
     0
 42
0.000000001
 43
0.0000000001
 40
0.0
 40
0.0
 40
0.0
 40
0.0
 40
1.0
 40
1.0
 40
1.0
 40
2.0
 40
2.0
 40
2.0
 40
3.0
 40
3.0
 40
3.0
 40
4.0
 40
4.0
 40
4.0
 40
4.0
 10
119.4628200656204
 20
411.9772649794708
 30
0.0
 10
119.4628200656204
 20
412.8609319714375
 30
0.0
 10
118.7462402046884
 20
413.577167322821
 30
0.0
 10
117.8625732127218
 20
413.577167322821
 30
0.0
 10
116.9789062207553
 20
413.577167322821
 30
0.0
 10
116.2623263598233
 20
412.8609319714375
 30
0.0
 10
116.2623263598233
 20
411.9772649794708
 30
0.0
 10
116.2623263598233
 20
411.0935979875042
 30
0.0
 10
116.9789062207553
 20
410.3773626361208
 30
0.0
 10
117.8625732127218
 20
410.3773626361208
 30
0.0
 10
118.7462402046884
 20
410.3773626361208
 30
0.0
 10
119.4628200656204
 20
411.0935979875042
 30
0.0
 10
119.4628200656204
 20
411.9772649794708
 30
0.0
  0
SPLINE
  5
2B6
330
1F
100
AcDbEntity
  8
Layer 1
 62
     7
420
 16777215
370
    13
100
AcDbSpline
210
0.0
220
0.0
230
1.0
 70
    11
 71
     3
 72
    29
 73
    25
 74
     0
 42
0.000000001
 43
0.0000000001
 40
0.0
 40
0.0
 40
0.0
 40
0.0
 40
1.0
 40
1.0
 40
1.0
 40
2.0
 40
2.0
 40
2.0
 40
3.0
 40
3.0
 40
3.0
 40
4.0
 40
4.0
 40
4.0
 40
5.0
 40
5.0
 40
5.0
 40
6.0
 40
6.0
 40
6.0
 40
7.0
 40
7.0
 40
7.0
 40
8.0
 40
8.0
 40
8.0
 40
8.0
 10
95.67012937061372
 20
414.5204344666822
 30
0.0
 10
95.67012937061372
 20
414.5204344666822
 30
0.0
 10
97.55149601510865
 20
416.9161538671251
 30
0.0
 10
97.49275713708515
 20
416.9161538671251
 30
0.0
 10
97.43401825906165
 20
416.9161538671251
 30
0.0
 10
113.1913682442716
 20
416.9161538671251
 30
0.0
 10
113.1913682442716
 20
416.9161538671251
 30
0.0
 10
113.1913682442716
 20
416.9161538671251
 30
0.0
 10
115.0730793983151
 20
414.5204344666822
 30
0.0
 10
115.0730793983151
 20
414.5204344666822
 30
0.0
 10
115.0730793983151
 20
414.5204344666822
 30
0.0
 10
114.1174099107068
 20
409.1698566685407
 30
0.0
 10
114.1174099107068
 20
409.1698566685407
 30
0.0
 10
114.1174099107068
 20
409.1698566685407
 30
0.0
 10
112.2653265778364
 20
406.9798094685674
 30
0.0
 10
112.2653265778364
 20
406.9798094685674
 30
0.0
 10
112.2653265778364
 20
406.9798094685674
 30
0.0
 10
98.43326820455835
 20
406.9798094685674
 30
0.0
 10
98.43326820455835
 20
406.9798094685674
 30
0.0
 10
98.43326820455835
 20
406.9798094685674
 30
0.0
 10
96.56671547065002
 20
409.1109455357431
 30
0.0
 10
96.56671547065002
 20
409.1109455357431
 30
0.0
 10
96.56671547065002
 20
409.1109455357431
 30
0.0
 10
95.67012937061372
 20
414.5204344666822
 30
0.0
 10
95.67012937061372
 20
414.5204344666822
 30
0.0
  0
SPLINE
  5
2B7
330
1F
100
AcDbEntity
  8
Layer 1
 62
     7
420
 16777215
370
    13
100
AcDbSpline
210
0.0
220
0.0
230
1.0
 70
    11
 71
     3
 72
    17
 73
    13
 74
     0
 42
0.000000001
 43
0.0000000001
 40
0.0
 40
0.0
 40
0.0
 40
0.0
 40
1.0
 40
1.0
 40
1.0
 40
2.0
 40
2.0
 40
2.0
 40
3.0
 40
3.0
 40
3.0
 40
4.0
 40
4.0
 40
4.0
 40
4.0
 10
134.4625935536239
 20
411.9772649794708
 30
0.0
 10
134.4625935536239
 20
412.8609319714375
 30
0.0
 10
133.7463582022405
 20
413.577167322821
 30
0.0
 10
132.8625189554996
 20
413.577167322821
 30
0.0
 10
131.978851963533
 20
413.577167322821
 30
0.0
 10
131.2624443573753
 20
412.8609319714375
 30
0.0
 10
131.2624443573753
 20
411.9772649794708
 30
0.0
 10
131.2624443573753
 20
411.0935979875042
 30
0.0
 10
131.978851963533
 20
410.3773626361208
 30
0.0
 10
132.8625189554996
 20
410.3773626361208
 30
0.0
 10
133.7463582022405
 20
410.3773626361208
 30
0.0
 10
134.4625935536239
 20
411.0935979875042
 30
0.0
 10
134.4625935536239
 20
411.9772649794708
 30
0.0
  0
SPLINE
  5
2B8
330
1F
100
AcDbEntity
  8
Layer 1
 62
     7
420
 16777215
370
    13
100
AcDbSpline
210
0.0
220
0.0
230
1.0
 70
    11
 71
     3
 72
    17
 73
    13
 74
     0
 42
0.000000001
 43
0.0000000001
 40
0.0
 40
0.0
 40
0.0
 40
0.0
 40
1.0
 40
1.0
 40
1.0
 40
2.0
 40
2.0
 40
2.0
 40
3.0
 40
3.0
 40
3.0
 40
4.0
 40
4.0
 40
4.0
 40
4.0
 10
159.4627902162107
 20
411.9772649794708
 30
0.0
 10
159.4627902162107
 20
412.8609319714375
 30
0.0
 10
158.7462103552787
 20
413.577167322821
 30
0.0
 10
157.8625433633121
 20
413.577167322821
 30
0.0
 10
156.9788763713455
 20
413.577167322821
 30
0.0
 10
156.2622965104136
 20
412.8609319714375
 30
0.0
 10
156.2622965104136
 20
411.9772649794708
 30
0.0
 10
156.2622965104136
 20
411.0935979875042
 30
0.0
 10
156.9788763713455
 20
410.3773626361208
 30
0.0
 10
157.8625433633121
 20
410.3773626361208
 30
0.0
 10
158.7462103552787
 20
410.3773626361208
 30
0.0
 10
159.4627902162107
 20
411.0935979875042
 30
0.0
 10
159.4627902162107
 20
411.9772649794708
 30
0.0
  0
SPLINE
  5
2B9
330
1F
100
AcDbEntity
  8
Layer 1
 62
     7
420
 16777215
370
    13
100
AcDbSpline
210
0.0
220
0.0
230
1.0
 70
    11
 71
     3
 72
    29
 73
    25
 74
     0
 42
0.000000001
 43
0.0000000001
 40
0.0
 40
0.0
 40
0.0
 40
0.0
 40
1.0
 40
1.0
 40
1.0
 40
2.0
 40
2.0
 40
2.0
 40
3.0
 40
3.0
 40
3.0
 40
4.0
 40
4.0
 40
4.0
 40
5.0
 40
5.0
 40
5.0
 40
6.0
 40
6.0
 40
6.0
 40
7.0
 40
7.0
 40
7.0
 40
8.0
 40
8.0
 40
8.0
 40
8.0
 10
135.670099521204
 20
414.5204344666822
 30
0.0
 10
135.670099521204
 20
414.5204344666822
 30
0.0
 10
137.5514661656989
 20
416.9161538671251
 30
0.0
 10
137.4927272876754
 20
416.9161538671251
 30
0.0
 10
137.4339884096519
 20
416.9161538671251
 30
0.0
 10
153.1913383948619
 20
416.9161538671251
 30
0.0
 10
153.1913383948619
 20
416.9161538671251
 30
0.0
 10
153.1913383948619
 20
416.9161538671251
 30
0.0
 10
155.0730495489053
 20
414.5204344666822
 30
0.0
 10
155.0730495489053
 20
414.5204344666822
 30
0.0
 10
155.0730495489053
 20
414.5204344666822
 30
0.0
 10
154.117380061297
 20
409.1698566685407
 30
0.0
 10
154.117380061297
 20
409.1698566685407
 30
0.0
 10
154.117380061297
 20
409.1698566685407
 30
0.0
 10
152.2652967284266
 20
406.9798094685674
 30
0.0
 10
152.2652967284266
 20
406.9798094685674
 30
0.0
 10
152.2652967284266
 20
406.9798094685674
 30
0.0
 10
138.4332383551486
 20
406.9798094685674
 30
0.0
 10
138.4332383551486
 20
406.9798094685674
 30
0.0
 10
138.4332383551486
 20
406.9798094685674
 30
0.0
 10
136.5666856212403
 20
409.1109455357431
 30
0.0
 10
136.5666856212403
 20
409.1109455357431
 30
0.0
 10
136.5666856212403
 20
409.1109455357431
 30
0.0
 10
135.670099521204
 20
414.5204344666822
 30
0.0
 10
135.670099521204
 20
414.5204344666822
 30
0.0
  0
SPLINE
  5
2BA
330
1F
100
AcDbEntity
  8
Layer 1
 62
     7
420
 16777215
370
    13
100
AcDbSpline
210
0.0
220
0.0
230
1.0
 70
    11
 71
     3
 72
    17
 73
    13
 74
     0
 42
0.000000001
 43
0.0000000001
 40
0.0
 40
0.0
 40
0.0
 40
0.0
 40
1.0
 40
1.0
 40
1.0
 40
2.0
 40
2.0
 40
2.0
 40
3.0
 40
3.0
 40
3.0
 40
4.0
 40
4.0
 40
4.0
 40
4.0
 10
54.46265325244336
 20
411.9772649794708
 30
0.0
 10
54.46265325244336
 20
412.8609319714375
 30
0.0
 10
53.74641790105993
 20
413.577167322821
 30
0.0
 10
52.86257865431908
 20
413.577167322821
 30
0.0
 10
51.97891166235249
 20
413.577167322821
 30
0.0
 10
51.26250405619479
 20
412.8609319714375
 30
0.0
 10
51.26250405619479
 20
411.9772649794708
 30
0.0
 10
51.26250405619479
 20
411.0935979875042
 30
0.0
 10
51.97891166235249
 20
410.3773626361208
 30
0.0
 10
52.86257865431908
 20
410.3773626361208
 30
0.0
 10
53.74641790105993
 20
410.3773626361208
 30
0.0
 10
54.46265325244336
 20
411.0935979875042
 30
0.0
 10
54.46265325244336
 20
411.9772649794708
 30
0.0
  0
SPLINE
  5
2BB
330
1F
100
AcDbEntity
  8
Layer 1
 62
     7
420
 16777215
370
    13
100
AcDbSpline
210
0.0
220
0.0
230
1.0
 70
    11
 71
     3
 72
    17
 73
    13
 74
     0
 42
0.000000001
 43
0.0000000001
 40
0.0
 40
0.0
 40
0.0
 40
0.0
 40
1.0
 40
1.0
 40
1.0
 40
2.0
 40
2.0
 40
2.0
 40
3.0
 40
3.0
 40
3.0
 40
4.0
 40
4.0
 40
4.0
 40
4.0
 10
79.46284991503012
 20
411.9772649794708
 30
0.0
 10
79.46284991503012
 20
412.8609319714375
 30
0.0
 10
78.74627005409816
 20
413.577167322821
 30
0.0
 10
77.86260306213157
 20
413.577167322821
 30
0.0
 10
76.97893607016499
 20
413.577167322821
 30
0.0
 10
76.26235620923302
 20
412.8609319714375
 30
0.0
 10
76.26235620923302
 20
411.9772649794708
 30
0.0
 10
76.26235620923302
 20
411.0935979875042
 30
0.0
 10
76.97893607016499
 20
410.3773626361208
 30
0.0
 10
77.86260306213157
 20
410.3773626361208
 30
0.0
 10
78.74627005409816
 20
410.3773626361208
 30
0.0
 10
79.46284991503012
 20
411.0935979875042
 30
0.0
 10
79.46284991503012
 20
411.9772649794708
 30
0.0
  0
SPLINE
  5
2BC
330
1F
100
AcDbEntity
  8
Layer 1
 62
     7
420
 16777215
370
    13
100
AcDbSpline
210
0.0
220
0.0
230
1.0
 70
    11
 71
     3
 72
    29
 73
    25
 74
     0
 42
0.000000001
 43
0.0000000001
 40
0.0
 40
0.0
 40
0.0
 40
0.0
 40
1.0
 40
1.0
 40
1.0
 40
2.0
 40
2.0
 40
2.0
 40
3.0
 40
3.0
 40
3.0
 40
4.0
 40
4.0
 40
4.0
 40
5.0
 40
5.0
 40
5.0
 40
6.0
 40
6.0
 40
6.0
 40
7.0
 40
7.0
 40
7.0
 40
8.0
 40
8.0
 40
8.0
 40
8.0
 10
55.67015922002344
 20
414.5204344666822
 30
0.0
 10
55.67015922002344
 20
414.5204344666822
 30
0.0
 10
57.55152586451837
 20
416.9161538671251
 30
0.0
 10
57.49278698649487
 20
416.9161538671251
 30
0.0
 10
57.43404810847136
 20
416.9161538671251
 30
0.0
 10
73.19139809368131
 20
416.9161538671251
 30
0.0
 10
73.19139809368131
 20
416.9161538671251
 30
0.0
 10
73.19139809368131
 20
416.9161538671251
 30
0.0
 10
75.0731092477248
 20
414.5204344666822
 30
0.0
 10
75.0731092477248
 20
414.5204344666822
 30
0.0
 10
75.0731092477248
 20
414.5204344666822
 30
0.0
 10
74.11743976011648
 20
409.1698566685407
 30
0.0
 10
74.11743976011648
 20
409.1698566685407
 30
0.0
 10
74.11743976011648
 20
409.1698566685407
 30
0.0
 10
72.26535642724616
 20
406.9798094685674
 30
0.0
 10
72.26535642724616
 20
406.9798094685674
 30
0.0
 10
72.26535642724616
 20
406.9798094685674
 30
0.0
 10
58.43329805396806
 20
406.9798094685674
 30
0.0
 10
58.43329805396806
 20
406.9798094685674
 30
0.0
 10
58.43329805396806
 20
406.9798094685674
 30
0.0
 10
56.5667453200597
 20
409.1109455357431
 30
0.0
 10
56.5667453200597
 20
409.1109455357431
 30
0.0
 10
56.5667453200597
 20
409.1109455357431
 30
0.0
 10
55.67015922002344
 20
414.5204344666822
 30
0.0
 10
55.67015922002344
 20
414.5204344666822
 30
0.0
  0
ENDSEC
  0
SECTION
  2
OBJECTS
  0
DICTIONARY
  5
C
330
0
100
AcDbDictionary
281
     1
  3
ACAD_CIP_PREVIOUS_PRODUCT_INFO
350
1F1
  3
ACAD_COLOR
350
1D4
  3
ACAD_DETAILVIEWSTYLE
350
1EC
  3
ACAD_GROUP
350
D
  3
ACAD_LAYOUT
350
1A
  3
ACAD_MATERIAL
350
1B1
  3
ACAD_MLEADERSTYLE
350
1E8
  3
ACAD_MLINESTYLE
350
17
  3
ACAD_PLOTSETTINGS
350
19
  3
ACAD_PLOTSTYLENAME
350
E
  3
ACAD_SCALELIST
350
1D6
  3
ACAD_SECTIONVIEWSTYLE
350
1EA
  3
ACAD_TABLESTYLE
350
1AF
  3
ACAD_VISUALSTYLE
350
2A
  3
ACDB_RECOMPOSE_DATA
350
2BE
  3
AcDbVariableDictionary
350
224
  3
AcDsDecomposeData
350
2C4
  0
DICTIONARY
  5
1F9
330
2
100
AcDbDictionary
280
     1
281
     1
  3
ACAD_LAYERSTATES
360
1FA
  0
DICTIONARY
  5
1F2
330
10
100
AcDbDictionary
280
     1
281
     1
  3
ADSK_XREC_LAYER_RECONCILED
360
1F3
  0
DICTIONARY
  5
1F4
330
3B
100
AcDbDictionary
280
     1
281
     1
  3
ADSK_XREC_LAYER_RECONCILED
360
1F5
  0
DICTIONARY
  5
2A9
330
1F
100
AcDbDictionary
280
     1
281
     1
  3
ACAD_SORTENTS
360
2AA
  0
XRECORD
  5
1F1
102
{ACAD_REACTORS
330
C
102
}
330
C
100
AcDbXrecord
280
     1
300
ACD
300
2019
300
ACD_F_S
  0
DICTIONARY
  5
1D4
102
{ACAD_REACTORS
330
C
102
}
330
C
100
AcDbDictionary
281
     1
  0
DICTIONARY
  5
1EC
102
{ACAD_REACTORS
330
C
102
}
330
C
100
AcDbDictionary
281
     1
  3
Imperial24
350
1ED
  0
DICTIONARY
  5
D
102
{ACAD_REACTORS
330
C
102
}
330
C
100
AcDbDictionary
281
     1
  0
DICTIONARY
  5
1A
102
{ACAD_REACTORS
330
C
102
}
330
C
100
AcDbDictionary
281
     1
  3
Layout1
350
1E
  3
Layout2
350
26
  3
Model
350
22
  0
DICTIONARY
  5
1B1
102
{ACAD_REACTORS
330
C
102
}
330
C
100
AcDbDictionary
281
     1
  3
ByBlock
350
1BA
  3
ByLayer
350
1B2
  3
Global
350
1C2
  0
DICTIONARY
  5
1E8
102
{ACAD_REACTORS
330
C
102
}
330
C
100
AcDbDictionary
281
     1
  3
Standard
350
1E9
  0
DICTIONARY
  5
17
102
{ACAD_REACTORS
330
C
102
}
330
C
100
AcDbDictionary
281
     1
  3
Standard
350
18
  0
DICTIONARY
  5
19
102
{ACAD_REACTORS
330
C
102
}
330
C
100
AcDbDictionary
281
     1
  0
ACDBDICTIONARYWDFLT
  5
E
102
{ACAD_REACTORS
330
C
102
}
330
C
100
AcDbDictionary
281
     1
  3
Normal
350
F
100
AcDbDictionaryWithDefault
340
F
  0
DICTIONARY
  5
1D6
102
{ACAD_REACTORS
330
C
102
}
330
C
100
AcDbDictionary
281
     1
  3
A0
350
1D7
  3
A1
350
1D8
  3
A2
350
1D9
  3
A3
350
1DA
  3
A4
350
1DB
  3
A5
350
1DC
  3
A6
350
1DD
  3
A7
350
1DE
  3
A8
350
1DF
  3
A9
350
1E0
  3
B0
350
1E1
  3
B1
350
1E2
  3
B2
350
1E3
  3
B3
350
1E4
  3
B4
350
1E5
  3
B5
350
1E6
  3
B6
350
1E7
  0
DICTIONARY
  5
1EA
102
{ACAD_REACTORS
330
C
102
}
330
C
100
AcDbDictionary
281
     1
  3
Imperial24
350
1EB
  0
DICTIONARY
  5
1AF
102
{ACAD_REACTORS
330
C
102
}
330
C
100
AcDbDictionary
281
     1
  3
Standard
350
1D5
  0
DICTIONARY
  5
2A
102
{ACAD_REACTORS
330
C
102
}
330
C
100
AcDbDictionary
281
     1
  3
2dWireframe
350
2F
  3
3D Hidden
350
31
  3
3dWireframe
350
30
  3
Basic
350
32
  3
Brighten
350
36
  3
ColorChange
350
3A
  3
Conceptual
350
34
  3
Dim
350
35
  3
EdgeColorOff
350
1D3
  3
Facepattern
350
39
  3
Flat
350
2B
  3
FlatWithEdges
350
2C
  3
Gouraud
350
2D
  3
GouraudWithEdges
350
2E
  3
Hidden
350
1CB
  3
JitterOff
350
1D1
  3
Linepattern
350
38
  3
OverhangOff
350
1D2
  3
Realistic
350
33
  3
Shaded
350
1D0
  3
Shaded with edges
350
1CF
  3
Shades of Gray
350
1CC
  3
Sketchy
350
1CD
  3
Thicken
350
37
  3
Wireframe
350
1CA
  3
X-Ray
350
1CE
  0
XRECORD
  5
2BE
102
{ACAD_REACTORS
330
C
102
}
330
C
100
AcDbXrecord
280
     1
 90
        1
330
1D5
  0
DICTIONARY
  5
224
102
{ACAD_REACTORS
330
C
102
}
330
C
100
AcDbDictionary
281
     1
  3
CANNOSCALE
350
229
  3
CMLEADERSTYLE
350
226
  3
CTABLESTYLE
350
225
  3
CVIEWDETAILSTYLE
350
227
  3
CVIEWSECTIONSTYLE
350
228
  3
DIMASSOC
350
22E
  3
HIDETEXT
350
22C
  3
INDEXCTL
350
22B
  3
LAYEREVAL
350
282
  3
LAYERNOTIFY
350
283
  3
LIGHTINGUNITS
350
281
  3
MSLTSCALE
350
280
  3
SORTENTS
350
22A
  3
XCLIPFRAME
350
22D
  0
DICTIONARY
  5
2C4
102
{ACAD_REACTORS
330
C
102
}
330
C
100
AcDbDictionary
281
     1
  3
AcDsRecords
350
2C6
  3
AcDsSchemas
350
2C5
1001
ACAD
1070
     2
  0
DICTIONARY
  5
1FA
102
{ACAD_REACTORS
330
1F9
102
}
330
1F9
100
AcDbDictionary
281
     1
  0
XRECORD
  5
1F3
102
{ACAD_REACTORS
330
1F2
102
}
330
1F2
100
AcDbXrecord
280
     1
290
     1
  0
XRECORD
  5
1F5
102
{ACAD_REACTORS
330
1F4
102
}
330
1F4
100
AcDbXrecord
280
     1
290
     1
  0
SORTENTSTABLE
  5
2AA
102
{ACAD_REACTORS
330
2A9
102
}
330
2A9
100
AcDbSortentsTable
330
1F
  0
ACDBDETAILVIEWSTYLE
  5
1ED
102
{ACAD_XDICTIONARY
360
2C9
102
}
102
{ACAD_REACTORS
330
1EC
102
}
330
1EC
100
AcDbModelDocViewStyle
 70
     0
  3
Imperial24
290
     0
100
AcDbDetailViewStyle
 70
     0
 71
     0
 90
        3
 71
     1
340
11
 62
   256
 40
0.24
340
0
 62
   256
 40
0.24
300

 40
0.36
280
     3
 71
     2
340
16
 90
       25
 62
   256
 71
     3
340
11
 62
   256
 40
0.24
 90
        1
 40
0.75
 90
        1
300
%<\AcVar ViewType \f "%tc1">% %<\AcVar ViewDetailId>%\PSCALE %<\AcVar ViewScale \f "%sn">%
 71
     4
340
16
 90
       25
 62
   256
340
16
 90
       25
 62
   256
280
     0
  0
LAYOUT
  5
1E
102
{ACAD_REACTORS
330
1A
102
}
330
1A
100
AcDbPlotSettings
  1

  2
none_device
  4

  6

 40
0.0
 41
0.0
 42
0.0
 43
0.0
 44
0.0
 45
0.0
 46
0.0
 47
0.0
 48
0.0
 49
0.0
140
0.0
141
0.0
142
1.0
143
1.0
 70
   688
 72
     0
 73
     0
 74
     5
  7

 75
    16
147
1.0
 76
     0
 77
     2
 78
   300
148
0.0
149
0.0
100
AcDbLayout
  1
Layout1
 70
     1
 71
     1
 10
0.0
 20
0.0
 11
12.0
 21
9.0
 12
0.0
 22
0.0
 32
0.0
 14
1.000000000000000E+20
 24
1.000000000000000E+20
 34
1.000000000000000E+20
 15
-1.000000000000000E+20
 25
-1.000000000000000E+20
 35
-1.000000000000000E+20
146
0.0
 13
0.0
 23
0.0
 33
0.0
 16
1.0
 26
0.0
 36
0.0
 17
0.0
 27
1.0
 37
0.0
 76
     0
330
1B
  0
LAYOUT
  5
26
102
{ACAD_REACTORS
330
1A
102
}
330
1A
100
AcDbPlotSettings
  1

  2
none_device
  4

  6

 40
0.0
 41
0.0
 42
0.0
 43
0.0
 44
0.0
 45
0.0
 46
0.0
 47
0.0
 48
0.0
 49
0.0
140
0.0
141
0.0
142
1.0
143
1.0
 70
   688
 72
     0
 73
     0
 74
     5
  7

 75
    16
147
1.0
 76
     0
 77
     2
 78
   300
148
0.0
149
0.0
100
AcDbLayout
  1
Layout2
 70
     1
 71
     2
 10
0.0
 20
0.0
 11
0.0
 21
0.0
 12
0.0
 22
0.0
 32
0.0
 14
0.0
 24
0.0
 34
0.0
 15
0.0
 25
0.0
 35
0.0
146
0.0
 13
0.0
 23
0.0
 33
0.0
 16
1.0
 26
0.0
 36
0.0
 17
0.0
 27
1.0
 37
0.0
 76
     0
330
23
  0
LAYOUT
  5
22
102
{ACAD_REACTORS
330
1A
102
}
330
1A
100
AcDbPlotSettings
  1

  2
none_device
  4

  6

 40
0.0
 41
0.0
 42
0.0
 43
0.0
 44
0.0
 45
0.0
 46
0.0
 47
0.0
 48
0.0
 49
0.0
140
0.0
141
0.0
142
1.0
143
1.0
 70
  1712
 72
     0
 73
     0
 74
     0
  7

 75
     0
147
1.0
 76
     0
 77
     2
 78
   300
148
0.0
149
0.0
100
AcDbLayout
  1
Model
 70
     1
 71
     0
 10
0.0
 20
0.0
 11
12.0
 21
9.0
 12
0.0
 22
0.0
 32
0.0
 14
1.000000000000000E+20
 24
1.000000000000000E+20
 34
1.000000000000000E+20
 15
-1.000000000000000E+20
 25
-1.000000000000000E+20
 35
-1.000000000000000E+20
146
0.0
 13
0.0
 23
0.0
 33
0.0
 16
1.0
 26
0.0
 36
0.0
 17
0.0
 27
1.0
 37
0.0
 76
     0
330
1F
331
29
  0
MATERIAL
  5
1BA
102
{ACAD_XDICTIONARY
360
1BB
102
}
102
{ACAD_REACTORS
330
1B1
102
}
330
1B1
100
AcDbMaterial
  1
ByBlock
 72
     0
 43
0.0208333333333333
 43
0.0
 43
0.0
 43
0.0
 43
0.0
 43
0.0208333333333333
 43
0.0
 43
0.0
 43
0.0
 43
0.0
 43
1.0
 43
0.0
 43
0.0
 43
0.0
 43
0.0
 43
1.0
 77
     0
 47
0.0208333333333333
 47
0.0
 47
0.0
 47
0.0
 47
0.0
 47
0.0208333333333333
 47
0.0
 47
0.0
 47
0.0
 47
0.0
 47
1.0
 47
0.0
 47
0.0
 47
0.0
 47
0.0
 47
1.0
171
     0
 49
0.0208333333333333
 49
0.0
 49
0.0
 49
0.0
 49
0.0
 49
0.0208333333333333
 49
0.0
 49
0.0
 49
0.0
 49
0.0
 49
1.0
 49
0.0
 49
0.0
 49
0.0
 49
0.0
 49
1.0
175
     0
142
0.0208333333333333
142
0.0
142
0.0
142
0.0
142
0.0
142
0.0208333333333333
142
0.0
142
0.0
142
0.0
142
0.0
142
1.0
142
0.0
142
0.0
142
0.0
142
0.0
142
1.0
179
     0
144
0.0208333333333333
144
0.0
144
0.0
144
0.0
144
0.0
144
0.0208333333333333
144
0.0
144
0.0
144
0.0
144
0.0
144
1.0
144
0.0
144
0.0
144
0.0
144
0.0
144
1.0
147
0.0208333333333333
147
0.0
147
0.0
147
0.0
147
0.0
147
0.0208333333333333
147
0.0
147
0.0
147
0.0
147
0.0
147
1.0
147
0.0
147
0.0
147
0.0
147
0.0
147
1.0
  0
MATERIAL
  5
1B2
102
{ACAD_XDICTIONARY
360
1B3
102
}
102
{ACAD_REACTORS
330
1B1
102
}
330
1B1
100
AcDbMaterial
  1
ByLayer
 72
     0
 43
0.0208333333333333
 43
0.0
 43
0.0
 43
0.0
 43
0.0
 43
0.0208333333333333
 43
0.0
 43
0.0
 43
0.0
 43
0.0
 43
1.0
 43
0.0
 43
0.0
 43
0.0
 43
0.0
 43
1.0
 77
     0
 47
0.0208333333333333
 47
0.0
 47
0.0
 47
0.0
 47
0.0
 47
0.0208333333333333
 47
0.0
 47
0.0
 47
0.0
 47
0.0
 47
1.0
 47
0.0
 47
0.0
 47
0.0
 47
0.0
 47
1.0
171
     0
 49
0.0208333333333333
 49
0.0
 49
0.0
 49
0.0
 49
0.0
 49
0.0208333333333333
 49
0.0
 49
0.0
 49
0.0
 49
0.0
 49
1.0
 49
0.0
 49
0.0
 49
0.0
 49
0.0
 49
1.0
175
     0
142
0.0208333333333333
142
0.0
142
0.0
142
0.0
142
0.0
142
0.0208333333333333
142
0.0
142
0.0
142
0.0
142
0.0
142
1.0
142
0.0
142
0.0
142
0.0
142
0.0
142
1.0
179
     0
144
0.0208333333333333
144
0.0
144
0.0
144
0.0
144
0.0
144
0.0208333333333333
144
0.0
144
0.0
144
0.0
144
0.0
144
1.0
144
0.0
144
0.0
144
0.0
144
0.0
144
1.0
147
0.0208333333333333
147
0.0
147
0.0
147
0.0
147
0.0
147
0.0208333333333333
147
0.0
147
0.0
147
0.0
147
0.0
147
1.0
147
0.0
147
0.0
147
0.0
147
0.0
147
1.0
  0
MATERIAL
  5
1C2
102
{ACAD_XDICTIONARY
360
1C3
102
}
102
{ACAD_REACTORS
330
1B1
102
}
330
1B1
100
AcDbMaterial
  1
Global
 72
     0
 43
0.0208333333333333
 43
0.0
 43
0.0
 43
0.0
 43
0.0
 43
0.0208333333333333
 43
0.0
 43
0.0
 43
0.0
 43
0.0
 43
1.0
 43
0.0
 43
0.0
 43
0.0
 43
0.0
 43
1.0
 77
     0
 47
0.0208333333333333
 47
0.0
 47
0.0
 47
0.0
 47
0.0
 47
0.0208333333333333
 47
0.0
 47
0.0
 47
0.0
 47
0.0
 47
1.0
 47
0.0
 47
0.0
 47
0.0
 47
0.0
 47
1.0
171
     0
 49
0.0208333333333333
 49
0.0
 49
0.0
 49
0.0
 49
0.0
 49
0.0208333333333333
 49
0.0
 49
0.0
 49
0.0
 49
0.0
 49
1.0
 49
0.0
 49
0.0
 49
0.0
 49
0.0
 49
1.0
175
     0
142
0.0208333333333333
142
0.0
142
0.0
142
0.0
142
0.0
142
0.0208333333333333
142
0.0
142
0.0
142
0.0
142
0.0
142
1.0
142
0.0
142
0.0
142
0.0
142
0.0
142
1.0
179
     0
144
0.0208333333333333
144
0.0
144
0.0
144
0.0
144
0.0
144
0.0208333333333333
144
0.0
144
0.0
144
0.0
144
0.0
144
1.0
144
0.0
144
0.0
144
0.0
144
0.0
144
1.0
147
0.0208333333333333
147
0.0
147
0.0
147
0.0
147
0.0
147
0.0208333333333333
147
0.0
147
0.0
147
0.0
147
0.0
147
1.0
147
0.0
147
0.0
147
0.0
147
0.0
147
1.0
  0
MLEADERSTYLE
  5
1E9
102
{ACAD_REACTORS
330
1E8
102
}
330
1E8
100
AcDbMLeaderStyle
179
     2
170
     2
171
     1
172
     0
 90
        2
 40
0.0
 41
0.0
173
     1
 91
-1056964608
340
14
 92
       -2
290
     1
 42
0.09
291
     1
 43
0.36
  3
Standard
 44
0.18
300

342
11
174
     1
178
     6
175
     1
176
     0
 93
-1056964608
 45
0.18
292
     0
297
     0
 46
0.18
 94
-1056964608
 47
1.0
 49
1.0
140
1.0
293
     1
141
0.0
294
     1
177
     0
142
1.0
295
     0
296
     0
143
0.125
271
     0
272
     9
273
     9
298
     1
  0
MLINESTYLE
  5
18
102
{ACAD_REACTORS
330
17
102
}
330
17
100
AcDbMlineStyle
  2
STANDARD
 70
     0
  3

 62
   256
 51
90.0
 52
90.0
 71
     2
 49
0.5
 62
   256
  6
BYLAYER
 49
-0.5
 62
   256
  6
BYLAYER
  0
ACDBPLACEHOLDER
  5
F
102
{ACAD_REACTORS
330
E
102
}
330
E
  0
SCALE
  5
1D7
102
{ACAD_REACTORS
330
1D6
102
}
330
1D6
100
AcDbScale
 70
     0
300
1:1
140
1.0
141
1.0
290
     1
  0
SCALE
  5
1D8
102
{ACAD_REACTORS
330
1D6
102
}
330
1D6
100
AcDbScale
 70
     0
300
1/128" = 1'-0"
140
0.0078125
141
12.0
290
     0
  0
SCALE
  5
1D9
102
{ACAD_REACTORS
330
1D6
102
}
330
1D6
100
AcDbScale
 70
     0
300
1/64" = 1'-0"
140
0.015625
141
12.0
290
     0
  0
SCALE
  5
1DA
102
{ACAD_REACTORS
330
1D6
102
}
330
1D6
100
AcDbScale
 70
     0
300
1/32" = 1'-0"
140
0.03125
141
12.0
290
     0
  0
SCALE
  5
1DB
102
{ACAD_REACTORS
330
1D6
102
}
330
1D6
100
AcDbScale
 70
     0
300
1/16" = 1'-0"
140
0.0625
141
12.0
290
     0
  0
SCALE
  5
1DC
102
{ACAD_REACTORS
330
1D6
102
}
330
1D6
100
AcDbScale
 70
     0
300
3/32" = 1'-0"
140
0.09375
141
12.0
290
     0
  0
SCALE
  5
1DD
102
{ACAD_REACTORS
330
1D6
102
}
330
1D6
100
AcDbScale
 70
     0
300
1/8" = 1'-0"
140
0.125
141
12.0
290
     0
  0
SCALE
  5
1DE
102
{ACAD_REACTORS
330
1D6
102
}
330
1D6
100
AcDbScale
 70
     0
300
3/16" = 1'-0"
140
0.1875
141
12.0
290
     0
  0
SCALE
  5
1DF
102
{ACAD_REACTORS
330
1D6
102
}
330
1D6
100
AcDbScale
 70
     0
300
1/4" = 1'-0"
140
0.25
141
12.0
290
     0
  0
SCALE
  5
1E0
102
{ACAD_REACTORS
330
1D6
102
}
330
1D6
100
AcDbScale
 70
     0
300
3/8" = 1'-0"
140
0.375
141
12.0
290
     0
  0
SCALE
  5
1E1
102
{ACAD_REACTORS
330
1D6
102
}
330
1D6
100
AcDbScale
 70
     0
300
1/2" = 1'-0"
140
0.5
141
12.0
290
     0
  0
SCALE
  5
1E2
102
{ACAD_REACTORS
330
1D6
102
}
330
1D6
100
AcDbScale
 70
     0
300
3/4" = 1'-0"
140
0.75
141
12.0
290
     0
  0
SCALE
  5
1E3
102
{ACAD_REACTORS
330
1D6
102
}
330
1D6
100
AcDbScale
 70
     0
300
1" = 1'-0"
140
1.0
141
12.0
290
     0
  0
SCALE
  5
1E4
102
{ACAD_REACTORS
330
1D6
102
}
330
1D6
100
AcDbScale
 70
     0
300
1-1/2" = 1'-0"
140
1.5
141
12.0
290
     0
  0
SCALE
  5
1E5
102
{ACAD_REACTORS
330
1D6
102
}
330
1D6
100
AcDbScale
 70
     0
300
3" = 1'-0"
140
3.0
141
12.0
290
     0
  0
SCALE
  5
1E6
102
{ACAD_REACTORS
330
1D6
102
}
330
1D6
100
AcDbScale
 70
     0
300
6" = 1'-0"
140
6.0
141
12.0
290
     0
  0
SCALE
  5
1E7
102
{ACAD_REACTORS
330
1D6
102
}
330
1D6
100
AcDbScale
 70
     0
300
1'-0" = 1'-0"
140
12.0
141
12.0
290
     0
  0
ACDBSECTIONVIEWSTYLE
  5
1EB
102
{ACAD_XDICTIONARY
360
2C7
102
}
102
{ACAD_REACTORS
330
1EA
102
}
330
1EA
100
AcDbModelDocViewStyle
 70
     0
  3
Imperial24
290
     0
100
AcDbSectionViewStyle
 70
     0
 71
     0
 90
       78
 71
     1
340
11
 62
   256
 40
0.24
340
0
340
0
 62
   256
 40
0.24
300
I, O, Q, S, X, Z
 40
0.48
 90
        3
 40
0.18
 90
        1
 71
     2
340
16
 90
       25
 62
   256
340
16
 90
       50
 62
   256
 40
0.24
 40
0.0
 40
0.24
 71
     3
340
11
 62
   256
 40
0.24
 90
        1
 40
0.75
 90
        1
300
%<\AcVar ViewType \f "%tc1">% %<\AcVar ViewSectionStartId>%-%<\AcVar ViewSectionEndId>%\PSCALE %<\AcVar ViewScale \f "%sn">%
 71
     4
 62
   256
 62
   257
300
ANSI31
 40
1.0
 90
        0
290
     0
290
     0
 90
        6
 40
0.0
 40
1.570796326794896
 40
0.2617993877991494
 40
1.308996938995747
 40
-0.2617993877991494
 40
1.832595714594045
  0
TABLESTYLE
  5
1D5
102
{ACAD_XDICTIONARY
360
290
102
}
102
{ACAD_REACTORS
330
1AF
102
}
330
1AF
100
AcDbTableStyle
280
     0
  3
Standard
 70
     0
 71
     0
 40
0.06
 41
0.06
280
     0
281
     0
  7
Standard
140
0.18
170
     2
 62
     0
 63
     7
283
     0
 90
      512
 91
        0
  1

274
    -2
284
     1
 64
     0
275
    -2
285
     1
 65
     0
276
    -2
286
     1
 66
     0
277
    -2
287
     1
 67
     0
278
    -2
288
     1
 68
     0
279
    -2
289
     1
 69
     0
  7
Standard
140
0.25
170
     5
 62
     0
 63
     7
283
     0
 90
      512
 91
        0
  1

274
    -2
284
     1
 64
     0
275
    -2
285
     1
 65
     0
276
    -2
286
     1
 66
     0
277
    -2
287
     1
 67
     0
278
    -2
288
     1
 68
     0
279
    -2
289
     1
 69
     0
  7
Standard
140
0.18
170
     5
 62
     0
 63
     7
283
     0
 90
      512
 91
        0
  1

274
    -2
284
     1
 64
     0
275
    -2
285
     1
 65
     0
276
    -2
286
     1
 66
     0
277
    -2
287
     1
 67
     0
278
    -2
288
     1
 68
     0
279
    -2
289
     1
 69
     0
  0
VISUALSTYLE
  5
2F
102
{ACAD_REACTORS
330
2A
102
}
330
2A
100
AcDbVisualStyle
  2
2dWireframe
 70
     4
177
     3
291
     0
 70
    58
 90
        0
176
     1
 90
        2
176
     1
 90
        0
176
     1
 90
        0
176
     1
 40
0.6
176
     1
 40
30.0
176
     1
 62
     7
420
 16777215
176
     1
 90
        1
176
     1
 90
        4
176
     1
 62
     7
176
     1
 62
   257
176
     1
 90
        1
176
     1
 90
        1
176
     1
 40
1.0
176
     1
 90
        0
176
     1
 62
   257
176
     1
 40
1.0
176
     1
 90
        1
176
     1
 90
        6
176
     1
 90
        2
176
     1
 62
     7
176
     1
 90
        5
176
     1
 90
        0
176
     1
 90
        0
176
     1
290
     0
176
     1
 90
        1
176
     1
 40
0.0
176
     1
 90
        0
176
     1
290
     1
176
     1
290
     1
176
     1
290
     0
176
     1
290
     0
176
     1
290
     0
176
     1
290
     0
176
     1
290
     0
176
     1
290
     0
176
     1
290
     0
176
     1
 90
       50
176
     1
 40
0.0
176
     1
 40
1.0
176
     1
 90
        0
176
     1
 62
    18
176
     1
 90
       50
176
     1
 90
        3
176
     1
 62
     5
420
      255
176
     1
290
     0
176
     1
 90
       50
176
     1
 90
       50
176
     1
 90
       50
176
     1
290
     0
176
     1
 90
       50
176
     1
 62
   256
176
     0
 40
1.0
176
     0
 90
        2
176
     1
  1
strokes_ogs.tif
176
     1
290
     0
176
     1
 40
1.0
176
     1
 40
1.0
176
     1
1001
ACAD
1000
AcDbSavedByObjectVersion
1070
     0
  0
VISUALSTYLE
  5
31
102
{ACAD_REACTORS
330
2A
102
}
330
2A
100
AcDbVisualStyle
  2
3D Hidden
 70
     6
177
     3
291
     0
 70
    58
 90
        1
176
     1
 90
        2
176
     1
 90
        2
176
     1
 90
        0
176
     1
 40
0.6
176
     1
 40
30.0
176
     1
 62
     7
420
 16777215
176
     1
 90
        2
176
     1
 90
        2
176
     1
 62
     7
176
     1
 62
   257
176
     1
 90
        2
176
     1
 90
        1
176
     1
 40
40.0
176
     1
 90
        0
176
     1
 62
   257
176
     1
 40
1.0
176
     1
 90
        1
176
     1
 90
        6
176
     1
 90
        2
176
     1
 62
     7
176
     1
 90
        3
176
     1
 90
        0
176
     1
 90
        0
176
     1
290
     0
176
     1
 90
        1
176
     1
 40
0.0
176
     1
 90
        0
176
     1
290
     0
176
     1
290
     1
176
     1
290
     1
176
     1
290
     0
176
     1
290
     0
176
     1
290
     0
176
     1
290
     0
176
     1
290
     0
176
     1
290
     0
176
     1
 90
       50
176
     1
 40
0.0
176
     1
 40
1.0
176
     1
 90
        0
176
     1
 62
    18
176
     1
 90
       50
176
     1
 90
        3
176
     1
 62
     5
420
      255
176
     1
290
     0
176
     1
 90
       50
176
     1
 90
       50
176
     1
 90
       50
176
     1
290
     0
176
     1
 90
       50
176
     1
 62
   256
176
     0
 40
1.0
176
     0
 90
        2
176
     1
  1
strokes_ogs.tif
176
     1
290
     0
176
     1
 40
1.0
176
     1
 40
1.0
176
     1
1001
ACAD
1000
AcDbSavedByObjectVersion
1070
     0
  0
VISUALSTYLE
  5
30
102
{ACAD_REACTORS
330
2A
102
}
330
2A
100
AcDbVisualStyle
  2
3dWireframe
 70
     5
177
     3
291
     0
 70
    58
 90
        0
176
     1
 90
        2
176
     1
 90
        0
176
     1
 90
        0
176
     1
 40
0.6
176
     1
 40
30.0
176
     1
 62
     7
420
 16777215
176
     1
 90
        1
176
     1
 90
        4
176
     1
 62
     7
176
     1
 62
   257
176
     1
 90
        1
176
     1
 90
        1
176
     1
 40
1.0
176
     1
 90
        0
176
     1
 62
   257
176
     1
 40
1.0
176
     1
 90
        1
176
     1
 90
        6
176
     1
 90
        2
176
     1
 62
     7
176
     1
 90
        5
176
     1
 90
        0
176
     1
 90
        0
176
     1
290
     0
176
     1
 90
        1
176
     1
 40
0.0
176
     1
 90
        0
176
     1
290
     0
176
     1
290
     1
176
     1
290
     1
176
     1
290
     0
176
     1
290
     0
176
     1
290
     0
176
     1
290
     0
176
     1
290
     0
176
     1
290
     0
176
     1
 90
       50
176
     1
 40
0.0
176
     1
 40
1.0
176
     1
 90
        0
176
     1
 62
    18
176
     1
 90
       50
176
     1
 90
        3
176
     1
 62
     5
420
      255
176
     1
290
     0
176
     1
 90
       50
176
     1
 90
       50
176
     1
 90
       50
176
     1
290
     0
176
     1
 90
       50
176
     1
 62
   256
176
     0
 40
1.0
176
     0
 90
        2
176
     1
  1
strokes_ogs.tif
176
     1
290
     0
176
     1
 40
1.0
176
     1
 40
1.0
176
     1
1001
ACAD
1000
AcDbSavedByObjectVersion
1070
     0
  0
VISUALSTYLE
  5
32
102
{ACAD_REACTORS
330
2A
102
}
330
2A
100
AcDbVisualStyle
  2
Basic
 70
     7
177
     3
291
     1
 70
    58
 90
        1
176
     1
 90
        0
176
     1
 90
        1
176
     1
 90
        0
176
     1
 40
0.6
176
     1
 40
30.0
176
     1
 62
     7
420
 16777215
176
     1
 90
        0
176
     1
 90
        4
176
     1
 62
     7
176
     1
 62
   257
176
     1
 90
        1
176
     1
 90
        1
176
     1
 40
1.0
176
     1
 90
        8
176
     1
 62
     7
176
     1
 40
1.0
176
     1
 90
        1
176
     1
 90
        6
176
     1
 90
        2
176
     1
 62
     7
176
     1
 90
        5
176
     1
 90
        0
176
     1
 90
        0
176
     1
290
     0
176
     1
 90
        1
176
     1
 40
0.0
176
     1
 90
        0
176
     1
290
     0
176
     1
290
     1
176
     1
290
     1
176
     1
290
     0
176
     1
290
     0
176
     1
290
     0
176
     1
290
     0
176
     1
290
     0
176
     1
290
     0
176
     1
 90
       50
176
     1
 40
0.0
176
     1
 40
1.0
176
     1
 90
        0
176
     1
 62
    18
176
     1
 90
       50
176
     1
 90
        3
176
     1
 62
     5
420
      255
176
     1
290
     0
176
     1
 90
       50
176
     1
 90
       50
176
     1
 90
       50
176
     1
290
     0
176
     1
 90
       50
176
     1
 62
   256
176
     0
 40
1.0
176
     0
 90
        2
176
     1
  1
strokes_ogs.tif
176
     1
290
     0
176
     1
 40
1.0
176
     1
 40
1.0
176
     1
1001
ACAD
1000
AcDbSavedByObjectVersion
1070
     0
  0
VISUALSTYLE
  5
36
102
{ACAD_REACTORS
330
2A
102
}
330
2A
100
AcDbVisualStyle
  2
Brighten
 70
    12
177
     3
291
     1
 70
    58
 90
        2
176
     1
 90
        2
176
     1
 90
        0
176
     1
 90
        0
176
     1
 40
0.6
176
     1
 40
30.0
176
     1
 62
     7
420
 16777215
176
     1
 90
        1
176
     1
 90
        4
176
     1
 62
     7
176
     1
 62
   257
176
     1
 90
        1
176
     1
 90
        1
176
     1
 40
1.0
176
     1
 90
        8
176
     1
 62
     7
176
     1
 40
1.0
176
     1
 90
        1
176
     1
 90
        6
176
     1
 90
        2
176
     1
 62
     7
176
     1
 90
        5
176
     1
 90
        0
176
     1
 90
        0
176
     1
290
     0
176
     1
 90
        1
176
     1
 40
50.0
176
     1
 90
        0
176
     1
290
     0
176
     1
290
     1
176
     1
290
     1
176
     1
290
     0
176
     1
290
     0
176
     1
290
     0
176
     1
290
     0
176
     1
290
     0
176
     1
290
     0
176
     1
 90
       50
176
     1
 40
0.0
176
     1
 40
1.0
176
     1
 90
        0
176
     1
 62
    18
176
     1
 90
       50
176
     1
 90
        3
176
     1
 62
     5
420
      255
176
     1
290
     0
176
     1
 90
       50
176
     1
 90
       50
176
     1
 90
       50
176
     1
290
     0
176
     1
 90
       50
176
     1
 62
   256
176
     0
 40
1.0
176
     0
 90
        2
176
     1
  1
strokes_ogs.tif
176
     1
290
     0
176
     1
 40
1.0
176
     1
 40
1.0
176
     1
1001
ACAD
1000
AcDbSavedByObjectVersion
1070
     0
  0
VISUALSTYLE
  5
3A
102
{ACAD_REACTORS
330
2A
102
}
330
2A
100
AcDbVisualStyle
  2
ColorChange
 70
    16
177
     3
291
     1
 70
    58
 90
        2
176
     1
 90
        2
176
     1
 90
        3
176
     1
 90
        0
176
     1
 40
0.6
176
     1
 40
30.0
176
     1
 62
     8
420
  8421504
176
     1
 90
        1
176
     1
 90
        4
176
     1
 62
     7
176
     1
 62
   257
176
     1
 90
        1
176
     1
 90
        1
176
     1
 40
1.0
176
     1
 90
        8
176
     1
 62
     8
420
  8421504
176
     1
 40
1.0
176
     1
 90
        1
176
     1
 90
        6
176
     1
 90
        2
176
     1
 62
     7
176
     1
 90
        5
176
     1
 90
        0
176
     1
 90
        0
176
     1
290
     0
176
     1
 90
        1
176
     1
 40
0.0
176
     1
 90
        0
176
     1
290
     0
176
     1
290
     1
176
     1
290
     1
176
     1
290
     0
176
     1
290
     0
176
     1
290
     0
176
     1
290
     0
176
     1
290
     0
176
     1
290
     0
176
     1
 90
       50
176
     1
 40
0.0
176
     1
 40
1.0
176
     1
 90
        0
176
     1
 62
    18
176
     1
 90
       50
176
     1
 90
        3
176
     1
 62
     5
420
      255
176
     1
290
     0
176
     1
 90
       50
176
     1
 90
       50
176
     1
 90
       50
176
     1
290
     0
176
     1
 90
       50
176
     1
 62
   256
176
     0
 40
1.0
176
     0
 90
        2
176
     1
  1
strokes_ogs.tif
176
     1
290
     0
176
     1
 40
1.0
176
     1
 40
1.0
176
     1
1001
ACAD
1000
AcDbSavedByObjectVersion
1070
     0
  0
VISUALSTYLE
  5
34
102
{ACAD_REACTORS
330
2A
102
}
330
2A
100
AcDbVisualStyle
  2
Conceptual
 70
     9
177
     3
291
     0
 70
    58
 90
        3
176
     1
 90
        2
176
     1
 90
        0
176
     1
 90
        0
176
     1
 40
0.6
176
     1
 40
30.0
176
     1
 62
     7
420
 16777215
176
     1
 90
        2
176
     1
 90
        2
176
     1
 62
     7
176
     1
 62
   257
176
     1
 90
        1
176
     1
 90
        1
176
     1
 40
40.0
176
     1
 90
        8
176
     1
 62
     7
176
     1
 40
1.0
176
     1
 90
        1
176
     1
 90
        6
176
     1
 90
        2
176
     1
 62
     7
176
     1
 90
        3
176
     1
 90
        0
176
     1
 90
        0
176
     1
290
     0
176
     1
 90
        1
176
     1
 40
0.0
176
     1
 90
        0
176
     1
290
     0
176
     1
290
     1
176
     1
290
     1
176
     1
290
     0
176
     1
290
     0
176
     1
290
     0
176
     1
290
     0
176
     1
290
     0
176
     1
290
     0
176
     1
 90
       50
176
     1
 40
0.0
176
     1
 40
1.0
176
     1
 90
        0
176
     1
 62
    18
176
     1
 90
       50
176
     1
 90
        3
176
     1
 62
     5
420
      255
176
     1
290
     0
176
     1
 90
       50
176
     1
 90
       50
176
     1
 90
       50
176
     1
290
     0
176
     1
 90
       50
176
     1
 62
   256
176
     0
 40
1.0
176
     0
 90
        2
176
     1
  1
strokes_ogs.tif
176
     1
290
     0
176
     1
 40
1.0
176
     1
 40
1.0
176
     1
1001
ACAD
1000
AcDbSavedByObjectVersion
1070
     0
  0
VISUALSTYLE
  5
35
102
{ACAD_REACTORS
330
2A
102
}
330
2A
100
AcDbVisualStyle
  2
Dim
 70
    11
177
     3
291
     1
 70
    58
 90
        2
176
     1
 90
        2
176
     1
 90
        0
176
     1
 90
        0
176
     1
 40
0.6
176
     1
 40
30.0
176
     1
 62
     7
420
 16777215
176
     1
 90
        1
176
     1
 90
        4
176
     1
 62
     7
176
     1
 62
   257
176
     1
 90
        1
176
     1
 90
        1
176
     1
 40
1.0
176
     1
 90
        8
176
     1
 62
     7
176
     1
 40
1.0
176
     1
 90
        1
176
     1
 90
        6
176
     1
 90
        2
176
     1
 62
     7
176
     1
 90
        5
176
     1
 90
        0
176
     1
 90
        0
176
     1
290
     0
176
     1
 90
        1
176
     1
 40
-50.0
176
     1
 90
        0
176
     1
290
     0
176
     1
290
     1
176
     1
290
     1
176
     1
290
     0
176
     1
290
     0
176
     1
290
     0
176
     1
290
     0
176
     1
290
     0
176
     1
290
     0
176
     1
 90
       50
176
     1
 40
0.0
176
     1
 40
1.0
176
     1
 90
        0
176
     1
 62
    18
176
     1
 90
       50
176
     1
 90
        3
176
     1
 62
     5
420
      255
176
     1
290
     0
176
     1
 90
       50
176
     1
 90
       50
176
     1
 90
       50
176
     1
290
     0
176
     1
 90
       50
176
     1
 62
   256
176
     0
 40
1.0
176
     0
 90
        2
176
     1
  1
strokes_ogs.tif
176
     1
290
     0
176
     1
 40
1.0
176
     1
 40
1.0
176
     1
1001
ACAD
1000
AcDbSavedByObjectVersion
1070
     0
  0
VISUALSTYLE
  5
1D3
102
{ACAD_REACTORS
330
2A
102
}
330
2A
100
AcDbVisualStyle
  2
EdgeColorOff
 70
    22
177
     3
291
     1
 70
    58
 90
        2
176
     0
 90
        2
176
     0
 90
        0
176
     0
 90
        0
176
     0
 40
0.6
176
     0
 40
30.0
176
     0
 62
     7
420
 16777215
176
     0
 90
        1
176
     0
 90
        4
176
     0
 62
     7
176
     0
 62
   257
176
     0
 90
        1
176
     0
 90
        1
176
     0
 40
1.0
176
     0
 90
        8
176
     2
 62
     7
176
     0
 40
1.0
176
     0
 90
        1
176
     0
 90
        6
176
     0
 90
        2
176
     0
 62
     7
176
     0
 90
        5
176
     0
 90
        0
176
     0
 90
        0
176
     0
290
     0
176
     0
 90
        1
176
     0
 40
0.0
176
     0
 90
        0
176
     0
290
     0
176
     0
290
     1
176
     0
290
     1
176
     0
290
     0
176
     0
290
     0
176
     0
290
     0
176
     0
290
     0
176
     0
290
     0
176
     0
290
     0
176
     0
 90
       50
176
     0
 40
0.0
176
     0
 40
1.0
176
     0
 90
        0
176
     0
 62
    18
176
     0
 90
       50
176
     0
 90
        3
176
     0
 62
     5
420
      255
176
     0
290
     0
176
     0
 90
       50
176
     0
 90
       50
176
     0
 90
       50
176
     0
290
     0
176
     0
 90
       50
176
     0
 62
   256
176
     0
 40
1.0
176
     0
 90
        2
176
     0
  1
strokes_ogs.tif
176
     0
290
     0
176
     0
 40
1.0
176
     0
 40
1.0
176
     0
1001
ACAD
1000
AcDbSavedByObjectVersion
1070
     0
  0
VISUALSTYLE
  5
39
102
{ACAD_REACTORS
330
2A
102
}
330
2A
100
AcDbVisualStyle
  2
Facepattern
 70
    15
177
     3
291
     1
 70
    58
 90
        2
176
     1
 90
        2
176
     1
 90
        0
176
     1
 90
        0
176
     1
 40
0.6
176
     1
 40
30.0
176
     1
 62
     7
420
 16777215
176
     1
 90
        1
176
     1
 90
        4
176
     1
 62
     7
176
     1
 62
   257
176
     1
 90
        1
176
     1
 90
        1
176
     1
 40
1.0
176
     1
 90
        8
176
     1
 62
     7
176
     1
 40
1.0
176
     1
 90
        1
176
     1
 90
        6
176
     1
 90
        2
176
     1
 62
     7
176
     1
 90
        5
176
     1
 90
        0
176
     1
 90
        0
176
     1
290
     0
176
     1
 90
        1
176
     1
 40
0.0
176
     1
 90
        0
176
     1
290
     0
176
     1
290
     1
176
     1
290
     1
176
     1
290
     0
176
     1
290
     0
176
     1
290
     0
176
     1
290
     0
176
     1
290
     0
176
     1
290
     0
176
     1
 90
       50
176
     1
 40
0.0
176
     1
 40
1.0
176
     1
 90
        0
176
     1
 62
    18
176
     1
 90
       50
176
     1
 90
        3
176
     1
 62
     5
420
      255
176
     1
290
     0
176
     1
 90
       50
176
     1
 90
       50
176
     1
 90
       50
176
     1
290
     0
176
     1
 90
       50
176
     1
 62
   256
176
     0
 40
1.0
176
     0
 90
        2
176
     1
  1
strokes_ogs.tif
176
     1
290
     0
176
     1
 40
1.0
176
     1
 40
1.0
176
     1
1001
ACAD
1000
AcDbSavedByObjectVersion
1070
     0
  0
VISUALSTYLE
  5
2B
102
{ACAD_REACTORS
330
2A
102
}
330
2A
100
AcDbVisualStyle
  2
Flat
 70
     0
177
     3
291
     1
 70
    58
 90
        2
176
     1
 90
        1
176
     1
 90
        1
176
     1
 90
        2
176
     1
 40
0.6
176
     1
 40
30.0
176
     1
 62
     7
420
 16777215
176
     1
 90
        0
176
     1
 90
        4
176
     1
 62
     7
176
     1
 62
   257
176
     1
 90
        1
176
     1
 90
        1
176
     1
 40
1.0
176
     1
 90
        8
176
     1
 62
     7
176
     1
 40
1.0
176
     1
 90
        1
176
     1
 90
        6
176
     1
 90
        2
176
     1
 62
     7
176
     1
 90
        5
176
     1
 90
        0
176
     1
 90
        0
176
     1
290
     0
176
     1
 90
       13
176
     1
 40
0.0
176
     1
 90
        0
176
     1
290
     0
176
     1
290
     1
176
     1
290
     1
176
     1
290
     0
176
     1
290
     0
176
     1
290
     0
176
     1
290
     0
176
     1
290
     0
176
     1
290
     0
176
     1
 90
       50
176
     1
 40
0.0
176
     1
 40
1.0
176
     1
 90
        0
176
     1
 62
    18
176
     1
 90
       50
176
     1
 90
        3
176
     1
 62
     5
420
      255
176
     1
290
     0
176
     1
 90
       50
176
     1
 90
       50
176
     1
 90
       50
176
     1
290
     0
176
     1
 90
       50
176
     1
 62
   256
176
     0
 40
1.0
176
     0
 90
        2
176
     1
  1
strokes_ogs.tif
176
     1
290
     0
176
     1
 40
1.0
176
     1
 40
1.0
176
     1
1001
ACAD
1000
AcDbSavedByObjectVersion
1070
     0
  0
VISUALSTYLE
  5
2C
102
{ACAD_REACTORS
330
2A
102
}
330
2A
100
AcDbVisualStyle
  2
FlatWithEdges
 70
     1
177
     3
291
     1
 70
    58
 90
        2
176
     1
 90
        1
176
     1
 90
        1
176
     1
 90
        2
176
     1
 40
0.6
176
     1
 40
30.0
176
     1
 62
     7
420
 16777215
176
     1
 90
        1
176
     1
 90
        4
176
     1
 62
     7
176
     1
 62
   257
176
     1
 90
        1
176
     1
 90
        1
176
     1
 40
1.0
176
     1
 90
        0
176
     1
 62
   257
176
     1
 40
1.0
176
     1
 90
        1
176
     1
 90
        6
176
     1
 90
        2
176
     1
 62
     7
176
     1
 90
        5
176
     1
 90
        0
176
     1
 90
        0
176
     1
290
     0
176
     1
 90
       13
176
     1
 40
0.0
176
     1
 90
        0
176
     1
290
     0
176
     1
290
     1
176
     1
290
     1
176
     1
290
     0
176
     1
290
     0
176
     1
290
     0
176
     1
290
     0
176
     1
290
     0
176
     1
290
     0
176
     1
 90
       50
176
     1
 40
0.0
176
     1
 40
1.0
176
     1
 90
        0
176
     1
 62
    18
176
     1
 90
       50
176
     1
 90
        3
176
     1
 62
     5
420
      255
176
     1
290
     0
176
     1
 90
       50
176
     1
 90
       50
176
     1
 90
       50
176
     1
290
     0
176
     1
 90
       50
176
     1
 62
   256
176
     0
 40
1.0
176
     0
 90
        2
176
     1
  1
strokes_ogs.tif
176
     1
290
     0
176
     1
 40
1.0
176
     1
 40
1.0
176
     1
1001
ACAD
1000
AcDbSavedByObjectVersion
1070
     0
  0
VISUALSTYLE
  5
2D
102
{ACAD_REACTORS
330
2A
102
}
330
2A
100
AcDbVisualStyle
  2
Gouraud
 70
     2
177
     3
291
     1
 70
    58
 90
        2
176
     1
 90
        2
176
     1
 90
        1
176
     1
 90
        2
176
     1
 40
0.6
176
     1
 40
30.0
176
     1
 62
     7
420
 16777215
176
     1
 90
        0
176
     1
 90
        4
176
     1
 62
     7
176
     1
 62
   257
176
     1
 90
        1
176
     1
 90
        1
176
     1
 40
1.0
176
     1
 90
        0
176
     1
 62
     7
176
     1
 40
1.0
176
     1
 90
        1
176
     1
 90
        6
176
     1
 90
        2
176
     1
 62
     7
176
     1
 90
        5
176
     1
 90
        0
176
     1
 90
        0
176
     1
290
     0
176
     1
 90
       13
176
     1
 40
0.0
176
     1
 90
        0
176
     1
290
     0
176
     1
290
     1
176
     1
290
     1
176
     1
290
     0
176
     1
290
     0
176
     1
290
     0
176
     1
290
     0
176
     1
290
     0
176
     1
290
     0
176
     1
 90
       50
176
     1
 40
0.0
176
     1
 40
1.0
176
     1
 90
        0
176
     1
 62
    18
176
     1
 90
       50
176
     1
 90
        3
176
     1
 62
     5
420
      255
176
     1
290
     0
176
     1
 90
       50
176
     1
 90
       50
176
     1
 90
       50
176
     1
290
     0
176
     1
 90
       50
176
     1
 62
   256
176
     0
 40
1.0
176
     0
 90
        2
176
     1
  1
strokes_ogs.tif
176
     1
290
     0
176
     1
 40
1.0
176
     1
 40
1.0
176
     1
1001
ACAD
1000
AcDbSavedByObjectVersion
1070
     0
  0
VISUALSTYLE
  5
2E
102
{ACAD_REACTORS
330
2A
102
}
330
2A
100
AcDbVisualStyle
  2
GouraudWithEdges
 70
     3
177
     3
291
     1
 70
    58
 90
        2
176
     1
 90
        2
176
     1
 90
        1
176
     1
 90
        2
176
     1
 40
0.6
176
     1
 40
30.0
176
     1
 62
     7
420
 16777215
176
     1
 90
        1
176
     1
 90
        4
176
     1
 62
     7
176
     1
 62
   257
176
     1
 90
        1
176
     1
 90
        1
176
     1
 40
1.0
176
     1
 90
        0
176
     1
 62
   257
176
     1
 40
1.0
176
     1
 90
        1
176
     1
 90
        6
176
     1
 90
        2
176
     1
 62
     7
176
     1
 90
        5
176
     1
 90
        0
176
     1
 90
        0
176
     1
290
     0
176
     1
 90
       13
176
     1
 40
0.0
176
     1
 90
        0
176
     1
290
     0
176
     1
290
     1
176
     1
290
     1
176
     1
290
     0
176
     1
290
     0
176
     1
290
     0
176
     1
290
     0
176
     1
290
     0
176
     1
290
     0
176
     1
 90
       50
176
     1
 40
0.0
176
     1
 40
1.0
176
     1
 90
        0
176
     1
 62
    18
176
     1
 90
       50
176
     1
 90
        3
176
     1
 62
     5
420
      255
176
     1
290
     0
176
     1
 90
       50
176
     1
 90
       50
176
     1
 90
       50
176
     1
290
     0
176
     1
 90
       50
176
     1
 62
   256
176
     0
 40
1.0
176
     0
 90
        2
176
     1
  1
strokes_ogs.tif
176
     1
290
     0
176
     1
 40
1.0
176
     1
 40
1.0
176
     1
1001
ACAD
1000
AcDbSavedByObjectVersion
1070
     0
  0
VISUALSTYLE
  5
1CB
102
{ACAD_REACTORS
330
2A
102
}
330
2A
100
AcDbVisualStyle
  2
Hidden
 70
     6
177
     3
291
     0
 70
    58
 90
        1
176
     1
 90
        2
176
     1
 90
        2
176
     1
 90
        0
176
     1
 40
0.6
176
     1
 40
30.0
176
     1
 62
     7
420
 16777215
176
     1
 90
        2
176
     1
 90
        2
176
     1
 62
     7
176
     1
 62
   257
176
     1
 90
        2
176
     1
 90
        1
176
     1
 40
40.0
176
     1
 90
        0
176
     1
 62
   257
176
     1
 40
1.0
176
     1
 90
        1
176
     1
 90
        6
176
     1
 90
        2
176
     1
 62
     7
176
     1
 90
        3
176
     1
 90
        0
176
     1
 90
        0
176
     1
290
     0
176
     1
 90
        1
176
     1
 40
0.0
176
     1
 90
        0
176
     1
290
     0
176
     1
290
     1
176
     1
290
     1
176
     1
290
     0
176
     1
290
     0
176
     1
290
     0
176
     1
290
     0
176
     1
290
     0
176
     1
290
     0
176
     1
 90
       50
176
     1
 40
0.0
176
     1
 40
1.0
176
     1
 90
        0
176
     1
 62
    18
176
     1
 90
       50
176
     1
 90
        3
176
     1
 62
     5
420
      255
176
     1
290
     0
176
     1
 90
       50
176
     1
 90
       50
176
     1
 90
       50
176
     1
290
     0
176
     1
 90
       50
176
     1
 62
   256
176
     0
 40
1.0
176
     0
 90
        2
176
     1
  1
strokes_ogs.tif
176
     1
290
     0
176
     1
 40
1.0
176
     1
 40
1.0
176
     1
1001
ACAD
1000
AcDbSavedByObjectVersion
1070
     0
  0
VISUALSTYLE
  5
1D1
102
{ACAD_REACTORS
330
2A
102
}
330
2A
100
AcDbVisualStyle
  2
JitterOff
 70
    20
177
     3
291
     1
 70
    58
 90
        2
176
     0
 90
        2
176
     0
 90
        0
176
     0
 90
        0
176
     0
 40
0.6
176
     0
 40
30.0
176
     0
 62
     7
420
 16777215
176
     0
 90
        1
176
     0
 90
        4
176
     0
 62
     7
176
     0
 62
   257
176
     0
 90
        1
176
     0
 90
        1
176
     0
 40
1.0
176
     0
 90
       10
176
     2
 62
     7
176
     0
 40
1.0
176
     0
 90
        1
176
     0
 90
        6
176
     0
 90
        2
176
     0
 62
     7
176
     0
 90
        5
176
     0
 90
        0
176
     0
 90
        0
176
     0
290
     0
176
     0
 90
        1
176
     0
 40
0.0
176
     0
 90
        0
176
     0
290
     0
176
     0
290
     1
176
     0
290
     1
176
     0
290
     0
176
     0
290
     0
176
     0
290
     0
176
     0
290
     0
176
     0
290
     0
176
     0
290
     0
176
     0
 90
       50
176
     0
 40
0.0
176
     0
 40
1.0
176
     0
 90
        0
176
     0
 62
    18
176
     0
 90
       50
176
     0
 90
        3
176
     0
 62
     5
420
      255
176
     0
290
     0
176
     0
 90
       50
176
     0
 90
       50
176
     0
 90
       50
176
     0
290
     0
176
     0
 90
       50
176
     0
 62
   256
176
     0
 40
1.0
176
     0
 90
        2
176
     0
  1
strokes_ogs.tif
176
     0
290
     0
176
     0
 40
1.0
176
     0
 40
1.0
176
     0
1001
ACAD
1000
AcDbSavedByObjectVersion
1070
     0
  0
VISUALSTYLE
  5
38
102
{ACAD_REACTORS
330
2A
102
}
330
2A
100
AcDbVisualStyle
  2
Linepattern
 70
    14
177
     3
291
     1
 70
    58
 90
        2
176
     1
 90
        2
176
     1
 90
        0
176
     1
 90
        0
176
     1
 40
0.6
176
     1
 40
30.0
176
     1
 62
     7
420
 16777215
176
     1
 90
        1
176
     1
 90
        4
176
     1
 62
     7
176
     1
 62
   257
176
     1
 90
        7
176
     1
 90
        7
176
     1
 40
1.0
176
     1
 90
        8
176
     1
 62
     7
176
     1
 40
1.0
176
     1
 90
        1
176
     1
 90
        6
176
     1
 90
        2
176
     1
 62
     7
176
     1
 90
        5
176
     1
 90
        0
176
     1
 90
        0
176
     1
290
     0
176
     1
 90
        1
176
     1
 40
0.0
176
     1
 90
        0
176
     1
290
     0
176
     1
290
     1
176
     1
290
     1
176
     1
290
     0
176
     1
290
     0
176
     1
290
     0
176
     1
290
     0
176
     1
290
     0
176
     1
290
     0
176
     1
 90
       50
176
     1
 40
0.0
176
     1
 40
1.0
176
     1
 90
        0
176
     1
 62
    18
176
     1
 90
       50
176
     1
 90
        3
176
     1
 62
     5
420
      255
176
     1
290
     0
176
     1
 90
       50
176
     1
 90
       50
176
     1
 90
       50
176
     1
290
     0
176
     1
 90
       50
176
     1
 62
   256
176
     0
 40
1.0
176
     0
 90
        2
176
     1
  1
strokes_ogs.tif
176
     1
290
     0
176
     1
 40
1.0
176
     1
 40
1.0
176
     1
1001
ACAD
1000
AcDbSavedByObjectVersion
1070
     0
  0
VISUALSTYLE
  5
1D2
102
{ACAD_REACTORS
330
2A
102
}
330
2A
100
AcDbVisualStyle
  2
OverhangOff
 70
    21
177
     3
291
     1
 70
    58
 90
        2
176
     0
 90
        2
176
     0
 90
        0
176
     0
 90
        0
176
     0
 40
0.6
176
     0
 40
30.0
176
     0
 62
     7
420
 16777215
176
     0
 90
        1
176
     0
 90
        4
176
     0
 62
     7
176
     0
 62
   257
176
     0
 90
        1
176
     0
 90
        1
176
     0
 40
1.0
176
     0
 90
        9
176
     2
 62
     7
176
     0
 40
1.0
176
     0
 90
        1
176
     0
 90
        6
176
     0
 90
        2
176
     0
 62
     7
176
     0
 90
        5
176
     0
 90
        0
176
     0
 90
        0
176
     0
290
     0
176
     0
 90
        1
176
     0
 40
0.0
176
     0
 90
        0
176
     0
290
     0
176
     0
290
     1
176
     0
290
     1
176
     0
290
     0
176
     0
290
     0
176
     0
290
     0
176
     0
290
     0
176
     0
290
     0
176
     0
290
     0
176
     0
 90
       50
176
     0
 40
0.0
176
     0
 40
1.0
176
     0
 90
        0
176
     0
 62
    18
176
     0
 90
       50
176
     0
 90
        3
176
     0
 62
     5
420
      255
176
     0
290
     0
176
     0
 90
       50
176
     0
 90
       50
176
     0
 90
       50
176
     0
290
     0
176
     0
 90
       50
176
     0
 62
   256
176
     0
 40
1.0
176
     0
 90
        2
176
     0
  1
strokes_ogs.tif
176
     0
290
     0
176
     0
 40
1.0
176
     0
 40
1.0
176
     0
1001
ACAD
1000
AcDbSavedByObjectVersion
1070
     0
  0
VISUALSTYLE
  5
33
102
{ACAD_REACTORS
330
2A
102
}
330
2A
100
AcDbVisualStyle
  2
Realistic
 70
     8
177
     3
291
     0
 70
    58
 90
        2
176
     1
 90
        2
176
     1
 90
        0
176
     1
 90
        0
176
     1
 40
0.6
176
     1
 40
30.0
176
     1
 62
     7
420
 16777215
176
     1
 90
        1
176
     1
 90
        0
176
     1
 62
     7
176
     1
 62
   257
176
     1
 90
        1
176
     1
 90
        1
176
     1
 40
1.0
176
     1
 90
        8
176
     1
 62
     8
420
  7895160
176
     1
 40
1.0
176
     1
 90
        1
176
     1
 90
        6
176
     1
 90
        2
176
     1
 62
     7
176
     1
 90
        5
176
     1
 90
        0
176
     1
 90
        0
176
     1
290
     0
176
     1
 90
       13
176
     1
 40
0.0
176
     1
 90
        0
176
     1
290
     0
176
     1
290
     1
176
     1
290
     1
176
     1
290
     0
176
     1
290
     0
176
     1
290
     0
176
     1
290
     0
176
     1
290
     0
176
     1
290
     0
176
     1
 90
       50
176
     1
 40
0.0
176
     1
 40
1.0
176
     1
 90
        0
176
     1
 62
    18
176
     1
 90
       50
176
     1
 90
        3
176
     1
 62
     5
420
      255
176
     1
290
     0
176
     1
 90
       50
176
     1
 90
       50
176
     1
 90
       50
176
     1
290
     0
176
     1
 90
       50
176
     1
 62
   256
176
     0
 40
1.0
176
     0
 90
        2
176
     1
  1
strokes_ogs.tif
176
     1
290
     0
176
     1
 40
1.0
176
     1
 40
1.0
176
     1
1001
ACAD
1000
AcDbSavedByObjectVersion
1070
     0
  0
VISUALSTYLE
  5
1D0
102
{ACAD_REACTORS
330
2A
102
}
330
2A
100
AcDbVisualStyle
  2
Shaded
 70
    27
177
     3
291
     0
 70
    58
 90
        2
176
     1
 90
        2
176
     1
 90
        1
176
     1
 90
        2
176
     1
 40
0.6
176
     1
 40
30.0
176
     1
 62
     7
420
 16777215
176
     1
 90
        0
176
     1
 90
        4
176
     1
 62
     7
176
     1
 62
   257
176
     1
 90
        1
176
     1
 90
        1
176
     1
 40
1.0
176
     1
 90
        8
176
     1
 62
   257
176
     1
 40
1.0
176
     1
 90
        1
176
     1
 90
        6
176
     1
 90
        2
176
     1
 62
     8
420
  7895160
176
     1
 90
        3
176
     1
 90
        0
176
     1
 90
        0
176
     1
290
     0
176
     1
 90
        5
176
     1
 40
0.0
176
     1
 90
        0
176
     1
290
     0
176
     1
290
     1
176
     1
290
     1
176
     1
290
     0
176
     1
290
     0
176
     1
290
     0
176
     1
290
     0
176
     1
290
     0
176
     1
290
     0
176
     1
 90
       50
176
     1
 40
0.0
176
     1
 40
1.0
176
     1
 90
        0
176
     1
 62
    18
176
     1
 90
       50
176
     1
 90
        3
176
     1
 62
     5
420
      255
176
     1
290
     0
176
     1
 90
       50
176
     1
 90
       50
176
     1
 90
       50
176
     1
290
     0
176
     1
 90
       50
176
     1
 62
   256
176
     0
 40
1.0
176
     0
 90
        2
176
     1
  1
strokes_ogs.tif
176
     1
290
     0
176
     1
 40
1.0
176
     1
 40
1.0
176
     1
1001
ACAD
1000
AcDbSavedByObjectVersion
1070
     0
  0
VISUALSTYLE
  5
1CF
102
{ACAD_REACTORS
330
2A
102
}
330
2A
100
AcDbVisualStyle
  2
Shaded with edges
 70
    26
177
     3
291
     0
 70
    58
 90
        2
176
     1
 90
        2
176
     1
 90
        1
176
     1
 90
        2
176
     1
 40
0.6
176
     1
 40
30.0
176
     1
 62
     7
420
 16777215
176
     1
 90
        1
176
     1
 90
        2
176
     1
 62
     7
176
     1
 62
   257
176
     1
 90
        2
176
     1
 90
        1
176
     1
 40
1.0
176
     1
 90
        8
176
     1
 62
   257
176
     1
 40
1.0
176
     1
 90
        1
176
     1
 90
        6
176
     1
 90
        2
176
     1
 62
     7
176
     1
 90
        3
176
     1
 90
        0
176
     1
 90
        0
176
     1
290
     0
176
     1
 90
        5
176
     1
 40
0.0
176
     1
 90
        0
176
     1
290
     0
176
     1
290
     1
176
     1
290
     1
176
     1
290
     0
176
     1
290
     0
176
     1
290
     0
176
     1
290
     0
176
     1
290
     0
176
     1
290
     0
176
     1
 90
       50
176
     1
 40
0.0
176
     1
 40
1.0
176
     1
 90
        0
176
     1
 62
    18
176
     1
 90
       50
176
     1
 90
        3
176
     1
 62
     5
420
      255
176
     1
290
     0
176
     1
 90
       50
176
     1
 90
       50
176
     1
 90
       50
176
     1
290
     0
176
     1
 90
       50
176
     1
 62
   256
176
     0
 40
1.0
176
     0
 90
        2
176
     1
  1
strokes_ogs.tif
176
     1
290
     0
176
     1
 40
1.0
176
     1
 40
1.0
176
     1
1001
ACAD
1000
AcDbSavedByObjectVersion
1070
     0
  0
VISUALSTYLE
  5
1CC
102
{ACAD_REACTORS
330
2A
102
}
330
2A
100
AcDbVisualStyle
  2
Shades of Gray
 70
    23
177
     3
291
     0
 70
    58
 90
        2
176
     1
 90
        2
176
     1
 90
        3
176
     1
 90
        0
176
     1
 40
0.6
176
     1
 40
30.0
176
     1
 62
     7
420
 16777215
176
     1
 90
        2
176
     1
 90
        2
176
     1
 62
     7
176
     1
 62
     7
176
     1
 90
        1
176
     1
 90
        1
176
     1
 40
40.0
176
     1
 90
        8
176
     1
 62
     7
176
     1
 40
1.0
176
     1
 90
        1
176
     1
 90
        6
176
     1
 90
        2
176
     1
 62
     7
176
     1
 90
        3
176
     1
 90
        0
176
     1
 90
        0
176
     1
290
     0
176
     1
 90
        1
176
     1
 40
0.0
176
     1
 90
        0
176
     1
290
     0
176
     1
290
     1
176
     1
290
     1
176
     1
290
     0
176
     1
290
     0
176
     1
290
     0
176
     1
290
     0
176
     1
290
     0
176
     1
290
     0
176
     1
 90
       50
176
     1
 40
0.0
176
     1
 40
1.0
176
     1
 90
        0
176
     1
 62
    18
176
     1
 90
       50
176
     1
 90
        3
176
     1
 62
     5
420
      255
176
     1
290
     0
176
     1
 90
       50
176
     1
 90
       50
176
     1
 90
       50
176
     1
290
     0
176
     1
 90
       50
176
     1
 62
   256
176
     0
 40
1.0
176
     0
 90
        2
176
     1
  1
strokes_ogs.tif
176
     1
290
     0
176
     1
 40
1.0
176
     1
 40
1.0
176
     1
1001
ACAD
1000
AcDbSavedByObjectVersion
1070
     0
  0
VISUALSTYLE
  5
1CD
102
{ACAD_REACTORS
330
2A
102
}
330
2A
100
AcDbVisualStyle
  2
Sketchy
 70
    24
177
     3
291
     0
 70
    58
 90
        1
176
     1
 90
        2
176
     1
 90
        2
176
     1
 90
        0
176
     1
 40
0.6
176
     1
 40
30.0
176
     1
 62
     7
420
 16777215
176
     1
 90
        2
176
     1
 90
        2
176
     1
 62
     7
176
     1
 62
     7
176
     1
 90
        1
176
     1
 90
        1
176
     1
 40
40.0
176
     1
 90
       11
176
     1
 62
     7
176
     1
 40
1.0
176
     1
 90
        1
176
     1
 90
        6
176
     1
 90
        2
176
     1
 62
     7
176
     1
 90
        6
176
     1
 90
        0
176
     1
 90
        0
176
     1
290
     0
176
     1
 90
        1
176
     1
 40
0.0
176
     1
 90
        0
176
     1
290
     0
176
     1
290
     1
176
     1
290
     1
176
     1
290
     0
176
     1
290
     0
176
     1
290
     0
176
     1
290
     0
176
     1
290
     0
176
     1
290
     0
176
     1
 90
       50
176
     1
 40
0.0
176
     1
 40
1.0
176
     1
 90
        0
176
     1
 62
    18
176
     1
 90
       50
176
     1
 90
        3
176
     1
 62
     5
420
      255
176
     1
290
     0
176
     1
 90
       50
176
     1
 90
       50
176
     1
 90
       50
176
     1
290
     0
176
     1
 90
       50
176
     1
 62
   256
176
     0
 40
1.0
176
     0
 90
        2
176
     1
  1
strokes_ogs.tif
176
     1
290
     0
176
     1
 40
1.0
176
     1
 40
1.0
176
     1
1001
ACAD
1000
AcDbSavedByObjectVersion
1070
     0
  0
VISUALSTYLE
  5
37
102
{ACAD_REACTORS
330
2A
102
}
330
2A
100
AcDbVisualStyle
  2
Thicken
 70
    13
177
     3
291
     1
 70
    58
 90
        2
176
     1
 90
        2
176
     1
 90
        0
176
     1
 90
        0
176
     1
 40
0.6
176
     1
 40
30.0
176
     1
 62
     7
420
 16777215
176
     1
 90
        1
176
     1
 90
        4
176
     1
 62
     7
176
     1
 62
   257
176
     1
 90
        1
176
     1
 90
        1
176
     1
 40
1.0
176
     1
 90
       12
176
     1
 62
     7
176
     1
 40
1.0
176
     1
 90
        1
176
     1
 90
        6
176
     1
 90
        2
176
     1
 62
     7
176
     1
 90
        5
176
     1
 90
        0
176
     1
 90
        0
176
     1
290
     0
176
     1
 90
        1
176
     1
 40
0.0
176
     1
 90
        0
176
     1
290
     0
176
     1
290
     1
176
     1
290
     1
176
     1
290
     0
176
     1
290
     0
176
     1
290
     0
176
     1
290
     0
176
     1
290
     0
176
     1
290
     0
176
     1
 90
       50
176
     1
 40
0.0
176
     1
 40
1.0
176
     1
 90
        0
176
     1
 62
    18
176
     1
 90
       50
176
     1
 90
        3
176
     1
 62
     5
420
      255
176
     1
290
     0
176
     1
 90
       50
176
     1
 90
       50
176
     1
 90
       50
176
     1
290
     0
176
     1
 90
       50
176
     1
 62
   256
176
     0
 40
1.0
176
     0
 90
        2
176
     1
  1
strokes_ogs.tif
176
     1
290
     0
176
     1
 40
1.0
176
     1
 40
1.0
176
     1
1001
ACAD
1000
AcDbSavedByObjectVersion
1070
     0
  0
VISUALSTYLE
  5
1CA
102
{ACAD_REACTORS
330
2A
102
}
330
2A
100
AcDbVisualStyle
  2
Wireframe
 70
     5
177
     3
291
     0
 70
    58
 90
        0
176
     1
 90
        2
176
     1
 90
        0
176
     1
 90
        0
176
     1
 40
0.6
176
     1
 40
30.0
176
     1
 62
     7
420
 16777215
176
     1
 90
        1
176
     1
 90
        4
176
     1
 62
     7
176
     1
 62
   257
176
     1
 90
        1
176
     1
 90
        1
176
     1
 40
1.0
176
     1
 90
        0
176
     1
 62
   257
176
     1
 40
1.0
176
     1
 90
        1
176
     1
 90
        6
176
     1
 90
        2
176
     1
 62
     7
176
     1
 90
        3
176
     1
 90
        0
176
     1
 90
        0
176
     1
290
     0
176
     1
 90
        1
176
     1
 40
0.0
176
     1
 90
        0
176
     1
290
     0
176
     1
290
     1
176
     1
290
     1
176
     1
290
     0
176
     1
290
     0
176
     1
290
     0
176
     1
290
     0
176
     1
290
     0
176
     1
290
     0
176
     1
 90
       50
176
     1
 40
0.0
176
     1
 40
1.0
176
     1
 90
        0
176
     1
 62
    18
176
     1
 90
       50
176
     1
 90
        3
176
     1
 62
     5
420
      255
176
     1
290
     0
176
     1
 90
       50
176
     1
 90
       50
176
     1
 90
       50
176
     1
290
     0
176
     1
 90
       50
176
     1
 62
   256
176
     0
 40
1.0
176
     0
 90
        2
176
     1
  1
strokes_ogs.tif
176
     1
290
     0
176
     1
 40
1.0
176
     1
 40
1.0
176
     1
1001
ACAD
1000
AcDbSavedByObjectVersion
1070
     0
  0
VISUALSTYLE
  5
1CE
102
{ACAD_REACTORS
330
2A
102
}
330
2A
100
AcDbVisualStyle
  2
X-Ray
 70
    25
177
     3
291
     0
 70
    58
 90
        2
176
     1
 90
        2
176
     1
 90
        1
176
     1
 90
        1
176
     1
 40
0.5
176
     1
 40
30.0
176
     1
 62
     7
420
 16777215
176
     1
 90
        1
176
     1
 90
        0
176
     1
 62
     7
176
     1
 62
   257
176
     1
 90
        1
176
     1
 90
        1
176
     1
 40
1.0
176
     1
 90
        8
176
     1
 62
     7
176
     1
 40
1.0
176
     1
 90
        1
176
     1
 90
        6
176
     1
 90
        2
176
     1
 62
     7
176
     1
 90
        3
176
     1
 90
        0
176
     1
 90
        0
176
     1
290
     0
176
     1
 90
       13
176
     1
 40
0.0
176
     1
 90
        0
176
     1
290
     0
176
     1
290
     1
176
     1
290
     1
176
     1
290
     0
176
     1
290
     0
176
     1
290
     0
176
     1
290
     0
176
     1
290
     0
176
     1
290
     0
176
     1
 90
       50
176
     1
 40
0.0
176
     1
 40
1.0
176
     1
 90
        0
176
     1
 62
    18
176
     1
 90
       50
176
     1
 90
        3
176
     1
 62
     5
420
      255
176
     1
290
     0
176
     1
 90
       50
176
     1
 90
       50
176
     1
 90
       50
176
     1
290
     0
176
     1
 90
       50
176
     1
 62
   256
176
     0
 40
1.0
176
     0
 90
        2
176
     1
  1
strokes_ogs.tif
176
     1
290
     0
176
     1
 40
1.0
176
     1
 40
1.0
176
     1
1001
ACAD
1000
AcDbSavedByObjectVersion
1070
     0
  0
DICTIONARYVAR
  5
229
102
{ACAD_REACTORS
330
224
102
}
330
224
100
DictionaryVariables
280
     0
  1
1:1
  0
DICTIONARYVAR
  5
226
102
{ACAD_REACTORS
330
224
102
}
330
224
100
DictionaryVariables
280
     0
  1
STANDARD
  0
DICTIONARYVAR
  5
225
102
{ACAD_REACTORS
330
224
102
}
330
224
100
DictionaryVariables
280
     0
  1
STANDARD
  0
DICTIONARYVAR
  5
227
102
{ACAD_REACTORS
330
224
102
}
330
224
100
DictionaryVariables
280
     0
  1
Imperial24
  0
DICTIONARYVAR
  5
228
102
{ACAD_REACTORS
330
224
102
}
330
224
100
DictionaryVariables
280
     0
  1
Imperial24
  0
DICTIONARYVAR
  5
22E
102
{ACAD_REACTORS
330
224
102
}
330
224
100
DictionaryVariables
280
     0
  1
2
  0
DICTIONARYVAR
  5
22C
102
{ACAD_REACTORS
330
224
102
}
330
224
100
DictionaryVariables
280
     0
  1
1
  0
DICTIONARYVAR
  5
22B
102
{ACAD_REACTORS
330
224
102
}
330
224
100
DictionaryVariables
280
     0
  1
0
  0
DICTIONARYVAR
  5
282
102
{ACAD_REACTORS
330
224
102
}
330
224
100
DictionaryVariables
280
     0
  1
1
  0
DICTIONARYVAR
  5
283
102
{ACAD_REACTORS
330
224
102
}
330
224
100
DictionaryVariables
280
     0
  1
15
  0
DICTIONARYVAR
  5
281
102
{ACAD_REACTORS
330
224
102
}
330
224
100
DictionaryVariables
280
     0
  1
0
  0
DICTIONARYVAR
  5
280
102
{ACAD_REACTORS
330
224
102
}
330
224
100
DictionaryVariables
280
     0
  1
0
  0
DICTIONARYVAR
  5
22A
102
{ACAD_REACTORS
330
224
102
}
330
224
100
DictionaryVariables
280
     0
  1
127
  0
DICTIONARYVAR
  5
22D
102
{ACAD_REACTORS
330
224
102
}
330
224
100
DictionaryVariables
280
     0
  1
0
  0
DICTIONARY
  5
2C6
102
{ACAD_REACTORS
330
2C4
102
}
330
2C4
100
AcDbDictionary
281
     1
  0
DICTIONARY
  5
2C5
102
{ACAD_REACTORS
330
2C4
102
}
330
2C4
100
AcDbDictionary
281
     1
  3
2408084691056
350
2BF
  3
2408084691072
350
2C0
  3
2408084691088
350
2C1
  3
2408084691104
350
2C2
  3
2408084691120
350
2C3
  0
DICTIONARY
  5
2C9
330
1ED
100
AcDbDictionary
280
     1
281
     1
  3
ACAD_XREC_ROUNDTRIP
360
2CA
  0
DICTIONARY
  5
1BB
330
1BA
100
AcDbDictionary
280
     1
281
     1
  3
BUMPTILE
360
1BD
  3
DIFFUSETILE
360
1BC
  3
OPACITYTILE
360
1C0
  3
REFLECTIONTILE
360
1BF
  3
REFRACTIONTILE
360
1C1
  3
SPECULARTILE
360
1BE
  0
DICTIONARY
  5
1B3
330
1B2
100
AcDbDictionary
280
     1
281
     1
  3
BUMPTILE
360
1B5
  3
DIFFUSETILE
360
1B4
  3
OPACITYTILE
360
1B8
  3
REFLECTIONTILE
360
1B7
  3
REFRACTIONTILE
360
1B9
  3
SPECULARTILE
360
1B6
  0
DICTIONARY
  5
1C3
330
1C2
100
AcDbDictionary
280
     1
281
     1
  3
BUMPTILE
360
1C5
  3
DIFFUSETILE
360
1C4
  3
OPACITYTILE
360
1C8
  3
REFLECTIONTILE
360
1C7
  3
REFRACTIONTILE
360
1C9
  3
SPECULARTILE
360
1C6
  0
DICTIONARY
  5
2C7
330
1EB
100
AcDbDictionary
280
     1
281
     1
  3
ACAD_XREC_ROUNDTRIP
360
2C8
  0
DICTIONARY
  5
290
330
1D5
100
AcDbDictionary
280
     1
281
     1
  3
ACAD_ROUNDTRIP_2008_TABLESTYLE_CELLSTYLEMAP
360
2BD
  0
XRECORD
  5
2BF
102
{ACAD_REACTORS
330
2C5
102
}
330
2C5
100
AcDbXrecord
280
     1
  1
AcDb_Thumbnail_Schema
102
{ATTRRECORD
341
2C0
  2
AcDbDs::TreatedAsObjectData
280
     1
291
     1
102
ATTRRECORD}
102
{ATTRRECORD
341
2C1
  2
AcDbDs::Legacy
280
     1
291
     1
102
ATTRRECORD}
  2
AcDbDs::ID
280
    10
 91
        8
102
{ATTRRECORD
341
2C2
  2
AcDs:Indexable
280
     1
291
     1
102
ATTRRECORD}
102
{ATTRRECORD
341
2C3
  2
AcDbDs::HandleAttribute
280
     7
282
     1
102
ATTRRECORD}
  2
Thumbnail_Data
280
    15
 91
        0
  0
XRECORD
  5
2C0
102
{ACAD_REACTORS
330
2C5
102
}
330
2C5
100
AcDbXrecord
280
     1
  1
AcDbDs::TreatedAsObjectDataSchema
  2
AcDbDs::TreatedAsObjectData
280
     1
 91
        0
  0
XRECORD
  5
2C1
102
{ACAD_REACTORS
330
2C5
102
}
330
2C5
100
AcDbXrecord
280
     1
  1
AcDbDs::LegacySchema
  2
AcDbDs::Legacy
280
     1
 91
        0
  0
XRECORD
  5
2C2
102
{ACAD_REACTORS
330
2C5
102
}
330
2C5
100
AcDbXrecord
280
     1
  1
AcDbDs::IndexedPropertySchema
  2
AcDs:Indexable
280
     1
 91
        0
  0
XRECORD
  5
2C3
102
{ACAD_REACTORS
330
2C5
102
}
330
2C5
100
AcDbXrecord
280
     1
  1
AcDbDs::HandleAttributeSchema
  2
AcDbDs::HandleAttribute
280
     7
 91
        1
284
     1
  0
XRECORD
  5
2CA
102
{ACAD_REACTORS
330
2C9
102
}
330
2C9
100
AcDbXrecord
280
     1
102
DISPLAYNAME
  1
Imperial24
102
FLAGS
 90
        0
  0
XRECORD
  5
1BD
102
{ACAD_REACTORS
330
1BB
102
}
330
1BB
100
AcDbXrecord
280
     1
270
     1
271
     1
  0
XRECORD
  5
1BC
102
{ACAD_REACTORS
330
1BB
102
}
330
1BB
100
AcDbXrecord
280
     1
270
     1
271
     1
  0
XRECORD
  5
1C0
102
{ACAD_REACTORS
330
1BB
102
}
330
1BB
100
AcDbXrecord
280
     1
270
     1
271
     1
  0
XRECORD
  5
1BF
102
{ACAD_REACTORS
330
1BB
102
}
330
1BB
100
AcDbXrecord
280
     1
270
     1
271
     1
  0
XRECORD
  5
1C1
102
{ACAD_REACTORS
330
1BB
102
}
330
1BB
100
AcDbXrecord
280
     1
270
     1
271
     1
  0
XRECORD
  5
1BE
102
{ACAD_REACTORS
330
1BB
102
}
330
1BB
100
AcDbXrecord
280
     1
270
     1
271
     1
  0
XRECORD
  5
1B5
102
{ACAD_REACTORS
330
1B3
102
}
330
1B3
100
AcDbXrecord
280
     1
270
     1
271
     1
  0
XRECORD
  5
1B4
102
{ACAD_REACTORS
330
1B3
102
}
330
1B3
100
AcDbXrecord
280
     1
270
     1
271
     1
  0
XRECORD
  5
1B8
102
{ACAD_REACTORS
330
1B3
102
}
330
1B3
100
AcDbXrecord
280
     1
270
     1
271
     1
  0
XRECORD
  5
1B7
102
{ACAD_REACTORS
330
1B3
102
}
330
1B3
100
AcDbXrecord
280
     1
270
     1
271
     1
  0
XRECORD
  5
1B9
102
{ACAD_REACTORS
330
1B3
102
}
330
1B3
100
AcDbXrecord
280
     1
270
     1
271
     1
  0
XRECORD
  5
1B6
102
{ACAD_REACTORS
330
1B3
102
}
330
1B3
100
AcDbXrecord
280
     1
270
     1
271
     1
  0
XRECORD
  5
1C5
102
{ACAD_REACTORS
330
1C3
102
}
330
1C3
100
AcDbXrecord
280
     1
270
     1
271
     1
  0
XRECORD
  5
1C4
102
{ACAD_REACTORS
330
1C3
102
}
330
1C3
100
AcDbXrecord
280
     1
270
     1
271
     1
  0
XRECORD
  5
1C8
102
{ACAD_REACTORS
330
1C3
102
}
330
1C3
100
AcDbXrecord
280
     1
270
     1
271
     1
  0
XRECORD
  5
1C7
102
{ACAD_REACTORS
330
1C3
102
}
330
1C3
100
AcDbXrecord
280
     1
270
     1
271
     1
  0
XRECORD
  5
1C9
102
{ACAD_REACTORS
330
1C3
102
}
330
1C3
100
AcDbXrecord
280
     1
270
     1
271
     1
  0
XRECORD
  5
1C6
102
{ACAD_REACTORS
330
1C3
102
}
330
1C3
100
AcDbXrecord
280
     1
270
     1
271
     1
  0
XRECORD
  5
2C8
102
{ACAD_REACTORS
330
2C7
102
}
330
2C7
100
AcDbXrecord
280
     1
102
DISPLAYNAME
  1
Imperial24
102
FLAGS
 90
        0
  0
CELLSTYLEMAP
  5
2BD
102
{ACAD_REACTORS
330
290
102
}
330
290
100
AcDbCellStyleMap
 90
        3
300
CELLSTYLE
  1
TABLEFORMAT_BEGIN
 90
        5
170
     1
 91
        0
 92
    32768
 62
   257
 93
        1
300
CONTENTFORMAT
  1
CONTENTFORMAT_BEGIN
 90
        0
 91
        0
 92
      512
 93
        0
300

 40
0.0
140
1.0
 94
        5
 62
     0
340
11
144
0.25
309
CONTENTFORMAT_END
171
     1
301
MARGIN
  1
CELLMARGIN_BEGIN
 40
0.06
 40
0.06
 40
0.06
 40
0.06
 40
0.18
 40
0.18
309
CELLMARGIN_END
 94
        6
 95
        1
302
GRIDFORMAT
  1
GRIDFORMAT_BEGIN
 90
        0
 91
        1
 62
     0
 92
       -2
340
0
 93
        0
 40
0.045
309
GRIDFORMAT_END
 95
        2
302
GRIDFORMAT
  1
GRIDFORMAT_BEGIN
 90
        0
 91
        1
 62
     0
 92
       -2
340
0
 93
        0
 40
0.045
309
GRIDFORMAT_END
 95
        4
302
GRIDFORMAT
  1
GRIDFORMAT_BEGIN
 90
        0
 91
        1
 62
     0
 92
       -2
340
0
 93
        0
 40
0.045
309
GRIDFORMAT_END
 95
        8
302
GRIDFORMAT
  1
GRIDFORMAT_BEGIN
 90
        0
 91
        1
 62
     0
 92
       -2
340
0
 93
        0
 40
0.045
309
GRIDFORMAT_END
 95
       16
302
GRIDFORMAT
  1
GRIDFORMAT_BEGIN
 90
        0
 91
        1
 62
     0
 92
       -2
340
0
 93
        0
 40
0.045
309
GRIDFORMAT_END
 95
       32
302
GRIDFORMAT
  1
GRIDFORMAT_BEGIN
 90
        0
 91
        1
 62
     0
 92
       -2
340
0
 93
        0
 40
0.045
309
GRIDFORMAT_END
309
TABLEFORMAT_END
  1
CELLSTYLE_BEGIN
 90
        1
 91
        1
300
_TITLE
309
CELLSTYLE_END
300
CELLSTYLE
  1
TABLEFORMAT_BEGIN
 90
        5
170
     1
 91
        0
 92
        0
 62
   257
 93
        1
300
CONTENTFORMAT
  1
CONTENTFORMAT_BEGIN
 90
        0
 91
        0
 92
      512
 93
        0
300

 40
0.0
140
1.0
 94
        5
 62
     0
340
11
144
0.18
309
CONTENTFORMAT_END
171
     1
301
MARGIN
  1
CELLMARGIN_BEGIN
 40
0.06
 40
0.06
 40
0.06
 40
0.06
 40
0.18
 40
0.18
309
CELLMARGIN_END
 94
        6
 95
        1
302
GRIDFORMAT
  1
GRIDFORMAT_BEGIN
 90
        0
 91
        1
 62
     0
 92
       -2
340
0
 93
        0
 40
0.045
309
GRIDFORMAT_END
 95
        2
302
GRIDFORMAT
  1
GRIDFORMAT_BEGIN
 90
        0
 91
        1
 62
     0
 92
       -2
340
0
 93
        0
 40
0.045
309
GRIDFORMAT_END
 95
        4
302
GRIDFORMAT
  1
GRIDFORMAT_BEGIN
 90
        0
 91
        1
 62
     0
 92
       -2
340
0
 93
        0
 40
0.045
309
GRIDFORMAT_END
 95
        8
302
GRIDFORMAT
  1
GRIDFORMAT_BEGIN
 90
        0
 91
        1
 62
     0
 92
       -2
340
0
 93
        0
 40
0.045
309
GRIDFORMAT_END
 95
       16
302
GRIDFORMAT
  1
GRIDFORMAT_BEGIN
 90
        0
 91
        1
 62
     0
 92
       -2
340
0
 93
        0
 40
0.045
309
GRIDFORMAT_END
 95
       32
302
GRIDFORMAT
  1
GRIDFORMAT_BEGIN
 90
        0
 91
        1
 62
     0
 92
       -2
340
0
 93
        0
 40
0.045
309
GRIDFORMAT_END
309
TABLEFORMAT_END
  1
CELLSTYLE_BEGIN
 90
        2
 91
        1
300
_HEADER
309
CELLSTYLE_END
300
CELLSTYLE
  1
TABLEFORMAT_BEGIN
 90
        5
170
     1
 91
        0
 92
        0
 62
   257
 93
        1
300
CONTENTFORMAT
  1
CONTENTFORMAT_BEGIN
 90
        0
 91
        0
 92
      512
 93
        0
300

 40
0.0
140
1.0
 94
        2
 62
     0
340
11
144
0.18
309
CONTENTFORMAT_END
171
     1
301
MARGIN
  1
CELLMARGIN_BEGIN
 40
0.06
 40
0.06
 40
0.06
 40
0.06
 40
0.18
 40
0.18
309
CELLMARGIN_END
 94
        6
 95
        1
302
GRIDFORMAT
  1
GRIDFORMAT_BEGIN
 90
        0
 91
        1
 62
     0
 92
       -2
340
0
 93
        0
 40
0.045
309
GRIDFORMAT_END
 95
        2
302
GRIDFORMAT
  1
GRIDFORMAT_BEGIN
 90
        0
 91
        1
 62
     0
 92
       -2
340
0
 93
        0
 40
0.045
309
GRIDFORMAT_END
 95
        4
302
GRIDFORMAT
  1
GRIDFORMAT_BEGIN
 90
        0
 91
        1
 62
     0
 92
       -2
340
0
 93
        0
 40
0.045
309
GRIDFORMAT_END
 95
        8
302
GRIDFORMAT
  1
GRIDFORMAT_BEGIN
 90
        0
 91
        1
 62
     0
 92
       -2
340
0
 93
        0
 40
0.045
309
GRIDFORMAT_END
 95
       16
302
GRIDFORMAT
  1
GRIDFORMAT_BEGIN
 90
        0
 91
        1
 62
     0
 92
       -2
340
0
 93
        0
 40
0.045
309
GRIDFORMAT_END
 95
       32
302
GRIDFORMAT
  1
GRIDFORMAT_BEGIN
 90
        0
 91
        1
 62
     0
 92
       -2
340
0
 93
        0
 40
0.045
309
GRIDFORMAT_END
309
TABLEFORMAT_END
  1
CELLSTYLE_BEGIN
 90
        3
 91
        2
300
_DATA
309
CELLSTYLE_END
  0
ENDSEC
  0
SECTION
  2
ACDSDATA
 70
     2
 71
     8
  0
ACDSSCHEMA
 90
        0
  1
AcDb_Thumbnail_Schema
  2
AcDbDs::ID
280
    10
 91
        8
  2
Thumbnail_Data
280
    15
 91
        0
101
ACDSRECORD
 95
        0
 90
        1
  2
AcDbDs::TreatedAsObjectData
280
     1
291
     1
101
ACDSRECORD
 95
        0
 90
        2
  2
AcDbDs::Legacy
280
     1
291
     1
101
ACDSRECORD
  1
AcDbDs::ID
 90
        3
  2
AcDs:Indexable
280
     1
291
     1
101
ACDSRECORD
  1
AcDbDs::ID
 90
        4
  2
AcDbDs::HandleAttribute
280
     7
282
     1
  0
ACDSSCHEMA
 90
        1
  1
AcDbDs::TreatedAsObjectDataSchema
  2
AcDbDs::TreatedAsObjectData
280
     1
 91
        0
  0
ACDSSCHEMA
 90
        2
  1
AcDbDs::LegacySchema
  2
AcDbDs::Legacy
280
     1
 91
        0
  0
ACDSSCHEMA
 90
        3
  1
AcDbDs::IndexedPropertySchema
  2
AcDs:Indexable
280
     1
 91
        0
  0
ACDSSCHEMA
 90
        4
  1
AcDbDs::HandleAttributeSchema
  2
AcDbDs::HandleAttribute
280
     7
 91
        1
284
     1
  0
ACDSRECORD
 90
        0
  2
AcDbDs::ID
280
    10
320
22
  2
Thumbnail_Data
280
    15
 94
     1259
310
89504E470D0A1A0A0000000D49484452000001000000006D080300000079B14F6400000300504C5445212830FFFFFF2128300000000000000000000000000000000000000000000000000000330000660000990000CC0000FF0033000033330033660033990033CC0033FF0066000066330066660066990066CC0066FF0099
310
000099330099660099990099CC0099FF00CC0000CC3300CC6600CC9900CCCC00CCFF00FF0000FF3300FF6600FF9900FFCC00FFFF3300003300333300663300993300CC3300FF3333003333333333663333993333CC3333FF3366003366333366663366993366CC3366FF3399003399333399663399993399CC3399FF33CC00
310
33CC3333CC6633CC9933CCCC33CCFF33FF0033FF3333FF6633FF9933FFCC33FFFF6600006600336600666600996600CC6600FF6633006633336633666633996633CC6633FF6666006666336666666666996666CC6666FF6699006699336699666699996699CC6699FF66CC0066CC3366CC6666CC9966CCCC66CCFF66FF0066
310
FF3366FF6666FF9966FFCC66FFFF9900009900339900669900999900CC9900FF9933009933339933669933999933CC9933FF9966009966339966669966999966CC9966FF9999009999339999669999999999CC9999FF99CC0099CC3399CC6699CC9999CCCC99CCFF99FF0099FF3399FF6699FF9999FFCC99FFFFCC0000CC00
310
33CC0066CC0099CC00CCCC00FFCC3300CC3333CC3366CC3399CC33CCCC33FFCC6600CC6633CC6666CC6699CC66CCCC66FFCC9900CC9933CC9966CC9999CC99CCCC99FFCCCC00CCCC33CCCC66CCCC99CCCCCCCCCCFFCCFF00CCFF33CCFF66CCFF99CCFFCCCCFFFFFF0000FF0033FF0066FF0099FF00CCFF00FFFF3300FF3333
310
FF3366FF3399FF33CCFF33FFFF6600FF6633FF6666FF6699FF66CCFF66FFFF9900FF9933FF9966FF9999FF99CCFF99FFFFCC00FFCC33FFCC66FFCC99FFCCCCFFCCFFFFFF00FFFF33FFFF66FFFF99FFFFCCFFFFFF0000000D0D0D1A1A1A2828283535354343435050505D5D5D6B6B6B787878868686939393A1A1A1AEAEAEBB
310
BBBBC9C9C9D6D6D6E4E4E4F1F1F1FFFFFF0000000000000000000000000000000000000000000000000000000000002E4550F1000001A34944415478DAED9A4992C3200C00F9FF7F759F4BE289030614631052F7218B8B4A853692589C12000000000000000000D41005035B1B127068A8397A3795D38566EBCB3E23C09A80
310
DEA6A35A5B1650BABBF284002319628600290BB8CEC593AB80A2A1A6F5D1B6D0A53C29B8147071B7DB59D79F80242105C891549A21B050C0843298F75552CFC4C3B300E99A4C3911A00E016702A430069A21E04E406B22E43A09962642BB0838FDF327A7C2860414C34FE481C5905501B57F1C41C0B4FD00042020C862A8B1
310
58F4BF1CD64FF61801E4800002022D867E4811F305CC3F19323602561C8DD9A9028B4E876D1D9C6922B23100EE671F59D17FC526EDA0F0357232145E4057C05EBC5723FF4EF6313B1112E5EF8A642FB56FA54B1B0B90FB2060F71048F90837C7DC11808048023641F215AA7C7D0C21E0D5CFA310A78F0DB0FF675D3C8F8057
310
9A3E09F8B8182A04D2F99304C9016193A0665B5CB7878E80BD04B4CAA07301ED32E87D0434CB60A010289741922002108000042000011E052C3A1932A7A1FB769A79B60101430D28027ACCF3010000000000000000000000000077F8034768FC81DE734F9D0000000049454E44AE426082426082
  0
ENDSEC
  0
EOF
