<?xml version="1.0" encoding="utf-8"?>
<!-- Generator: Adobe Illustrator 15.1.0, SVG Export Plug-In . SVG Version: 6.00 Build 0)  -->
<!DOCTYPE svg PUBLIC "-//W3C//DTD SVG 1.1//EN" "http://www.w3.org/Graphics/SVG/1.1/DTD/svg11.dtd">
<svg version="1.1" id="Layer_1" xmlns="http://www.w3.org/2000/svg" xmlns:xlink="http://www.w3.org/1999/xlink" x="0px" y="0px"
	 width="1474.016px" height="1474.016px" viewBox="2244.964 -127.559 1474.016 1474.016"
	 enable-background="new 2244.964 -127.559 1474.016 1474.016" xml:space="preserve">
<path fill="none" stroke="#000000" stroke-width="0.3" d="M2525.931,708.699h18.141c1.385,0.258,2.467,1.34,2.725,2.721
	l4.193,43.088h3.627c1.385,0.256,2.467,1.338,2.725,2.721v9.07c-0.258,1.383-1.34,2.465-2.725,2.722h-28.346L2525.931,708.699"/>
<circle fill="none" stroke="#000000" stroke-width="0.3" cx="2537.271" cy="716.183" r="2.948"/>
<path fill="none" stroke="#000000" stroke-width="0.3" d="M2525.931,776.731h18.141c1.385,0.256,2.467,1.338,2.725,2.722
	l4.193,43.086h3.627c1.385,0.258,2.467,1.34,2.725,2.721v9.072c-0.258,1.381-1.34,2.463-2.725,2.721h-28.346L2525.931,776.731"/>
<circle fill="none" stroke="#000000" stroke-width="0.3" cx="2537.271" cy="784.213" r="2.948"/>
<path fill="none" stroke="#000000" stroke-width="0.3" d="M2525.931,844.761h18.141c1.385,0.259,2.467,1.338,2.725,2.722
	l4.193,43.086h3.627c1.385,0.259,2.467,1.341,2.725,2.722v9.071c-0.258,1.382-1.34,2.464-2.725,2.722h-28.346L2525.931,844.761"/>
<circle fill="none" stroke="#000000" stroke-width="0.3" cx="2537.271" cy="852.245" r="2.948"/>
<path fill="none" stroke="#000000" stroke-width="0.3" d="M2525.931,912.794h18.141c1.385,0.258,2.467,1.338,2.725,2.721
	l4.193,43.086h3.627c1.385,0.258,2.467,1.34,2.725,2.723v9.07c-0.258,1.383-1.34,2.463-2.725,2.721h-28.346L2525.931,912.794"/>
<circle fill="none" stroke="#000000" stroke-width="0.3" cx="2537.271" cy="920.276" r="2.948"/>
<path fill="none" stroke="#000000" stroke-width="0.3" d="M2525.931,980.826h18.141c1.385,0.258,2.467,1.338,2.725,2.721
	l4.193,43.086h3.627c1.385,0.258,2.467,1.34,2.725,2.723v9.07c-0.258,1.383-1.34,2.463-2.725,2.721h-28.346L2525.931,980.826"/>
<circle fill="none" stroke="#000000" stroke-width="0.3" cx="2537.271" cy="988.309" r="2.948"/>
<path fill="none" stroke="#000000" stroke-width="0.3" d="M2525.931,1048.855h18.141c1.385,0.26,2.467,1.342,2.725,2.723
	l4.193,43.088h3.627c1.385,0.256,2.467,1.338,2.725,2.721v9.07c-0.258,1.383-1.34,2.463-2.725,2.721h-28.346L2525.931,1048.855"/>
<circle fill="none" stroke="#000000" stroke-width="0.3" cx="2537.271" cy="1056.34" r="2.948"/>
<path fill="none" stroke="#000000" stroke-width="0.3" d="M2525.931,1116.887h18.141c1.385,0.258,2.467,1.34,2.725,2.721
	l4.193,43.088h3.627c1.385,0.258,2.467,1.34,2.725,2.723v9.07c-0.258,1.383-1.34,2.463-2.725,2.721h-28.346L2525.931,1116.887"/>
<circle fill="none" stroke="#000000" stroke-width="0.3" cx="2537.271" cy="1124.373" r="2.948"/>
<path fill="none" stroke="#000000" stroke-width="0.3" d="M2525.931,1184.92h18.141c1.385,0.258,2.467,1.34,2.725,2.721
	l4.193,43.088h3.627c1.385,0.258,2.467,1.338,2.725,2.721v9.07c-0.258,1.383-1.34,2.465-2.725,2.723h-28.346L2525.931,1184.92"/>
<circle fill="none" stroke="#000000" stroke-width="0.3" cx="2537.271" cy="1192.404" r="2.948"/>
<path fill="none" stroke="#000000" stroke-width="0.3" d="M2464.873,708.699h18.141c1.383,0.258,2.465,1.34,2.723,2.721
	l4.195,43.088h3.627c1.383,0.256,2.465,1.338,2.723,2.721v9.07c-0.258,1.383-1.34,2.465-2.723,2.722h-28.346L2464.873,708.699"/>
<circle fill="none" stroke="#000000" stroke-width="0.3" cx="2476.21" cy="716.183" r="2.948"/>
<path fill="none" stroke="#000000" stroke-width="0.3" d="M2464.873,776.731h18.141c1.383,0.256,2.465,1.338,2.723,2.722
	l4.195,43.086h3.627c1.383,0.258,2.465,1.34,2.723,2.721v9.072c-0.258,1.381-1.34,2.463-2.723,2.721h-28.346L2464.873,776.731"/>
<circle fill="none" stroke="#000000" stroke-width="0.3" cx="2476.21" cy="784.213" r="2.948"/>
<path fill="none" stroke="#000000" stroke-width="0.3" d="M2464.873,844.761h18.141c1.383,0.259,2.465,1.338,2.723,2.722
	l4.195,43.086h3.627c1.383,0.259,2.465,1.341,2.723,2.722v9.071c-0.258,1.382-1.34,2.464-2.723,2.722h-28.346L2464.873,844.761"/>
<circle fill="none" stroke="#000000" stroke-width="0.3" cx="2476.21" cy="852.245" r="2.948"/>
<path fill="none" stroke="#000000" stroke-width="0.3" d="M2464.873,912.794h18.141c1.383,0.258,2.465,1.338,2.723,2.721
	l4.195,43.086h3.627c1.383,0.258,2.465,1.34,2.723,2.723v9.07c-0.258,1.383-1.34,2.463-2.723,2.721h-28.346L2464.873,912.794"/>
<circle fill="none" stroke="#000000" stroke-width="0.3" cx="2476.21" cy="920.276" r="2.948"/>
<path fill="none" stroke="#000000" stroke-width="0.3" d="M2464.873,980.826h18.141c1.383,0.258,2.465,1.338,2.723,2.721
	l4.195,43.086h3.627c1.383,0.258,2.465,1.34,2.723,2.723v9.07c-0.258,1.383-1.34,2.463-2.723,2.721h-28.346L2464.873,980.826"/>
<circle fill="none" stroke="#000000" stroke-width="0.3" cx="2476.21" cy="988.309" r="2.948"/>
<path fill="none" stroke="#000000" stroke-width="0.3" d="M2464.873,1048.855h18.141c1.383,0.26,2.465,1.342,2.723,2.723
	l4.195,43.088h3.627c1.383,0.256,2.465,1.338,2.723,2.721v9.07c-0.258,1.383-1.34,2.463-2.723,2.721h-28.346L2464.873,1048.855"/>
<circle fill="none" stroke="#000000" stroke-width="0.3" cx="2476.21" cy="1056.34" r="2.948"/>
<path fill="none" stroke="#000000" stroke-width="0.3" d="M2464.873,1116.887h18.141c1.383,0.258,2.465,1.34,2.723,2.721
	l4.195,43.088h3.627c1.383,0.258,2.465,1.34,2.723,2.723v9.07c-0.258,1.383-1.34,2.463-2.723,2.721h-28.346L2464.873,1116.887"/>
<circle fill="none" stroke="#000000" stroke-width="0.3" cx="2476.21" cy="1124.373" r="2.948"/>
<path fill="none" stroke="#000000" stroke-width="0.3" d="M2464.873,1184.92h18.141c1.383,0.258,2.465,1.34,2.723,2.721
	l4.195,43.088h3.627c1.383,0.258,2.465,1.338,2.723,2.721v9.07c-0.258,1.383-1.34,2.465-2.723,2.723h-28.346L2464.873,1184.92"/>
<circle fill="none" stroke="#000000" stroke-width="0.3" cx="2476.21" cy="1192.404" r="2.948"/>
<path fill="none" stroke="#000000" stroke-width="0.3" d="M2962.488,1268.677h17.008v-240.945h11.338v240.945h45.354v30.614
	c0,9.394,7.614,17.008,17.009,17.008c9.394,0,17.008-7.614,17.008-17.008v-30.614h124.724v30.614c0,9.394,7.615,17.008,17.01,17.008
	c9.394,0,17.008-7.614,17.008-17.008v-30.614h45.354v-240.945h11.338v240.945h17.008V786.787h-17.008h-11.339h-45.354v-30.613
	c0-9.395-7.614-17.008-17.009-17.008c-9.394,0-17.009,7.613-17.009,17.008v30.613h-124.723v-30.613
	c0-9.395-7.614-17.008-17.008-17.008c-9.395,0-17.009,7.613-17.009,17.008v30.613h-45.354h-17.008h-11.338V1268.677"/>
<path fill="none" stroke="#000000" stroke-width="0.3" d="M3053.196,1279.448h-5.669v22.679h11.338v-22.679H3053.196
	 M3211.935,1279.448h-5.668v22.679h11.338v-22.679H3211.935 M3211.935,776.015h-5.668v-22.678h11.338v22.678H3211.935
	 M3053.196,776.015h-5.669v-22.678h11.338v22.678H3053.196"/>
<g>
	<rect x="1160.107" y="272.586" fill="none" stroke="#000000" stroke-width="0.3" width="793.699" height="340.156"/>
	<path fill="none" stroke="#000000" stroke-width="0.3" d="M1177.115,363.293v17.008h11.34v-34.016h-11.34V363.293
		 M1177.115,522.034v17.008h11.34v-34.016h-11.34V522.034 M1250.816,595.735h17.008v-11.34h-34.016v11.34H1250.816
		 M1863.097,595.735h17.01v-11.34h-34.018v11.34H1863.097 M1936.798,522.034v-17.008h-11.338v34.016h11.338V522.034
		 M1936.798,363.293v-17.008h-11.338v34.016h11.338V363.293 M1863.097,289.594h-17.008v11.338h34.018v-11.338H1863.097
		 M1250.816,289.594h-17.008v11.338h34.016v-11.338H1250.816"/>
	<polygon fill="none" stroke="#000000" stroke-width="0.3" points="1647.666,505.026 1636.33,505.026 1636.33,539.042 
		1647.666,539.042 1647.666,522.034 	"/>
	<polygon fill="none" stroke="#000000" stroke-width="0.3" points="1636.33,380.301 1647.666,380.301 1647.666,363.293 
		1647.666,346.286 1636.33,346.286 	"/>
</g>
<g>
	<rect x="1160.107" y="-84.426" fill="none" stroke="#000000" stroke-width="0.3" width="793.699" height="340.156"/>
	<path fill="none" stroke="#000000" stroke-width="0.3" d="M1177.115,6.281v17.008h11.338v-34.016h-11.338V6.281 M1177.115,165.021
		v17.008h11.338v-34.016h-11.338V165.021 M1250.816,238.722h17.008v-11.34h-34.016v11.34H1250.816 M1863.097,238.722h17.01v-11.34
		h-34.018v11.34H1863.097 M1936.798,165.021v-17.008h-11.338v34.016h11.338V165.021 M1936.798,6.281v-17.008h-11.338v34.016h11.338
		V6.281 M1863.097-67.418h-17.008v11.338h34.018v-11.338H1863.097 M1250.816-67.418h-17.008v11.338h34.016v-11.338H1250.816"/>
	<polygon fill="none" stroke="#000000" stroke-width="0.3" points="1647.666,148.013 1636.328,148.013 1636.328,182.029 
		1647.666,182.029 1647.666,165.021 	"/>
	<polygon fill="none" stroke="#000000" stroke-width="0.3" points="1636.328,23.289 1647.666,23.289 1647.666,6.281 
		1647.666,-10.727 1636.328,-10.727 	"/>
</g>
<circle fill="none" stroke="#000000" stroke-width="0.3" cx="3133.22" cy="1197.737" r="42.52"/>
<circle fill="none" stroke="#000000" stroke-width="0.3" cx="3132.565" cy="1084.425" r="42.52"/>
<circle fill="none" stroke="#000000" stroke-width="0.3" cx="3132.565" cy="971.039" r="42.52"/>
<circle fill="none" stroke="#000000" stroke-width="0.3" cx="3132.565" cy="857.652" r="42.52"/>
<path fill="none" stroke="#000000" stroke-width="0.3" d="M2593.981,1268.702h17.009h11.338h45.354v30.614
	c0,9.395,7.613,17.009,17.008,17.009c9.394,0,17.008-7.614,17.008-17.009v-30.614h124.724v30.614
	c0,9.395,7.615,17.009,17.009,17.009c9.395,0,17.008-7.614,17.008-17.009v-30.614h45.354h11.338h17.009v-481.89h-17.009v240.943
	h-11.338V786.812h-45.354v-30.615c0-9.393-7.614-17.008-17.008-17.008c-9.395,0-17.01,7.615-17.01,17.008v30.615h-124.723v-30.615
	c0-9.393-7.614-17.008-17.008-17.008c-9.395,0-17.008,7.615-17.008,17.008v30.615h-45.354v240.943h-11.338V786.812h-17.009V1268.702
	"/>
<path fill="none" stroke="#000000" stroke-width="0.3" d="M2684.69,1279.474h-5.67v22.679h11.338v-22.679H2684.69 M2843.43,1279.474
	h-5.669v22.679h11.339v-22.679H2843.43 M2843.43,776.041h-5.669v-22.678h11.339v22.678H2843.43 M2684.69,776.041h-5.67v-22.678
	h11.338v22.678H2684.69"/>
<g>
	<circle fill="none" stroke="#000000" stroke-width="0.3" cx="2725.861" cy="1176.577" r="4.536"/>
	<circle fill="none" stroke="#000000" stroke-width="0.3" cx="2725.861" cy="1105.711" r="4.536"/>
	<path fill="none" stroke="#000000" stroke-width="0.3" d="M2718.432,1169.042c0,0-6.996-5.414-6.996-5.245s0-45.188,0-45.188
		l6.996-5.416l15.623,2.75l6.396,5.332v39.814l-6.224,5.373L2718.432,1169.042z"/>
</g>
<g>
	<circle fill="none" stroke="#000000" stroke-width="0.3" cx="2802.093" cy="949.777" r="4.536"/>
	<circle fill="none" stroke="#000000" stroke-width="0.3" cx="2802.093" cy="878.912" r="4.536"/>
	<path fill="none" stroke="#000000" stroke-width="0.3" d="M2794.665,942.244c0,0-6.996-5.414-6.996-5.246c0,0.17,0-45.188,0-45.188
		l6.996-5.416l15.624,2.75l6.396,5.332v39.814l-6.223,5.373L2794.665,942.244z"/>
</g>
<g>
	<circle fill="none" stroke="#000000" stroke-width="0.3" cx="2802.011" cy="1176.577" r="4.536"/>
	<circle fill="none" stroke="#000000" stroke-width="0.3" cx="2802.011" cy="1105.711" r="4.536"/>
	<path fill="none" stroke="#000000" stroke-width="0.3" d="M2794.583,1169.042c0,0-6.996-5.414-6.996-5.245s0-45.188,0-45.188
		l6.996-5.416l15.623,2.75l6.396,5.332v39.814l-6.224,5.373L2794.583,1169.042z"/>
</g>
<g>
	<circle fill="none" stroke="#000000" stroke-width="0.3" cx="2802.011" cy="1063.189" r="4.536"/>
	<circle fill="none" stroke="#000000" stroke-width="0.3" cx="2802.011" cy="992.324" r="4.536"/>
	<path fill="none" stroke="#000000" stroke-width="0.3" d="M2794.583,1055.656c0,0-6.996-5.414-6.996-5.246
		c0,0.17,0-45.188,0-45.188l6.996-5.416l15.623,2.75l6.396,5.332v39.814l-6.224,5.373L2794.583,1055.656z"/>
</g>
<g>
	<circle fill="none" stroke="#000000" stroke-width="0.3" cx="2725.861" cy="949.777" r="4.536"/>
	<circle fill="none" stroke="#000000" stroke-width="0.3" cx="2725.861" cy="878.912" r="4.536"/>
	<path fill="none" stroke="#000000" stroke-width="0.3" d="M2718.432,942.244c0,0-6.996-5.414-6.996-5.246c0,0.17,0-45.188,0-45.188
		l6.996-5.416l15.623,2.75l6.396,5.332v39.814l-6.224,5.373L2718.432,942.244z"/>
</g>
<g>
	<circle fill="none" stroke="#000000" stroke-width="0.3" cx="2725.861" cy="1063.189" r="4.536"/>
	<circle fill="none" stroke="#000000" stroke-width="0.3" cx="2725.861" cy="992.324" r="4.536"/>
	<path fill="none" stroke="#000000" stroke-width="0.3" d="M2718.432,1055.656c0,0-6.996-5.414-6.996-5.246
		c0,0.17,0-45.188,0-45.188l6.996-5.416l15.623,2.75l6.396,5.332v39.814l-6.224,5.373L2718.432,1055.656z"/>
</g>
<line fill="none" stroke="#000000" stroke-width="0.3" x1="3057.616" y1="1070.252" x2="3057.616" y2="1098.598"/>
<line fill="none" stroke="#000000" stroke-width="0.3" x1="3071.789" y1="1197.737" x2="3043.443" y2="1197.737"/>
<line fill="none" stroke="#000000" stroke-width="0.3" x1="3057.616" y1="1211.911" x2="3057.616" y2="1183.564"/>
<line fill="none" stroke="#000000" stroke-width="0.3" x1="3071.133" y1="957.298" x2="3071.133" y2="976.97"/>
<line fill="none" stroke="#000000" stroke-width="0.3" x1="3071.133" y1="976.97" x2="3042.789" y2="976.97"/>
<line fill="none" stroke="#000000" stroke-width="0.3" x1="3054.123" y1="847.816" x2="3054.123" y2="867.49"/>
<line fill="none" stroke="#000000" stroke-width="0.3" x1="3043.443" y1="847.816" x2="3043.443" y2="867.49"/>
<line fill="none" stroke="#000000" stroke-width="0.3" x1="3071.79" y1="867.49" x2="3043.443" y2="867.49"/>
<line fill="none" stroke="#000000" stroke-width="0.3" x1="3070.625" y1="850.988" x2="3054.123" y2="867.49"/>
<line fill="none" stroke="#000000" stroke-width="0.3" x1="3054.123" y1="847.816" x2="3043.442" y2="847.816"/>
<g>
	<path fill="none" stroke="#000000" stroke-width="0.3" d="M2580.021,29.261v-5.67h-22.68V34.93h22.68V29.261 M2580.021,641.544
		v-5.672h-22.68v11.344h22.68V641.544 M3083.455,641.544v-5.672h22.676v11.344h-22.676V641.544 M3083.455,29.261v-5.67h22.676V34.93
		h-22.676V29.261"/>
	<path fill="none" stroke="#000000" stroke-width="0.3" d="M3103.296,624.535h-30.613V46.27h30.613
		c9.393,0,17.008-7.615,17.008-17.008s-7.615-17.008-17.008-17.008h-30.613v-45.354h-240.945v-11.338h240.945v-17.008h-481.891
		v17.008v11.338v45.354h-30.613c-9.395,0-17.01,7.615-17.01,17.008s7.615,17.008,17.01,17.008h30.613v578.267h-30.613
		c-9.395,0-17.01,7.615-17.01,17.01c0,9.393,7.615,17.008,17.01,17.008h30.613v45.355v11.338v17.008h481.891v-17.008h-240.945
		V703.91h240.945v-45.355h30.613c9.393,0,17.008-7.615,17.008-17.008C3120.304,632.152,3112.689,624.535,3103.296,624.535z"/>
	<rect x="2831.738" y="414.773" fill="none" stroke="#000000" stroke-width="0.3" width="240.945" height="11.338"/>
</g>
<g>
	<path fill="none" stroke="#000000" stroke-width="0.3" d="M3670.691-13.781v5.669h22.68v-11.339h-22.68V-13.781 M3670.691,598.501
		v5.672h22.68v-11.342h-22.68V598.501 M3167.257,598.501v5.672h-22.676v-11.342h22.676V598.501 M3167.257-13.781v5.669h-22.676
		v-11.339h22.676V-13.781"/>
	<path fill="none" stroke="#000000" stroke-width="0.3" d="M3130.408,598.503c0,9.393,7.615,17.008,17.008,17.008h30.613v45.355
		h240.945v11.338h-240.945v17.008h481.891v-17.008v-11.338v-45.355h30.613c9.395,0,17.01-7.616,17.01-17.008
		s-7.615-17.008-17.01-17.008h-30.613V3.228h30.613c9.395,0,17.01-7.615,17.01-17.008s-7.615-17.008-17.01-17.008h-30.613v-45.354
		V-87.48v-17.008h-481.891v17.008h240.945v11.338h-240.945v45.354h-30.613c-9.393,0-17.008,7.615-17.008,17.008
		s7.615,17.008,17.008,17.008h30.613v578.266h-30.613C3138.023,581.493,3130.408,589.11,3130.408,598.503z"/>
	<rect x="3178.029" y="371.731" fill="none" stroke="#000000" stroke-width="0.3" width="240.945" height="11.338"/>
</g>
<g>
	<path fill="none" stroke="#000000" stroke-width="0.3" d="M3417.384,1279.474h-5.67v22.679h11.338v-22.679H3417.384
		 M3576.125,1279.474h-5.67v22.679h11.338v-22.679H3576.125 M3576.125,776.041h-5.67v-22.678h11.338v22.678H3576.125
		 M3417.384,776.041h-5.67v-22.678h11.338v22.678H3417.384"/>
	<rect x="3595.966" y="1050.433" fill="none" stroke="#000000" stroke-width="0.3" width="42.521" height="42.52"/>
	<path fill="none" stroke="#000000" stroke-width="0.3" d="M3559.117,756.197v30.615h-124.725v-30.615
		c0-9.393-7.613-17.008-17.008-17.008s-17.008,7.615-17.008,17.008v30.615h-45.354v240.943h-11.338V786.812h-17.01v481.891h17.01
		h11.338h45.354v30.614c0,9.394,7.613,17.008,17.008,17.008s17.008-7.614,17.008-17.008v-30.614h124.725v30.614
		c0,9.394,7.615,17.008,17.008,17.008c9.395,0,17.008-7.614,17.008-17.008v-30.614h45.355h11.338h17.008V786.812h-17.008v240.943
		h-11.338v-22.676h-42.521v-42.52h42.521V786.812h-45.355v-30.615c0-9.393-7.613-17.008-17.008-17.008
		C3566.732,739.189,3559.117,746.804,3559.117,756.197z"/>
</g>
</svg>
