<?xml version="1.0" encoding="utf-8"?>
<!-- Generator: Adobe Illustrator 15.1.0, SVG Export Plug-In . SVG Version: 6.00 Build 0)  -->
<!DOCTYPE svg PUBLIC "-//W3C//DTD SVG 1.1//EN" "http://www.w3.org/Graphics/SVG/1.1/DTD/svg11.dtd">
<svg version="1.1" id="Layer_1" xmlns="http://www.w3.org/2000/svg" xmlns:xlink="http://www.w3.org/1999/xlink" x="0px" y="0px"
	 width="2762.079px" height="752.484px" viewBox="0 0 2762.079 752.484" enable-background="new 0 0 2762.079 752.484"
	 xml:space="preserve">
<path fill="none" stroke="#000000" stroke-miterlimit="10" d="M1005.829,432.973v-13.605c0.191-1.037,1.004-1.849,2.041-2.041
	l32.314-3.146v-2.722c0.193-1.036,1.004-1.848,2.041-2.041h6.803c1.037,0.193,1.848,1.005,2.041,2.041v21.26L1005.829,432.973"/>
<circle fill="none" stroke="#000000" stroke-miterlimit="10" cx="1011.44" cy="424.469" r="2.211"/>
<path fill="none" stroke="#000000" stroke-miterlimit="10" d="M1056.852,432.973v-13.605c0.193-1.037,1.004-1.849,2.041-2.041
	l32.314-3.146v-2.722c0.193-1.036,1.004-1.848,2.041-2.041h6.803c1.037,0.193,1.848,1.005,2.041,2.041v21.26L1056.852,432.973"/>
<circle fill="none" stroke="#000000" stroke-miterlimit="10" cx="1062.463" cy="424.469" r="2.211"/>
<path fill="none" stroke="#000000" stroke-miterlimit="10" d="M1107.875,432.973v-13.605c0.193-1.037,1.004-1.849,2.041-2.041
	l32.314-3.146v-2.722c0.193-1.036,1.004-1.848,2.041-2.041h6.803c1.037,0.193,1.848,1.005,2.041,2.041v21.26L1107.875,432.973"/>
<circle fill="none" stroke="#000000" stroke-miterlimit="10" cx="1113.487" cy="424.469" r="2.211"/>
<path fill="none" stroke="#000000" stroke-miterlimit="10" d="M1158.899,432.973v-13.605c0.193-1.037,1.004-1.849,2.041-2.041
	l32.314-3.146v-2.722c0.193-1.036,1.004-1.848,2.041-2.041h6.803c1.037,0.193,1.848,1.005,2.041,2.041v21.26L1158.899,432.973"/>
<circle fill="none" stroke="#000000" stroke-miterlimit="10" cx="1164.512" cy="424.469" r="2.211"/>
<path fill="none" stroke="#000000" stroke-miterlimit="10" d="M1209.922,432.973v-13.605c0.193-1.037,1.004-1.849,2.041-2.041
	l32.314-3.146v-2.722c0.193-1.036,1.004-1.848,2.041-2.041h6.803c1.037,0.193,1.848,1.005,2.041,2.041v21.26L1209.922,432.973"/>
<circle fill="none" stroke="#000000" stroke-miterlimit="10" cx="1215.536" cy="424.469" r="2.211"/>
<path fill="none" stroke="#000000" stroke-miterlimit="10" d="M1260.946,432.973v-13.605c0.193-1.037,1.004-1.849,2.041-2.041
	l32.314-3.146v-2.722c0.193-1.036,1.004-1.848,2.041-2.041h6.803c1.037,0.193,1.85,1.005,2.041,2.041v21.26L1260.946,432.973"/>
<circle fill="none" stroke="#000000" stroke-miterlimit="10" cx="1266.559" cy="424.469" r="2.211"/>
<path fill="none" stroke="#000000" stroke-miterlimit="10" d="M1311.969,432.973v-13.605c0.193-1.037,1.004-1.849,2.041-2.041
	l32.314-3.146v-2.722c0.193-1.036,1.006-1.848,2.041-2.041h6.805c1.035,0.193,1.848,1.005,2.039,2.041v21.26L1311.969,432.973"/>
<circle fill="none" stroke="#000000" stroke-miterlimit="10" cx="1317.583" cy="424.469" r="2.211"/>
<path fill="none" stroke="#000000" stroke-miterlimit="10" d="M1362.993,432.973v-13.605c0.193-1.037,1.004-1.849,2.041-2.041
	l32.314-3.146v-2.722c0.193-1.036,1.006-1.848,2.041-2.041h6.805c1.035,0.193,1.848,1.005,2.041,2.041v21.26L1362.993,432.973"/>
<circle fill="none" stroke="#000000" stroke-miterlimit="10" cx="1368.606" cy="424.469" r="2.211"/>
<path fill="none" stroke="#000000" stroke-miterlimit="10" d="M1414.016,432.973v-13.605c0.193-1.037,1.006-1.849,2.041-2.041
	l32.316-3.146v-2.722c0.191-1.036,1.004-1.848,2.041-2.041h6.803c1.037,0.193,1.848,1.005,2.041,2.041v21.26L1414.016,432.973"/>
<circle fill="none" stroke="#000000" stroke-miterlimit="10" cx="1419.629" cy="424.469" r="2.211"/>
<path fill="none" stroke="#000000" stroke-miterlimit="10" d="M1465.04,432.973v-13.605c0.193-1.037,1.006-1.849,2.041-2.041
	l32.316-3.146v-2.722c0.193-1.036,1.004-1.848,2.041-2.041h6.803c1.037,0.193,1.848,1.005,2.041,2.041v21.26L1465.04,432.973"/>
<circle fill="none" stroke="#000000" stroke-miterlimit="10" cx="1470.653" cy="424.469" r="2.211"/>
<path fill="none" stroke="#000000" stroke-miterlimit="10" d="M1516.065,432.973v-13.605c0.191-1.037,1.004-1.849,2.039-2.041
	l32.316-3.146v-2.722c0.193-1.036,1.004-1.848,2.041-2.041h6.803c1.037,0.193,1.848,1.005,2.041,2.041v21.26L1516.065,432.973"/>
<circle fill="none" stroke="#000000" stroke-miterlimit="10" cx="1521.676" cy="424.469" r="2.211"/>
<path fill="none" stroke="#000000" stroke-miterlimit="10" d="M1567.088,432.973v-13.605c0.193-1.037,1.004-1.849,2.041-2.041
	l32.314-3.146v-2.722c0.193-1.036,1.004-1.848,2.041-2.041h6.803c1.037,0.193,1.848,1.005,2.041,2.041v21.26L1567.088,432.973"/>
<circle fill="none" stroke="#000000" stroke-miterlimit="10" cx="1572.7" cy="424.469" r="2.211"/>
<path fill="none" stroke="#000000" stroke-miterlimit="10" d="M1618.112,432.973v-13.605c0.193-1.037,1.004-1.849,2.041-2.041
	l32.314-3.146v-2.722c0.193-1.036,1.004-1.848,2.041-2.041h6.803c1.037,0.193,1.848,1.005,2.041,2.041v21.26L1618.112,432.973"/>
<circle fill="none" stroke="#000000" stroke-miterlimit="10" cx="1623.723" cy="424.469" r="2.211"/>
<path fill="none" stroke="#000000" stroke-miterlimit="10" d="M1669.135,432.973v-13.605c0.193-1.037,1.004-1.849,2.041-2.041
	l32.314-3.146v-2.722c0.193-1.036,1.004-1.848,2.041-2.041h6.803c1.037,0.193,1.848,1.005,2.041,2.041v21.26L1669.135,432.973"/>
<circle fill="none" stroke="#000000" stroke-miterlimit="10" cx="1674.747" cy="424.469" r="2.211"/>
<path fill="none" stroke="#000000" stroke-miterlimit="10" d="M1005.829,466.989v-13.606c0.191-1.037,1.004-1.848,2.041-2.041
	l32.314-3.146v-2.722c0.193-1.036,1.004-1.848,2.041-2.041h6.803c1.037,0.193,1.848,1.005,2.041,2.041v21.26L1005.829,466.989"/>
<circle fill="none" stroke="#000000" stroke-miterlimit="10" cx="1011.44" cy="458.485" r="2.211"/>
<path fill="none" stroke="#000000" stroke-miterlimit="10" d="M1056.852,466.989v-13.606c0.193-1.037,1.004-1.848,2.041-2.041
	l32.314-3.146v-2.722c0.193-1.036,1.004-1.848,2.041-2.041h6.803c1.037,0.193,1.848,1.005,2.041,2.041v21.26L1056.852,466.989"/>
<circle fill="none" stroke="#000000" stroke-miterlimit="10" cx="1062.463" cy="458.485" r="2.211"/>
<path fill="none" stroke="#000000" stroke-miterlimit="10" d="M1107.875,466.989v-13.606c0.193-1.037,1.004-1.848,2.041-2.041
	l32.314-3.146v-2.722c0.193-1.036,1.004-1.848,2.041-2.041h6.803c1.037,0.193,1.848,1.005,2.041,2.041v21.26L1107.875,466.989"/>
<circle fill="none" stroke="#000000" stroke-miterlimit="10" cx="1113.487" cy="458.485" r="2.211"/>
<path fill="none" stroke="#000000" stroke-miterlimit="10" d="M1158.899,466.989v-13.606c0.193-1.037,1.004-1.848,2.041-2.041
	l32.314-3.146v-2.722c0.193-1.036,1.004-1.848,2.041-2.041h6.803c1.037,0.193,1.848,1.005,2.041,2.041v21.26L1158.899,466.989"/>
<circle fill="none" stroke="#000000" stroke-miterlimit="10" cx="1164.512" cy="458.485" r="2.211"/>
<rect x="28.347" y="28.347" fill="none" stroke="#000000" stroke-miterlimit="10" width="467.717" height="325.984"/>
<path fill="none" stroke="#000000" stroke-miterlimit="10" d="M41.103,107.717v12.756h8.504V94.961h-8.504V107.717 M41.103,274.961
	v12.756h8.504v-25.512h-8.504V274.961 M107.717,341.575h12.756v-8.504H94.961v8.504H107.717 M416.692,341.575h12.757v-8.504h-25.513
	v8.504H416.692 M483.308,274.961v-12.756h-8.504v25.512h8.504V274.961 M483.308,107.717V94.961h-8.504v25.512h8.504V107.717
	 M416.692,41.103h-12.756v8.504h25.513v-8.504H416.692 M107.717,41.103H94.961v8.504h25.512v-8.504H107.717"/>
<rect x="524.409" y="28.347" fill="none" stroke="#000000" stroke-miterlimit="10" width="467.717" height="325.984"/>
<path fill="none" stroke="#000000" stroke-miterlimit="10" d="M537.165,107.717v12.756h8.504V94.961h-8.504V107.717
	 M537.165,274.961v12.756h8.504v-25.512h-8.504V274.961 M603.779,341.575h12.756v-8.504h-25.512v8.504H603.779 M912.756,341.575
	h12.756v-8.504H900v8.504H912.756 M979.37,274.961v-12.756h-8.504v25.512h8.504V274.961 M979.37,107.717V94.961h-8.504v25.512h8.504
	V107.717 M912.756,41.103H900v8.504h25.512v-8.504H912.756 M603.779,41.103h-12.756v8.504h25.512v-8.504H603.779"/>
<path fill="none" stroke="#000000" stroke-miterlimit="10" d="M1038.331,28.347v12.756h141.732v8.504h-141.732v45.354h-19.275
	c-7.045,0-12.757,5.711-12.757,12.756s5.712,12.756,12.757,12.756h19.275v141.732h-19.275c-7.045,0-12.757,5.711-12.757,12.756
	c0,7.044,5.712,12.756,12.757,12.756h19.275v45.354h141.732v8.504h-141.732v12.756h283.464v-12.756v-8.504v-45.354h19.276
	c7.045,0,12.756-5.711,12.756-12.756c0-7.045-5.711-12.756-12.756-12.756h-19.276V120.473h19.276
	c7.045,0,12.756-5.711,12.756-12.756s-5.711-12.756-12.756-12.756h-19.276V49.606V36.851v-8.504H1038.331"/>
<path fill="none" stroke="#000000" stroke-miterlimit="10" d="M1030.394,107.717v-4.252h-17.008v8.504h17.008V107.717
	 M1030.394,274.961v-4.252h-17.008v8.504h17.008V274.961 M1329.732,274.961v-4.252h17.008v8.504h-17.008V274.961 M1329.732,107.717
	v-4.252h17.008v8.504h-17.008V107.717"/>
<path fill="none" stroke="#000000" stroke-miterlimit="10" d="M1414.206,28.347v12.756v8.504v45.354h-19.277
	c-7.045,0-12.756,5.711-12.756,12.756s5.711,12.756,12.756,12.756h19.277v141.732h-19.277c-7.045,0-12.756,5.711-12.756,12.756
	c0,7.044,5.711,12.756,12.756,12.756h19.277v45.354v8.504v12.756h283.463v-12.756h-141.732v-8.504h141.732v-45.354h19.277
	c7.045,0,12.756-5.711,12.756-12.756c0-7.045-5.711-12.756-12.756-12.756h-19.277V120.473h19.277
	c7.045,0,12.756-5.711,12.756-12.756s-5.711-12.756-12.756-12.756h-19.277V49.606h-141.732v-8.504h141.732V28.347H1414.206"/>
<path fill="none" stroke="#000000" stroke-miterlimit="10" d="M1406.268,107.717v-4.252h-17.008v8.504h17.008V107.717
	 M1406.268,274.961v-4.252h-17.008v8.504h17.008V274.961 M1705.606,274.961v-4.252h17.008v8.504h-17.008V274.961 M1705.606,107.717
	v-4.252h17.008v8.504h-17.008V107.717"/>
<g>
	<path fill="none" stroke="#000000" stroke-miterlimit="10" d="M496.063,395.909h-12.756h-8.504h-45.354v-19.275
		c0-7.045-5.711-12.756-12.756-12.756s-12.756,5.711-12.756,12.756v19.275H120.474v-19.275c0-7.045-5.712-12.756-12.756-12.756
		c-7.045,0-12.757,5.711-12.757,12.756v19.275H49.606h-8.504H28.347v283.465h12.756V537.642h8.504v141.732h45.354v19.275
		c0,7.045,5.712,12.756,12.757,12.756c7.044,0,12.756-5.711,12.756-12.756v-19.275h283.464v19.275
		c0,7.045,5.711,12.756,12.756,12.756s12.756-5.711,12.756-12.756v-19.275h45.354V537.642h8.504v141.732h12.756V395.909"/>
	<path fill="none" stroke="#000000" stroke-miterlimit="10" d="M416.693,387.972h4.252v-17.008h-8.504v17.008H416.693
		 M107.718,387.972h4.252v-17.008h-8.505v17.008H107.718 M107.718,687.312h4.252v17.008h-8.505v-17.008H107.718 M416.693,687.312
		h4.252v17.008h-8.504v-17.008H416.693"/>
</g>
<g>
	<path fill="none" stroke="#000000" stroke-miterlimit="10" d="M511.653,679.374h12.756V537.642h8.504v141.732h45.354v19.275
		c0,7.045,5.711,12.756,12.756,12.756s12.756-5.711,12.756-12.756v-19.275h283.464v19.275c0,7.045,5.712,12.756,12.756,12.756
		c7.045,0,12.757-5.711,12.757-12.756v-19.275h45.354V537.642h8.504v141.732h12.756V395.909h-12.756h-8.504h-45.354v-19.275
		c0-7.045-5.712-12.756-12.757-12.756c-7.044,0-12.756,5.711-12.756,12.756v19.275H603.779v-19.275
		c0-7.045-5.711-12.756-12.756-12.756s-12.756,5.711-12.756,12.756v19.275h-45.354h-8.504h-12.756V679.374"/>
	<path fill="none" stroke="#000000" stroke-miterlimit="10" d="M591.023,687.31h-4.252v17.008h8.504V687.31H591.023 M899.999,687.31
		h-4.252v17.008h8.505V687.31H899.999 M899.999,387.972h-4.252v-17.008h8.505v17.008H899.999 M591.023,387.972h-4.252v-17.008h8.504
		v17.008H591.023"/>
</g>
<g>
	<g>
		<circle fill="none" stroke="#000000" stroke-miterlimit="10" cx="113.386" cy="499.442" r="4.536"/>
		<circle fill="none" stroke="#000000" stroke-miterlimit="10" cx="184.252" cy="499.442" r="4.536"/>
		<path fill="none" stroke="#000000" stroke-miterlimit="10" d="M121.345,492.233c0,0,5.333-6.791,5.167-6.791s44.5,0,44.5,0
			l5.334,6.791l-2.709,15.167l-5.25,6.208h-39.209l-5.291-6.041L121.345,492.233z"/>
	</g>
	<g>
		<circle fill="none" stroke="#000000" stroke-miterlimit="10" cx="226.772" cy="499.442" r="4.536"/>
		<circle fill="none" stroke="#000000" stroke-miterlimit="10" cx="297.638" cy="499.442" r="4.536"/>
		<path fill="none" stroke="#000000" stroke-miterlimit="10" d="M234.73,492.233c0,0,5.333-6.791,5.167-6.791s44.5,0,44.5,0
			l5.334,6.791l-2.709,15.167l-5.25,6.208h-39.209l-5.291-6.041L234.73,492.233z"/>
	</g>
	<g>
		<circle fill="none" stroke="#000000" stroke-miterlimit="10" cx="340.158" cy="499.442" r="4.536"/>
		<circle fill="none" stroke="#000000" stroke-miterlimit="10" cx="411.024" cy="499.442" r="4.536"/>
		<path fill="none" stroke="#000000" stroke-miterlimit="10" d="M348.116,492.233c0,0,5.333-6.791,5.167-6.791s44.5,0,44.5,0
			l5.334,6.791l-2.709,15.167l-5.25,6.208h-39.209l-5.291-6.041L348.116,492.233z"/>
	</g>
	<g>
		<circle fill="none" stroke="#000000" stroke-miterlimit="10" cx="226.772" cy="575.675" r="4.536"/>
		<circle fill="none" stroke="#000000" stroke-miterlimit="10" cx="297.638" cy="575.675" r="4.536"/>
		<path fill="none" stroke="#000000" stroke-miterlimit="10" d="M234.73,568.466c0,0,5.333-6.791,5.167-6.791s44.5,0,44.5,0
			l5.334,6.791l-2.709,15.167l-5.25,6.208h-39.209l-5.291-6.041L234.73,568.466z"/>
	</g>
	<g>
		<circle fill="none" stroke="#000000" stroke-miterlimit="10" cx="340.158" cy="575.675" r="4.536"/>
		<circle fill="none" stroke="#000000" stroke-miterlimit="10" cx="411.024" cy="575.675" r="4.536"/>
		<path fill="none" stroke="#000000" stroke-miterlimit="10" d="M348.116,568.466c0,0,5.333-6.791,5.167-6.791s44.5,0,44.5,0
			l5.334,6.791l-2.709,15.167l-5.25,6.208h-39.209l-5.291-6.041L348.116,568.466z"/>
	</g>
	<g>
		<circle fill="none" stroke="#000000" stroke-miterlimit="10" cx="113.386" cy="575.675" r="4.536"/>
		<circle fill="none" stroke="#000000" stroke-miterlimit="10" cx="184.252" cy="575.675" r="4.536"/>
		<path fill="none" stroke="#000000" stroke-miterlimit="10" d="M121.345,568.466c0,0,5.333-6.791,5.167-6.791s44.5,0,44.5,0
			l5.334,6.791l-2.709,15.167l-5.25,6.208h-39.209l-5.291-6.041L121.345,568.466z"/>
	</g>
</g>
<circle fill="none" stroke="#000000" stroke-miterlimit="10" cx="214.165" cy="213.262" r="4.25"/>
<circle fill="none" stroke="#000000" stroke-miterlimit="10" cx="360.957" cy="201.096" r="4.167"/>
<circle fill="none" stroke="#000000" stroke-miterlimit="10" cx="446.79" cy="213.262" r="4.25"/>
<circle fill="none" stroke="#000000" stroke-miterlimit="10" cx="428.79" cy="77.596" r="4.667"/>
<circle fill="none" stroke="#000000" stroke-miterlimit="10" cx="217.957" cy="77.596" r="4"/>
<circle fill="none" stroke="#000000" stroke-miterlimit="10" cx="1126.54" cy="109.623" r="24"/>
<circle fill="none" stroke="#000000" stroke-miterlimit="10" cx="1126.54" cy="172.929" r="24"/>
</svg>
