  0
SECTION
  2
HEADER
  9
$ACADVER
  1
AC1018
  9
$ACADMAINTVER
 70
     0
  9
$DWGCODEPAGE
  3
ANSI_1252
  9
$INSBASE
 10
0.0
 20
0.0
 30
0.0
  9
$EXTMIN
 10
1.000000000000000E+20
 20
1.000000000000000E+20
 30
1.000000000000000E+20
  9
$EXTMAX
 10
-1.000000000000000E+20
 20
-1.000000000000000E+20
 30
-1.000000000000000E+20
  9
$LIMMIN
 10
0.0
 20
0.0
  9
$LIMMAX
 10
12.0
 20
9.0
  9
$ORTHOMODE
 70
     0
  9
$REGENMODE
 70
     1
  9
$FILLMODE
 70
     1
  9
$QTEXTMODE
 70
     0
  9
$MIRRTEXT
 70
     1
  9
$LTSCALE
 40
1.0
  9
$ATTMODE
 70
     1
  9
$TEXTSIZE
 40
0.2
  9
$TRACEWID
 40
0.05
  9
$TEXTSTYLE
  7
Standard
  9
$CLAYER
  8
0
  9
$CELTYPE
  6
ByLayer
  9
$CECOLOR
 62
   256
  9
$CELTSCALE
 40
1.0
  9
$DISPSILH
 70
     0
  9
$DIMSCALE
 40
1.0
  9
$DIMASZ
 40
0.18
  9
$DIMEXO
 40
0.0625
  9
$DIMDLI
 40
0.38
  9
$DIMRND
 40
0.0
  9
$DIMDLE
 40
0.0
  9
$DIMEXE
 40
0.18
  9
$DIMTP
 40
0.0
  9
$DIMTM
 40
0.0
  9
$DIMTXT
 40
0.18
  9
$DIMCEN
 40
0.09
  9
$DIMTSZ
 40
0.0
  9
$DIMTOL
 70
     0
  9
$DIMLIM
 70
     0
  9
$DIMTIH
 70
     1
  9
$DIMTOH
 70
     1
  9
$DIMSE1
 70
     0
  9
$DIMSE2
 70
     0
  9
$DIMTAD
 70
     0
  9
$DIMZIN
 70
     0
  9
$DIMBLK
  1

  9
$DIMASO
 70
     1
  9
$DIMSHO
 70
     1
  9
$DIMPOST
  1

  9
$DIMAPOST
  1

  9
$DIMALT
 70
     0
  9
$DIMALTD
 70
     2
  9
$DIMALTF
 40
25.4
  9
$DIMLFAC
 40
1.0
  9
$DIMTOFL
 70
     0
  9
$DIMTVP
 40
0.0
  9
$DIMTIX
 70
     0
  9
$DIMSOXD
 70
     0
  9
$DIMSAH
 70
     0
  9
$DIMBLK1
  1

  9
$DIMBLK2
  1

  9
$DIMSTYLE
  2
Standard
  9
$DIMCLRD
 70
     0
  9
$DIMCLRE
 70
     0
  9
$DIMCLRT
 70
     0
  9
$DIMTFAC
 40
1.0
  9
$DIMGAP
 40
0.09
  9
$DIMJUST
 70
     0
  9
$DIMSD1
 70
     0
  9
$DIMSD2
 70
     0
  9
$DIMTOLJ
 70
     1
  9
$DIMTZIN
 70
     0
  9
$DIMALTZ
 70
     0
  9
$DIMALTTZ
 70
     0
  9
$DIMUPT
 70
     0
  9
$DIMDEC
 70
     4
  9
$DIMTDEC
 70
     4
  9
$DIMALTU
 70
     2
  9
$DIMALTTD
 70
     2
  9
$DIMTXSTY
  7
Standard
  9
$DIMAUNIT
 70
     0
  9
$DIMADEC
 70
     0
  9
$DIMALTRND
 40
0.0
  9
$DIMAZIN
 70
     0
  9
$DIMDSEP
 70
    46
  9
$DIMATFIT
 70
     3
  9
$DIMFRAC
 70
     0
  9
$DIMLDRBLK
  1

  9
$DIMLUNIT
 70
     2
  9
$DIMLWD
 70
    -2
  9
$DIMLWE
 70
    -2
  9
$DIMTMOVE
 70
     0
  9
$LUNITS
 70
     2
  9
$LUPREC
 70
     4
  9
$SKETCHINC
 40
0.1
  9
$FILLETRAD
 40
0.5
  9
$AUNITS
 70
     0
  9
$AUPREC
 70
     0
  9
$MENU
  1
.
  9
$ELEVATION
 40
0.0
  9
$PELEVATION
 40
0.0
  9
$THICKNESS
 40
0.0
  9
$LIMCHECK
 70
     0
  9
$CHAMFERA
 40
0.5
  9
$CHAMFERB
 40
0.5
  9
$CHAMFERC
 40
1.0
  9
$CHAMFERD
 40
0.0
  9
$SKPOLY
 70
     0
  9
$TDCREATE
 40
2458523.622666424
  9
$TDUCREATE
 40
2458523.580999757
  9
$TDUPDATE
 40
2458523.622666435
  9
$TDUUPDATE
 40
2458523.580999768
  9
$TDINDWG
 40
0.0000000116
  9
$TDUSRTIMER
 40
0.0000000116
  9
$USRTIMER
 70
     1
  9
$ANGBASE
 50
0.0
  9
$ANGDIR
 70
     0
  9
$PDMODE
 70
     0
  9
$PDSIZE
 40
0.0
  9
$PLINEWID
 40
0.0
  9
$SPLFRAME
 70
     0
  9
$SPLINETYPE
 70
     6
  9
$SPLINESEGS
 70
     8
  9
$HANDSEED
  5
22F
  9
$SURFTAB1
 70
     6
  9
$SURFTAB2
 70
     6
  9
$SURFTYPE
 70
     6
  9
$SURFU
 70
     6
  9
$SURFV
 70
     6
  9
$UCSBASE
  2

  9
$UCSNAME
  2

  9
$UCSORG
 10
0.0
 20
0.0
 30
0.0
  9
$UCSXDIR
 10
1.0
 20
0.0
 30
0.0
  9
$UCSYDIR
 10
0.0
 20
1.0
 30
0.0
  9
$UCSORTHOREF
  2

  9
$UCSORTHOVIEW
 70
     0
  9
$UCSORGTOP
 10
0.0
 20
0.0
 30
0.0
  9
$UCSORGBOTTOM
 10
0.0
 20
0.0
 30
0.0
  9
$UCSORGLEFT
 10
0.0
 20
0.0
 30
0.0
  9
$UCSORGRIGHT
 10
0.0
 20
0.0
 30
0.0
  9
$UCSORGFRONT
 10
0.0
 20
0.0
 30
0.0
  9
$UCSORGBACK
 10
0.0
 20
0.0
 30
0.0
  9
$PUCSBASE
  2

  9
$PUCSNAME
  2

  9
$PUCSORG
 10
0.0
 20
0.0
 30
0.0
  9
$PUCSXDIR
 10
1.0
 20
0.0
 30
0.0
  9
$PUCSYDIR
 10
0.0
 20
1.0
 30
0.0
  9
$PUCSORTHOREF
  2

  9
$PUCSORTHOVIEW
 70
     0
  9
$PUCSORGTOP
 10
0.0
 20
0.0
 30
0.0
  9
$PUCSORGBOTTOM
 10
0.0
 20
0.0
 30
0.0
  9
$PUCSORGLEFT
 10
0.0
 20
0.0
 30
0.0
  9
$PUCSORGRIGHT
 10
0.0
 20
0.0
 30
0.0
  9
$PUCSORGFRONT
 10
0.0
 20
0.0
 30
0.0
  9
$PUCSORGBACK
 10
0.0
 20
0.0
 30
0.0
  9
$USERI1
 70
     0
  9
$USERI2
 70
     0
  9
$USERI3
 70
     0
  9
$USERI4
 70
     0
  9
$USERI5
 70
     0
  9
$USERR1
 40
0.0
  9
$USERR2
 40
0.0
  9
$USERR3
 40
0.0
  9
$USERR4
 40
0.0
  9
$USERR5
 40
0.0
  9
$WORLDVIEW
 70
     1
  9
$SHADEDGE
 70
     3
  9
$SHADEDIF
 70
    70
  9
$TILEMODE
 70
     1
  9
$MAXACTVP
 70
    64
  9
$PINSBASE
 10
0.0
 20
0.0
 30
0.0
  9
$PLIMCHECK
 70
     0
  9
$PEXTMIN
 10
1.000000000000000E+20
 20
1.000000000000000E+20
 30
1.000000000000000E+20
  9
$PEXTMAX
 10
-1.000000000000000E+20
 20
-1.000000000000000E+20
 30
-1.000000000000000E+20
  9
$PLIMMIN
 10
0.0
 20
0.0
  9
$PLIMMAX
 10
12.0
 20
9.0
  9
$UNITMODE
 70
     0
  9
$VISRETAIN
 70
     1
  9
$PLINEGEN
 70
     0
  9
$PSLTSCALE
 70
     1
  9
$TREEDEPTH
 70
  3020
  9
$CMLSTYLE
  2
Standard
  9
$CMLJUST
 70
     0
  9
$CMLSCALE
 40
1.0
  9
$PROXYGRAPHICS
 70
     1
  9
$MEASUREMENT
 70
     0
  9
$CELWEIGHT
370
    -1
  9
$ENDCAPS
280
     0
  9
$JOINSTYLE
280
     0
  9
$LWDISPLAY
290
     1
  9
$INSUNITS
 70
     1
  9
$HYPERLINKBASE
  1

  9
$STYLESHEET
  1

  9
$XEDIT
290
     1
  9
$CEPSNTYPE
380
     0
  9
$PSTYLEMODE
290
     1
  9
$FINGERPRINTGUID
  2
{ACC87FCB-7016-4861-9396-65F2327379ED}
  9
$VERSIONGUID
  2
{FAEB1C32-E019-11D5-929B-00C0DF256EC4}
  9
$EXTNAMES
290
     1
  9
$PSVPSCALE
 40
0.0
  9
$OLESTARTUP
290
     0
  9
$SORTENTS
280
   127
  9
$INDEXCTL
280
     0
  9
$HIDETEXT
280
     1
  9
$XCLIPFRAME
290
     0
  9
$HALOGAP
280
     0
  9
$OBSCOLOR
 70
   257
  9
$OBSLTYPE
280
     0
  9
$INTERSECTIONDISPLAY
280
     0
  9
$INTERSECTIONCOLOR
 70
   257
  9
$DIMASSOC
280
     2
  9
$PROJECTNAME
  1

  0
ENDSEC
  0
SECTION
  2
CLASSES
  0
CLASS
  1
ACDBDICTIONARYWDFLT
  2
AcDbDictionaryWithDefault
  3
ObjectDBX Classes
 90
        0
 91
        3
280
     0
281
     0
  0
CLASS
  1
VISUALSTYLE
  2
AcDbVisualStyle
  3
ObjectDBX Classes
 90
     4095
 91
        3
280
     0
281
     0
  0
ENDSEC
  0
SECTION
  2
TABLES
  0
TABLE
  2
VPORT
  5
8
330
0
100
AcDbSymbolTable
 70
     1
  0
VPORT
  5
29
330
8
100
AcDbSymbolTableRecord
100
AcDbViewportTableRecord
  2
*Active
 70
     0
 10
0.0
 20
0.0
 11
1.0
 21
1.0
 12
0.0
 22
0.0
 13
0.0
 23
0.0
 14
0.5
 24
0.5
 15
0.5
 25
0.5
 16
0.0
 26
0.0
 36
1.0
 17
1107.03595892463
 27
500.0624998749843
 37
0.0
 40
519.9999564672222
 41
0.9999999999999998
 42
50.0
 43
0.0
 44
0.0
 50
0.0
 51
0.0
 71
     0
 72
   100
 73
     1
 74
     3
 75
     0
 76
     0
 77
     0
 78
     0
281
     0
 65
     1
110
0.0
120
0.0
130
0.0
111
1.0
121
0.0
131
0.0
112
0.0
122
1.0
132
0.0
 79
     0
146
0.0
  0
ENDTAB
  0
TABLE
  2
LTYPE
  5
5
330
0
100
AcDbSymbolTable
 70
     1
  0
LTYPE
  5
14
330
5
100
AcDbSymbolTableRecord
100
AcDbLinetypeTableRecord
  2
ByBlock
 70
     0
  3

 72
    65
 73
     0
 40
0.0
  0
LTYPE
  5
15
330
5
100
AcDbSymbolTableRecord
100
AcDbLinetypeTableRecord
  2
ByLayer
 70
     0
  3

 72
    65
 73
     0
 40
0.0
  0
LTYPE
  5
16
330
5
100
AcDbSymbolTableRecord
100
AcDbLinetypeTableRecord
  2
Continuous
 70
     0
  3
Solid line
 72
    65
 73
     0
 40
0.0
  0
ENDTAB
  0
TABLE
  2
LAYER
  5
2
330
0
100
AcDbSymbolTable
 70
     2
  0
LAYER
  5
10
330
2
100
AcDbSymbolTableRecord
100
AcDbLayerTableRecord
  2
0
 70
     0
 62
     7
  6
Continuous
370
    -3
390
F
  0
LAYER
  5
3B
330
2
100
AcDbSymbolTableRecord
100
AcDbLayerTableRecord
  2
Layer 1
 70
     0
 62
     7
  6
Continuous
370
    -3
390
F
  0
ENDTAB
  0
TABLE
  2
STYLE
  5
3
330
0
100
AcDbSymbolTable
 70
     1
  0
STYLE
  5
11
330
3
100
AcDbSymbolTableRecord
100
AcDbTextStyleTableRecord
  2
Standard
 70
     0
 40
0.0
 41
1.0
 50
0.0
 71
     0
 42
0.2
  3
txt
  4

  0
ENDTAB
  0
TABLE
  2
VIEW
  5
6
330
0
100
AcDbSymbolTable
 70
     0
  0
ENDTAB
  0
TABLE
  2
UCS
  5
7
330
0
100
AcDbSymbolTable
 70
     0
  0
ENDTAB
  0
TABLE
  2
APPID
  5
9
330
0
100
AcDbSymbolTable
 70
     1
  0
APPID
  5
12
330
9
100
AcDbSymbolTableRecord
100
AcDbRegAppTableRecord
  2
ACAD
 70
     0
  0
ENDTAB
  0
TABLE
  2
DIMSTYLE
  5
A
330
0
100
AcDbSymbolTable
 70
     1
100
AcDbDimStyleTable
  0
DIMSTYLE
105
27
330
A
100
AcDbSymbolTableRecord
100
AcDbDimStyleTableRecord
  2
Standard
 70
     0
340
11
  0
ENDTAB
  0
TABLE
  2
BLOCK_RECORD
  5
1
330
0
100
AcDbSymbolTable
 70
    12
  0
BLOCK_RECORD
  5
1F
330
1
100
AcDbSymbolTableRecord
100
AcDbBlockTableRecord
  2
*Model_Space
340
22
  0
BLOCK_RECORD
  5
1B
330
1
100
AcDbSymbolTableRecord
100
AcDbBlockTableRecord
  2
*Paper_Space
340
1E
  0
BLOCK_RECORD
  5
23
330
1
100
AcDbSymbolTableRecord
100
AcDbBlockTableRecord
  2
*Paper_Space0
340
26
  0
BLOCK_RECORD
  5
7D
330
1
100
AcDbSymbolTableRecord
100
AcDbBlockTableRecord
  2
block 2
340
0
102
{BLKREFS
331
7E
102
}
  0
BLOCK_RECORD
  5
D8
330
1
100
AcDbSymbolTableRecord
100
AcDbBlockTableRecord
  2
block 3
340
0
102
{BLKREFS
331
D9
102
}
  0
BLOCK_RECORD
  5
158
330
1
100
AcDbSymbolTableRecord
100
AcDbBlockTableRecord
  2
block 4
340
0
102
{BLKREFS
331
159
102
}
  0
BLOCK_RECORD
  5
15F
330
1
100
AcDbSymbolTableRecord
100
AcDbBlockTableRecord
  2
block 5
340
0
102
{BLKREFS
331
160
102
}
  0
BLOCK_RECORD
  5
166
330
1
100
AcDbSymbolTableRecord
100
AcDbBlockTableRecord
  2
block 6
340
0
102
{BLKREFS
331
167
102
}
  0
BLOCK_RECORD
  5
16D
330
1
100
AcDbSymbolTableRecord
100
AcDbBlockTableRecord
  2
block 7
340
0
102
{BLKREFS
331
16E
102
}
  0
BLOCK_RECORD
  5
174
330
1
100
AcDbSymbolTableRecord
100
AcDbBlockTableRecord
  2
block 8
340
0
102
{BLKREFS
331
175
102
}
  0
BLOCK_RECORD
  5
17B
330
1
100
AcDbSymbolTableRecord
100
AcDbBlockTableRecord
  2
block 9
340
0
102
{BLKREFS
331
17C
102
}
  0
BLOCK_RECORD
  5
1AA
330
1
100
AcDbSymbolTableRecord
100
AcDbBlockTableRecord
  2
block 10
340
0
102
{BLKREFS
331
1AB
102
}
  0
BLOCK_RECORD
  5
1D6
330
1
100
AcDbSymbolTableRecord
100
AcDbBlockTableRecord
  2
block 11
340
0
102
{BLKREFS
331
1D7
102
}
  0
BLOCK_RECORD
  5
202
330
1
100
AcDbSymbolTableRecord
100
AcDbBlockTableRecord
  2
block 12
340
0
102
{BLKREFS
331
203
102
}
  0
ENDTAB
  0
ENDSEC
  0
SECTION
  2
BLOCKS
  0
BLOCK
  5
20
330
1F
100
AcDbEntity
  8
0
100
AcDbBlockBegin
  2
*Model_Space
 70
     0
 71
     0
 10
0.0
 20
0.0
 30
0.0
  3
*Model_Space
  1

  0
ENDBLK
  5
21
330
1F
100
AcDbEntity
  8
0
100
AcDbBlockEnd
  0
BLOCK
  5
1C
330
1B
100
AcDbEntity
 67
     1
  8
0
100
AcDbBlockBegin
  2
*Paper_Space
 70
     0
 71
     0
 10
0.0
 20
0.0
 30
0.0
  3
*Paper_Space
  1

  0
ENDBLK
  5
1D
330
1B
100
AcDbEntity
 67
     1
  8
0
100
AcDbBlockEnd
  0
BLOCK
  5
24
330
23
100
AcDbEntity
  8
0
100
AcDbBlockBegin
  2
*Paper_Space0
 70
     0
 71
     0
 10
0.0
 20
0.0
 30
0.0
  3
*Paper_Space0
  1

  0
ENDBLK
  5
25
330
23
100
AcDbEntity
  8
0
100
AcDbBlockEnd
  0
BLOCK
  5
7F
330
7D
100
AcDbEntity
  8
0
100
AcDbBlockBegin
  2
block 2
 70
     0
 71
     0
 10
0.0
 20
0.0
 30
0.0
  3
block 2
  1

  0
POLYLINE
  5
81
330
7D
100
AcDbEntity
  8
Layer 1
 62
     7
420
 16777215
370
     5
100
AcDb2dPolyline
 66
     1
 10
0.0
 20
0.0
 30
0.0
  0
VERTEX
  5
82
330
81
100
AcDbEntity
  8
Layer 1
 62
     7
420
 16777215
370
     5
100
AcDbVertex
100
AcDb2dVertex
 10
464.3223902919054
 20
498.9004691678095
 30
0.0
  0
VERTEX
  5
83
330
81
100
AcDbEntity
  8
Layer 1
 62
     7
420
 16777215
370
     5
100
AcDbVertex
100
AcDb2dVertex
 10
464.3223902919054
 20
618.9000351100319
 30
0.0
  0
VERTEX
  5
84
330
81
100
AcDbEntity
  8
Layer 1
 62
     7
420
 16777215
370
     5
100
AcDbVertex
100
AcDb2dVertex
 10
744.321836836489
 20
618.9000351100319
 30
0.0
  0
VERTEX
  5
85
330
81
100
AcDbEntity
  8
Layer 1
 62
     7
420
 16777215
370
     5
100
AcDbVertex
100
AcDb2dVertex
 10
744.321836836489
 20
498.9004691678095
 30
0.0
  0
VERTEX
  5
86
330
81
100
AcDbEntity
  8
Layer 1
 62
     7
420
 16777215
370
     5
100
AcDbVertex
100
AcDb2dVertex
 10
464.3223902919054
 20
498.9004691678095
 30
0.0
  0
SEQEND
  5
87
330
81
100
AcDbEntity
  8
Layer 1
370
     5
  0
POLYLINE
  5
88
330
7D
100
AcDbEntity
  8
Layer 1
 62
     7
420
 16777215
370
     5
100
AcDb2dPolyline
 66
     1
 10
0.0
 20
0.0
 30
0.0
  0
VERTEX
  5
89
330
88
100
AcDbEntity
  8
Layer 1
 62
     7
420
 16777215
370
     5
100
AcDbVertex
100
AcDb2dVertex
 10
470.3223685890166
 20
586.9006102048373
 30
0.0
  0
VERTEX
  5
8A
330
88
100
AcDbEntity
  8
Layer 1
 62
     7
420
 16777215
370
     5
100
AcDbVertex
100
AcDb2dVertex
 10
470.3223685890166
 20
580.9006319077262
 30
0.0
  0
VERTEX
  5
8B
330
88
100
AcDbEntity
  8
Layer 1
 62
     7
420
 16777215
370
     5
100
AcDbVertex
100
AcDb2dVertex
 10
474.3228134664887
 20
580.9006319077262
 30
0.0
  0
VERTEX
  5
8C
330
88
100
AcDbEntity
  8
Layer 1
 62
     7
420
 16777215
370
     5
100
AcDbVertex
100
AcDb2dVertex
 10
474.3228134664887
 20
592.9005885019484
 30
0.0
  0
VERTEX
  5
8D
330
88
100
AcDbEntity
  8
Layer 1
 62
     7
420
 16777215
370
     5
100
AcDbVertex
100
AcDb2dVertex
 10
470.3223685890166
 20
592.9005885019484
 30
0.0
  0
VERTEX
  5
8E
330
88
100
AcDbEntity
  8
Layer 1
 62
     7
420
 16777215
370
     5
100
AcDbVertex
100
AcDb2dVertex
 10
470.3223685890166
 20
586.9006102048373
 30
0.0
  0
SEQEND
  5
8F
330
88
100
AcDbEntity
  8
Layer 1
370
     5
  0
POLYLINE
  5
90
330
7D
100
AcDbEntity
  8
Layer 1
 62
     7
420
 16777215
370
     5
100
AcDb2dPolyline
 66
     1
 10
0.0
 20
0.0
 30
0.0
  0
VERTEX
  5
91
330
90
100
AcDbEntity
  8
Layer 1
 62
     7
420
 16777215
370
     5
100
AcDbVertex
100
AcDb2dVertex
 10
470.3223685890166
 20
530.9005830921012
 30
0.0
  0
VERTEX
  5
92
330
90
100
AcDbEntity
  8
Layer 1
 62
     7
420
 16777215
370
     5
100
AcDbVertex
100
AcDb2dVertex
 10
470.3223685890166
 20
524.90060479499
 30
0.0
  0
VERTEX
  5
93
330
90
100
AcDbEntity
  8
Layer 1
 62
     7
420
 16777215
370
     5
100
AcDbVertex
100
AcDb2dVertex
 10
474.3228134664887
 20
524.90060479499
 30
0.0
  0
VERTEX
  5
94
330
90
100
AcDbEntity
  8
Layer 1
 62
     7
420
 16777215
370
     5
100
AcDbVertex
100
AcDb2dVertex
 10
474.3228134664887
 20
536.9005613892123
 30
0.0
  0
VERTEX
  5
95
330
90
100
AcDbEntity
  8
Layer 1
 62
     7
420
 16777215
370
     5
100
AcDbVertex
100
AcDb2dVertex
 10
470.3223685890166
 20
536.9005613892123
 30
0.0
  0
VERTEX
  5
96
330
90
100
AcDbEntity
  8
Layer 1
 62
     7
420
 16777215
370
     5
100
AcDbVertex
100
AcDb2dVertex
 10
470.3223685890166
 20
530.9005830921012
 30
0.0
  0
SEQEND
  5
97
330
90
100
AcDbEntity
  8
Layer 1
370
     5
  0
POLYLINE
  5
98
330
7D
100
AcDbEntity
  8
Layer 1
 62
     7
420
 16777215
370
     5
100
AcDb2dPolyline
 66
     1
 10
0.0
 20
0.0
 30
0.0
  0
VERTEX
  5
99
330
98
100
AcDbEntity
  8
Layer 1
 62
     7
420
 16777215
370
     5
100
AcDbVertex
100
AcDb2dVertex
 10
496.3225042161971
 20
504.9004474649207
 30
0.0
  0
VERTEX
  5
9A
330
98
100
AcDbEntity
  8
Layer 1
 62
     7
420
 16777215
370
     5
100
AcDbVertex
100
AcDb2dVertex
 10
502.3224825133082
 20
504.9004474649207
 30
0.0
  0
VERTEX
  5
9B
330
98
100
AcDbEntity
  8
Layer 1
 62
     7
420
 16777215
370
     5
100
AcDbVertex
100
AcDb2dVertex
 10
502.3224825133082
 20
508.9008923423928
 30
0.0
  0
VERTEX
  5
9C
330
98
100
AcDbEntity
  8
Layer 1
 62
     7
420
 16777215
370
     5
100
AcDbVertex
100
AcDb2dVertex
 10
490.322525919086
 20
508.9008923423928
 30
0.0
  0
VERTEX
  5
9D
330
98
100
AcDbEntity
  8
Layer 1
 62
     7
420
 16777215
370
     5
100
AcDbVertex
100
AcDb2dVertex
 10
490.322525919086
 20
504.9004474649207
 30
0.0
  0
VERTEX
  5
9E
330
98
100
AcDbEntity
  8
Layer 1
 62
     7
420
 16777215
370
     5
100
AcDbVertex
100
AcDb2dVertex
 10
496.3225042161971
 20
504.9004474649207
 30
0.0
  0
SEQEND
  5
9F
330
98
100
AcDbEntity
  8
Layer 1
370
     5
  0
POLYLINE
  5
A0
330
7D
100
AcDbEntity
  8
Layer 1
 62
     7
420
 16777215
370
     5
100
AcDb2dPolyline
 66
     1
 10
0.0
 20
0.0
 30
0.0
  0
VERTEX
  5
A1
330
A0
100
AcDbEntity
  8
Layer 1
 62
     7
420
 16777215
370
     5
100
AcDbVertex
100
AcDb2dVertex
 10
712.3217229121973
 20
504.9004474649207
 30
0.0
  0
VERTEX
  5
A2
330
A0
100
AcDbEntity
  8
Layer 1
 62
     7
420
 16777215
370
     5
100
AcDbVertex
100
AcDb2dVertex
 10
718.3223902284054
 20
504.9004474649207
 30
0.0
  0
VERTEX
  5
A3
330
A0
100
AcDbEntity
  8
Layer 1
 62
     7
420
 16777215
370
     5
100
AcDbVertex
100
AcDb2dVertex
 10
718.3223902284054
 20
508.9008923423928
 30
0.0
  0
VERTEX
  5
A4
330
A0
100
AcDbEntity
  8
Layer 1
 62
     7
420
 16777215
370
     5
100
AcDbVertex
100
AcDb2dVertex
 10
706.3217446150861
 20
508.9008923423928
 30
0.0
  0
VERTEX
  5
A5
330
A0
100
AcDbEntity
  8
Layer 1
 62
     7
420
 16777215
370
     5
100
AcDbVertex
100
AcDb2dVertex
 10
706.3217446150861
 20
504.9004474649207
 30
0.0
  0
VERTEX
  5
A6
330
A0
100
AcDbEntity
  8
Layer 1
 62
     7
420
 16777215
370
     5
100
AcDbVertex
100
AcDb2dVertex
 10
712.3217229121973
 20
504.9004474649207
 30
0.0
  0
SEQEND
  5
A7
330
A0
100
AcDbEntity
  8
Layer 1
370
     5
  0
POLYLINE
  5
A8
330
7D
100
AcDbEntity
  8
Layer 1
 62
     7
420
 16777215
370
     5
100
AcDb2dPolyline
 66
     1
 10
0.0
 20
0.0
 30
0.0
  0
VERTEX
  5
A9
330
A8
100
AcDbEntity
  8
Layer 1
 62
     7
420
 16777215
370
     5
100
AcDbVertex
100
AcDb2dVertex
 10
738.3218585393778
 20
530.9005830921012
 30
0.0
  0
VERTEX
  5
AA
330
A8
100
AcDbEntity
  8
Layer 1
 62
     7
420
 16777215
370
     5
100
AcDbVertex
100
AcDb2dVertex
 10
738.3218585393778
 20
536.9005613892123
 30
0.0
  0
VERTEX
  5
AB
330
A8
100
AcDbEntity
  8
Layer 1
 62
     7
420
 16777215
370
     5
100
AcDbVertex
100
AcDb2dVertex
 10
734.3221026810028
 20
536.9005613892123
 30
0.0
  0
VERTEX
  5
AC
330
A8
100
AcDbEntity
  8
Layer 1
 62
     7
420
 16777215
370
     5
100
AcDbVertex
100
AcDb2dVertex
 10
734.3221026810028
 20
524.90060479499
 30
0.0
  0
VERTEX
  5
AD
330
A8
100
AcDbEntity
  8
Layer 1
 62
     7
420
 16777215
370
     5
100
AcDbVertex
100
AcDb2dVertex
 10
738.3218585393778
 20
524.90060479499
 30
0.0
  0
VERTEX
  5
AE
330
A8
100
AcDbEntity
  8
Layer 1
 62
     7
420
 16777215
370
     5
100
AcDbVertex
100
AcDb2dVertex
 10
738.3218585393778
 20
530.9005830921012
 30
0.0
  0
SEQEND
  5
AF
330
A8
100
AcDbEntity
  8
Layer 1
370
     5
  0
POLYLINE
  5
B0
330
7D
100
AcDbEntity
  8
Layer 1
 62
     7
420
 16777215
370
     5
100
AcDb2dPolyline
 66
     1
 10
0.0
 20
0.0
 30
0.0
  0
VERTEX
  5
B1
330
B0
100
AcDbEntity
  8
Layer 1
 62
     7
420
 16777215
370
     5
100
AcDbVertex
100
AcDb2dVertex
 10
738.3218585393778
 20
586.9006102048373
 30
0.0
  0
VERTEX
  5
B2
330
B0
100
AcDbEntity
  8
Layer 1
 62
     7
420
 16777215
370
     5
100
AcDbVertex
100
AcDb2dVertex
 10
738.3218585393778
 20
592.9005885019484
 30
0.0
  0
VERTEX
  5
B3
330
B0
100
AcDbEntity
  8
Layer 1
 62
     7
420
 16777215
370
     5
100
AcDbVertex
100
AcDb2dVertex
 10
734.3221026810028
 20
592.9005885019484
 30
0.0
  0
VERTEX
  5
B4
330
B0
100
AcDbEntity
  8
Layer 1
 62
     7
420
 16777215
370
     5
100
AcDbVertex
100
AcDb2dVertex
 10
734.3221026810028
 20
580.9006319077262
 30
0.0
  0
VERTEX
  5
B5
330
B0
100
AcDbEntity
  8
Layer 1
 62
     7
420
 16777215
370
     5
100
AcDbVertex
100
AcDb2dVertex
 10
738.3218585393778
 20
580.9006319077262
 30
0.0
  0
VERTEX
  5
B6
330
B0
100
AcDbEntity
  8
Layer 1
 62
     7
420
 16777215
370
     5
100
AcDbVertex
100
AcDb2dVertex
 10
738.3218585393778
 20
586.9006102048373
 30
0.0
  0
SEQEND
  5
B7
330
B0
100
AcDbEntity
  8
Layer 1
370
     5
  0
POLYLINE
  5
B8
330
7D
100
AcDbEntity
  8
Layer 1
 62
     7
420
 16777215
370
     5
100
AcDb2dPolyline
 66
     1
 10
0.0
 20
0.0
 30
0.0
  0
VERTEX
  5
B9
330
B8
100
AcDbEntity
  8
Layer 1
 62
     7
420
 16777215
370
     5
100
AcDbVertex
100
AcDb2dVertex
 10
712.3217229121973
 20
612.9000568129208
 30
0.0
  0
VERTEX
  5
BA
330
B8
100
AcDbEntity
  8
Layer 1
 62
     7
420
 16777215
370
     5
100
AcDbVertex
100
AcDb2dVertex
 10
706.3217446150861
 20
612.9000568129208
 30
0.0
  0
VERTEX
  5
BB
330
B8
100
AcDbEntity
  8
Layer 1
 62
     7
420
 16777215
370
     5
100
AcDbVertex
100
AcDb2dVertex
 10
706.3217446150861
 20
608.9003009545457
 30
0.0
  0
VERTEX
  5
BC
330
B8
100
AcDbEntity
  8
Layer 1
 62
     7
420
 16777215
370
     5
100
AcDbVertex
100
AcDb2dVertex
 10
718.3223902284054
 20
608.9003009545457
 30
0.0
  0
VERTEX
  5
BD
330
B8
100
AcDbEntity
  8
Layer 1
 62
     7
420
 16777215
370
     5
100
AcDbVertex
100
AcDb2dVertex
 10
718.3223902284054
 20
612.9000568129208
 30
0.0
  0
VERTEX
  5
BE
330
B8
100
AcDbEntity
  8
Layer 1
 62
     7
420
 16777215
370
     5
100
AcDbVertex
100
AcDb2dVertex
 10
712.3217229121973
 20
612.9000568129208
 30
0.0
  0
SEQEND
  5
BF
330
B8
100
AcDbEntity
  8
Layer 1
370
     5
  0
POLYLINE
  5
C0
330
7D
100
AcDbEntity
  8
Layer 1
 62
     7
420
 16777215
370
     5
100
AcDb2dPolyline
 66
     1
 10
0.0
 20
0.0
 30
0.0
  0
VERTEX
  5
C1
330
C0
100
AcDbEntity
  8
Layer 1
 62
     7
420
 16777215
370
     5
100
AcDbVertex
100
AcDb2dVertex
 10
496.3225042161971
 20
612.9000568129208
 30
0.0
  0
VERTEX
  5
C2
330
C0
100
AcDbEntity
  8
Layer 1
 62
     7
420
 16777215
370
     5
100
AcDbVertex
100
AcDb2dVertex
 10
490.322525919086
 20
612.9000568129208
 30
0.0
  0
VERTEX
  5
C3
330
C0
100
AcDbEntity
  8
Layer 1
 62
     7
420
 16777215
370
     5
100
AcDbVertex
100
AcDb2dVertex
 10
490.322525919086
 20
608.9003009545457
 30
0.0
  0
VERTEX
  5
C4
330
C0
100
AcDbEntity
  8
Layer 1
 62
     7
420
 16777215
370
     5
100
AcDbVertex
100
AcDb2dVertex
 10
502.3224825133082
 20
608.9003009545457
 30
0.0
  0
VERTEX
  5
C5
330
C0
100
AcDbEntity
  8
Layer 1
 62
     7
420
 16777215
370
     5
100
AcDbVertex
100
AcDb2dVertex
 10
502.3224825133082
 20
612.9000568129208
 30
0.0
  0
VERTEX
  5
C6
330
C0
100
AcDbEntity
  8
Layer 1
 62
     7
420
 16777215
370
     5
100
AcDbVertex
100
AcDb2dVertex
 10
496.3225042161971
 20
612.9000568129208
 30
0.0
  0
SEQEND
  5
C7
330
C0
100
AcDbEntity
  8
Layer 1
370
     5
  0
POLYLINE
  5
C8
330
7D
100
AcDbEntity
  8
Layer 1
 62
     7
420
 16777215
370
     5
100
AcDb2dPolyline
 66
     1
 10
0.0
 20
0.0
 30
0.0
  0
VERTEX
  5
C9
330
C8
100
AcDbEntity
  8
Layer 1
 62
     7
420
 16777215
370
     5
100
AcDbVertex
100
AcDb2dVertex
 10
636.3222274884888
 20
536.9005613892123
 30
0.0
  0
VERTEX
  5
CA
330
C8
100
AcDbEntity
  8
Layer 1
 62
     7
420
 16777215
370
     5
100
AcDbVertex
100
AcDb2dVertex
 10
632.3231606492108
 20
536.9005613892123
 30
0.0
  0
VERTEX
  5
CB
330
C8
100
AcDbEntity
  8
Layer 1
 62
     7
420
 16777215
370
     5
100
AcDbVertex
100
AcDb2dVertex
 10
632.3231606492108
 20
524.90060479499
 30
0.0
  0
VERTEX
  5
CC
330
C8
100
AcDbEntity
  8
Layer 1
 62
     7
420
 16777215
370
     5
100
AcDbVertex
100
AcDb2dVertex
 10
636.3222274884888
 20
524.90060479499
 30
0.0
  0
VERTEX
  5
CD
330
C8
100
AcDbEntity
  8
Layer 1
 62
     7
420
 16777215
370
     5
100
AcDbVertex
100
AcDb2dVertex
 10
636.3222274884888
 20
530.9005830921012
 30
0.0
  0
VERTEX
  5
CE
330
C8
100
AcDbEntity
  8
Layer 1
 62
     7
420
 16777215
370
     5
100
AcDbVertex
100
AcDb2dVertex
 10
636.3222274884888
 20
536.9005613892123
 30
0.0
  0
SEQEND
  5
CF
330
C8
100
AcDbEntity
  8
Layer 1
370
     5
  0
POLYLINE
  5
D0
330
7D
100
AcDbEntity
  8
Layer 1
 62
     7
420
 16777215
370
     5
100
AcDb2dPolyline
 66
     1
 10
0.0
 20
0.0
 30
0.0
  0
VERTEX
  5
D1
330
D0
100
AcDbEntity
  8
Layer 1
 62
     7
420
 16777215
370
     5
100
AcDbVertex
100
AcDb2dVertex
 10
632.3231606492108
 20
580.9006319077262
 30
0.0
  0
VERTEX
  5
D2
330
D0
100
AcDbEntity
  8
Layer 1
 62
     7
420
 16777215
370
     5
100
AcDbVertex
100
AcDb2dVertex
 10
636.3222274884888
 20
580.9006319077262
 30
0.0
  0
VERTEX
  5
D3
330
D0
100
AcDbEntity
  8
Layer 1
 62
     7
420
 16777215
370
     5
100
AcDbVertex
100
AcDb2dVertex
 10
636.3222274884888
 20
586.9006102048373
 30
0.0
  0
VERTEX
  5
D4
330
D0
100
AcDbEntity
  8
Layer 1
 62
     7
420
 16777215
370
     5
100
AcDbVertex
100
AcDb2dVertex
 10
636.3222274884888
 20
592.9005885019484
 30
0.0
  0
VERTEX
  5
D5
330
D0
100
AcDbEntity
  8
Layer 1
 62
     7
420
 16777215
370
     5
100
AcDbVertex
100
AcDb2dVertex
 10
632.3231606492108
 20
592.9005885019484
 30
0.0
  0
VERTEX
  5
D6
330
D0
100
AcDbEntity
  8
Layer 1
 62
     7
420
 16777215
370
     5
100
AcDbVertex
100
AcDb2dVertex
 10
632.3231606492108
 20
580.9006319077262
 30
0.0
  0
SEQEND
  5
D7
330
D0
100
AcDbEntity
  8
Layer 1
370
     5
  0
ENDBLK
  5
80
330
7D
100
AcDbEntity
  8
0
100
AcDbBlockEnd
  0
BLOCK
  5
DA
330
D8
100
AcDbEntity
  8
0
100
AcDbBlockBegin
  2
block 3
 70
     0
 71
     0
 10
0.0
 20
0.0
 30
0.0
  3
block 3
  1

  0
POLYLINE
  5
DC
330
D8
100
AcDbEntity
  8
Layer 1
 62
     7
420
 16777215
370
     5
100
AcDb2dPolyline
 66
     1
 10
0.0
 20
0.0
 30
0.0
  0
VERTEX
  5
DD
330
DC
100
AcDbEntity
  8
Layer 1
 62
     7
420
 16777215
370
     5
100
AcDbVertex
100
AcDb2dVertex
 10
464.3223902919054
 20
624.8466144271216
 30
0.0
  0
VERTEX
  5
DE
330
DC
100
AcDbEntity
  8
Layer 1
 62
     7
420
 16777215
370
     5
100
AcDbVertex
100
AcDb2dVertex
 10
464.3223902919054
 20
744.846180369344
 30
0.0
  0
VERTEX
  5
DF
330
DC
100
AcDbEntity
  8
Layer 1
 62
     7
420
 16777215
370
     5
100
AcDbVertex
100
AcDb2dVertex
 10
744.321836836489
 20
744.846180369344
 30
0.0
  0
VERTEX
  5
E0
330
DC
100
AcDbEntity
  8
Layer 1
 62
     7
420
 16777215
370
     5
100
AcDbVertex
100
AcDb2dVertex
 10
744.321836836489
 20
624.8466144271216
 30
0.0
  0
VERTEX
  5
E1
330
DC
100
AcDbEntity
  8
Layer 1
 62
     7
420
 16777215
370
     5
100
AcDbVertex
100
AcDb2dVertex
 10
464.3223902919054
 20
624.8466144271216
 30
0.0
  0
SEQEND
  5
E2
330
DC
100
AcDbEntity
  8
Layer 1
370
     5
  0
POLYLINE
  5
E3
330
D8
100
AcDbEntity
  8
Layer 1
 62
     7
420
 16777215
370
     5
100
AcDb2dPolyline
 66
     1
 10
0.0
 20
0.0
 30
0.0
  0
VERTEX
  5
E4
330
E3
100
AcDbEntity
  8
Layer 1
 62
     7
420
 16777215
370
     5
100
AcDbVertex
100
AcDb2dVertex
 10
470.3223685890166
 20
712.8467554641494
 30
0.0
  0
VERTEX
  5
E5
330
E3
100
AcDbEntity
  8
Layer 1
 62
     7
420
 16777215
370
     5
100
AcDbVertex
100
AcDb2dVertex
 10
470.3223685890166
 20
706.8467771670382
 30
0.0
  0
VERTEX
  5
E6
330
E3
100
AcDbEntity
  8
Layer 1
 62
     7
420
 16777215
370
     5
100
AcDbVertex
100
AcDb2dVertex
 10
474.3221244473916
 20
706.8467771670382
 30
0.0
  0
VERTEX
  5
E7
330
E3
100
AcDbEntity
  8
Layer 1
 62
     7
420
 16777215
370
     5
100
AcDbVertex
100
AcDb2dVertex
 10
474.3221244473916
 20
718.8467337612605
 30
0.0
  0
VERTEX
  5
E8
330
E3
100
AcDbEntity
  8
Layer 1
 62
     7
420
 16777215
370
     5
100
AcDbVertex
100
AcDb2dVertex
 10
470.3223685890166
 20
718.8467337612605
 30
0.0
  0
VERTEX
  5
E9
330
E3
100
AcDbEntity
  8
Layer 1
 62
     7
420
 16777215
370
     5
100
AcDbVertex
100
AcDb2dVertex
 10
470.3223685890166
 20
712.8467554641494
 30
0.0
  0
SEQEND
  5
EA
330
E3
100
AcDbEntity
  8
Layer 1
370
     5
  0
POLYLINE
  5
EB
330
D8
100
AcDbEntity
  8
Layer 1
 62
     7
420
 16777215
370
     5
100
AcDb2dPolyline
 66
     1
 10
0.0
 20
0.0
 30
0.0
  0
VERTEX
  5
EC
330
EB
100
AcDbEntity
  8
Layer 1
 62
     7
420
 16777215
370
     5
100
AcDbVertex
100
AcDb2dVertex
 10
470.3223685890166
 20
656.8467283514133
 30
0.0
  0
VERTEX
  5
ED
330
EB
100
AcDbEntity
  8
Layer 1
 62
     7
420
 16777215
370
     5
100
AcDbVertex
100
AcDb2dVertex
 10
470.3223685890166
 20
650.8467500543021
 30
0.0
  0
VERTEX
  5
EE
330
EB
100
AcDbEntity
  8
Layer 1
 62
     7
420
 16777215
370
     5
100
AcDbVertex
100
AcDb2dVertex
 10
474.3221244473916
 20
650.8467500543021
 30
0.0
  0
VERTEX
  5
EF
330
EB
100
AcDbEntity
  8
Layer 1
 62
     7
420
 16777215
370
     5
100
AcDbVertex
100
AcDb2dVertex
 10
474.3221244473916
 20
662.8467066485243
 30
0.0
  0
VERTEX
  5
F0
330
EB
100
AcDbEntity
  8
Layer 1
 62
     7
420
 16777215
370
     5
100
AcDbVertex
100
AcDb2dVertex
 10
470.3223685890166
 20
662.8467066485243
 30
0.0
  0
VERTEX
  5
F1
330
EB
100
AcDbEntity
  8
Layer 1
 62
     7
420
 16777215
370
     5
100
AcDbVertex
100
AcDb2dVertex
 10
470.3223685890166
 20
656.8467283514133
 30
0.0
  0
SEQEND
  5
F2
330
EB
100
AcDbEntity
  8
Layer 1
370
     5
  0
POLYLINE
  5
F3
330
D8
100
AcDbEntity
  8
Layer 1
 62
     7
420
 16777215
370
     5
100
AcDb2dPolyline
 66
     1
 10
0.0
 20
0.0
 30
0.0
  0
VERTEX
  5
F4
330
F3
100
AcDbEntity
  8
Layer 1
 62
     7
420
 16777215
370
     5
100
AcDbVertex
100
AcDb2dVertex
 10
496.3225042161971
 20
630.8465927242328
 30
0.0
  0
VERTEX
  5
F5
330
F3
100
AcDbEntity
  8
Layer 1
 62
     7
420
 16777215
370
     5
100
AcDbVertex
100
AcDb2dVertex
 10
502.3224825133082
 20
630.8465927242328
 30
0.0
  0
VERTEX
  5
F6
330
F3
100
AcDbEntity
  8
Layer 1
 62
     7
420
 16777215
370
     5
100
AcDbVertex
100
AcDb2dVertex
 10
502.3224825133082
 20
634.8470376017049
 30
0.0
  0
VERTEX
  5
F7
330
F3
100
AcDbEntity
  8
Layer 1
 62
     7
420
 16777215
370
     5
100
AcDbVertex
100
AcDb2dVertex
 10
490.322525919086
 20
634.8470376017049
 30
0.0
  0
VERTEX
  5
F8
330
F3
100
AcDbEntity
  8
Layer 1
 62
     7
420
 16777215
370
     5
100
AcDbVertex
100
AcDb2dVertex
 10
490.322525919086
 20
630.8465927242328
 30
0.0
  0
VERTEX
  5
F9
330
F3
100
AcDbEntity
  8
Layer 1
 62
     7
420
 16777215
370
     5
100
AcDbVertex
100
AcDb2dVertex
 10
496.3225042161971
 20
630.8465927242328
 30
0.0
  0
SEQEND
  5
FA
330
F3
100
AcDbEntity
  8
Layer 1
370
     5
  0
POLYLINE
  5
FB
330
D8
100
AcDbEntity
  8
Layer 1
 62
     7
420
 16777215
370
     5
100
AcDb2dPolyline
 66
     1
 10
0.0
 20
0.0
 30
0.0
  0
VERTEX
  5
FC
330
FB
100
AcDbEntity
  8
Layer 1
 62
     7
420
 16777215
370
     5
100
AcDbVertex
100
AcDb2dVertex
 10
712.3217229121973
 20
630.8465927242328
 30
0.0
  0
VERTEX
  5
FD
330
FB
100
AcDbEntity
  8
Layer 1
 62
     7
420
 16777215
370
     5
100
AcDbVertex
100
AcDb2dVertex
 10
718.3223902284054
 20
630.8465927242328
 30
0.0
  0
VERTEX
  5
FE
330
FB
100
AcDbEntity
  8
Layer 1
 62
     7
420
 16777215
370
     5
100
AcDbVertex
100
AcDb2dVertex
 10
718.3223902284054
 20
634.8470376017049
 30
0.0
  0
VERTEX
  5
FF
330
FB
100
AcDbEntity
  8
Layer 1
 62
     7
420
 16777215
370
     5
100
AcDbVertex
100
AcDb2dVertex
 10
706.3217446150861
 20
634.8470376017049
 30
0.0
  0
VERTEX
  5
100
330
FB
100
AcDbEntity
  8
Layer 1
 62
     7
420
 16777215
370
     5
100
AcDbVertex
100
AcDb2dVertex
 10
706.3217446150861
 20
630.8465927242328
 30
0.0
  0
VERTEX
  5
101
330
FB
100
AcDbEntity
  8
Layer 1
 62
     7
420
 16777215
370
     5
100
AcDbVertex
100
AcDb2dVertex
 10
712.3217229121973
 20
630.8465927242328
 30
0.0
  0
SEQEND
  5
102
330
FB
100
AcDbEntity
  8
Layer 1
370
     5
  0
POLYLINE
  5
103
330
D8
100
AcDbEntity
  8
Layer 1
 62
     7
420
 16777215
370
     5
100
AcDb2dPolyline
 66
     1
 10
0.0
 20
0.0
 30
0.0
  0
VERTEX
  5
104
330
103
100
AcDbEntity
  8
Layer 1
 62
     7
420
 16777215
370
     5
100
AcDbVertex
100
AcDb2dVertex
 10
738.3218585393778
 20
656.8467283514133
 30
0.0
  0
VERTEX
  5
105
330
103
100
AcDbEntity
  8
Layer 1
 62
     7
420
 16777215
370
     5
100
AcDbVertex
100
AcDb2dVertex
 10
738.3218585393778
 20
662.8467066485243
 30
0.0
  0
VERTEX
  5
106
330
103
100
AcDbEntity
  8
Layer 1
 62
     7
420
 16777215
370
     5
100
AcDbVertex
100
AcDb2dVertex
 10
734.3221026810028
 20
662.8467066485243
 30
0.0
  0
VERTEX
  5
107
330
103
100
AcDbEntity
  8
Layer 1
 62
     7
420
 16777215
370
     5
100
AcDbVertex
100
AcDb2dVertex
 10
734.3221026810028
 20
650.8467500543021
 30
0.0
  0
VERTEX
  5
108
330
103
100
AcDbEntity
  8
Layer 1
 62
     7
420
 16777215
370
     5
100
AcDbVertex
100
AcDb2dVertex
 10
738.3218585393778
 20
650.8467500543021
 30
0.0
  0
VERTEX
  5
109
330
103
100
AcDbEntity
  8
Layer 1
 62
     7
420
 16777215
370
     5
100
AcDbVertex
100
AcDb2dVertex
 10
738.3218585393778
 20
656.8467283514133
 30
0.0
  0
SEQEND
  5
10A
330
103
100
AcDbEntity
  8
Layer 1
370
     5
  0
POLYLINE
  5
10B
330
D8
100
AcDbEntity
  8
Layer 1
 62
     7
420
 16777215
370
     5
100
AcDb2dPolyline
 66
     1
 10
0.0
 20
0.0
 30
0.0
  0
VERTEX
  5
10C
330
10B
100
AcDbEntity
  8
Layer 1
 62
     7
420
 16777215
370
     5
100
AcDbVertex
100
AcDb2dVertex
 10
738.3218585393778
 20
712.8467554641494
 30
0.0
  0
VERTEX
  5
10D
330
10B
100
AcDbEntity
  8
Layer 1
 62
     7
420
 16777215
370
     5
100
AcDbVertex
100
AcDb2dVertex
 10
738.3218585393778
 20
718.8467337612605
 30
0.0
  0
VERTEX
  5
10E
330
10B
100
AcDbEntity
  8
Layer 1
 62
     7
420
 16777215
370
     5
100
AcDbVertex
100
AcDb2dVertex
 10
734.3221026810028
 20
718.8467337612605
 30
0.0
  0
VERTEX
  5
10F
330
10B
100
AcDbEntity
  8
Layer 1
 62
     7
420
 16777215
370
     5
100
AcDbVertex
100
AcDb2dVertex
 10
734.3221026810028
 20
706.8467771670382
 30
0.0
  0
VERTEX
  5
110
330
10B
100
AcDbEntity
  8
Layer 1
 62
     7
420
 16777215
370
     5
100
AcDbVertex
100
AcDb2dVertex
 10
738.3218585393778
 20
706.8467771670382
 30
0.0
  0
VERTEX
  5
111
330
10B
100
AcDbEntity
  8
Layer 1
 62
     7
420
 16777215
370
     5
100
AcDbVertex
100
AcDb2dVertex
 10
738.3218585393778
 20
712.8467554641494
 30
0.0
  0
SEQEND
  5
112
330
10B
100
AcDbEntity
  8
Layer 1
370
     5
  0
POLYLINE
  5
113
330
D8
100
AcDbEntity
  8
Layer 1
 62
     7
420
 16777215
370
     5
100
AcDb2dPolyline
 66
     1
 10
0.0
 20
0.0
 30
0.0
  0
VERTEX
  5
114
330
113
100
AcDbEntity
  8
Layer 1
 62
     7
420
 16777215
370
     5
100
AcDbVertex
100
AcDb2dVertex
 10
712.3217229121973
 20
738.8462020722328
 30
0.0
  0
VERTEX
  5
115
330
113
100
AcDbEntity
  8
Layer 1
 62
     7
420
 16777215
370
     5
100
AcDbVertex
100
AcDb2dVertex
 10
706.3217446150861
 20
738.8462020722328
 30
0.0
  0
VERTEX
  5
116
330
113
100
AcDbEntity
  8
Layer 1
 62
     7
420
 16777215
370
     5
100
AcDbVertex
100
AcDb2dVertex
 10
706.3217446150861
 20
734.8464462138578
 30
0.0
  0
VERTEX
  5
117
330
113
100
AcDbEntity
  8
Layer 1
 62
     7
420
 16777215
370
     5
100
AcDbVertex
100
AcDb2dVertex
 10
718.3223902284054
 20
734.8464462138578
 30
0.0
  0
VERTEX
  5
118
330
113
100
AcDbEntity
  8
Layer 1
 62
     7
420
 16777215
370
     5
100
AcDbVertex
100
AcDb2dVertex
 10
718.3223902284054
 20
738.8462020722328
 30
0.0
  0
VERTEX
  5
119
330
113
100
AcDbEntity
  8
Layer 1
 62
     7
420
 16777215
370
     5
100
AcDbVertex
100
AcDb2dVertex
 10
712.3217229121973
 20
738.8462020722328
 30
0.0
  0
SEQEND
  5
11A
330
113
100
AcDbEntity
  8
Layer 1
370
     5
  0
POLYLINE
  5
11B
330
D8
100
AcDbEntity
  8
Layer 1
 62
     7
420
 16777215
370
     5
100
AcDb2dPolyline
 66
     1
 10
0.0
 20
0.0
 30
0.0
  0
VERTEX
  5
11C
330
11B
100
AcDbEntity
  8
Layer 1
 62
     7
420
 16777215
370
     5
100
AcDbVertex
100
AcDb2dVertex
 10
496.3225042161971
 20
738.8462020722328
 30
0.0
  0
VERTEX
  5
11D
330
11B
100
AcDbEntity
  8
Layer 1
 62
     7
420
 16777215
370
     5
100
AcDbVertex
100
AcDb2dVertex
 10
490.322525919086
 20
738.8462020722328
 30
0.0
  0
VERTEX
  5
11E
330
11B
100
AcDbEntity
  8
Layer 1
 62
     7
420
 16777215
370
     5
100
AcDbVertex
100
AcDb2dVertex
 10
490.322525919086
 20
734.8464462138578
 30
0.0
  0
VERTEX
  5
11F
330
11B
100
AcDbEntity
  8
Layer 1
 62
     7
420
 16777215
370
     5
100
AcDbVertex
100
AcDb2dVertex
 10
502.3224825133082
 20
734.8464462138578
 30
0.0
  0
VERTEX
  5
120
330
11B
100
AcDbEntity
  8
Layer 1
 62
     7
420
 16777215
370
     5
100
AcDbVertex
100
AcDb2dVertex
 10
502.3224825133082
 20
738.8462020722328
 30
0.0
  0
VERTEX
  5
121
330
11B
100
AcDbEntity
  8
Layer 1
 62
     7
420
 16777215
370
     5
100
AcDbVertex
100
AcDb2dVertex
 10
496.3225042161971
 20
738.8462020722328
 30
0.0
  0
SEQEND
  5
122
330
11B
100
AcDbEntity
  8
Layer 1
370
     5
  0
POLYLINE
  5
123
330
D8
100
AcDbEntity
  8
Layer 1
 62
     7
420
 16777215
370
     5
100
AcDb2dPolyline
 66
     1
 10
0.0
 20
0.0
 30
0.0
  0
VERTEX
  5
124
330
123
100
AcDbEntity
  8
Layer 1
 62
     7
420
 16777215
370
     5
100
AcDbVertex
100
AcDb2dVertex
 10
636.3222274884888
 20
662.8467066485243
 30
0.0
  0
VERTEX
  5
125
330
123
100
AcDbEntity
  8
Layer 1
 62
     7
420
 16777215
370
     5
100
AcDbVertex
100
AcDb2dVertex
 10
632.3224716301138
 20
662.8467066485243
 30
0.0
  0
VERTEX
  5
126
330
123
100
AcDbEntity
  8
Layer 1
 62
     7
420
 16777215
370
     5
100
AcDbVertex
100
AcDb2dVertex
 10
632.3224716301138
 20
650.8467500543021
 30
0.0
  0
VERTEX
  5
127
330
123
100
AcDbEntity
  8
Layer 1
 62
     7
420
 16777215
370
     5
100
AcDbVertex
100
AcDb2dVertex
 10
636.3222274884888
 20
650.8467500543021
 30
0.0
  0
VERTEX
  5
128
330
123
100
AcDbEntity
  8
Layer 1
 62
     7
420
 16777215
370
     5
100
AcDbVertex
100
AcDb2dVertex
 10
636.3222274884888
 20
656.8467283514133
 30
0.0
  0
VERTEX
  5
129
330
123
100
AcDbEntity
  8
Layer 1
 62
     7
420
 16777215
370
     5
100
AcDbVertex
100
AcDb2dVertex
 10
636.3222274884888
 20
662.8467066485243
 30
0.0
  0
SEQEND
  5
12A
330
123
100
AcDbEntity
  8
Layer 1
370
     5
  0
POLYLINE
  5
12B
330
D8
100
AcDbEntity
  8
Layer 1
 62
     7
420
 16777215
370
     5
100
AcDb2dPolyline
 66
     1
 10
0.0
 20
0.0
 30
0.0
  0
VERTEX
  5
12C
330
12B
100
AcDbEntity
  8
Layer 1
 62
     7
420
 16777215
370
     5
100
AcDbVertex
100
AcDb2dVertex
 10
632.3224716301138
 20
706.8467771670382
 30
0.0
  0
VERTEX
  5
12D
330
12B
100
AcDbEntity
  8
Layer 1
 62
     7
420
 16777215
370
     5
100
AcDbVertex
100
AcDb2dVertex
 10
636.3222274884888
 20
706.8467771670382
 30
0.0
  0
VERTEX
  5
12E
330
12B
100
AcDbEntity
  8
Layer 1
 62
     7
420
 16777215
370
     5
100
AcDbVertex
100
AcDb2dVertex
 10
636.3222274884888
 20
712.8467554641494
 30
0.0
  0
VERTEX
  5
12F
330
12B
100
AcDbEntity
  8
Layer 1
 62
     7
420
 16777215
370
     5
100
AcDbVertex
100
AcDb2dVertex
 10
636.3222274884888
 20
718.8467337612605
 30
0.0
  0
VERTEX
  5
130
330
12B
100
AcDbEntity
  8
Layer 1
 62
     7
420
 16777215
370
     5
100
AcDbVertex
100
AcDb2dVertex
 10
632.3224716301138
 20
718.8467337612605
 30
0.0
  0
VERTEX
  5
131
330
12B
100
AcDbEntity
  8
Layer 1
 62
     7
420
 16777215
370
     5
100
AcDbVertex
100
AcDb2dVertex
 10
632.3224716301138
 20
706.8467771670382
 30
0.0
  0
SEQEND
  5
132
330
12B
100
AcDbEntity
  8
Layer 1
370
     5
  0
ENDBLK
  5
DB
330
D8
100
AcDbEntity
  8
0
100
AcDbBlockEnd
  0
BLOCK
  5
15A
330
158
100
AcDbEntity
  8
0
100
AcDbBlockBegin
  2
block 4
 70
     0
 71
     0
 10
0.0
 20
0.0
 30
0.0
  3
block 4
  1

  0
SPLINE
  5
15C
330
158
100
AcDbEntity
  8
Layer 1
 62
     7
420
 16777215
370
     5
100
AcDbSpline
210
0.0
220
0.0
230
1.0
 70
    11
 71
     3
 72
    17
 73
    13
 74
     0
 42
0.0000000001
 43
0.0000000001
 40
0.0
 40
0.0
 40
0.0
 40
0.0
 40
1.0
 40
1.0
 40
1.0
 40
2.0
 40
2.0
 40
2.0
 40
3.0
 40
3.0
 40
3.0
 40
4.0
 40
4.0
 40
4.0
 40
4.0
 10
1015.085326894666
 20
299.9923691741338
 30
0.0
 10
1015.085326894666
 20
300.8760361661004
 30
0.0
 10
1015.801906755598
 20
301.5922715174838
 30
0.0
 10
1016.685229238016
 20
301.5922715174838
 30
0.0
 10
1017.569240739531
 20
301.5922715174838
 30
0.0
 10
1018.285820600463
 20
300.8760361661004
 30
0.0
 10
1018.285820600463
 20
299.9923691741338
 30
0.0
 10
1018.285820600463
 20
299.1083576726187
 30
0.0
 10
1017.569240739531
 20
298.3917778116867
 30
0.0
 10
1016.685229238016
 20
298.3917778116867
 30
0.0
 10
1015.801906755598
 20
298.3917778116867
 30
0.0
 10
1015.085326894666
 20
299.1083576726187
 30
0.0
 10
1015.085326894666
 20
299.9923691741338
 30
0.0
  0
SPLINE
  5
15D
330
158
100
AcDbEntity
  8
Layer 1
 62
     7
420
 16777215
370
     5
100
AcDbSpline
210
0.0
220
0.0
230
1.0
 70
    11
 71
     3
 72
    17
 73
    13
 74
     0
 42
0.0000000001
 43
0.0000000001
 40
0.0
 40
0.0
 40
0.0
 40
0.0
 40
1.0
 40
1.0
 40
1.0
 40
2.0
 40
2.0
 40
2.0
 40
3.0
 40
3.0
 40
3.0
 40
4.0
 40
4.0
 40
4.0
 40
4.0
 10
1015.085326894666
 20
324.9920490723978
 30
0.0
 10
1015.085326894666
 20
325.8760605739129
 30
0.0
 10
1015.801906755598
 20
326.5922959252964
 30
0.0
 10
1016.685229238016
 20
326.5922959252964
 30
0.0
 10
1017.569240739531
 20
326.5922959252964
 30
0.0
 10
1018.285820600463
 20
325.8760605739129
 30
0.0
 10
1018.285820600463
 20
324.9920490723978
 30
0.0
 10
1018.285820600463
 20
324.1083820804312
 30
0.0
 10
1017.569240739531
 20
323.3918022194993
 30
0.0
 10
1016.685229238016
 20
323.3918022194993
 30
0.0
 10
1015.801906755598
 20
323.3918022194993
 30
0.0
 10
1015.085326894666
 20
324.1083820804312
 30
0.0
 10
1015.085326894666
 20
324.9920490723978
 30
0.0
  0
SPLINE
  5
15E
330
158
100
AcDbEntity
  8
Layer 1
 62
     7
420
 16777215
370
     5
100
AcDbSpline
210
0.0
220
0.0
230
1.0
 70
    11
 71
     3
 72
    29
 73
    25
 74
     0
 42
0.0000000001
 43
0.0000000001
 40
0.0
 40
0.0
 40
0.0
 40
0.0
 40
1.0
 40
1.0
 40
1.0
 40
2.0
 40
2.0
 40
2.0
 40
3.0
 40
3.0
 40
3.0
 40
4.0
 40
4.0
 40
4.0
 40
5.0
 40
5.0
 40
5.0
 40
6.0
 40
6.0
 40
6.0
 40
7.0
 40
7.0
 40
7.0
 40
8.0
 40
8.0
 40
8.0
 40
8.0
 10
1014.064889611935
 20
302.6502603410041
 30
0.0
 10
1014.064889611935
 20
302.6502603410041
 30
0.0
 10
1011.596823206302
 20
304.5602212780266
 30
0.0
 10
1011.596823206302
 20
304.5006211261318
 30
0.0
 10
1011.596823206302
 20
304.4410209742369
 30
0.0
 10
1011.596823206302
 20
320.4421114650283
 30
0.0
 10
1011.596823206302
 20
320.4421114650283
 30
0.0
 10
1011.596823206302
 20
320.4421114650283
 30
0.0
 10
1014.064889611935
 20
322.3527614211479
 30
0.0
 10
1014.064889611935
 20
322.3527614211479
 30
0.0
 10
1014.064889611935
 20
322.3527614211479
 30
0.0
 10
1019.576353369238
 20
321.3826225325016
 30
0.0
 10
1019.576353369238
 20
321.3826225325016
 30
0.0
 10
1019.576353369238
 20
321.3826225325016
 30
0.0
 10
1021.832890912076
 20
319.5016003975551
 30
0.0
 10
1021.832890912076
 20
319.5016003975551
 30
0.0
 10
1021.832890912076
 20
319.5016003975551
 30
0.0
 10
1021.832890912076
 20
305.4559461041915
 30
0.0
 10
1021.832890912076
 20
305.4559461041915
 30
0.0
 10
1021.832890912076
 20
305.4559461041915
 30
0.0
 10
1019.637331559327
 20
303.5604545682071
 30
0.0
 10
1019.637331559327
 20
303.5604545682071
 30
0.0
 10
1019.637331559327
 20
303.5604545682071
 30
0.0
 10
1014.064889611935
 20
302.6502603410041
 30
0.0
 10
1014.064889611935
 20
302.6502603410041
 30
0.0
  0
ENDBLK
  5
15B
330
158
100
AcDbEntity
  8
0
100
AcDbBlockEnd
  0
BLOCK
  5
161
330
15F
100
AcDbEntity
  8
0
100
AcDbBlockBegin
  2
block 5
 70
     0
 71
     0
 10
0.0
 20
0.0
 30
0.0
  3
block 5
  1

  0
SPLINE
  5
163
330
15F
100
AcDbEntity
  8
Layer 1
 62
     7
420
 16777215
370
     5
100
AcDbSpline
210
0.0
220
0.0
230
1.0
 70
    11
 71
     3
 72
    17
 73
    13
 74
     0
 42
0.0000000001
 43
0.0000000001
 40
0.0
 40
0.0
 40
0.0
 40
0.0
 40
1.0
 40
1.0
 40
1.0
 40
2.0
 40
2.0
 40
2.0
 40
3.0
 40
3.0
 40
3.0
 40
4.0
 40
4.0
 40
4.0
 40
4.0
 10
1041.978431271623
 20
380.0023002522216
 30
0.0
 10
1041.978431271623
 20
380.8856227346396
 30
0.0
 10
1042.695011132555
 20
381.6022025955716
 30
0.0
 10
1043.578678124522
 20
381.6022025955716
 30
0.0
 10
1044.462345116488
 20
381.6022025955716
 30
0.0
 10
1045.17892497742
 20
380.8856227346396
 30
0.0
 10
1045.17892497742
 20
380.0023002522216
 30
0.0
 10
1045.17892497742
 20
379.1182887507065
 30
0.0
 10
1044.462345116488
 20
378.4017088897745
 30
0.0
 10
1043.578678124522
 20
378.4017088897745
 30
0.0
 10
1042.695011132555
 20
378.4017088897745
 30
0.0
 10
1041.978431271623
 20
379.1182887507065
 30
0.0
 10
1041.978431271623
 20
380.0023002522216
 30
0.0
  0
SPLINE
  5
164
330
15F
100
AcDbEntity
  8
Layer 1
 62
     7
420
 16777215
370
     5
100
AcDbSpline
210
0.0
220
0.0
230
1.0
 70
    11
 71
     3
 72
    17
 73
    13
 74
     0
 42
0.0000000001
 43
0.0000000001
 40
0.0
 40
0.0
 40
0.0
 40
0.0
 40
1.0
 40
1.0
 40
1.0
 40
2.0
 40
2.0
 40
2.0
 40
3.0
 40
3.0
 40
3.0
 40
4.0
 40
4.0
 40
4.0
 40
4.0
 10
1041.978431271623
 20
405.0019801504856
 30
0.0
 10
1041.978431271623
 20
405.8859916520007
 30
0.0
 10
1042.695011132555
 20
406.6018824938356
 30
0.0
 10
1043.578678124522
 20
406.6018824938356
 30
0.0
 10
1044.462345116488
 20
406.6018824938356
 30
0.0
 10
1045.17892497742
 20
405.8859916520007
 30
0.0
 10
1045.17892497742
 20
405.0019801504856
 30
0.0
 10
1045.17892497742
 20
404.1179686489705
 30
0.0
 10
1044.462345116488
 20
403.4013887880385
 30
0.0
 10
1043.578678124522
 20
403.4013887880385
 30
0.0
 10
1042.695011132555
 20
403.4013887880385
 30
0.0
 10
1041.978431271623
 20
404.1179686489705
 30
0.0
 10
1041.978431271623
 20
405.0019801504856
 30
0.0
  0
SPLINE
  5
165
330
15F
100
AcDbEntity
  8
Layer 1
 62
     7
420
 16777215
370
     5
100
AcDbSpline
210
0.0
220
0.0
230
1.0
 70
    11
 71
     3
 72
    29
 73
    25
 74
     0
 42
0.0000000001
 43
0.0000000001
 40
0.0
 40
0.0
 40
0.0
 40
0.0
 40
1.0
 40
1.0
 40
1.0
 40
2.0
 40
2.0
 40
2.0
 40
3.0
 40
3.0
 40
3.0
 40
4.0
 40
4.0
 40
4.0
 40
5.0
 40
5.0
 40
5.0
 40
6.0
 40
6.0
 40
6.0
 40
7.0
 40
7.0
 40
7.0
 40
8.0
 40
8.0
 40
8.0
 40
8.0
 10
1040.957993988892
 20
382.6598469095433
 30
0.0
 10
1040.957993988892
 20
382.6598469095433
 30
0.0
 10
1038.489927583259
 20
384.5698078465658
 30
0.0
 10
1038.489927583259
 20
384.5105522042196
 30
0.0
 10
1038.489927583259
 20
384.4506075427762
 30
0.0
 10
1038.489927583259
 20
400.4516980335676
 30
0.0
 10
1038.489927583259
 20
400.4516980335676
 30
0.0
 10
1038.489927583259
 20
400.4516980335676
 30
0.0
 10
1040.957993988892
 20
402.3623479896871
 30
0.0
 10
1040.957993988892
 20
402.3623479896871
 30
0.0
 10
1040.957993988892
 20
402.3623479896871
 30
0.0
 10
1046.469802255744
 20
401.3922091010408
 30
0.0
 10
1046.469802255744
 20
401.3922091010408
 30
0.0
 10
1046.469802255744
 20
401.3922091010408
 30
0.0
 10
1048.725995289034
 20
399.5111869660944
 30
0.0
 10
1048.725995289034
 20
399.5111869660944
 30
0.0
 10
1048.725995289034
 20
399.5111869660944
 30
0.0
 10
1048.725995289034
 20
385.4655326727308
 30
0.0
 10
1048.725995289034
 20
385.4655326727308
 30
0.0
 10
1048.725995289034
 20
385.4655326727308
 30
0.0
 10
1046.530780445833
 20
383.5700411367463
 30
0.0
 10
1046.530780445833
 20
383.5700411367463
 30
0.0
 10
1046.530780445833
 20
383.5700411367463
 30
0.0
 10
1040.957993988892
 20
382.6598469095433
 30
0.0
 10
1040.957993988892
 20
382.6598469095433
 30
0.0
  0
ENDBLK
  5
162
330
15F
100
AcDbEntity
  8
0
100
AcDbBlockEnd
  0
BLOCK
  5
168
330
166
100
AcDbEntity
  8
0
100
AcDbBlockBegin
  2
block 6
 70
     0
 71
     0
 10
0.0
 20
0.0
 30
0.0
  3
block 6
  1

  0
SPLINE
  5
16A
330
166
100
AcDbEntity
  8
Layer 1
 62
     7
420
 16777215
370
     5
100
AcDbSpline
210
0.0
220
0.0
230
1.0
 70
    11
 71
     3
 72
    17
 73
    13
 74
     0
 42
0.0000000001
 43
0.0000000001
 40
0.0
 40
0.0
 40
0.0
 40
0.0
 40
1.0
 40
1.0
 40
1.0
 40
2.0
 40
2.0
 40
2.0
 40
3.0
 40
3.0
 40
3.0
 40
4.0
 40
4.0
 40
4.0
 40
4.0
 10
1041.949492469547
 20
299.9923691741338
 30
0.0
 10
1041.949492469547
 20
300.8760361661004
 30
0.0
 10
1042.666072330479
 20
301.5922715174838
 30
0.0
 10
1043.549394812897
 20
301.5922715174838
 30
0.0
 10
1044.433406314412
 20
301.5922715174838
 30
0.0
 10
1045.149986175344
 20
300.8760361661004
 30
0.0
 10
1045.149986175344
 20
299.9923691741338
 30
0.0
 10
1045.149986175344
 20
299.1083576726187
 30
0.0
 10
1044.433406314412
 20
298.3917778116867
 30
0.0
 10
1043.549394812897
 20
298.3917778116867
 30
0.0
 10
1042.666072330479
 20
298.3917778116867
 30
0.0
 10
1041.949492469547
 20
299.1083576726187
 30
0.0
 10
1041.949492469547
 20
299.9923691741338
 30
0.0
  0
SPLINE
  5
16B
330
166
100
AcDbEntity
  8
Layer 1
 62
     7
420
 16777215
370
     5
100
AcDbSpline
210
0.0
220
0.0
230
1.0
 70
    11
 71
     3
 72
    17
 73
    13
 74
     0
 42
0.0000000001
 43
0.0000000001
 40
0.0
 40
0.0
 40
0.0
 40
0.0
 40
1.0
 40
1.0
 40
1.0
 40
2.0
 40
2.0
 40
2.0
 40
3.0
 40
3.0
 40
3.0
 40
4.0
 40
4.0
 40
4.0
 40
4.0
 10
1041.949492469547
 20
324.9920490723978
 30
0.0
 10
1041.949492469547
 20
325.8760605739129
 30
0.0
 10
1042.666072330479
 20
326.5922959252964
 30
0.0
 10
1043.549394812897
 20
326.5922959252964
 30
0.0
 10
1044.433406314412
 20
326.5922959252964
 30
0.0
 10
1045.149986175344
 20
325.8760605739129
 30
0.0
 10
1045.149986175344
 20
324.9920490723978
 30
0.0
 10
1045.149986175344
 20
324.1083820804312
 30
0.0
 10
1044.433406314412
 20
323.3918022194993
 30
0.0
 10
1043.549394812897
 20
323.3918022194993
 30
0.0
 10
1042.666072330479
 20
323.3918022194993
 30
0.0
 10
1041.949492469547
 20
324.1083820804312
 30
0.0
 10
1041.949492469547
 20
324.9920490723978
 30
0.0
  0
SPLINE
  5
16C
330
166
100
AcDbEntity
  8
Layer 1
 62
     7
420
 16777215
370
     5
100
AcDbSpline
210
0.0
220
0.0
230
1.0
 70
    11
 71
     3
 72
    29
 73
    25
 74
     0
 42
0.0000000001
 43
0.0000000001
 40
0.0
 40
0.0
 40
0.0
 40
0.0
 40
1.0
 40
1.0
 40
1.0
 40
2.0
 40
2.0
 40
2.0
 40
3.0
 40
3.0
 40
3.0
 40
4.0
 40
4.0
 40
4.0
 40
5.0
 40
5.0
 40
5.0
 40
6.0
 40
6.0
 40
6.0
 40
7.0
 40
7.0
 40
7.0
 40
8.0
 40
8.0
 40
8.0
 40
8.0
 10
1040.929055186816
 20
302.6502603410041
 30
0.0
 10
1040.929055186816
 20
302.6502603410041
 30
0.0
 10
1038.460988781183
 20
304.5602212780266
 30
0.0
 10
1038.460988781183
 20
304.5006211261318
 30
0.0
 10
1038.460988781183
 20
304.4410209742369
 30
0.0
 10
1038.460988781183
 20
320.4421114650283
 30
0.0
 10
1038.460988781183
 20
320.4421114650283
 30
0.0
 10
1038.460988781183
 20
320.4421114650283
 30
0.0
 10
1040.929055186816
 20
322.3527614211479
 30
0.0
 10
1040.929055186816
 20
322.3527614211479
 30
0.0
 10
1040.929055186816
 20
322.3527614211479
 30
0.0
 10
1046.440518944119
 20
321.3826225325016
 30
0.0
 10
1046.440518944119
 20
321.3826225325016
 30
0.0
 10
1046.440518944119
 20
321.3826225325016
 30
0.0
 10
1048.697056486958
 20
319.5016003975551
 30
0.0
 10
1048.697056486958
 20
319.5016003975551
 30
0.0
 10
1048.697056486958
 20
319.5016003975551
 30
0.0
 10
1048.697056486958
 20
305.4559461041915
 30
0.0
 10
1048.697056486958
 20
305.4559461041915
 30
0.0
 10
1048.697056486958
 20
305.4559461041915
 30
0.0
 10
1046.501497134208
 20
303.5604545682071
 30
0.0
 10
1046.501497134208
 20
303.5604545682071
 30
0.0
 10
1046.501497134208
 20
303.5604545682071
 30
0.0
 10
1040.929055186816
 20
302.6502603410041
 30
0.0
 10
1040.929055186816
 20
302.6502603410041
 30
0.0
  0
ENDBLK
  5
169
330
166
100
AcDbEntity
  8
0
100
AcDbBlockEnd
  0
BLOCK
  5
16F
330
16D
100
AcDbEntity
  8
0
100
AcDbBlockBegin
  2
block 7
 70
     0
 71
     0
 10
0.0
 20
0.0
 30
0.0
  3
block 7
  1

  0
SPLINE
  5
171
330
16D
100
AcDbEntity
  8
Layer 1
 62
     7
420
 16777215
370
     5
100
AcDbSpline
210
0.0
220
0.0
230
1.0
 70
    11
 71
     3
 72
    17
 73
    13
 74
     0
 42
0.0000000001
 43
0.0000000001
 40
0.0
 40
0.0
 40
0.0
 40
0.0
 40
1.0
 40
1.0
 40
1.0
 40
2.0
 40
2.0
 40
2.0
 40
3.0
 40
3.0
 40
3.0
 40
4.0
 40
4.0
 40
4.0
 40
4.0
 10
1041.949492469547
 20
339.9930283438212
 30
0.0
 10
1041.949492469547
 20
340.8763508262392
 30
0.0
 10
1042.666072330479
 20
341.5929306871712
 30
0.0
 10
1043.549394812897
 20
341.5929306871712
 30
0.0
 10
1044.433406314412
 20
341.5929306871712
 30
0.0
 10
1045.149986175344
 20
340.8763508262392
 30
0.0
 10
1045.149986175344
 20
339.9930283438212
 30
0.0
 10
1045.149986175344
 20
339.1090168423061
 30
0.0
 10
1044.433406314412
 20
338.3924369813741
 30
0.0
 10
1043.549394812897
 20
338.3924369813741
 30
0.0
 10
1042.666072330479
 20
338.3924369813741
 30
0.0
 10
1041.949492469547
 20
339.1090168423061
 30
0.0
 10
1041.949492469547
 20
339.9930283438212
 30
0.0
  0
SPLINE
  5
172
330
16D
100
AcDbEntity
  8
Layer 1
 62
     7
420
 16777215
370
     5
100
AcDbSpline
210
0.0
220
0.0
230
1.0
 70
    11
 71
     3
 72
    17
 73
    13
 74
     0
 42
0.0000000001
 43
0.0000000001
 40
0.0
 40
0.0
 40
0.0
 40
0.0
 40
1.0
 40
1.0
 40
1.0
 40
2.0
 40
2.0
 40
2.0
 40
3.0
 40
3.0
 40
3.0
 40
4.0
 40
4.0
 40
4.0
 40
4.0
 10
1041.949492469547
 20
364.9927082420851
 30
0.0
 10
1041.949492469547
 20
365.8767197436002
 30
0.0
 10
1042.666072330479
 20
366.5926105854351
 30
0.0
 10
1043.549394812897
 20
366.5926105854351
 30
0.0
 10
1044.433406314412
 20
366.5926105854351
 30
0.0
 10
1045.149986175344
 20
365.8767197436002
 30
0.0
 10
1045.149986175344
 20
364.9927082420851
 30
0.0
 10
1045.149986175344
 20
364.10869674057
 30
0.0
 10
1044.433406314412
 20
363.392116879638
 30
0.0
 10
1043.549394812897
 20
363.392116879638
 30
0.0
 10
1042.666072330479
 20
363.392116879638
 30
0.0
 10
1041.949492469547
 20
364.10869674057
 30
0.0
 10
1041.949492469547
 20
364.9927082420851
 30
0.0
  0
SPLINE
  5
173
330
16D
100
AcDbEntity
  8
Layer 1
 62
     7
420
 16777215
370
     5
100
AcDbSpline
210
0.0
220
0.0
230
1.0
 70
    11
 71
     3
 72
    29
 73
    25
 74
     0
 42
0.0000000001
 43
0.0000000001
 40
0.0
 40
0.0
 40
0.0
 40
0.0
 40
1.0
 40
1.0
 40
1.0
 40
2.0
 40
2.0
 40
2.0
 40
3.0
 40
3.0
 40
3.0
 40
4.0
 40
4.0
 40
4.0
 40
5.0
 40
5.0
 40
5.0
 40
6.0
 40
6.0
 40
6.0
 40
7.0
 40
7.0
 40
7.0
 40
8.0
 40
8.0
 40
8.0
 40
8.0
 10
1040.929055186816
 20
342.6505750011429
 30
0.0
 10
1040.929055186816
 20
342.6505750011429
 30
0.0
 10
1038.460988781183
 20
344.5605359381654
 30
0.0
 10
1038.460988781183
 20
344.5012802958191
 30
0.0
 10
1038.460988781183
 20
344.4413356343757
 30
0.0
 10
1038.460988781183
 20
360.4424261251671
 30
0.0
 10
1038.460988781183
 20
360.4424261251671
 30
0.0
 10
1038.460988781183
 20
360.4424261251671
 30
0.0
 10
1040.929055186816
 20
362.3530760812867
 30
0.0
 10
1040.929055186816
 20
362.3530760812867
 30
0.0
 10
1040.929055186816
 20
362.3530760812867
 30
0.0
 10
1046.440518944119
 20
361.3829371926403
 30
0.0
 10
1046.440518944119
 20
361.3829371926403
 30
0.0
 10
1046.440518944119
 20
361.3829371926403
 30
0.0
 10
1048.697056486958
 20
359.5019150576939
 30
0.0
 10
1048.697056486958
 20
359.5019150576939
 30
0.0
 10
1048.697056486958
 20
359.5019150576939
 30
0.0
 10
1048.697056486958
 20
345.4562607643304
 30
0.0
 10
1048.697056486958
 20
345.4562607643304
 30
0.0
 10
1048.697056486958
 20
345.4562607643304
 30
0.0
 10
1046.501497134208
 20
343.5607692283459
 30
0.0
 10
1046.501497134208
 20
343.5607692283459
 30
0.0
 10
1046.501497134208
 20
343.5607692283459
 30
0.0
 10
1040.929055186816
 20
342.6505750011429
 30
0.0
 10
1040.929055186816
 20
342.6505750011429
 30
0.0
  0
ENDBLK
  5
170
330
16D
100
AcDbEntity
  8
0
100
AcDbBlockEnd
  0
BLOCK
  5
176
330
174
100
AcDbEntity
  8
0
100
AcDbBlockBegin
  2
block 8
 70
     0
 71
     0
 10
0.0
 20
0.0
 30
0.0
  3
block 8
  1

  0
SPLINE
  5
178
330
174
100
AcDbEntity
  8
Layer 1
 62
     7
420
 16777215
370
     5
100
AcDbSpline
210
0.0
220
0.0
230
1.0
 70
    11
 71
     3
 72
    17
 73
    13
 74
     0
 42
0.0000000001
 43
0.0000000001
 40
0.0
 40
0.0
 40
0.0
 40
0.0
 40
1.0
 40
1.0
 40
1.0
 40
2.0
 40
2.0
 40
2.0
 40
3.0
 40
3.0
 40
3.0
 40
4.0
 40
4.0
 40
4.0
 40
4.0
 10
1015.085326894666
 20
380.0023002522216
 30
0.0
 10
1015.085326894666
 20
380.8856227346396
 30
0.0
 10
1015.801906755598
 20
381.6022025955716
 30
0.0
 10
1016.685229238016
 20
381.6022025955716
 30
0.0
 10
1017.569240739531
 20
381.6022025955716
 30
0.0
 10
1018.285820600463
 20
380.8856227346396
 30
0.0
 10
1018.285820600463
 20
380.0023002522216
 30
0.0
 10
1018.285820600463
 20
379.1182887507065
 30
0.0
 10
1017.569240739531
 20
378.4017088897745
 30
0.0
 10
1016.685229238016
 20
378.4017088897745
 30
0.0
 10
1015.801906755598
 20
378.4017088897745
 30
0.0
 10
1015.085326894666
 20
379.1182887507065
 30
0.0
 10
1015.085326894666
 20
380.0023002522216
 30
0.0
  0
SPLINE
  5
179
330
174
100
AcDbEntity
  8
Layer 1
 62
     7
420
 16777215
370
     5
100
AcDbSpline
210
0.0
220
0.0
230
1.0
 70
    11
 71
     3
 72
    17
 73
    13
 74
     0
 42
0.0000000001
 43
0.0000000001
 40
0.0
 40
0.0
 40
0.0
 40
0.0
 40
1.0
 40
1.0
 40
1.0
 40
2.0
 40
2.0
 40
2.0
 40
3.0
 40
3.0
 40
3.0
 40
4.0
 40
4.0
 40
4.0
 40
4.0
 10
1015.085326894666
 20
405.0019801504856
 30
0.0
 10
1015.085326894666
 20
405.8859916520007
 30
0.0
 10
1015.801906755598
 20
406.6018824938356
 30
0.0
 10
1016.685229238016
 20
406.6018824938356
 30
0.0
 10
1017.569240739531
 20
406.6018824938356
 30
0.0
 10
1018.285820600463
 20
405.8859916520007
 30
0.0
 10
1018.285820600463
 20
405.0019801504856
 30
0.0
 10
1018.285820600463
 20
404.1179686489705
 30
0.0
 10
1017.569240739531
 20
403.4013887880385
 30
0.0
 10
1016.685229238016
 20
403.4013887880385
 30
0.0
 10
1015.801906755598
 20
403.4013887880385
 30
0.0
 10
1015.085326894666
 20
404.1179686489705
 30
0.0
 10
1015.085326894666
 20
405.0019801504856
 30
0.0
  0
SPLINE
  5
17A
330
174
100
AcDbEntity
  8
Layer 1
 62
     7
420
 16777215
370
     5
100
AcDbSpline
210
0.0
220
0.0
230
1.0
 70
    11
 71
     3
 72
    29
 73
    25
 74
     0
 42
0.0000000001
 43
0.0000000001
 40
0.0
 40
0.0
 40
0.0
 40
0.0
 40
1.0
 40
1.0
 40
1.0
 40
2.0
 40
2.0
 40
2.0
 40
3.0
 40
3.0
 40
3.0
 40
4.0
 40
4.0
 40
4.0
 40
5.0
 40
5.0
 40
5.0
 40
6.0
 40
6.0
 40
6.0
 40
7.0
 40
7.0
 40
7.0
 40
8.0
 40
8.0
 40
8.0
 40
8.0
 10
1014.064889611935
 20
382.6598469095433
 30
0.0
 10
1014.064889611935
 20
382.6598469095433
 30
0.0
 10
1011.596823206302
 20
384.5698078465658
 30
0.0
 10
1011.596823206302
 20
384.5105522042196
 30
0.0
 10
1011.596823206302
 20
384.4506075427762
 30
0.0
 10
1011.596823206302
 20
400.4516980335676
 30
0.0
 10
1011.596823206302
 20
400.4516980335676
 30
0.0
 10
1011.596823206302
 20
400.4516980335676
 30
0.0
 10
1014.064889611935
 20
402.3623479896871
 30
0.0
 10
1014.064889611935
 20
402.3623479896871
 30
0.0
 10
1014.064889611935
 20
402.3623479896871
 30
0.0
 10
1019.576353369238
 20
401.3922091010408
 30
0.0
 10
1019.576353369238
 20
401.3922091010408
 30
0.0
 10
1019.576353369238
 20
401.3922091010408
 30
0.0
 10
1021.832890912076
 20
399.5111869660944
 30
0.0
 10
1021.832890912076
 20
399.5111869660944
 30
0.0
 10
1021.832890912076
 20
399.5111869660944
 30
0.0
 10
1021.832890912076
 20
385.4655326727308
 30
0.0
 10
1021.832890912076
 20
385.4655326727308
 30
0.0
 10
1021.832890912076
 20
385.4655326727308
 30
0.0
 10
1019.637331559327
 20
383.5700411367463
 30
0.0
 10
1019.637331559327
 20
383.5700411367463
 30
0.0
 10
1019.637331559327
 20
383.5700411367463
 30
0.0
 10
1014.064889611935
 20
382.6598469095433
 30
0.0
 10
1014.064889611935
 20
382.6598469095433
 30
0.0
  0
ENDBLK
  5
177
330
174
100
AcDbEntity
  8
0
100
AcDbBlockEnd
  0
BLOCK
  5
17D
330
17B
100
AcDbEntity
  8
0
100
AcDbBlockBegin
  2
block 9
 70
     0
 71
     0
 10
0.0
 20
0.0
 30
0.0
  3
block 9
  1

  0
SPLINE
  5
17F
330
17B
100
AcDbEntity
  8
Layer 1
 62
     7
420
 16777215
370
     5
100
AcDbSpline
210
0.0
220
0.0
230
1.0
 70
    11
 71
     3
 72
    17
 73
    13
 74
     0
 42
0.0000000001
 43
0.0000000001
 40
0.0
 40
0.0
 40
0.0
 40
0.0
 40
1.0
 40
1.0
 40
1.0
 40
2.0
 40
2.0
 40
2.0
 40
3.0
 40
3.0
 40
3.0
 40
4.0
 40
4.0
 40
4.0
 40
4.0
 10
1015.085326894666
 20
339.9930283438212
 30
0.0
 10
1015.085326894666
 20
340.8763508262392
 30
0.0
 10
1015.801906755598
 20
341.5929306871712
 30
0.0
 10
1016.685229238016
 20
341.5929306871712
 30
0.0
 10
1017.569240739531
 20
341.5929306871712
 30
0.0
 10
1018.285820600463
 20
340.8763508262392
 30
0.0
 10
1018.285820600463
 20
339.9930283438212
 30
0.0
 10
1018.285820600463
 20
339.1090168423061
 30
0.0
 10
1017.569240739531
 20
338.3924369813741
 30
0.0
 10
1016.685229238016
 20
338.3924369813741
 30
0.0
 10
1015.801906755598
 20
338.3924369813741
 30
0.0
 10
1015.085326894666
 20
339.1090168423061
 30
0.0
 10
1015.085326894666
 20
339.9930283438212
 30
0.0
  0
SPLINE
  5
180
330
17B
100
AcDbEntity
  8
Layer 1
 62
     7
420
 16777215
370
     5
100
AcDbSpline
210
0.0
220
0.0
230
1.0
 70
    11
 71
     3
 72
    17
 73
    13
 74
     0
 42
0.0000000001
 43
0.0000000001
 40
0.0
 40
0.0
 40
0.0
 40
0.0
 40
1.0
 40
1.0
 40
1.0
 40
2.0
 40
2.0
 40
2.0
 40
3.0
 40
3.0
 40
3.0
 40
4.0
 40
4.0
 40
4.0
 40
4.0
 10
1015.085326894666
 20
364.9927082420851
 30
0.0
 10
1015.085326894666
 20
365.8767197436002
 30
0.0
 10
1015.801906755598
 20
366.5926105854351
 30
0.0
 10
1016.685229238016
 20
366.5926105854351
 30
0.0
 10
1017.569240739531
 20
366.5926105854351
 30
0.0
 10
1018.285820600463
 20
365.8767197436002
 30
0.0
 10
1018.285820600463
 20
364.9927082420851
 30
0.0
 10
1018.285820600463
 20
364.10869674057
 30
0.0
 10
1017.569240739531
 20
363.392116879638
 30
0.0
 10
1016.685229238016
 20
363.392116879638
 30
0.0
 10
1015.801906755598
 20
363.392116879638
 30
0.0
 10
1015.085326894666
 20
364.10869674057
 30
0.0
 10
1015.085326894666
 20
364.9927082420851
 30
0.0
  0
SPLINE
  5
181
330
17B
100
AcDbEntity
  8
Layer 1
 62
     7
420
 16777215
370
     5
100
AcDbSpline
210
0.0
220
0.0
230
1.0
 70
    11
 71
     3
 72
    29
 73
    25
 74
     0
 42
0.0000000001
 43
0.0000000001
 40
0.0
 40
0.0
 40
0.0
 40
0.0
 40
1.0
 40
1.0
 40
1.0
 40
2.0
 40
2.0
 40
2.0
 40
3.0
 40
3.0
 40
3.0
 40
4.0
 40
4.0
 40
4.0
 40
5.0
 40
5.0
 40
5.0
 40
6.0
 40
6.0
 40
6.0
 40
7.0
 40
7.0
 40
7.0
 40
8.0
 40
8.0
 40
8.0
 40
8.0
 10
1014.064889611935
 20
342.6505750011429
 30
0.0
 10
1014.064889611935
 20
342.6505750011429
 30
0.0
 10
1011.596823206302
 20
344.5605359381654
 30
0.0
 10
1011.596823206302
 20
344.5012802958191
 30
0.0
 10
1011.596823206302
 20
344.4413356343757
 30
0.0
 10
1011.596823206302
 20
360.4424261251671
 30
0.0
 10
1011.596823206302
 20
360.4424261251671
 30
0.0
 10
1011.596823206302
 20
360.4424261251671
 30
0.0
 10
1014.064889611935
 20
362.3530760812867
 30
0.0
 10
1014.064889611935
 20
362.3530760812867
 30
0.0
 10
1014.064889611935
 20
362.3530760812867
 30
0.0
 10
1019.576353369238
 20
361.3829371926403
 30
0.0
 10
1019.576353369238
 20
361.3829371926403
 30
0.0
 10
1019.576353369238
 20
361.3829371926403
 30
0.0
 10
1021.832890912076
 20
359.5019150576939
 30
0.0
 10
1021.832890912076
 20
359.5019150576939
 30
0.0
 10
1021.832890912076
 20
359.5019150576939
 30
0.0
 10
1021.832890912076
 20
345.4562607643304
 30
0.0
 10
1021.832890912076
 20
345.4562607643304
 30
0.0
 10
1021.832890912076
 20
345.4562607643304
 30
0.0
 10
1019.637331559327
 20
343.5607692283459
 30
0.0
 10
1019.637331559327
 20
343.5607692283459
 30
0.0
 10
1019.637331559327
 20
343.5607692283459
 30
0.0
 10
1014.064889611935
 20
342.6505750011429
 30
0.0
 10
1014.064889611935
 20
342.6505750011429
 30
0.0
  0
ENDBLK
  5
17E
330
17B
100
AcDbEntity
  8
0
100
AcDbBlockEnd
  0
BLOCK
  5
1AC
330
1AA
100
AcDbEntity
  8
0
100
AcDbBlockBegin
  2
block 10
 70
     0
 71
     0
 10
0.0
 20
0.0
 30
0.0
  3
block 10
  1

  0
POLYLINE
  5
1AE
330
1AA
100
AcDbEntity
  8
Layer 1
 62
     7
420
 16777215
370
     5
100
AcDb2dPolyline
 66
     1
 10
0.0
 20
0.0
 30
0.0
  0
VERTEX
  5
1AF
330
1AE
100
AcDbEntity
  8
Layer 1
 62
     7
420
 16777215
370
     5
100
AcDbVertex
100
AcDb2dVertex
 10
965.2365177708435
 20
704.7397567682594
 30
0.0
  0
VERTEX
  5
1B0
330
1AE
100
AcDbEntity
  8
Layer 1
 62
     7
420
 16777215
370
     5
100
AcDbVertex
100
AcDb2dVertex
 10
965.2365177708435
 20
706.7399792069955
 30
0.0
  0
VERTEX
  5
1B1
330
1AE
100
AcDbEntity
  8
Layer 1
 62
     7
420
 16777215
370
     5
100
AcDbVertex
100
AcDb2dVertex
 10
957.2356280158994
 20
706.7399792069955
 30
0.0
  0
VERTEX
  5
1B2
330
1AE
100
AcDbEntity
  8
Layer 1
 62
     7
420
 16777215
370
     5
100
AcDbVertex
100
AcDb2dVertex
 10
957.2356280158994
 20
702.7398788390719
 30
0.0
  0
VERTEX
  5
1B3
330
1AE
100
AcDbEntity
  8
Layer 1
 62
     7
420
 16777215
370
     5
100
AcDbVertex
100
AcDb2dVertex
 10
965.2365177708435
 20
702.7398788390719
 30
0.0
  0
VERTEX
  5
1B4
330
1AE
100
AcDbEntity
  8
Layer 1
 62
     7
420
 16777215
370
     5
100
AcDbVertex
100
AcDb2dVertex
 10
965.2365177708435
 20
704.7397567682594
 30
0.0
  0
SEQEND
  5
1B5
330
1AE
100
AcDbEntity
  8
Layer 1
370
     5
  0
POLYLINE
  5
1B6
330
1AA
100
AcDbEntity
  8
Layer 1
 62
     7
420
 16777215
370
     5
100
AcDb2dPolyline
 66
     1
 10
0.0
 20
0.0
 30
0.0
  0
VERTEX
  5
1B7
330
1B6
100
AcDbEntity
  8
Layer 1
 62
     7
420
 16777215
370
     5
100
AcDbVertex
100
AcDb2dVertex
 10
965.2365177708435
 20
488.7398490531622
 30
0.0
  0
VERTEX
  5
1B8
330
1B6
100
AcDbEntity
  8
Layer 1
 62
     7
420
 16777215
370
     5
100
AcDbVertex
100
AcDb2dVertex
 10
965.2365177708435
 20
490.7407605109953
 30
0.0
  0
VERTEX
  5
1B9
330
1B6
100
AcDbEntity
  8
Layer 1
 62
     7
420
 16777215
370
     5
100
AcDbVertex
100
AcDb2dVertex
 10
957.2356280158994
 20
490.7407605109953
 30
0.0
  0
VERTEX
  5
1BA
330
1B6
100
AcDbEntity
  8
Layer 1
 62
     7
420
 16777215
370
     5
100
AcDbVertex
100
AcDb2dVertex
 10
957.2356280158994
 20
486.7389375953291
 30
0.0
  0
VERTEX
  5
1BB
330
1B6
100
AcDbEntity
  8
Layer 1
 62
     7
420
 16777215
370
     5
100
AcDbVertex
100
AcDb2dVertex
 10
965.2365177708435
 20
486.7389375953291
 30
0.0
  0
VERTEX
  5
1BC
330
1B6
100
AcDbEntity
  8
Layer 1
 62
     7
420
 16777215
370
     5
100
AcDbVertex
100
AcDb2dVertex
 10
965.2365177708435
 20
488.7398490531622
 30
0.0
  0
SEQEND
  5
1BD
330
1B6
100
AcDbEntity
  8
Layer 1
370
     5
  0
POLYLINE
  5
1BE
330
1AA
100
AcDbEntity
  8
Layer 1
 62
     7
420
 16777215
370
     5
100
AcDb2dPolyline
 66
     1
 10
0.0
 20
0.0
 30
0.0
  0
VERTEX
  5
1BF
330
1BE
100
AcDbEntity
  8
Layer 1
 62
     7
420
 16777215
370
     5
100
AcDbVertex
100
AcDb2dVertex
 10
1142.836702188249
 20
488.7398490531622
 30
0.0
  0
VERTEX
  5
1C0
330
1BE
100
AcDbEntity
  8
Layer 1
 62
     7
420
 16777215
370
     5
100
AcDbVertex
100
AcDb2dVertex
 10
1142.836702188249
 20
490.7407605109953
 30
0.0
  0
VERTEX
  5
1C1
330
1BE
100
AcDbEntity
  8
Layer 1
 62
     7
420
 16777215
370
     5
100
AcDbVertex
100
AcDb2dVertex
 10
1150.836213904999
 20
490.7407605109953
 30
0.0
  0
VERTEX
  5
1C2
330
1BE
100
AcDbEntity
  8
Layer 1
 62
     7
420
 16777215
370
     5
100
AcDbVertex
100
AcDb2dVertex
 10
1150.836213904999
 20
486.7389375953291
 30
0.0
  0
VERTEX
  5
1C3
330
1BE
100
AcDbEntity
  8
Layer 1
 62
     7
420
 16777215
370
     5
100
AcDbVertex
100
AcDb2dVertex
 10
1142.836702188249
 20
486.7389375953291
 30
0.0
  0
VERTEX
  5
1C4
330
1BE
100
AcDbEntity
  8
Layer 1
 62
     7
420
 16777215
370
     5
100
AcDbVertex
100
AcDb2dVertex
 10
1142.836702188249
 20
488.7398490531622
 30
0.0
  0
SEQEND
  5
1C5
330
1BE
100
AcDbEntity
  8
Layer 1
370
     5
  0
POLYLINE
  5
1C6
330
1AA
100
AcDbEntity
  8
Layer 1
 62
     7
420
 16777215
370
     5
100
AcDb2dPolyline
 66
     1
 10
0.0
 20
0.0
 30
0.0
  0
VERTEX
  5
1C7
330
1C6
100
AcDbEntity
  8
Layer 1
 62
     7
420
 16777215
370
     5
100
AcDbVertex
100
AcDb2dVertex
 10
1142.836702188249
 20
704.7397567682594
 30
0.0
  0
VERTEX
  5
1C8
330
1C6
100
AcDbEntity
  8
Layer 1
 62
     7
420
 16777215
370
     5
100
AcDbVertex
100
AcDb2dVertex
 10
1142.836702188249
 20
706.7399792069955
 30
0.0
  0
VERTEX
  5
1C9
330
1C6
100
AcDbEntity
  8
Layer 1
 62
     7
420
 16777215
370
     5
100
AcDbVertex
100
AcDb2dVertex
 10
1150.836213904999
 20
706.7399792069955
 30
0.0
  0
VERTEX
  5
1CA
330
1C6
100
AcDbEntity
  8
Layer 1
 62
     7
420
 16777215
370
     5
100
AcDbVertex
100
AcDb2dVertex
 10
1150.836213904999
 20
702.7398788390719
 30
0.0
  0
VERTEX
  5
1CB
330
1C6
100
AcDbEntity
  8
Layer 1
 62
     7
420
 16777215
370
     5
100
AcDbVertex
100
AcDb2dVertex
 10
1142.836702188249
 20
702.7398788390719
 30
0.0
  0
VERTEX
  5
1CC
330
1C6
100
AcDbEntity
  8
Layer 1
 62
     7
420
 16777215
370
     5
100
AcDbVertex
100
AcDb2dVertex
 10
1142.836702188249
 20
704.7397567682594
 30
0.0
  0
SEQEND
  5
1CD
330
1C6
100
AcDbEntity
  8
Layer 1
370
     5
  0
SPLINE
  5
1CE
330
1AA
100
AcDbEntity
  8
Layer 1
 62
     7
420
 16777215
370
     5
100
AcDbSpline
210
0.0
220
0.0
230
1.0
 70
    11
 71
     3
 72
   113
 73
   109
 74
     0
 42
0.0000000001
 43
0.0000000001
 40
0.0
 40
0.0
 40
0.0
 40
0.0
 40
1.0
 40
1.0
 40
1.0
 40
2.0
 40
2.0
 40
2.0
 40
3.0
 40
3.0
 40
3.0
 40
4.0
 40
4.0
 40
4.0
 40
5.0
 40
5.0
 40
5.0
 40
6.0
 40
6.0
 40
6.0
 40
7.0
 40
7.0
 40
7.0
 40
8.0
 40
8.0
 40
8.0
 40
9.0
 40
9.0
 40
9.0
 40
10.0
 40
10.0
 40
10.0
 40
11.0
 40
11.0
 40
11.0
 40
12.0
 40
12.0
 40
12.0
 40
13.0
 40
13.0
 40
13.0
 40
14.0
 40
14.0
 40
14.0
 40
15.0
 40
15.0
 40
15.0
 40
16.0
 40
16.0
 40
16.0
 40
17.0
 40
17.0
 40
17.0
 40
18.0
 40
18.0
 40
18.0
 40
19.0
 40
19.0
 40
19.0
 40
20.0
 40
20.0
 40
20.0
 40
21.0
 40
21.0
 40
21.0
 40
22.0
 40
22.0
 40
22.0
 40
23.0
 40
23.0
 40
23.0
 40
24.0
 40
24.0
 40
24.0
 40
25.0
 40
25.0
 40
25.0
 40
26.0
 40
26.0
 40
26.0
 40
27.0
 40
27.0
 40
27.0
 40
28.0
 40
28.0
 40
28.0
 40
29.0
 40
29.0
 40
29.0
 40
30.0
 40
30.0
 40
30.0
 40
31.0
 40
31.0
 40
31.0
 40
32.0
 40
32.0
 40
32.0
 40
33.0
 40
33.0
 40
33.0
 40
34.0
 40
34.0
 40
34.0
 40
35.0
 40
35.0
 40
35.0
 40
36.0
 40
36.0
 40
36.0
 40
36.0
 10
1149.83644719518
 20
494.7405163693704
 30
0.0
 10
1149.83644719518
 20
494.7405163693704
 30
0.0
 10
1139.036761868018
 20
494.7405163693704
 30
0.0
 10
1139.036761868018
 20
494.7405163693704
 30
0.0
 10
1139.036761868018
 20
494.7405163693704
 30
0.0
 10
1139.036761868018
 20
698.739606216374
 30
0.0
 10
1139.036761868018
 20
698.739606216374
 30
0.0
 10
1139.036761868018
 20
698.739606216374
 30
0.0
 10
1149.83644719518
 20
698.739606216374
 30
0.0
 10
1149.83644719518
 20
698.739606216374
 30
0.0
 10
1153.149940032893
 20
698.739606216374
 30
0.0
 10
1155.836425492291
 20
701.4260916757719
 30
0.0
 10
1155.836425492291
 20
704.7397567682594
 30
0.0
 10
1155.836425492291
 20
708.053421860747
 30
0.0
 10
1153.149940032893
 20
710.7397350653705
 30
0.0
 10
1149.83644719518
 20
710.7397350653705
 30
0.0
 10
1149.83644719518
 20
710.7397350653705
 30
0.0
 10
1139.036761868018
 20
710.7397350653705
 30
0.0
 10
1139.036761868018
 20
710.7397350653705
 30
0.0
 10
1139.036761868018
 20
710.7397350653705
 30
0.0
 10
1139.036761868018
 20
726.7396197727421
 30
0.0
 10
1139.036761868018
 20
726.7396197727421
 30
0.0
 10
1139.036761868018
 20
726.7396197727421
 30
0.0
 10
1054.036609979546
 20
726.7396197727421
 30
0.0
 10
1054.036609979546
 20
726.7396197727421
 30
0.0
 10
1054.036609979546
 20
726.7396197727421
 30
0.0
 10
1054.036609979546
 20
730.7393756311171
 30
0.0
 10
1054.036609979546
 20
730.7393756311171
 30
0.0
 10
1054.036609979546
 20
730.7393756311171
 30
0.0
 10
1139.036761868018
 20
730.7393756311171
 30
0.0
 10
1139.036761868018
 20
730.7393756311171
 30
0.0
 10
1139.036761868018
 20
730.7393756311171
 30
0.0
 10
1139.036761868018
 20
736.7395261830026
 30
0.0
 10
1139.036761868018
 20
736.7395261830026
 30
0.0
 10
1139.036761868018
 20
736.7395261830026
 30
0.0
 10
969.0364580910741
 20
736.7395261830026
 30
0.0
 10
969.0364580910741
 20
736.7395261830026
 30
0.0
 10
969.0364580910741
 20
736.7395261830026
 30
0.0
 10
969.0364580910741
 20
730.7393756311171
 30
0.0
 10
969.0364580910741
 20
730.7393756311171
 30
0.0
 10
969.0364580910741
 20
730.7393756311171
 30
0.0
 10
969.0364580910741
 20
726.7396197727421
 30
0.0
 10
969.0364580910741
 20
726.7396197727421
 30
0.0
 10
969.0364580910741
 20
726.7396197727421
 30
0.0
 10
969.0364580910741
 20
710.7397350653705
 30
0.0
 10
969.0364580910741
 20
710.7397350653705
 30
0.0
 10
969.0364580910741
 20
710.7397350653705
 30
0.0
 10
958.2367727639129
 20
710.7397350653705
 30
0.0
 10
958.2367727639129
 20
710.7397350653705
 30
0.0
 10
954.9225909071026
 20
710.7397350653705
 30
0.0
 10
952.2361054477047
 20
708.053421860747
 30
0.0
 10
952.2361054477047
 20
704.7397567682594
 30
0.0
 10
952.2361054477047
 20
701.4260916757719
 30
0.0
 10
954.9225909071026
 20
698.739606216374
 30
0.0
 10
958.2367727639129
 20
698.739606216374
 30
0.0
 10
958.2367727639129
 20
698.739606216374
 30
0.0
 10
969.0364580910741
 20
698.739606216374
 30
0.0
 10
969.0364580910741
 20
698.739606216374
 30
0.0
 10
969.0364580910741
 20
698.739606216374
 30
0.0
 10
969.0364580910741
 20
494.7398273502733
 30
0.0
 10
969.0364580910741
 20
494.7398273502733
 30
0.0
 10
969.0364580910741
 20
494.7398273502733
 30
0.0
 10
958.2367727639129
 20
494.7398273502733
 30
0.0
 10
958.2367727639129
 20
494.7398273502733
 30
0.0
 10
954.9225909071026
 20
494.7398273502733
 30
0.0
 10
952.2361054477047
 20
492.0533418908755
 30
0.0
 10
952.2361054477047
 20
488.7391600340652
 30
0.0
 10
952.2361054477047
 20
485.4256671963519
 30
0.0
 10
954.9225909071026
 20
482.739181736954
 30
0.0
 10
958.2367727639129
 20
482.739181736954
 30
0.0
 10
958.2367727639129
 20
482.739181736954
 30
0.0
 10
969.0364580910741
 20
482.739181736954
 30
0.0
 10
969.0364580910741
 20
482.739181736954
 30
0.0
 10
969.0364580910741
 20
482.739181736954
 30
0.0
 10
969.0364580910741
 20
466.7387802652597
 30
0.0
 10
969.0364580910741
 20
466.7387802652597
 30
0.0
 10
969.0364580910741
 20
466.7387802652597
 30
0.0
 10
969.0364580910741
 20
462.7390244068847
 30
0.0
 10
969.0364580910741
 20
462.7390244068847
 30
0.0
 10
969.0364580910741
 20
462.7390244068847
 30
0.0
 10
969.0364580910741
 20
456.7390461097735
 30
0.0
 10
969.0364580910741
 20
456.7390461097735
 30
0.0
 10
969.0364580910741
 20
456.7390461097735
 30
0.0
 10
1139.036761868018
 20
456.7390461097735
 30
0.0
 10
1139.036761868018
 20
456.7390461097735
 30
0.0
 10
1139.036761868018
 20
456.7390461097735
 30
0.0
 10
1139.036761868018
 20
462.7390244068847
 30
0.0
 10
1139.036761868018
 20
462.7390244068847
 30
0.0
 10
1139.036761868018
 20
462.7390244068847
 30
0.0
 10
1054.036609979546
 20
462.7390244068847
 30
0.0
 10
1054.036609979546
 20
462.7390244068847
 30
0.0
 10
1054.036609979546
 20
462.7390244068847
 30
0.0
 10
1054.036609979546
 20
466.7387802652597
 30
0.0
 10
1054.036609979546
 20
466.7387802652597
 30
0.0
 10
1054.036609979546
 20
466.7387802652597
 30
0.0
 10
1139.036761868018
 20
466.7387802652597
 30
0.0
 10
1139.036761868018
 20
466.7387802652597
 30
0.0
 10
1139.036761868018
 20
466.7387802652597
 30
0.0
 10
1139.036761868018
 20
482.739181736954
 30
0.0
 10
1139.036761868018
 20
482.739181736954
 30
0.0
 10
1139.036761868018
 20
482.739181736954
 30
0.0
 10
1149.83644719518
 20
482.739181736954
 30
0.0
 10
1149.83644719518
 20
482.739181736954
 30
0.0
 10
1153.149940032893
 20
482.739181736954
 30
0.0
 10
1155.836425492291
 20
485.4256671963519
 30
0.0
 10
1155.836425492291
 20
488.7391600340652
 30
0.0
 10
1155.836425492291
 20
492.0533418908755
 30
0.0
 10
1153.149940032893
 20
494.7405163693704
 30
0.0
 10
1149.83644719518
 20
494.7405163693704
 30
0.0
  0
POLYLINE
  5
1CF
330
1AA
100
AcDbEntity
  8
Layer 1
 62
     7
420
 16777215
370
     5
100
AcDb2dPolyline
 66
     1
 10
0.0
 20
0.0
 30
0.0
  0
VERTEX
  5
1D0
330
1CF
100
AcDbEntity
  8
Layer 1
 62
     7
420
 16777215
370
     5
100
AcDbVertex
100
AcDb2dVertex
 10
1139.036761868018
 20
564.7400334959677
 30
0.0
  0
VERTEX
  5
1D1
330
1CF
100
AcDbEntity
  8
Layer 1
 62
     7
420
 16777215
370
     5
100
AcDbVertex
100
AcDb2dVertex
 10
1054.036609979546
 20
564.7400334959677
 30
0.0
  0
VERTEX
  5
1D2
330
1CF
100
AcDbEntity
  8
Layer 1
 62
     7
420
 16777215
370
     5
100
AcDbVertex
100
AcDb2dVertex
 10
1054.036609979546
 20
568.7397893543427
 30
0.0
  0
VERTEX
  5
1D3
330
1CF
100
AcDbEntity
  8
Layer 1
 62
     7
420
 16777215
370
     5
100
AcDbVertex
100
AcDb2dVertex
 10
1139.036761868018
 20
568.7397893543427
 30
0.0
  0
VERTEX
  5
1D4
330
1CF
100
AcDbEntity
  8
Layer 1
 62
     7
420
 16777215
370
     5
100
AcDbVertex
100
AcDb2dVertex
 10
1139.036761868018
 20
564.7400334959677
 30
0.0
  0
SEQEND
  5
1D5
330
1CF
100
AcDbEntity
  8
Layer 1
370
     5
  0
ENDBLK
  5
1AD
330
1AA
100
AcDbEntity
  8
0
100
AcDbBlockEnd
  0
BLOCK
  5
1D8
330
1D6
100
AcDbEntity
  8
0
100
AcDbBlockBegin
  2
block 11
 70
     0
 71
     0
 10
0.0
 20
0.0
 30
0.0
  3
block 11
  1

  0
POLYLINE
  5
1DA
330
1D6
100
AcDbEntity
  8
Layer 1
 62
     7
420
 16777215
370
     5
100
AcDb2dPolyline
 66
     1
 10
0.0
 20
0.0
 30
0.0
  0
VERTEX
  5
1DB
330
1DA
100
AcDbEntity
  8
Layer 1
 62
     7
420
 16777215
370
     5
100
AcDbVertex
100
AcDb2dVertex
 10
1350.000629002777
 20
719.9240151194981
 30
0.0
  0
VERTEX
  5
1DC
330
1DA
100
AcDbEntity
  8
Layer 1
 62
     7
420
 16777215
370
     5
100
AcDbVertex
100
AcDb2dVertex
 10
1350.000629002777
 20
717.9241371903106
 30
0.0
  0
VERTEX
  5
1DD
330
1DA
100
AcDbEntity
  8
Layer 1
 62
     7
420
 16777215
370
     5
100
AcDbVertex
100
AcDb2dVertex
 10
1358.001518757722
 20
717.9241371903106
 30
0.0
  0
VERTEX
  5
1DE
330
1DA
100
AcDbEntity
  8
Layer 1
 62
     7
420
 16777215
370
     5
100
AcDbVertex
100
AcDb2dVertex
 10
1358.001518757722
 20
721.9242375582342
 30
0.0
  0
VERTEX
  5
1DF
330
1DA
100
AcDbEntity
  8
Layer 1
 62
     7
420
 16777215
370
     5
100
AcDbVertex
100
AcDb2dVertex
 10
1350.000629002777
 20
721.9242375582342
 30
0.0
  0
VERTEX
  5
1E0
330
1DA
100
AcDbEntity
  8
Layer 1
 62
     7
420
 16777215
370
     5
100
AcDbVertex
100
AcDb2dVertex
 10
1350.000629002777
 20
719.9240151194981
 30
0.0
  0
SEQEND
  5
1E1
330
1DA
100
AcDbEntity
  8
Layer 1
370
     5
  0
POLYLINE
  5
1E2
330
1D6
100
AcDbEntity
  8
Layer 1
 62
     7
420
 16777215
370
     5
100
AcDb2dPolyline
 66
     1
 10
0.0
 20
0.0
 30
0.0
  0
VERTEX
  5
1E3
330
1E2
100
AcDbEntity
  8
Layer 1
 62
     7
420
 16777215
370
     5
100
AcDbVertex
100
AcDb2dVertex
 10
1350.000629002777
 20
503.9246241687237
 30
0.0
  0
VERTEX
  5
1E4
330
1E2
100
AcDbEntity
  8
Layer 1
 62
     7
420
 16777215
370
     5
100
AcDbVertex
100
AcDb2dVertex
 10
1350.000629002777
 20
501.9237127108905
 30
0.0
  0
VERTEX
  5
1E5
330
1E2
100
AcDbEntity
  8
Layer 1
 62
     7
420
 16777215
370
     5
100
AcDbVertex
100
AcDb2dVertex
 10
1358.001518757722
 20
501.9237127108905
 30
0.0
  0
VERTEX
  5
1E6
330
1E2
100
AcDbEntity
  8
Layer 1
 62
     7
420
 16777215
370
     5
100
AcDbVertex
100
AcDb2dVertex
 10
1358.001518757722
 20
505.9248466074597
 30
0.0
  0
VERTEX
  5
1E7
330
1E2
100
AcDbEntity
  8
Layer 1
 62
     7
420
 16777215
370
     5
100
AcDbVertex
100
AcDb2dVertex
 10
1350.000629002777
 20
505.9248466074597
 30
0.0
  0
VERTEX
  5
1E8
330
1E2
100
AcDbEntity
  8
Layer 1
 62
     7
420
 16777215
370
     5
100
AcDbVertex
100
AcDb2dVertex
 10
1350.000629002777
 20
503.9246241687237
 30
0.0
  0
SEQEND
  5
1E9
330
1E2
100
AcDbEntity
  8
Layer 1
370
     5
  0
POLYLINE
  5
1EA
330
1D6
100
AcDbEntity
  8
Layer 1
 62
     7
420
 16777215
370
     5
100
AcDb2dPolyline
 66
     1
 10
0.0
 20
0.0
 30
0.0
  0
VERTEX
  5
1EB
330
1EA
100
AcDbEntity
  8
Layer 1
 62
     7
420
 16777215
370
     5
100
AcDbVertex
100
AcDb2dVertex
 10
1172.400444585372
 20
503.9246241687237
 30
0.0
  0
VERTEX
  5
1EC
330
1EA
100
AcDbEntity
  8
Layer 1
 62
     7
420
 16777215
370
     5
100
AcDbVertex
100
AcDb2dVertex
 10
1172.400444585372
 20
501.9237127108905
 30
0.0
  0
VERTEX
  5
1ED
330
1EA
100
AcDbEntity
  8
Layer 1
 62
     7
420
 16777215
370
     5
100
AcDbVertex
100
AcDb2dVertex
 10
1164.400932868622
 20
501.9237127108905
 30
0.0
  0
VERTEX
  5
1EE
330
1EA
100
AcDbEntity
  8
Layer 1
 62
     7
420
 16777215
370
     5
100
AcDbVertex
100
AcDb2dVertex
 10
1164.400932868622
 20
505.9248466074597
 30
0.0
  0
VERTEX
  5
1EF
330
1EA
100
AcDbEntity
  8
Layer 1
 62
     7
420
 16777215
370
     5
100
AcDbVertex
100
AcDb2dVertex
 10
1172.400444585372
 20
505.9248466074597
 30
0.0
  0
VERTEX
  5
1F0
330
1EA
100
AcDbEntity
  8
Layer 1
 62
     7
420
 16777215
370
     5
100
AcDbVertex
100
AcDb2dVertex
 10
1172.400444585372
 20
503.9246241687237
 30
0.0
  0
SEQEND
  5
1F1
330
1EA
100
AcDbEntity
  8
Layer 1
370
     5
  0
POLYLINE
  5
1F2
330
1D6
100
AcDbEntity
  8
Layer 1
 62
     7
420
 16777215
370
     5
100
AcDb2dPolyline
 66
     1
 10
0.0
 20
0.0
 30
0.0
  0
VERTEX
  5
1F3
330
1F2
100
AcDbEntity
  8
Layer 1
 62
     7
420
 16777215
370
     5
100
AcDbVertex
100
AcDb2dVertex
 10
1172.400444585372
 20
719.9240151194981
 30
0.0
  0
VERTEX
  5
1F4
330
1F2
100
AcDbEntity
  8
Layer 1
 62
     7
420
 16777215
370
     5
100
AcDbVertex
100
AcDb2dVertex
 10
1172.400444585372
 20
717.9241371903106
 30
0.0
  0
VERTEX
  5
1F5
330
1F2
100
AcDbEntity
  8
Layer 1
 62
     7
420
 16777215
370
     5
100
AcDbVertex
100
AcDb2dVertex
 10
1164.400932868622
 20
717.9241371903106
 30
0.0
  0
VERTEX
  5
1F6
330
1F2
100
AcDbEntity
  8
Layer 1
 62
     7
420
 16777215
370
     5
100
AcDbVertex
100
AcDb2dVertex
 10
1164.400932868622
 20
721.9242375582342
 30
0.0
  0
VERTEX
  5
1F7
330
1F2
100
AcDbEntity
  8
Layer 1
 62
     7
420
 16777215
370
     5
100
AcDbVertex
100
AcDb2dVertex
 10
1172.400444585372
 20
721.9242375582342
 30
0.0
  0
VERTEX
  5
1F8
330
1F2
100
AcDbEntity
  8
Layer 1
 62
     7
420
 16777215
370
     5
100
AcDbVertex
100
AcDb2dVertex
 10
1172.400444585372
 20
719.9240151194981
 30
0.0
  0
SEQEND
  5
1F9
330
1F2
100
AcDbEntity
  8
Layer 1
370
     5
  0
SPLINE
  5
1FA
330
1D6
100
AcDbEntity
  8
Layer 1
 62
     7
420
 16777215
370
     5
100
AcDbSpline
210
0.0
220
0.0
230
1.0
 70
    11
 71
     3
 72
   113
 73
   109
 74
     0
 42
0.0000000001
 43
0.0000000001
 40
0.0
 40
0.0
 40
0.0
 40
0.0
 40
1.0
 40
1.0
 40
1.0
 40
2.0
 40
2.0
 40
2.0
 40
3.0
 40
3.0
 40
3.0
 40
4.0
 40
4.0
 40
4.0
 40
5.0
 40
5.0
 40
5.0
 40
6.0
 40
6.0
 40
6.0
 40
7.0
 40
7.0
 40
7.0
 40
8.0
 40
8.0
 40
8.0
 40
9.0
 40
9.0
 40
9.0
 40
10.0
 40
10.0
 40
10.0
 40
11.0
 40
11.0
 40
11.0
 40
12.0
 40
12.0
 40
12.0
 40
13.0
 40
13.0
 40
13.0
 40
14.0
 40
14.0
 40
14.0
 40
15.0
 40
15.0
 40
15.0
 40
16.0
 40
16.0
 40
16.0
 40
17.0
 40
17.0
 40
17.0
 40
18.0
 40
18.0
 40
18.0
 40
19.0
 40
19.0
 40
19.0
 40
20.0
 40
20.0
 40
20.0
 40
21.0
 40
21.0
 40
21.0
 40
22.0
 40
22.0
 40
22.0
 40
23.0
 40
23.0
 40
23.0
 40
24.0
 40
24.0
 40
24.0
 40
25.0
 40
25.0
 40
25.0
 40
26.0
 40
26.0
 40
26.0
 40
27.0
 40
27.0
 40
27.0
 40
28.0
 40
28.0
 40
28.0
 40
29.0
 40
29.0
 40
29.0
 40
30.0
 40
30.0
 40
30.0
 40
31.0
 40
31.0
 40
31.0
 40
32.0
 40
32.0
 40
32.0
 40
33.0
 40
33.0
 40
33.0
 40
34.0
 40
34.0
 40
34.0
 40
35.0
 40
35.0
 40
35.0
 40
36.0
 40
36.0
 40
36.0
 40
36.0
 10
1159.40072128133
 20
503.9239351496266
 30
0.0
 10
1159.40072128133
 20
500.6104423119133
 30
0.0
 10
1162.087206740728
 20
497.9237845977412
 30
0.0
 10
1165.400699578441
 20
497.9237845977412
 30
0.0
 10
1165.400699578441
 20
497.9237845977412
 30
0.0
 10
1176.200384905603
 20
497.9237845977412
 30
0.0
 10
1176.200384905603
 20
497.9237845977412
 30
0.0
 10
1176.200384905603
 20
497.9237845977412
 30
0.0
 10
1176.200384905603
 20
481.9233831260469
 30
0.0
 10
1176.200384905603
 20
481.9233831260469
 30
0.0
 10
1176.200384905603
 20
481.9233831260469
 30
0.0
 10
1261.200536794075
 20
481.9233831260469
 30
0.0
 10
1261.200536794075
 20
481.9233831260469
 30
0.0
 10
1261.200536794075
 20
481.9233831260469
 30
0.0
 10
1261.200536794075
 20
477.9236272676718
 30
0.0
 10
1261.200536794075
 20
477.9236272676718
 30
0.0
 10
1261.200536794075
 20
477.9236272676718
 30
0.0
 10
1176.200384905603
 20
477.9236272676718
 30
0.0
 10
1176.200384905603
 20
477.9236272676718
 30
0.0
 10
1176.200384905603
 20
477.9236272676718
 30
0.0
 10
1176.200384905603
 20
471.9236489705607
 30
0.0
 10
1176.200384905603
 20
471.9236489705607
 30
0.0
 10
1176.200384905603
 20
471.9236489705607
 30
0.0
 10
1346.200688682547
 20
471.9236489705607
 30
0.0
 10
1346.200688682547
 20
471.9236489705607
 30
0.0
 10
1346.200688682547
 20
471.9236489705607
 30
0.0
 10
1346.200688682547
 20
477.9236272676718
 30
0.0
 10
1346.200688682547
 20
477.9236272676718
 30
0.0
 10
1346.200688682547
 20
477.9236272676718
 30
0.0
 10
1346.200688682547
 20
481.9233831260469
 30
0.0
 10
1346.200688682547
 20
481.9233831260469
 30
0.0
 10
1346.200688682547
 20
481.9233831260469
 30
0.0
 10
1346.200688682547
 20
497.9237845977412
 30
0.0
 10
1346.200688682547
 20
497.9237845977412
 30
0.0
 10
1346.200688682547
 20
497.9237845977412
 30
0.0
 10
1357.000374009708
 20
497.9237845977412
 30
0.0
 10
1357.000374009708
 20
497.9237845977412
 30
0.0
 10
1360.314555866519
 20
497.9237845977412
 30
0.0
 10
1363.001041325916
 20
500.6104423119133
 30
0.0
 10
1363.001041325916
 20
503.9239351496266
 30
0.0
 10
1363.001041325916
 20
507.2374279873399
 30
0.0
 10
1360.314555866519
 20
509.9239134467377
 30
0.0
 10
1357.000374009708
 20
509.9239134467377
 30
0.0
 10
1357.000374009708
 20
509.9239134467377
 30
0.0
 10
1346.200688682547
 20
509.9239134467377
 30
0.0
 10
1346.200688682547
 20
509.9239134467377
 30
0.0
 10
1346.200688682547
 20
509.9239134467377
 30
0.0
 10
1346.200688682547
 20
713.9238645676127
 30
0.0
 10
1346.200688682547
 20
713.9238645676127
 30
0.0
 10
1346.200688682547
 20
713.9238645676127
 30
0.0
 10
1357.000374009708
 20
713.9238645676127
 30
0.0
 10
1357.000374009708
 20
713.9238645676127
 30
0.0
 10
1360.314555866519
 20
713.9238645676127
 30
0.0
 10
1363.001041325916
 20
716.6103500270106
 30
0.0
 10
1363.001041325916
 20
719.9240151194981
 30
0.0
 10
1363.001041325916
 20
723.2376802119857
 30
0.0
 10
1360.314555866519
 20
725.9239934166092
 30
0.0
 10
1357.000374009708
 20
725.9239934166092
 30
0.0
 10
1357.000374009708
 20
725.9239934166092
 30
0.0
 10
1346.200688682547
 20
725.9239934166092
 30
0.0
 10
1346.200688682547
 20
725.9239934166092
 30
0.0
 10
1346.200688682547
 20
725.9239934166092
 30
0.0
 10
1346.200688682547
 20
741.9238781239808
 30
0.0
 10
1346.200688682547
 20
741.9238781239808
 30
0.0
 10
1346.200688682547
 20
741.9238781239808
 30
0.0
 10
1346.200688682547
 20
745.9236339823558
 30
0.0
 10
1346.200688682547
 20
745.9236339823558
 30
0.0
 10
1346.200688682547
 20
745.9236339823558
 30
0.0
 10
1346.200688682547
 20
751.9237845342412
 30
0.0
 10
1346.200688682547
 20
751.9237845342412
 30
0.0
 10
1346.200688682547
 20
751.9237845342412
 30
0.0
 10
1176.200384905603
 20
751.9237845342412
 30
0.0
 10
1176.200384905603
 20
751.9237845342412
 30
0.0
 10
1176.200384905603
 20
751.9237845342412
 30
0.0
 10
1176.200384905603
 20
745.9236339823558
 30
0.0
 10
1176.200384905603
 20
745.9236339823558
 30
0.0
 10
1176.200384905603
 20
745.9236339823558
 30
0.0
 10
1261.200536794075
 20
745.9236339823558
 30
0.0
 10
1261.200536794075
 20
745.9236339823558
 30
0.0
 10
1261.200536794075
 20
745.9236339823558
 30
0.0
 10
1261.200536794075
 20
741.9238781239808
 30
0.0
 10
1261.200536794075
 20
741.9238781239808
 30
0.0
 10
1261.200536794075
 20
741.9238781239808
 30
0.0
 10
1176.200384905603
 20
741.9238781239808
 30
0.0
 10
1176.200384905603
 20
741.9238781239808
 30
0.0
 10
1176.200384905603
 20
741.9238781239808
 30
0.0
 10
1176.200384905603
 20
725.9239934166092
 30
0.0
 10
1176.200384905603
 20
725.9239934166092
 30
0.0
 10
1176.200384905603
 20
725.9239934166092
 30
0.0
 10
1165.400699578441
 20
725.9239934166092
 30
0.0
 10
1165.400699578441
 20
725.9239934166092
 30
0.0
 10
1162.087206740728
 20
725.9239934166092
 30
0.0
 10
1159.40072128133
 20
723.2376802119857
 30
0.0
 10
1159.40072128133
 20
719.9240151194981
 30
0.0
 10
1159.40072128133
 20
716.6103500270106
 30
0.0
 10
1162.087206740728
 20
713.9238645676127
 30
0.0
 10
1165.400699578441
 20
713.9238645676127
 30
0.0
 10
1165.400699578441
 20
713.9238645676127
 30
0.0
 10
1176.200384905603
 20
713.9238645676127
 30
0.0
 10
1176.200384905603
 20
713.9238645676127
 30
0.0
 10
1176.200384905603
 20
713.9238645676127
 30
0.0
 10
1176.200384905603
 20
509.9246024658348
 30
0.0
 10
1176.200384905603
 20
509.9246024658348
 30
0.0
 10
1176.200384905603
 20
509.9246024658348
 30
0.0
 10
1165.400699578441
 20
509.9246024658348
 30
0.0
 10
1165.400699578441
 20
509.9246024658348
 30
0.0
 10
1162.087206740728
 20
509.9246024658348
 30
0.0
 10
1159.40072128133
 20
507.2374279873399
 30
0.0
 10
1159.40072128133
 20
503.9239351496266
 30
0.0
  0
POLYLINE
  5
1FB
330
1D6
100
AcDbEntity
  8
Layer 1
 62
     7
420
 16777215
370
     5
100
AcDb2dPolyline
 66
     1
 10
0.0
 20
0.0
 30
0.0
  0
VERTEX
  5
1FC
330
1FB
100
AcDbEntity
  8
Layer 1
 62
     7
420
 16777215
370
     5
100
AcDbVertex
100
AcDb2dVertex
 10
1176.200384905603
 20
579.9242918472064
 30
0.0
  0
VERTEX
  5
1FD
330
1FB
100
AcDbEntity
  8
Layer 1
 62
     7
420
 16777215
370
     5
100
AcDbVertex
100
AcDb2dVertex
 10
1261.200536794075
 20
579.9242918472064
 30
0.0
  0
VERTEX
  5
1FE
330
1FB
100
AcDbEntity
  8
Layer 1
 62
     7
420
 16777215
370
     5
100
AcDbVertex
100
AcDb2dVertex
 10
1261.200536794075
 20
583.9240477055814
 30
0.0
  0
VERTEX
  5
1FF
330
1FB
100
AcDbEntity
  8
Layer 1
 62
     7
420
 16777215
370
     5
100
AcDbVertex
100
AcDb2dVertex
 10
1176.200384905603
 20
583.9240477055814
 30
0.0
  0
VERTEX
  5
200
330
1FB
100
AcDbEntity
  8
Layer 1
 62
     7
420
 16777215
370
     5
100
AcDbVertex
100
AcDb2dVertex
 10
1176.200384905603
 20
579.9242918472064
 30
0.0
  0
SEQEND
  5
201
330
1FB
100
AcDbEntity
  8
Layer 1
370
     5
  0
ENDBLK
  5
1D9
330
1D6
100
AcDbEntity
  8
0
100
AcDbBlockEnd
  0
BLOCK
  5
204
330
202
100
AcDbEntity
  8
0
100
AcDbBlockBegin
  2
block 12
 70
     0
 71
     0
 10
0.0
 20
0.0
 30
0.0
  3
block 12
  1

  0
POLYLINE
  5
206
330
202
100
AcDbEntity
  8
Layer 1
 62
     7
420
 16777215
370
     5
100
AcDb2dPolyline
 66
     1
 10
0.0
 20
0.0
 30
0.0
  0
VERTEX
  5
207
330
206
100
AcDbEntity
  8
Layer 1
 62
     7
420
 16777215
370
     5
100
AcDbVertex
100
AcDb2dVertex
 10
1260.639675249076
 20
263.6924315747019
 30
0.0
  0
VERTEX
  5
208
330
206
100
AcDbEntity
  8
Layer 1
 62
     7
420
 16777215
370
     5
100
AcDbVertex
100
AcDb2dVertex
 10
1258.63945281034
 20
263.6924315747019
 30
0.0
  0
VERTEX
  5
209
330
206
100
AcDbEntity
  8
Layer 1
 62
     7
420
 16777215
370
     5
100
AcDbVertex
100
AcDb2dVertex
 10
1258.63945281034
 20
255.6918863293062
 30
0.0
  0
VERTEX
  5
20A
330
206
100
AcDbEntity
  8
Layer 1
 62
     7
420
 16777215
370
     5
100
AcDbVertex
100
AcDb2dVertex
 10
1262.639208668715
 20
255.6918863293062
 30
0.0
  0
VERTEX
  5
20B
330
206
100
AcDbEntity
  8
Layer 1
 62
     7
420
 16777215
370
     5
100
AcDbVertex
100
AcDb2dVertex
 10
1262.639208668715
 20
263.6924315747019
 30
0.0
  0
VERTEX
  5
20C
330
206
100
AcDbEntity
  8
Layer 1
 62
     7
420
 16777215
370
     5
100
AcDbVertex
100
AcDb2dVertex
 10
1260.639675249076
 20
263.6924315747019
 30
0.0
  0
SEQEND
  5
20D
330
206
100
AcDbEntity
  8
Layer 1
370
     5
  0
POLYLINE
  5
20E
330
202
100
AcDbEntity
  8
Layer 1
 62
     7
420
 16777215
370
     5
100
AcDb2dPolyline
 66
     1
 10
0.0
 20
0.0
 30
0.0
  0
VERTEX
  5
20F
330
20E
100
AcDbEntity
  8
Layer 1
 62
     7
420
 16777215
370
     5
100
AcDbVertex
100
AcDb2dVertex
 10
1316.639702361812
 20
263.6924315747019
 30
0.0
  0
VERTEX
  5
210
330
20E
100
AcDbEntity
  8
Layer 1
 62
     7
420
 16777215
370
     5
100
AcDbVertex
100
AcDb2dVertex
 10
1314.639479923076
 20
263.6924315747019
 30
0.0
  0
VERTEX
  5
211
330
20E
100
AcDbEntity
  8
Layer 1
 62
     7
420
 16777215
370
     5
100
AcDbVertex
100
AcDb2dVertex
 10
1314.639479923076
 20
255.6918863293062
 30
0.0
  0
VERTEX
  5
212
330
20E
100
AcDbEntity
  8
Layer 1
 62
     7
420
 16777215
370
     5
100
AcDbVertex
100
AcDb2dVertex
 10
1318.639235781451
 20
255.6918863293062
 30
0.0
  0
VERTEX
  5
213
330
20E
100
AcDbEntity
  8
Layer 1
 62
     7
420
 16777215
370
     5
100
AcDbVertex
100
AcDb2dVertex
 10
1318.639235781451
 20
263.6924315747019
 30
0.0
  0
VERTEX
  5
214
330
20E
100
AcDbEntity
  8
Layer 1
 62
     7
420
 16777215
370
     5
100
AcDbVertex
100
AcDb2dVertex
 10
1316.639702361812
 20
263.6924315747019
 30
0.0
  0
SEQEND
  5
215
330
20E
100
AcDbEntity
  8
Layer 1
370
     5
  0
POLYLINE
  5
216
330
202
100
AcDbEntity
  8
Layer 1
 62
     7
420
 16777215
370
     5
100
AcDb2dPolyline
 66
     1
 10
0.0
 20
0.0
 30
0.0
  0
VERTEX
  5
217
330
216
100
AcDbEntity
  8
Layer 1
 62
     7
420
 16777215
370
     5
100
AcDbVertex
100
AcDb2dVertex
 10
1316.639702361812
 20
441.2926159921074
 30
0.0
  0
VERTEX
  5
218
330
216
100
AcDbEntity
  8
Layer 1
 62
     7
420
 16777215
370
     5
100
AcDbVertex
100
AcDb2dVertex
 10
1314.639479923076
 20
441.2926159921074
 30
0.0
  0
VERTEX
  5
219
330
216
100
AcDbEntity
  8
Layer 1
 62
     7
420
 16777215
370
     5
100
AcDbVertex
100
AcDb2dVertex
 10
1314.639479923076
 20
449.2928167279545
 30
0.0
  0
VERTEX
  5
21A
330
216
100
AcDbEntity
  8
Layer 1
 62
     7
420
 16777215
370
     5
100
AcDbVertex
100
AcDb2dVertex
 10
1318.639235781451
 20
449.2928167279545
 30
0.0
  0
VERTEX
  5
21B
330
216
100
AcDbEntity
  8
Layer 1
 62
     7
420
 16777215
370
     5
100
AcDbVertex
100
AcDb2dVertex
 10
1318.639235781451
 20
441.2926159921074
 30
0.0
  0
VERTEX
  5
21C
330
216
100
AcDbEntity
  8
Layer 1
 62
     7
420
 16777215
370
     5
100
AcDbVertex
100
AcDb2dVertex
 10
1316.639702361812
 20
441.2926159921074
 30
0.0
  0
SEQEND
  5
21D
330
216
100
AcDbEntity
  8
Layer 1
370
     5
  0
POLYLINE
  5
21E
330
202
100
AcDbEntity
  8
Layer 1
 62
     7
420
 16777215
370
     5
100
AcDb2dPolyline
 66
     1
 10
0.0
 20
0.0
 30
0.0
  0
VERTEX
  5
21F
330
21E
100
AcDbEntity
  8
Layer 1
 62
     7
420
 16777215
370
     5
100
AcDbVertex
100
AcDb2dVertex
 10
1260.639675249076
 20
441.2926159921074
 30
0.0
  0
VERTEX
  5
220
330
21E
100
AcDbEntity
  8
Layer 1
 62
     7
420
 16777215
370
     5
100
AcDbVertex
100
AcDb2dVertex
 10
1258.63945281034
 20
441.2926159921074
 30
0.0
  0
VERTEX
  5
221
330
21E
100
AcDbEntity
  8
Layer 1
 62
     7
420
 16777215
370
     5
100
AcDbVertex
100
AcDb2dVertex
 10
1258.63945281034
 20
449.2928167279545
 30
0.0
  0
VERTEX
  5
222
330
21E
100
AcDbEntity
  8
Layer 1
 62
     7
420
 16777215
370
     5
100
AcDbVertex
100
AcDb2dVertex
 10
1262.639208668715
 20
449.2928167279545
 30
0.0
  0
VERTEX
  5
223
330
21E
100
AcDbEntity
  8
Layer 1
 62
     7
420
 16777215
370
     5
100
AcDbVertex
100
AcDb2dVertex
 10
1262.639208668715
 20
441.2926159921074
 30
0.0
  0
VERTEX
  5
224
330
21E
100
AcDbEntity
  8
Layer 1
 62
     7
420
 16777215
370
     5
100
AcDbVertex
100
AcDb2dVertex
 10
1260.639675249076
 20
441.2926159921074
 30
0.0
  0
SEQEND
  5
225
330
21E
100
AcDbEntity
  8
Layer 1
370
     5
  0
POLYLINE
  5
226
330
202
100
AcDbEntity
  8
Layer 1
 62
     7
420
 16777215
370
     5
100
AcDb2dPolyline
 66
     1
 10
0.0
 20
0.0
 30
0.0
  0
VERTEX
  5
227
330
226
100
AcDbEntity
  8
Layer 1
 62
     7
420
 16777215
370
     5
100
AcDbVertex
100
AcDb2dVertex
 10
1323.639447368743
 20
329.4930663238767
 30
0.0
  0
VERTEX
  5
228
330
226
100
AcDbEntity
  8
Layer 1
 62
     7
420
 16777215
370
     5
100
AcDbVertex
100
AcDb2dVertex
 10
1323.639447368743
 20
344.4930120666545
 30
0.0
  0
VERTEX
  5
229
330
226
100
AcDbEntity
  8
Layer 1
 62
     7
420
 16777215
370
     5
100
AcDbVertex
100
AcDb2dVertex
 10
1338.640082130618
 20
344.4930120666545
 30
0.0
  0
VERTEX
  5
22A
330
226
100
AcDbEntity
  8
Layer 1
 62
     7
420
 16777215
370
     5
100
AcDbVertex
100
AcDb2dVertex
 10
1338.640082130618
 20
329.4930663238767
 30
0.0
  0
VERTEX
  5
22B
330
226
100
AcDbEntity
  8
Layer 1
 62
     7
420
 16777215
370
     5
100
AcDbVertex
100
AcDb2dVertex
 10
1323.639447368743
 20
329.4930663238767
 30
0.0
  0
SEQEND
  5
22C
330
226
100
AcDbEntity
  8
Layer 1
370
     5
  0
SPLINE
  5
22D
330
202
100
AcDbEntity
  8
Layer 1
 62
     7
420
 16777215
370
     5
100
AcDbSpline
210
0.0
220
0.0
230
1.0
 70
    11
 71
     3
 72
   125
 73
   121
 74
     0
 42
0.0000000001
 43
0.0000000001
 40
0.0
 40
0.0
 40
0.0
 40
0.0
 40
1.0
 40
1.0
 40
1.0
 40
2.0
 40
2.0
 40
2.0
 40
3.0
 40
3.0
 40
3.0
 40
4.0
 40
4.0
 40
4.0
 40
5.0
 40
5.0
 40
5.0
 40
6.0
 40
6.0
 40
6.0
 40
7.0
 40
7.0
 40
7.0
 40
8.0
 40
8.0
 40
8.0
 40
9.0
 40
9.0
 40
9.0
 40
10.0
 40
10.0
 40
10.0
 40
11.0
 40
11.0
 40
11.0
 40
12.0
 40
12.0
 40
12.0
 40
13.0
 40
13.0
 40
13.0
 40
14.0
 40
14.0
 40
14.0
 40
15.0
 40
15.0
 40
15.0
 40
16.0
 40
16.0
 40
16.0
 40
17.0
 40
17.0
 40
17.0
 40
18.0
 40
18.0
 40
18.0
 40
19.0
 40
19.0
 40
19.0
 40
20.0
 40
20.0
 40
20.0
 40
21.0
 40
21.0
 40
21.0
 40
22.0
 40
22.0
 40
22.0
 40
23.0
 40
23.0
 40
23.0
 40
24.0
 40
24.0
 40
24.0
 40
25.0
 40
25.0
 40
25.0
 40
26.0
 40
26.0
 40
26.0
 40
27.0
 40
27.0
 40
27.0
 40
28.0
 40
28.0
 40
28.0
 40
29.0
 40
29.0
 40
29.0
 40
30.0
 40
30.0
 40
30.0
 40
31.0
 40
31.0
 40
31.0
 40
32.0
 40
32.0
 40
32.0
 40
33.0
 40
33.0
 40
33.0
 40
34.0
 40
34.0
 40
34.0
 40
35.0
 40
35.0
 40
35.0
 40
36.0
 40
36.0
 40
36.0
 40
37.0
 40
37.0
 40
37.0
 40
38.0
 40
38.0
 40
38.0
 40
39.0
 40
39.0
 40
39.0
 40
40.0
 40
40.0
 40
40.0
 40
40.0
 10
1310.639724064701
 20
448.293050018135
 30
0.0
 10
1310.639724064701
 20
448.293050018135
 30
0.0
 10
1310.639724064701
 20
437.4926756718768
 30
0.0
 10
1310.639724064701
 20
437.4926756718768
 30
0.0
 10
1310.639724064701
 20
437.4926756718768
 30
0.0
 10
1266.639653546187
 20
437.4926756718768
 30
0.0
 10
1266.639653546187
 20
437.4926756718768
 30
0.0
 10
1266.639653546187
 20
437.4926756718768
 30
0.0
 10
1266.639653546187
 20
448.293050018135
 30
0.0
 10
1266.639653546187
 20
448.293050018135
 30
0.0
 10
1266.639653546187
 20
451.6065428558483
 30
0.0
 10
1263.953857105886
 20
454.2930283152461
 30
0.0
 10
1260.639675249076
 20
454.2930283152461
 30
0.0
 10
1257.325493392266
 20
454.2930283152461
 30
0.0
 10
1254.639696951965
 20
451.6065428558483
 30
0.0
 10
1254.639696951965
 20
448.293050018135
 30
0.0
 10
1254.639696951965
 20
448.293050018135
 30
0.0
 10
1254.639696951965
 20
437.4926756718768
 30
0.0
 10
1254.639696951965
 20
437.4926756718768
 30
0.0
 10
1254.639696951965
 20
437.4926756718768
 30
0.0
 10
1238.639984499368
 20
437.4926756718768
 30
0.0
 10
1238.639984499368
 20
437.4926756718768
 30
0.0
 10
1238.639984499368
 20
437.4926756718768
 30
0.0
 10
1238.639984499368
 20
352.4932128025017
 30
0.0
 10
1238.639984499368
 20
352.4932128025017
 30
0.0
 10
1238.639984499368
 20
352.4932128025017
 30
0.0
 10
1234.640228640993
 20
352.4932128025017
 30
0.0
 10
1234.640228640993
 20
352.4932128025017
 30
0.0
 10
1234.640228640993
 20
352.4932128025017
 30
0.0
 10
1234.640228640993
 20
437.4926756718768
 30
0.0
 10
1234.640228640993
 20
437.4926756718768
 30
0.0
 10
1234.640228640993
 20
437.4926756718768
 30
0.0
 10
1228.639561324784
 20
437.4926756718768
 30
0.0
 10
1228.639561324784
 20
437.4926756718768
 30
0.0
 10
1228.639561324784
 20
437.4926756718768
 30
0.0
 10
1228.639561324784
 20
267.4923718949324
 30
0.0
 10
1228.639561324784
 20
267.4923718949324
 30
0.0
 10
1228.639561324784
 20
267.4923718949324
 30
0.0
 10
1234.640228640993
 20
267.4923718949324
 30
0.0
 10
1234.640228640993
 20
267.4923718949324
 30
0.0
 10
1234.640228640993
 20
267.4923718949324
 30
0.0
 10
1238.639984499368
 20
267.4923718949324
 30
0.0
 10
1238.639984499368
 20
267.4923718949324
 30
0.0
 10
1238.639984499368
 20
267.4923718949324
 30
0.0
 10
1254.639696951965
 20
267.4923718949324
 30
0.0
 10
1254.639696951965
 20
267.4923718949324
 30
0.0
 10
1254.639696951965
 20
267.4923718949324
 30
0.0
 10
1254.639696951965
 20
256.6923420582227
 30
0.0
 10
1254.639696951965
 20
256.6923420582227
 30
0.0
 10
1254.639696951965
 20
253.3785047109609
 30
0.0
 10
1257.325493392266
 20
250.6923637611116
 30
0.0
 10
1260.639675249076
 20
250.6923637611116
 30
0.0
 10
1263.953857105886
 20
250.6923637611116
 30
0.0
 10
1266.639653546187
 20
253.3785047109609
 30
0.0
 10
1266.639653546187
 20
256.6923420582227
 30
0.0
 10
1266.639653546187
 20
256.6923420582227
 30
0.0
 10
1266.639653546187
 20
267.4923718949324
 30
0.0
 10
1266.639653546187
 20
267.4923718949324
 30
0.0
 10
1266.639653546187
 20
267.4923718949324
 30
0.0
 10
1310.639724064701
 20
267.4923718949324
 30
0.0
 10
1310.639724064701
 20
267.4923718949324
 30
0.0
 10
1310.639724064701
 20
267.4923718949324
 30
0.0
 10
1310.639724064701
 20
256.6923420582227
 30
0.0
 10
1310.639724064701
 20
256.6923420582227
 30
0.0
 10
1310.639724064701
 20
253.3785047109609
 30
0.0
 10
1313.326209524099
 20
250.6923637611116
 30
0.0
 10
1316.639702361812
 20
250.6923637611116
 30
0.0
 10
1319.953884218623
 20
250.6923637611116
 30
0.0
 10
1322.639680658923
 20
253.3785047109609
 30
0.0
 10
1322.639680658923
 20
256.6923420582227
 30
0.0
 10
1322.639680658923
 20
256.6923420582227
 30
0.0
 10
1322.639680658923
 20
267.4923718949324
 30
0.0
 10
1322.639680658923
 20
267.4923718949324
 30
0.0
 10
1322.639680658923
 20
267.4923718949324
 30
0.0
 10
1338.640082130618
 20
267.4923718949324
 30
0.0
 10
1338.640082130618
 20
267.4923718949324
 30
0.0
 10
1338.640082130618
 20
267.4923718949324
 30
0.0
 10
1342.639837988993
 20
267.4923718949324
 30
0.0
 10
1342.639837988993
 20
267.4923718949324
 30
0.0
 10
1342.639837988993
 20
267.4923718949324
 30
0.0
 10
1348.639816286104
 20
267.4923718949324
 30
0.0
 10
1348.639816286104
 20
267.4923718949324
 30
0.0
 10
1348.639816286104
 20
267.4923718949324
 30
0.0
 10
1348.639816286104
 20
437.4926756718768
 30
0.0
 10
1348.639816286104
 20
437.4926756718768
 30
0.0
 10
1348.639816286104
 20
437.4926756718768
 30
0.0
 10
1342.639837988993
 20
437.4926756718768
 30
0.0
 10
1342.639837988993
 20
437.4926756718768
 30
0.0
 10
1342.639837988993
 20
437.4926756718768
 30
0.0
 10
1342.639837988993
 20
352.4932128025017
 30
0.0
 10
1342.639837988993
 20
352.4932128025017
 30
0.0
 10
1342.639837988993
 20
352.4932128025017
 30
0.0
 10
1338.640082130618
 20
352.4932128025017
 30
0.0
 10
1338.640082130618
 20
352.4932128025017
 30
0.0
 10
1338.640082130618
 20
352.4932128025017
 30
0.0
 10
1338.640082130618
 20
360.4927245192518
 30
0.0
 10
1338.640082130618
 20
360.4927245192518
 30
0.0
 10
1338.640082130618
 20
360.4927245192518
 30
0.0
 10
1323.639447368743
 20
360.4927245192518
 30
0.0
 10
1323.639447368743
 20
360.4927245192518
 30
0.0
 10
1323.639447368743
 20
360.4927245192518
 30
0.0
 10
1323.639447368743
 20
375.4926702620295
 30
0.0
 10
1323.639447368743
 20
375.4926702620295
 30
0.0
 10
1323.639447368743
 20
375.4926702620295
 30
0.0
 10
1338.640082130618
 20
375.4926702620295
 30
0.0
 10
1338.640082130618
 20
375.4926702620295
 30
0.0
 10
1338.640082130618
 20
375.4926702620295
 30
0.0
 10
1338.640082130618
 20
437.4926756718768
 30
0.0
 10
1338.640082130618
 20
437.4926756718768
 30
0.0
 10
1338.640082130618
 20
437.4926756718768
 30
0.0
 10
1322.639680658923
 20
437.4926756718768
 30
0.0
 10
1322.639680658923
 20
437.4926756718768
 30
0.0
 10
1322.639680658923
 20
437.4926756718768
 30
0.0
 10
1322.639680658923
 20
448.293050018135
 30
0.0
 10
1322.639680658923
 20
448.293050018135
 30
0.0
 10
1322.639680658923
 20
451.6065428558483
 30
0.0
 10
1319.953884218623
 20
454.2930283152461
 30
0.0
 10
1316.639702361812
 20
454.2930283152461
 30
0.0
 10
1313.326209524099
 20
454.2930283152461
 30
0.0
 10
1310.639724064701
 20
451.6065428558483
 30
0.0
 10
1310.639724064701
 20
448.293050018135
 30
0.0
  0
ENDBLK
  5
205
330
202
100
AcDbEntity
  8
0
100
AcDbBlockEnd
  0
ENDSEC
  0
SECTION
  2
ENTITIES
  0
SPLINE
  5
3C
330
1F
100
AcDbEntity
  8
Layer 1
 62
     7
420
 16777215
370
     5
100
AcDbSpline
210
0.0
220
0.0
230
1.0
 70
    11
 71
     3
 72
    32
 73
    28
 74
     0
 42
0.0000000001
 43
0.0000000001
 40
0.0
 40
0.0
 40
0.0
 40
0.0
 40
1.0
 40
1.0
 40
1.0
 40
2.0
 40
2.0
 40
2.0
 40
3.0
 40
3.0
 40
3.0
 40
4.0
 40
4.0
 40
4.0
 40
5.0
 40
5.0
 40
5.0
 40
6.0
 40
6.0
 40
6.0
 40
7.0
 40
7.0
 40
7.0
 40
8.0
 40
8.0
 40
8.0
 40
9.0
 40
9.0
 40
9.0
 40
9.0
 10
946.1548228971418
 20
465.0493054392932
 30
0.0
 10
946.1548228971418
 20
465.0493054392932
 30
0.0
 10
952.5544322705418
 20
465.0493054392932
 30
0.0
 10
952.5544322705418
 20
465.0493054392932
 30
0.0
 10
953.0429468103503
 20
464.9583549184826
 30
0.0
 10
953.4246633901159
 20
464.5766383387169
 30
0.0
 10
953.5156139109265
 20
464.0895018371025
 30
0.0
 10
953.5156139109265
 20
464.0895018371025
 30
0.0
 10
954.9949379122928
 20
448.8890515370832
 30
0.0
 10
954.9949379122928
 20
448.8890515370832
 30
0.0
 10
954.9949379122928
 20
448.8890515370832
 30
0.0
 10
956.2744463755146
 20
448.8890515370832
 30
0.0
 10
956.2744463755146
 20
448.8890515370832
 30
0.0
 10
956.762960915323
 20
448.7987900353697
 30
0.0
 10
957.1446774950887
 20
448.417073455604
 30
0.0
 10
957.2356280158994
 20
447.9292479348927
 30
0.0
 10
957.2356280158994
 20
447.9292479348927
 30
0.0
 10
957.2356280158994
 20
444.7294432481926
 30
0.0
 10
957.2356280158994
 20
444.7294432481926
 30
0.0
 10
957.1446774950887
 20
444.2416177274812
 30
0.0
 10
956.762960915323
 20
443.8599011477155
 30
0.0
 10
956.2744463755146
 20
443.7692951364535
 30
0.0
 10
956.2744463755146
 20
443.7692951364535
 30
0.0
 10
946.2747122200284
 20
443.7692951364535
 30
0.0
 10
946.2747122200284
 20
443.7692951364535
 30
0.0
 10
946.2747122200284
 20
443.7692951364535
 30
0.0
 10
946.1548228971418
 20
465.0493054392932
 30
0.0
 10
946.1548228971418
 20
465.0493054392932
 30
0.0
  0
SPLINE
  5
3D
330
1F
100
AcDbEntity
  8
Layer 1
 62
     7
420
 16777215
370
     5
100
AcDbSpline
210
0.0
220
0.0
230
1.0
 70
    11
 71
     3
 72
    17
 73
    13
 74
     0
 42
0.0000000001
 43
0.0000000001
 40
0.0
 40
0.0
 40
0.0
 40
0.0
 40
1.0
 40
1.0
 40
1.0
 40
2.0
 40
2.0
 40
2.0
 40
3.0
 40
3.0
 40
3.0
 40
4.0
 40
4.0
 40
4.0
 40
4.0
 10
950.1552677746139
 20
463.4490585863946
 30
0.0
 10
950.7292206824565
 20
463.4490585863946
 30
0.0
 10
951.1949975920622
 20
462.9836261863374
 30
0.0
 10
951.1949975920622
 20
462.4089842593977
 30
0.0
 10
951.1949975920622
 20
461.8346868420065
 30
0.0
 10
950.7292206824565
 20
461.3692544419493
 30
0.0
 10
950.1552677746139
 20
461.3692544419493
 30
0.0
 10
949.5806258476741
 20
461.3692544419493
 30
0.0
 10
949.1148489380683
 20
461.8346868420065
 30
0.0
 10
949.1148489380683
 20
462.4089842593977
 30
0.0
 10
949.1148489380683
 20
462.9836261863374
 30
0.0
 10
949.5806258476741
 20
463.4490585863946
 30
0.0
 10
950.1552677746139
 20
463.4490585863946
 30
0.0
  0
SPLINE
  5
3E
330
1F
100
AcDbEntity
  8
Layer 1
 62
     7
420
 16777215
370
     5
100
AcDbSpline
210
0.0
220
0.0
230
1.0
 70
    11
 71
     3
 72
    32
 73
    28
 74
     0
 42
0.0000000001
 43
0.0000000001
 40
0.0
 40
0.0
 40
0.0
 40
0.0
 40
1.0
 40
1.0
 40
1.0
 40
2.0
 40
2.0
 40
2.0
 40
3.0
 40
3.0
 40
3.0
 40
4.0
 40
4.0
 40
4.0
 40
5.0
 40
5.0
 40
5.0
 40
6.0
 40
6.0
 40
6.0
 40
7.0
 40
7.0
 40
7.0
 40
8.0
 40
8.0
 40
8.0
 40
9.0
 40
9.0
 40
9.0
 40
9.0
 10
946.1548228971418
 20
441.0490477413002
 30
0.0
 10
946.1548228971418
 20
441.0490477413002
 30
0.0
 10
952.5544322705418
 20
441.0490477413002
 30
0.0
 10
952.5544322705418
 20
441.0490477413002
 30
0.0
 10
953.0429468103503
 20
440.9587862395866
 30
0.0
 10
953.4246633901159
 20
440.5770696598209
 30
0.0
 10
953.5156139109265
 20
440.0888996295611
 30
0.0
 10
953.5156139109265
 20
440.0888996295611
 30
0.0
 10
954.9949379122928
 20
424.8891383486388
 30
0.0
 10
954.9949379122928
 20
424.8891383486388
 30
0.0
 10
954.9949379122928
 20
424.8891383486388
 30
0.0
 10
956.2744463755146
 20
424.8891383486388
 30
0.0
 10
956.2744463755146
 20
424.8891383486388
 30
0.0
 10
956.762960915323
 20
424.7981878278282
 30
0.0
 10
957.1446774950887
 20
424.4164712480625
 30
0.0
 10
957.2356280158994
 20
423.9293347464481
 30
0.0
 10
957.2356280158994
 20
423.9293347464481
 30
0.0
 10
957.2356280158994
 20
420.728841040651
 30
0.0
 10
957.2356280158994
 20
420.728841040651
 30
0.0
 10
957.1446774950887
 20
420.2417045390367
 30
0.0
 10
956.762960915323
 20
419.8599879592711
 30
0.0
 10
956.2744463755146
 20
419.7690374384605
 30
0.0
 10
956.2744463755146
 20
419.7690374384605
 30
0.0
 10
946.2747122200284
 20
419.7690374384605
 30
0.0
 10
946.2747122200284
 20
419.7690374384605
 30
0.0
 10
946.2747122200284
 20
419.7690374384605
 30
0.0
 10
946.1548228971418
 20
441.0490477413002
 30
0.0
 10
946.1548228971418
 20
441.0490477413002
 30
0.0
  0
SPLINE
  5
3F
330
1F
100
AcDbEntity
  8
Layer 1
 62
     7
420
 16777215
370
     5
100
AcDbSpline
210
0.0
220
0.0
230
1.0
 70
    11
 71
     3
 72
    17
 73
    13
 74
     0
 42
0.0000000001
 43
0.0000000001
 40
0.0
 40
0.0
 40
0.0
 40
0.0
 40
1.0
 40
1.0
 40
1.0
 40
2.0
 40
2.0
 40
2.0
 40
3.0
 40
3.0
 40
3.0
 40
4.0
 40
4.0
 40
4.0
 40
4.0
 10
950.1552677746139
 20
439.4494899074987
 30
0.0
 10
950.7292206824565
 20
439.4494899074987
 30
0.0
 10
951.1949975920622
 20
438.9837129978929
 30
0.0
 10
951.1949975920622
 20
438.4097600900503
 30
0.0
 10
951.1949975920622
 20
437.8351181631106
 30
0.0
 10
950.7292206824565
 20
437.3693412535048
 30
0.0
 10
950.1552677746139
 20
437.3693412535048
 30
0.0
 10
949.5806258476741
 20
437.3693412535048
 30
0.0
 10
949.1148489380683
 20
437.8351181631106
 30
0.0
 10
949.1148489380683
 20
438.4097600900503
 30
0.0
 10
949.1148489380683
 20
438.9837129978929
 30
0.0
 10
949.5806258476741
 20
439.4494899074987
 30
0.0
 10
950.1552677746139
 20
439.4494899074987
 30
0.0
  0
SPLINE
  5
40
330
1F
100
AcDbEntity
  8
Layer 1
 62
     7
420
 16777215
370
     5
100
AcDbSpline
210
0.0
220
0.0
230
1.0
 70
    11
 71
     3
 72
    32
 73
    28
 74
     0
 42
0.0000000001
 43
0.0000000001
 40
0.0
 40
0.0
 40
0.0
 40
0.0
 40
1.0
 40
1.0
 40
1.0
 40
2.0
 40
2.0
 40
2.0
 40
3.0
 40
3.0
 40
3.0
 40
4.0
 40
4.0
 40
4.0
 40
5.0
 40
5.0
 40
5.0
 40
6.0
 40
6.0
 40
6.0
 40
7.0
 40
7.0
 40
7.0
 40
8.0
 40
8.0
 40
8.0
 40
9.0
 40
9.0
 40
9.0
 40
9.0
 10
946.1548228971418
 20
417.0494790624043
 30
0.0
 10
946.1548228971418
 20
417.0494790624043
 30
0.0
 10
952.5544322705418
 20
417.0494790624043
 30
0.0
 10
952.5544322705418
 20
417.0494790624043
 30
0.0
 10
953.0429468103503
 20
416.9581840320452
 30
0.0
 10
953.4246633901159
 20
416.577500980925
 30
0.0
 10
953.5156139109265
 20
416.0893309506651
 30
0.0
 10
953.5156139109265
 20
416.0893309506651
 30
0.0
 10
954.9949379122928
 20
400.8895696697429
 30
0.0
 10
954.9949379122928
 20
400.8895696697429
 30
0.0
 10
954.9949379122928
 20
400.8895696697429
 30
0.0
 10
956.2744463755146
 20
400.8895696697429
 30
0.0
 10
956.2744463755146
 20
400.8895696697429
 30
0.0
 10
956.762960915323
 20
400.7982746393837
 30
0.0
 10
957.1446774950887
 20
400.416558059618
 30
0.0
 10
957.2356280158994
 20
399.9294215580037
 30
0.0
 10
957.2356280158994
 20
399.9294215580037
 30
0.0
 10
957.2356280158994
 20
396.7292723617551
 30
0.0
 10
957.2356280158994
 20
396.7292723617551
 30
0.0
 10
957.1446774950887
 20
396.2417913505923
 30
0.0
 10
956.762960915323
 20
395.8600747708266
 30
0.0
 10
956.2744463755146
 20
395.769124250016
 30
0.0
 10
956.2744463755146
 20
395.769124250016
 30
0.0
 10
946.2747122200284
 20
395.769124250016
 30
0.0
 10
946.2747122200284
 20
395.769124250016
 30
0.0
 10
946.2747122200284
 20
395.769124250016
 30
0.0
 10
946.1548228971418
 20
417.0494790624043
 30
0.0
 10
946.1548228971418
 20
417.0494790624043
 30
0.0
  0
SPLINE
  5
41
330
1F
100
AcDbEntity
  8
Layer 1
 62
     7
420
 16777215
370
     5
100
AcDbSpline
210
0.0
220
0.0
230
1.0
 70
    11
 71
     3
 72
    17
 73
    13
 74
     0
 42
0.0000000001
 43
0.0000000001
 40
0.0
 40
0.0
 40
0.0
 40
0.0
 40
1.0
 40
1.0
 40
1.0
 40
2.0
 40
2.0
 40
2.0
 40
3.0
 40
3.0
 40
3.0
 40
4.0
 40
4.0
 40
4.0
 40
4.0
 10
950.1552677746139
 20
415.4495767190542
 30
0.0
 10
950.7292206824565
 20
415.4495767190542
 30
0.0
 10
951.1949975920622
 20
414.9837998094484
 30
0.0
 10
951.1949975920622
 20
414.4091578825088
 30
0.0
 10
951.1949975920622
 20
413.8352049746662
 30
0.0
 10
950.7292206824565
 20
413.3694280650604
 30
0.0
 10
950.1552677746139
 20
413.3694280650604
 30
0.0
 10
949.5806258476741
 20
413.3694280650604
 30
0.0
 10
949.1148489380683
 20
413.8352049746662
 30
0.0
 10
949.1148489380683
 20
414.4091578825088
 30
0.0
 10
949.1148489380683
 20
414.9837998094484
 30
0.0
 10
949.5806258476741
 20
415.4495767190542
 30
0.0
 10
950.1552677746139
 20
415.4495767190542
 30
0.0
  0
SPLINE
  5
42
330
1F
100
AcDbEntity
  8
Layer 1
 62
     7
420
 16777215
370
     5
100
AcDbSpline
210
0.0
220
0.0
230
1.0
 70
    11
 71
     3
 72
    32
 73
    28
 74
     0
 42
0.0000000001
 43
0.0000000001
 40
0.0
 40
0.0
 40
0.0
 40
0.0
 40
1.0
 40
1.0
 40
1.0
 40
2.0
 40
2.0
 40
2.0
 40
3.0
 40
3.0
 40
3.0
 40
4.0
 40
4.0
 40
4.0
 40
5.0
 40
5.0
 40
5.0
 40
6.0
 40
6.0
 40
6.0
 40
7.0
 40
7.0
 40
7.0
 40
8.0
 40
8.0
 40
8.0
 40
9.0
 40
9.0
 40
9.0
 40
9.0
 10
946.1548228971418
 20
393.0488768548627
 30
0.0
 10
946.1548228971418
 20
393.0488768548627
 30
0.0
 10
952.5544322705418
 20
393.0488768548627
 30
0.0
 10
952.5544322705418
 20
393.0488768548627
 30
0.0
 10
953.0429468103503
 20
392.9579263340522
 30
0.0
 10
953.4246633901159
 20
392.5768987733835
 30
0.0
 10
953.5156139109265
 20
392.0890732526721
 30
0.0
 10
953.5156139109265
 20
392.0890732526721
 30
0.0
 10
954.9949379122928
 20
376.8893119717499
 30
0.0
 10
954.9949379122928
 20
376.8893119717499
 30
0.0
 10
954.9949379122928
 20
376.8893119717499
 30
0.0
 10
956.2744463755146
 20
376.8893119717499
 30
0.0
 10
956.2744463755146
 20
376.8893119717499
 30
0.0
 10
956.762960915323
 20
376.7983614509392
 30
0.0
 10
957.1446774950887
 20
376.4166448711736
 30
0.0
 10
957.2356280158994
 20
375.9288193504622
 30
0.0
 10
957.2356280158994
 20
375.9288193504622
 30
0.0
 10
957.2356280158994
 20
372.7290146637621
 30
0.0
 10
957.2356280158994
 20
372.7290146637621
 30
0.0
 10
957.1446774950887
 20
372.2411891430507
 30
0.0
 10
956.762960915323
 20
371.8601615823821
 30
0.0
 10
956.2744463755146
 20
371.7692110615715
 30
0.0
 10
956.2744463755146
 20
371.7692110615715
 30
0.0
 10
946.2747122200284
 20
371.7692110615715
 30
0.0
 10
946.2747122200284
 20
371.7692110615715
 30
0.0
 10
946.2747122200284
 20
371.7692110615715
 30
0.0
 10
946.1548228971418
 20
393.0488768548627
 30
0.0
 10
946.1548228971418
 20
393.0488768548627
 30
0.0
  0
SPLINE
  5
43
330
1F
100
AcDbEntity
  8
Layer 1
 62
     7
420
 16777215
370
     5
100
AcDbSpline
210
0.0
220
0.0
230
1.0
 70
    11
 71
     3
 72
    17
 73
    13
 74
     0
 42
0.0000000001
 43
0.0000000001
 40
0.0
 40
0.0
 40
0.0
 40
0.0
 40
1.0
 40
1.0
 40
1.0
 40
2.0
 40
2.0
 40
2.0
 40
3.0
 40
3.0
 40
3.0
 40
4.0
 40
4.0
 40
4.0
 40
4.0
 10
950.1552677746139
 20
391.4496635306098
 30
0.0
 10
950.7292206824565
 20
391.4496635306098
 30
0.0
 10
951.1949975920622
 20
390.983886621004
 30
0.0
 10
951.1949975920622
 20
390.4095892036128
 30
0.0
 10
951.1949975920622
 20
389.8352917862217
 30
0.0
 10
950.7292206824565
 20
389.3695148766159
 30
0.0
 10
950.1552677746139
 20
389.3695148766159
 30
0.0
 10
949.5806258476741
 20
389.3695148766159
 30
0.0
 10
949.1148489380683
 20
389.8352917862217
 30
0.0
 10
949.1148489380683
 20
390.4095892036128
 30
0.0
 10
949.1148489380683
 20
390.983886621004
 30
0.0
 10
949.5806258476741
 20
391.4496635306098
 30
0.0
 10
950.1552677746139
 20
391.4496635306098
 30
0.0
  0
SPLINE
  5
44
330
1F
100
AcDbEntity
  8
Layer 1
 62
     7
420
 16777215
370
     5
100
AcDbSpline
210
0.0
220
0.0
230
1.0
 70
    11
 71
     3
 72
    32
 73
    28
 74
     0
 42
0.0000000001
 43
0.0000000001
 40
0.0
 40
0.0
 40
0.0
 40
0.0
 40
1.0
 40
1.0
 40
1.0
 40
2.0
 40
2.0
 40
2.0
 40
3.0
 40
3.0
 40
3.0
 40
4.0
 40
4.0
 40
4.0
 40
5.0
 40
5.0
 40
5.0
 40
6.0
 40
6.0
 40
6.0
 40
7.0
 40
7.0
 40
7.0
 40
8.0
 40
8.0
 40
8.0
 40
9.0
 40
9.0
 40
9.0
 40
9.0
 10
946.1548228971418
 20
369.0489636664183
 30
0.0
 10
946.1548228971418
 20
369.0489636664183
 30
0.0
 10
952.5544322705418
 20
369.0489636664183
 30
0.0
 10
952.5544322705418
 20
369.0489636664183
 30
0.0
 10
953.0429468103503
 20
368.9580131456077
 30
0.0
 10
953.4246633901159
 20
368.5769855849391
 30
0.0
 10
953.5156139109265
 20
368.0891600642277
 30
0.0
 10
953.5156139109265
 20
368.0891600642277
 30
0.0
 10
954.9949379122928
 20
352.8893987833054
 30
0.0
 10
954.9949379122928
 20
352.8893987833054
 30
0.0
 10
954.9949379122928
 20
352.8893987833054
 30
0.0
 10
956.2744463755146
 20
352.8893987833054
 30
0.0
 10
956.2744463755146
 20
352.8893987833054
 30
0.0
 10
956.762960915323
 20
352.7984482624948
 30
0.0
 10
957.1446774950887
 20
352.4167316827291
 30
0.0
 10
957.2356280158994
 20
351.9289061620177
 30
0.0
 10
957.2356280158994
 20
351.9289061620177
 30
0.0
 10
957.2356280158994
 20
348.7291014753177
 30
0.0
 10
957.2356280158994
 20
348.7291014753177
 30
0.0
 10
957.1446774950887
 20
348.2412759546063
 30
0.0
 10
956.762960915323
 20
347.8602483939377
 30
0.0
 10
956.2744463755146
 20
347.7692978731271
 30
0.0
 10
956.2744463755146
 20
347.7692978731271
 30
0.0
 10
946.2747122200284
 20
347.7692978731271
 30
0.0
 10
946.2747122200284
 20
347.7692978731271
 30
0.0
 10
946.2747122200284
 20
347.7692978731271
 30
0.0
 10
946.1548228971418
 20
369.0489636664183
 30
0.0
 10
946.1548228971418
 20
369.0489636664183
 30
0.0
  0
SPLINE
  5
45
330
1F
100
AcDbEntity
  8
Layer 1
 62
     7
420
 16777215
370
     5
100
AcDbSpline
210
0.0
220
0.0
230
1.0
 70
    11
 71
     3
 72
    17
 73
    13
 74
     0
 42
0.0000000001
 43
0.0000000001
 40
0.0
 40
0.0
 40
0.0
 40
0.0
 40
1.0
 40
1.0
 40
1.0
 40
2.0
 40
2.0
 40
2.0
 40
3.0
 40
3.0
 40
3.0
 40
4.0
 40
4.0
 40
4.0
 40
4.0
 10
950.1552677746139
 20
367.4490613230682
 30
0.0
 10
950.7292206824565
 20
367.4490613230682
 30
0.0
 10
951.1949975920622
 20
366.9832844134625
 30
0.0
 10
951.1949975920622
 20
366.4093315056198
 30
0.0
 10
951.1949975920622
 20
365.8346895786802
 30
0.0
 10
950.7292206824565
 20
365.3689126690744
 30
0.0
 10
950.1552677746139
 20
365.3689126690744
 30
0.0
 10
949.5806258476741
 20
365.3689126690744
 30
0.0
 10
949.1148489380683
 20
365.8346895786802
 30
0.0
 10
949.1148489380683
 20
366.4093315056198
 30
0.0
 10
949.1148489380683
 20
366.9832844134625
 30
0.0
 10
949.5806258476741
 20
367.4490613230682
 30
0.0
 10
950.1552677746139
 20
367.4490613230682
 30
0.0
  0
SPLINE
  5
46
330
1F
100
AcDbEntity
  8
Layer 1
 62
     7
420
 16777215
370
     5
100
AcDbSpline
210
0.0
220
0.0
230
1.0
 70
    11
 71
     3
 72
    32
 73
    28
 74
     0
 42
0.0000000001
 43
0.0000000001
 40
0.0
 40
0.0
 40
0.0
 40
0.0
 40
1.0
 40
1.0
 40
1.0
 40
2.0
 40
2.0
 40
2.0
 40
3.0
 40
3.0
 40
3.0
 40
4.0
 40
4.0
 40
4.0
 40
5.0
 40
5.0
 40
5.0
 40
6.0
 40
6.0
 40
6.0
 40
7.0
 40
7.0
 40
7.0
 40
8.0
 40
8.0
 40
8.0
 40
9.0
 40
9.0
 40
9.0
 40
9.0
 10
946.1548228971418
 20
345.0497394970708
 30
0.0
 10
946.1548228971418
 20
345.0497394970708
 30
0.0
 10
952.5544322705418
 20
345.0497394970708
 30
0.0
 10
952.5544322705418
 20
345.0497394970708
 30
0.0
 10
953.0429468103503
 20
344.9580999571632
 30
0.0
 10
953.4246633901159
 20
344.5763833773975
 30
0.0
 10
953.5156139109265
 20
344.0892468757832
 30
0.0
 10
953.5156139109265
 20
344.0892468757832
 30
0.0
 10
954.9949379122928
 20
328.8887965757639
 30
0.0
 10
954.9949379122928
 20
328.8887965757639
 30
0.0
 10
954.9949379122928
 20
328.8887965757639
 30
0.0
 10
956.2744463755146
 20
328.8887965757639
 30
0.0
 10
956.2744463755146
 20
328.8887965757639
 30
0.0
 10
956.762960915323
 20
328.7985350740503
 30
0.0
 10
957.1446774950887
 20
328.4168184942847
 30
0.0
 10
957.2356280158994
 20
327.9289929735733
 30
0.0
 10
957.2356280158994
 20
327.9289929735733
 30
0.0
 10
957.2356280158994
 20
324.7291882868732
 30
0.0
 10
957.2356280158994
 20
324.7291882868732
 30
0.0
 10
957.1446774950887
 20
324.2413627661618
 30
0.0
 10
956.762960915323
 20
323.8603352054932
 30
0.0
 10
956.2744463755146
 20
323.7693846846826
 30
0.0
 10
956.2744463755146
 20
323.7693846846826
 30
0.0
 10
946.2747122200284
 20
323.7693846846826
 30
0.0
 10
946.2747122200284
 20
323.7693846846826
 30
0.0
 10
946.2747122200284
 20
323.7693846846826
 30
0.0
 10
946.1548228971418
 20
345.0497394970708
 30
0.0
 10
946.1548228971418
 20
345.0497394970708
 30
0.0
  0
SPLINE
  5
47
330
1F
100
AcDbEntity
  8
Layer 1
 62
     7
420
 16777215
370
     5
100
AcDbSpline
210
0.0
220
0.0
230
1.0
 70
    11
 71
     3
 72
    17
 73
    13
 74
     0
 42
0.0000000001
 43
0.0000000001
 40
0.0
 40
0.0
 40
0.0
 40
0.0
 40
1.0
 40
1.0
 40
1.0
 40
2.0
 40
2.0
 40
2.0
 40
3.0
 40
3.0
 40
3.0
 40
4.0
 40
4.0
 40
4.0
 40
4.0
 10
950.1552677746139
 20
343.4491481346238
 30
0.0
 10
950.7292206824565
 20
343.4491481346238
 30
0.0
 10
951.1949975920622
 20
342.983371225018
 30
0.0
 10
951.1949975920622
 20
342.4094183171754
 30
0.0
 10
951.1949975920622
 20
341.8347763902357
 30
0.0
 10
950.7292206824565
 20
341.36899948063
 30
0.0
 10
950.1552677746139
 20
341.36899948063
 30
0.0
 10
949.5806258476741
 20
341.36899948063
 30
0.0
 10
949.1148489380683
 20
341.8347763902357
 30
0.0
 10
949.1148489380683
 20
342.4094183171754
 30
0.0
 10
949.1148489380683
 20
342.983371225018
 30
0.0
 10
949.5806258476741
 20
343.4491481346238
 30
0.0
 10
950.1552677746139
 20
343.4491481346238
 30
0.0
  0
SPLINE
  5
48
330
1F
100
AcDbEntity
  8
Layer 1
 62
     7
420
 16777215
370
     5
100
AcDbSpline
210
0.0
220
0.0
230
1.0
 70
    11
 71
     3
 72
    32
 73
    28
 74
     0
 42
0.0000000001
 43
0.0000000001
 40
0.0
 40
0.0
 40
0.0
 40
0.0
 40
1.0
 40
1.0
 40
1.0
 40
2.0
 40
2.0
 40
2.0
 40
3.0
 40
3.0
 40
3.0
 40
4.0
 40
4.0
 40
4.0
 40
5.0
 40
5.0
 40
5.0
 40
6.0
 40
6.0
 40
6.0
 40
7.0
 40
7.0
 40
7.0
 40
8.0
 40
8.0
 40
8.0
 40
9.0
 40
9.0
 40
9.0
 40
9.0
 10
946.1548228971418
 20
321.0494817990779
 30
0.0
 10
946.1548228971418
 20
321.0494817990779
 30
0.0
 10
952.5544322705418
 20
321.0494817990779
 30
0.0
 10
952.5544322705418
 20
321.0494817990779
 30
0.0
 10
953.0429468103503
 20
320.9585312782673
 30
0.0
 10
953.4246633901159
 20
320.5768146985016
 30
0.0
 10
953.5156139109265
 20
320.0896781968873
 30
0.0
 10
953.5156139109265
 20
320.0896781968873
 30
0.0
 10
954.9949379122928
 20
304.889227896868
 30
0.0
 10
954.9949379122928
 20
304.889227896868
 30
0.0
 10
954.9949379122928
 20
304.889227896868
 30
0.0
 10
956.2744463755146
 20
304.889227896868
 30
0.0
 10
956.2744463755146
 20
304.889227896868
 30
0.0
 10
956.762960915323
 20
304.7982773760573
 30
0.0
 10
957.1446774950887
 20
304.4165607962917
 30
0.0
 10
957.2356280158994
 20
303.9287352755803
 30
0.0
 10
957.2356280158994
 20
303.9287352755803
 30
0.0
 10
957.2356280158994
 20
300.7289305888802
 30
0.0
 10
957.2356280158994
 20
300.7289305888802
 30
0.0
 10
957.1446774950887
 20
300.2411050681688
 30
0.0
 10
956.762960915323
 20
299.8600775075003
 30
0.0
 10
956.2744463755146
 20
299.7691269866896
 30
0.0
 10
956.2744463755146
 20
299.7691269866896
 30
0.0
 10
946.2747122200284
 20
299.7691269866896
 30
0.0
 10
946.2747122200284
 20
299.7691269866896
 30
0.0
 10
946.2747122200284
 20
299.7691269866896
 30
0.0
 10
946.1548228971418
 20
321.0494817990779
 30
0.0
 10
946.1548228971418
 20
321.0494817990779
 30
0.0
  0
SPLINE
  5
49
330
1F
100
AcDbEntity
  8
Layer 1
 62
     7
420
 16777215
370
     5
100
AcDbSpline
210
0.0
220
0.0
230
1.0
 70
    11
 71
     3
 72
    17
 73
    13
 74
     0
 42
0.0000000001
 43
0.0000000001
 40
0.0
 40
0.0
 40
0.0
 40
0.0
 40
1.0
 40
1.0
 40
1.0
 40
2.0
 40
2.0
 40
2.0
 40
3.0
 40
3.0
 40
3.0
 40
4.0
 40
4.0
 40
4.0
 40
4.0
 10
950.1552677746139
 20
319.4488904366308
 30
0.0
 10
950.7292206824565
 20
319.4488904366308
 30
0.0
 10
951.1949975920622
 20
318.983113527025
 30
0.0
 10
951.1949975920622
 20
318.4091606191824
 30
0.0
 10
951.1949975920622
 20
317.8345186922427
 30
0.0
 10
950.7292206824565
 20
317.368741782637
 30
0.0
 10
950.1552677746139
 20
317.368741782637
 30
0.0
 10
949.5806258476741
 20
317.368741782637
 30
0.0
 10
949.1148489380683
 20
317.8345186922427
 30
0.0
 10
949.1148489380683
 20
318.4091606191824
 30
0.0
 10
949.1148489380683
 20
318.983113527025
 30
0.0
 10
949.5806258476741
 20
319.4488904366308
 30
0.0
 10
950.1552677746139
 20
319.4488904366308
 30
0.0
  0
SPLINE
  5
4A
330
1F
100
AcDbEntity
  8
Layer 1
 62
     7
420
 16777215
370
     5
100
AcDbSpline
210
0.0
220
0.0
230
1.0
 70
    11
 71
     3
 72
    32
 73
    28
 74
     0
 42
0.0000000001
 43
0.0000000001
 40
0.0
 40
0.0
 40
0.0
 40
0.0
 40
1.0
 40
1.0
 40
1.0
 40
2.0
 40
2.0
 40
2.0
 40
3.0
 40
3.0
 40
3.0
 40
4.0
 40
4.0
 40
4.0
 40
5.0
 40
5.0
 40
5.0
 40
6.0
 40
6.0
 40
6.0
 40
7.0
 40
7.0
 40
7.0
 40
8.0
 40
8.0
 40
8.0
 40
9.0
 40
9.0
 40
9.0
 40
9.0
 10
946.1548228971418
 20
297.0488795915364
 30
0.0
 10
946.1548228971418
 20
297.0488795915364
 30
0.0
 10
952.5544322705418
 20
297.0488795915364
 30
0.0
 10
952.5544322705418
 20
297.0488795915364
 30
0.0
 10
953.0429468103503
 20
296.9579290707258
 30
0.0
 10
953.4246633901159
 20
296.5762124909601
 30
0.0
 10
953.5156139109265
 20
296.0890759893458
 30
0.0
 10
953.5156139109265
 20
296.0890759893458
 30
0.0
 10
954.9949379122928
 20
280.8886256893264
 30
0.0
 10
954.9949379122928
 20
280.8886256893264
 30
0.0
 10
954.9949379122928
 20
280.8886256893264
 30
0.0
 10
956.2744463755146
 20
280.8886256893264
 30
0.0
 10
956.2744463755146
 20
280.8886256893264
 30
0.0
 10
956.762960915323
 20
280.7976751685158
 30
0.0
 10
957.1446774950887
 20
280.4166476078472
 30
0.0
 10
957.2356280158994
 20
279.9288220871358
 30
0.0
 10
957.2356280158994
 20
279.9288220871358
 30
0.0
 10
957.2356280158994
 20
276.7290174004358
 30
0.0
 10
957.2356280158994
 20
276.7290174004358
 30
0.0
 10
957.1446774950887
 20
276.2411918797244
 30
0.0
 10
956.762960915323
 20
275.8594752999587
 30
0.0
 10
956.2744463755146
 20
275.7685247791481
 30
0.0
 10
956.2744463755146
 20
275.7685247791481
 30
0.0
 10
946.2747122200284
 20
275.7685247791481
 30
0.0
 10
946.2747122200284
 20
275.7685247791481
 30
0.0
 10
946.2747122200284
 20
275.7685247791481
 30
0.0
 10
946.1548228971418
 20
297.0488795915364
 30
0.0
 10
946.1548228971418
 20
297.0488795915364
 30
0.0
  0
SPLINE
  5
4B
330
1F
100
AcDbEntity
  8
Layer 1
 62
     7
420
 16777215
370
     5
100
AcDbSpline
210
0.0
220
0.0
230
1.0
 70
    11
 71
     3
 72
    17
 73
    13
 74
     0
 42
0.0000000001
 43
0.0000000001
 40
0.0
 40
0.0
 40
0.0
 40
0.0
 40
1.0
 40
1.0
 40
1.0
 40
2.0
 40
2.0
 40
2.0
 40
3.0
 40
3.0
 40
3.0
 40
4.0
 40
4.0
 40
4.0
 40
4.0
 10
950.1552677746139
 20
295.4489772481863
 30
0.0
 10
950.7292206824565
 20
295.4489772481863
 30
0.0
 10
951.1949975920622
 20
294.9832003385806
 30
0.0
 10
951.1949975920622
 20
294.4085584116409
 30
0.0
 10
951.1949975920622
 20
293.8346055037983
 30
0.0
 10
950.7292206824565
 20
293.3688285941925
 30
0.0
 10
950.1552677746139
 20
293.3688285941925
 30
0.0
 10
949.5806258476741
 20
293.3688285941925
 30
0.0
 10
949.1148489380683
 20
293.8346055037983
 30
0.0
 10
949.1148489380683
 20
294.4085584116409
 30
0.0
 10
949.1148489380683
 20
294.9832003385806
 30
0.0
 10
949.5806258476741
 20
295.4489772481863
 30
0.0
 10
950.1552677746139
 20
295.4489772481863
 30
0.0
  0
SPLINE
  5
4C
330
1F
100
AcDbEntity
  8
Layer 1
 62
     7
420
 16777215
370
     5
100
AcDbSpline
210
0.0
220
0.0
230
1.0
 70
    11
 71
     3
 72
    32
 73
    28
 74
     0
 42
0.0000000001
 43
0.0000000001
 40
0.0
 40
0.0
 40
0.0
 40
0.0
 40
1.0
 40
1.0
 40
1.0
 40
2.0
 40
2.0
 40
2.0
 40
3.0
 40
3.0
 40
3.0
 40
4.0
 40
4.0
 40
4.0
 40
5.0
 40
5.0
 40
5.0
 40
6.0
 40
6.0
 40
6.0
 40
7.0
 40
7.0
 40
7.0
 40
8.0
 40
8.0
 40
8.0
 40
9.0
 40
9.0
 40
9.0
 40
9.0
 10
924.6147078851657
 20
465.0493054392932
 30
0.0
 10
924.6147078851657
 20
465.0493054392932
 30
0.0
 10
931.0143172585657
 20
465.0493054392932
 30
0.0
 10
931.0143172585657
 20
465.0493054392932
 30
0.0
 10
931.5021427792772
 20
464.9583549184826
 30
0.0
 10
931.8838593590428
 20
464.5766383387169
 30
0.0
 10
931.9748098798534
 20
464.0895018371025
 30
0.0
 10
931.9748098798534
 20
464.0895018371025
 30
0.0
 10
933.4548229003168
 20
448.8890515370832
 30
0.0
 10
933.4548229003168
 20
448.8890515370832
 30
0.0
 10
933.4548229003168
 20
448.8890515370832
 30
0.0
 10
934.7343313635386
 20
448.8890515370832
 30
0.0
 10
934.7343313635386
 20
448.8890515370832
 30
0.0
 10
935.2221568842499
 20
448.7987900353697
 30
0.0
 10
935.6038734640156
 20
448.417073455604
 30
0.0
 10
935.6948239848261
 20
447.9292479348927
 30
0.0
 10
935.6948239848261
 20
447.9292479348927
 30
0.0
 10
935.6948239848261
 20
444.7294432481926
 30
0.0
 10
935.6948239848261
 20
444.7294432481926
 30
0.0
 10
935.6038734640156
 20
444.2416177274812
 30
0.0
 10
935.2221568842499
 20
443.8599011477155
 30
0.0
 10
934.7343313635386
 20
443.7692951364535
 30
0.0
 10
934.7343313635386
 20
443.7692951364535
 30
0.0
 10
924.7345972080524
 20
443.7692951364535
 30
0.0
 10
924.7345972080524
 20
443.7692951364535
 30
0.0
 10
924.7345972080524
 20
443.7692951364535
 30
0.0
 10
924.6147078851657
 20
465.0493054392932
 30
0.0
 10
924.6147078851657
 20
465.0493054392932
 30
0.0
  0
SPLINE
  5
4D
330
1F
100
AcDbEntity
  8
Layer 1
 62
     7
420
 16777215
370
     5
100
AcDbSpline
210
0.0
220
0.0
230
1.0
 70
    11
 71
     3
 72
    17
 73
    13
 74
     0
 42
0.0000000001
 43
0.0000000001
 40
0.0
 40
0.0
 40
0.0
 40
0.0
 40
1.0
 40
1.0
 40
1.0
 40
2.0
 40
2.0
 40
2.0
 40
3.0
 40
3.0
 40
3.0
 40
4.0
 40
4.0
 40
4.0
 40
4.0
 10
928.6144637435407
 20
463.4490585863946
 30
0.0
 10
929.1891056704804
 20
463.4490585863946
 30
0.0
 10
929.6541935609891
 20
462.9836261863374
 30
0.0
 10
929.6541935609891
 20
462.4089842593977
 30
0.0
 10
929.6541935609891
 20
461.8346868420065
 30
0.0
 10
929.1891056704804
 20
461.3692544419493
 30
0.0
 10
928.6144637435407
 20
461.3692544419493
 30
0.0
 10
928.039821816601
 20
461.3692544419493
 30
0.0
 10
927.5747339260923
 20
461.8346868420065
 30
0.0
 10
927.5747339260923
 20
462.4089842593977
 30
0.0
 10
927.5747339260923
 20
462.9836261863374
 30
0.0
 10
928.039821816601
 20
463.4490585863946
 30
0.0
 10
928.6144637435407
 20
463.4490585863946
 30
0.0
  0
SPLINE
  5
4E
330
1F
100
AcDbEntity
  8
Layer 1
 62
     7
420
 16777215
370
     5
100
AcDbSpline
210
0.0
220
0.0
230
1.0
 70
    11
 71
     3
 72
    32
 73
    28
 74
     0
 42
0.0000000001
 43
0.0000000001
 40
0.0
 40
0.0
 40
0.0
 40
0.0
 40
1.0
 40
1.0
 40
1.0
 40
2.0
 40
2.0
 40
2.0
 40
3.0
 40
3.0
 40
3.0
 40
4.0
 40
4.0
 40
4.0
 40
5.0
 40
5.0
 40
5.0
 40
6.0
 40
6.0
 40
6.0
 40
7.0
 40
7.0
 40
7.0
 40
8.0
 40
8.0
 40
8.0
 40
9.0
 40
9.0
 40
9.0
 40
9.0
 10
924.6147078851657
 20
441.0490477413002
 30
0.0
 10
924.6147078851657
 20
441.0490477413002
 30
0.0
 10
931.0143172585657
 20
441.0490477413002
 30
0.0
 10
931.0143172585657
 20
441.0490477413002
 30
0.0
 10
931.5021427792772
 20
440.9587862395866
 30
0.0
 10
931.8838593590428
 20
440.5770696598209
 30
0.0
 10
931.9748098798534
 20
440.0888996295611
 30
0.0
 10
931.9748098798534
 20
440.0888996295611
 30
0.0
 10
933.4548229003168
 20
424.8891383486388
 30
0.0
 10
933.4548229003168
 20
424.8891383486388
 30
0.0
 10
933.4548229003168
 20
424.8891383486388
 30
0.0
 10
934.7343313635386
 20
424.8891383486388
 30
0.0
 10
934.7343313635386
 20
424.8891383486388
 30
0.0
 10
935.2221568842499
 20
424.7981878278282
 30
0.0
 10
935.6038734640156
 20
424.4164712480625
 30
0.0
 10
935.6948239848261
 20
423.9293347464481
 30
0.0
 10
935.6948239848261
 20
423.9293347464481
 30
0.0
 10
935.6948239848261
 20
420.728841040651
 30
0.0
 10
935.6948239848261
 20
420.728841040651
 30
0.0
 10
935.6038734640156
 20
420.2417045390367
 30
0.0
 10
935.2221568842499
 20
419.8599879592711
 30
0.0
 10
934.7343313635386
 20
419.7690374384605
 30
0.0
 10
934.7343313635386
 20
419.7690374384605
 30
0.0
 10
924.7345972080524
 20
419.7690374384605
 30
0.0
 10
924.7345972080524
 20
419.7690374384605
 30
0.0
 10
924.7345972080524
 20
419.7690374384605
 30
0.0
 10
924.6147078851657
 20
441.0490477413002
 30
0.0
 10
924.6147078851657
 20
441.0490477413002
 30
0.0
  0
SPLINE
  5
4F
330
1F
100
AcDbEntity
  8
Layer 1
 62
     7
420
 16777215
370
     5
100
AcDbSpline
210
0.0
220
0.0
230
1.0
 70
    11
 71
     3
 72
    17
 73
    13
 74
     0
 42
0.0000000001
 43
0.0000000001
 40
0.0
 40
0.0
 40
0.0
 40
0.0
 40
1.0
 40
1.0
 40
1.0
 40
2.0
 40
2.0
 40
2.0
 40
3.0
 40
3.0
 40
3.0
 40
4.0
 40
4.0
 40
4.0
 40
4.0
 10
928.6144637435407
 20
439.4494899074987
 30
0.0
 10
929.1891056704804
 20
439.4494899074987
 30
0.0
 10
929.6541935609891
 20
438.9837129978929
 30
0.0
 10
929.6541935609891
 20
438.4097600900503
 30
0.0
 10
929.6541935609891
 20
437.8351181631106
 30
0.0
 10
929.1891056704804
 20
437.3693412535048
 30
0.0
 10
928.6144637435407
 20
437.3693412535048
 30
0.0
 10
928.039821816601
 20
437.3693412535048
 30
0.0
 10
927.5747339260923
 20
437.8351181631106
 30
0.0
 10
927.5747339260923
 20
438.4097600900503
 30
0.0
 10
927.5747339260923
 20
438.9837129978929
 30
0.0
 10
928.039821816601
 20
439.4494899074987
 30
0.0
 10
928.6144637435407
 20
439.4494899074987
 30
0.0
  0
SPLINE
  5
50
330
1F
100
AcDbEntity
  8
Layer 1
 62
     7
420
 16777215
370
     5
100
AcDbSpline
210
0.0
220
0.0
230
1.0
 70
    11
 71
     3
 72
    32
 73
    28
 74
     0
 42
0.0000000001
 43
0.0000000001
 40
0.0
 40
0.0
 40
0.0
 40
0.0
 40
1.0
 40
1.0
 40
1.0
 40
2.0
 40
2.0
 40
2.0
 40
3.0
 40
3.0
 40
3.0
 40
4.0
 40
4.0
 40
4.0
 40
5.0
 40
5.0
 40
5.0
 40
6.0
 40
6.0
 40
6.0
 40
7.0
 40
7.0
 40
7.0
 40
8.0
 40
8.0
 40
8.0
 40
9.0
 40
9.0
 40
9.0
 40
9.0
 10
924.6147078851657
 20
417.0494790624043
 30
0.0
 10
924.6147078851657
 20
417.0494790624043
 30
0.0
 10
931.0143172585657
 20
417.0494790624043
 30
0.0
 10
931.0143172585657
 20
417.0494790624043
 30
0.0
 10
931.5021427792772
 20
416.9581840320452
 30
0.0
 10
931.8838593590428
 20
416.577500980925
 30
0.0
 10
931.9748098798534
 20
416.0893309506651
 30
0.0
 10
931.9748098798534
 20
416.0893309506651
 30
0.0
 10
933.4548229003168
 20
400.8895696697429
 30
0.0
 10
933.4548229003168
 20
400.8895696697429
 30
0.0
 10
933.4548229003168
 20
400.8895696697429
 30
0.0
 10
934.7343313635386
 20
400.8895696697429
 30
0.0
 10
934.7343313635386
 20
400.8895696697429
 30
0.0
 10
935.2221568842499
 20
400.7982746393837
 30
0.0
 10
935.6038734640156
 20
400.416558059618
 30
0.0
 10
935.6948239848261
 20
399.9294215580037
 30
0.0
 10
935.6948239848261
 20
399.9294215580037
 30
0.0
 10
935.6948239848261
 20
396.7292723617551
 30
0.0
 10
935.6948239848261
 20
396.7292723617551
 30
0.0
 10
935.6038734640156
 20
396.2417913505923
 30
0.0
 10
935.2221568842499
 20
395.8600747708266
 30
0.0
 10
934.7343313635386
 20
395.769124250016
 30
0.0
 10
934.7343313635386
 20
395.769124250016
 30
0.0
 10
924.7345972080524
 20
395.769124250016
 30
0.0
 10
924.7345972080524
 20
395.769124250016
 30
0.0
 10
924.7345972080524
 20
395.769124250016
 30
0.0
 10
924.6147078851657
 20
417.0494790624043
 30
0.0
 10
924.6147078851657
 20
417.0494790624043
 30
0.0
  0
SPLINE
  5
51
330
1F
100
AcDbEntity
  8
Layer 1
 62
     7
420
 16777215
370
     5
100
AcDbSpline
210
0.0
220
0.0
230
1.0
 70
    11
 71
     3
 72
    17
 73
    13
 74
     0
 42
0.0000000001
 43
0.0000000001
 40
0.0
 40
0.0
 40
0.0
 40
0.0
 40
1.0
 40
1.0
 40
1.0
 40
2.0
 40
2.0
 40
2.0
 40
3.0
 40
3.0
 40
3.0
 40
4.0
 40
4.0
 40
4.0
 40
4.0
 10
928.6144637435407
 20
415.4495767190542
 30
0.0
 10
929.1891056704804
 20
415.4495767190542
 30
0.0
 10
929.6541935609891
 20
414.9837998094484
 30
0.0
 10
929.6541935609891
 20
414.4091578825088
 30
0.0
 10
929.6541935609891
 20
413.8352049746662
 30
0.0
 10
929.1891056704804
 20
413.3694280650604
 30
0.0
 10
928.6144637435407
 20
413.3694280650604
 30
0.0
 10
928.039821816601
 20
413.3694280650604
 30
0.0
 10
927.5747339260923
 20
413.8352049746662
 30
0.0
 10
927.5747339260923
 20
414.4091578825088
 30
0.0
 10
927.5747339260923
 20
414.9837998094484
 30
0.0
 10
928.039821816601
 20
415.4495767190542
 30
0.0
 10
928.6144637435407
 20
415.4495767190542
 30
0.0
  0
SPLINE
  5
52
330
1F
100
AcDbEntity
  8
Layer 1
 62
     7
420
 16777215
370
     5
100
AcDbSpline
210
0.0
220
0.0
230
1.0
 70
    11
 71
     3
 72
    32
 73
    28
 74
     0
 42
0.0000000001
 43
0.0000000001
 40
0.0
 40
0.0
 40
0.0
 40
0.0
 40
1.0
 40
1.0
 40
1.0
 40
2.0
 40
2.0
 40
2.0
 40
3.0
 40
3.0
 40
3.0
 40
4.0
 40
4.0
 40
4.0
 40
5.0
 40
5.0
 40
5.0
 40
6.0
 40
6.0
 40
6.0
 40
7.0
 40
7.0
 40
7.0
 40
8.0
 40
8.0
 40
8.0
 40
9.0
 40
9.0
 40
9.0
 40
9.0
 10
924.6147078851657
 20
393.0488768548627
 30
0.0
 10
924.6147078851657
 20
393.0488768548627
 30
0.0
 10
931.0143172585657
 20
393.0488768548627
 30
0.0
 10
931.0143172585657
 20
393.0488768548627
 30
0.0
 10
931.5021427792772
 20
392.9579263340522
 30
0.0
 10
931.8838593590428
 20
392.5768987733835
 30
0.0
 10
931.9748098798534
 20
392.0890732526721
 30
0.0
 10
931.9748098798534
 20
392.0890732526721
 30
0.0
 10
933.4548229003168
 20
376.8893119717499
 30
0.0
 10
933.4548229003168
 20
376.8893119717499
 30
0.0
 10
933.4548229003168
 20
376.8893119717499
 30
0.0
 10
934.7343313635386
 20
376.8893119717499
 30
0.0
 10
934.7343313635386
 20
376.8893119717499
 30
0.0
 10
935.2221568842499
 20
376.7983614509392
 30
0.0
 10
935.6038734640156
 20
376.4166448711736
 30
0.0
 10
935.6948239848261
 20
375.9288193504622
 30
0.0
 10
935.6948239848261
 20
375.9288193504622
 30
0.0
 10
935.6948239848261
 20
372.7290146637621
 30
0.0
 10
935.6948239848261
 20
372.7290146637621
 30
0.0
 10
935.6038734640156
 20
372.2411891430507
 30
0.0
 10
935.2221568842499
 20
371.8601615823821
 30
0.0
 10
934.7343313635386
 20
371.7692110615715
 30
0.0
 10
934.7343313635386
 20
371.7692110615715
 30
0.0
 10
924.7345972080524
 20
371.7692110615715
 30
0.0
 10
924.7345972080524
 20
371.7692110615715
 30
0.0
 10
924.7345972080524
 20
371.7692110615715
 30
0.0
 10
924.6147078851657
 20
393.0488768548627
 30
0.0
 10
924.6147078851657
 20
393.0488768548627
 30
0.0
  0
SPLINE
  5
53
330
1F
100
AcDbEntity
  8
Layer 1
 62
     7
420
 16777215
370
     5
100
AcDbSpline
210
0.0
220
0.0
230
1.0
 70
    11
 71
     3
 72
    17
 73
    13
 74
     0
 42
0.0000000001
 43
0.0000000001
 40
0.0
 40
0.0
 40
0.0
 40
0.0
 40
1.0
 40
1.0
 40
1.0
 40
2.0
 40
2.0
 40
2.0
 40
3.0
 40
3.0
 40
3.0
 40
4.0
 40
4.0
 40
4.0
 40
4.0
 10
928.6144637435407
 20
391.4496635306098
 30
0.0
 10
929.1891056704804
 20
391.4496635306098
 30
0.0
 10
929.6541935609891
 20
390.983886621004
 30
0.0
 10
929.6541935609891
 20
390.4095892036128
 30
0.0
 10
929.6541935609891
 20
389.8352917862217
 30
0.0
 10
929.1891056704804
 20
389.3695148766159
 30
0.0
 10
928.6144637435407
 20
389.3695148766159
 30
0.0
 10
928.039821816601
 20
389.3695148766159
 30
0.0
 10
927.5747339260923
 20
389.8352917862217
 30
0.0
 10
927.5747339260923
 20
390.4095892036128
 30
0.0
 10
927.5747339260923
 20
390.983886621004
 30
0.0
 10
928.039821816601
 20
391.4496635306098
 30
0.0
 10
928.6144637435407
 20
391.4496635306098
 30
0.0
  0
SPLINE
  5
54
330
1F
100
AcDbEntity
  8
Layer 1
 62
     7
420
 16777215
370
     5
100
AcDbSpline
210
0.0
220
0.0
230
1.0
 70
    11
 71
     3
 72
    32
 73
    28
 74
     0
 42
0.0000000001
 43
0.0000000001
 40
0.0
 40
0.0
 40
0.0
 40
0.0
 40
1.0
 40
1.0
 40
1.0
 40
2.0
 40
2.0
 40
2.0
 40
3.0
 40
3.0
 40
3.0
 40
4.0
 40
4.0
 40
4.0
 40
5.0
 40
5.0
 40
5.0
 40
6.0
 40
6.0
 40
6.0
 40
7.0
 40
7.0
 40
7.0
 40
8.0
 40
8.0
 40
8.0
 40
9.0
 40
9.0
 40
9.0
 40
9.0
 10
924.6147078851657
 20
369.0489636664183
 30
0.0
 10
924.6147078851657
 20
369.0489636664183
 30
0.0
 10
931.0143172585657
 20
369.0489636664183
 30
0.0
 10
931.0143172585657
 20
369.0489636664183
 30
0.0
 10
931.5021427792772
 20
368.9580131456077
 30
0.0
 10
931.8838593590428
 20
368.5769855849391
 30
0.0
 10
931.9748098798534
 20
368.0891600642277
 30
0.0
 10
931.9748098798534
 20
368.0891600642277
 30
0.0
 10
933.4548229003168
 20
352.8893987833054
 30
0.0
 10
933.4548229003168
 20
352.8893987833054
 30
0.0
 10
933.4548229003168
 20
352.8893987833054
 30
0.0
 10
934.7343313635386
 20
352.8893987833054
 30
0.0
 10
934.7343313635386
 20
352.8893987833054
 30
0.0
 10
935.2221568842499
 20
352.7984482624948
 30
0.0
 10
935.6038734640156
 20
352.4167316827291
 30
0.0
 10
935.6948239848261
 20
351.9289061620177
 30
0.0
 10
935.6948239848261
 20
351.9289061620177
 30
0.0
 10
935.6948239848261
 20
348.7291014753177
 30
0.0
 10
935.6948239848261
 20
348.7291014753177
 30
0.0
 10
935.6038734640156
 20
348.2412759546063
 30
0.0
 10
935.2221568842499
 20
347.8602483939377
 30
0.0
 10
934.7343313635386
 20
347.7692978731271
 30
0.0
 10
934.7343313635386
 20
347.7692978731271
 30
0.0
 10
924.7345972080524
 20
347.7692978731271
 30
0.0
 10
924.7345972080524
 20
347.7692978731271
 30
0.0
 10
924.7345972080524
 20
347.7692978731271
 30
0.0
 10
924.6147078851657
 20
369.0489636664183
 30
0.0
 10
924.6147078851657
 20
369.0489636664183
 30
0.0
  0
SPLINE
  5
55
330
1F
100
AcDbEntity
  8
Layer 1
 62
     7
420
 16777215
370
     5
100
AcDbSpline
210
0.0
220
0.0
230
1.0
 70
    11
 71
     3
 72
    17
 73
    13
 74
     0
 42
0.0000000001
 43
0.0000000001
 40
0.0
 40
0.0
 40
0.0
 40
0.0
 40
1.0
 40
1.0
 40
1.0
 40
2.0
 40
2.0
 40
2.0
 40
3.0
 40
3.0
 40
3.0
 40
4.0
 40
4.0
 40
4.0
 40
4.0
 10
928.6144637435407
 20
367.4490613230682
 30
0.0
 10
929.1891056704804
 20
367.4490613230682
 30
0.0
 10
929.6541935609891
 20
366.9832844134625
 30
0.0
 10
929.6541935609891
 20
366.4093315056198
 30
0.0
 10
929.6541935609891
 20
365.8346895786802
 30
0.0
 10
929.1891056704804
 20
365.3689126690744
 30
0.0
 10
928.6144637435407
 20
365.3689126690744
 30
0.0
 10
928.039821816601
 20
365.3689126690744
 30
0.0
 10
927.5747339260923
 20
365.8346895786802
 30
0.0
 10
927.5747339260923
 20
366.4093315056198
 30
0.0
 10
927.5747339260923
 20
366.9832844134625
 30
0.0
 10
928.039821816601
 20
367.4490613230682
 30
0.0
 10
928.6144637435407
 20
367.4490613230682
 30
0.0
  0
SPLINE
  5
56
330
1F
100
AcDbEntity
  8
Layer 1
 62
     7
420
 16777215
370
     5
100
AcDbSpline
210
0.0
220
0.0
230
1.0
 70
    11
 71
     3
 72
    32
 73
    28
 74
     0
 42
0.0000000001
 43
0.0000000001
 40
0.0
 40
0.0
 40
0.0
 40
0.0
 40
1.0
 40
1.0
 40
1.0
 40
2.0
 40
2.0
 40
2.0
 40
3.0
 40
3.0
 40
3.0
 40
4.0
 40
4.0
 40
4.0
 40
5.0
 40
5.0
 40
5.0
 40
6.0
 40
6.0
 40
6.0
 40
7.0
 40
7.0
 40
7.0
 40
8.0
 40
8.0
 40
8.0
 40
9.0
 40
9.0
 40
9.0
 40
9.0
 10
924.6147078851657
 20
345.0497394970708
 30
0.0
 10
924.6147078851657
 20
345.0497394970708
 30
0.0
 10
931.0143172585657
 20
345.0497394970708
 30
0.0
 10
931.0143172585657
 20
345.0497394970708
 30
0.0
 10
931.5021427792772
 20
344.9580999571632
 30
0.0
 10
931.8838593590428
 20
344.5763833773975
 30
0.0
 10
931.9748098798534
 20
344.0892468757832
 30
0.0
 10
931.9748098798534
 20
344.0892468757832
 30
0.0
 10
933.4548229003168
 20
328.8887965757639
 30
0.0
 10
933.4548229003168
 20
328.8887965757639
 30
0.0
 10
933.4548229003168
 20
328.8887965757639
 30
0.0
 10
934.7343313635386
 20
328.8887965757639
 30
0.0
 10
934.7343313635386
 20
328.8887965757639
 30
0.0
 10
935.2221568842499
 20
328.7985350740503
 30
0.0
 10
935.6038734640156
 20
328.4168184942847
 30
0.0
 10
935.6948239848261
 20
327.9289929735733
 30
0.0
 10
935.6948239848261
 20
327.9289929735733
 30
0.0
 10
935.6948239848261
 20
324.7291882868732
 30
0.0
 10
935.6948239848261
 20
324.7291882868732
 30
0.0
 10
935.6038734640156
 20
324.2413627661618
 30
0.0
 10
935.2221568842499
 20
323.8603352054932
 30
0.0
 10
934.7343313635386
 20
323.7693846846826
 30
0.0
 10
934.7343313635386
 20
323.7693846846826
 30
0.0
 10
924.7345972080524
 20
323.7693846846826
 30
0.0
 10
924.7345972080524
 20
323.7693846846826
 30
0.0
 10
924.7345972080524
 20
323.7693846846826
 30
0.0
 10
924.6147078851657
 20
345.0497394970708
 30
0.0
 10
924.6147078851657
 20
345.0497394970708
 30
0.0
  0
SPLINE
  5
57
330
1F
100
AcDbEntity
  8
Layer 1
 62
     7
420
 16777215
370
     5
100
AcDbSpline
210
0.0
220
0.0
230
1.0
 70
    11
 71
     3
 72
    17
 73
    13
 74
     0
 42
0.0000000001
 43
0.0000000001
 40
0.0
 40
0.0
 40
0.0
 40
0.0
 40
1.0
 40
1.0
 40
1.0
 40
2.0
 40
2.0
 40
2.0
 40
3.0
 40
3.0
 40
3.0
 40
4.0
 40
4.0
 40
4.0
 40
4.0
 10
928.6144637435407
 20
343.4491481346238
 30
0.0
 10
929.1891056704804
 20
343.4491481346238
 30
0.0
 10
929.6541935609891
 20
342.983371225018
 30
0.0
 10
929.6541935609891
 20
342.4094183171754
 30
0.0
 10
929.6541935609891
 20
341.8347763902357
 30
0.0
 10
929.1891056704804
 20
341.36899948063
 30
0.0
 10
928.6144637435407
 20
341.36899948063
 30
0.0
 10
928.039821816601
 20
341.36899948063
 30
0.0
 10
927.5747339260923
 20
341.8347763902357
 30
0.0
 10
927.5747339260923
 20
342.4094183171754
 30
0.0
 10
927.5747339260923
 20
342.983371225018
 30
0.0
 10
928.039821816601
 20
343.4491481346238
 30
0.0
 10
928.6144637435407
 20
343.4491481346238
 30
0.0
  0
SPLINE
  5
58
330
1F
100
AcDbEntity
  8
Layer 1
 62
     7
420
 16777215
370
     5
100
AcDbSpline
210
0.0
220
0.0
230
1.0
 70
    11
 71
     3
 72
    32
 73
    28
 74
     0
 42
0.0000000001
 43
0.0000000001
 40
0.0
 40
0.0
 40
0.0
 40
0.0
 40
1.0
 40
1.0
 40
1.0
 40
2.0
 40
2.0
 40
2.0
 40
3.0
 40
3.0
 40
3.0
 40
4.0
 40
4.0
 40
4.0
 40
5.0
 40
5.0
 40
5.0
 40
6.0
 40
6.0
 40
6.0
 40
7.0
 40
7.0
 40
7.0
 40
8.0
 40
8.0
 40
8.0
 40
9.0
 40
9.0
 40
9.0
 40
9.0
 10
924.6147078851657
 20
321.0494817990779
 30
0.0
 10
924.6147078851657
 20
321.0494817990779
 30
0.0
 10
931.0143172585657
 20
321.0494817990779
 30
0.0
 10
931.0143172585657
 20
321.0494817990779
 30
0.0
 10
931.5021427792772
 20
320.9585312782673
 30
0.0
 10
931.8838593590428
 20
320.5768146985016
 30
0.0
 10
931.9748098798534
 20
320.0896781968873
 30
0.0
 10
931.9748098798534
 20
320.0896781968873
 30
0.0
 10
933.4548229003168
 20
304.889227896868
 30
0.0
 10
933.4548229003168
 20
304.889227896868
 30
0.0
 10
933.4548229003168
 20
304.889227896868
 30
0.0
 10
934.7343313635386
 20
304.889227896868
 30
0.0
 10
934.7343313635386
 20
304.889227896868
 30
0.0
 10
935.2221568842499
 20
304.7982773760573
 30
0.0
 10
935.6038734640156
 20
304.4165607962917
 30
0.0
 10
935.6948239848261
 20
303.9287352755803
 30
0.0
 10
935.6948239848261
 20
303.9287352755803
 30
0.0
 10
935.6948239848261
 20
300.7289305888802
 30
0.0
 10
935.6948239848261
 20
300.7289305888802
 30
0.0
 10
935.6038734640156
 20
300.2411050681688
 30
0.0
 10
935.2221568842499
 20
299.8600775075003
 30
0.0
 10
934.7343313635386
 20
299.7691269866896
 30
0.0
 10
934.7343313635386
 20
299.7691269866896
 30
0.0
 10
924.7345972080524
 20
299.7691269866896
 30
0.0
 10
924.7345972080524
 20
299.7691269866896
 30
0.0
 10
924.7345972080524
 20
299.7691269866896
 30
0.0
 10
924.6147078851657
 20
321.0494817990779
 30
0.0
 10
924.6147078851657
 20
321.0494817990779
 30
0.0
  0
SPLINE
  5
59
330
1F
100
AcDbEntity
  8
Layer 1
 62
     7
420
 16777215
370
     5
100
AcDbSpline
210
0.0
220
0.0
230
1.0
 70
    11
 71
     3
 72
    17
 73
    13
 74
     0
 42
0.0000000001
 43
0.0000000001
 40
0.0
 40
0.0
 40
0.0
 40
0.0
 40
1.0
 40
1.0
 40
1.0
 40
2.0
 40
2.0
 40
2.0
 40
3.0
 40
3.0
 40
3.0
 40
4.0
 40
4.0
 40
4.0
 40
4.0
 10
928.6144637435407
 20
319.4488904366308
 30
0.0
 10
929.1891056704804
 20
319.4488904366308
 30
0.0
 10
929.6541935609891
 20
318.983113527025
 30
0.0
 10
929.6541935609891
 20
318.4091606191824
 30
0.0
 10
929.6541935609891
 20
317.8345186922427
 30
0.0
 10
929.1891056704804
 20
317.368741782637
 30
0.0
 10
928.6144637435407
 20
317.368741782637
 30
0.0
 10
928.039821816601
 20
317.368741782637
 30
0.0
 10
927.5747339260923
 20
317.8345186922427
 30
0.0
 10
927.5747339260923
 20
318.4091606191824
 30
0.0
 10
927.5747339260923
 20
318.983113527025
 30
0.0
 10
928.039821816601
 20
319.4488904366308
 30
0.0
 10
928.6144637435407
 20
319.4488904366308
 30
0.0
  0
SPLINE
  5
5A
330
1F
100
AcDbEntity
  8
Layer 1
 62
     7
420
 16777215
370
     5
100
AcDbSpline
210
0.0
220
0.0
230
1.0
 70
    11
 71
     3
 72
    32
 73
    28
 74
     0
 42
0.0000000001
 43
0.0000000001
 40
0.0
 40
0.0
 40
0.0
 40
0.0
 40
1.0
 40
1.0
 40
1.0
 40
2.0
 40
2.0
 40
2.0
 40
3.0
 40
3.0
 40
3.0
 40
4.0
 40
4.0
 40
4.0
 40
5.0
 40
5.0
 40
5.0
 40
6.0
 40
6.0
 40
6.0
 40
7.0
 40
7.0
 40
7.0
 40
8.0
 40
8.0
 40
8.0
 40
9.0
 40
9.0
 40
9.0
 40
9.0
 10
924.6147078851657
 20
297.0488795915364
 30
0.0
 10
924.6147078851657
 20
297.0488795915364
 30
0.0
 10
931.0143172585657
 20
297.0488795915364
 30
0.0
 10
931.0143172585657
 20
297.0488795915364
 30
0.0
 10
931.5021427792772
 20
296.9579290707258
 30
0.0
 10
931.8838593590428
 20
296.5762124909601
 30
0.0
 10
931.9748098798534
 20
296.0890759893458
 30
0.0
 10
931.9748098798534
 20
296.0890759893458
 30
0.0
 10
933.4548229003168
 20
280.8886256893264
 30
0.0
 10
933.4548229003168
 20
280.8886256893264
 30
0.0
 10
933.4548229003168
 20
280.8886256893264
 30
0.0
 10
934.7343313635386
 20
280.8886256893264
 30
0.0
 10
934.7343313635386
 20
280.8886256893264
 30
0.0
 10
935.2221568842499
 20
280.7976751685158
 30
0.0
 10
935.6038734640156
 20
280.4166476078472
 30
0.0
 10
935.6948239848261
 20
279.9288220871358
 30
0.0
 10
935.6948239848261
 20
279.9288220871358
 30
0.0
 10
935.6948239848261
 20
276.7290174004358
 30
0.0
 10
935.6948239848261
 20
276.7290174004358
 30
0.0
 10
935.6038734640156
 20
276.2411918797244
 30
0.0
 10
935.2221568842499
 20
275.8594752999587
 30
0.0
 10
934.7343313635386
 20
275.7685247791481
 30
0.0
 10
934.7343313635386
 20
275.7685247791481
 30
0.0
 10
924.7345972080524
 20
275.7685247791481
 30
0.0
 10
924.7345972080524
 20
275.7685247791481
 30
0.0
 10
924.7345972080524
 20
275.7685247791481
 30
0.0
 10
924.6147078851657
 20
297.0488795915364
 30
0.0
 10
924.6147078851657
 20
297.0488795915364
 30
0.0
  0
SPLINE
  5
5B
330
1F
100
AcDbEntity
  8
Layer 1
 62
     7
420
 16777215
370
     5
100
AcDbSpline
210
0.0
220
0.0
230
1.0
 70
    11
 71
     3
 72
    17
 73
    13
 74
     0
 42
0.0000000001
 43
0.0000000001
 40
0.0
 40
0.0
 40
0.0
 40
0.0
 40
1.0
 40
1.0
 40
1.0
 40
2.0
 40
2.0
 40
2.0
 40
3.0
 40
3.0
 40
3.0
 40
4.0
 40
4.0
 40
4.0
 40
4.0
 10
928.6144637435407
 20
295.4489772481863
 30
0.0
 10
929.1891056704804
 20
295.4489772481863
 30
0.0
 10
929.6541935609891
 20
294.9832003385806
 30
0.0
 10
929.6541935609891
 20
294.4085584116409
 30
0.0
 10
929.6541935609891
 20
293.8346055037983
 30
0.0
 10
929.1891056704804
 20
293.3688285941925
 30
0.0
 10
928.6144637435407
 20
293.3688285941925
 30
0.0
 10
928.039821816601
 20
293.3688285941925
 30
0.0
 10
927.5747339260923
 20
293.8346055037983
 30
0.0
 10
927.5747339260923
 20
294.4085584116409
 30
0.0
 10
927.5747339260923
 20
294.9832003385806
 30
0.0
 10
928.039821816601
 20
295.4489772481863
 30
0.0
 10
928.6144637435407
 20
295.4489772481863
 30
0.0
  0
SPLINE
  5
5C
330
1F
100
AcDbEntity
  8
Layer 1
 62
     7
420
 16777215
370
     5
100
AcDbSpline
210
0.0
220
0.0
230
1.0
 70
    11
 71
     3
 72
   113
 73
   109
 74
     0
 42
0.0000000001
 43
0.0000000001
 40
0.0
 40
0.0
 40
0.0
 40
0.0
 40
1.0
 40
1.0
 40
1.0
 40
2.0
 40
2.0
 40
2.0
 40
3.0
 40
3.0
 40
3.0
 40
4.0
 40
4.0
 40
4.0
 40
5.0
 40
5.0
 40
5.0
 40
6.0
 40
6.0
 40
6.0
 40
7.0
 40
7.0
 40
7.0
 40
8.0
 40
8.0
 40
8.0
 40
9.0
 40
9.0
 40
9.0
 40
10.0
 40
10.0
 40
10.0
 40
11.0
 40
11.0
 40
11.0
 40
12.0
 40
12.0
 40
12.0
 40
13.0
 40
13.0
 40
13.0
 40
14.0
 40
14.0
 40
14.0
 40
15.0
 40
15.0
 40
15.0
 40
16.0
 40
16.0
 40
16.0
 40
17.0
 40
17.0
 40
17.0
 40
18.0
 40
18.0
 40
18.0
 40
19.0
 40
19.0
 40
19.0
 40
20.0
 40
20.0
 40
20.0
 40
21.0
 40
21.0
 40
21.0
 40
22.0
 40
22.0
 40
22.0
 40
23.0
 40
23.0
 40
23.0
 40
24.0
 40
24.0
 40
24.0
 40
25.0
 40
25.0
 40
25.0
 40
26.0
 40
26.0
 40
26.0
 40
27.0
 40
27.0
 40
27.0
 40
28.0
 40
28.0
 40
28.0
 40
29.0
 40
29.0
 40
29.0
 40
30.0
 40
30.0
 40
30.0
 40
31.0
 40
31.0
 40
31.0
 40
32.0
 40
32.0
 40
32.0
 40
33.0
 40
33.0
 40
33.0
 40
34.0
 40
34.0
 40
34.0
 40
35.0
 40
35.0
 40
35.0
 40
36.0
 40
36.0
 40
36.0
 40
36.0
 10
1100.162304412459
 20
267.5013291431941
 30
0.0
 10
1100.162304412459
 20
267.5013291431941
 30
0.0
 10
1106.16228270957
 20
267.5013291431941
 30
0.0
 10
1106.16228270957
 20
267.5013291431941
 30
0.0
 10
1106.16228270957
 20
267.5013291431941
 30
0.0
 10
1106.16228270957
 20
352.5014810316662
 30
0.0
 10
1106.16228270957
 20
352.5014810316662
 30
0.0
 10
1106.16228270957
 20
352.5014810316662
 30
0.0
 10
1110.162038567946
 20
352.5014810316662
 30
0.0
 10
1110.162038567946
 20
352.5014810316662
 30
0.0
 10
1110.162038567946
 20
352.5014810316662
 30
0.0
 10
1110.162038567946
 20
267.5013291431941
 30
0.0
 10
1110.162038567946
 20
267.5013291431941
 30
0.0
 10
1110.162038567946
 20
267.5013291431941
 30
0.0
 10
1126.161751020543
 20
267.5013291431941
 30
0.0
 10
1126.161751020543
 20
267.5013291431941
 30
0.0
 10
1126.161751020543
 20
267.5013291431941
 30
0.0
 10
1126.161751020543
 20
256.7012993064844
 30
0.0
 10
1126.161751020543
 20
256.7012993064844
 30
0.0
 10
1126.161751020543
 20
253.3874619592225
 30
0.0
 10
1128.847891970392
 20
250.7013210093733
 30
0.0
 10
1132.162073827202
 20
250.7013210093733
 30
0.0
 10
1135.475911174464
 20
250.7013210093733
 30
0.0
 10
1138.162052124314
 20
253.3874619592225
 30
0.0
 10
1138.162052124314
 20
256.7012993064844
 30
0.0
 10
1138.162052124314
 20
256.7012993064844
 30
0.0
 10
1138.162052124314
 20
267.5013291431941
 30
0.0
 10
1138.162052124314
 20
267.5013291431941
 30
0.0
 10
1138.162052124314
 20
267.5013291431941
 30
0.0
 10
1182.161778133279
 20
267.5013291431941
 30
0.0
 10
1182.161778133279
 20
267.5013291431941
 30
0.0
 10
1182.161778133279
 20
267.5013291431941
 30
0.0
 10
1182.161778133279
 20
256.7012993064844
 30
0.0
 10
1182.161778133279
 20
256.7012993064844
 30
0.0
 10
1182.161778133279
 20
253.3874619592225
 30
0.0
 10
1184.848263592677
 20
250.7013210093733
 30
0.0
 10
1188.162445449487
 20
250.7013210093733
 30
0.0
 10
1191.476282796749
 20
250.7013210093733
 30
0.0
 10
1194.162423746598
 20
253.3874619592225
 30
0.0
 10
1194.162423746598
 20
256.7012993064844
 30
0.0
 10
1194.162423746598
 20
256.7012993064844
 30
0.0
 10
1194.162423746598
 20
267.5013291431941
 30
0.0
 10
1194.162423746598
 20
267.5013291431941
 30
0.0
 10
1194.162423746598
 20
267.5013291431941
 30
0.0
 10
1210.162136199195
 20
267.5013291431941
 30
0.0
 10
1210.162136199195
 20
267.5013291431941
 30
0.0
 10
1210.162136199195
 20
267.5013291431941
 30
0.0
 10
1210.162136199195
 20
352.5014810316662
 30
0.0
 10
1210.162136199195
 20
352.5014810316662
 30
0.0
 10
1210.162136199195
 20
352.5014810316662
 30
0.0
 10
1214.16189205757
 20
352.5014810316662
 30
0.0
 10
1214.16189205757
 20
352.5014810316662
 30
0.0
 10
1214.16189205757
 20
352.5014810316662
 30
0.0
 10
1214.16189205757
 20
267.5013291431941
 30
0.0
 10
1214.16189205757
 20
267.5013291431941
 30
0.0
 10
1214.16189205757
 20
267.5013291431941
 30
0.0
 10
1220.161870354682
 20
267.5013291431941
 30
0.0
 10
1220.161870354682
 20
267.5013291431941
 30
0.0
 10
1220.161870354682
 20
267.5013291431941
 30
0.0
 10
1220.161870354682
 20
437.5016329201384
 30
0.0
 10
1220.161870354682
 20
437.5016329201384
 30
0.0
 10
1220.161870354682
 20
437.5016329201384
 30
0.0
 10
1214.16189205757
 20
437.5016329201384
 30
0.0
 10
1214.16189205757
 20
437.5016329201384
 30
0.0
 10
1214.16189205757
 20
437.5016329201384
 30
0.0
 10
1210.161791689647
 20
437.5016329201384
 30
0.0
 10
1210.161791689647
 20
437.5016329201384
 30
0.0
 10
1210.161791689647
 20
437.5016329201384
 30
0.0
 10
1194.16207923705
 20
437.5016329201384
 30
0.0
 10
1194.16207923705
 20
437.5016329201384
 30
0.0
 10
1194.16207923705
 20
437.5016329201384
 30
0.0
 10
1194.16207923705
 20
448.3013182472996
 30
0.0
 10
1194.16207923705
 20
448.3013182472996
 30
0.0
 10
1194.16207923705
 20
451.61550010411
 30
0.0
 10
1191.4759382872
 20
454.3012965444107
 30
0.0
 10
1188.16175643039
 20
454.3012965444107
 30
0.0
 10
1184.847919083128
 20
454.3012965444107
 30
0.0
 10
1182.16143362373
 20
451.61550010411
 30
0.0
 10
1182.16143362373
 20
448.3013182472996
 30
0.0
 10
1182.16143362373
 20
448.3013182472996
 30
0.0
 10
1182.16143362373
 20
437.5016329201384
 30
0.0
 10
1182.16143362373
 20
437.5016329201384
 30
0.0
 10
1182.16143362373
 20
437.5016329201384
 30
0.0
 10
1138.162052124314
 20
437.5016329201384
 30
0.0
 10
1138.162052124314
 20
437.5016329201384
 30
0.0
 10
1138.162052124314
 20
437.5016329201384
 30
0.0
 10
1138.162052124314
 20
448.3013182472996
 30
0.0
 10
1138.162052124314
 20
448.3013182472996
 30
0.0
 10
1138.162052124314
 20
451.61550010411
 30
0.0
 10
1135.475911174464
 20
454.3012965444107
 30
0.0
 10
1132.162073827202
 20
454.3012965444107
 30
0.0
 10
1128.847891970392
 20
454.3012965444107
 30
0.0
 10
1126.161751020543
 20
451.61550010411
 30
0.0
 10
1126.161751020543
 20
448.3013182472996
 30
0.0
 10
1126.161751020543
 20
448.3013182472996
 30
0.0
 10
1126.161751020543
 20
437.5016329201384
 30
0.0
 10
1126.161751020543
 20
437.5016329201384
 30
0.0
 10
1126.161751020543
 20
437.5016329201384
 30
0.0
 10
1110.162038567946
 20
437.5016329201384
 30
0.0
 10
1110.162038567946
 20
437.5016329201384
 30
0.0
 10
1110.162038567946
 20
437.5016329201384
 30
0.0
 10
1104.162060270834
 20
437.5016329201384
 30
0.0
 10
1104.162060270834
 20
437.5016329201384
 30
0.0
 10
1104.162060270834
 20
437.5016329201384
 30
0.0
 10
1100.162304412459
 20
437.5016329201384
 30
0.0
 10
1100.162304412459
 20
437.5016329201384
 30
0.0
 10
1100.162304412459
 20
437.5016329201384
 30
0.0
 10
1100.162304412459
 20
267.5013291431941
 30
0.0
 10
1100.162304412459
 20
267.5013291431941
 30
0.0
  0
POLYLINE
  5
5D
330
1F
100
AcDbEntity
  8
Layer 1
 62
     7
420
 16777215
370
     5
100
AcDb2dPolyline
 66
     1
 10
0.0
 20
0.0
 30
0.0
  0
VERTEX
  5
5E
330
5D
100
AcDbEntity
  8
Layer 1
 62
     7
420
 16777215
370
     5
100
AcDbVertex
100
AcDb2dVertex
 10
1132.162073827202
 20
263.701733332512
 30
0.0
  0
VERTEX
  5
5F
330
5D
100
AcDbEntity
  8
Layer 1
 62
     7
420
 16777215
370
     5
100
AcDbVertex
100
AcDb2dVertex
 10
1130.162195898015
 20
263.701733332512
 30
0.0
  0
VERTEX
  5
60
330
5D
100
AcDbEntity
  8
Layer 1
 62
     7
420
 16777215
370
     5
100
AcDbVertex
100
AcDb2dVertex
 10
1130.162195898015
 20
255.7011880871163
 30
0.0
  0
VERTEX
  5
61
330
5D
100
AcDbEntity
  8
Layer 1
 62
     7
420
 16777215
370
     5
100
AcDbVertex
100
AcDb2dVertex
 10
1134.16195175639
 20
255.7011880871163
 30
0.0
  0
VERTEX
  5
62
330
5D
100
AcDbEntity
  8
Layer 1
 62
     7
420
 16777215
370
     5
100
AcDbVertex
100
AcDb2dVertex
 10
1134.16195175639
 20
263.701733332512
 30
0.0
  0
VERTEX
  5
63
330
5D
100
AcDbEntity
  8
Layer 1
 62
     7
420
 16777215
370
     5
100
AcDbVertex
100
AcDb2dVertex
 10
1132.162073827202
 20
263.701733332512
 30
0.0
  0
SEQEND
  5
64
330
5D
100
AcDbEntity
  8
Layer 1
370
     5
  0
POLYLINE
  5
65
330
1F
100
AcDbEntity
  8
Layer 1
 62
     7
420
 16777215
370
     5
100
AcDb2dPolyline
 66
     1
 10
0.0
 20
0.0
 30
0.0
  0
VERTEX
  5
66
330
65
100
AcDbEntity
  8
Layer 1
 62
     7
420
 16777215
370
     5
100
AcDbVertex
100
AcDb2dVertex
 10
1188.16175643039
 20
263.701733332512
 30
0.0
  0
VERTEX
  5
67
330
65
100
AcDbEntity
  8
Layer 1
 62
     7
420
 16777215
370
     5
100
AcDbVertex
100
AcDb2dVertex
 10
1186.162223010751
 20
263.701733332512
 30
0.0
  0
VERTEX
  5
68
330
65
100
AcDbEntity
  8
Layer 1
 62
     7
420
 16777215
370
     5
100
AcDbVertex
100
AcDb2dVertex
 10
1186.162223010751
 20
255.7011880871163
 30
0.0
  0
VERTEX
  5
69
330
65
100
AcDbEntity
  8
Layer 1
 62
     7
420
 16777215
370
     5
100
AcDbVertex
100
AcDb2dVertex
 10
1190.161978869126
 20
255.7011880871163
 30
0.0
  0
VERTEX
  5
6A
330
65
100
AcDbEntity
  8
Layer 1
 62
     7
420
 16777215
370
     5
100
AcDbVertex
100
AcDb2dVertex
 10
1190.161978869126
 20
263.701733332512
 30
0.0
  0
VERTEX
  5
6B
330
65
100
AcDbEntity
  8
Layer 1
 62
     7
420
 16777215
370
     5
100
AcDbVertex
100
AcDb2dVertex
 10
1188.16175643039
 20
263.701733332512
 30
0.0
  0
SEQEND
  5
6C
330
65
100
AcDbEntity
  8
Layer 1
370
     5
  0
POLYLINE
  5
6D
330
1F
100
AcDbEntity
  8
Layer 1
 62
     7
420
 16777215
370
     5
100
AcDb2dPolyline
 66
     1
 10
0.0
 20
0.0
 30
0.0
  0
VERTEX
  5
6E
330
6D
100
AcDbEntity
  8
Layer 1
 62
     7
420
 16777215
370
     5
100
AcDbVertex
100
AcDb2dVertex
 10
1188.16175643039
 20
441.301573240369
 30
0.0
  0
VERTEX
  5
6F
330
6D
100
AcDbEntity
  8
Layer 1
 62
     7
420
 16777215
370
     5
100
AcDbVertex
100
AcDb2dVertex
 10
1186.162223010751
 20
441.301573240369
 30
0.0
  0
VERTEX
  5
70
330
6D
100
AcDbEntity
  8
Layer 1
 62
     7
420
 16777215
370
     5
100
AcDbVertex
100
AcDb2dVertex
 10
1186.162223010751
 20
449.3017739762162
 30
0.0
  0
VERTEX
  5
71
330
6D
100
AcDbEntity
  8
Layer 1
 62
     7
420
 16777215
370
     5
100
AcDbVertex
100
AcDb2dVertex
 10
1190.161978869126
 20
449.3017739762162
 30
0.0
  0
VERTEX
  5
72
330
6D
100
AcDbEntity
  8
Layer 1
 62
     7
420
 16777215
370
     5
100
AcDbVertex
100
AcDb2dVertex
 10
1190.161978869126
 20
441.301573240369
 30
0.0
  0
VERTEX
  5
73
330
6D
100
AcDbEntity
  8
Layer 1
 62
     7
420
 16777215
370
     5
100
AcDbVertex
100
AcDb2dVertex
 10
1188.16175643039
 20
441.301573240369
 30
0.0
  0
SEQEND
  5
74
330
6D
100
AcDbEntity
  8
Layer 1
370
     5
  0
POLYLINE
  5
75
330
1F
100
AcDbEntity
  8
Layer 1
 62
     7
420
 16777215
370
     5
100
AcDb2dPolyline
 66
     1
 10
0.0
 20
0.0
 30
0.0
  0
VERTEX
  5
76
330
75
100
AcDbEntity
  8
Layer 1
 62
     7
420
 16777215
370
     5
100
AcDbVertex
100
AcDb2dVertex
 10
1132.162073827202
 20
441.301573240369
 30
0.0
  0
VERTEX
  5
77
330
75
100
AcDbEntity
  8
Layer 1
 62
     7
420
 16777215
370
     5
100
AcDbVertex
100
AcDb2dVertex
 10
1130.162195898015
 20
441.301573240369
 30
0.0
  0
VERTEX
  5
78
330
75
100
AcDbEntity
  8
Layer 1
 62
     7
420
 16777215
370
     5
100
AcDbVertex
100
AcDb2dVertex
 10
1130.162195898015
 20
449.3017739762162
 30
0.0
  0
VERTEX
  5
79
330
75
100
AcDbEntity
  8
Layer 1
 62
     7
420
 16777215
370
     5
100
AcDbVertex
100
AcDb2dVertex
 10
1134.16195175639
 20
449.3017739762162
 30
0.0
  0
VERTEX
  5
7A
330
75
100
AcDbEntity
  8
Layer 1
 62
     7
420
 16777215
370
     5
100
AcDbVertex
100
AcDb2dVertex
 10
1134.16195175639
 20
441.301573240369
 30
0.0
  0
VERTEX
  5
7B
330
75
100
AcDbEntity
  8
Layer 1
 62
     7
420
 16777215
370
     5
100
AcDbVertex
100
AcDb2dVertex
 10
1132.162073827202
 20
441.301573240369
 30
0.0
  0
SEQEND
  5
7C
330
75
100
AcDbEntity
  8
Layer 1
370
     5
  0
INSERT
  5
7E
330
1F
100
AcDbEntity
  8
Layer 1
100
AcDbBlockReference
  2
block 2
 10
0.0
 20
0.0
 30
0.0
  0
INSERT
  5
D9
330
1F
100
AcDbEntity
  8
Layer 1
100
AcDbBlockReference
  2
block 3
 10
0.0
 20
0.0
 30
0.0
  0
SPLINE
  5
133
330
1F
100
AcDbEntity
  8
Layer 1
 62
     7
420
 16777215
370
     5
100
AcDbSpline
210
0.0
220
0.0
230
1.0
 70
    11
 71
     3
 72
    17
 73
    13
 74
     0
 42
0.0000000001
 43
0.0000000001
 40
0.0
 40
0.0
 40
0.0
 40
0.0
 40
1.0
 40
1.0
 40
1.0
 40
2.0
 40
2.0
 40
2.0
 40
3.0
 40
3.0
 40
3.0
 40
4.0
 40
4.0
 40
4.0
 40
4.0
 10
1145.392618528756
 20
292.5275362766945
 30
0.0
 10
1145.392618528756
 20
300.8116128805262
 30
0.0
 10
1152.108143158153
 20
307.5274820194722
 30
0.0
 10
1160.392564271534
 20
307.5274820194722
 30
0.0
 10
1168.676985384914
 20
307.5274820194722
 30
0.0
 10
1175.39285452386
 20
300.8116128805262
 30
0.0
 10
1175.39285452386
 20
292.5275362766945
 30
0.0
 10
1175.39285452386
 20
284.2431151633142
 30
0.0
 10
1168.676985384914
 20
277.5272460243681
 30
0.0
 10
1160.392564271534
 20
277.5272460243681
 30
0.0
 10
1152.108143158153
 20
277.5272460243681
 30
0.0
 10
1145.392618528756
 20
284.2431151633142
 30
0.0
 10
1145.392618528756
 20
292.5275362766945
 30
0.0
  0
SPLINE
  5
134
330
1F
100
AcDbEntity
  8
Layer 1
 62
     7
420
 16777215
370
     5
100
AcDbSpline
210
0.0
220
0.0
230
1.0
 70
    11
 71
     3
 72
    17
 73
    13
 74
     0
 42
0.0000000001
 43
0.0000000001
 40
0.0
 40
0.0
 40
0.0
 40
0.0
 40
1.0
 40
1.0
 40
1.0
 40
2.0
 40
2.0
 40
2.0
 40
3.0
 40
3.0
 40
3.0
 40
4.0
 40
4.0
 40
4.0
 40
4.0
 10
1145.161797131244
 20
332.5013237015968
 30
0.0
 10
1145.161797131244
 20
340.7860893245257
 30
0.0
 10
1151.87766627019
 20
347.5019584634717
 30
0.0
 10
1160.16208738357
 20
347.5019584634717
 30
0.0
 10
1168.446163987402
 20
347.5019584634717
 30
0.0
 10
1175.162033126348
 20
340.7860893245257
 30
0.0
 10
1175.162033126348
 20
332.5013237015968
 30
0.0
 10
1175.162033126348
 20
324.2169025882166
 30
0.0
 10
1168.446163987402
 20
317.5010334492706
 30
0.0
 10
1160.16208738357
 20
317.5010334492706
 30
0.0
 10
1151.87766627019
 20
317.5010334492706
 30
0.0
 10
1145.161797131244
 20
324.2169025882166
 30
0.0
 10
1145.161797131244
 20
332.5013237015968
 30
0.0
  0
SPLINE
  5
135
330
1F
100
AcDbEntity
  8
Layer 1
 62
     7
420
 16777215
370
     5
100
AcDbSpline
210
0.0
220
0.0
230
1.0
 70
    11
 71
     3
 72
    17
 73
    13
 74
     0
 42
0.0000000001
 43
0.0000000001
 40
0.0
 40
0.0
 40
0.0
 40
0.0
 40
1.0
 40
1.0
 40
1.0
 40
2.0
 40
2.0
 40
2.0
 40
3.0
 40
3.0
 40
3.0
 40
4.0
 40
4.0
 40
4.0
 40
4.0
 10
1145.161797131244
 20
372.5016383617357
 30
0.0
 10
1145.161797131244
 20
380.7857149655674
 30
0.0
 10
1151.87766627019
 20
387.5015841045134
 30
0.0
 10
1160.16208738357
 20
387.5015841045134
 30
0.0
 10
1168.446163987402
 20
387.5015841045134
 30
0.0
 10
1175.162033126348
 20
380.7857149655674
 30
0.0
 10
1175.162033126348
 20
372.5016383617357
 30
0.0
 10
1175.162033126348
 20
364.2175617579039
 30
0.0
 10
1168.446163987402
 20
357.5016926189579
 30
0.0
 10
1160.16208738357
 20
357.5016926189579
 30
0.0
 10
1151.87766627019
 20
357.5016926189579
 30
0.0
 10
1145.161797131244
 20
364.2175617579039
 30
0.0
 10
1145.161797131244
 20
372.5016383617357
 30
0.0
  0
SPLINE
  5
136
330
1F
100
AcDbEntity
  8
Layer 1
 62
     7
420
 16777215
370
     5
100
AcDbSpline
210
0.0
220
0.0
230
1.0
 70
    11
 71
     3
 72
    17
 73
    13
 74
     0
 42
0.0000000001
 43
0.0000000001
 40
0.0
 40
0.0
 40
0.0
 40
0.0
 40
1.0
 40
1.0
 40
1.0
 40
2.0
 40
2.0
 40
2.0
 40
3.0
 40
3.0
 40
3.0
 40
4.0
 40
4.0
 40
4.0
 40
4.0
 10
1145.161797131244
 20
412.5019530218744
 30
0.0
 10
1145.161797131244
 20
420.7860296257062
 30
0.0
 10
1151.87766627019
 20
427.5018987646523
 30
0.0
 10
1160.16208738357
 20
427.5018987646523
 30
0.0
 10
1168.446163987402
 20
427.5018987646523
 30
0.0
 10
1175.162033126348
 20
420.7860296257062
 30
0.0
 10
1175.162033126348
 20
412.5019530218744
 30
0.0
 10
1175.162033126348
 20
404.2171873989457
 30
0.0
 10
1168.446163987402
 20
397.5013182599996
 30
0.0
 10
1160.16208738357
 20
397.5013182599996
 30
0.0
 10
1151.87766627019
 20
397.5013182599996
 30
0.0
 10
1145.161797131244
 20
404.2171873989457
 30
0.0
 10
1145.161797131244
 20
412.5019530218744
 30
0.0
  0
SPLINE
  5
137
330
1F
100
AcDbEntity
  8
Layer 1
 62
     7
420
 16777215
370
     5
100
AcDbSpline
210
0.0
220
0.0
230
1.0
 70
    11
 71
     3
 72
   113
 73
   109
 74
     0
 42
0.0000000001
 43
0.0000000001
 40
0.0
 40
0.0
 40
0.0
 40
0.0
 40
1.0
 40
1.0
 40
1.0
 40
2.0
 40
2.0
 40
2.0
 40
3.0
 40
3.0
 40
3.0
 40
4.0
 40
4.0
 40
4.0
 40
5.0
 40
5.0
 40
5.0
 40
6.0
 40
6.0
 40
6.0
 40
7.0
 40
7.0
 40
7.0
 40
8.0
 40
8.0
 40
8.0
 40
9.0
 40
9.0
 40
9.0
 40
10.0
 40
10.0
 40
10.0
 40
11.0
 40
11.0
 40
11.0
 40
12.0
 40
12.0
 40
12.0
 40
13.0
 40
13.0
 40
13.0
 40
14.0
 40
14.0
 40
14.0
 40
15.0
 40
15.0
 40
15.0
 40
16.0
 40
16.0
 40
16.0
 40
17.0
 40
17.0
 40
17.0
 40
18.0
 40
18.0
 40
18.0
 40
19.0
 40
19.0
 40
19.0
 40
20.0
 40
20.0
 40
20.0
 40
21.0
 40
21.0
 40
21.0
 40
22.0
 40
22.0
 40
22.0
 40
23.0
 40
23.0
 40
23.0
 40
24.0
 40
24.0
 40
24.0
 40
25.0
 40
25.0
 40
25.0
 40
26.0
 40
26.0
 40
26.0
 40
27.0
 40
27.0
 40
27.0
 40
28.0
 40
28.0
 40
28.0
 40
29.0
 40
29.0
 40
29.0
 40
30.0
 40
30.0
 40
30.0
 40
31.0
 40
31.0
 40
31.0
 40
32.0
 40
32.0
 40
32.0
 40
33.0
 40
33.0
 40
33.0
 40
34.0
 40
34.0
 40
34.0
 40
35.0
 40
35.0
 40
35.0
 40
36.0
 40
36.0
 40
36.0
 40
36.0
 10
970.1612817670082
 20
267.492716404481
 30
0.0
 10
970.1612817670082
 20
267.492716404481
 30
0.0
 10
976.1616045736678
 20
267.492716404481
 30
0.0
 10
976.1616045736678
 20
267.492716404481
 30
0.0
 10
976.1616045736678
 20
267.492716404481
 30
0.0
 10
980.1613604320429
 20
267.492716404481
 30
0.0
 10
980.1613604320429
 20
267.492716404481
 30
0.0
 10
980.1613604320429
 20
267.492716404481
 30
0.0
 10
996.1614173941887
 20
267.492716404481
 30
0.0
 10
996.1614173941887
 20
267.492716404481
 30
0.0
 10
996.1614173941887
 20
267.492716404481
 30
0.0
 10
996.1614173941887
 20
256.6926865677713
 30
0.0
 10
996.1614173941887
 20
256.6926865677713
 30
0.0
 10
996.1614173941887
 20
253.3785047109609
 30
0.0
 10
998.8472138344895
 20
250.6923637611116
 30
0.0
 10
1002.1613956913
 20
250.6923637611116
 30
0.0
 10
1005.475233038562
 20
250.6923637611116
 30
0.0
 10
1008.161373988411
 20
253.3785047109609
 30
0.0
 10
1008.161373988411
 20
256.6926865677713
 30
0.0
 10
1008.161373988411
 20
256.6926865677713
 30
0.0
 10
1008.161373988411
 20
267.492716404481
 30
0.0
 10
1008.161373988411
 20
267.492716404481
 30
0.0
 10
1008.161373988411
 20
267.492716404481
 30
0.0
 10
1052.161099997376
 20
267.492716404481
 30
0.0
 10
1052.161099997376
 20
267.492716404481
 30
0.0
 10
1052.161099997376
 20
267.492716404481
 30
0.0
 10
1052.161099997376
 20
256.6926865677713
 30
0.0
 10
1052.161099997376
 20
256.6926865677713
 30
0.0
 10
1052.161099997376
 20
253.3785047109609
 30
0.0
 10
1054.847585456774
 20
250.6923637611116
 30
0.0
 10
1058.161422804036
 20
250.6923637611116
 30
0.0
 10
1061.475604660846
 20
250.6923637611116
 30
0.0
 10
1064.161401101147
 20
253.3785047109609
 30
0.0
 10
1064.161401101147
 20
256.6926865677713
 30
0.0
 10
1064.161401101147
 20
256.6926865677713
 30
0.0
 10
1064.161401101147
 20
267.492716404481
 30
0.0
 10
1064.161401101147
 20
267.492716404481
 30
0.0
 10
1064.161401101147
 20
267.492716404481
 30
0.0
 10
1080.161458063293
 20
267.492716404481
 30
0.0
 10
1080.161458063293
 20
267.492716404481
 30
0.0
 10
1080.161458063293
 20
267.492716404481
 30
0.0
 10
1084.161213921668
 20
267.492716404481
 30
0.0
 10
1084.161213921668
 20
267.492716404481
 30
0.0
 10
1084.161213921668
 20
267.492716404481
 30
0.0
 10
1090.161536728328
 20
267.492716404481
 30
0.0
 10
1090.161536728328
 20
267.492716404481
 30
0.0
 10
1090.161536728328
 20
267.492716404481
 30
0.0
 10
1090.161536728328
 20
437.4926756718768
 30
0.0
 10
1090.161536728328
 20
437.4926756718768
 30
0.0
 10
1090.161536728328
 20
437.4926756718768
 30
0.0
 10
1084.161213921668
 20
437.4926756718768
 30
0.0
 10
1084.161213921668
 20
437.4926756718768
 30
0.0
 10
1084.161213921668
 20
437.4926756718768
 30
0.0
 10
1084.161213921668
 20
352.4932128025017
 30
0.0
 10
1084.161213921668
 20
352.4932128025017
 30
0.0
 10
1084.161213921668
 20
352.4932128025017
 30
0.0
 10
1080.161458063293
 20
352.4932128025017
 30
0.0
 10
1080.161458063293
 20
352.4932128025017
 30
0.0
 10
1080.161458063293
 20
352.4932128025017
 30
0.0
 10
1080.161458063293
 20
437.4926756718768
 30
0.0
 10
1080.161458063293
 20
437.4926756718768
 30
0.0
 10
1080.161458063293
 20
437.4926756718768
 30
0.0
 10
1064.161401101147
 20
437.4926756718768
 30
0.0
 10
1064.161401101147
 20
437.4926756718768
 30
0.0
 10
1064.161401101147
 20
437.4926756718768
 30
0.0
 10
1064.161401101147
 20
448.293050018135
 30
0.0
 10
1064.161401101147
 20
448.293050018135
 30
0.0
 10
1064.161401101147
 20
451.6065428558483
 30
0.0
 10
1061.475260151298
 20
454.2930283152461
 30
0.0
 10
1058.161422804036
 20
454.2930283152461
 30
0.0
 10
1054.847240947226
 20
454.2930283152461
 30
0.0
 10
1052.160755487828
 20
451.6065428558483
 30
0.0
 10
1052.160755487828
 20
448.293050018135
 30
0.0
 10
1052.160755487828
 20
448.293050018135
 30
0.0
 10
1052.160755487828
 20
437.4926756718768
 30
0.0
 10
1052.160755487828
 20
437.4926756718768
 30
0.0
 10
1052.160755487828
 20
437.4926756718768
 30
0.0
 10
1008.161373988411
 20
437.4926756718768
 30
0.0
 10
1008.161373988411
 20
437.4926756718768
 30
0.0
 10
1008.161373988411
 20
437.4926756718768
 30
0.0
 10
1008.161373988411
 20
448.293050018135
 30
0.0
 10
1008.161373988411
 20
448.293050018135
 30
0.0
 10
1008.161373988411
 20
451.6065428558483
 30
0.0
 10
1005.475233038562
 20
454.2930283152461
 30
0.0
 10
1002.1613956913
 20
454.2930283152461
 30
0.0
 10
998.8472138344895
 20
454.2930283152461
 30
0.0
 10
996.1614173941887
 20
451.6065428558483
 30
0.0
 10
996.1614173941887
 20
448.293050018135
 30
0.0
 10
996.1614173941887
 20
448.293050018135
 30
0.0
 10
996.1614173941887
 20
437.4926756718768
 30
0.0
 10
996.1614173941887
 20
437.4926756718768
 30
0.0
 10
996.1614173941887
 20
437.4926756718768
 30
0.0
 10
980.1613604320429
 20
437.4926756718768
 30
0.0
 10
980.1613604320429
 20
437.4926756718768
 30
0.0
 10
980.1613604320429
 20
437.4926756718768
 30
0.0
 10
980.1613604320429
 20
352.4932128025017
 30
0.0
 10
980.1613604320429
 20
352.4932128025017
 30
0.0
 10
980.1613604320429
 20
352.4932128025017
 30
0.0
 10
976.1616045736678
 20
352.4932128025017
 30
0.0
 10
976.1616045736678
 20
352.4932128025017
 30
0.0
 10
976.1616045736678
 20
352.4932128025017
 30
0.0
 10
976.1616045736678
 20
437.4926756718768
 30
0.0
 10
976.1616045736678
 20
437.4926756718768
 30
0.0
 10
976.1616045736678
 20
437.4926756718768
 30
0.0
 10
970.1612817670082
 20
437.4926756718768
 30
0.0
 10
970.1612817670082
 20
437.4926756718768
 30
0.0
 10
970.1612817670082
 20
437.4926756718768
 30
0.0
 10
970.1612817670082
 20
267.492716404481
 30
0.0
 10
970.1612817670082
 20
267.492716404481
 30
0.0
  0
POLYLINE
  5
138
330
1F
100
AcDbEntity
  8
Layer 1
 62
     7
420
 16777215
370
     5
100
AcDb2dPolyline
 66
     1
 10
0.0
 20
0.0
 30
0.0
  0
VERTEX
  5
139
330
138
100
AcDbEntity
  8
Layer 1
 62
     7
420
 16777215
370
     5
100
AcDbVertex
100
AcDb2dVertex
 10
1002.1613956913
 20
263.6924315747019
 30
0.0
  0
VERTEX
  5
13A
330
138
100
AcDbEntity
  8
Layer 1
 62
     7
420
 16777215
370
     5
100
AcDbVertex
100
AcDb2dVertex
 10
1000.161173252564
 20
263.6924315747019
 30
0.0
  0
VERTEX
  5
13B
330
138
100
AcDbEntity
  8
Layer 1
 62
     7
420
 16777215
370
     5
100
AcDbVertex
100
AcDb2dVertex
 10
1000.161173252564
 20
255.6918863293062
 30
0.0
  0
VERTEX
  5
13C
330
138
100
AcDbEntity
  8
Layer 1
 62
     7
420
 16777215
370
     5
100
AcDbVertex
100
AcDb2dVertex
 10
1004.160929110939
 20
255.6918863293062
 30
0.0
  0
VERTEX
  5
13D
330
138
100
AcDbEntity
  8
Layer 1
 62
     7
420
 16777215
370
     5
100
AcDbVertex
100
AcDb2dVertex
 10
1004.160929110939
 20
263.6924315747019
 30
0.0
  0
VERTEX
  5
13E
330
138
100
AcDbEntity
  8
Layer 1
 62
     7
420
 16777215
370
     5
100
AcDbVertex
100
AcDb2dVertex
 10
1002.1613956913
 20
263.6924315747019
 30
0.0
  0
SEQEND
  5
13F
330
138
100
AcDbEntity
  8
Layer 1
370
     5
  0
POLYLINE
  5
140
330
1F
100
AcDbEntity
  8
Layer 1
 62
     7
420
 16777215
370
     5
100
AcDb2dPolyline
 66
     1
 10
0.0
 20
0.0
 30
0.0
  0
VERTEX
  5
141
330
140
100
AcDbEntity
  8
Layer 1
 62
     7
420
 16777215
370
     5
100
AcDbVertex
100
AcDb2dVertex
 10
1058.161422804036
 20
263.6924315747019
 30
0.0
  0
VERTEX
  5
142
330
140
100
AcDbEntity
  8
Layer 1
 62
     7
420
 16777215
370
     5
100
AcDbVertex
100
AcDb2dVertex
 10
1056.161544874848
 20
263.6924315747019
 30
0.0
  0
VERTEX
  5
143
330
140
100
AcDbEntity
  8
Layer 1
 62
     7
420
 16777215
370
     5
100
AcDbVertex
100
AcDb2dVertex
 10
1056.161544874848
 20
255.6918863293062
 30
0.0
  0
VERTEX
  5
144
330
140
100
AcDbEntity
  8
Layer 1
 62
     7
420
 16777215
370
     5
100
AcDbVertex
100
AcDb2dVertex
 10
1060.161645242772
 20
255.6918863293062
 30
0.0
  0
VERTEX
  5
145
330
140
100
AcDbEntity
  8
Layer 1
 62
     7
420
 16777215
370
     5
100
AcDbVertex
100
AcDb2dVertex
 10
1060.161645242772
 20
263.6924315747019
 30
0.0
  0
VERTEX
  5
146
330
140
100
AcDbEntity
  8
Layer 1
 62
     7
420
 16777215
370
     5
100
AcDbVertex
100
AcDb2dVertex
 10
1058.161422804036
 20
263.6924315747019
 30
0.0
  0
SEQEND
  5
147
330
140
100
AcDbEntity
  8
Layer 1
370
     5
  0
POLYLINE
  5
148
330
1F
100
AcDbEntity
  8
Layer 1
 62
     7
420
 16777215
370
     5
100
AcDb2dPolyline
 66
     1
 10
0.0
 20
0.0
 30
0.0
  0
VERTEX
  5
149
330
148
100
AcDbEntity
  8
Layer 1
 62
     7
420
 16777215
370
     5
100
AcDbVertex
100
AcDb2dVertex
 10
1058.161422804036
 20
441.2926159921074
 30
0.0
  0
VERTEX
  5
14A
330
148
100
AcDbEntity
  8
Layer 1
 62
     7
420
 16777215
370
     5
100
AcDbVertex
100
AcDb2dVertex
 10
1056.161544874848
 20
441.2926159921074
 30
0.0
  0
VERTEX
  5
14B
330
148
100
AcDbEntity
  8
Layer 1
 62
     7
420
 16777215
370
     5
100
AcDbVertex
100
AcDb2dVertex
 10
1056.161544874848
 20
449.2928167279545
 30
0.0
  0
VERTEX
  5
14C
330
148
100
AcDbEntity
  8
Layer 1
 62
     7
420
 16777215
370
     5
100
AcDbVertex
100
AcDb2dVertex
 10
1060.161645242772
 20
449.2928167279545
 30
0.0
  0
VERTEX
  5
14D
330
148
100
AcDbEntity
  8
Layer 1
 62
     7
420
 16777215
370
     5
100
AcDbVertex
100
AcDb2dVertex
 10
1060.161645242772
 20
441.2926159921074
 30
0.0
  0
VERTEX
  5
14E
330
148
100
AcDbEntity
  8
Layer 1
 62
     7
420
 16777215
370
     5
100
AcDbVertex
100
AcDb2dVertex
 10
1058.161422804036
 20
441.2926159921074
 30
0.0
  0
SEQEND
  5
14F
330
148
100
AcDbEntity
  8
Layer 1
370
     5
  0
POLYLINE
  5
150
330
1F
100
AcDbEntity
  8
Layer 1
 62
     7
420
 16777215
370
     5
100
AcDb2dPolyline
 66
     1
 10
0.0
 20
0.0
 30
0.0
  0
VERTEX
  5
151
330
150
100
AcDbEntity
  8
Layer 1
 62
     7
420
 16777215
370
     5
100
AcDbVertex
100
AcDb2dVertex
 10
1002.1613956913
 20
441.2926159921074
 30
0.0
  0
VERTEX
  5
152
330
150
100
AcDbEntity
  8
Layer 1
 62
     7
420
 16777215
370
     5
100
AcDbVertex
100
AcDb2dVertex
 10
1000.161173252564
 20
441.2926159921074
 30
0.0
  0
VERTEX
  5
153
330
150
100
AcDbEntity
  8
Layer 1
 62
     7
420
 16777215
370
     5
100
AcDbVertex
100
AcDb2dVertex
 10
1000.161173252564
 20
449.2928167279545
 30
0.0
  0
VERTEX
  5
154
330
150
100
AcDbEntity
  8
Layer 1
 62
     7
420
 16777215
370
     5
100
AcDbVertex
100
AcDb2dVertex
 10
1004.160929110939
 20
449.2928167279545
 30
0.0
  0
VERTEX
  5
155
330
150
100
AcDbEntity
  8
Layer 1
 62
     7
420
 16777215
370
     5
100
AcDbVertex
100
AcDb2dVertex
 10
1004.160929110939
 20
441.2926159921074
 30
0.0
  0
VERTEX
  5
156
330
150
100
AcDbEntity
  8
Layer 1
 62
     7
420
 16777215
370
     5
100
AcDbVertex
100
AcDb2dVertex
 10
1002.1613956913
 20
441.2926159921074
 30
0.0
  0
SEQEND
  5
157
330
150
100
AcDbEntity
  8
Layer 1
370
     5
  0
INSERT
  5
159
330
1F
100
AcDbEntity
  8
Layer 1
100
AcDbBlockReference
  2
block 4
 10
0.0
 20
0.0
 30
0.0
  0
INSERT
  5
160
330
1F
100
AcDbEntity
  8
Layer 1
100
AcDbBlockReference
  2
block 5
 10
0.0
 20
0.0
 30
0.0
  0
INSERT
  5
167
330
1F
100
AcDbEntity
  8
Layer 1
100
AcDbBlockReference
  2
block 6
 10
0.0
 20
0.0
 30
0.0
  0
INSERT
  5
16E
330
1F
100
AcDbEntity
  8
Layer 1
100
AcDbBlockReference
  2
block 7
 10
0.0
 20
0.0
 30
0.0
  0
INSERT
  5
175
330
1F
100
AcDbEntity
  8
Layer 1
100
AcDbBlockReference
  2
block 8
 10
0.0
 20
0.0
 30
0.0
  0
INSERT
  5
17C
330
1F
100
AcDbEntity
  8
Layer 1
100
AcDbBlockReference
  2
block 9
 10
0.0
 20
0.0
 30
0.0
  0
POLYLINE
  5
182
330
1F
100
AcDbEntity
  8
Layer 1
 62
     7
420
 16777215
370
     5
100
AcDb2dPolyline
 66
     1
 10
0.0
 20
0.0
 30
0.0
  0
VERTEX
  5
183
330
182
100
AcDbEntity
  8
Layer 1
 62
     7
420
 16777215
370
     5
100
AcDbVertex
100
AcDb2dVertex
 10
1133.721324043827
 20
337.5011907793399
 30
0.0
  0
VERTEX
  5
184
330
182
100
AcDbEntity
  8
Layer 1
 62
     7
420
 16777215
370
     5
100
AcDbVertex
100
AcDb2dVertex
 10
1133.721324043827
 20
327.5014566238538
 30
0.0
  0
SEQEND
  5
185
330
182
100
AcDbEntity
  8
Layer 1
370
     5
  0
POLYLINE
  5
186
330
1F
100
AcDbEntity
  8
Layer 1
 62
     7
420
 16777215
370
     5
100
AcDb2dPolyline
 66
     1
 10
0.0
 20
0.0
 30
0.0
  0
VERTEX
  5
187
330
186
100
AcDbEntity
  8
Layer 1
 62
     7
420
 16777215
370
     5
100
AcDbVertex
100
AcDb2dVertex
 10
1138.72119112157
 20
292.5275362766945
 30
0.0
  0
VERTEX
  5
188
330
186
100
AcDbEntity
  8
Layer 1
 62
     7
420
 16777215
370
     5
100
AcDbVertex
100
AcDb2dVertex
 10
1128.721456966083
 20
292.5275362766945
 30
0.0
  0
SEQEND
  5
189
330
186
100
AcDbEntity
  8
Layer 1
370
     5
  0
POLYLINE
  5
18A
330
1F
100
AcDbEntity
  8
Layer 1
 62
     7
420
 16777215
370
     5
100
AcDb2dPolyline
 66
     1
 10
0.0
 20
0.0
 30
0.0
  0
VERTEX
  5
18B
330
18A
100
AcDbEntity
  8
Layer 1
 62
     7
420
 16777215
370
     5
100
AcDbVertex
100
AcDb2dVertex
 10
1133.721324043827
 20
287.5273246894029
 30
0.0
  0
VERTEX
  5
18C
330
18A
100
AcDbEntity
  8
Layer 1
 62
     7
420
 16777215
370
     5
100
AcDbVertex
100
AcDb2dVertex
 10
1133.721324043827
 20
297.5274033544376
 30
0.0
  0
SEQEND
  5
18D
330
18A
100
AcDbEntity
  8
Layer 1
370
     5
  0
POLYLINE
  5
18E
330
1F
100
AcDbEntity
  8
Layer 1
 62
     7
420
 16777215
370
     5
100
AcDb2dPolyline
 66
     1
 10
0.0
 20
0.0
 30
0.0
  0
VERTEX
  5
18F
330
18E
100
AcDbEntity
  8
Layer 1
 62
     7
420
 16777215
370
     5
100
AcDbVertex
100
AcDb2dVertex
 10
1138.490025214509
 20
377.3488877094822
 30
0.0
  0
VERTEX
  5
190
330
18E
100
AcDbEntity
  8
Layer 1
 62
     7
420
 16777215
370
     5
100
AcDbVertex
100
AcDb2dVertex
 10
1138.490025214509
 20
370.4090873639949
 30
0.0
  0
SEQEND
  5
191
330
18E
100
AcDbEntity
  8
Layer 1
370
     5
  0
POLYLINE
  5
192
330
1F
100
AcDbEntity
  8
Layer 1
 62
     7
420
 16777215
370
     5
100
AcDb2dPolyline
 66
     1
 10
0.0
 20
0.0
 30
0.0
  0
VERTEX
  5
193
330
192
100
AcDbEntity
  8
Layer 1
 62
     7
420
 16777215
370
     5
100
AcDbVertex
100
AcDb2dVertex
 10
1138.490025214509
 20
370.4090873639949
 30
0.0
  0
VERTEX
  5
194
330
192
100
AcDbEntity
  8
Layer 1
 62
     7
420
 16777215
370
     5
100
AcDbVertex
100
AcDb2dVertex
 10
1128.490635568572
 20
370.4090873639949
 30
0.0
  0
SEQEND
  5
195
330
192
100
AcDbEntity
  8
Layer 1
370
     5
  0
POLYLINE
  5
196
330
1F
100
AcDbEntity
  8
Layer 1
 62
     7
420
 16777215
370
     5
100
AcDb2dPolyline
 66
     1
 10
0.0
 20
0.0
 30
0.0
  0
VERTEX
  5
197
330
196
100
AcDbEntity
  8
Layer 1
 62
     7
420
 16777215
370
     5
100
AcDbVertex
100
AcDb2dVertex
 10
1132.489013388753
 20
415.9718531946181
 30
0.0
  0
VERTEX
  5
198
330
196
100
AcDbEntity
  8
Layer 1
 62
     7
420
 16777215
370
     5
100
AcDbVertex
100
AcDb2dVertex
 10
1132.489013388753
 20
409.0313638300338
 30
0.0
  0
SEQEND
  5
199
330
196
100
AcDbEntity
  8
Layer 1
370
     5
  0
POLYLINE
  5
19A
330
1F
100
AcDbEntity
  8
Layer 1
 62
     7
420
 16777215
370
     5
100
AcDb2dPolyline
 66
     1
 10
0.0
 20
0.0
 30
0.0
  0
VERTEX
  5
19B
330
19A
100
AcDbEntity
  8
Layer 1
 62
     7
420
 16777215
370
     5
100
AcDbVertex
100
AcDb2dVertex
 10
1128.721456966083
 20
415.9718531946181
 30
0.0
  0
VERTEX
  5
19C
330
19A
100
AcDbEntity
  8
Layer 1
 62
     7
420
 16777215
370
     5
100
AcDbVertex
100
AcDb2dVertex
 10
1128.721456966083
 20
409.0313638300338
 30
0.0
  0
SEQEND
  5
19D
330
19A
100
AcDbEntity
  8
Layer 1
370
     5
  0
POLYLINE
  5
19E
330
1F
100
AcDbEntity
  8
Layer 1
 62
     7
420
 16777215
370
     5
100
AcDb2dPolyline
 66
     1
 10
0.0
 20
0.0
 30
0.0
  0
VERTEX
  5
19F
330
19E
100
AcDbEntity
  8
Layer 1
 62
     7
420
 16777215
370
     5
100
AcDbVertex
100
AcDb2dVertex
 10
1138.721535631118
 20
409.0313638300338
 30
0.0
  0
VERTEX
  5
1A0
330
19E
100
AcDbEntity
  8
Layer 1
 62
     7
420
 16777215
370
     5
100
AcDbVertex
100
AcDb2dVertex
 10
1128.721456966083
 20
409.0313638300338
 30
0.0
  0
SEQEND
  5
1A1
330
19E
100
AcDbEntity
  8
Layer 1
370
     5
  0
POLYLINE
  5
1A2
330
1F
100
AcDbEntity
  8
Layer 1
 62
     7
420
 16777215
370
     5
100
AcDb2dPolyline
 66
     1
 10
0.0
 20
0.0
 30
0.0
  0
VERTEX
  5
1A3
330
1A2
100
AcDbEntity
  8
Layer 1
 62
     7
420
 16777215
370
     5
100
AcDbVertex
100
AcDb2dVertex
 10
1138.310535739728
 20
414.852886181009
 30
0.0
  0
VERTEX
  5
1A4
330
1A2
100
AcDbEntity
  8
Layer 1
 62
     7
420
 16777215
370
     5
100
AcDbVertex
100
AcDb2dVertex
 10
1132.489013388753
 20
409.0313638300338
 30
0.0
  0
SEQEND
  5
1A5
330
1A2
100
AcDbEntity
  8
Layer 1
370
     5
  0
POLYLINE
  5
1A6
330
1F
100
AcDbEntity
  8
Layer 1
 62
     7
420
 16777215
370
     5
100
AcDb2dPolyline
 66
     1
 10
0.0
 20
0.0
 30
0.0
  0
VERTEX
  5
1A7
330
1A6
100
AcDbEntity
  8
Layer 1
 62
     7
420
 16777215
370
     5
100
AcDbVertex
100
AcDb2dVertex
 10
1132.489013388753
 20
415.9718531946181
 30
0.0
  0
VERTEX
  5
1A8
330
1A6
100
AcDbEntity
  8
Layer 1
 62
     7
420
 16777215
370
     5
100
AcDbVertex
100
AcDb2dVertex
 10
1128.721112456535
 20
415.9718531946181
 30
0.0
  0
SEQEND
  5
1A9
330
1A6
100
AcDbEntity
  8
Layer 1
370
     5
  0
INSERT
  5
1AB
330
1F
100
AcDbEntity
  8
Layer 1
100
AcDbBlockReference
  2
block 10
 10
0.0
 20
0.0
 30
0.0
  0
INSERT
  5
1D7
330
1F
100
AcDbEntity
  8
Layer 1
100
AcDbBlockReference
  2
block 11
 10
0.0
 20
0.0
 30
0.0
  0
INSERT
  5
203
330
1F
100
AcDbEntity
  8
Layer 1
100
AcDbBlockReference
  2
block 12
 10
0.0
 20
0.0
 30
0.0
  0
ENDSEC
  0
SECTION
  2
OBJECTS
  0
DICTIONARY
  5
C
330
0
100
AcDbDictionary
281
     1
  3
ACAD_GROUP
350
D
  3
ACAD_LAYOUT
350
1A
  3
ACAD_MLINESTYLE
350
17
  3
ACAD_PLOTSETTINGS
350
19
  3
ACAD_PLOTSTYLENAME
350
E
  3
ACAD_TABLESTYLE
350
22E
  3
ACAD_VISUALSTYLE
350
2A
  0
DICTIONARY
  5
D
102
{ACAD_REACTORS
330
C
102
}
330
C
100
AcDbDictionary
281
     1
  0
DICTIONARY
  5
1A
102
{ACAD_REACTORS
330
C
102
}
330
C
100
AcDbDictionary
281
     1
  3
Layout1
350
1E
  3
Layout2
350
26
  3
Model
350
22
  0
DICTIONARY
  5
17
102
{ACAD_REACTORS
330
C
102
}
330
C
100
AcDbDictionary
281
     1
  3
Standard
350
18
  0
DICTIONARY
  5
19
102
{ACAD_REACTORS
330
C
102
}
330
C
100
AcDbDictionary
281
     1
  0
ACDBDICTIONARYWDFLT
  5
E
102
{ACAD_REACTORS
330
C
102
}
330
C
100
AcDbDictionary
281
     1
  3
Normal
350
F
100
AcDbDictionaryWithDefault
340
F
  0
DICTIONARY
  5
22E
102
{ACAD_REACTORS
330
C
102
}
330
C
100
AcDbDictionary
281
     1
  0
DICTIONARY
  5
2A
102
{ACAD_REACTORS
330
C
102
}
330
C
100
AcDbDictionary
281
     1
  3
2dWireframe
350
2F
  3
3D Hidden
350
31
  3
3dWireframe
350
30
  3
Basic
350
32
  3
Brighten
350
36
  3
ColorChange
350
3A
  3
Conceptual
350
34
  3
Dim
350
35
  3
Facepattern
350
39
  3
Flat
350
2B
  3
FlatWithEdges
350
2C
  3
Gouraud
350
2D
  3
GouraudWithEdges
350
2E
  3
Linepattern
350
38
  3
Realistic
350
33
  3
Thicken
350
37
  0
LAYOUT
  5
1E
102
{ACAD_REACTORS
330
1A
102
}
330
1A
100
AcDbPlotSettings
  1

  2
none_device
  4

  6

 40
0.0
 41
0.0
 42
0.0
 43
0.0
 44
0.0
 45
0.0
 46
0.0
 47
0.0
 48
0.0
 49
0.0
140
0.0
141
0.0
142
1.0
143
1.0
 70
   688
 72
     0
 73
     0
 74
     5
  7

 75
    16
 76
     0
 77
     2
 78
   300
147
1.0
148
0.0
149
0.0
100
AcDbLayout
  1
Layout1
 70
     1
 71
     1
 10
0.0
 20
0.0
 11
12.0
 21
9.0
 12
0.0
 22
0.0
 32
0.0
 14
1.000000000000000E+20
 24
1.000000000000000E+20
 34
1.000000000000000E+20
 15
-1.000000000000000E+20
 25
-1.000000000000000E+20
 35
-1.000000000000000E+20
146
0.0
 13
0.0
 23
0.0
 33
0.0
 16
1.0
 26
0.0
 36
0.0
 17
0.0
 27
1.0
 37
0.0
 76
     0
330
1B
  0
LAYOUT
  5
26
102
{ACAD_REACTORS
330
1A
102
}
330
1A
100
AcDbPlotSettings
  1

  2
none_device
  4

  6

 40
0.0
 41
0.0
 42
0.0
 43
0.0
 44
0.0
 45
0.0
 46
0.0
 47
0.0
 48
0.0
 49
0.0
140
0.0
141
0.0
142
1.0
143
1.0
 70
   688
 72
     0
 73
     0
 74
     5
  7

 75
    16
 76
     0
 77
     2
 78
   300
147
1.0
148
0.0
149
0.0
100
AcDbLayout
  1
Layout2
 70
     1
 71
     2
 10
0.0
 20
0.0
 11
0.0
 21
0.0
 12
0.0
 22
0.0
 32
0.0
 14
0.0
 24
0.0
 34
0.0
 15
0.0
 25
0.0
 35
0.0
146
0.0
 13
0.0
 23
0.0
 33
0.0
 16
1.0
 26
0.0
 36
0.0
 17
0.0
 27
1.0
 37
0.0
 76
     0
330
23
  0
LAYOUT
  5
22
102
{ACAD_REACTORS
330
1A
102
}
330
1A
100
AcDbPlotSettings
  1

  2
none_device
  4

  6

 40
0.0
 41
0.0
 42
0.0
 43
0.0
 44
0.0
 45
0.0
 46
0.0
 47
0.0
 48
0.0
 49
0.0
140
0.0
141
0.0
142
1.0
143
1.0
 70
  1712
 72
     0
 73
     0
 74
     0
  7

 75
     0
 76
     0
 77
     2
 78
   300
147
1.0
148
0.0
149
0.0
100
AcDbLayout
  1
Model
 70
     1
 71
     0
 10
0.0
 20
0.0
 11
12.0
 21
9.0
 12
0.0
 22
0.0
 32
0.0
 14
1.000000000000000E+20
 24
1.000000000000000E+20
 34
1.000000000000000E+20
 15
-1.000000000000000E+20
 25
-1.000000000000000E+20
 35
-1.000000000000000E+20
146
0.0
 13
0.0
 23
0.0
 33
0.0
 16
1.0
 26
0.0
 36
0.0
 17
0.0
 27
1.0
 37
0.0
 76
     0
330
1F
331
29
  0
MLINESTYLE
  5
18
102
{ACAD_REACTORS
330
17
102
}
330
17
100
AcDbMlineStyle
  2
Standard
 70
     0
  3

 62
   256
 51
90.0
 52
90.0
 71
     2
 49
0.5
 62
   256
  6
BYLAYER
 49
-0.5
 62
   256
  6
BYLAYER
  0
ACDBPLACEHOLDER
  5
F
102
{ACAD_REACTORS
330
E
102
}
330
E
  0
VISUALSTYLE
  5
2F
102
{ACAD_REACTORS
330
2A
102
}
330
2A
100
AcDbVisualStyle
  2
2dWireframe
 70
     4
 71
     0
 72
     2
 73
     0
 90
        0
 40
-0.6
 41
-30.0
 62
     5
 63
     7
421
 16777215
 74
     1
 91
        4
 64
     7
 65
   257
 75
     1
175
     1
 42
1.0
 92
        0
 66
   257
 43
1.0
 76
     1
 77
     6
 78
     2
 67
     7
 79
     5
170
     0
171
     0
290
     0
174
     0
 93
        1
 44
0.0
173
     0
291
     0
 45
0.0
1001
ACAD
1000
AcDbSavedByObjectVersion
1070
     0
  0
VISUALSTYLE
  5
31
102
{ACAD_REACTORS
330
2A
102
}
330
2A
100
AcDbVisualStyle
  2
3D Hidden
 70
     6
 71
     1
 72
     2
 73
     2
 90
        0
 40
-0.6
 41
-30.0
 62
     5
 63
     7
421
 16777215
 74
     2
 91
        2
 64
     7
 65
   257
 75
     2
175
     1
 42
40.0
 92
        0
 66
   257
 43
1.0
 76
     1
 77
     6
 78
     2
 67
     7
 79
     3
170
     0
171
     0
290
     0
174
     0
 93
        1
 44
0.0
173
     0
291
     0
 45
0.0
1001
ACAD
1000
AcDbSavedByObjectVersion
1070
     0
  0
VISUALSTYLE
  5
30
102
{ACAD_REACTORS
330
2A
102
}
330
2A
100
AcDbVisualStyle
  2
3dWireframe
 70
     5
 71
     0
 72
     2
 73
     0
 90
        0
 40
-0.6
 41
-30.0
 62
     5
 63
     7
421
 16777215
 74
     1
 91
        4
 64
     7
 65
   257
 75
     1
175
     1
 42
1.0
 92
        0
 66
   257
 43
1.0
 76
     1
 77
     6
 78
     2
 67
     7
 79
     5
170
     0
171
     0
290
     0
174
     0
 93
        1
 44
0.0
173
     0
291
     0
 45
0.0
1001
ACAD
1000
AcDbSavedByObjectVersion
1070
     0
  0
VISUALSTYLE
  5
32
102
{ACAD_REACTORS
330
2A
102
}
330
2A
100
AcDbVisualStyle
  2
Basic
 70
     7
 71
     1
 72
     0
 73
     1
 90
        0
 40
-0.6
 41
-30.0
 62
     5
 63
     7
421
 16777215
 74
     0
 91
        4
 64
     7
 65
   257
 75
     1
175
     1
 42
1.0
 92
        8
 66
     7
 43
1.0
 76
     1
 77
     6
 78
     2
 67
     7
 79
     5
170
     0
171
     0
290
     0
174
     0
 93
        1
 44
0.0
173
     0
291
     1
 45
0.0
1001
ACAD
1000
AcDbSavedByObjectVersion
1070
     0
  0
VISUALSTYLE
  5
36
102
{ACAD_REACTORS
330
2A
102
}
330
2A
100
AcDbVisualStyle
  2
Brighten
 70
    12
 71
     2
 72
     2
 73
     0
 90
        0
 40
-0.6
 41
-30.0
 62
     5
 63
     7
421
 16777215
 74
     1
 91
        4
 64
     7
 65
   257
 75
     1
175
     1
 42
1.0
 92
        8
 66
     7
 43
1.0
 76
     1
 77
     6
 78
     2
 67
     7
 79
     5
170
     0
171
     0
290
     0
174
     0
 93
        1
 44
50.0
173
     0
291
     1
 45
0.0
1001
ACAD
1000
AcDbSavedByObjectVersion
1070
     0
  0
VISUALSTYLE
  5
3A
102
{ACAD_REACTORS
330
2A
102
}
330
2A
100
AcDbVisualStyle
  2
ColorChange
 70
    16
 71
     2
 72
     2
 73
     3
 90
        0
 40
-0.6
 41
-30.0
 62
     5
 63
     8
421
  8421504
 74
     1
 91
        4
 64
     7
 65
   257
 75
     1
175
     1
 42
1.0
 92
        8
 66
     8
424
  8421504
 43
1.0
 76
     1
 77
     6
 78
     2
 67
     7
 79
     5
170
     0
171
     0
290
     0
174
     0
 93
        1
 44
0.0
173
     0
291
     1
 45
0.0
1001
ACAD
1000
AcDbSavedByObjectVersion
1070
     0
  0
VISUALSTYLE
  5
34
102
{ACAD_REACTORS
330
2A
102
}
330
2A
100
AcDbVisualStyle
  2
Conceptual
 70
     9
 71
     3
 72
     2
 73
     0
 90
        0
 40
-0.6
 41
-30.0
 62
     5
 63
     7
421
 16777215
 74
     2
 91
        2
 64
     7
 65
   257
 75
     1
175
     1
 42
40.0
 92
        8
 66
     7
 43
1.0
 76
     1
 77
     6
 78
     2
 67
     7
 79
     3
170
     0
171
     0
290
     0
174
     0
 93
        1
 44
0.0
173
     0
291
     0
 45
0.0
1001
ACAD
1000
AcDbSavedByObjectVersion
1070
     0
  0
VISUALSTYLE
  5
35
102
{ACAD_REACTORS
330
2A
102
}
330
2A
100
AcDbVisualStyle
  2
Dim
 70
    11
 71
     2
 72
     2
 73
     0
 90
        0
 40
-0.6
 41
-30.0
 62
     5
 63
     7
421
 16777215
 74
     1
 91
        4
 64
     7
 65
   257
 75
     1
175
     1
 42
1.0
 92
        8
 66
     7
 43
1.0
 76
     1
 77
     6
 78
     2
 67
     7
 79
     5
170
     0
171
     0
290
     0
174
     0
 93
        1
 44
-50.0
173
     0
291
     1
 45
0.0
1001
ACAD
1000
AcDbSavedByObjectVersion
1070
     0
  0
VISUALSTYLE
  5
39
102
{ACAD_REACTORS
330
2A
102
}
330
2A
100
AcDbVisualStyle
  2
Facepattern
 70
    15
 71
     2
 72
     2
 73
     0
 90
        0
 40
-0.6
 41
-30.0
 62
     5
 63
     7
421
 16777215
 74
     1
 91
        4
 64
     7
 65
   257
 75
     1
175
     1
 42
1.0
 92
        8
 66
     7
 43
1.0
 76
     1
 77
     6
 78
     2
 67
     7
 79
     5
170
     0
171
     0
290
     0
174
     0
 93
        1
 44
0.0
173
     0
291
     1
 45
0.0
1001
ACAD
1000
AcDbSavedByObjectVersion
1070
     0
  0
VISUALSTYLE
  5
2B
102
{ACAD_REACTORS
330
2A
102
}
330
2A
100
AcDbVisualStyle
  2
Flat
 70
     0
 71
     2
 72
     1
 73
     1
 90
        2
 40
-0.6
 41
30.0
 62
     5
 63
     7
421
 16777215
 74
     0
 91
        4
 64
     7
 65
   257
 75
     1
175
     1
 42
1.0
 92
        8
 66
     7
 43
1.0
 76
     1
 77
     6
 78
     2
 67
     7
 79
     5
170
     0
171
     0
290
     0
174
     0
 93
       13
 44
0.0
173
     0
291
     1
 45
0.0
1001
ACAD
1000
AcDbSavedByObjectVersion
1070
     0
  0
VISUALSTYLE
  5
2C
102
{ACAD_REACTORS
330
2A
102
}
330
2A
100
AcDbVisualStyle
  2
FlatWithEdges
 70
     1
 71
     2
 72
     1
 73
     1
 90
        2
 40
-0.6
 41
30.0
 62
     5
 63
     7
421
 16777215
 74
     1
 91
        4
 64
     7
 65
   257
 75
     1
175
     1
 42
1.0
 92
        0
 66
   257
 43
1.0
 76
     1
 77
     6
 78
     2
 67
     7
 79
     5
170
     0
171
     0
290
     0
174
     0
 93
       13
 44
0.0
173
     0
291
     1
 45
0.0
1001
ACAD
1000
AcDbSavedByObjectVersion
1070
     0
  0
VISUALSTYLE
  5
2D
102
{ACAD_REACTORS
330
2A
102
}
330
2A
100
AcDbVisualStyle
  2
Gouraud
 70
     2
 71
     2
 72
     2
 73
     1
 90
        2
 40
-0.6
 41
30.0
 62
     5
 63
     7
421
 16777215
 74
     0
 91
        4
 64
     7
 65
   257
 75
     1
175
     1
 42
1.0
 92
        0
 66
     7
 43
1.0
 76
     1
 77
     6
 78
     2
 67
     7
 79
     5
170
     0
171
     0
290
     0
174
     0
 93
       13
 44
0.0
173
     0
291
     1
 45
0.0
1001
ACAD
1000
AcDbSavedByObjectVersion
1070
     0
  0
VISUALSTYLE
  5
2E
102
{ACAD_REACTORS
330
2A
102
}
330
2A
100
AcDbVisualStyle
  2
GouraudWithEdges
 70
     3
 71
     2
 72
     2
 73
     1
 90
        2
 40
-0.6
 41
30.0
 62
     5
 63
     7
421
 16777215
 74
     1
 91
        4
 64
     7
 65
   257
 75
     1
175
     1
 42
1.0
 92
        0
 66
   257
 43
1.0
 76
     1
 77
     6
 78
     2
 67
     7
 79
     5
170
     0
171
     0
290
     0
174
     0
 93
       13
 44
0.0
173
     0
291
     1
 45
0.0
1001
ACAD
1000
AcDbSavedByObjectVersion
1070
     0
  0
VISUALSTYLE
  5
38
102
{ACAD_REACTORS
330
2A
102
}
330
2A
100
AcDbVisualStyle
  2
Linepattern
 70
    14
 71
     2
 72
     2
 73
     0
 90
        0
 40
-0.6
 41
-30.0
 62
     5
 63
     7
421
 16777215
 74
     1
 91
        4
 64
     7
 65
   257
 75
     7
175
     7
 42
1.0
 92
        8
 66
     7
 43
1.0
 76
     1
 77
     6
 78
     2
 67
     7
 79
     5
170
     0
171
     0
290
     0
174
     0
 93
        1
 44
0.0
173
     0
291
     1
 45
0.0
1001
ACAD
1000
AcDbSavedByObjectVersion
1070
     0
  0
VISUALSTYLE
  5
33
102
{ACAD_REACTORS
330
2A
102
}
330
2A
100
AcDbVisualStyle
  2
Realistic
 70
     8
 71
     2
 72
     2
 73
     0
 90
        0
 40
-0.6
 41
-30.0
 62
     5
 63
     7
421
 16777215
 74
     1
 91
        0
 64
     7
 65
   257
 75
     1
175
     1
 42
1.0
 92
        8
 66
     8
424
  7895160
 43
1.0
 76
     1
 77
     6
 78
     2
 67
     7
 79
     5
170
     0
171
     0
290
     0
174
     0
 93
       13
 44
0.0
173
     0
291
     0
 45
0.0
1001
ACAD
1000
AcDbSavedByObjectVersion
1070
     0
  0
VISUALSTYLE
  5
37
102
{ACAD_REACTORS
330
2A
102
}
330
2A
100
AcDbVisualStyle
  2
Thicken
 70
    13
 71
     2
 72
     2
 73
     0
 90
        0
 40
-0.6
 41
-30.0
 62
     5
 63
     7
421
 16777215
 74
     1
 91
        4
 64
     7
 65
   257
 75
     1
175
     1
 42
1.0
 92
       12
 66
     7
 43
1.0
 76
     1
 77
     6
 78
     2
 67
     7
 79
     5
170
     0
171
     0
290
     0
174
     0
 93
        1
 44
0.0
173
     0
291
     1
 45
0.0
1001
ACAD
1000
AcDbSavedByObjectVersion
1070
     0
  0
ENDSEC
  0
EOF
