  0
SECTION
  2
HEADER
  9
$ACADVER
  1
AC1018
  9
$ACADMAINTVER
 70
     0
  9
$DWGCODEPAGE
  3
ANSI_1252
  9
$INSBASE
 10
0.0
 20
0.0
 30
0.0
  9
$EXTMIN
 10
1.000000000000000E+20
 20
1.000000000000000E+20
 30
1.000000000000000E+20
  9
$EXTMAX
 10
-1.000000000000000E+20
 20
-1.000000000000000E+20
 30
-1.000000000000000E+20
  9
$LIMMIN
 10
0.0
 20
0.0
  9
$LIMMAX
 10
12.0
 20
9.0
  9
$ORTHOMODE
 70
     0
  9
$REGENMODE
 70
     1
  9
$FILLMODE
 70
     1
  9
$QTEXTMODE
 70
     0
  9
$MIRRTEXT
 70
     1
  9
$LTSCALE
 40
1.0
  9
$ATTMODE
 70
     1
  9
$TEXTSIZE
 40
0.2
  9
$TRACEWID
 40
0.05
  9
$TEXTSTYLE
  7
Standard
  9
$CLAYER
  8
0
  9
$CELTYPE
  6
ByLayer
  9
$CECOLOR
 62
   256
  9
$CELTSCALE
 40
1.0
  9
$DISPSILH
 70
     0
  9
$DIMSCALE
 40
1.0
  9
$DIMASZ
 40
0.18
  9
$DIMEXO
 40
0.0625
  9
$DIMDLI
 40
0.38
  9
$DIMRND
 40
0.0
  9
$DIMDLE
 40
0.0
  9
$DIMEXE
 40
0.18
  9
$DIMTP
 40
0.0
  9
$DIMTM
 40
0.0
  9
$DIMTXT
 40
0.18
  9
$DIMCEN
 40
0.09
  9
$DIMTSZ
 40
0.0
  9
$DIMTOL
 70
     0
  9
$DIMLIM
 70
     0
  9
$DIMTIH
 70
     1
  9
$DIMTOH
 70
     1
  9
$DIMSE1
 70
     0
  9
$DIMSE2
 70
     0
  9
$DIMTAD
 70
     0
  9
$DIMZIN
 70
     0
  9
$DIMBLK
  1

  9
$DIMASO
 70
     1
  9
$DIMSHO
 70
     1
  9
$DIMPOST
  1

  9
$DIMAPOST
  1

  9
$DIMALT
 70
     0
  9
$DIMALTD
 70
     2
  9
$DIMALTF
 40
25.4
  9
$DIMLFAC
 40
1.0
  9
$DIMTOFL
 70
     0
  9
$DIMTVP
 40
0.0
  9
$DIMTIX
 70
     0
  9
$DIMSOXD
 70
     0
  9
$DIMSAH
 70
     0
  9
$DIMBLK1
  1

  9
$DIMBLK2
  1

  9
$DIMSTYLE
  2
Standard
  9
$DIMCLRD
 70
     0
  9
$DIMCLRE
 70
     0
  9
$DIMCLRT
 70
     0
  9
$DIMTFAC
 40
1.0
  9
$DIMGAP
 40
0.09
  9
$DIMJUST
 70
     0
  9
$DIMSD1
 70
     0
  9
$DIMSD2
 70
     0
  9
$DIMTOLJ
 70
     1
  9
$DIMTZIN
 70
     0
  9
$DIMALTZ
 70
     0
  9
$DIMALTTZ
 70
     0
  9
$DIMUPT
 70
     0
  9
$DIMDEC
 70
     4
  9
$DIMTDEC
 70
     4
  9
$DIMALTU
 70
     2
  9
$DIMALTTD
 70
     2
  9
$DIMTXSTY
  7
Standard
  9
$DIMAUNIT
 70
     0
  9
$DIMADEC
 70
     0
  9
$DIMALTRND
 40
0.0
  9
$DIMAZIN
 70
     0
  9
$DIMDSEP
 70
    46
  9
$DIMATFIT
 70
     3
  9
$DIMFRAC
 70
     0
  9
$DIMLDRBLK
  1

  9
$DIMLUNIT
 70
     2
  9
$DIMLWD
 70
    -2
  9
$DIMLWE
 70
    -2
  9
$DIMTMOVE
 70
     0
  9
$LUNITS
 70
     2
  9
$LUPREC
 70
     4
  9
$SKETCHINC
 40
0.1
  9
$FILLETRAD
 40
0.5
  9
$AUNITS
 70
     0
  9
$AUPREC
 70
     0
  9
$MENU
  1
.
  9
$ELEVATION
 40
0.0
  9
$PELEVATION
 40
0.0
  9
$THICKNESS
 40
0.0
  9
$LIMCHECK
 70
     0
  9
$CHAMFERA
 40
0.5
  9
$CHAMFERB
 40
0.5
  9
$CHAMFERC
 40
1.0
  9
$CHAMFERD
 40
0.0
  9
$SKPOLY
 70
     0
  9
$TDCREATE
 40
2458527.684501088
  9
$TDUCREATE
 40
2458527.642834421
  9
$TDUPDATE
 40
2458527.684501099
  9
$TDUUPDATE
 40
2458527.642834433
  9
$TDINDWG
 40
0.0000000116
  9
$TDUSRTIMER
 40
0.0000000116
  9
$USRTIMER
 70
     1
  9
$ANGBASE
 50
0.0
  9
$ANGDIR
 70
     0
  9
$PDMODE
 70
     0
  9
$PDSIZE
 40
0.0
  9
$PLINEWID
 40
0.0
  9
$SPLFRAME
 70
     0
  9
$SPLINETYPE
 70
     6
  9
$SPLINESEGS
 70
     8
  9
$HANDSEED
  5
49
  9
$SURFTAB1
 70
     6
  9
$SURFTAB2
 70
     6
  9
$SURFTYPE
 70
     6
  9
$SURFU
 70
     6
  9
$SURFV
 70
     6
  9
$UCSBASE
  2

  9
$UCSNAME
  2

  9
$UCSORG
 10
0.0
 20
0.0
 30
0.0
  9
$UCSXDIR
 10
1.0
 20
0.0
 30
0.0
  9
$UCSYDIR
 10
0.0
 20
1.0
 30
0.0
  9
$UCSORTHOREF
  2

  9
$UCSORTHOVIEW
 70
     0
  9
$UCSORGTOP
 10
0.0
 20
0.0
 30
0.0
  9
$UCSORGBOTTOM
 10
0.0
 20
0.0
 30
0.0
  9
$UCSORGLEFT
 10
0.0
 20
0.0
 30
0.0
  9
$UCSORGRIGHT
 10
0.0
 20
0.0
 30
0.0
  9
$UCSORGFRONT
 10
0.0
 20
0.0
 30
0.0
  9
$UCSORGBACK
 10
0.0
 20
0.0
 30
0.0
  9
$PUCSBASE
  2

  9
$PUCSNAME
  2

  9
$PUCSORG
 10
0.0
 20
0.0
 30
0.0
  9
$PUCSXDIR
 10
1.0
 20
0.0
 30
0.0
  9
$PUCSYDIR
 10
0.0
 20
1.0
 30
0.0
  9
$PUCSORTHOREF
  2

  9
$PUCSORTHOVIEW
 70
     0
  9
$PUCSORGTOP
 10
0.0
 20
0.0
 30
0.0
  9
$PUCSORGBOTTOM
 10
0.0
 20
0.0
 30
0.0
  9
$PUCSORGLEFT
 10
0.0
 20
0.0
 30
0.0
  9
$PUCSORGRIGHT
 10
0.0
 20
0.0
 30
0.0
  9
$PUCSORGFRONT
 10
0.0
 20
0.0
 30
0.0
  9
$PUCSORGBACK
 10
0.0
 20
0.0
 30
0.0
  9
$USERI1
 70
     0
  9
$USERI2
 70
     0
  9
$USERI3
 70
     0
  9
$USERI4
 70
     0
  9
$USERI5
 70
     0
  9
$USERR1
 40
0.0
  9
$USERR2
 40
0.0
  9
$USERR3
 40
0.0
  9
$USERR4
 40
0.0
  9
$USERR5
 40
0.0
  9
$WORLDVIEW
 70
     1
  9
$SHADEDGE
 70
     3
  9
$SHADEDIF
 70
    70
  9
$TILEMODE
 70
     1
  9
$MAXACTVP
 70
    64
  9
$PINSBASE
 10
0.0
 20
0.0
 30
0.0
  9
$PLIMCHECK
 70
     0
  9
$PEXTMIN
 10
1.000000000000000E+20
 20
1.000000000000000E+20
 30
1.000000000000000E+20
  9
$PEXTMAX
 10
-1.000000000000000E+20
 20
-1.000000000000000E+20
 30
-1.000000000000000E+20
  9
$PLIMMIN
 10
0.0
 20
0.0
  9
$PLIMMAX
 10
12.0
 20
9.0
  9
$UNITMODE
 70
     0
  9
$VISRETAIN
 70
     1
  9
$PLINEGEN
 70
     0
  9
$PSLTSCALE
 70
     1
  9
$TREEDEPTH
 70
  3020
  9
$CMLSTYLE
  2
Standard
  9
$CMLJUST
 70
     0
  9
$CMLSCALE
 40
1.0
  9
$PROXYGRAPHICS
 70
     1
  9
$MEASUREMENT
 70
     0
  9
$CELWEIGHT
370
    -1
  9
$ENDCAPS
280
     0
  9
$JOINSTYLE
280
     0
  9
$LWDISPLAY
290
     1
  9
$INSUNITS
 70
     1
  9
$HYPERLINKBASE
  1

  9
$STYLESHEET
  1

  9
$XEDIT
290
     1
  9
$CEPSNTYPE
380
     0
  9
$PSTYLEMODE
290
     1
  9
$FINGERPRINTGUID
  2
{056E706D-A945-4025-96FE-52C3A36089D6}
  9
$VERSIONGUID
  2
{FAEB1C32-E019-11D5-929B-00C0DF256EC4}
  9
$EXTNAMES
290
     1
  9
$PSVPSCALE
 40
0.0
  9
$OLESTARTUP
290
     0
  9
$SORTENTS
280
   127
  9
$INDEXCTL
280
     0
  9
$HIDETEXT
280
     1
  9
$XCLIPFRAME
290
     0
  9
$HALOGAP
280
     0
  9
$OBSCOLOR
 70
   257
  9
$OBSLTYPE
280
     0
  9
$INTERSECTIONDISPLAY
280
     0
  9
$INTERSECTIONCOLOR
 70
   257
  9
$DIMASSOC
280
     2
  9
$PROJECTNAME
  1

  0
ENDSEC
  0
SECTION
  2
CLASSES
  0
CLASS
  1
ACDBDICTIONARYWDFLT
  2
AcDbDictionaryWithDefault
  3
ObjectDBX Classes
 90
        0
 91
        3
280
     0
281
     0
  0
CLASS
  1
VISUALSTYLE
  2
AcDbVisualStyle
  3
ObjectDBX Classes
 90
     4095
 91
        3
280
     0
281
     0
  0
ENDSEC
  0
SECTION
  2
TABLES
  0
TABLE
  2
VPORT
  5
8
330
0
100
AcDbSymbolTable
 70
     1
  0
VPORT
  5
29
330
8
100
AcDbSymbolTableRecord
100
AcDbViewportTableRecord
  2
*Active
 70
     0
 10
0.0
 20
0.0
 11
1.0
 21
1.0
 12
0.0
 22
0.0
 13
0.0
 23
0.0
 14
0.5
 24
0.5
 15
0.5
 25
0.5
 16
0.0
 26
0.0
 36
1.0
 17
500.0008326657983
 27
-500.0008326657983
 37
0.0
 40
1000.001665331597
 41
1.0
 42
50.0
 43
0.0
 44
0.0
 50
0.0
 51
0.0
 71
     0
 72
   100
 73
     1
 74
     3
 75
     0
 76
     0
 77
     0
 78
     0
281
     0
 65
     1
110
0.0
120
0.0
130
0.0
111
1.0
121
0.0
131
0.0
112
0.0
122
1.0
132
0.0
 79
     0
146
0.0
  0
ENDTAB
  0
TABLE
  2
LTYPE
  5
5
330
0
100
AcDbSymbolTable
 70
     1
  0
LTYPE
  5
14
330
5
100
AcDbSymbolTableRecord
100
AcDbLinetypeTableRecord
  2
ByBlock
 70
     0
  3

 72
    65
 73
     0
 40
0.0
  0
LTYPE
  5
15
330
5
100
AcDbSymbolTableRecord
100
AcDbLinetypeTableRecord
  2
ByLayer
 70
     0
  3

 72
    65
 73
     0
 40
0.0
  0
LTYPE
  5
16
330
5
100
AcDbSymbolTableRecord
100
AcDbLinetypeTableRecord
  2
Continuous
 70
     0
  3
Solid line
 72
    65
 73
     0
 40
0.0
  0
ENDTAB
  0
TABLE
  2
LAYER
  5
2
330
0
100
AcDbSymbolTable
 70
     2
  0
LAYER
  5
10
330
2
100
AcDbSymbolTableRecord
100
AcDbLayerTableRecord
  2
0
 70
     0
 62
     7
  6
Continuous
370
    -3
390
F
  0
LAYER
  5
3B
330
2
100
AcDbSymbolTableRecord
100
AcDbLayerTableRecord
  2
Layer 1
 70
     0
 62
     7
  6
Continuous
370
    -3
390
F
  0
ENDTAB
  0
TABLE
  2
STYLE
  5
3
330
0
100
AcDbSymbolTable
 70
     1
  0
STYLE
  5
11
330
3
100
AcDbSymbolTableRecord
100
AcDbTextStyleTableRecord
  2
Standard
 70
     0
 40
0.0
 41
1.0
 50
0.0
 71
     0
 42
0.2
  3
txt
  4

  0
ENDTAB
  0
TABLE
  2
VIEW
  5
6
330
0
100
AcDbSymbolTable
 70
     0
  0
ENDTAB
  0
TABLE
  2
UCS
  5
7
330
0
100
AcDbSymbolTable
 70
     0
  0
ENDTAB
  0
TABLE
  2
APPID
  5
9
330
0
100
AcDbSymbolTable
 70
     1
  0
APPID
  5
12
330
9
100
AcDbSymbolTableRecord
100
AcDbRegAppTableRecord
  2
ACAD
 70
     0
  0
ENDTAB
  0
TABLE
  2
DIMSTYLE
  5
A
330
0
100
AcDbSymbolTable
 70
     1
100
AcDbDimStyleTable
  0
DIMSTYLE
105
27
330
A
100
AcDbSymbolTableRecord
100
AcDbDimStyleTableRecord
  2
Standard
 70
     0
340
11
  0
ENDTAB
  0
TABLE
  2
BLOCK_RECORD
  5
1
330
0
100
AcDbSymbolTable
 70
     1
  0
BLOCK_RECORD
  5
1F
330
1
100
AcDbSymbolTableRecord
100
AcDbBlockTableRecord
  2
*Model_Space
340
22
  0
BLOCK_RECORD
  5
1B
330
1
100
AcDbSymbolTableRecord
100
AcDbBlockTableRecord
  2
*Paper_Space
340
1E
  0
BLOCK_RECORD
  5
23
330
1
100
AcDbSymbolTableRecord
100
AcDbBlockTableRecord
  2
*Paper_Space0
340
26
  0
ENDTAB
  0
ENDSEC
  0
SECTION
  2
BLOCKS
  0
BLOCK
  5
20
330
1F
100
AcDbEntity
  8
0
100
AcDbBlockBegin
  2
*Model_Space
 70
     0
 71
     0
 10
0.0
 20
0.0
 30
0.0
  3
*Model_Space
  1

  0
ENDBLK
  5
21
330
1F
100
AcDbEntity
  8
0
100
AcDbBlockEnd
  0
BLOCK
  5
1C
330
1B
100
AcDbEntity
 67
     1
  8
0
100
AcDbBlockBegin
  2
*Paper_Space
 70
     0
 71
     0
 10
0.0
 20
0.0
 30
0.0
  3
*Paper_Space
  1

  0
ENDBLK
  5
1D
330
1B
100
AcDbEntity
 67
     1
  8
0
100
AcDbBlockEnd
  0
BLOCK
  5
24
330
23
100
AcDbEntity
  8
0
100
AcDbBlockBegin
  2
*Paper_Space0
 70
     0
 71
     0
 10
0.0
 20
0.0
 30
0.0
  3
*Paper_Space0
  1

  0
ENDBLK
  5
25
330
23
100
AcDbEntity
  8
0
100
AcDbBlockEnd
  0
ENDSEC
  0
SECTION
  2
ENTITIES
  0
SPLINE
  5
3C
330
1F
100
AcDbEntity
  8
Layer 1
 62
   250
420
  1908252
370
    13
100
AcDbSpline
210
0.0
220
0.0
230
1.0
 70
    11
 71
     3
 72
    17
 73
    13
 74
     0
 42
0.0000000001
 43
0.0000000001
 40
0.0
 40
0.0
 40
0.0
 40
0.0
 40
1.0
 40
1.0
 40
1.0
 40
2.0
 40
2.0
 40
2.0
 40
3.0
 40
3.0
 40
3.0
 40
4.0
 40
4.0
 40
4.0
 40
4.0
 10
478.097604589677
 20
-523.8343477423052
 30
0.0
 10
478.097604589677
 20
-522.2602836150946
 30
0.0
 10
476.8218857314889
 20
-520.9845647569066
 30
0.0
 10
475.247649349504
 20
-520.9845647569066
 30
0.0
 10
473.6734129675191
 20
-520.9845647569066
 30
0.0
 10
472.3976941093311
 20
-522.2602836150946
 30
0.0
 10
472.3976941093311
 20
-523.8343477423052
 30
0.0
 10
472.3976941093311
 20
-525.4087563790645
 30
0.0
 10
473.6734129675191
 20
-526.6844752372524
 30
0.0
 10
475.247649349504
 20
-526.6844752372524
 30
0.0
 10
476.8218857314889
 20
-526.6844752372524
 30
0.0
 10
478.097604589677
 20
-525.4087563790645
 30
0.0
 10
478.097604589677
 20
-523.8343477423052
 30
0.0
  0
SPLINE
  5
3D
330
1F
100
AcDbEntity
  8
Layer 1
 62
   250
420
  1908252
370
    13
100
AcDbSpline
210
0.0
220
0.0
230
1.0
 70
    11
 71
     3
 72
    98
 73
    94
 74
     0
 42
0.0000000001
 43
0.0000000001
 40
0.0
 40
0.0
 40
0.0
 40
0.0
 40
1.0
 40
1.0
 40
1.0
 40
2.0
 40
2.0
 40
2.0
 40
3.0
 40
3.0
 40
3.0
 40
4.0
 40
4.0
 40
4.0
 40
5.0
 40
5.0
 40
5.0
 40
6.0
 40
6.0
 40
6.0
 40
7.0
 40
7.0
 40
7.0
 40
8.0
 40
8.0
 40
8.0
 40
9.0
 40
9.0
 40
9.0
 40
10.0
 40
10.0
 40
10.0
 40
11.0
 40
11.0
 40
11.0
 40
12.0
 40
12.0
 40
12.0
 40
13.0
 40
13.0
 40
13.0
 40
14.0
 40
14.0
 40
14.0
 40
15.0
 40
15.0
 40
15.0
 40
16.0
 40
16.0
 40
16.0
 40
17.0
 40
17.0
 40
17.0
 40
18.0
 40
18.0
 40
18.0
 40
19.0
 40
19.0
 40
19.0
 40
20.0
 40
20.0
 40
20.0
 40
21.0
 40
21.0
 40
21.0
 40
22.0
 40
22.0
 40
22.0
 40
23.0
 40
23.0
 40
23.0
 40
24.0
 40
24.0
 40
24.0
 40
25.0
 40
25.0
 40
25.0
 40
26.0
 40
26.0
 40
26.0
 40
27.0
 40
27.0
 40
27.0
 40
28.0
 40
28.0
 40
28.0
 40
29.0
 40
29.0
 40
29.0
 40
30.0
 40
30.0
 40
30.0
 40
31.0
 40
31.0
 40
31.0
 40
31.0
 10
483.6688407536487
 20
-518.453108594345
 30
0.0
 10
483.6688407536487
 20
-518.453108594345
 30
0.0
 10
483.5124334186183
 20
-517.019259853384
 30
0.0
 10
483.5124334186183
 20
-517.019259853384
 30
0.0
 10
483.9017292084516
 20
-516.6299640635508
 30
0.0
 10
483.9017292084516
 20
-515.9946884560707
 30
0.0
 10
483.5124334186183
 20
-515.6040146280434
 30
0.0
 10
483.5124334186183
 20
-515.6040146280434
 30
0.0
 10
479.977076431655
 20
-512.06865764108
 30
0.0
 10
479.977076431655
 20
-512.06865764108
 30
0.0
 10
479.5877806418217
 20
-511.6793618512468
 30
0.0
 10
479.5877806418217
 20
-511.0447752628638
 30
0.0
 10
479.977076431655
 20
-510.6534124157394
 30
0.0
 10
479.977076431655
 20
-510.6534124157394
 30
0.0
 10
478.2896686629796
 20
-466.3074543105064
 30
0.0
 10
478.2896686629796
 20
-466.3074543105064
 30
0.0
 10
478.8753348954721
 20
-466.4356118625577
 30
0.0
 10
479.4734034717114
 20
-466.2819606039156
 30
0.0
 10
479.9481376295789
 20
-465.8072264460482
 30
0.0
 10
480.9210325946135
 20
-464.8350205001107
 30
0.0
 10
480.5586085495652
 20
-463.3453612122886
 30
0.0
 10
479.1454303815157
 20
-462.495800665626
 30
0.0
 10
479.1454303815157
 20
-462.495800665626
 30
0.0
 10
477.6530150173054
 20
-461.6014538776552
 30
0.0
 10
477.6530150173054
 20
-461.6014538776552
 30
0.0
 10
478.0319755206829
 20
-461.6283256224401
 30
0.0
 10
478.4102470049634
 20
-461.5428872544059
 30
0.0
 10
478.7161714840535
 20
-461.3175780096706
 30
0.0
 10
479.4334403640826
 20
-460.7911674195244
 30
0.0
 10
479.1654119353301
 20
-459.9843260568788
 30
0.0
 10
478.1215480032994
 20
-459.5247503191466
 30
0.0
 10
478.1215480032994
 20
-459.5247503191466
 30
0.0
 10
476.7448878473936
 20
-458.9184135137426
 30
0.0
 10
476.7448878473936
 20
-458.9184135137426
 30
0.0
 10
476.7448878473936
 20
-458.9184135137426
 30
0.0
 10
476.7448878473936
 20
-454.8904078723884
 30
0.0
 10
476.7448878473936
 20
-454.8904078723884
 30
0.0
 10
476.7448878473936
 20
-454.3398816138455
 30
0.0
 10
476.2970254343111
 20
-453.890641162569
 30
0.0
 10
475.7451211375741
 20
-453.890641162569
 30
0.0
 10
475.7451211375741
 20
-453.890641162569
 30
0.0
 10
474.7446654086575
 20
-453.890641162569
 30
0.0
 10
474.7446654086575
 20
-453.890641162569
 30
0.0
 10
474.1941391501146
 20
-453.890641162569
 30
0.0
 10
473.744898698838
 20
-454.3398816138455
 30
0.0
 10
473.744898698838
 20
-454.8904078723884
 30
0.0
 10
473.744898698838
 20
-454.8904078723884
 30
0.0
 10
473.744898698838
 20
-458.9184135137426
 30
0.0
 10
473.744898698838
 20
-458.9184135137426
 30
0.0
 10
473.744898698838
 20
-458.9184135137426
 30
0.0
 10
472.3689275620292
 20
-459.5247503191466
 30
0.0
 10
472.3689275620292
 20
-459.5247503191466
 30
0.0
 10
471.3250636299986
 20
-459.9843260568788
 30
0.0
 10
471.0570352012461
 20
-460.7911674195244
 30
0.0
 10
471.7736150621781
 20
-461.3182670287676
 30
0.0
 10
472.0802285603653
 20
-461.5428872544059
 30
0.0
 10
472.4578110255487
 20
-461.6283256224401
 30
0.0
 10
472.8374605480232
 20
-461.6014538776552
 30
0.0
 10
472.8374605480232
 20
-461.6014538776552
 30
0.0
 10
471.3464232220071
 20
-462.495800665626
 30
0.0
 10
471.3464232220071
 20
-462.495800665626
 30
0.0
 10
469.9304889775694
 20
-463.3446721931916
 30
0.0
 10
469.5694429707152
 20
-464.8350205001107
 30
0.0
 10
470.5416489166527
 20
-465.8072264460482
 30
0.0
 10
471.0184501318113
 20
-466.2826496230126
 30
0.0
 10
471.6144516507595
 20
-466.4363008816547
 30
0.0
 10
472.200806902349
 20
-466.3074543105064
 30
0.0
 10
472.200806902349
 20
-466.3074543105064
 30
0.0
 10
470.5140881527707
 20
-510.6534124157394
 30
0.0
 10
470.5140881527707
 20
-510.6534124157394
 30
0.0
 10
470.903383942604
 20
-511.0433972246697
 30
0.0
 10
470.903383942604
 20
-511.6772947939556
 30
0.0
 10
470.5140881527707
 20
-512.0679686219829
 30
0.0
 10
470.5140881527707
 20
-512.0679686219829
 30
0.0
 10
466.9787311658073
 20
-515.6033256089463
 30
0.0
 10
466.9787311658073
 20
-515.6033256089463
 30
0.0
 10
466.5894353759741
 20
-515.9926213987795
 30
0.0
 10
466.5894353759741
 20
-516.6285860253566
 30
0.0
 10
466.9787311658073
 20
-517.0171927960929
 30
0.0
 10
466.9787311658073
 20
-517.0171927960929
 30
0.0
 10
466.823012849874
 20
-518.4510415370538
 30
0.0
 10
466.823012849874
 20
-518.4510415370538
 30
0.0
 10
465.8280692737339
 20
-520.0054686199986
 30
0.0
 10
465.2465371558237
 20
-521.8520398000925
 30
0.0
 10
465.2465371558237
 20
-523.8350367614023
 30
0.0
 10
465.2465371558237
 20
-529.3582138433549
 30
0.0
 10
469.7230942293573
 20
-533.8368379741796
 30
0.0
 10
475.2483383686011
 20
-533.8368379741796
 30
0.0
 10
480.7694483932625
 20
-533.8368379741796
 30
0.0
 10
485.2487615431843
 20
-529.3609699197431
 30
0.0
 10
485.2487615431843
 20
-523.8350367614023
 30
0.0
 10
485.244627428602
 20
-521.8541068573836
 30
0.0
 10
484.665162367983
 20
-520.0075356772898
 30
0.0
 10
483.6688407536487
 20
-518.453108594345
 30
0.0
  0
SPLINE
  5
3E
330
1F
100
AcDbEntity
  8
Layer 1
 62
   250
420
  1908252
370
    13
100
AcDbSpline
210
0.0
220
0.0
230
1.0
 70
    11
 71
     3
 72
    35
 73
    31
 74
     0
 42
0.0000000001
 43
0.0000000001
 40
0.0
 40
0.0
 40
0.0
 40
0.0
 40
1.0
 40
1.0
 40
1.0
 40
2.0
 40
2.0
 40
2.0
 40
3.0
 40
3.0
 40
3.0
 40
4.0
 40
4.0
 40
4.0
 40
5.0
 40
5.0
 40
5.0
 40
6.0
 40
6.0
 40
6.0
 40
7.0
 40
7.0
 40
7.0
 40
8.0
 40
8.0
 40
8.0
 40
9.0
 40
9.0
 40
9.0
 40
10.0
 40
10.0
 40
10.0
 40
10.0
 10
499.7248805174298
 20
-514.2073729183231
 30
0.0
 10
499.7248805174298
 20
-514.2073729183231
 30
0.0
 10
498.4749998753812
 20
-453.349933426159
 30
0.0
 10
498.4749998753812
 20
-453.349933426159
 30
0.0
 10
498.4749998753812
 20
-453.349933426159
 30
0.0
 10
495.9752385912839
 20
-453.349933426159
 30
0.0
 10
495.9752385912839
 20
-453.349933426159
 30
0.0
 10
495.9752385912839
 20
-453.349933426159
 30
0.0
 10
494.7253579492353
 20
-514.2073729183231
 30
0.0
 10
494.7253579492353
 20
-514.2073729183231
 30
0.0
 10
490.4120984017025
 20
-515.3173826836706
 30
0.0
 10
487.2253850778464
 20
-519.2330782122056
 30
0.0
 10
487.2253850778464
 20
-523.8922253464574
 30
0.0
 10
487.2253850778464
 20
-528.5520614998063
 30
0.0
 10
490.4120984017025
 20
-532.4684460474384
 30
0.0
 10
494.7253579492353
 20
-533.5777667936889
 30
0.0
 10
494.7253579492353
 20
-533.5777667936889
 30
0.0
 10
494.9747828623674
 20
-540.8117782936164
 30
0.0
 10
494.9747828623674
 20
-540.8117782936164
 30
0.0
 10
494.9747828623674
 20
-540.8117782936164
 30
0.0
 10
499.4747665852007
 20
-540.8117782936164
 30
0.0
 10
499.4747665852007
 20
-540.8117782936164
 30
0.0
 10
499.4747665852007
 20
-540.8117782936164
 30
0.0
 10
499.7248805174298
 20
-533.5777667936889
 30
0.0
 10
499.7248805174298
 20
-533.5777667936889
 30
0.0
 10
504.0388290840597
 20
-532.4684460474384
 30
0.0
 10
507.2255424079158
 20
-528.5520614998063
 30
0.0
 10
507.2255424079158
 20
-523.8922253464574
 30
0.0
 10
507.2255424079158
 20
-519.2323891931085
 30
0.0
 10
504.0381400649626
 20
-515.3173826836706
 30
0.0
 10
499.7248805174298
 20
-514.2073729183231
 30
0.0
  0
SPLINE
  5
3F
330
1F
100
AcDbEntity
  8
Layer 1
 62
   250
420
  1908252
370
    13
100
AcDbSpline
210
0.0
220
0.0
230
1.0
 70
    11
 71
     3
 72
    17
 73
    13
 74
     0
 42
0.0000000001
 43
0.0000000001
 40
0.0
 40
0.0
 40
0.0
 40
0.0
 40
1.0
 40
1.0
 40
1.0
 40
2.0
 40
2.0
 40
2.0
 40
3.0
 40
3.0
 40
3.0
 40
4.0
 40
4.0
 40
4.0
 40
4.0
 10
500.0857542695098
 20
-523.8343477423052
 30
0.0
 10
500.0857542695098
 20
-522.2602836150946
 30
0.0
 10
498.8098631565475
 20
-520.9845647569066
 30
0.0
 10
497.2357990293368
 20
-520.9845647569066
 30
0.0
 10
495.6617349021262
 20
-520.9845647569066
 30
0.0
 10
494.3858437891639
 20
-522.2602836150946
 30
0.0
 10
494.3858437891639
 20
-523.8343477423052
 30
0.0
 10
494.3858437891639
 20
-525.4087563790645
 30
0.0
 10
495.6617349021262
 20
-526.6844752372524
 30
0.0
 10
497.2357990293368
 20
-526.6844752372524
 30
0.0
 10
498.8098631565475
 20
-526.6844752372524
 30
0.0
 10
500.0857542695098
 20
-525.4087563790645
 30
0.0
 10
500.0857542695098
 20
-523.8343477423052
 30
0.0
  0
SPLINE
  5
40
330
1F
100
AcDbEntity
  8
Layer 1
 62
   250
420
  1908252
370
    13
100
AcDbSpline
210
0.0
220
0.0
230
1.0
 70
    11
 71
     3
 72
    17
 73
    13
 74
     0
 42
0.0000000001
 43
0.0000000001
 40
0.0
 40
0.0
 40
0.0
 40
0.0
 40
1.0
 40
1.0
 40
1.0
 40
2.0
 40
2.0
 40
2.0
 40
3.0
 40
3.0
 40
3.0
 40
4.0
 40
4.0
 40
4.0
 40
4.0
 10
524.354557160578
 20
-523.8343477423052
 30
0.0
 10
524.354557160578
 20
-522.2602836150946
 30
0.0
 10
523.07883830239
 20
-520.9845647569066
 30
0.0
 10
521.5047741751793
 20
-520.9845647569066
 30
0.0
 10
519.9303655384201
 20
-520.9845647569066
 30
0.0
 10
518.6546466802321
 20
-522.2602836150946
 30
0.0
 10
518.6546466802321
 20
-523.8343477423052
 30
0.0
 10
518.6546466802321
 20
-525.4087563790645
 30
0.0
 10
519.9303655384201
 20
-526.6844752372524
 30
0.0
 10
521.5047741751793
 20
-526.6844752372524
 30
0.0
 10
523.07883830239
 20
-526.6844752372524
 30
0.0
 10
524.354557160578
 20
-525.4087563790645
 30
0.0
 10
524.354557160578
 20
-523.8343477423052
 30
0.0
  0
SPLINE
  5
41
330
1F
100
AcDbEntity
  8
Layer 1
 62
   250
420
  1908252
370
    13
100
AcDbSpline
210
0.0
220
0.0
230
1.0
 70
    11
 71
     3
 72
    98
 73
    94
 74
     0
 42
0.0000000001
 43
0.0000000001
 40
0.0
 40
0.0
 40
0.0
 40
0.0
 40
1.0
 40
1.0
 40
1.0
 40
2.0
 40
2.0
 40
2.0
 40
3.0
 40
3.0
 40
3.0
 40
4.0
 40
4.0
 40
4.0
 40
5.0
 40
5.0
 40
5.0
 40
6.0
 40
6.0
 40
6.0
 40
7.0
 40
7.0
 40
7.0
 40
8.0
 40
8.0
 40
8.0
 40
9.0
 40
9.0
 40
9.0
 40
10.0
 40
10.0
 40
10.0
 40
11.0
 40
11.0
 40
11.0
 40
12.0
 40
12.0
 40
12.0
 40
13.0
 40
13.0
 40
13.0
 40
14.0
 40
14.0
 40
14.0
 40
15.0
 40
15.0
 40
15.0
 40
16.0
 40
16.0
 40
16.0
 40
17.0
 40
17.0
 40
17.0
 40
18.0
 40
18.0
 40
18.0
 40
19.0
 40
19.0
 40
19.0
 40
20.0
 40
20.0
 40
20.0
 40
21.0
 40
21.0
 40
21.0
 40
22.0
 40
22.0
 40
22.0
 40
23.0
 40
23.0
 40
23.0
 40
24.0
 40
24.0
 40
24.0
 40
25.0
 40
25.0
 40
25.0
 40
26.0
 40
26.0
 40
26.0
 40
27.0
 40
27.0
 40
27.0
 40
28.0
 40
28.0
 40
28.0
 40
29.0
 40
29.0
 40
29.0
 40
30.0
 40
30.0
 40
30.0
 40
31.0
 40
31.0
 40
31.0
 40
31.0
 10
529.925965579324
 20
-518.453108594345
 30
0.0
 10
529.925965579324
 20
-518.453108594345
 30
0.0
 10
529.7695582442936
 20
-517.019259853384
 30
0.0
 10
529.7695582442936
 20
-517.019259853384
 30
0.0
 10
530.1588540341269
 20
-516.6299640635508
 30
0.0
 10
530.1588540341269
 20
-515.9946884560707
 30
0.0
 10
529.7695582442936
 20
-515.6040146280434
 30
0.0
 10
529.7695582442936
 20
-515.6040146280434
 30
0.0
 10
526.2342012573303
 20
-512.06865764108
 30
0.0
 10
526.2342012573303
 20
-512.06865764108
 30
0.0
 10
525.844905467497
 20
-511.6793618512468
 30
0.0
 10
525.844905467497
 20
-511.0447752628638
 30
0.0
 10
526.2342012573303
 20
-510.6534124157394
 30
0.0
 10
526.2342012573303
 20
-510.6534124157394
 30
0.0
 10
524.5467934886549
 20
-466.3074543105064
 30
0.0
 10
524.5467934886549
 20
-466.3074543105064
 30
0.0
 10
525.1324597211474
 20
-466.4356118625577
 30
0.0
 10
525.7305282973867
 20
-466.2819606039156
 30
0.0
 10
526.2052624552542
 20
-465.8072264460482
 30
0.0
 10
527.1781574202887
 20
-464.8350205001107
 30
0.0
 10
526.8157333752405
 20
-463.3453612122886
 30
0.0
 10
525.402555207191
 20
-462.495800665626
 30
0.0
 10
525.402555207191
 20
-462.495800665626
 30
0.0
 10
523.9101398429807
 20
-461.6014538776552
 30
0.0
 10
523.9101398429807
 20
-461.6014538776552
 30
0.0
 10
524.2891003463582
 20
-461.6283256224401
 30
0.0
 10
524.6673718306387
 20
-461.5428872544059
 30
0.0
 10
524.9732963097289
 20
-461.3175780096706
 30
0.0
 10
525.6905651897579
 20
-460.7911674195244
 30
0.0
 10
525.4225367610054
 20
-459.9843260568788
 30
0.0
 10
524.3786728289747
 20
-459.5247503191466
 30
0.0
 10
524.3786728289747
 20
-459.5247503191466
 30
0.0
 10
523.0020126730689
 20
-458.9184135137426
 30
0.0
 10
523.0020126730689
 20
-458.9184135137426
 30
0.0
 10
523.0020126730689
 20
-458.9184135137426
 30
0.0
 10
523.0020126730689
 20
-454.8904078723884
 30
0.0
 10
523.0020126730689
 20
-454.8904078723884
 30
0.0
 10
523.0020126730689
 20
-454.3398816138455
 30
0.0
 10
522.5541502599864
 20
-453.890641162569
 30
0.0
 10
522.0022459632494
 20
-453.890641162569
 30
0.0
 10
522.0022459632494
 20
-453.890641162569
 30
0.0
 10
521.0017902343328
 20
-453.890641162569
 30
0.0
 10
521.0017902343328
 20
-453.890641162569
 30
0.0
 10
520.4512639757899
 20
-453.890641162569
 30
0.0
 10
520.0020235245133
 20
-454.3398816138455
 30
0.0
 10
520.0020235245133
 20
-454.8904078723884
 30
0.0
 10
520.0020235245133
 20
-454.8904078723884
 30
0.0
 10
520.0020235245133
 20
-458.9184135137426
 30
0.0
 10
520.0020235245133
 20
-458.9184135137426
 30
0.0
 10
520.0020235245133
 20
-458.9184135137426
 30
0.0
 10
518.6260523877046
 20
-459.5247503191466
 30
0.0
 10
518.6260523877046
 20
-459.5247503191466
 30
0.0
 10
517.5821884556739
 20
-459.9843260568788
 30
0.0
 10
517.3141600269214
 20
-460.7911674195244
 30
0.0
 10
518.0307398878533
 20
-461.3182670287676
 30
0.0
 10
518.3373533860406
 20
-461.5428872544059
 30
0.0
 10
518.714935851224
 20
-461.6283256224401
 30
0.0
 10
519.0945853736985
 20
-461.6014538776552
 30
0.0
 10
519.0945853736985
 20
-461.6014538776552
 30
0.0
 10
517.6035480476824
 20
-462.495800665626
 30
0.0
 10
517.6035480476824
 20
-462.495800665626
 30
0.0
 10
516.1876138032447
 20
-463.3446721931916
 30
0.0
 10
515.8265677963906
 20
-464.8350205001107
 30
0.0
 10
516.7987737423281
 20
-465.8072264460482
 30
0.0
 10
517.2755749574866
 20
-466.2826496230126
 30
0.0
 10
517.8715764764348
 20
-466.4363008816547
 30
0.0
 10
518.4579317280244
 20
-466.3074543105064
 30
0.0
 10
518.4579317280244
 20
-466.3074543105064
 30
0.0
 10
516.771212978446
 20
-510.6534124157394
 30
0.0
 10
516.771212978446
 20
-510.6534124157394
 30
0.0
 10
517.1605087682792
 20
-511.0433972246697
 30
0.0
 10
517.1605087682792
 20
-511.6772947939556
 30
0.0
 10
516.771212978446
 20
-512.0679686219829
 30
0.0
 10
516.771212978446
 20
-512.0679686219829
 30
0.0
 10
513.2358559914826
 20
-515.6033256089463
 30
0.0
 10
513.2358559914826
 20
-515.6033256089463
 30
0.0
 10
512.8465602016494
 20
-515.9926213987795
 30
0.0
 10
512.8465602016494
 20
-516.6285860253566
 30
0.0
 10
513.2358559914826
 20
-517.0171927960929
 30
0.0
 10
513.2358559914826
 20
-517.0171927960929
 30
0.0
 10
513.0801376755494
 20
-518.4510415370538
 30
0.0
 10
513.0801376755494
 20
-518.4510415370538
 30
0.0
 10
512.0851940994093
 20
-520.0054686199986
 30
0.0
 10
511.503661981499
 20
-521.8520398000925
 30
0.0
 10
511.503661981499
 20
-523.8350367614023
 30
0.0
 10
511.503661981499
 20
-529.3582138433549
 30
0.0
 10
515.9802190550326
 20
-533.8368379741796
 30
0.0
 10
521.5054631942763
 20
-533.8368379741796
 30
0.0
 10
527.0265732189378
 20
-533.8368379741796
 30
0.0
 10
531.5058863688596
 20
-529.3609699197431
 30
0.0
 10
531.5058863688596
 20
-523.8350367614023
 30
0.0
 10
531.5017522542773
 20
-521.8541068573836
 30
0.0
 10
530.9222871936582
 20
-520.0075356772898
 30
0.0
 10
529.925965579324
 20
-518.453108594345
 30
0.0
  0
SPLINE
  5
42
330
1F
100
AcDbEntity
  8
Layer 1
 62
   250
420
  1908252
370
    13
100
AcDbSpline
210
0.0
220
0.0
230
1.0
 70
    11
 71
     3
 72
    35
 73
    31
 74
     0
 42
0.0000000001
 43
0.0000000001
 40
0.0
 40
0.0
 40
0.0
 40
0.0
 40
1.0
 40
1.0
 40
1.0
 40
2.0
 40
2.0
 40
2.0
 40
3.0
 40
3.0
 40
3.0
 40
4.0
 40
4.0
 40
4.0
 40
5.0
 40
5.0
 40
5.0
 40
6.0
 40
6.0
 40
6.0
 40
7.0
 40
7.0
 40
7.0
 40
8.0
 40
8.0
 40
8.0
 40
9.0
 40
9.0
 40
9.0
 40
10.0
 40
10.0
 40
10.0
 40
10.0
 10
545.9818330883309
 20
-514.2073729183231
 30
0.0
 10
545.9818330883309
 20
-514.2073729183231
 30
0.0
 10
544.7319524462822
 20
-453.349933426159
 30
0.0
 10
544.7319524462822
 20
-453.349933426159
 30
0.0
 10
544.7319524462822
 20
-453.349933426159
 30
0.0
 10
542.2321911621849
 20
-453.349933426159
 30
0.0
 10
542.2321911621849
 20
-453.349933426159
 30
0.0
 10
542.2321911621849
 20
-453.349933426159
 30
0.0
 10
540.9823105201363
 20
-514.2073729183231
 30
0.0
 10
540.9823105201363
 20
-514.2073729183231
 30
0.0
 10
536.6690509726035
 20
-515.3173826836706
 30
0.0
 10
533.4823376487474
 20
-519.2330782122056
 30
0.0
 10
533.4823376487474
 20
-523.8922253464574
 30
0.0
 10
533.4823376487474
 20
-528.5520614998063
 30
0.0
 10
536.6690509726035
 20
-532.4684460474384
 30
0.0
 10
540.9823105201363
 20
-533.5777667936889
 30
0.0
 10
540.9823105201363
 20
-533.5777667936889
 30
0.0
 10
541.2317354332683
 20
-540.8117782936164
 30
0.0
 10
541.2317354332683
 20
-540.8117782936164
 30
0.0
 10
541.2317354332683
 20
-540.8117782936164
 30
0.0
 10
545.7317191561017
 20
-540.8117782936164
 30
0.0
 10
545.7317191561017
 20
-540.8117782936164
 30
0.0
 10
545.7317191561017
 20
-540.8117782936164
 30
0.0
 10
545.9818330883309
 20
-533.5777667936889
 30
0.0
 10
545.9818330883309
 20
-533.5777667936889
 30
0.0
 10
550.2957816549607
 20
-532.4684460474384
 30
0.0
 10
553.4824949788168
 20
-528.5520614998063
 30
0.0
 10
553.4824949788168
 20
-523.8922253464574
 30
0.0
 10
553.4824949788168
 20
-519.2323891931085
 30
0.0
 10
550.2950926358636
 20
-515.3173826836706
 30
0.0
 10
545.9818330883309
 20
-514.2073729183231
 30
0.0
  0
SPLINE
  5
43
330
1F
100
AcDbEntity
  8
Layer 1
 62
   250
420
  1908252
370
    13
100
AcDbSpline
210
0.0
220
0.0
230
1.0
 70
    11
 71
     3
 72
    17
 73
    13
 74
     0
 42
0.0000000001
 43
0.0000000001
 40
0.0
 40
0.0
 40
0.0
 40
0.0
 40
1.0
 40
1.0
 40
1.0
 40
2.0
 40
2.0
 40
2.0
 40
3.0
 40
3.0
 40
3.0
 40
4.0
 40
4.0
 40
4.0
 40
4.0
 10
546.3425345856365
 20
-523.8343477423052
 30
0.0
 10
546.3425345856365
 20
-522.2602836150946
 30
0.0
 10
545.0668157274486
 20
-520.9845647569066
 30
0.0
 10
543.4927516002379
 20
-520.9845647569066
 30
0.0
 10
541.9186874730273
 20
-520.9845647569066
 30
0.0
 10
540.6429686148392
 20
-522.2602836150946
 30
0.0
 10
540.6429686148392
 20
-523.8343477423052
 30
0.0
 10
540.6429686148392
 20
-525.4087563790645
 30
0.0
 10
541.9186874730273
 20
-526.6844752372524
 30
0.0
 10
543.4927516002379
 20
-526.6844752372524
 30
0.0
 10
545.0668157274486
 20
-526.6844752372524
 30
0.0
 10
546.3425345856365
 20
-525.4087563790645
 30
0.0
 10
546.3425345856365
 20
-523.8343477423052
 30
0.0
  0
POLYLINE
  5
44
330
1F
100
AcDbEntity
  8
Layer 1
 62
   250
420
  1908252
370
    13
100
AcDb2dPolyline
 66
     1
 10
0.0
 20
0.0
 30
0.0
  0
VERTEX
  5
45
330
44
100
AcDbEntity
  8
Layer 1
 62
   250
420
  1908252
370
    13
100
AcDbVertex
100
AcDb2dVertex
 10
457.4352999073425
 20
-449.8037243884171
 30
0.0
  0
VERTEX
  5
46
330
44
100
AcDbEntity
  8
Layer 1
 62
   250
420
  1908252
370
    13
100
AcDbVertex
100
AcDb2dVertex
 10
457.4352999073425
 20
-549.803822019667
 30
0.0
  0
SEQEND
  5
47
330
44
100
AcDbEntity
  8
Layer 1
370
    13
  0
ENDSEC
  0
SECTION
  2
OBJECTS
  0
DICTIONARY
  5
C
330
0
100
AcDbDictionary
281
     1
  3
ACAD_GROUP
350
D
  3
ACAD_LAYOUT
350
1A
  3
ACAD_MLINESTYLE
350
17
  3
ACAD_PLOTSETTINGS
350
19
  3
ACAD_PLOTSTYLENAME
350
E
  3
ACAD_TABLESTYLE
350
48
  3
ACAD_VISUALSTYLE
350
2A
  0
DICTIONARY
  5
D
102
{ACAD_REACTORS
330
C
102
}
330
C
100
AcDbDictionary
281
     1
  0
DICTIONARY
  5
1A
102
{ACAD_REACTORS
330
C
102
}
330
C
100
AcDbDictionary
281
     1
  3
Layout1
350
1E
  3
Layout2
350
26
  3
Model
350
22
  0
DICTIONARY
  5
17
102
{ACAD_REACTORS
330
C
102
}
330
C
100
AcDbDictionary
281
     1
  3
Standard
350
18
  0
DICTIONARY
  5
19
102
{ACAD_REACTORS
330
C
102
}
330
C
100
AcDbDictionary
281
     1
  0
ACDBDICTIONARYWDFLT
  5
E
102
{ACAD_REACTORS
330
C
102
}
330
C
100
AcDbDictionary
281
     1
  3
Normal
350
F
100
AcDbDictionaryWithDefault
340
F
  0
DICTIONARY
  5
48
102
{ACAD_REACTORS
330
C
102
}
330
C
100
AcDbDictionary
281
     1
  0
DICTIONARY
  5
2A
102
{ACAD_REACTORS
330
C
102
}
330
C
100
AcDbDictionary
281
     1
  3
2dWireframe
350
2F
  3
3D Hidden
350
31
  3
3dWireframe
350
30
  3
Basic
350
32
  3
Brighten
350
36
  3
ColorChange
350
3A
  3
Conceptual
350
34
  3
Dim
350
35
  3
Facepattern
350
39
  3
Flat
350
2B
  3
FlatWithEdges
350
2C
  3
Gouraud
350
2D
  3
GouraudWithEdges
350
2E
  3
Linepattern
350
38
  3
Realistic
350
33
  3
Thicken
350
37
  0
LAYOUT
  5
1E
102
{ACAD_REACTORS
330
1A
102
}
330
1A
100
AcDbPlotSettings
  1

  2
none_device
  4

  6

 40
0.0
 41
0.0
 42
0.0
 43
0.0
 44
0.0
 45
0.0
 46
0.0
 47
0.0
 48
0.0
 49
0.0
140
0.0
141
0.0
142
1.0
143
1.0
 70
   688
 72
     0
 73
     0
 74
     5
  7

 75
    16
 76
     0
 77
     2
 78
   300
147
1.0
148
0.0
149
0.0
100
AcDbLayout
  1
Layout1
 70
     1
 71
     1
 10
0.0
 20
0.0
 11
12.0
 21
9.0
 12
0.0
 22
0.0
 32
0.0
 14
1.000000000000000E+20
 24
1.000000000000000E+20
 34
1.000000000000000E+20
 15
-1.000000000000000E+20
 25
-1.000000000000000E+20
 35
-1.000000000000000E+20
146
0.0
 13
0.0
 23
0.0
 33
0.0
 16
1.0
 26
0.0
 36
0.0
 17
0.0
 27
1.0
 37
0.0
 76
     0
330
1B
  0
LAYOUT
  5
26
102
{ACAD_REACTORS
330
1A
102
}
330
1A
100
AcDbPlotSettings
  1

  2
none_device
  4

  6

 40
0.0
 41
0.0
 42
0.0
 43
0.0
 44
0.0
 45
0.0
 46
0.0
 47
0.0
 48
0.0
 49
0.0
140
0.0
141
0.0
142
1.0
143
1.0
 70
   688
 72
     0
 73
     0
 74
     5
  7

 75
    16
 76
     0
 77
     2
 78
   300
147
1.0
148
0.0
149
0.0
100
AcDbLayout
  1
Layout2
 70
     1
 71
     2
 10
0.0
 20
0.0
 11
0.0
 21
0.0
 12
0.0
 22
0.0
 32
0.0
 14
0.0
 24
0.0
 34
0.0
 15
0.0
 25
0.0
 35
0.0
146
0.0
 13
0.0
 23
0.0
 33
0.0
 16
1.0
 26
0.0
 36
0.0
 17
0.0
 27
1.0
 37
0.0
 76
     0
330
23
  0
LAYOUT
  5
22
102
{ACAD_REACTORS
330
1A
102
}
330
1A
100
AcDbPlotSettings
  1

  2
none_device
  4

  6

 40
0.0
 41
0.0
 42
0.0
 43
0.0
 44
0.0
 45
0.0
 46
0.0
 47
0.0
 48
0.0
 49
0.0
140
0.0
141
0.0
142
1.0
143
1.0
 70
  1712
 72
     0
 73
     0
 74
     0
  7

 75
     0
 76
     0
 77
     2
 78
   300
147
1.0
148
0.0
149
0.0
100
AcDbLayout
  1
Model
 70
     1
 71
     0
 10
0.0
 20
0.0
 11
12.0
 21
9.0
 12
0.0
 22
0.0
 32
0.0
 14
1.000000000000000E+20
 24
1.000000000000000E+20
 34
1.000000000000000E+20
 15
-1.000000000000000E+20
 25
-1.000000000000000E+20
 35
-1.000000000000000E+20
146
0.0
 13
0.0
 23
0.0
 33
0.0
 16
1.0
 26
0.0
 36
0.0
 17
0.0
 27
1.0
 37
0.0
 76
     0
330
1F
331
29
  0
MLINESTYLE
  5
18
102
{ACAD_REACTORS
330
17
102
}
330
17
100
AcDbMlineStyle
  2
Standard
 70
     0
  3

 62
   256
 51
90.0
 52
90.0
 71
     2
 49
0.5
 62
   256
  6
BYLAYER
 49
-0.5
 62
   256
  6
BYLAYER
  0
ACDBPLACEHOLDER
  5
F
102
{ACAD_REACTORS
330
E
102
}
330
E
  0
VISUALSTYLE
  5
2F
102
{ACAD_REACTORS
330
2A
102
}
330
2A
100
AcDbVisualStyle
  2
2dWireframe
 70
     4
 71
     0
 72
     2
 73
     0
 90
        0
 40
-0.6
 41
-30.0
 62
     5
 63
     7
421
 16777215
 74
     1
 91
        4
 64
     7
 65
   257
 75
     1
175
     1
 42
1.0
 92
        0
 66
   257
 43
1.0
 76
     1
 77
     6
 78
     2
 67
     7
 79
     5
170
     0
171
     0
290
     0
174
     0
 93
        1
 44
0.0
173
     0
291
     0
 45
0.0
1001
ACAD
1000
AcDbSavedByObjectVersion
1070
     0
  0
VISUALSTYLE
  5
31
102
{ACAD_REACTORS
330
2A
102
}
330
2A
100
AcDbVisualStyle
  2
3D Hidden
 70
     6
 71
     1
 72
     2
 73
     2
 90
        0
 40
-0.6
 41
-30.0
 62
     5
 63
     7
421
 16777215
 74
     2
 91
        2
 64
     7
 65
   257
 75
     2
175
     1
 42
40.0
 92
        0
 66
   257
 43
1.0
 76
     1
 77
     6
 78
     2
 67
     7
 79
     3
170
     0
171
     0
290
     0
174
     0
 93
        1
 44
0.0
173
     0
291
     0
 45
0.0
1001
ACAD
1000
AcDbSavedByObjectVersion
1070
     0
  0
VISUALSTYLE
  5
30
102
{ACAD_REACTORS
330
2A
102
}
330
2A
100
AcDbVisualStyle
  2
3dWireframe
 70
     5
 71
     0
 72
     2
 73
     0
 90
        0
 40
-0.6
 41
-30.0
 62
     5
 63
     7
421
 16777215
 74
     1
 91
        4
 64
     7
 65
   257
 75
     1
175
     1
 42
1.0
 92
        0
 66
   257
 43
1.0
 76
     1
 77
     6
 78
     2
 67
     7
 79
     5
170
     0
171
     0
290
     0
174
     0
 93
        1
 44
0.0
173
     0
291
     0
 45
0.0
1001
ACAD
1000
AcDbSavedByObjectVersion
1070
     0
  0
VISUALSTYLE
  5
32
102
{ACAD_REACTORS
330
2A
102
}
330
2A
100
AcDbVisualStyle
  2
Basic
 70
     7
 71
     1
 72
     0
 73
     1
 90
        0
 40
-0.6
 41
-30.0
 62
     5
 63
     7
421
 16777215
 74
     0
 91
        4
 64
     7
 65
   257
 75
     1
175
     1
 42
1.0
 92
        8
 66
     7
 43
1.0
 76
     1
 77
     6
 78
     2
 67
     7
 79
     5
170
     0
171
     0
290
     0
174
     0
 93
        1
 44
0.0
173
     0
291
     1
 45
0.0
1001
ACAD
1000
AcDbSavedByObjectVersion
1070
     0
  0
VISUALSTYLE
  5
36
102
{ACAD_REACTORS
330
2A
102
}
330
2A
100
AcDbVisualStyle
  2
Brighten
 70
    12
 71
     2
 72
     2
 73
     0
 90
        0
 40
-0.6
 41
-30.0
 62
     5
 63
     7
421
 16777215
 74
     1
 91
        4
 64
     7
 65
   257
 75
     1
175
     1
 42
1.0
 92
        8
 66
     7
 43
1.0
 76
     1
 77
     6
 78
     2
 67
     7
 79
     5
170
     0
171
     0
290
     0
174
     0
 93
        1
 44
50.0
173
     0
291
     1
 45
0.0
1001
ACAD
1000
AcDbSavedByObjectVersion
1070
     0
  0
VISUALSTYLE
  5
3A
102
{ACAD_REACTORS
330
2A
102
}
330
2A
100
AcDbVisualStyle
  2
ColorChange
 70
    16
 71
     2
 72
     2
 73
     3
 90
        0
 40
-0.6
 41
-30.0
 62
     5
 63
     8
421
  8421504
 74
     1
 91
        4
 64
     7
 65
   257
 75
     1
175
     1
 42
1.0
 92
        8
 66
     8
424
  8421504
 43
1.0
 76
     1
 77
     6
 78
     2
 67
     7
 79
     5
170
     0
171
     0
290
     0
174
     0
 93
        1
 44
0.0
173
     0
291
     1
 45
0.0
1001
ACAD
1000
AcDbSavedByObjectVersion
1070
     0
  0
VISUALSTYLE
  5
34
102
{ACAD_REACTORS
330
2A
102
}
330
2A
100
AcDbVisualStyle
  2
Conceptual
 70
     9
 71
     3
 72
     2
 73
     0
 90
        0
 40
-0.6
 41
-30.0
 62
     5
 63
     7
421
 16777215
 74
     2
 91
        2
 64
     7
 65
   257
 75
     1
175
     1
 42
40.0
 92
        8
 66
     7
 43
1.0
 76
     1
 77
     6
 78
     2
 67
     7
 79
     3
170
     0
171
     0
290
     0
174
     0
 93
        1
 44
0.0
173
     0
291
     0
 45
0.0
1001
ACAD
1000
AcDbSavedByObjectVersion
1070
     0
  0
VISUALSTYLE
  5
35
102
{ACAD_REACTORS
330
2A
102
}
330
2A
100
AcDbVisualStyle
  2
Dim
 70
    11
 71
     2
 72
     2
 73
     0
 90
        0
 40
-0.6
 41
-30.0
 62
     5
 63
     7
421
 16777215
 74
     1
 91
        4
 64
     7
 65
   257
 75
     1
175
     1
 42
1.0
 92
        8
 66
     7
 43
1.0
 76
     1
 77
     6
 78
     2
 67
     7
 79
     5
170
     0
171
     0
290
     0
174
     0
 93
        1
 44
-50.0
173
     0
291
     1
 45
0.0
1001
ACAD
1000
AcDbSavedByObjectVersion
1070
     0
  0
VISUALSTYLE
  5
39
102
{ACAD_REACTORS
330
2A
102
}
330
2A
100
AcDbVisualStyle
  2
Facepattern
 70
    15
 71
     2
 72
     2
 73
     0
 90
        0
 40
-0.6
 41
-30.0
 62
     5
 63
     7
421
 16777215
 74
     1
 91
        4
 64
     7
 65
   257
 75
     1
175
     1
 42
1.0
 92
        8
 66
     7
 43
1.0
 76
     1
 77
     6
 78
     2
 67
     7
 79
     5
170
     0
171
     0
290
     0
174
     0
 93
        1
 44
0.0
173
     0
291
     1
 45
0.0
1001
ACAD
1000
AcDbSavedByObjectVersion
1070
     0
  0
VISUALSTYLE
  5
2B
102
{ACAD_REACTORS
330
2A
102
}
330
2A
100
AcDbVisualStyle
  2
Flat
 70
     0
 71
     2
 72
     1
 73
     1
 90
        2
 40
-0.6
 41
30.0
 62
     5
 63
     7
421
 16777215
 74
     0
 91
        4
 64
     7
 65
   257
 75
     1
175
     1
 42
1.0
 92
        8
 66
     7
 43
1.0
 76
     1
 77
     6
 78
     2
 67
     7
 79
     5
170
     0
171
     0
290
     0
174
     0
 93
       13
 44
0.0
173
     0
291
     1
 45
0.0
1001
ACAD
1000
AcDbSavedByObjectVersion
1070
     0
  0
VISUALSTYLE
  5
2C
102
{ACAD_REACTORS
330
2A
102
}
330
2A
100
AcDbVisualStyle
  2
FlatWithEdges
 70
     1
 71
     2
 72
     1
 73
     1
 90
        2
 40
-0.6
 41
30.0
 62
     5
 63
     7
421
 16777215
 74
     1
 91
        4
 64
     7
 65
   257
 75
     1
175
     1
 42
1.0
 92
        0
 66
   257
 43
1.0
 76
     1
 77
     6
 78
     2
 67
     7
 79
     5
170
     0
171
     0
290
     0
174
     0
 93
       13
 44
0.0
173
     0
291
     1
 45
0.0
1001
ACAD
1000
AcDbSavedByObjectVersion
1070
     0
  0
VISUALSTYLE
  5
2D
102
{ACAD_REACTORS
330
2A
102
}
330
2A
100
AcDbVisualStyle
  2
Gouraud
 70
     2
 71
     2
 72
     2
 73
     1
 90
        2
 40
-0.6
 41
30.0
 62
     5
 63
     7
421
 16777215
 74
     0
 91
        4
 64
     7
 65
   257
 75
     1
175
     1
 42
1.0
 92
        0
 66
     7
 43
1.0
 76
     1
 77
     6
 78
     2
 67
     7
 79
     5
170
     0
171
     0
290
     0
174
     0
 93
       13
 44
0.0
173
     0
291
     1
 45
0.0
1001
ACAD
1000
AcDbSavedByObjectVersion
1070
     0
  0
VISUALSTYLE
  5
2E
102
{ACAD_REACTORS
330
2A
102
}
330
2A
100
AcDbVisualStyle
  2
GouraudWithEdges
 70
     3
 71
     2
 72
     2
 73
     1
 90
        2
 40
-0.6
 41
30.0
 62
     5
 63
     7
421
 16777215
 74
     1
 91
        4
 64
     7
 65
   257
 75
     1
175
     1
 42
1.0
 92
        0
 66
   257
 43
1.0
 76
     1
 77
     6
 78
     2
 67
     7
 79
     5
170
     0
171
     0
290
     0
174
     0
 93
       13
 44
0.0
173
     0
291
     1
 45
0.0
1001
ACAD
1000
AcDbSavedByObjectVersion
1070
     0
  0
VISUALSTYLE
  5
38
102
{ACAD_REACTORS
330
2A
102
}
330
2A
100
AcDbVisualStyle
  2
Linepattern
 70
    14
 71
     2
 72
     2
 73
     0
 90
        0
 40
-0.6
 41
-30.0
 62
     5
 63
     7
421
 16777215
 74
     1
 91
        4
 64
     7
 65
   257
 75
     7
175
     7
 42
1.0
 92
        8
 66
     7
 43
1.0
 76
     1
 77
     6
 78
     2
 67
     7
 79
     5
170
     0
171
     0
290
     0
174
     0
 93
        1
 44
0.0
173
     0
291
     1
 45
0.0
1001
ACAD
1000
AcDbSavedByObjectVersion
1070
     0
  0
VISUALSTYLE
  5
33
102
{ACAD_REACTORS
330
2A
102
}
330
2A
100
AcDbVisualStyle
  2
Realistic
 70
     8
 71
     2
 72
     2
 73
     0
 90
        0
 40
-0.6
 41
-30.0
 62
     5
 63
     7
421
 16777215
 74
     1
 91
        0
 64
     7
 65
   257
 75
     1
175
     1
 42
1.0
 92
        8
 66
     8
424
  7895160
 43
1.0
 76
     1
 77
     6
 78
     2
 67
     7
 79
     5
170
     0
171
     0
290
     0
174
     0
 93
       13
 44
0.0
173
     0
291
     0
 45
0.0
1001
ACAD
1000
AcDbSavedByObjectVersion
1070
     0
  0
VISUALSTYLE
  5
37
102
{ACAD_REACTORS
330
2A
102
}
330
2A
100
AcDbVisualStyle
  2
Thicken
 70
    13
 71
     2
 72
     2
 73
     0
 90
        0
 40
-0.6
 41
-30.0
 62
     5
 63
     7
421
 16777215
 74
     1
 91
        4
 64
     7
 65
   257
 75
     1
175
     1
 42
1.0
 92
       12
 66
     7
 43
1.0
 76
     1
 77
     6
 78
     2
 67
     7
 79
     5
170
     0
171
     0
290
     0
174
     0
 93
        1
 44
0.0
173
     0
291
     1
 45
0.0
1001
ACAD
1000
AcDbSavedByObjectVersion
1070
     0
  0
ENDSEC
  0
EOF
