<?xml version="1.0" encoding="utf-8"?>
<!-- Generator: Adobe Illustrator 15.1.0, SVG Export Plug-In . SVG Version: 6.00 Build 0)  -->
<!DOCTYPE svg PUBLIC "-//W3C//DTD SVG 1.1//EN" "http://www.w3.org/Graphics/SVG/1.1/DTD/svg11.dtd">
<svg version="1.1" id="Layer_1" xmlns="http://www.w3.org/2000/svg" xmlns:xlink="http://www.w3.org/1999/xlink" x="0px" y="0px"
	 width="2986px" height="3048.65px" viewBox="0 0 2986 3048.65" enable-background="new 0 0 2986 3048.65" xml:space="preserve">
<polygon fill="#E30613" stroke="#000000" stroke-miterlimit="10" points="2512.484,3372 506.032,3372 506.032,848.709 
	1509.258,269.497 2512.484,848.709 "/>
<polygon fill="#E30613" stroke="#000000" stroke-miterlimit="10" points="2450.213,3276.753 566.958,3276.753 566.958,908.393 
	1508.586,364.744 2450.213,908.393 "/>
<circle fill="#E30613" stroke="#000000" stroke-miterlimit="10" cx="1509.258" cy="1717.294" r="304.452"/>
<path fill="none" stroke="#000000" stroke-miterlimit="10" d="M2577.564-347.291"/>
<path fill="#E30613" stroke="#000000" stroke-miterlimit="10" d="M506.032,848.709"/>
<polygon fill="#E30613" stroke="#000000" stroke-miterlimit="10" points="2891.998,882.542 1509.822,84.543 127.646,882.543 
	207.646,1021.107 1509.822,269.295 2811.998,1021.106 "/>
<path fill="#E30613" stroke="#000000" stroke-miterlimit="10" d="M1650.99,897.16v334.95h-142.4V830.13
	C1630.08,830.13,1650.99,897.16,1650.99,897.16z"/>
<path fill="#E30613" stroke="#000000" stroke-miterlimit="10" d="M1508.59,830.13v401.98h-141.06V897.16
	C1367.53,897.16,1387.09,830.13,1508.59,830.13z"/>
<rect x="591.96" y="2156" fill="#E30613" stroke="#000000" stroke-miterlimit="10" width="1812" height="40"/>
<rect x="591.96" y="3188" fill="#E30613" stroke="#000000" stroke-miterlimit="10" width="1812" height="40"/>
<rect x="701.948" y="2249.725" fill="#E30613" stroke="#000000" stroke-miterlimit="10" width="198.425" height="907.087"/>
<rect x="985.414" y="2249.725" fill="#E30613" stroke="#000000" stroke-miterlimit="10" width="198.424" height="907.087"/>
<rect x="1268.877" y="2249.725" fill="#E30613" stroke="#000000" stroke-miterlimit="10" width="198.426" height="907.087"/>
<rect x="1552.343" y="2249.725" fill="#E30613" stroke="#000000" stroke-miterlimit="10" width="198.425" height="907.087"/>
<rect x="1835.807" y="2249.725" fill="#E30613" stroke="#000000" stroke-miterlimit="10" width="198.425" height="907.087"/>
<rect x="2119.272" y="2249.725" fill="#E30613" stroke="#000000" stroke-miterlimit="10" width="198.424" height="907.087"/>
</svg>
