<?xml version="1.0" encoding="utf-8"?>
<!-- Generator: Adobe Illustrator 15.1.0, SVG Export Plug-In . SVG Version: 6.00 Build 0)  -->
<!DOCTYPE svg PUBLIC "-//W3C//DTD SVG 1.1//EN" "http://www.w3.org/Graphics/SVG/1.1/DTD/svg11.dtd">
<svg version="1.1" id="Layer_1" xmlns="http://www.w3.org/2000/svg" xmlns:xlink="http://www.w3.org/1999/xlink" x="0px" y="0px"
	 width="2986px" height="3048.65px" viewBox="0 0 2986 3048.65" enable-background="new 0 0 2986 3048.65" xml:space="preserve">
<polygon fill="none" stroke="#000000" stroke-miterlimit="10" points="2512.484,3372 506.032,3372 506.032,848.709 
	1509.258,269.497 2512.484,848.709 "/>
<polygon fill="none" stroke="#000000" stroke-miterlimit="10" points="2450.213,3276.753 566.958,3276.753 566.958,908.393 
	1508.586,364.744 2450.213,908.393 "/>
<circle fill="none" stroke="#000000" stroke-miterlimit="10" cx="1509.258" cy="1717.294" r="304.452"/>
<path fill="none" stroke="#000000" stroke-miterlimit="10" d="M2577.564-347.291"/>
<path fill="none" stroke="#000000" stroke-miterlimit="10" d="M506.032,848.709"/>
<polygon fill="none" stroke="#000000" stroke-miterlimit="10" points="2891.998,882.542 1509.822,84.543 127.646,882.543 
	207.646,1021.107 1509.822,269.295 2811.998,1021.106 "/>
<g>
	<path fill="none" stroke="#000000" stroke-miterlimit="10" d="M1350.065,2652.353c-3.654,29.289-17.833,77.338-72.449,70.665
		c-54.721-6.774-56.797-56.802-53.255-86.09c3.542-29.29,17.822-77.234,72.441-70.563l7.502-60.661
		c-79.524-9.695-137.685,38.461-147.997,122.779c-10.32,84.427,34.281,145.192,113.817,154.99
		c79.515,9.796,137.675-38.461,147.996-122.785L1350.065,2652.353z"/>
	<path fill="none" stroke="#000000" stroke-miterlimit="10" d="M718.436,2711.449l2.087,61.184c0.203,5.729-0.317,12.091-6.046,12.3
		l-45.235,1.563c-5.74,0.208-11.052-5.943-11.256-11.776l-8.55-251.508c-0.203-5.73,4.794-7.399,10.524-7.607l45.234-1.456
		c5.742-0.209,6.577,1.146,6.678,6.982l3.643,104.747L718.436,2711.449z"/>
	<path fill="none" stroke="#000000" stroke-miterlimit="10" d="M908.44,2771.905c-1.771,3.541-5.214,6.564-9.061,6.774
		l-56.285,1.873c-3.44,0.105-7.819-2.293-9.793-5.214l-75.157-105.683l46.697-47.428l102.562,138.521
		C909.702,2763.88,910.108,2768.464,908.44,2771.905z"/>
	<path fill="none" stroke="#000000" stroke-miterlimit="10" d="M1017.636,2504.682c-80.137,0-131.915,54.924-131.915,139.926
		c0,85.001,51.778,139.924,131.915,139.924c80.125,0,131.893-54.923,131.893-139.924
		C1149.528,2559.605,1097.76,2504.682,1017.636,2504.682z M1017.636,2723.602c-55.108,0-63.332-49.497-63.332-78.994
		c0-29.437,8.223-78.813,63.332-78.813c55.086,0,63.31,49.376,63.31,78.813C1080.945,2674.104,1072.722,2723.602,1017.636,2723.602z
		"/>
	<path fill="none" stroke="#000000" stroke-miterlimit="10" d="M1558.869,2641.665c-0.51-5.74-5.568-9.965-11.299-9.455
		l-103.82,9.222c-5.74,0.508-9.975,5.568-9.467,11.309l2.768,31.146c0.51,5.741,5.578,9.966,11.299,9.456l103.82-9.222
		c5.743-0.509,9.976-5.568,9.466-11.309L1558.869,2641.665z"/>
	<path fill="none" stroke="#000000" stroke-miterlimit="10" d="M1845.557,2531.135l-98.386,93.074l-46.169,43.985l-38.678,38.979
		l-2.494,61.081c-0.216,5.839-9.173,11.778-14.913,11.568l-45.231-1.879c-5.732-0.207-13.03-6.771-12.713-12.61l10.006-251.501
		c0.203-5.73,7.816-6.882,13.545-6.565l45.235,1.771c5.74,0.208,14.382,1.979,14.179,7.715l-4.274,104.747l106.833-106.105
		c2.086-2.083,2.819-1.563,5.73-1.456l60.459,2.397c4.266,0.208,8.023,1.247,9.478,5.104
		C1849.628,2525.4,1848.691,2528.214,1845.557,2531.135z"/>
	<path fill="none" stroke="#000000" stroke-miterlimit="10" d="M1944.229,2505.374c-79.729,7.97-125.787,67.769-117.339,152.353
		c8.458,84.573,65.438,134.081,145.167,126.113c79.728-7.972,125.786-67.77,117.338-152.354
		C2080.937,2546.914,2023.957,2497.404,1944.229,2505.374z M1966.001,2723.216c-54.822,5.476-67.933-42.963-70.863-72.31
		c-2.931-29.293,0.345-79.238,55.168-84.726c54.819-5.476,67.921,42.843,70.844,72.124
		C2024.08,2667.659,2020.821,2717.729,1966.001,2723.216z"/>
	<path fill="none" stroke="#000000" stroke-miterlimit="10" d="M2239.336,2505.182c-79.842-6.667-136.018,43.777-143.102,128.412
		c-7.095,84.737,40.021,143.731,119.861,150.398l5-60.659c-54.823-4.586-58.883-54.618-56.492-84.009
		c2.503-29.288,14.801-77.859,69.734-73.271c54.821,4.587,58.882,54.513,56.491,83.798l68.368,5.734
		C2366.281,2570.847,2319.176,2511.853,2239.336,2505.182z"/>
	<path fill="none" stroke="#000000" stroke-miterlimit="10" d="M1224.36,2636.82"/>
	<path fill="none" stroke="#000000" stroke-miterlimit="10" d="M1350.065,2652.353"/>
	<path fill="none" stroke="#000000" stroke-miterlimit="10" d="M1748.851,2610.657l-58.784,56.005l68.613,116.809
		c1.427,2.437,5.769,9.844,14.613,10.107l56.291,2.294l0.45,0.007c6.618,0,13.188-4.068,16.768-10.375
		c3.54-6.035,3.403-14.119-0.38-20.202L1748.851,2610.657z"/>
	<path fill="none" stroke="#000000" stroke-miterlimit="10" d="M1305.361,2497.116l-8.583-1.057l-9.626,77.829l8.586,1.063
		c44.765,5.54,49.58,44.583,45.736,76.362l-1.036,8.577l85.208,10.436l1.061-8.577c5.39-43.601-3.184-82.2-24.791-111.619
		C1380.196,2520.555,1346.808,2502.223,1305.361,2497.116z"/>
	<path fill="none" stroke="#000000" stroke-miterlimit="10" d="M905.84,2508.578c-1.65-3.498-5.984-9.366-16.464-9.366
		c-0.496,0-0.997,0.013-1.503,0.036l-60.514,1.978c-0.321,0.011-0.666,0.019-1.028,0.025c-3.917,0.08-10.457,0.214-14.629,4.966
		l-104.953,116.464l3.745,109.69l53.869-56.698l46.644-47.373l91.571-100.446c5.199-5.785,6.337-12.183,3.38-19.018L905.84,2508.578
		z"/>
	<path fill="none" stroke="#000000" stroke-miterlimit="10" d="M2282.208,2649.115c-2.56,30.048-14.015,65.866-54.047,65.866
		c-2.048,0-4.183-0.09-6.346-0.271l-8.632-0.721l-6.421,77.894l8.603,0.729c4.982,0.423,9.97,0.637,14.819,0.637
		c37.894,0,70.822-12.848,95.228-37.157c24.311-24.214,38.975-58.721,42.408-99.787l0.72-8.62l-85.599-7.181L2282.208,2649.115z"/>
	<g>
		<path fill="none" stroke="#000000" stroke-miterlimit="10" d="M896.286,2514.128c0-3.445-2.787-6.232-6.239-6.232
			c-3.44,0-6.229,2.787-6.229,6.232s2.789,6.235,6.229,6.235C893.499,2520.363,896.286,2517.573,896.286,2514.128z"/>
		<path fill="none" stroke="#000000" stroke-miterlimit="10" d="M1364.972,2646.803c0-3.446-2.787-6.233-6.239-6.233
			c-3.44,0-6.229,2.787-6.229,6.233c0,3.444,2.788,6.234,6.229,6.234C1362.185,2653.037,1364.972,2650.247,1364.972,2646.803z"/>
		<path fill="none" stroke="#000000" stroke-miterlimit="10" d="M1419.772,2654.013c0-3.445-2.788-6.232-6.239-6.232
			c-3.44,0-6.229,2.787-6.229,6.232s2.789,6.235,6.229,6.235C1416.985,2660.248,1419.772,2657.458,1419.772,2654.013z"/>
		<path fill="none" stroke="#000000" stroke-miterlimit="10" d="M1721.173,2672.761c0-3.446-2.787-6.233-6.238-6.233
			c-3.44,0-6.229,2.787-6.229,6.233c0,3.444,2.789,6.234,6.229,6.234C1718.386,2678.995,1721.173,2676.205,1721.173,2672.761z"/>
		<path fill="none" stroke="#000000" stroke-miterlimit="10" d="M1754.342,2641.034c0-3.446-2.787-6.233-6.239-6.233
			c-3.44,0-6.229,2.787-6.229,6.233c0,3.444,2.788,6.234,6.229,6.234C1751.555,2647.269,1754.342,2644.479,1754.342,2641.034z"/>
		<path fill="none" stroke="#000000" stroke-miterlimit="10" d="M2233.122,2730.445c0-3.446-2.787-6.233-6.238-6.233
			c-3.44,0-6.229,2.787-6.229,6.233c0,3.444,2.789,6.234,6.229,6.234C2230.335,2736.68,2233.122,2733.89,2233.122,2730.445z"/>
		<path fill="none" stroke="#000000" stroke-miterlimit="10" d="M2228.796,2778.034c0-3.445-2.787-6.232-6.238-6.232
			c-3.44,0-6.229,2.787-6.229,6.232s2.789,6.235,6.229,6.235C2226.009,2784.27,2228.796,2781.479,2228.796,2778.034z"/>
		<path fill="none" stroke="#000000" stroke-miterlimit="10" d="M829.424,2516.928c0-3.444-2.789-6.232-6.24-6.232
			c-3.441,0-6.229,2.788-6.229,6.232c0,3.446,2.788,6.236,6.229,6.236C826.635,2523.164,829.424,2520.374,829.424,2516.928z"/>
	</g>
</g>
<path fill="none" stroke="#000000" stroke-miterlimit="10" d="M1650.99,1232.11h-283.464V897.159c0,0,19.566-67.028,141.06-67.028
	s142.404,67.028,142.404,67.028V1232.11z"/>
<line fill="none" stroke="#000000" stroke-miterlimit="10" x1="1508.586" y1="830.131" x2="1508.586" y2="1232.11"/>
<rect x="591.96" y="2156" fill="none" stroke="#000000" stroke-miterlimit="10" width="1812" height="40"/>
<rect x="591.96" y="3188" fill="none" stroke="#000000" stroke-miterlimit="10" width="1812" height="40"/>
<rect x="701.948" y="2249.725" fill="none" stroke="#000000" stroke-miterlimit="10" width="198.425" height="907.087"/>
<rect x="985.414" y="2249.725" fill="none" stroke="#000000" stroke-miterlimit="10" width="198.424" height="907.087"/>
<rect x="1268.877" y="2249.725" fill="none" stroke="#000000" stroke-miterlimit="10" width="198.426" height="907.087"/>
<rect x="1552.343" y="2249.725" fill="none" stroke="#000000" stroke-miterlimit="10" width="198.425" height="907.087"/>
<rect x="1835.807" y="2249.725" fill="none" stroke="#000000" stroke-miterlimit="10" width="198.425" height="907.087"/>
<rect x="2119.272" y="2249.725" fill="none" stroke="#000000" stroke-miterlimit="10" width="198.424" height="907.087"/>
</svg>
