<?xml version="1.0" encoding="utf-8"?>
<!-- Generator: Adobe Illustrator 15.1.0, SVG Export Plug-In . SVG Version: 6.00 Build 0)  -->
<!DOCTYPE svg PUBLIC "-//W3C//DTD SVG 1.1//EN" "http://www.w3.org/Graphics/SVG/1.1/DTD/svg11.dtd">
<svg version="1.1" id="Layer_1" xmlns="http://www.w3.org/2000/svg" xmlns:xlink="http://www.w3.org/1999/xlink" x="0px" y="0px"
	 width="8931.572px" height="7430.973px" viewBox="0 0 8931.572 7430.973" enable-background="new 0 0 8931.572 7430.973"
	 xml:space="preserve">
<path fill="#B2B2B2" stroke="#000000" stroke-width="7" stroke-miterlimit="10" d="M5663.504,2174.971l-345.156-65.52
	c-20.179-62.09-53.175-118.397-95.858-165.811l119.093-341c-40.463-29.417-83.836-55.076-129.61-76.452l-236.634,274.643
	c-30.901-6.525-62.938-9.966-95.782-9.966c-32.843,0-64.881,3.441-95.782,9.966l-236.634-274.643
	c-45.774,21.376-89.146,47.034-129.61,76.452l119.093,341c-42.684,47.414-75.68,103.721-95.859,165.812l-345.156,65.52
	c-1.715,21.202-2.604,42.637-2.604,64.28c0,30.632,1.752,60.854,5.16,90.573l342.6,65.035
	c20.18,62.09,53.176,118.397,95.859,165.812l-111.889,320.371c43.117,30.612,89.454,56.982,138.401,78.516l220.639-256.078
	c30.901,6.525,62.938,9.966,95.782,9.966s64.881-3.441,95.782-9.966l220.639,256.078c48.946-21.533,95.284-47.904,138.401-78.516
	l-111.889-320.371c42.683-47.414,75.68-103.722,95.858-165.812l342.6-65.035c3.407-29.719,5.16-59.941,5.16-90.573
	C5666.107,2217.608,5665.219,2196.173,5663.504,2174.971z"/>
<path fill="#B2B2B2" stroke="#000000" stroke-width="7" stroke-miterlimit="10" d="M8427.976,5145.855l-859.711-27.205
	c-14.27-34.057-32.777-65.897-54.863-94.863l410.861-766.656c-73.775-55.941-153.754-104.125-238.727-143.338l-461.012,743.176
	c-17.941-2.271-36.227-3.442-54.784-3.442s-36.843,1.172-54.784,3.442l-471.354-759.846
	c-85.781,36.293-166.812,81.615-241.918,134.755l424.395,791.909c-22.086,28.966-40.594,60.807-54.863,94.863l-907.867,28.729
	c-4.827,45.361-7.326,91.419-7.326,138.062s2.499,92.7,7.326,138.062l907.867,28.729c14.27,34.057,32.777,65.896,54.863,94.862
	l-424.396,791.909c75.107,53.141,156.138,98.462,241.92,134.756l471.354-759.847c17.941,2.271,36.226,3.442,54.783,3.442
	s36.842-1.172,54.783-3.442l461.013,743.177c84.973-39.213,164.951-87.396,238.728-143.338l-410.862-766.657
	c22.086-28.965,40.594-60.806,54.863-94.862l859.711-27.205c4.936-45.854,7.492-92.42,7.492-139.585
	S8432.911,5191.709,8427.976,5145.855z"/>
<path fill="#B2B2B2" stroke="#000000" stroke-width="7" stroke-miterlimit="10" d="M7750.423,2903.692l-417.364-13.208
	c-14.271-34.057-32.777-65.897-54.864-94.863l192.687-359.547c-78.352-65.963-169.026-117.753-268.08-151.417l-213.483,344.145
	c-17.941-2.271-36.226-3.442-54.784-3.442c-18.558,0-36.842,1.172-54.783,3.442l-213.482-344.145
	c-99.055,33.663-189.73,85.453-268.081,151.416l192.687,359.547c-22.087,28.966-40.594,60.807-54.864,94.863l-417.364,13.208
	c-11.392,54.92-17.389,111.815-17.389,170.113c0,46.612,3.829,92.329,11.187,136.856l423.566,13.403
	c14.271,34.057,32.777,65.896,54.864,94.861l-204.82,382.188c76.682,67.102,165.77,120.373,263.381,155.913l230.316-371.282
	c17.941,2.271,36.227,3.443,54.783,3.443c18.559,0,36.842-1.172,54.783-3.443l230.316,371.282
	c97.611-35.54,186.699-88.812,263.382-155.913l-204.82-382.188c22.087-28.965,40.594-60.805,54.864-94.861l423.567-13.403
	c7.357-44.527,11.187-90.245,11.187-136.856C7767.813,3015.508,7761.815,2958.612,7750.423,2903.692z"/>
<path fill="#B2B2B2" stroke="#000000" stroke-width="7" stroke-miterlimit="10" d="M7751.117,1263.559
	c10.91-46.133,16.695-94.248,16.695-143.714c0-61.513-8.932-120.939-25.563-177.056l-197.98-6.265
	c-14.27-34.057-32.777-65.897-54.863-94.863l89.95-167.844c-76.992-74.862-173.3-129.956-280.735-157.103l-98.092,158.129
	c-17.941-2.271-36.227-3.442-54.785-3.442c-18.557,0-36.842,1.172-54.783,3.442l-98.092-158.129
	c-107.436,27.147-203.742,82.241-280.734,157.103l89.949,167.844c-22.086,28.966-40.594,60.807-54.863,94.863l-197.979,6.265
	c-16.632,56.117-25.563,115.543-25.563,177.056c0,49.467,5.785,97.582,16.696,143.714l206.846,6.545
	c14.27,34.057,32.777,65.896,54.863,94.861l-101.497,189.391c74.696,76.515,168.956,133.846,274.695,163.908l115.679-186.481
	c17.941,2.271,36.227,3.443,54.783,3.443c18.559,0,36.842-1.172,54.783-3.443l115.68,186.481
	c105.739-30.063,200-87.393,274.696-163.908l-101.497-189.392c22.086-28.965,40.594-60.805,54.863-94.861L7751.117,1263.559z"/>
<path fill="#B2B2B2" stroke="#000000" stroke-width="7" stroke-miterlimit="10" d="M2639.854,4488.444l-433.062,108.421
	c-15.417-35.824-34.462-69.718-56.677-101.218l309.141-319.504c-33.51-39.174-70.03-75.694-109.204-109.204l-317.024,306.741
	c-31.439-24.153-65.518-45.039-101.724-62.162l106.447-425.178c-48.127-17.025-97.971-30.415-149.195-39.866l-119.092,416.849
	c-25.267-3.488-51.069-5.297-77.295-5.297c-15.58,0-31.008,0.647-46.267,1.895l-118.12-413.446
	c-51.225,9.451-101.068,22.841-149.196,39.866l103.278,412.522c-39.966,16.206-77.635,36.892-112.386,61.436l-303.193-293.359
	c-39.174,33.51-75.694,70.03-109.204,109.204l290.972,300.727c-26.631,34.615-49.3,72.434-67.342,112.776l-404.228-101.202
	c-17.026,48.128-30.416,97.971-39.867,149.196l399.44,114.118c-2.562,21.733-3.889,43.846-3.889,66.268s1.327,44.534,3.889,66.268
	l-399.44,114.118c9.451,51.226,22.841,101.068,39.867,149.196l404.228-101.202c18.042,40.343,40.711,78.161,67.342,112.776
	l-290.973,300.727c33.51,39.174,70.03,75.693,109.204,109.203l303.194-293.359c34.751,24.545,72.42,45.23,112.386,61.437
	l-103.279,412.522c48.128,17.025,97.972,30.415,149.197,39.866l118.12-413.446c15.258,1.247,30.687,1.895,46.267,1.895
	c26.226,0,52.028-1.809,77.295-5.297l119.092,416.849c51.225-9.451,101.068-22.841,149.195-39.866l-106.447-425.178
	c36.207-17.123,70.285-38.009,101.724-62.162l317.024,306.741c39.174-33.51,75.693-70.03,109.204-109.204l-309.142-319.504
	c22.215-31.499,41.261-65.393,56.677-101.217l433.062,108.421c17.026-48.128,30.416-97.972,39.867-149.196l-430.459-122.98
	c1.922-18.874,2.907-38.025,2.907-57.406s-0.985-38.532-2.907-57.406l430.459-122.98
	C2670.27,4586.415,2656.879,4536.571,2639.854,4488.444z"/>
<path fill="#B2B2B2" stroke="#000000" stroke-width="7" stroke-miterlimit="10" d="M4550.751,5804.118l-198.835,49.78
	c-15.416-35.824-34.462-69.718-56.678-101.218l141.312-146.048c-34.014-42.297-72.533-80.816-114.83-114.83l-143.567,138.911
	c-31.439-24.153-65.518-45.039-101.725-62.162l47.806-190.95c-49.917-19.405-102.428-33.617-156.877-41.947l-52.769,184.702
	c-25.267-3.488-51.069-5.297-77.295-5.297c-15.58,0-31.008,0.647-46.267,1.895l-51.797-181.3
	c-54.449,8.33-106.96,22.542-156.878,41.947l44.638,178.295c-39.966,16.206-77.635,36.892-112.386,61.436l-129.737-125.529
	c-42.297,34.014-80.817,72.533-114.83,114.831l123.142,127.27c-26.631,34.615-49.3,72.434-67.342,112.776l-170.001-42.562
	c-19.406,49.918-33.618,102.429-41.948,156.878l167.295,47.796c-2.562,21.733-3.889,43.846-3.889,66.268s1.327,44.534,3.889,66.268
	l-167.295,47.796c8.33,54.449,22.542,106.96,41.948,156.878l170.001-42.562c18.042,40.343,40.711,78.161,67.342,112.776
	l-123.142,127.27c34.013,42.298,72.532,80.816,114.83,114.83l129.737-125.529c34.751,24.545,72.42,45.23,112.386,61.437
	l-44.638,178.295c49.918,19.405,102.429,33.617,156.878,41.947l51.797-181.3c15.258,1.247,30.687,1.895,46.267,1.895
	c26.226,0,52.028-1.809,77.295-5.297l52.769,184.702c54.449-8.33,106.96-22.542,156.877-41.947l-47.806-190.95
	c36.207-17.123,70.285-38.009,101.725-62.162l143.567,138.911c42.297-34.014,80.816-72.533,114.83-114.83l-141.312-146.048
	c22.215-31.499,41.261-65.393,56.678-101.217l198.835,49.78c19.406-49.918,33.618-102.43,41.949-156.879l-198.314-56.657
	c1.922-18.874,2.907-38.025,2.907-57.406s-0.985-38.532-2.907-57.406l198.314-56.657
	C4584.369,5906.547,4570.157,5854.036,4550.751,5804.118z"/>
<path fill="#B2B2B2" stroke="#000000" stroke-width="7" stroke-miterlimit="10" d="M3445.396,1387.668l-923.463,231.197
	c-15.416-35.824-34.462-69.718-56.678-101.218l660.576-682.719c-30.965-33.947-63.476-66.458-97.423-97.423l-680.239,658.176
	c-31.439-24.153-65.518-45.039-101.725-62.162l229.223-915.579c-43.532-13.835-87.93-25.726-133.093-35.572l-257.97,902.955
	c-25.267-3.488-51.069-5.297-77.295-5.297c-15.58,0-31.008,0.647-46.267,1.895l-256.998-899.553
	c-45.163,9.846-89.562,21.737-133.094,35.572l226.055,902.923c-39.966,16.206-77.635,36.892-112.386,61.436l-666.408-644.794
	c-33.947,30.965-66.458,63.477-97.424,97.423l642.407,663.942c-26.631,34.615-49.3,72.434-67.342,112.776l-894.629-223.979
	c-13.835,43.532-25.726,87.931-35.572,133.094l885.547,252.997c-2.562,21.733-3.889,43.846-3.889,66.268s1.327,44.534,3.889,66.268
	l-885.547,252.997c9.846,45.163,21.736,89.562,35.572,133.094l894.629-223.979c18.042,40.343,40.711,78.161,67.342,112.776
	l-642.407,663.941c30.965,33.947,63.476,66.458,97.423,97.423l666.409-644.794c34.751,24.545,72.42,45.23,112.386,61.437
	l-226.055,902.923c43.533,13.835,87.931,25.726,133.094,35.572l256.998-899.553c15.258,1.247,30.687,1.895,46.267,1.895
	c26.226,0,52.028-1.809,77.295-5.297l257.97,902.955c45.162-9.847,89.561-21.737,133.093-35.572l-229.223-915.578
	c36.207-17.123,70.285-38.009,101.725-62.162l680.239,658.175c33.947-30.965,66.458-63.476,97.423-97.423l-660.576-682.719
	c22.215-31.499,41.261-65.393,56.678-101.217l923.463,231.197c13.835-43.533,25.726-87.932,35.572-133.094l-916.565-261.859
	c1.922-18.874,2.907-38.025,2.907-57.406s-0.985-38.532-2.907-57.406l916.565-261.858
	C3471.121,1475.599,3459.231,1431.2,3445.396,1387.668z"/>
</svg>
